%TF.GenerationSoftware,KiCad,Pcbnew,7.0.8*%
%TF.CreationDate,2023-10-10T01:17:21-07:00*%
%TF.ProjectId,htpm_control_module_display,6874706d-5f63-46f6-9e74-726f6c5f6d6f,1*%
%TF.SameCoordinates,Original*%
%TF.FileFunction,Legend,Top*%
%TF.FilePolarity,Positive*%
%FSLAX46Y46*%
G04 Gerber Fmt 4.6, Leading zero omitted, Abs format (unit mm)*
G04 Created by KiCad (PCBNEW 7.0.8) date 2023-10-10 01:17:21*
%MOMM*%
%LPD*%
G01*
G04 APERTURE LIST*
%ADD10C,0.300000*%
%ADD11C,0.120000*%
G04 APERTURE END LIST*
D10*
X145334510Y-93780828D02*
X145334510Y-92280828D01*
X145334510Y-92280828D02*
X145834510Y-93352257D01*
X145834510Y-93352257D02*
X146334510Y-92280828D01*
X146334510Y-92280828D02*
X146334510Y-93780828D01*
X147334511Y-92280828D02*
X147620225Y-92280828D01*
X147620225Y-92280828D02*
X147763082Y-92352257D01*
X147763082Y-92352257D02*
X147905939Y-92495114D01*
X147905939Y-92495114D02*
X147977368Y-92780828D01*
X147977368Y-92780828D02*
X147977368Y-93280828D01*
X147977368Y-93280828D02*
X147905939Y-93566542D01*
X147905939Y-93566542D02*
X147763082Y-93709400D01*
X147763082Y-93709400D02*
X147620225Y-93780828D01*
X147620225Y-93780828D02*
X147334511Y-93780828D01*
X147334511Y-93780828D02*
X147191654Y-93709400D01*
X147191654Y-93709400D02*
X147048796Y-93566542D01*
X147048796Y-93566542D02*
X146977368Y-93280828D01*
X146977368Y-93280828D02*
X146977368Y-92780828D01*
X146977368Y-92780828D02*
X147048796Y-92495114D01*
X147048796Y-92495114D02*
X147191654Y-92352257D01*
X147191654Y-92352257D02*
X147334511Y-92280828D01*
X148620225Y-93780828D02*
X148620225Y-92280828D01*
X148620225Y-92280828D02*
X148977368Y-92280828D01*
X148977368Y-92280828D02*
X149191654Y-92352257D01*
X149191654Y-92352257D02*
X149334511Y-92495114D01*
X149334511Y-92495114D02*
X149405940Y-92637971D01*
X149405940Y-92637971D02*
X149477368Y-92923685D01*
X149477368Y-92923685D02*
X149477368Y-93137971D01*
X149477368Y-93137971D02*
X149405940Y-93423685D01*
X149405940Y-93423685D02*
X149334511Y-93566542D01*
X149334511Y-93566542D02*
X149191654Y-93709400D01*
X149191654Y-93709400D02*
X148977368Y-93780828D01*
X148977368Y-93780828D02*
X148620225Y-93780828D01*
X150120225Y-92280828D02*
X150120225Y-93495114D01*
X150120225Y-93495114D02*
X150191654Y-93637971D01*
X150191654Y-93637971D02*
X150263083Y-93709400D01*
X150263083Y-93709400D02*
X150405940Y-93780828D01*
X150405940Y-93780828D02*
X150691654Y-93780828D01*
X150691654Y-93780828D02*
X150834511Y-93709400D01*
X150834511Y-93709400D02*
X150905940Y-93637971D01*
X150905940Y-93637971D02*
X150977368Y-93495114D01*
X150977368Y-93495114D02*
X150977368Y-92280828D01*
X152405940Y-93780828D02*
X151691654Y-93780828D01*
X151691654Y-93780828D02*
X151691654Y-92280828D01*
X152905940Y-92995114D02*
X153405940Y-92995114D01*
X153620226Y-93780828D02*
X152905940Y-93780828D01*
X152905940Y-93780828D02*
X152905940Y-92280828D01*
X152905940Y-92280828D02*
X153620226Y-92280828D01*
X134945714Y-74500828D02*
X135231428Y-74500828D01*
X135231428Y-74500828D02*
X135374285Y-74572257D01*
X135374285Y-74572257D02*
X135517142Y-74715114D01*
X135517142Y-74715114D02*
X135588571Y-75000828D01*
X135588571Y-75000828D02*
X135588571Y-75500828D01*
X135588571Y-75500828D02*
X135517142Y-75786542D01*
X135517142Y-75786542D02*
X135374285Y-75929400D01*
X135374285Y-75929400D02*
X135231428Y-76000828D01*
X135231428Y-76000828D02*
X134945714Y-76000828D01*
X134945714Y-76000828D02*
X134802857Y-75929400D01*
X134802857Y-75929400D02*
X134659999Y-75786542D01*
X134659999Y-75786542D02*
X134588571Y-75500828D01*
X134588571Y-75500828D02*
X134588571Y-75000828D01*
X134588571Y-75000828D02*
X134659999Y-74715114D01*
X134659999Y-74715114D02*
X134802857Y-74572257D01*
X134802857Y-74572257D02*
X134945714Y-74500828D01*
X136017143Y-74500828D02*
X136517143Y-76000828D01*
X136517143Y-76000828D02*
X137017143Y-74500828D01*
X137517142Y-75215114D02*
X138017142Y-75215114D01*
X138231428Y-76000828D02*
X137517142Y-76000828D01*
X137517142Y-76000828D02*
X137517142Y-74500828D01*
X137517142Y-74500828D02*
X138231428Y-74500828D01*
X139731428Y-76000828D02*
X139231428Y-75286542D01*
X138874285Y-76000828D02*
X138874285Y-74500828D01*
X138874285Y-74500828D02*
X139445714Y-74500828D01*
X139445714Y-74500828D02*
X139588571Y-74572257D01*
X139588571Y-74572257D02*
X139660000Y-74643685D01*
X139660000Y-74643685D02*
X139731428Y-74786542D01*
X139731428Y-74786542D02*
X139731428Y-75000828D01*
X139731428Y-75000828D02*
X139660000Y-75143685D01*
X139660000Y-75143685D02*
X139588571Y-75215114D01*
X139588571Y-75215114D02*
X139445714Y-75286542D01*
X139445714Y-75286542D02*
X138874285Y-75286542D01*
X145334510Y-76000828D02*
X145334510Y-74500828D01*
X145334510Y-74500828D02*
X145834510Y-75572257D01*
X145834510Y-75572257D02*
X146334510Y-74500828D01*
X146334510Y-74500828D02*
X146334510Y-76000828D01*
X147334511Y-74500828D02*
X147620225Y-74500828D01*
X147620225Y-74500828D02*
X147763082Y-74572257D01*
X147763082Y-74572257D02*
X147905939Y-74715114D01*
X147905939Y-74715114D02*
X147977368Y-75000828D01*
X147977368Y-75000828D02*
X147977368Y-75500828D01*
X147977368Y-75500828D02*
X147905939Y-75786542D01*
X147905939Y-75786542D02*
X147763082Y-75929400D01*
X147763082Y-75929400D02*
X147620225Y-76000828D01*
X147620225Y-76000828D02*
X147334511Y-76000828D01*
X147334511Y-76000828D02*
X147191654Y-75929400D01*
X147191654Y-75929400D02*
X147048796Y-75786542D01*
X147048796Y-75786542D02*
X146977368Y-75500828D01*
X146977368Y-75500828D02*
X146977368Y-75000828D01*
X146977368Y-75000828D02*
X147048796Y-74715114D01*
X147048796Y-74715114D02*
X147191654Y-74572257D01*
X147191654Y-74572257D02*
X147334511Y-74500828D01*
X148620225Y-76000828D02*
X148620225Y-74500828D01*
X148620225Y-74500828D02*
X148977368Y-74500828D01*
X148977368Y-74500828D02*
X149191654Y-74572257D01*
X149191654Y-74572257D02*
X149334511Y-74715114D01*
X149334511Y-74715114D02*
X149405940Y-74857971D01*
X149405940Y-74857971D02*
X149477368Y-75143685D01*
X149477368Y-75143685D02*
X149477368Y-75357971D01*
X149477368Y-75357971D02*
X149405940Y-75643685D01*
X149405940Y-75643685D02*
X149334511Y-75786542D01*
X149334511Y-75786542D02*
X149191654Y-75929400D01*
X149191654Y-75929400D02*
X148977368Y-76000828D01*
X148977368Y-76000828D02*
X148620225Y-76000828D01*
X150120225Y-74500828D02*
X150120225Y-75715114D01*
X150120225Y-75715114D02*
X150191654Y-75857971D01*
X150191654Y-75857971D02*
X150263083Y-75929400D01*
X150263083Y-75929400D02*
X150405940Y-76000828D01*
X150405940Y-76000828D02*
X150691654Y-76000828D01*
X150691654Y-76000828D02*
X150834511Y-75929400D01*
X150834511Y-75929400D02*
X150905940Y-75857971D01*
X150905940Y-75857971D02*
X150977368Y-75715114D01*
X150977368Y-75715114D02*
X150977368Y-74500828D01*
X152405940Y-76000828D02*
X151691654Y-76000828D01*
X151691654Y-76000828D02*
X151691654Y-74500828D01*
X152905940Y-75215114D02*
X153405940Y-75215114D01*
X153620226Y-76000828D02*
X152905940Y-76000828D01*
X152905940Y-76000828D02*
X152905940Y-74500828D01*
X152905940Y-74500828D02*
X153620226Y-74500828D01*
X134945714Y-92280828D02*
X135231428Y-92280828D01*
X135231428Y-92280828D02*
X135374285Y-92352257D01*
X135374285Y-92352257D02*
X135517142Y-92495114D01*
X135517142Y-92495114D02*
X135588571Y-92780828D01*
X135588571Y-92780828D02*
X135588571Y-93280828D01*
X135588571Y-93280828D02*
X135517142Y-93566542D01*
X135517142Y-93566542D02*
X135374285Y-93709400D01*
X135374285Y-93709400D02*
X135231428Y-93780828D01*
X135231428Y-93780828D02*
X134945714Y-93780828D01*
X134945714Y-93780828D02*
X134802857Y-93709400D01*
X134802857Y-93709400D02*
X134659999Y-93566542D01*
X134659999Y-93566542D02*
X134588571Y-93280828D01*
X134588571Y-93280828D02*
X134588571Y-92780828D01*
X134588571Y-92780828D02*
X134659999Y-92495114D01*
X134659999Y-92495114D02*
X134802857Y-92352257D01*
X134802857Y-92352257D02*
X134945714Y-92280828D01*
X136017143Y-92280828D02*
X136517143Y-93780828D01*
X136517143Y-93780828D02*
X137017143Y-92280828D01*
X137517142Y-92995114D02*
X138017142Y-92995114D01*
X138231428Y-93780828D02*
X137517142Y-93780828D01*
X137517142Y-93780828D02*
X137517142Y-92280828D01*
X137517142Y-92280828D02*
X138231428Y-92280828D01*
X139731428Y-93780828D02*
X139231428Y-93066542D01*
X138874285Y-93780828D02*
X138874285Y-92280828D01*
X138874285Y-92280828D02*
X139445714Y-92280828D01*
X139445714Y-92280828D02*
X139588571Y-92352257D01*
X139588571Y-92352257D02*
X139660000Y-92423685D01*
X139660000Y-92423685D02*
X139731428Y-92566542D01*
X139731428Y-92566542D02*
X139731428Y-92780828D01*
X139731428Y-92780828D02*
X139660000Y-92923685D01*
X139660000Y-92923685D02*
X139588571Y-92995114D01*
X139588571Y-92995114D02*
X139445714Y-93066542D01*
X139445714Y-93066542D02*
X138874285Y-93066542D01*
D11*
%TO.C,D7*%
X148865000Y-85070000D02*
X145775000Y-85070000D01*
X147319538Y-90619999D02*
G75*
G03*
X148864830Y-85070001I462J2989999D01*
G01*
X145775170Y-85070000D02*
G75*
G03*
X147320462Y-90620000I1544830J-2560000D01*
G01*
X149820000Y-87630000D02*
G75*
G03*
X149820000Y-87630000I-2500000J0D01*
G01*
%TO.C,JP8*%
X131080000Y-93565000D02*
X131080000Y-90765000D01*
X133080000Y-93565000D02*
X131080000Y-93565000D01*
X131080000Y-90765000D02*
X133080000Y-90765000D01*
X133080000Y-90765000D02*
X133080000Y-93565000D01*
%TO.C,J1*%
X128060000Y-110700000D02*
X128060000Y-111760000D01*
X127000000Y-110700000D02*
X128060000Y-110700000D01*
X126000000Y-110700000D02*
X107940000Y-110700000D01*
X126000000Y-110700000D02*
X126000000Y-112820000D01*
X107940000Y-110700000D02*
X107940000Y-112820000D01*
X126000000Y-112820000D02*
X107940000Y-112820000D01*
%TO.C,D13*%
X161015000Y-100350000D02*
X164105000Y-100350000D01*
X162560462Y-94800001D02*
G75*
G03*
X161015170Y-100349999I-462J-2989999D01*
G01*
X164104830Y-100350000D02*
G75*
G03*
X162559538Y-94800000I-1544830J2560000D01*
G01*
X165060000Y-97790000D02*
G75*
G03*
X165060000Y-97790000I-2500000J0D01*
G01*
%TO.C,D2*%
X135615000Y-100350000D02*
X138705000Y-100350000D01*
X137160462Y-94800001D02*
G75*
G03*
X135615170Y-100349999I-462J-2989999D01*
G01*
X138704830Y-100350000D02*
G75*
G03*
X137159538Y-94800000I-1544830J2560000D01*
G01*
X139660000Y-97790000D02*
G75*
G03*
X139660000Y-97790000I-2500000J0D01*
G01*
%TO.C,JP6*%
X126000000Y-93565000D02*
X126000000Y-90765000D01*
X128000000Y-93565000D02*
X126000000Y-93565000D01*
X126000000Y-90765000D02*
X128000000Y-90765000D01*
X128000000Y-90765000D02*
X128000000Y-93565000D01*
%TO.C,D6*%
X168635000Y-82570000D02*
X171725000Y-82570000D01*
X170180462Y-77020001D02*
G75*
G03*
X168635170Y-82569999I-462J-2989999D01*
G01*
X171724830Y-82570000D02*
G75*
G03*
X170179538Y-77020000I-1544830J2560000D01*
G01*
X172680000Y-80010000D02*
G75*
G03*
X172680000Y-80010000I-2500000J0D01*
G01*
%TO.C,D18*%
X171725000Y-102850000D02*
X168635000Y-102850000D01*
X170179538Y-108399999D02*
G75*
G03*
X171724830Y-102850001I462J2989999D01*
G01*
X168635170Y-102850000D02*
G75*
G03*
X170180462Y-108400000I1544830J-2560000D01*
G01*
X172680000Y-105410000D02*
G75*
G03*
X172680000Y-105410000I-2500000J0D01*
G01*
%TO.C,JP29*%
X112435000Y-87360000D02*
X109635000Y-87360000D01*
X112435000Y-85360000D02*
X112435000Y-87360000D01*
X109635000Y-87360000D02*
X109635000Y-85360000D01*
X109635000Y-85360000D02*
X112435000Y-85360000D01*
%TO.C,D5*%
X161015000Y-82570000D02*
X164105000Y-82570000D01*
X162560462Y-77020001D02*
G75*
G03*
X161015170Y-82569999I-462J-2989999D01*
G01*
X164104830Y-82570000D02*
G75*
G03*
X162559538Y-77020000I-1544830J2560000D01*
G01*
X165060000Y-80010000D02*
G75*
G03*
X165060000Y-80010000I-2500000J0D01*
G01*
%TO.C,JP9*%
X122920000Y-99475000D02*
X122920000Y-102275000D01*
X120920000Y-99475000D02*
X122920000Y-99475000D01*
X122920000Y-102275000D02*
X120920000Y-102275000D01*
X120920000Y-102275000D02*
X120920000Y-99475000D01*
%TO.C,JP17*%
X117255000Y-77740000D02*
X120055000Y-77740000D01*
X117255000Y-79740000D02*
X117255000Y-77740000D01*
X120055000Y-77740000D02*
X120055000Y-79740000D01*
X120055000Y-79740000D02*
X117255000Y-79740000D01*
%TO.C,JP12*%
X130540000Y-99475000D02*
X130540000Y-102275000D01*
X128540000Y-99475000D02*
X130540000Y-99475000D01*
X130540000Y-102275000D02*
X128540000Y-102275000D01*
X128540000Y-102275000D02*
X128540000Y-99475000D01*
%TO.C,R3*%
X108890000Y-101600000D02*
X109840000Y-101600000D01*
X109840000Y-100680000D02*
X109840000Y-102520000D01*
X109840000Y-102520000D02*
X113680000Y-102520000D01*
X113680000Y-100680000D02*
X109840000Y-100680000D01*
X113680000Y-102520000D02*
X113680000Y-100680000D01*
X114630000Y-101600000D02*
X113680000Y-101600000D01*
%TO.C,J2*%
X128060000Y-72600000D02*
X128060000Y-73660000D01*
X127000000Y-72600000D02*
X128060000Y-72600000D01*
X126000000Y-72600000D02*
X107940000Y-72600000D01*
X126000000Y-72600000D02*
X126000000Y-74720000D01*
X107940000Y-72600000D02*
X107940000Y-74720000D01*
X126000000Y-74720000D02*
X107940000Y-74720000D01*
%TO.C,JP27*%
X112435000Y-92440000D02*
X109635000Y-92440000D01*
X112435000Y-90440000D02*
X112435000Y-92440000D01*
X109635000Y-92440000D02*
X109635000Y-90440000D01*
X109635000Y-90440000D02*
X112435000Y-90440000D01*
%TO.C,JP26*%
X112435000Y-94980000D02*
X109635000Y-94980000D01*
X112435000Y-92980000D02*
X112435000Y-94980000D01*
X109635000Y-94980000D02*
X109635000Y-92980000D01*
X109635000Y-92980000D02*
X112435000Y-92980000D01*
%TO.C,JP31*%
X112435000Y-82280000D02*
X109635000Y-82280000D01*
X112435000Y-80280000D02*
X112435000Y-82280000D01*
X109635000Y-82280000D02*
X109635000Y-80280000D01*
X109635000Y-80280000D02*
X112435000Y-80280000D01*
%TO.C,JP30*%
X112435000Y-84820000D02*
X109635000Y-84820000D01*
X112435000Y-82820000D02*
X112435000Y-84820000D01*
X109635000Y-84820000D02*
X109635000Y-82820000D01*
X109635000Y-82820000D02*
X112435000Y-82820000D01*
%TO.C,JP2*%
X128000000Y-86775000D02*
X128000000Y-89575000D01*
X126000000Y-86775000D02*
X128000000Y-86775000D01*
X128000000Y-89575000D02*
X126000000Y-89575000D01*
X126000000Y-89575000D02*
X126000000Y-86775000D01*
%TO.C,JP24*%
X117255000Y-95520000D02*
X120055000Y-95520000D01*
X117255000Y-97520000D02*
X117255000Y-95520000D01*
X120055000Y-95520000D02*
X120055000Y-97520000D01*
X120055000Y-97520000D02*
X117255000Y-97520000D01*
%TO.C,R2*%
X125400000Y-96520000D02*
X126350000Y-96520000D01*
X126350000Y-95600000D02*
X126350000Y-97440000D01*
X126350000Y-97440000D02*
X130190000Y-97440000D01*
X130190000Y-95600000D02*
X126350000Y-95600000D01*
X130190000Y-97440000D02*
X130190000Y-95600000D01*
X131140000Y-96520000D02*
X130190000Y-96520000D01*
%TO.C,D4*%
X153395000Y-82570000D02*
X156485000Y-82570000D01*
X154940462Y-77020001D02*
G75*
G03*
X153395170Y-82569999I-462J-2989999D01*
G01*
X156484830Y-82570000D02*
G75*
G03*
X154939538Y-77020000I-1544830J2560000D01*
G01*
X157440000Y-80010000D02*
G75*
G03*
X157440000Y-80010000I-2500000J0D01*
G01*
%TO.C,JP5*%
X123460000Y-93565000D02*
X123460000Y-90765000D01*
X125460000Y-93565000D02*
X123460000Y-93565000D01*
X123460000Y-90765000D02*
X125460000Y-90765000D01*
X125460000Y-90765000D02*
X125460000Y-93565000D01*
%TO.C,R4*%
X124130000Y-83820000D02*
X125080000Y-83820000D01*
X125080000Y-82900000D02*
X125080000Y-84740000D01*
X125080000Y-84740000D02*
X128920000Y-84740000D01*
X128920000Y-82900000D02*
X125080000Y-82900000D01*
X128920000Y-84740000D02*
X128920000Y-82900000D01*
X129870000Y-83820000D02*
X128920000Y-83820000D01*
%TO.C,JP10*%
X125460000Y-99475000D02*
X125460000Y-102275000D01*
X123460000Y-99475000D02*
X125460000Y-99475000D01*
X125460000Y-102275000D02*
X123460000Y-102275000D01*
X123460000Y-102275000D02*
X123460000Y-99475000D01*
%TO.C,D14*%
X168635000Y-100350000D02*
X171725000Y-100350000D01*
X170180462Y-94800001D02*
G75*
G03*
X168635170Y-100349999I-462J-2989999D01*
G01*
X171724830Y-100350000D02*
G75*
G03*
X170179538Y-94800000I-1544830J2560000D01*
G01*
X172680000Y-97790000D02*
G75*
G03*
X172680000Y-97790000I-2500000J0D01*
G01*
%TO.C,JP20*%
X117255000Y-85360000D02*
X120055000Y-85360000D01*
X117255000Y-87360000D02*
X117255000Y-85360000D01*
X120055000Y-85360000D02*
X120055000Y-87360000D01*
X120055000Y-87360000D02*
X117255000Y-87360000D01*
%TO.C,D12*%
X153395000Y-100350000D02*
X156485000Y-100350000D01*
X154940462Y-94800001D02*
G75*
G03*
X153395170Y-100349999I-462J-2989999D01*
G01*
X156484830Y-100350000D02*
G75*
G03*
X154939538Y-94800000I-1544830J2560000D01*
G01*
X157440000Y-97790000D02*
G75*
G03*
X157440000Y-97790000I-2500000J0D01*
G01*
%TO.C,D9*%
X164105000Y-85070000D02*
X161015000Y-85070000D01*
X162559538Y-90619999D02*
G75*
G03*
X164104830Y-85070001I462J2989999D01*
G01*
X161015170Y-85070000D02*
G75*
G03*
X162560462Y-90620000I1544830J-2560000D01*
G01*
X165060000Y-87630000D02*
G75*
G03*
X165060000Y-87630000I-2500000J0D01*
G01*
%TO.C,D3*%
X145775000Y-82570000D02*
X148865000Y-82570000D01*
X147320462Y-77020001D02*
G75*
G03*
X145775170Y-82569999I-462J-2989999D01*
G01*
X148864830Y-82570000D02*
G75*
G03*
X147319538Y-77020000I-1544830J2560000D01*
G01*
X149820000Y-80010000D02*
G75*
G03*
X149820000Y-80010000I-2500000J0D01*
G01*
%TO.C,D17*%
X164105000Y-102850000D02*
X161015000Y-102850000D01*
X162559538Y-108399999D02*
G75*
G03*
X164104830Y-102850001I462J2989999D01*
G01*
X161015170Y-102850000D02*
G75*
G03*
X162560462Y-108400000I1544830J-2560000D01*
G01*
X165060000Y-105410000D02*
G75*
G03*
X165060000Y-105410000I-2500000J0D01*
G01*
%TO.C,JP19*%
X117255000Y-82820000D02*
X120055000Y-82820000D01*
X117255000Y-84820000D02*
X117255000Y-82820000D01*
X120055000Y-82820000D02*
X120055000Y-84820000D01*
X120055000Y-84820000D02*
X117255000Y-84820000D01*
%TO.C,D10*%
X171725000Y-85070000D02*
X168635000Y-85070000D01*
X170179538Y-90619999D02*
G75*
G03*
X171724830Y-85070001I462J2989999D01*
G01*
X168635170Y-85070000D02*
G75*
G03*
X170180462Y-90620000I1544830J-2560000D01*
G01*
X172680000Y-87630000D02*
G75*
G03*
X172680000Y-87630000I-2500000J0D01*
G01*
%TO.C,JP32*%
X112435000Y-79740000D02*
X109635000Y-79740000D01*
X112435000Y-77740000D02*
X112435000Y-79740000D01*
X109635000Y-79740000D02*
X109635000Y-77740000D01*
X109635000Y-77740000D02*
X112435000Y-77740000D01*
%TO.C,JP14*%
X123460000Y-106265000D02*
X123460000Y-103465000D01*
X125460000Y-106265000D02*
X123460000Y-106265000D01*
X123460000Y-103465000D02*
X125460000Y-103465000D01*
X125460000Y-103465000D02*
X125460000Y-106265000D01*
%TO.C,JP18*%
X117255000Y-80280000D02*
X120055000Y-80280000D01*
X117255000Y-82280000D02*
X117255000Y-80280000D01*
X120055000Y-80280000D02*
X120055000Y-82280000D01*
X120055000Y-82280000D02*
X117255000Y-82280000D01*
%TO.C,JP1*%
X125460000Y-86775000D02*
X125460000Y-89575000D01*
X123460000Y-86775000D02*
X125460000Y-86775000D01*
X125460000Y-89575000D02*
X123460000Y-89575000D01*
X123460000Y-89575000D02*
X123460000Y-86775000D01*
%TO.C,JP7*%
X128540000Y-93565000D02*
X128540000Y-90765000D01*
X130540000Y-93565000D02*
X128540000Y-93565000D01*
X128540000Y-90765000D02*
X130540000Y-90765000D01*
X130540000Y-90765000D02*
X130540000Y-93565000D01*
%TO.C,D1*%
X135615000Y-82570000D02*
X138705000Y-82570000D01*
X137160462Y-77020001D02*
G75*
G03*
X135615170Y-82569999I-462J-2989999D01*
G01*
X138704830Y-82570000D02*
G75*
G03*
X137159538Y-77020000I-1544830J2560000D01*
G01*
X139660000Y-80010000D02*
G75*
G03*
X139660000Y-80010000I-2500000J0D01*
G01*
%TO.C,JP13*%
X120920000Y-106265000D02*
X120920000Y-103465000D01*
X122920000Y-106265000D02*
X120920000Y-106265000D01*
X120920000Y-103465000D02*
X122920000Y-103465000D01*
X122920000Y-103465000D02*
X122920000Y-106265000D01*
%TO.C,JP23*%
X117255000Y-92980000D02*
X120055000Y-92980000D01*
X117255000Y-94980000D02*
X117255000Y-92980000D01*
X120055000Y-92980000D02*
X120055000Y-94980000D01*
X120055000Y-94980000D02*
X117255000Y-94980000D01*
%TO.C,JP28*%
X112435000Y-89900000D02*
X109635000Y-89900000D01*
X112435000Y-87900000D02*
X112435000Y-89900000D01*
X109635000Y-89900000D02*
X109635000Y-87900000D01*
X109635000Y-87900000D02*
X112435000Y-87900000D01*
%TO.C,D16*%
X156485000Y-102850000D02*
X153395000Y-102850000D01*
X154939538Y-108399999D02*
G75*
G03*
X156484830Y-102850001I462J2989999D01*
G01*
X153395170Y-102850000D02*
G75*
G03*
X154940462Y-108400000I1544830J-2560000D01*
G01*
X157440000Y-105410000D02*
G75*
G03*
X157440000Y-105410000I-2500000J0D01*
G01*
%TO.C,JP4*%
X133080000Y-86775000D02*
X133080000Y-89575000D01*
X131080000Y-86775000D02*
X133080000Y-86775000D01*
X133080000Y-89575000D02*
X131080000Y-89575000D01*
X131080000Y-89575000D02*
X131080000Y-86775000D01*
%TO.C,JP11*%
X128000000Y-99475000D02*
X128000000Y-102275000D01*
X126000000Y-99475000D02*
X128000000Y-99475000D01*
X128000000Y-102275000D02*
X126000000Y-102275000D01*
X126000000Y-102275000D02*
X126000000Y-99475000D01*
%TO.C,JP16*%
X128540000Y-106265000D02*
X128540000Y-103465000D01*
X130540000Y-106265000D02*
X128540000Y-106265000D01*
X128540000Y-103465000D02*
X130540000Y-103465000D01*
X130540000Y-103465000D02*
X130540000Y-106265000D01*
%TO.C,JP15*%
X126000000Y-106265000D02*
X126000000Y-103465000D01*
X128000000Y-106265000D02*
X126000000Y-106265000D01*
X126000000Y-103465000D02*
X128000000Y-103465000D01*
X128000000Y-103465000D02*
X128000000Y-106265000D01*
%TO.C,JP21*%
X117255000Y-87900000D02*
X120055000Y-87900000D01*
X117255000Y-89900000D02*
X117255000Y-87900000D01*
X120055000Y-87900000D02*
X120055000Y-89900000D01*
X120055000Y-89900000D02*
X117255000Y-89900000D01*
%TO.C,JP25*%
X112435000Y-97520000D02*
X109635000Y-97520000D01*
X112435000Y-95520000D02*
X112435000Y-97520000D01*
X109635000Y-97520000D02*
X109635000Y-95520000D01*
X109635000Y-95520000D02*
X112435000Y-95520000D01*
%TO.C,R1*%
X124130000Y-78740000D02*
X125080000Y-78740000D01*
X125080000Y-77820000D02*
X125080000Y-79660000D01*
X125080000Y-79660000D02*
X128920000Y-79660000D01*
X128920000Y-77820000D02*
X125080000Y-77820000D01*
X128920000Y-79660000D02*
X128920000Y-77820000D01*
X129870000Y-78740000D02*
X128920000Y-78740000D01*
%TO.C,D8*%
X156485000Y-85070000D02*
X153395000Y-85070000D01*
X154939538Y-90619999D02*
G75*
G03*
X156484830Y-85070001I462J2989999D01*
G01*
X153395170Y-85070000D02*
G75*
G03*
X154940462Y-90620000I1544830J-2560000D01*
G01*
X157440000Y-87630000D02*
G75*
G03*
X157440000Y-87630000I-2500000J0D01*
G01*
%TO.C,JP22*%
X117255000Y-90440000D02*
X120055000Y-90440000D01*
X117255000Y-92440000D02*
X117255000Y-90440000D01*
X120055000Y-90440000D02*
X120055000Y-92440000D01*
X120055000Y-92440000D02*
X117255000Y-92440000D01*
%TO.C,D15*%
X148865000Y-102850000D02*
X145775000Y-102850000D01*
X147319538Y-108399999D02*
G75*
G03*
X148864830Y-102850001I462J2989999D01*
G01*
X145775170Y-102850000D02*
G75*
G03*
X147320462Y-108400000I1544830J-2560000D01*
G01*
X149820000Y-105410000D02*
G75*
G03*
X149820000Y-105410000I-2500000J0D01*
G01*
%TO.C,JP3*%
X130540000Y-86775000D02*
X130540000Y-89575000D01*
X128540000Y-86775000D02*
X130540000Y-86775000D01*
X130540000Y-89575000D02*
X128540000Y-89575000D01*
X128540000Y-89575000D02*
X128540000Y-86775000D01*
%TO.C,D11*%
X145775000Y-100350000D02*
X148865000Y-100350000D01*
X147320462Y-94800001D02*
G75*
G03*
X145775170Y-100349999I-462J-2989999D01*
G01*
X148864830Y-100350000D02*
G75*
G03*
X147319538Y-94800000I-1544830J2560000D01*
G01*
X149820000Y-97790000D02*
G75*
G03*
X149820000Y-97790000I-2500000J0D01*
G01*
%TD*%
M02*
