%TF.GenerationSoftware,KiCad,Pcbnew,7.0.8*%
%TF.CreationDate,2023-10-10T01:17:21-07:00*%
%TF.ProjectId,htpm_control_module_display,6874706d-5f63-46f6-9e74-726f6c5f6d6f,1*%
%TF.SameCoordinates,Original*%
%TF.FileFunction,Legend,Bot*%
%TF.FilePolarity,Positive*%
%FSLAX46Y46*%
G04 Gerber Fmt 4.6, Leading zero omitted, Abs format (unit mm)*
G04 Created by KiCad (PCBNEW 7.0.8) date 2023-10-10 01:17:21*
%MOMM*%
%LPD*%
G01*
G04 APERTURE LIST*
%ADD10C,0.300000*%
%ADD11C,0.150000*%
G04 APERTURE END LIST*
D10*
X172165489Y-76000828D02*
X172165489Y-74500828D01*
X172165489Y-75215114D02*
X171308346Y-75215114D01*
X171308346Y-76000828D02*
X171308346Y-74500828D01*
X170808345Y-74500828D02*
X169951203Y-74500828D01*
X170379774Y-76000828D02*
X170379774Y-74500828D01*
X169451203Y-76000828D02*
X169451203Y-74500828D01*
X169451203Y-74500828D02*
X168879774Y-74500828D01*
X168879774Y-74500828D02*
X168736917Y-74572257D01*
X168736917Y-74572257D02*
X168665488Y-74643685D01*
X168665488Y-74643685D02*
X168594060Y-74786542D01*
X168594060Y-74786542D02*
X168594060Y-75000828D01*
X168594060Y-75000828D02*
X168665488Y-75143685D01*
X168665488Y-75143685D02*
X168736917Y-75215114D01*
X168736917Y-75215114D02*
X168879774Y-75286542D01*
X168879774Y-75286542D02*
X169451203Y-75286542D01*
X167951203Y-75857971D02*
X167879774Y-75929400D01*
X167879774Y-75929400D02*
X167951203Y-76000828D01*
X167951203Y-76000828D02*
X168022631Y-75929400D01*
X168022631Y-75929400D02*
X167951203Y-75857971D01*
X167951203Y-75857971D02*
X167951203Y-76000828D01*
X167951203Y-75429400D02*
X168022631Y-74572257D01*
X168022631Y-74572257D02*
X167951203Y-74500828D01*
X167951203Y-74500828D02*
X167879774Y-74572257D01*
X167879774Y-74572257D02*
X167951203Y-75429400D01*
X167951203Y-75429400D02*
X167951203Y-74500828D01*
X167236917Y-76000828D02*
X167236917Y-75000828D01*
X167236917Y-75143685D02*
X167165488Y-75072257D01*
X167165488Y-75072257D02*
X167022631Y-75000828D01*
X167022631Y-75000828D02*
X166808345Y-75000828D01*
X166808345Y-75000828D02*
X166665488Y-75072257D01*
X166665488Y-75072257D02*
X166594060Y-75215114D01*
X166594060Y-75215114D02*
X166594060Y-76000828D01*
X166594060Y-75215114D02*
X166522631Y-75072257D01*
X166522631Y-75072257D02*
X166379774Y-75000828D01*
X166379774Y-75000828D02*
X166165488Y-75000828D01*
X166165488Y-75000828D02*
X166022631Y-75072257D01*
X166022631Y-75072257D02*
X165951202Y-75215114D01*
X165951202Y-75215114D02*
X165951202Y-76000828D01*
X163236917Y-75857971D02*
X163308345Y-75929400D01*
X163308345Y-75929400D02*
X163522631Y-76000828D01*
X163522631Y-76000828D02*
X163665488Y-76000828D01*
X163665488Y-76000828D02*
X163879774Y-75929400D01*
X163879774Y-75929400D02*
X164022631Y-75786542D01*
X164022631Y-75786542D02*
X164094060Y-75643685D01*
X164094060Y-75643685D02*
X164165488Y-75357971D01*
X164165488Y-75357971D02*
X164165488Y-75143685D01*
X164165488Y-75143685D02*
X164094060Y-74857971D01*
X164094060Y-74857971D02*
X164022631Y-74715114D01*
X164022631Y-74715114D02*
X163879774Y-74572257D01*
X163879774Y-74572257D02*
X163665488Y-74500828D01*
X163665488Y-74500828D02*
X163522631Y-74500828D01*
X163522631Y-74500828D02*
X163308345Y-74572257D01*
X163308345Y-74572257D02*
X163236917Y-74643685D01*
X162308345Y-74500828D02*
X162022631Y-74500828D01*
X162022631Y-74500828D02*
X161879774Y-74572257D01*
X161879774Y-74572257D02*
X161736917Y-74715114D01*
X161736917Y-74715114D02*
X161665488Y-75000828D01*
X161665488Y-75000828D02*
X161665488Y-75500828D01*
X161665488Y-75500828D02*
X161736917Y-75786542D01*
X161736917Y-75786542D02*
X161879774Y-75929400D01*
X161879774Y-75929400D02*
X162022631Y-76000828D01*
X162022631Y-76000828D02*
X162308345Y-76000828D01*
X162308345Y-76000828D02*
X162451203Y-75929400D01*
X162451203Y-75929400D02*
X162594060Y-75786542D01*
X162594060Y-75786542D02*
X162665488Y-75500828D01*
X162665488Y-75500828D02*
X162665488Y-75000828D01*
X162665488Y-75000828D02*
X162594060Y-74715114D01*
X162594060Y-74715114D02*
X162451203Y-74572257D01*
X162451203Y-74572257D02*
X162308345Y-74500828D01*
X161022631Y-76000828D02*
X161022631Y-74500828D01*
X161022631Y-74500828D02*
X160165488Y-76000828D01*
X160165488Y-76000828D02*
X160165488Y-74500828D01*
X159665487Y-74500828D02*
X158808345Y-74500828D01*
X159236916Y-76000828D02*
X159236916Y-74500828D01*
X157451202Y-76000828D02*
X157951202Y-75286542D01*
X158308345Y-76000828D02*
X158308345Y-74500828D01*
X158308345Y-74500828D02*
X157736916Y-74500828D01*
X157736916Y-74500828D02*
X157594059Y-74572257D01*
X157594059Y-74572257D02*
X157522630Y-74643685D01*
X157522630Y-74643685D02*
X157451202Y-74786542D01*
X157451202Y-74786542D02*
X157451202Y-75000828D01*
X157451202Y-75000828D02*
X157522630Y-75143685D01*
X157522630Y-75143685D02*
X157594059Y-75215114D01*
X157594059Y-75215114D02*
X157736916Y-75286542D01*
X157736916Y-75286542D02*
X158308345Y-75286542D01*
X156522630Y-74500828D02*
X156236916Y-74500828D01*
X156236916Y-74500828D02*
X156094059Y-74572257D01*
X156094059Y-74572257D02*
X155951202Y-74715114D01*
X155951202Y-74715114D02*
X155879773Y-75000828D01*
X155879773Y-75000828D02*
X155879773Y-75500828D01*
X155879773Y-75500828D02*
X155951202Y-75786542D01*
X155951202Y-75786542D02*
X156094059Y-75929400D01*
X156094059Y-75929400D02*
X156236916Y-76000828D01*
X156236916Y-76000828D02*
X156522630Y-76000828D01*
X156522630Y-76000828D02*
X156665488Y-75929400D01*
X156665488Y-75929400D02*
X156808345Y-75786542D01*
X156808345Y-75786542D02*
X156879773Y-75500828D01*
X156879773Y-75500828D02*
X156879773Y-75000828D01*
X156879773Y-75000828D02*
X156808345Y-74715114D01*
X156808345Y-74715114D02*
X156665488Y-74572257D01*
X156665488Y-74572257D02*
X156522630Y-74500828D01*
X154522630Y-76000828D02*
X155236916Y-76000828D01*
X155236916Y-76000828D02*
X155236916Y-74500828D01*
X152879773Y-76000828D02*
X152879773Y-74500828D01*
X152879773Y-74500828D02*
X152379773Y-75572257D01*
X152379773Y-75572257D02*
X151879773Y-74500828D01*
X151879773Y-74500828D02*
X151879773Y-76000828D01*
X150951201Y-76000828D02*
X151094058Y-75929400D01*
X151094058Y-75929400D02*
X151165487Y-75857971D01*
X151165487Y-75857971D02*
X151236915Y-75715114D01*
X151236915Y-75715114D02*
X151236915Y-75286542D01*
X151236915Y-75286542D02*
X151165487Y-75143685D01*
X151165487Y-75143685D02*
X151094058Y-75072257D01*
X151094058Y-75072257D02*
X150951201Y-75000828D01*
X150951201Y-75000828D02*
X150736915Y-75000828D01*
X150736915Y-75000828D02*
X150594058Y-75072257D01*
X150594058Y-75072257D02*
X150522630Y-75143685D01*
X150522630Y-75143685D02*
X150451201Y-75286542D01*
X150451201Y-75286542D02*
X150451201Y-75715114D01*
X150451201Y-75715114D02*
X150522630Y-75857971D01*
X150522630Y-75857971D02*
X150594058Y-75929400D01*
X150594058Y-75929400D02*
X150736915Y-76000828D01*
X150736915Y-76000828D02*
X150951201Y-76000828D01*
X149165487Y-76000828D02*
X149165487Y-74500828D01*
X149165487Y-75929400D02*
X149308344Y-76000828D01*
X149308344Y-76000828D02*
X149594058Y-76000828D01*
X149594058Y-76000828D02*
X149736915Y-75929400D01*
X149736915Y-75929400D02*
X149808344Y-75857971D01*
X149808344Y-75857971D02*
X149879772Y-75715114D01*
X149879772Y-75715114D02*
X149879772Y-75286542D01*
X149879772Y-75286542D02*
X149808344Y-75143685D01*
X149808344Y-75143685D02*
X149736915Y-75072257D01*
X149736915Y-75072257D02*
X149594058Y-75000828D01*
X149594058Y-75000828D02*
X149308344Y-75000828D01*
X149308344Y-75000828D02*
X149165487Y-75072257D01*
X147808344Y-75000828D02*
X147808344Y-76000828D01*
X148451201Y-75000828D02*
X148451201Y-75786542D01*
X148451201Y-75786542D02*
X148379772Y-75929400D01*
X148379772Y-75929400D02*
X148236915Y-76000828D01*
X148236915Y-76000828D02*
X148022629Y-76000828D01*
X148022629Y-76000828D02*
X147879772Y-75929400D01*
X147879772Y-75929400D02*
X147808344Y-75857971D01*
X146879772Y-76000828D02*
X147022629Y-75929400D01*
X147022629Y-75929400D02*
X147094058Y-75786542D01*
X147094058Y-75786542D02*
X147094058Y-74500828D01*
X145736915Y-75929400D02*
X145879772Y-76000828D01*
X145879772Y-76000828D02*
X146165487Y-76000828D01*
X146165487Y-76000828D02*
X146308344Y-75929400D01*
X146308344Y-75929400D02*
X146379772Y-75786542D01*
X146379772Y-75786542D02*
X146379772Y-75215114D01*
X146379772Y-75215114D02*
X146308344Y-75072257D01*
X146308344Y-75072257D02*
X146165487Y-75000828D01*
X146165487Y-75000828D02*
X145879772Y-75000828D01*
X145879772Y-75000828D02*
X145736915Y-75072257D01*
X145736915Y-75072257D02*
X145665487Y-75215114D01*
X145665487Y-75215114D02*
X145665487Y-75357971D01*
X145665487Y-75357971D02*
X146379772Y-75500828D01*
X143879773Y-76000828D02*
X143879773Y-74500828D01*
X143879773Y-74500828D02*
X143522630Y-74500828D01*
X143522630Y-74500828D02*
X143308344Y-74572257D01*
X143308344Y-74572257D02*
X143165487Y-74715114D01*
X143165487Y-74715114D02*
X143094058Y-74857971D01*
X143094058Y-74857971D02*
X143022630Y-75143685D01*
X143022630Y-75143685D02*
X143022630Y-75357971D01*
X143022630Y-75357971D02*
X143094058Y-75643685D01*
X143094058Y-75643685D02*
X143165487Y-75786542D01*
X143165487Y-75786542D02*
X143308344Y-75929400D01*
X143308344Y-75929400D02*
X143522630Y-76000828D01*
X143522630Y-76000828D02*
X143879773Y-76000828D01*
X142379773Y-76000828D02*
X142379773Y-75000828D01*
X142379773Y-74500828D02*
X142451201Y-74572257D01*
X142451201Y-74572257D02*
X142379773Y-74643685D01*
X142379773Y-74643685D02*
X142308344Y-74572257D01*
X142308344Y-74572257D02*
X142379773Y-74500828D01*
X142379773Y-74500828D02*
X142379773Y-74643685D01*
X141736915Y-75929400D02*
X141594058Y-76000828D01*
X141594058Y-76000828D02*
X141308344Y-76000828D01*
X141308344Y-76000828D02*
X141165487Y-75929400D01*
X141165487Y-75929400D02*
X141094058Y-75786542D01*
X141094058Y-75786542D02*
X141094058Y-75715114D01*
X141094058Y-75715114D02*
X141165487Y-75572257D01*
X141165487Y-75572257D02*
X141308344Y-75500828D01*
X141308344Y-75500828D02*
X141522630Y-75500828D01*
X141522630Y-75500828D02*
X141665487Y-75429400D01*
X141665487Y-75429400D02*
X141736915Y-75286542D01*
X141736915Y-75286542D02*
X141736915Y-75215114D01*
X141736915Y-75215114D02*
X141665487Y-75072257D01*
X141665487Y-75072257D02*
X141522630Y-75000828D01*
X141522630Y-75000828D02*
X141308344Y-75000828D01*
X141308344Y-75000828D02*
X141165487Y-75072257D01*
X140451201Y-75000828D02*
X140451201Y-76500828D01*
X140451201Y-75072257D02*
X140308344Y-75000828D01*
X140308344Y-75000828D02*
X140022629Y-75000828D01*
X140022629Y-75000828D02*
X139879772Y-75072257D01*
X139879772Y-75072257D02*
X139808344Y-75143685D01*
X139808344Y-75143685D02*
X139736915Y-75286542D01*
X139736915Y-75286542D02*
X139736915Y-75715114D01*
X139736915Y-75715114D02*
X139808344Y-75857971D01*
X139808344Y-75857971D02*
X139879772Y-75929400D01*
X139879772Y-75929400D02*
X140022629Y-76000828D01*
X140022629Y-76000828D02*
X140308344Y-76000828D01*
X140308344Y-76000828D02*
X140451201Y-75929400D01*
X138879772Y-76000828D02*
X139022629Y-75929400D01*
X139022629Y-75929400D02*
X139094058Y-75786542D01*
X139094058Y-75786542D02*
X139094058Y-74500828D01*
X137665487Y-76000828D02*
X137665487Y-75215114D01*
X137665487Y-75215114D02*
X137736915Y-75072257D01*
X137736915Y-75072257D02*
X137879772Y-75000828D01*
X137879772Y-75000828D02*
X138165487Y-75000828D01*
X138165487Y-75000828D02*
X138308344Y-75072257D01*
X137665487Y-75929400D02*
X137808344Y-76000828D01*
X137808344Y-76000828D02*
X138165487Y-76000828D01*
X138165487Y-76000828D02*
X138308344Y-75929400D01*
X138308344Y-75929400D02*
X138379772Y-75786542D01*
X138379772Y-75786542D02*
X138379772Y-75643685D01*
X138379772Y-75643685D02*
X138308344Y-75500828D01*
X138308344Y-75500828D02*
X138165487Y-75429400D01*
X138165487Y-75429400D02*
X137808344Y-75429400D01*
X137808344Y-75429400D02*
X137665487Y-75357971D01*
X137094058Y-75000828D02*
X136736915Y-76000828D01*
X136379772Y-75000828D02*
X136736915Y-76000828D01*
X136736915Y-76000828D02*
X136879772Y-76357971D01*
X136879772Y-76357971D02*
X136951201Y-76429400D01*
X136951201Y-76429400D02*
X137094058Y-76500828D01*
X178478328Y-79294510D02*
X176978328Y-79294510D01*
X177549757Y-79294510D02*
X177478328Y-79437368D01*
X177478328Y-79437368D02*
X177478328Y-79723082D01*
X177478328Y-79723082D02*
X177549757Y-79865939D01*
X177549757Y-79865939D02*
X177621185Y-79937368D01*
X177621185Y-79937368D02*
X177764042Y-80008796D01*
X177764042Y-80008796D02*
X178192614Y-80008796D01*
X178192614Y-80008796D02*
X178335471Y-79937368D01*
X178335471Y-79937368D02*
X178406900Y-79865939D01*
X178406900Y-79865939D02*
X178478328Y-79723082D01*
X178478328Y-79723082D02*
X178478328Y-79437368D01*
X178478328Y-79437368D02*
X178406900Y-79294510D01*
X177478328Y-80508796D02*
X178478328Y-80865939D01*
X177478328Y-81223082D02*
X178478328Y-80865939D01*
X178478328Y-80865939D02*
X178835471Y-80723082D01*
X178835471Y-80723082D02*
X178906900Y-80651653D01*
X178906900Y-80651653D02*
X178978328Y-80508796D01*
X178406900Y-82865939D02*
X178478328Y-83008796D01*
X178478328Y-83008796D02*
X178478328Y-83294510D01*
X178478328Y-83294510D02*
X178406900Y-83437367D01*
X178406900Y-83437367D02*
X178264042Y-83508796D01*
X178264042Y-83508796D02*
X178192614Y-83508796D01*
X178192614Y-83508796D02*
X178049757Y-83437367D01*
X178049757Y-83437367D02*
X177978328Y-83294510D01*
X177978328Y-83294510D02*
X177978328Y-83080225D01*
X177978328Y-83080225D02*
X177906900Y-82937367D01*
X177906900Y-82937367D02*
X177764042Y-82865939D01*
X177764042Y-82865939D02*
X177692614Y-82865939D01*
X177692614Y-82865939D02*
X177549757Y-82937367D01*
X177549757Y-82937367D02*
X177478328Y-83080225D01*
X177478328Y-83080225D02*
X177478328Y-83294510D01*
X177478328Y-83294510D02*
X177549757Y-83437367D01*
X178478328Y-84151653D02*
X176978328Y-84151653D01*
X178478328Y-84794511D02*
X177692614Y-84794511D01*
X177692614Y-84794511D02*
X177549757Y-84723082D01*
X177549757Y-84723082D02*
X177478328Y-84580225D01*
X177478328Y-84580225D02*
X177478328Y-84365939D01*
X177478328Y-84365939D02*
X177549757Y-84223082D01*
X177549757Y-84223082D02*
X177621185Y-84151653D01*
X178478328Y-86151654D02*
X177692614Y-86151654D01*
X177692614Y-86151654D02*
X177549757Y-86080225D01*
X177549757Y-86080225D02*
X177478328Y-85937368D01*
X177478328Y-85937368D02*
X177478328Y-85651654D01*
X177478328Y-85651654D02*
X177549757Y-85508796D01*
X178406900Y-86151654D02*
X178478328Y-86008796D01*
X178478328Y-86008796D02*
X178478328Y-85651654D01*
X178478328Y-85651654D02*
X178406900Y-85508796D01*
X178406900Y-85508796D02*
X178264042Y-85437368D01*
X178264042Y-85437368D02*
X178121185Y-85437368D01*
X178121185Y-85437368D02*
X177978328Y-85508796D01*
X177978328Y-85508796D02*
X177906900Y-85651654D01*
X177906900Y-85651654D02*
X177906900Y-86008796D01*
X177906900Y-86008796D02*
X177835471Y-86151654D01*
X177478328Y-86723082D02*
X178478328Y-87008797D01*
X178478328Y-87008797D02*
X177764042Y-87294511D01*
X177764042Y-87294511D02*
X178478328Y-87580225D01*
X178478328Y-87580225D02*
X177478328Y-87865939D01*
X177478328Y-88437368D02*
X178478328Y-88437368D01*
X177621185Y-88437368D02*
X177549757Y-88508797D01*
X177549757Y-88508797D02*
X177478328Y-88651654D01*
X177478328Y-88651654D02*
X177478328Y-88865940D01*
X177478328Y-88865940D02*
X177549757Y-89008797D01*
X177549757Y-89008797D02*
X177692614Y-89080226D01*
X177692614Y-89080226D02*
X178478328Y-89080226D01*
X178478328Y-90437369D02*
X176978328Y-90437369D01*
X178406900Y-90437369D02*
X178478328Y-90294511D01*
X178478328Y-90294511D02*
X178478328Y-90008797D01*
X178478328Y-90008797D02*
X178406900Y-89865940D01*
X178406900Y-89865940D02*
X178335471Y-89794511D01*
X178335471Y-89794511D02*
X178192614Y-89723083D01*
X178192614Y-89723083D02*
X177764042Y-89723083D01*
X177764042Y-89723083D02*
X177621185Y-89794511D01*
X177621185Y-89794511D02*
X177549757Y-89865940D01*
X177549757Y-89865940D02*
X177478328Y-90008797D01*
X177478328Y-90008797D02*
X177478328Y-90294511D01*
X177478328Y-90294511D02*
X177549757Y-90437369D01*
X178335471Y-91151654D02*
X178406900Y-91223083D01*
X178406900Y-91223083D02*
X178478328Y-91151654D01*
X178478328Y-91151654D02*
X178406900Y-91080226D01*
X178406900Y-91080226D02*
X178335471Y-91151654D01*
X178335471Y-91151654D02*
X178478328Y-91151654D01*
X178478328Y-91723083D02*
X177478328Y-92508798D01*
X177478328Y-91723083D02*
X178478328Y-92508798D01*
X177478328Y-92937369D02*
X178478328Y-93294512D01*
X177478328Y-93651655D02*
X178478328Y-93294512D01*
X178478328Y-93294512D02*
X178835471Y-93151655D01*
X178835471Y-93151655D02*
X178906900Y-93080226D01*
X178906900Y-93080226D02*
X178978328Y-92937369D01*
X177478328Y-94080226D02*
X177478328Y-94865941D01*
X177478328Y-94865941D02*
X178478328Y-94080226D01*
X178478328Y-94080226D02*
X178478328Y-94865941D01*
X174276917Y-110060828D02*
X174276917Y-111132257D01*
X174276917Y-111132257D02*
X174348346Y-111346542D01*
X174348346Y-111346542D02*
X174491203Y-111489400D01*
X174491203Y-111489400D02*
X174705489Y-111560828D01*
X174705489Y-111560828D02*
X174848346Y-111560828D01*
X172848346Y-111560828D02*
X173562632Y-111560828D01*
X173562632Y-111560828D02*
X173562632Y-110060828D01*
X171491203Y-111417971D02*
X171562631Y-111489400D01*
X171562631Y-111489400D02*
X171776917Y-111560828D01*
X171776917Y-111560828D02*
X171919774Y-111560828D01*
X171919774Y-111560828D02*
X172134060Y-111489400D01*
X172134060Y-111489400D02*
X172276917Y-111346542D01*
X172276917Y-111346542D02*
X172348346Y-111203685D01*
X172348346Y-111203685D02*
X172419774Y-110917971D01*
X172419774Y-110917971D02*
X172419774Y-110703685D01*
X172419774Y-110703685D02*
X172348346Y-110417971D01*
X172348346Y-110417971D02*
X172276917Y-110275114D01*
X172276917Y-110275114D02*
X172134060Y-110132257D01*
X172134060Y-110132257D02*
X171919774Y-110060828D01*
X171919774Y-110060828D02*
X171776917Y-110060828D01*
X171776917Y-110060828D02*
X171562631Y-110132257D01*
X171562631Y-110132257D02*
X171491203Y-110203685D01*
X170419774Y-110060828D02*
X170419774Y-111132257D01*
X170419774Y-111132257D02*
X170491203Y-111346542D01*
X170491203Y-111346542D02*
X170634060Y-111489400D01*
X170634060Y-111489400D02*
X170848346Y-111560828D01*
X170848346Y-111560828D02*
X170991203Y-111560828D01*
X168991203Y-111560828D02*
X169705489Y-111560828D01*
X169705489Y-111560828D02*
X169705489Y-110060828D01*
X167634060Y-111417971D02*
X167705488Y-111489400D01*
X167705488Y-111489400D02*
X167919774Y-111560828D01*
X167919774Y-111560828D02*
X168062631Y-111560828D01*
X168062631Y-111560828D02*
X168276917Y-111489400D01*
X168276917Y-111489400D02*
X168419774Y-111346542D01*
X168419774Y-111346542D02*
X168491203Y-111203685D01*
X168491203Y-111203685D02*
X168562631Y-110917971D01*
X168562631Y-110917971D02*
X168562631Y-110703685D01*
X168562631Y-110703685D02*
X168491203Y-110417971D01*
X168491203Y-110417971D02*
X168419774Y-110275114D01*
X168419774Y-110275114D02*
X168276917Y-110132257D01*
X168276917Y-110132257D02*
X168062631Y-110060828D01*
X168062631Y-110060828D02*
X167919774Y-110060828D01*
X167919774Y-110060828D02*
X167705488Y-110132257D01*
X167705488Y-110132257D02*
X167634060Y-110203685D01*
X166562631Y-110060828D02*
X166562631Y-111132257D01*
X166562631Y-111132257D02*
X166634060Y-111346542D01*
X166634060Y-111346542D02*
X166776917Y-111489400D01*
X166776917Y-111489400D02*
X166991203Y-111560828D01*
X166991203Y-111560828D02*
X167134060Y-111560828D01*
X165134060Y-111560828D02*
X165848346Y-111560828D01*
X165848346Y-111560828D02*
X165848346Y-110060828D01*
X163776917Y-111417971D02*
X163848345Y-111489400D01*
X163848345Y-111489400D02*
X164062631Y-111560828D01*
X164062631Y-111560828D02*
X164205488Y-111560828D01*
X164205488Y-111560828D02*
X164419774Y-111489400D01*
X164419774Y-111489400D02*
X164562631Y-111346542D01*
X164562631Y-111346542D02*
X164634060Y-111203685D01*
X164634060Y-111203685D02*
X164705488Y-110917971D01*
X164705488Y-110917971D02*
X164705488Y-110703685D01*
X164705488Y-110703685D02*
X164634060Y-110417971D01*
X164634060Y-110417971D02*
X164562631Y-110275114D01*
X164562631Y-110275114D02*
X164419774Y-110132257D01*
X164419774Y-110132257D02*
X164205488Y-110060828D01*
X164205488Y-110060828D02*
X164062631Y-110060828D01*
X164062631Y-110060828D02*
X163848345Y-110132257D01*
X163848345Y-110132257D02*
X163776917Y-110203685D01*
X162705488Y-110060828D02*
X162705488Y-111132257D01*
X162705488Y-111132257D02*
X162776917Y-111346542D01*
X162776917Y-111346542D02*
X162919774Y-111489400D01*
X162919774Y-111489400D02*
X163134060Y-111560828D01*
X163134060Y-111560828D02*
X163276917Y-111560828D01*
X161276917Y-111560828D02*
X161991203Y-111560828D01*
X161991203Y-111560828D02*
X161991203Y-110060828D01*
X159919774Y-111417971D02*
X159991202Y-111489400D01*
X159991202Y-111489400D02*
X160205488Y-111560828D01*
X160205488Y-111560828D02*
X160348345Y-111560828D01*
X160348345Y-111560828D02*
X160562631Y-111489400D01*
X160562631Y-111489400D02*
X160705488Y-111346542D01*
X160705488Y-111346542D02*
X160776917Y-111203685D01*
X160776917Y-111203685D02*
X160848345Y-110917971D01*
X160848345Y-110917971D02*
X160848345Y-110703685D01*
X160848345Y-110703685D02*
X160776917Y-110417971D01*
X160776917Y-110417971D02*
X160705488Y-110275114D01*
X160705488Y-110275114D02*
X160562631Y-110132257D01*
X160562631Y-110132257D02*
X160348345Y-110060828D01*
X160348345Y-110060828D02*
X160205488Y-110060828D01*
X160205488Y-110060828D02*
X159991202Y-110132257D01*
X159991202Y-110132257D02*
X159919774Y-110203685D01*
D11*
X145234819Y-85621905D02*
X144234819Y-85621905D01*
X144234819Y-85621905D02*
X144234819Y-85860000D01*
X144234819Y-85860000D02*
X144282438Y-86002857D01*
X144282438Y-86002857D02*
X144377676Y-86098095D01*
X144377676Y-86098095D02*
X144472914Y-86145714D01*
X144472914Y-86145714D02*
X144663390Y-86193333D01*
X144663390Y-86193333D02*
X144806247Y-86193333D01*
X144806247Y-86193333D02*
X144996723Y-86145714D01*
X144996723Y-86145714D02*
X145091961Y-86098095D01*
X145091961Y-86098095D02*
X145187200Y-86002857D01*
X145187200Y-86002857D02*
X145234819Y-85860000D01*
X145234819Y-85860000D02*
X145234819Y-85621905D01*
X144234819Y-86526667D02*
X144234819Y-87193333D01*
X144234819Y-87193333D02*
X145234819Y-86764762D01*
X134074819Y-91331666D02*
X134789104Y-91331666D01*
X134789104Y-91331666D02*
X134931961Y-91284047D01*
X134931961Y-91284047D02*
X135027200Y-91188809D01*
X135027200Y-91188809D02*
X135074819Y-91045952D01*
X135074819Y-91045952D02*
X135074819Y-90950714D01*
X135074819Y-91807857D02*
X134074819Y-91807857D01*
X134074819Y-91807857D02*
X134074819Y-92188809D01*
X134074819Y-92188809D02*
X134122438Y-92284047D01*
X134122438Y-92284047D02*
X134170057Y-92331666D01*
X134170057Y-92331666D02*
X134265295Y-92379285D01*
X134265295Y-92379285D02*
X134408152Y-92379285D01*
X134408152Y-92379285D02*
X134503390Y-92331666D01*
X134503390Y-92331666D02*
X134551009Y-92284047D01*
X134551009Y-92284047D02*
X134598628Y-92188809D01*
X134598628Y-92188809D02*
X134598628Y-91807857D01*
X134503390Y-92950714D02*
X134455771Y-92855476D01*
X134455771Y-92855476D02*
X134408152Y-92807857D01*
X134408152Y-92807857D02*
X134312914Y-92760238D01*
X134312914Y-92760238D02*
X134265295Y-92760238D01*
X134265295Y-92760238D02*
X134170057Y-92807857D01*
X134170057Y-92807857D02*
X134122438Y-92855476D01*
X134122438Y-92855476D02*
X134074819Y-92950714D01*
X134074819Y-92950714D02*
X134074819Y-93141190D01*
X134074819Y-93141190D02*
X134122438Y-93236428D01*
X134122438Y-93236428D02*
X134170057Y-93284047D01*
X134170057Y-93284047D02*
X134265295Y-93331666D01*
X134265295Y-93331666D02*
X134312914Y-93331666D01*
X134312914Y-93331666D02*
X134408152Y-93284047D01*
X134408152Y-93284047D02*
X134455771Y-93236428D01*
X134455771Y-93236428D02*
X134503390Y-93141190D01*
X134503390Y-93141190D02*
X134503390Y-92950714D01*
X134503390Y-92950714D02*
X134551009Y-92855476D01*
X134551009Y-92855476D02*
X134598628Y-92807857D01*
X134598628Y-92807857D02*
X134693866Y-92760238D01*
X134693866Y-92760238D02*
X134884342Y-92760238D01*
X134884342Y-92760238D02*
X134979580Y-92807857D01*
X134979580Y-92807857D02*
X135027200Y-92855476D01*
X135027200Y-92855476D02*
X135074819Y-92950714D01*
X135074819Y-92950714D02*
X135074819Y-93141190D01*
X135074819Y-93141190D02*
X135027200Y-93236428D01*
X135027200Y-93236428D02*
X134979580Y-93284047D01*
X134979580Y-93284047D02*
X134884342Y-93331666D01*
X134884342Y-93331666D02*
X134693866Y-93331666D01*
X134693866Y-93331666D02*
X134598628Y-93284047D01*
X134598628Y-93284047D02*
X134551009Y-93236428D01*
X134551009Y-93236428D02*
X134503390Y-93141190D01*
X128514819Y-111426666D02*
X129229104Y-111426666D01*
X129229104Y-111426666D02*
X129371961Y-111379047D01*
X129371961Y-111379047D02*
X129467200Y-111283809D01*
X129467200Y-111283809D02*
X129514819Y-111140952D01*
X129514819Y-111140952D02*
X129514819Y-111045714D01*
X129514819Y-112426666D02*
X129514819Y-111855238D01*
X129514819Y-112140952D02*
X128514819Y-112140952D01*
X128514819Y-112140952D02*
X128657676Y-112045714D01*
X128657676Y-112045714D02*
X128752914Y-111950476D01*
X128752914Y-111950476D02*
X128800533Y-111855238D01*
X137898094Y-102054819D02*
X137898094Y-101054819D01*
X137898094Y-101054819D02*
X137659999Y-101054819D01*
X137659999Y-101054819D02*
X137517142Y-101102438D01*
X137517142Y-101102438D02*
X137421904Y-101197676D01*
X137421904Y-101197676D02*
X137374285Y-101292914D01*
X137374285Y-101292914D02*
X137326666Y-101483390D01*
X137326666Y-101483390D02*
X137326666Y-101626247D01*
X137326666Y-101626247D02*
X137374285Y-101816723D01*
X137374285Y-101816723D02*
X137421904Y-101911961D01*
X137421904Y-101911961D02*
X137517142Y-102007200D01*
X137517142Y-102007200D02*
X137659999Y-102054819D01*
X137659999Y-102054819D02*
X137898094Y-102054819D01*
X136945713Y-101150057D02*
X136898094Y-101102438D01*
X136898094Y-101102438D02*
X136802856Y-101054819D01*
X136802856Y-101054819D02*
X136564761Y-101054819D01*
X136564761Y-101054819D02*
X136469523Y-101102438D01*
X136469523Y-101102438D02*
X136421904Y-101150057D01*
X136421904Y-101150057D02*
X136374285Y-101245295D01*
X136374285Y-101245295D02*
X136374285Y-101340533D01*
X136374285Y-101340533D02*
X136421904Y-101483390D01*
X136421904Y-101483390D02*
X136993332Y-102054819D01*
X136993332Y-102054819D02*
X136374285Y-102054819D01*
X173174819Y-80541905D02*
X172174819Y-80541905D01*
X172174819Y-80541905D02*
X172174819Y-80780000D01*
X172174819Y-80780000D02*
X172222438Y-80922857D01*
X172222438Y-80922857D02*
X172317676Y-81018095D01*
X172317676Y-81018095D02*
X172412914Y-81065714D01*
X172412914Y-81065714D02*
X172603390Y-81113333D01*
X172603390Y-81113333D02*
X172746247Y-81113333D01*
X172746247Y-81113333D02*
X172936723Y-81065714D01*
X172936723Y-81065714D02*
X173031961Y-81018095D01*
X173031961Y-81018095D02*
X173127200Y-80922857D01*
X173127200Y-80922857D02*
X173174819Y-80780000D01*
X173174819Y-80780000D02*
X173174819Y-80541905D01*
X172174819Y-81970476D02*
X172174819Y-81780000D01*
X172174819Y-81780000D02*
X172222438Y-81684762D01*
X172222438Y-81684762D02*
X172270057Y-81637143D01*
X172270057Y-81637143D02*
X172412914Y-81541905D01*
X172412914Y-81541905D02*
X172603390Y-81494286D01*
X172603390Y-81494286D02*
X172984342Y-81494286D01*
X172984342Y-81494286D02*
X173079580Y-81541905D01*
X173079580Y-81541905D02*
X173127200Y-81589524D01*
X173127200Y-81589524D02*
X173174819Y-81684762D01*
X173174819Y-81684762D02*
X173174819Y-81875238D01*
X173174819Y-81875238D02*
X173127200Y-81970476D01*
X173127200Y-81970476D02*
X173079580Y-82018095D01*
X173079580Y-82018095D02*
X172984342Y-82065714D01*
X172984342Y-82065714D02*
X172746247Y-82065714D01*
X172746247Y-82065714D02*
X172651009Y-82018095D01*
X172651009Y-82018095D02*
X172603390Y-81970476D01*
X172603390Y-81970476D02*
X172555771Y-81875238D01*
X172555771Y-81875238D02*
X172555771Y-81684762D01*
X172555771Y-81684762D02*
X172603390Y-81589524D01*
X172603390Y-81589524D02*
X172651009Y-81541905D01*
X172651009Y-81541905D02*
X172746247Y-81494286D01*
X173174819Y-102925714D02*
X172174819Y-102925714D01*
X172174819Y-102925714D02*
X172174819Y-103163809D01*
X172174819Y-103163809D02*
X172222438Y-103306666D01*
X172222438Y-103306666D02*
X172317676Y-103401904D01*
X172317676Y-103401904D02*
X172412914Y-103449523D01*
X172412914Y-103449523D02*
X172603390Y-103497142D01*
X172603390Y-103497142D02*
X172746247Y-103497142D01*
X172746247Y-103497142D02*
X172936723Y-103449523D01*
X172936723Y-103449523D02*
X173031961Y-103401904D01*
X173031961Y-103401904D02*
X173127200Y-103306666D01*
X173127200Y-103306666D02*
X173174819Y-103163809D01*
X173174819Y-103163809D02*
X173174819Y-102925714D01*
X173174819Y-104449523D02*
X173174819Y-103878095D01*
X173174819Y-104163809D02*
X172174819Y-104163809D01*
X172174819Y-104163809D02*
X172317676Y-104068571D01*
X172317676Y-104068571D02*
X172412914Y-103973333D01*
X172412914Y-103973333D02*
X172460533Y-103878095D01*
X172603390Y-105020952D02*
X172555771Y-104925714D01*
X172555771Y-104925714D02*
X172508152Y-104878095D01*
X172508152Y-104878095D02*
X172412914Y-104830476D01*
X172412914Y-104830476D02*
X172365295Y-104830476D01*
X172365295Y-104830476D02*
X172270057Y-104878095D01*
X172270057Y-104878095D02*
X172222438Y-104925714D01*
X172222438Y-104925714D02*
X172174819Y-105020952D01*
X172174819Y-105020952D02*
X172174819Y-105211428D01*
X172174819Y-105211428D02*
X172222438Y-105306666D01*
X172222438Y-105306666D02*
X172270057Y-105354285D01*
X172270057Y-105354285D02*
X172365295Y-105401904D01*
X172365295Y-105401904D02*
X172412914Y-105401904D01*
X172412914Y-105401904D02*
X172508152Y-105354285D01*
X172508152Y-105354285D02*
X172555771Y-105306666D01*
X172555771Y-105306666D02*
X172603390Y-105211428D01*
X172603390Y-105211428D02*
X172603390Y-105020952D01*
X172603390Y-105020952D02*
X172651009Y-104925714D01*
X172651009Y-104925714D02*
X172698628Y-104878095D01*
X172698628Y-104878095D02*
X172793866Y-104830476D01*
X172793866Y-104830476D02*
X172984342Y-104830476D01*
X172984342Y-104830476D02*
X173079580Y-104878095D01*
X173079580Y-104878095D02*
X173127200Y-104925714D01*
X173127200Y-104925714D02*
X173174819Y-105020952D01*
X173174819Y-105020952D02*
X173174819Y-105211428D01*
X173174819Y-105211428D02*
X173127200Y-105306666D01*
X173127200Y-105306666D02*
X173079580Y-105354285D01*
X173079580Y-105354285D02*
X172984342Y-105401904D01*
X172984342Y-105401904D02*
X172793866Y-105401904D01*
X172793866Y-105401904D02*
X172698628Y-105354285D01*
X172698628Y-105354285D02*
X172651009Y-105306666D01*
X172651009Y-105306666D02*
X172603390Y-105211428D01*
X118834819Y-100766666D02*
X119549104Y-100766666D01*
X119549104Y-100766666D02*
X119691961Y-100719047D01*
X119691961Y-100719047D02*
X119787200Y-100623809D01*
X119787200Y-100623809D02*
X119834819Y-100480952D01*
X119834819Y-100480952D02*
X119834819Y-100385714D01*
X119834819Y-101242857D02*
X118834819Y-101242857D01*
X118834819Y-101242857D02*
X118834819Y-101623809D01*
X118834819Y-101623809D02*
X118882438Y-101719047D01*
X118882438Y-101719047D02*
X118930057Y-101766666D01*
X118930057Y-101766666D02*
X119025295Y-101814285D01*
X119025295Y-101814285D02*
X119168152Y-101814285D01*
X119168152Y-101814285D02*
X119263390Y-101766666D01*
X119263390Y-101766666D02*
X119311009Y-101719047D01*
X119311009Y-101719047D02*
X119358628Y-101623809D01*
X119358628Y-101623809D02*
X119358628Y-101242857D01*
X119834819Y-102290476D02*
X119834819Y-102480952D01*
X119834819Y-102480952D02*
X119787200Y-102576190D01*
X119787200Y-102576190D02*
X119739580Y-102623809D01*
X119739580Y-102623809D02*
X119596723Y-102719047D01*
X119596723Y-102719047D02*
X119406247Y-102766666D01*
X119406247Y-102766666D02*
X119025295Y-102766666D01*
X119025295Y-102766666D02*
X118930057Y-102719047D01*
X118930057Y-102719047D02*
X118882438Y-102671428D01*
X118882438Y-102671428D02*
X118834819Y-102576190D01*
X118834819Y-102576190D02*
X118834819Y-102385714D01*
X118834819Y-102385714D02*
X118882438Y-102290476D01*
X118882438Y-102290476D02*
X118930057Y-102242857D01*
X118930057Y-102242857D02*
X119025295Y-102195238D01*
X119025295Y-102195238D02*
X119263390Y-102195238D01*
X119263390Y-102195238D02*
X119358628Y-102242857D01*
X119358628Y-102242857D02*
X119406247Y-102290476D01*
X119406247Y-102290476D02*
X119453866Y-102385714D01*
X119453866Y-102385714D02*
X119453866Y-102576190D01*
X119453866Y-102576190D02*
X119406247Y-102671428D01*
X119406247Y-102671428D02*
X119358628Y-102719047D01*
X119358628Y-102719047D02*
X119263390Y-102766666D01*
X120689523Y-75654819D02*
X120689523Y-76369104D01*
X120689523Y-76369104D02*
X120737142Y-76511961D01*
X120737142Y-76511961D02*
X120832380Y-76607200D01*
X120832380Y-76607200D02*
X120975237Y-76654819D01*
X120975237Y-76654819D02*
X121070475Y-76654819D01*
X120213332Y-76654819D02*
X120213332Y-75654819D01*
X120213332Y-75654819D02*
X119832380Y-75654819D01*
X119832380Y-75654819D02*
X119737142Y-75702438D01*
X119737142Y-75702438D02*
X119689523Y-75750057D01*
X119689523Y-75750057D02*
X119641904Y-75845295D01*
X119641904Y-75845295D02*
X119641904Y-75988152D01*
X119641904Y-75988152D02*
X119689523Y-76083390D01*
X119689523Y-76083390D02*
X119737142Y-76131009D01*
X119737142Y-76131009D02*
X119832380Y-76178628D01*
X119832380Y-76178628D02*
X120213332Y-76178628D01*
X118689523Y-76654819D02*
X119260951Y-76654819D01*
X118975237Y-76654819D02*
X118975237Y-75654819D01*
X118975237Y-75654819D02*
X119070475Y-75797676D01*
X119070475Y-75797676D02*
X119165713Y-75892914D01*
X119165713Y-75892914D02*
X119260951Y-75940533D01*
X118356189Y-75654819D02*
X117689523Y-75654819D01*
X117689523Y-75654819D02*
X118118094Y-76654819D01*
X131534819Y-99565476D02*
X132249104Y-99565476D01*
X132249104Y-99565476D02*
X132391961Y-99517857D01*
X132391961Y-99517857D02*
X132487200Y-99422619D01*
X132487200Y-99422619D02*
X132534819Y-99279762D01*
X132534819Y-99279762D02*
X132534819Y-99184524D01*
X132534819Y-100041667D02*
X131534819Y-100041667D01*
X131534819Y-100041667D02*
X131534819Y-100422619D01*
X131534819Y-100422619D02*
X131582438Y-100517857D01*
X131582438Y-100517857D02*
X131630057Y-100565476D01*
X131630057Y-100565476D02*
X131725295Y-100613095D01*
X131725295Y-100613095D02*
X131868152Y-100613095D01*
X131868152Y-100613095D02*
X131963390Y-100565476D01*
X131963390Y-100565476D02*
X132011009Y-100517857D01*
X132011009Y-100517857D02*
X132058628Y-100422619D01*
X132058628Y-100422619D02*
X132058628Y-100041667D01*
X132534819Y-101565476D02*
X132534819Y-100994048D01*
X132534819Y-101279762D02*
X131534819Y-101279762D01*
X131534819Y-101279762D02*
X131677676Y-101184524D01*
X131677676Y-101184524D02*
X131772914Y-101089286D01*
X131772914Y-101089286D02*
X131820533Y-100994048D01*
X131630057Y-101946429D02*
X131582438Y-101994048D01*
X131582438Y-101994048D02*
X131534819Y-102089286D01*
X131534819Y-102089286D02*
X131534819Y-102327381D01*
X131534819Y-102327381D02*
X131582438Y-102422619D01*
X131582438Y-102422619D02*
X131630057Y-102470238D01*
X131630057Y-102470238D02*
X131725295Y-102517857D01*
X131725295Y-102517857D02*
X131820533Y-102517857D01*
X131820533Y-102517857D02*
X131963390Y-102470238D01*
X131963390Y-102470238D02*
X132534819Y-101898810D01*
X132534819Y-101898810D02*
X132534819Y-102517857D01*
X111926666Y-102054819D02*
X112259999Y-101578628D01*
X112498094Y-102054819D02*
X112498094Y-101054819D01*
X112498094Y-101054819D02*
X112117142Y-101054819D01*
X112117142Y-101054819D02*
X112021904Y-101102438D01*
X112021904Y-101102438D02*
X111974285Y-101150057D01*
X111974285Y-101150057D02*
X111926666Y-101245295D01*
X111926666Y-101245295D02*
X111926666Y-101388152D01*
X111926666Y-101388152D02*
X111974285Y-101483390D01*
X111974285Y-101483390D02*
X112021904Y-101531009D01*
X112021904Y-101531009D02*
X112117142Y-101578628D01*
X112117142Y-101578628D02*
X112498094Y-101578628D01*
X111593332Y-101054819D02*
X110974285Y-101054819D01*
X110974285Y-101054819D02*
X111307618Y-101435771D01*
X111307618Y-101435771D02*
X111164761Y-101435771D01*
X111164761Y-101435771D02*
X111069523Y-101483390D01*
X111069523Y-101483390D02*
X111021904Y-101531009D01*
X111021904Y-101531009D02*
X110974285Y-101626247D01*
X110974285Y-101626247D02*
X110974285Y-101864342D01*
X110974285Y-101864342D02*
X111021904Y-101959580D01*
X111021904Y-101959580D02*
X111069523Y-102007200D01*
X111069523Y-102007200D02*
X111164761Y-102054819D01*
X111164761Y-102054819D02*
X111450475Y-102054819D01*
X111450475Y-102054819D02*
X111545713Y-102007200D01*
X111545713Y-102007200D02*
X111593332Y-101959580D01*
X128514819Y-73326666D02*
X129229104Y-73326666D01*
X129229104Y-73326666D02*
X129371961Y-73279047D01*
X129371961Y-73279047D02*
X129467200Y-73183809D01*
X129467200Y-73183809D02*
X129514819Y-73040952D01*
X129514819Y-73040952D02*
X129514819Y-72945714D01*
X128610057Y-73755238D02*
X128562438Y-73802857D01*
X128562438Y-73802857D02*
X128514819Y-73898095D01*
X128514819Y-73898095D02*
X128514819Y-74136190D01*
X128514819Y-74136190D02*
X128562438Y-74231428D01*
X128562438Y-74231428D02*
X128610057Y-74279047D01*
X128610057Y-74279047D02*
X128705295Y-74326666D01*
X128705295Y-74326666D02*
X128800533Y-74326666D01*
X128800533Y-74326666D02*
X128943390Y-74279047D01*
X128943390Y-74279047D02*
X129514819Y-73707619D01*
X129514819Y-73707619D02*
X129514819Y-74326666D01*
X120689523Y-98514819D02*
X120689523Y-99229104D01*
X120689523Y-99229104D02*
X120737142Y-99371961D01*
X120737142Y-99371961D02*
X120832380Y-99467200D01*
X120832380Y-99467200D02*
X120975237Y-99514819D01*
X120975237Y-99514819D02*
X121070475Y-99514819D01*
X120213332Y-99514819D02*
X120213332Y-98514819D01*
X120213332Y-98514819D02*
X119832380Y-98514819D01*
X119832380Y-98514819D02*
X119737142Y-98562438D01*
X119737142Y-98562438D02*
X119689523Y-98610057D01*
X119689523Y-98610057D02*
X119641904Y-98705295D01*
X119641904Y-98705295D02*
X119641904Y-98848152D01*
X119641904Y-98848152D02*
X119689523Y-98943390D01*
X119689523Y-98943390D02*
X119737142Y-98991009D01*
X119737142Y-98991009D02*
X119832380Y-99038628D01*
X119832380Y-99038628D02*
X120213332Y-99038628D01*
X119260951Y-98610057D02*
X119213332Y-98562438D01*
X119213332Y-98562438D02*
X119118094Y-98514819D01*
X119118094Y-98514819D02*
X118879999Y-98514819D01*
X118879999Y-98514819D02*
X118784761Y-98562438D01*
X118784761Y-98562438D02*
X118737142Y-98610057D01*
X118737142Y-98610057D02*
X118689523Y-98705295D01*
X118689523Y-98705295D02*
X118689523Y-98800533D01*
X118689523Y-98800533D02*
X118737142Y-98943390D01*
X118737142Y-98943390D02*
X119308570Y-99514819D01*
X119308570Y-99514819D02*
X118689523Y-99514819D01*
X117832380Y-98848152D02*
X117832380Y-99514819D01*
X118070475Y-98467200D02*
X118308570Y-99181485D01*
X118308570Y-99181485D02*
X117689523Y-99181485D01*
X128436666Y-96974819D02*
X128769999Y-96498628D01*
X129008094Y-96974819D02*
X129008094Y-95974819D01*
X129008094Y-95974819D02*
X128627142Y-95974819D01*
X128627142Y-95974819D02*
X128531904Y-96022438D01*
X128531904Y-96022438D02*
X128484285Y-96070057D01*
X128484285Y-96070057D02*
X128436666Y-96165295D01*
X128436666Y-96165295D02*
X128436666Y-96308152D01*
X128436666Y-96308152D02*
X128484285Y-96403390D01*
X128484285Y-96403390D02*
X128531904Y-96451009D01*
X128531904Y-96451009D02*
X128627142Y-96498628D01*
X128627142Y-96498628D02*
X129008094Y-96498628D01*
X128055713Y-96070057D02*
X128008094Y-96022438D01*
X128008094Y-96022438D02*
X127912856Y-95974819D01*
X127912856Y-95974819D02*
X127674761Y-95974819D01*
X127674761Y-95974819D02*
X127579523Y-96022438D01*
X127579523Y-96022438D02*
X127531904Y-96070057D01*
X127531904Y-96070057D02*
X127484285Y-96165295D01*
X127484285Y-96165295D02*
X127484285Y-96260533D01*
X127484285Y-96260533D02*
X127531904Y-96403390D01*
X127531904Y-96403390D02*
X128103332Y-96974819D01*
X128103332Y-96974819D02*
X127484285Y-96974819D01*
X121374819Y-91331666D02*
X122089104Y-91331666D01*
X122089104Y-91331666D02*
X122231961Y-91284047D01*
X122231961Y-91284047D02*
X122327200Y-91188809D01*
X122327200Y-91188809D02*
X122374819Y-91045952D01*
X122374819Y-91045952D02*
X122374819Y-90950714D01*
X122374819Y-91807857D02*
X121374819Y-91807857D01*
X121374819Y-91807857D02*
X121374819Y-92188809D01*
X121374819Y-92188809D02*
X121422438Y-92284047D01*
X121422438Y-92284047D02*
X121470057Y-92331666D01*
X121470057Y-92331666D02*
X121565295Y-92379285D01*
X121565295Y-92379285D02*
X121708152Y-92379285D01*
X121708152Y-92379285D02*
X121803390Y-92331666D01*
X121803390Y-92331666D02*
X121851009Y-92284047D01*
X121851009Y-92284047D02*
X121898628Y-92188809D01*
X121898628Y-92188809D02*
X121898628Y-91807857D01*
X121374819Y-93284047D02*
X121374819Y-92807857D01*
X121374819Y-92807857D02*
X121851009Y-92760238D01*
X121851009Y-92760238D02*
X121803390Y-92807857D01*
X121803390Y-92807857D02*
X121755771Y-92903095D01*
X121755771Y-92903095D02*
X121755771Y-93141190D01*
X121755771Y-93141190D02*
X121803390Y-93236428D01*
X121803390Y-93236428D02*
X121851009Y-93284047D01*
X121851009Y-93284047D02*
X121946247Y-93331666D01*
X121946247Y-93331666D02*
X122184342Y-93331666D01*
X122184342Y-93331666D02*
X122279580Y-93284047D01*
X122279580Y-93284047D02*
X122327200Y-93236428D01*
X122327200Y-93236428D02*
X122374819Y-93141190D01*
X122374819Y-93141190D02*
X122374819Y-92903095D01*
X122374819Y-92903095D02*
X122327200Y-92807857D01*
X122327200Y-92807857D02*
X122279580Y-92760238D01*
X127166666Y-84274819D02*
X127499999Y-83798628D01*
X127738094Y-84274819D02*
X127738094Y-83274819D01*
X127738094Y-83274819D02*
X127357142Y-83274819D01*
X127357142Y-83274819D02*
X127261904Y-83322438D01*
X127261904Y-83322438D02*
X127214285Y-83370057D01*
X127214285Y-83370057D02*
X127166666Y-83465295D01*
X127166666Y-83465295D02*
X127166666Y-83608152D01*
X127166666Y-83608152D02*
X127214285Y-83703390D01*
X127214285Y-83703390D02*
X127261904Y-83751009D01*
X127261904Y-83751009D02*
X127357142Y-83798628D01*
X127357142Y-83798628D02*
X127738094Y-83798628D01*
X126309523Y-83608152D02*
X126309523Y-84274819D01*
X126547618Y-83227200D02*
X126785713Y-83941485D01*
X126785713Y-83941485D02*
X126166666Y-83941485D01*
X173174819Y-97845714D02*
X172174819Y-97845714D01*
X172174819Y-97845714D02*
X172174819Y-98083809D01*
X172174819Y-98083809D02*
X172222438Y-98226666D01*
X172222438Y-98226666D02*
X172317676Y-98321904D01*
X172317676Y-98321904D02*
X172412914Y-98369523D01*
X172412914Y-98369523D02*
X172603390Y-98417142D01*
X172603390Y-98417142D02*
X172746247Y-98417142D01*
X172746247Y-98417142D02*
X172936723Y-98369523D01*
X172936723Y-98369523D02*
X173031961Y-98321904D01*
X173031961Y-98321904D02*
X173127200Y-98226666D01*
X173127200Y-98226666D02*
X173174819Y-98083809D01*
X173174819Y-98083809D02*
X173174819Y-97845714D01*
X173174819Y-99369523D02*
X173174819Y-98798095D01*
X173174819Y-99083809D02*
X172174819Y-99083809D01*
X172174819Y-99083809D02*
X172317676Y-98988571D01*
X172317676Y-98988571D02*
X172412914Y-98893333D01*
X172412914Y-98893333D02*
X172460533Y-98798095D01*
X172508152Y-100226666D02*
X173174819Y-100226666D01*
X172127200Y-99988571D02*
X172841485Y-99750476D01*
X172841485Y-99750476D02*
X172841485Y-100369523D01*
X145234819Y-80541905D02*
X144234819Y-80541905D01*
X144234819Y-80541905D02*
X144234819Y-80780000D01*
X144234819Y-80780000D02*
X144282438Y-80922857D01*
X144282438Y-80922857D02*
X144377676Y-81018095D01*
X144377676Y-81018095D02*
X144472914Y-81065714D01*
X144472914Y-81065714D02*
X144663390Y-81113333D01*
X144663390Y-81113333D02*
X144806247Y-81113333D01*
X144806247Y-81113333D02*
X144996723Y-81065714D01*
X144996723Y-81065714D02*
X145091961Y-81018095D01*
X145091961Y-81018095D02*
X145187200Y-80922857D01*
X145187200Y-80922857D02*
X145234819Y-80780000D01*
X145234819Y-80780000D02*
X145234819Y-80541905D01*
X144234819Y-81446667D02*
X144234819Y-82065714D01*
X144234819Y-82065714D02*
X144615771Y-81732381D01*
X144615771Y-81732381D02*
X144615771Y-81875238D01*
X144615771Y-81875238D02*
X144663390Y-81970476D01*
X144663390Y-81970476D02*
X144711009Y-82018095D01*
X144711009Y-82018095D02*
X144806247Y-82065714D01*
X144806247Y-82065714D02*
X145044342Y-82065714D01*
X145044342Y-82065714D02*
X145139580Y-82018095D01*
X145139580Y-82018095D02*
X145187200Y-81970476D01*
X145187200Y-81970476D02*
X145234819Y-81875238D01*
X145234819Y-81875238D02*
X145234819Y-81589524D01*
X145234819Y-81589524D02*
X145187200Y-81494286D01*
X145187200Y-81494286D02*
X145139580Y-81446667D01*
X173174819Y-85145714D02*
X172174819Y-85145714D01*
X172174819Y-85145714D02*
X172174819Y-85383809D01*
X172174819Y-85383809D02*
X172222438Y-85526666D01*
X172222438Y-85526666D02*
X172317676Y-85621904D01*
X172317676Y-85621904D02*
X172412914Y-85669523D01*
X172412914Y-85669523D02*
X172603390Y-85717142D01*
X172603390Y-85717142D02*
X172746247Y-85717142D01*
X172746247Y-85717142D02*
X172936723Y-85669523D01*
X172936723Y-85669523D02*
X173031961Y-85621904D01*
X173031961Y-85621904D02*
X173127200Y-85526666D01*
X173127200Y-85526666D02*
X173174819Y-85383809D01*
X173174819Y-85383809D02*
X173174819Y-85145714D01*
X173174819Y-86669523D02*
X173174819Y-86098095D01*
X173174819Y-86383809D02*
X172174819Y-86383809D01*
X172174819Y-86383809D02*
X172317676Y-86288571D01*
X172317676Y-86288571D02*
X172412914Y-86193333D01*
X172412914Y-86193333D02*
X172460533Y-86098095D01*
X172174819Y-87288571D02*
X172174819Y-87383809D01*
X172174819Y-87383809D02*
X172222438Y-87479047D01*
X172222438Y-87479047D02*
X172270057Y-87526666D01*
X172270057Y-87526666D02*
X172365295Y-87574285D01*
X172365295Y-87574285D02*
X172555771Y-87621904D01*
X172555771Y-87621904D02*
X172793866Y-87621904D01*
X172793866Y-87621904D02*
X172984342Y-87574285D01*
X172984342Y-87574285D02*
X173079580Y-87526666D01*
X173079580Y-87526666D02*
X173127200Y-87479047D01*
X173127200Y-87479047D02*
X173174819Y-87383809D01*
X173174819Y-87383809D02*
X173174819Y-87288571D01*
X173174819Y-87288571D02*
X173127200Y-87193333D01*
X173127200Y-87193333D02*
X173079580Y-87145714D01*
X173079580Y-87145714D02*
X172984342Y-87098095D01*
X172984342Y-87098095D02*
X172793866Y-87050476D01*
X172793866Y-87050476D02*
X172555771Y-87050476D01*
X172555771Y-87050476D02*
X172365295Y-87098095D01*
X172365295Y-87098095D02*
X172270057Y-87145714D01*
X172270057Y-87145714D02*
X172222438Y-87193333D01*
X172222438Y-87193333D02*
X172174819Y-87288571D01*
X113069523Y-75654819D02*
X113069523Y-76369104D01*
X113069523Y-76369104D02*
X113117142Y-76511961D01*
X113117142Y-76511961D02*
X113212380Y-76607200D01*
X113212380Y-76607200D02*
X113355237Y-76654819D01*
X113355237Y-76654819D02*
X113450475Y-76654819D01*
X112593332Y-76654819D02*
X112593332Y-75654819D01*
X112593332Y-75654819D02*
X112212380Y-75654819D01*
X112212380Y-75654819D02*
X112117142Y-75702438D01*
X112117142Y-75702438D02*
X112069523Y-75750057D01*
X112069523Y-75750057D02*
X112021904Y-75845295D01*
X112021904Y-75845295D02*
X112021904Y-75988152D01*
X112021904Y-75988152D02*
X112069523Y-76083390D01*
X112069523Y-76083390D02*
X112117142Y-76131009D01*
X112117142Y-76131009D02*
X112212380Y-76178628D01*
X112212380Y-76178628D02*
X112593332Y-76178628D01*
X111688570Y-75654819D02*
X111069523Y-75654819D01*
X111069523Y-75654819D02*
X111402856Y-76035771D01*
X111402856Y-76035771D02*
X111259999Y-76035771D01*
X111259999Y-76035771D02*
X111164761Y-76083390D01*
X111164761Y-76083390D02*
X111117142Y-76131009D01*
X111117142Y-76131009D02*
X111069523Y-76226247D01*
X111069523Y-76226247D02*
X111069523Y-76464342D01*
X111069523Y-76464342D02*
X111117142Y-76559580D01*
X111117142Y-76559580D02*
X111164761Y-76607200D01*
X111164761Y-76607200D02*
X111259999Y-76654819D01*
X111259999Y-76654819D02*
X111545713Y-76654819D01*
X111545713Y-76654819D02*
X111640951Y-76607200D01*
X111640951Y-76607200D02*
X111688570Y-76559580D01*
X110688570Y-75750057D02*
X110640951Y-75702438D01*
X110640951Y-75702438D02*
X110545713Y-75654819D01*
X110545713Y-75654819D02*
X110307618Y-75654819D01*
X110307618Y-75654819D02*
X110212380Y-75702438D01*
X110212380Y-75702438D02*
X110164761Y-75750057D01*
X110164761Y-75750057D02*
X110117142Y-75845295D01*
X110117142Y-75845295D02*
X110117142Y-75940533D01*
X110117142Y-75940533D02*
X110164761Y-76083390D01*
X110164761Y-76083390D02*
X110736189Y-76654819D01*
X110736189Y-76654819D02*
X110117142Y-76654819D01*
X121374819Y-87341666D02*
X122089104Y-87341666D01*
X122089104Y-87341666D02*
X122231961Y-87294047D01*
X122231961Y-87294047D02*
X122327200Y-87198809D01*
X122327200Y-87198809D02*
X122374819Y-87055952D01*
X122374819Y-87055952D02*
X122374819Y-86960714D01*
X122374819Y-87817857D02*
X121374819Y-87817857D01*
X121374819Y-87817857D02*
X121374819Y-88198809D01*
X121374819Y-88198809D02*
X121422438Y-88294047D01*
X121422438Y-88294047D02*
X121470057Y-88341666D01*
X121470057Y-88341666D02*
X121565295Y-88389285D01*
X121565295Y-88389285D02*
X121708152Y-88389285D01*
X121708152Y-88389285D02*
X121803390Y-88341666D01*
X121803390Y-88341666D02*
X121851009Y-88294047D01*
X121851009Y-88294047D02*
X121898628Y-88198809D01*
X121898628Y-88198809D02*
X121898628Y-87817857D01*
X122374819Y-89341666D02*
X122374819Y-88770238D01*
X122374819Y-89055952D02*
X121374819Y-89055952D01*
X121374819Y-89055952D02*
X121517676Y-88960714D01*
X121517676Y-88960714D02*
X121612914Y-88865476D01*
X121612914Y-88865476D02*
X121660533Y-88770238D01*
X137898094Y-84274819D02*
X137898094Y-83274819D01*
X137898094Y-83274819D02*
X137659999Y-83274819D01*
X137659999Y-83274819D02*
X137517142Y-83322438D01*
X137517142Y-83322438D02*
X137421904Y-83417676D01*
X137421904Y-83417676D02*
X137374285Y-83512914D01*
X137374285Y-83512914D02*
X137326666Y-83703390D01*
X137326666Y-83703390D02*
X137326666Y-83846247D01*
X137326666Y-83846247D02*
X137374285Y-84036723D01*
X137374285Y-84036723D02*
X137421904Y-84131961D01*
X137421904Y-84131961D02*
X137517142Y-84227200D01*
X137517142Y-84227200D02*
X137659999Y-84274819D01*
X137659999Y-84274819D02*
X137898094Y-84274819D01*
X136374285Y-84274819D02*
X136945713Y-84274819D01*
X136659999Y-84274819D02*
X136659999Y-83274819D01*
X136659999Y-83274819D02*
X136755237Y-83417676D01*
X136755237Y-83417676D02*
X136850475Y-83512914D01*
X136850475Y-83512914D02*
X136945713Y-83560533D01*
X118834819Y-103555476D02*
X119549104Y-103555476D01*
X119549104Y-103555476D02*
X119691961Y-103507857D01*
X119691961Y-103507857D02*
X119787200Y-103412619D01*
X119787200Y-103412619D02*
X119834819Y-103269762D01*
X119834819Y-103269762D02*
X119834819Y-103174524D01*
X119834819Y-104031667D02*
X118834819Y-104031667D01*
X118834819Y-104031667D02*
X118834819Y-104412619D01*
X118834819Y-104412619D02*
X118882438Y-104507857D01*
X118882438Y-104507857D02*
X118930057Y-104555476D01*
X118930057Y-104555476D02*
X119025295Y-104603095D01*
X119025295Y-104603095D02*
X119168152Y-104603095D01*
X119168152Y-104603095D02*
X119263390Y-104555476D01*
X119263390Y-104555476D02*
X119311009Y-104507857D01*
X119311009Y-104507857D02*
X119358628Y-104412619D01*
X119358628Y-104412619D02*
X119358628Y-104031667D01*
X119834819Y-105555476D02*
X119834819Y-104984048D01*
X119834819Y-105269762D02*
X118834819Y-105269762D01*
X118834819Y-105269762D02*
X118977676Y-105174524D01*
X118977676Y-105174524D02*
X119072914Y-105079286D01*
X119072914Y-105079286D02*
X119120533Y-104984048D01*
X118834819Y-105888810D02*
X118834819Y-106507857D01*
X118834819Y-106507857D02*
X119215771Y-106174524D01*
X119215771Y-106174524D02*
X119215771Y-106317381D01*
X119215771Y-106317381D02*
X119263390Y-106412619D01*
X119263390Y-106412619D02*
X119311009Y-106460238D01*
X119311009Y-106460238D02*
X119406247Y-106507857D01*
X119406247Y-106507857D02*
X119644342Y-106507857D01*
X119644342Y-106507857D02*
X119739580Y-106460238D01*
X119739580Y-106460238D02*
X119787200Y-106412619D01*
X119787200Y-106412619D02*
X119834819Y-106317381D01*
X119834819Y-106317381D02*
X119834819Y-106031667D01*
X119834819Y-106031667D02*
X119787200Y-105936429D01*
X119787200Y-105936429D02*
X119739580Y-105888810D01*
X134074819Y-87341666D02*
X134789104Y-87341666D01*
X134789104Y-87341666D02*
X134931961Y-87294047D01*
X134931961Y-87294047D02*
X135027200Y-87198809D01*
X135027200Y-87198809D02*
X135074819Y-87055952D01*
X135074819Y-87055952D02*
X135074819Y-86960714D01*
X135074819Y-87817857D02*
X134074819Y-87817857D01*
X134074819Y-87817857D02*
X134074819Y-88198809D01*
X134074819Y-88198809D02*
X134122438Y-88294047D01*
X134122438Y-88294047D02*
X134170057Y-88341666D01*
X134170057Y-88341666D02*
X134265295Y-88389285D01*
X134265295Y-88389285D02*
X134408152Y-88389285D01*
X134408152Y-88389285D02*
X134503390Y-88341666D01*
X134503390Y-88341666D02*
X134551009Y-88294047D01*
X134551009Y-88294047D02*
X134598628Y-88198809D01*
X134598628Y-88198809D02*
X134598628Y-87817857D01*
X134408152Y-89246428D02*
X135074819Y-89246428D01*
X134027200Y-89008333D02*
X134741485Y-88770238D01*
X134741485Y-88770238D02*
X134741485Y-89389285D01*
X131534819Y-103555476D02*
X132249104Y-103555476D01*
X132249104Y-103555476D02*
X132391961Y-103507857D01*
X132391961Y-103507857D02*
X132487200Y-103412619D01*
X132487200Y-103412619D02*
X132534819Y-103269762D01*
X132534819Y-103269762D02*
X132534819Y-103174524D01*
X132534819Y-104031667D02*
X131534819Y-104031667D01*
X131534819Y-104031667D02*
X131534819Y-104412619D01*
X131534819Y-104412619D02*
X131582438Y-104507857D01*
X131582438Y-104507857D02*
X131630057Y-104555476D01*
X131630057Y-104555476D02*
X131725295Y-104603095D01*
X131725295Y-104603095D02*
X131868152Y-104603095D01*
X131868152Y-104603095D02*
X131963390Y-104555476D01*
X131963390Y-104555476D02*
X132011009Y-104507857D01*
X132011009Y-104507857D02*
X132058628Y-104412619D01*
X132058628Y-104412619D02*
X132058628Y-104031667D01*
X132534819Y-105555476D02*
X132534819Y-104984048D01*
X132534819Y-105269762D02*
X131534819Y-105269762D01*
X131534819Y-105269762D02*
X131677676Y-105174524D01*
X131677676Y-105174524D02*
X131772914Y-105079286D01*
X131772914Y-105079286D02*
X131820533Y-104984048D01*
X131534819Y-106412619D02*
X131534819Y-106222143D01*
X131534819Y-106222143D02*
X131582438Y-106126905D01*
X131582438Y-106126905D02*
X131630057Y-106079286D01*
X131630057Y-106079286D02*
X131772914Y-105984048D01*
X131772914Y-105984048D02*
X131963390Y-105936429D01*
X131963390Y-105936429D02*
X132344342Y-105936429D01*
X132344342Y-105936429D02*
X132439580Y-105984048D01*
X132439580Y-105984048D02*
X132487200Y-106031667D01*
X132487200Y-106031667D02*
X132534819Y-106126905D01*
X132534819Y-106126905D02*
X132534819Y-106317381D01*
X132534819Y-106317381D02*
X132487200Y-106412619D01*
X132487200Y-106412619D02*
X132439580Y-106460238D01*
X132439580Y-106460238D02*
X132344342Y-106507857D01*
X132344342Y-106507857D02*
X132106247Y-106507857D01*
X132106247Y-106507857D02*
X132011009Y-106460238D01*
X132011009Y-106460238D02*
X131963390Y-106412619D01*
X131963390Y-106412619D02*
X131915771Y-106317381D01*
X131915771Y-106317381D02*
X131915771Y-106126905D01*
X131915771Y-106126905D02*
X131963390Y-106031667D01*
X131963390Y-106031667D02*
X132011009Y-105984048D01*
X132011009Y-105984048D02*
X132106247Y-105936429D01*
X113069523Y-98514819D02*
X113069523Y-99229104D01*
X113069523Y-99229104D02*
X113117142Y-99371961D01*
X113117142Y-99371961D02*
X113212380Y-99467200D01*
X113212380Y-99467200D02*
X113355237Y-99514819D01*
X113355237Y-99514819D02*
X113450475Y-99514819D01*
X112593332Y-99514819D02*
X112593332Y-98514819D01*
X112593332Y-98514819D02*
X112212380Y-98514819D01*
X112212380Y-98514819D02*
X112117142Y-98562438D01*
X112117142Y-98562438D02*
X112069523Y-98610057D01*
X112069523Y-98610057D02*
X112021904Y-98705295D01*
X112021904Y-98705295D02*
X112021904Y-98848152D01*
X112021904Y-98848152D02*
X112069523Y-98943390D01*
X112069523Y-98943390D02*
X112117142Y-98991009D01*
X112117142Y-98991009D02*
X112212380Y-99038628D01*
X112212380Y-99038628D02*
X112593332Y-99038628D01*
X111640951Y-98610057D02*
X111593332Y-98562438D01*
X111593332Y-98562438D02*
X111498094Y-98514819D01*
X111498094Y-98514819D02*
X111259999Y-98514819D01*
X111259999Y-98514819D02*
X111164761Y-98562438D01*
X111164761Y-98562438D02*
X111117142Y-98610057D01*
X111117142Y-98610057D02*
X111069523Y-98705295D01*
X111069523Y-98705295D02*
X111069523Y-98800533D01*
X111069523Y-98800533D02*
X111117142Y-98943390D01*
X111117142Y-98943390D02*
X111688570Y-99514819D01*
X111688570Y-99514819D02*
X111069523Y-99514819D01*
X110164761Y-98514819D02*
X110640951Y-98514819D01*
X110640951Y-98514819D02*
X110688570Y-98991009D01*
X110688570Y-98991009D02*
X110640951Y-98943390D01*
X110640951Y-98943390D02*
X110545713Y-98895771D01*
X110545713Y-98895771D02*
X110307618Y-98895771D01*
X110307618Y-98895771D02*
X110212380Y-98943390D01*
X110212380Y-98943390D02*
X110164761Y-98991009D01*
X110164761Y-98991009D02*
X110117142Y-99086247D01*
X110117142Y-99086247D02*
X110117142Y-99324342D01*
X110117142Y-99324342D02*
X110164761Y-99419580D01*
X110164761Y-99419580D02*
X110212380Y-99467200D01*
X110212380Y-99467200D02*
X110307618Y-99514819D01*
X110307618Y-99514819D02*
X110545713Y-99514819D01*
X110545713Y-99514819D02*
X110640951Y-99467200D01*
X110640951Y-99467200D02*
X110688570Y-99419580D01*
X127166666Y-79194819D02*
X127499999Y-78718628D01*
X127738094Y-79194819D02*
X127738094Y-78194819D01*
X127738094Y-78194819D02*
X127357142Y-78194819D01*
X127357142Y-78194819D02*
X127261904Y-78242438D01*
X127261904Y-78242438D02*
X127214285Y-78290057D01*
X127214285Y-78290057D02*
X127166666Y-78385295D01*
X127166666Y-78385295D02*
X127166666Y-78528152D01*
X127166666Y-78528152D02*
X127214285Y-78623390D01*
X127214285Y-78623390D02*
X127261904Y-78671009D01*
X127261904Y-78671009D02*
X127357142Y-78718628D01*
X127357142Y-78718628D02*
X127738094Y-78718628D01*
X126214285Y-79194819D02*
X126785713Y-79194819D01*
X126499999Y-79194819D02*
X126499999Y-78194819D01*
X126499999Y-78194819D02*
X126595237Y-78337676D01*
X126595237Y-78337676D02*
X126690475Y-78432914D01*
X126690475Y-78432914D02*
X126785713Y-78480533D01*
X145234819Y-102925714D02*
X144234819Y-102925714D01*
X144234819Y-102925714D02*
X144234819Y-103163809D01*
X144234819Y-103163809D02*
X144282438Y-103306666D01*
X144282438Y-103306666D02*
X144377676Y-103401904D01*
X144377676Y-103401904D02*
X144472914Y-103449523D01*
X144472914Y-103449523D02*
X144663390Y-103497142D01*
X144663390Y-103497142D02*
X144806247Y-103497142D01*
X144806247Y-103497142D02*
X144996723Y-103449523D01*
X144996723Y-103449523D02*
X145091961Y-103401904D01*
X145091961Y-103401904D02*
X145187200Y-103306666D01*
X145187200Y-103306666D02*
X145234819Y-103163809D01*
X145234819Y-103163809D02*
X145234819Y-102925714D01*
X145234819Y-104449523D02*
X145234819Y-103878095D01*
X145234819Y-104163809D02*
X144234819Y-104163809D01*
X144234819Y-104163809D02*
X144377676Y-104068571D01*
X144377676Y-104068571D02*
X144472914Y-103973333D01*
X144472914Y-103973333D02*
X144520533Y-103878095D01*
X144234819Y-105354285D02*
X144234819Y-104878095D01*
X144234819Y-104878095D02*
X144711009Y-104830476D01*
X144711009Y-104830476D02*
X144663390Y-104878095D01*
X144663390Y-104878095D02*
X144615771Y-104973333D01*
X144615771Y-104973333D02*
X144615771Y-105211428D01*
X144615771Y-105211428D02*
X144663390Y-105306666D01*
X144663390Y-105306666D02*
X144711009Y-105354285D01*
X144711009Y-105354285D02*
X144806247Y-105401904D01*
X144806247Y-105401904D02*
X145044342Y-105401904D01*
X145044342Y-105401904D02*
X145139580Y-105354285D01*
X145139580Y-105354285D02*
X145187200Y-105306666D01*
X145187200Y-105306666D02*
X145234819Y-105211428D01*
X145234819Y-105211428D02*
X145234819Y-104973333D01*
X145234819Y-104973333D02*
X145187200Y-104878095D01*
X145187200Y-104878095D02*
X145139580Y-104830476D01*
X145234819Y-97845714D02*
X144234819Y-97845714D01*
X144234819Y-97845714D02*
X144234819Y-98083809D01*
X144234819Y-98083809D02*
X144282438Y-98226666D01*
X144282438Y-98226666D02*
X144377676Y-98321904D01*
X144377676Y-98321904D02*
X144472914Y-98369523D01*
X144472914Y-98369523D02*
X144663390Y-98417142D01*
X144663390Y-98417142D02*
X144806247Y-98417142D01*
X144806247Y-98417142D02*
X144996723Y-98369523D01*
X144996723Y-98369523D02*
X145091961Y-98321904D01*
X145091961Y-98321904D02*
X145187200Y-98226666D01*
X145187200Y-98226666D02*
X145234819Y-98083809D01*
X145234819Y-98083809D02*
X145234819Y-97845714D01*
X145234819Y-99369523D02*
X145234819Y-98798095D01*
X145234819Y-99083809D02*
X144234819Y-99083809D01*
X144234819Y-99083809D02*
X144377676Y-98988571D01*
X144377676Y-98988571D02*
X144472914Y-98893333D01*
X144472914Y-98893333D02*
X144520533Y-98798095D01*
X145234819Y-100321904D02*
X145234819Y-99750476D01*
X145234819Y-100036190D02*
X144234819Y-100036190D01*
X144234819Y-100036190D02*
X144377676Y-99940952D01*
X144377676Y-99940952D02*
X144472914Y-99845714D01*
X144472914Y-99845714D02*
X144520533Y-99750476D01*
M02*
