%TF.GenerationSoftware,KiCad,Pcbnew,7.0.8*%
%TF.CreationDate,2023-10-10T01:17:21-07:00*%
%TF.ProjectId,htpm_control_module_display,6874706d-5f63-46f6-9e74-726f6c5f6d6f,1*%
%TF.SameCoordinates,Original*%
%TF.FileFunction,Copper,L1,Top*%
%TF.FilePolarity,Positive*%
%FSLAX46Y46*%
G04 Gerber Fmt 4.6, Leading zero omitted, Abs format (unit mm)*
G04 Created by KiCad (PCBNEW 7.0.8) date 2023-10-10 01:17:21*
%MOMM*%
%LPD*%
G01*
G04 APERTURE LIST*
G04 Aperture macros list*
%AMFreePoly0*
4,1,6,1.000000,0.000000,0.500000,-0.750000,-0.500000,-0.750000,-0.500000,0.750000,0.500000,0.750000,1.000000,0.000000,1.000000,0.000000,$1*%
%AMFreePoly1*
4,1,6,0.500000,-0.750000,-0.650000,-0.750000,-0.150000,0.000000,-0.650000,0.750000,0.500000,0.750000,0.500000,-0.750000,0.500000,-0.750000,$1*%
G04 Aperture macros list end*
%TA.AperFunction,ComponentPad*%
%ADD10R,1.800000X1.800000*%
%TD*%
%TA.AperFunction,ComponentPad*%
%ADD11C,1.800000*%
%TD*%
%TA.AperFunction,SMDPad,CuDef*%
%ADD12FreePoly0,90.000000*%
%TD*%
%TA.AperFunction,SMDPad,CuDef*%
%ADD13FreePoly1,90.000000*%
%TD*%
%TA.AperFunction,ComponentPad*%
%ADD14R,1.350000X1.350000*%
%TD*%
%TA.AperFunction,ComponentPad*%
%ADD15O,1.350000X1.350000*%
%TD*%
%TA.AperFunction,SMDPad,CuDef*%
%ADD16FreePoly0,180.000000*%
%TD*%
%TA.AperFunction,SMDPad,CuDef*%
%ADD17FreePoly1,180.000000*%
%TD*%
%TA.AperFunction,SMDPad,CuDef*%
%ADD18FreePoly0,270.000000*%
%TD*%
%TA.AperFunction,SMDPad,CuDef*%
%ADD19FreePoly1,270.000000*%
%TD*%
%TA.AperFunction,SMDPad,CuDef*%
%ADD20FreePoly0,0.000000*%
%TD*%
%TA.AperFunction,SMDPad,CuDef*%
%ADD21FreePoly1,0.000000*%
%TD*%
%TA.AperFunction,ComponentPad*%
%ADD22C,1.400000*%
%TD*%
%TA.AperFunction,ComponentPad*%
%ADD23O,1.400000X1.400000*%
%TD*%
%TA.AperFunction,ViaPad*%
%ADD24C,0.800000*%
%TD*%
%TA.AperFunction,Conductor*%
%ADD25C,0.250000*%
%TD*%
G04 APERTURE END LIST*
D10*
%TO.P,D7,1,K*%
%TO.N,GND*%
X147320000Y-86360000D03*
D11*
%TO.P,D7,2,A*%
%TO.N,Net-(D7-A)*%
X147320000Y-88900000D03*
%TD*%
D12*
%TO.P,JP8,1,A*%
%TO.N,Net-(D10-A)*%
X132080000Y-92890000D03*
D13*
%TO.P,JP8,2,B*%
%TO.N,Net-(JP1-B)*%
X132080000Y-91440000D03*
%TD*%
D14*
%TO.P,J1,1,Pin_1*%
%TO.N,+3.3V*%
X127000000Y-111760000D03*
D15*
%TO.P,J1,2,Pin_2*%
%TO.N,GND*%
X125000000Y-111760000D03*
%TO.P,J1,3,Pin_3*%
%TO.N,Net-(J1-Pin_3)*%
X123000000Y-111760000D03*
%TO.P,J1,4,Pin_4*%
%TO.N,Net-(J1-Pin_4)*%
X121000000Y-111760000D03*
%TO.P,J1,5,Pin_5*%
%TO.N,Net-(J1-Pin_5)*%
X119000000Y-111760000D03*
%TO.P,J1,6,Pin_6*%
%TO.N,Net-(J1-Pin_6)*%
X117000000Y-111760000D03*
%TO.P,J1,7,Pin_7*%
%TO.N,Net-(J1-Pin_7)*%
X115000000Y-111760000D03*
%TO.P,J1,8,Pin_8*%
%TO.N,Net-(J1-Pin_8)*%
X113000000Y-111760000D03*
%TO.P,J1,9,Pin_9*%
%TO.N,Net-(J1-Pin_9)*%
X111000000Y-111760000D03*
%TO.P,J1,10,Pin_10*%
%TO.N,Net-(J1-Pin_10)*%
X109000000Y-111760000D03*
%TD*%
D10*
%TO.P,D13,1,K*%
%TO.N,GND*%
X162560000Y-99060000D03*
D11*
%TO.P,D13,2,A*%
%TO.N,Net-(D13-A)*%
X162560000Y-96520000D03*
%TD*%
D10*
%TO.P,D2,1,K*%
%TO.N,GND*%
X137160000Y-99060000D03*
D11*
%TO.P,D2,2,A*%
%TO.N,Net-(D2-A)*%
X137160000Y-96520000D03*
%TD*%
D12*
%TO.P,JP6,1,A*%
%TO.N,Net-(D8-A)*%
X127000000Y-92890000D03*
D13*
%TO.P,JP6,2,B*%
%TO.N,Net-(JP1-B)*%
X127000000Y-91440000D03*
%TD*%
D10*
%TO.P,D6,1,K*%
%TO.N,GND*%
X170180000Y-81280000D03*
D11*
%TO.P,D6,2,A*%
%TO.N,Net-(D6-A)*%
X170180000Y-78740000D03*
%TD*%
D10*
%TO.P,D18,1,K*%
%TO.N,GND*%
X170180000Y-104140000D03*
D11*
%TO.P,D18,2,A*%
%TO.N,Net-(D18-A)*%
X170180000Y-106680000D03*
%TD*%
D16*
%TO.P,JP29,1,A*%
%TO.N,Net-(J1-Pin_7)*%
X111760000Y-86360000D03*
D17*
%TO.P,JP29,2,B*%
%TO.N,Net-(JP25-B)*%
X110310000Y-86360000D03*
%TD*%
D10*
%TO.P,D5,1,K*%
%TO.N,GND*%
X162560000Y-81280000D03*
D11*
%TO.P,D5,2,A*%
%TO.N,Net-(D5-A)*%
X162560000Y-78740000D03*
%TD*%
D18*
%TO.P,JP9,1,A*%
%TO.N,Net-(D11-A)*%
X121920000Y-100150000D03*
D19*
%TO.P,JP9,2,B*%
%TO.N,Net-(JP10-B)*%
X121920000Y-101600000D03*
%TD*%
D20*
%TO.P,JP17,1,A*%
%TO.N,Net-(J1-Pin_10)*%
X117930000Y-78740000D03*
D21*
%TO.P,JP17,2,B*%
%TO.N,Net-(JP17-B)*%
X119380000Y-78740000D03*
%TD*%
D18*
%TO.P,JP12,1,A*%
%TO.N,Net-(D14-A)*%
X129540000Y-100150000D03*
D19*
%TO.P,JP12,2,B*%
%TO.N,Net-(JP10-B)*%
X129540000Y-101600000D03*
%TD*%
D22*
%TO.P,R3,1*%
%TO.N,+3.3V*%
X107950000Y-101600000D03*
D23*
%TO.P,R3,2*%
%TO.N,Net-(JP10-B)*%
X115570000Y-101600000D03*
%TD*%
D14*
%TO.P,J2,1,Pin_1*%
%TO.N,+3.3V*%
X127000000Y-73660000D03*
D15*
%TO.P,J2,2,Pin_2*%
%TO.N,GND*%
X125000000Y-73660000D03*
%TO.P,J2,3,Pin_3*%
%TO.N,Net-(J1-Pin_3)*%
X123000000Y-73660000D03*
%TO.P,J2,4,Pin_4*%
%TO.N,Net-(J1-Pin_4)*%
X121000000Y-73660000D03*
%TO.P,J2,5,Pin_5*%
%TO.N,Net-(J1-Pin_5)*%
X119000000Y-73660000D03*
%TO.P,J2,6,Pin_6*%
%TO.N,Net-(J1-Pin_6)*%
X117000000Y-73660000D03*
%TO.P,J2,7,Pin_7*%
%TO.N,Net-(J1-Pin_7)*%
X115000000Y-73660000D03*
%TO.P,J2,8,Pin_8*%
%TO.N,Net-(J1-Pin_8)*%
X113000000Y-73660000D03*
%TO.P,J2,9,Pin_9*%
%TO.N,Net-(J1-Pin_9)*%
X111000000Y-73660000D03*
%TO.P,J2,10,Pin_10*%
%TO.N,Net-(J1-Pin_10)*%
X109000000Y-73660000D03*
%TD*%
D16*
%TO.P,JP27,1,A*%
%TO.N,Net-(J1-Pin_5)*%
X111760000Y-91440000D03*
D17*
%TO.P,JP27,2,B*%
%TO.N,Net-(JP25-B)*%
X110310000Y-91440000D03*
%TD*%
D16*
%TO.P,JP26,1,A*%
%TO.N,Net-(J1-Pin_4)*%
X111760000Y-93980000D03*
D17*
%TO.P,JP26,2,B*%
%TO.N,Net-(JP25-B)*%
X110310000Y-93980000D03*
%TD*%
D16*
%TO.P,JP31,1,A*%
%TO.N,Net-(J1-Pin_9)*%
X111760000Y-81280000D03*
D17*
%TO.P,JP31,2,B*%
%TO.N,Net-(JP25-B)*%
X110310000Y-81280000D03*
%TD*%
D16*
%TO.P,JP30,1,A*%
%TO.N,Net-(J1-Pin_8)*%
X111760000Y-83820000D03*
D17*
%TO.P,JP30,2,B*%
%TO.N,Net-(JP25-B)*%
X110310000Y-83820000D03*
%TD*%
D18*
%TO.P,JP2,1,A*%
%TO.N,Net-(D4-A)*%
X127000000Y-87450000D03*
D19*
%TO.P,JP2,2,B*%
%TO.N,Net-(JP1-B)*%
X127000000Y-88900000D03*
%TD*%
D20*
%TO.P,JP24,1,A*%
%TO.N,Net-(J1-Pin_3)*%
X117930000Y-96520000D03*
D21*
%TO.P,JP24,2,B*%
%TO.N,Net-(JP17-B)*%
X119380000Y-96520000D03*
%TD*%
D22*
%TO.P,R2,1*%
%TO.N,Net-(JP17-B)*%
X124460000Y-96520000D03*
D23*
%TO.P,R2,2*%
%TO.N,Net-(D2-A)*%
X132080000Y-96520000D03*
%TD*%
D10*
%TO.P,D4,1,K*%
%TO.N,GND*%
X154940000Y-81280000D03*
D11*
%TO.P,D4,2,A*%
%TO.N,Net-(D4-A)*%
X154940000Y-78740000D03*
%TD*%
D12*
%TO.P,JP5,1,A*%
%TO.N,Net-(D7-A)*%
X124460000Y-92890000D03*
D13*
%TO.P,JP5,2,B*%
%TO.N,Net-(JP1-B)*%
X124460000Y-91440000D03*
%TD*%
D22*
%TO.P,R4,1*%
%TO.N,+3.3V*%
X123190000Y-83820000D03*
D23*
%TO.P,R4,2*%
%TO.N,Net-(JP1-B)*%
X130810000Y-83820000D03*
%TD*%
D18*
%TO.P,JP10,1,A*%
%TO.N,Net-(D12-A)*%
X124460000Y-100150000D03*
D19*
%TO.P,JP10,2,B*%
%TO.N,Net-(JP10-B)*%
X124460000Y-101600000D03*
%TD*%
D10*
%TO.P,D14,1,K*%
%TO.N,GND*%
X170180000Y-99060000D03*
D11*
%TO.P,D14,2,A*%
%TO.N,Net-(D14-A)*%
X170180000Y-96520000D03*
%TD*%
D20*
%TO.P,JP20,1,A*%
%TO.N,Net-(J1-Pin_7)*%
X117930000Y-86360000D03*
D21*
%TO.P,JP20,2,B*%
%TO.N,Net-(JP17-B)*%
X119380000Y-86360000D03*
%TD*%
D10*
%TO.P,D12,1,K*%
%TO.N,GND*%
X154940000Y-99060000D03*
D11*
%TO.P,D12,2,A*%
%TO.N,Net-(D12-A)*%
X154940000Y-96520000D03*
%TD*%
D10*
%TO.P,D9,1,K*%
%TO.N,GND*%
X162560000Y-86360000D03*
D11*
%TO.P,D9,2,A*%
%TO.N,Net-(D9-A)*%
X162560000Y-88900000D03*
%TD*%
D10*
%TO.P,D3,1,K*%
%TO.N,GND*%
X147320000Y-81280000D03*
D11*
%TO.P,D3,2,A*%
%TO.N,Net-(D3-A)*%
X147320000Y-78740000D03*
%TD*%
D10*
%TO.P,D17,1,K*%
%TO.N,GND*%
X162560000Y-104140000D03*
D11*
%TO.P,D17,2,A*%
%TO.N,Net-(D17-A)*%
X162560000Y-106680000D03*
%TD*%
D20*
%TO.P,JP19,1,A*%
%TO.N,Net-(J1-Pin_8)*%
X117930000Y-83820000D03*
D21*
%TO.P,JP19,2,B*%
%TO.N,Net-(JP17-B)*%
X119380000Y-83820000D03*
%TD*%
D10*
%TO.P,D10,1,K*%
%TO.N,GND*%
X170180000Y-86360000D03*
D11*
%TO.P,D10,2,A*%
%TO.N,Net-(D10-A)*%
X170180000Y-88900000D03*
%TD*%
D16*
%TO.P,JP32,1,A*%
%TO.N,Net-(J1-Pin_10)*%
X111760000Y-78740000D03*
D17*
%TO.P,JP32,2,B*%
%TO.N,Net-(JP25-B)*%
X110310000Y-78740000D03*
%TD*%
D12*
%TO.P,JP14,1,A*%
%TO.N,Net-(D16-A)*%
X124460000Y-105590000D03*
D13*
%TO.P,JP14,2,B*%
%TO.N,Net-(JP10-B)*%
X124460000Y-104140000D03*
%TD*%
D20*
%TO.P,JP18,1,A*%
%TO.N,Net-(J1-Pin_9)*%
X117930000Y-81280000D03*
D21*
%TO.P,JP18,2,B*%
%TO.N,Net-(JP17-B)*%
X119380000Y-81280000D03*
%TD*%
D18*
%TO.P,JP1,1,A*%
%TO.N,Net-(D3-A)*%
X124460000Y-87450000D03*
D19*
%TO.P,JP1,2,B*%
%TO.N,Net-(JP1-B)*%
X124460000Y-88900000D03*
%TD*%
D12*
%TO.P,JP7,1,A*%
%TO.N,Net-(D9-A)*%
X129540000Y-92890000D03*
D13*
%TO.P,JP7,2,B*%
%TO.N,Net-(JP1-B)*%
X129540000Y-91440000D03*
%TD*%
D10*
%TO.P,D1,1,K*%
%TO.N,GND*%
X137160000Y-81280000D03*
D11*
%TO.P,D1,2,A*%
%TO.N,Net-(D1-A)*%
X137160000Y-78740000D03*
%TD*%
D12*
%TO.P,JP13,1,A*%
%TO.N,Net-(D15-A)*%
X121920000Y-105590000D03*
D13*
%TO.P,JP13,2,B*%
%TO.N,Net-(JP10-B)*%
X121920000Y-104140000D03*
%TD*%
D20*
%TO.P,JP23,1,A*%
%TO.N,Net-(J1-Pin_4)*%
X117930000Y-93980000D03*
D21*
%TO.P,JP23,2,B*%
%TO.N,Net-(JP17-B)*%
X119380000Y-93980000D03*
%TD*%
D16*
%TO.P,JP28,1,A*%
%TO.N,Net-(J1-Pin_6)*%
X111760000Y-88900000D03*
D17*
%TO.P,JP28,2,B*%
%TO.N,Net-(JP25-B)*%
X110310000Y-88900000D03*
%TD*%
D10*
%TO.P,D16,1,K*%
%TO.N,GND*%
X154940000Y-104140000D03*
D11*
%TO.P,D16,2,A*%
%TO.N,Net-(D16-A)*%
X154940000Y-106680000D03*
%TD*%
D18*
%TO.P,JP4,1,A*%
%TO.N,Net-(D6-A)*%
X132080000Y-87450000D03*
D19*
%TO.P,JP4,2,B*%
%TO.N,Net-(JP1-B)*%
X132080000Y-88900000D03*
%TD*%
D18*
%TO.P,JP11,1,A*%
%TO.N,Net-(D13-A)*%
X127000000Y-100150000D03*
D19*
%TO.P,JP11,2,B*%
%TO.N,Net-(JP10-B)*%
X127000000Y-101600000D03*
%TD*%
D12*
%TO.P,JP16,1,A*%
%TO.N,Net-(D18-A)*%
X129540000Y-105590000D03*
D13*
%TO.P,JP16,2,B*%
%TO.N,Net-(JP10-B)*%
X129540000Y-104140000D03*
%TD*%
D12*
%TO.P,JP15,1,A*%
%TO.N,Net-(D17-A)*%
X127000000Y-105590000D03*
D13*
%TO.P,JP15,2,B*%
%TO.N,Net-(JP10-B)*%
X127000000Y-104140000D03*
%TD*%
D20*
%TO.P,JP21,1,A*%
%TO.N,Net-(J1-Pin_6)*%
X117930000Y-88900000D03*
D21*
%TO.P,JP21,2,B*%
%TO.N,Net-(JP17-B)*%
X119380000Y-88900000D03*
%TD*%
D16*
%TO.P,JP25,1,A*%
%TO.N,Net-(J1-Pin_3)*%
X111760000Y-96520000D03*
D17*
%TO.P,JP25,2,B*%
%TO.N,Net-(JP25-B)*%
X110310000Y-96520000D03*
%TD*%
D22*
%TO.P,R1,1*%
%TO.N,Net-(JP25-B)*%
X123190000Y-78740000D03*
D23*
%TO.P,R1,2*%
%TO.N,Net-(D1-A)*%
X130810000Y-78740000D03*
%TD*%
D10*
%TO.P,D8,1,K*%
%TO.N,GND*%
X154940000Y-86360000D03*
D11*
%TO.P,D8,2,A*%
%TO.N,Net-(D8-A)*%
X154940000Y-88900000D03*
%TD*%
D20*
%TO.P,JP22,1,A*%
%TO.N,Net-(J1-Pin_5)*%
X117930000Y-91440000D03*
D21*
%TO.P,JP22,2,B*%
%TO.N,Net-(JP17-B)*%
X119380000Y-91440000D03*
%TD*%
D10*
%TO.P,D15,1,K*%
%TO.N,GND*%
X147320000Y-104140000D03*
D11*
%TO.P,D15,2,A*%
%TO.N,Net-(D15-A)*%
X147320000Y-106680000D03*
%TD*%
D18*
%TO.P,JP3,1,A*%
%TO.N,Net-(D5-A)*%
X129540000Y-87450000D03*
D19*
%TO.P,JP3,2,B*%
%TO.N,Net-(JP1-B)*%
X129540000Y-88900000D03*
%TD*%
D10*
%TO.P,D11,1,K*%
%TO.N,GND*%
X147320000Y-99060000D03*
D11*
%TO.P,D11,2,A*%
%TO.N,Net-(D11-A)*%
X147320000Y-96520000D03*
%TD*%
D24*
%TO.N,Net-(J1-Pin_3)*%
X114300000Y-96520000D03*
%TO.N,Net-(J1-Pin_4)*%
X114300000Y-93980000D03*
%TO.N,Net-(J1-Pin_5)*%
X114300000Y-91440000D03*
%TO.N,Net-(J1-Pin_6)*%
X114300000Y-88900000D03*
%TO.N,Net-(J1-Pin_7)*%
X114300000Y-86360000D03*
%TO.N,Net-(J1-Pin_8)*%
X114300000Y-83820000D03*
%TO.N,Net-(J1-Pin_9)*%
X114300000Y-81280000D03*
%TO.N,Net-(J1-Pin_10)*%
X114300000Y-78740000D03*
%TO.N,Net-(JP1-B)*%
X134620000Y-86360000D03*
%TD*%
D25*
%TO.N,Net-(D1-A)*%
X130810000Y-78740000D02*
X137160000Y-78740000D01*
%TO.N,Net-(D2-A)*%
X132080000Y-96520000D02*
X137160000Y-96520000D01*
%TO.N,Net-(D3-A)*%
X139700000Y-78740000D02*
X147320000Y-78740000D01*
X124460000Y-87450000D02*
X127450000Y-84460000D01*
X127450000Y-84460000D02*
X127450000Y-78740000D01*
X127450000Y-78740000D02*
X129990000Y-76200000D01*
X137160000Y-76200000D02*
X139700000Y-78740000D01*
X129990000Y-76200000D02*
X137160000Y-76200000D01*
%TO.N,Net-(D4-A)*%
X127900000Y-86550000D02*
X127900000Y-83820000D01*
X127900000Y-83820000D02*
X130440000Y-81280000D01*
X151175000Y-82505000D02*
X154940000Y-78740000D01*
X134900380Y-81280000D02*
X136125380Y-82505000D01*
X127000000Y-87450000D02*
X127900000Y-86550000D01*
X130440000Y-81280000D02*
X134900380Y-81280000D01*
X136125380Y-82505000D02*
X151175000Y-82505000D01*
%TO.N,Net-(D5-A)*%
X158345000Y-82955000D02*
X162560000Y-78740000D01*
X134035000Y-82955000D02*
X158345000Y-82955000D01*
X129540000Y-87450000D02*
X134035000Y-82955000D01*
%TO.N,Net-(D6-A)*%
X136125000Y-83405000D02*
X165515000Y-83405000D01*
X165515000Y-83405000D02*
X170180000Y-78740000D01*
X132080000Y-87450000D02*
X136125000Y-83405000D01*
%TO.N,Net-(D7-A)*%
X139700000Y-88900000D02*
X147320000Y-88900000D01*
X133985000Y-94615000D02*
X139700000Y-88900000D01*
X124460000Y-92890000D02*
X126185000Y-94615000D01*
X126185000Y-94615000D02*
X133985000Y-94615000D01*
%TO.N,Net-(D8-A)*%
X154005000Y-88900000D02*
X154940000Y-88900000D01*
X140037792Y-84755000D02*
X149860000Y-84755000D01*
X133151016Y-94165000D02*
X138060000Y-89256016D01*
X138060000Y-89256016D02*
X138060000Y-86732792D01*
X127000000Y-92890000D02*
X128275000Y-94165000D01*
X128275000Y-94165000D02*
X133151016Y-94165000D01*
X149860000Y-84755000D02*
X154005000Y-88900000D01*
X138060000Y-86732792D02*
X140037792Y-84755000D01*
%TO.N,Net-(D9-A)*%
X137610000Y-86546396D02*
X139851396Y-84305000D01*
X130365000Y-93715000D02*
X132964620Y-93715000D01*
X157965000Y-84305000D02*
X162560000Y-88900000D01*
X129540000Y-92890000D02*
X130365000Y-93715000D01*
X134768198Y-91588198D02*
X137610000Y-88746396D01*
X132964620Y-93715000D02*
X134768198Y-91911422D01*
X137610000Y-88746396D02*
X137610000Y-86546396D01*
X139851396Y-84305000D02*
X157965000Y-84305000D01*
X134768198Y-91911422D02*
X134768198Y-91588198D01*
%TO.N,Net-(D10-A)*%
X137160000Y-88560000D02*
X137160000Y-86360000D01*
X137160000Y-86360000D02*
X139665000Y-83855000D01*
X165135000Y-83855000D02*
X170180000Y-88900000D01*
X139665000Y-83855000D02*
X165135000Y-83855000D01*
X132080000Y-92890000D02*
X132830000Y-92890000D01*
X132830000Y-92890000D02*
X137160000Y-88560000D01*
%TO.N,Net-(D11-A)*%
X146005000Y-97835000D02*
X147320000Y-96520000D01*
X127325000Y-97835000D02*
X146005000Y-97835000D01*
X127000000Y-98160000D02*
X127325000Y-97835000D01*
X123910000Y-98160000D02*
X127000000Y-98160000D01*
X121920000Y-100150000D02*
X123910000Y-98160000D01*
%TO.N,Net-(D12-A)*%
X126000000Y-98610000D02*
X132266396Y-98610000D01*
X124460000Y-100150000D02*
X126000000Y-98610000D01*
X132266396Y-98610000D02*
X134356396Y-100700000D01*
X134356396Y-100700000D02*
X150760000Y-100700000D01*
X150760000Y-100700000D02*
X154940000Y-96520000D01*
%TO.N,Net-(D13-A)*%
X128090000Y-99060000D02*
X132080000Y-99060000D01*
X134170000Y-101150000D02*
X157930000Y-101150000D01*
X127000000Y-100150000D02*
X128090000Y-99060000D01*
X132080000Y-99060000D02*
X134170000Y-101150000D01*
X157930000Y-101150000D02*
X162560000Y-96520000D01*
%TO.N,Net-(D14-A)*%
X132080000Y-101600000D02*
X165100000Y-101600000D01*
X129540000Y-100150000D02*
X130630000Y-100150000D01*
X130630000Y-100150000D02*
X132080000Y-101600000D01*
X165100000Y-101600000D02*
X170180000Y-96520000D01*
%TO.N,Net-(D15-A)*%
X146099930Y-107900070D02*
X147320000Y-106680000D01*
X121920000Y-105590000D02*
X124230070Y-107900070D01*
X124230070Y-107900070D02*
X146099930Y-107900070D01*
%TO.N,Net-(D16-A)*%
X126000000Y-107130000D02*
X134170000Y-107130000D01*
X134170000Y-107130000D02*
X135840070Y-105459930D01*
X152400000Y-106680000D02*
X154940000Y-106680000D01*
X124460000Y-105590000D02*
X126000000Y-107130000D01*
X151179930Y-105459930D02*
X152400000Y-106680000D01*
X135840070Y-105459930D02*
X151179930Y-105459930D01*
%TO.N,Net-(D17-A)*%
X127000000Y-105590000D02*
X128090000Y-106680000D01*
X136260000Y-102500000D02*
X158380000Y-102500000D01*
X132080000Y-106680000D02*
X136260000Y-102500000D01*
X158380000Y-102500000D02*
X162560000Y-106680000D01*
X128090000Y-106680000D02*
X132080000Y-106680000D01*
%TO.N,Net-(D18-A)*%
X130290000Y-105590000D02*
X133830000Y-102050000D01*
X133830000Y-102050000D02*
X165550000Y-102050000D01*
X165550000Y-102050000D02*
X170180000Y-106680000D01*
X129540000Y-105590000D02*
X130290000Y-105590000D01*
%TO.N,+3.3V*%
X107950000Y-101600000D02*
X115570000Y-109220000D01*
X127000000Y-80010000D02*
X123190000Y-83820000D01*
X115570000Y-109220000D02*
X124460000Y-109220000D01*
X127000000Y-73660000D02*
X127000000Y-80010000D01*
X124460000Y-109220000D02*
X127000000Y-111760000D01*
%TO.N,Net-(J1-Pin_3)*%
X117930000Y-96520000D02*
X114300000Y-96520000D01*
X114300000Y-96520000D02*
X111760000Y-96520000D01*
%TO.N,Net-(J1-Pin_4)*%
X114300000Y-93980000D02*
X117930000Y-93980000D01*
X111760000Y-93980000D02*
X114300000Y-93980000D01*
%TO.N,Net-(J1-Pin_5)*%
X117930000Y-91440000D02*
X114300000Y-91440000D01*
X114300000Y-91440000D02*
X111760000Y-91440000D01*
%TO.N,Net-(J1-Pin_6)*%
X111760000Y-88900000D02*
X114300000Y-88900000D01*
X114300000Y-88900000D02*
X117930000Y-88900000D01*
%TO.N,Net-(J1-Pin_7)*%
X117930000Y-86360000D02*
X114300000Y-86360000D01*
X114300000Y-86360000D02*
X111760000Y-86360000D01*
%TO.N,Net-(J1-Pin_8)*%
X114300000Y-83820000D02*
X117930000Y-83820000D01*
X111760000Y-83820000D02*
X114300000Y-83820000D01*
%TO.N,Net-(J1-Pin_9)*%
X117930000Y-81280000D02*
X114300000Y-81280000D01*
X114300000Y-81280000D02*
X111760000Y-81280000D01*
%TO.N,Net-(J1-Pin_10)*%
X114300000Y-78740000D02*
X117930000Y-78740000D01*
X111760000Y-78740000D02*
X114300000Y-78740000D01*
%TO.N,Net-(JP1-B)*%
X134620000Y-87110000D02*
X132830000Y-88900000D01*
X132080000Y-88900000D02*
X124460000Y-88900000D01*
X132830000Y-88900000D02*
X132080000Y-88900000D01*
X134620000Y-86360000D02*
X134620000Y-87110000D01*
X124460000Y-88900000D02*
X124460000Y-91440000D01*
X124460000Y-91440000D02*
X132080000Y-91440000D01*
%TO.N,Net-(JP17-B)*%
X119380000Y-96520000D02*
X119380000Y-78740000D01*
X124460000Y-96520000D02*
X119380000Y-96520000D01*
%TO.N,Net-(JP25-B)*%
X110310000Y-78740000D02*
X110310000Y-96520000D01*
X123190000Y-78740000D02*
X120650000Y-76200000D01*
X120650000Y-76200000D02*
X111760000Y-76200000D01*
X110310000Y-77650000D02*
X110310000Y-78740000D01*
X111760000Y-76200000D02*
X110310000Y-77650000D01*
%TO.N,Net-(JP10-B)*%
X115570000Y-101600000D02*
X121920000Y-101600000D01*
X121920000Y-104140000D02*
X129540000Y-104140000D01*
X129540000Y-101600000D02*
X121920000Y-101600000D01*
X121920000Y-101600000D02*
X121920000Y-104140000D01*
%TD*%
M02*
