%TF.GenerationSoftware,KiCad,Pcbnew,7.0.8*%
%TF.CreationDate,2023-10-10T01:17:21-07:00*%
%TF.ProjectId,htpm_control_module_display,6874706d-5f63-46f6-9e74-726f6c5f6d6f,1*%
%TF.SameCoordinates,Original*%
%TF.FileFunction,Soldermask,Top*%
%TF.FilePolarity,Negative*%
%FSLAX46Y46*%
G04 Gerber Fmt 4.6, Leading zero omitted, Abs format (unit mm)*
G04 Created by KiCad (PCBNEW 7.0.8) date 2023-10-10 01:17:21*
%MOMM*%
%LPD*%
G01*
G04 APERTURE LIST*
G04 Aperture macros list*
%AMFreePoly0*
4,1,6,1.000000,0.000000,0.500000,-0.750000,-0.500000,-0.750000,-0.500000,0.750000,0.500000,0.750000,1.000000,0.000000,1.000000,0.000000,$1*%
%AMFreePoly1*
4,1,6,0.500000,-0.750000,-0.650000,-0.750000,-0.150000,0.000000,-0.650000,0.750000,0.500000,0.750000,0.500000,-0.750000,0.500000,-0.750000,$1*%
G04 Aperture macros list end*
%ADD10R,1.800000X1.800000*%
%ADD11C,1.800000*%
%ADD12FreePoly0,90.000000*%
%ADD13FreePoly1,90.000000*%
%ADD14R,1.350000X1.350000*%
%ADD15O,1.350000X1.350000*%
%ADD16FreePoly0,180.000000*%
%ADD17FreePoly1,180.000000*%
%ADD18FreePoly0,270.000000*%
%ADD19FreePoly1,270.000000*%
%ADD20FreePoly0,0.000000*%
%ADD21FreePoly1,0.000000*%
%ADD22C,1.400000*%
%ADD23O,1.400000X1.400000*%
%ADD24C,2.500000*%
G04 APERTURE END LIST*
D10*
%TO.C,D7*%
X147320000Y-86360000D03*
D11*
X147320000Y-88900000D03*
%TD*%
D12*
%TO.C,JP8*%
X132080000Y-92890000D03*
D13*
X132080000Y-91440000D03*
%TD*%
D14*
%TO.C,J1*%
X127000000Y-111760000D03*
D15*
X125000000Y-111760000D03*
X123000000Y-111760000D03*
X121000000Y-111760000D03*
X119000000Y-111760000D03*
X117000000Y-111760000D03*
X115000000Y-111760000D03*
X113000000Y-111760000D03*
X111000000Y-111760000D03*
X109000000Y-111760000D03*
%TD*%
D10*
%TO.C,D13*%
X162560000Y-99060000D03*
D11*
X162560000Y-96520000D03*
%TD*%
D10*
%TO.C,D2*%
X137160000Y-99060000D03*
D11*
X137160000Y-96520000D03*
%TD*%
D12*
%TO.C,JP6*%
X127000000Y-92890000D03*
D13*
X127000000Y-91440000D03*
%TD*%
D10*
%TO.C,D6*%
X170180000Y-81280000D03*
D11*
X170180000Y-78740000D03*
%TD*%
D10*
%TO.C,D18*%
X170180000Y-104140000D03*
D11*
X170180000Y-106680000D03*
%TD*%
D16*
%TO.C,JP29*%
X111760000Y-86360000D03*
D17*
X110310000Y-86360000D03*
%TD*%
D10*
%TO.C,D5*%
X162560000Y-81280000D03*
D11*
X162560000Y-78740000D03*
%TD*%
D18*
%TO.C,JP9*%
X121920000Y-100150000D03*
D19*
X121920000Y-101600000D03*
%TD*%
D20*
%TO.C,JP17*%
X117930000Y-78740000D03*
D21*
X119380000Y-78740000D03*
%TD*%
D18*
%TO.C,JP12*%
X129540000Y-100150000D03*
D19*
X129540000Y-101600000D03*
%TD*%
D22*
%TO.C,R3*%
X107950000Y-101600000D03*
D23*
X115570000Y-101600000D03*
%TD*%
D14*
%TO.C,J2*%
X127000000Y-73660000D03*
D15*
X125000000Y-73660000D03*
X123000000Y-73660000D03*
X121000000Y-73660000D03*
X119000000Y-73660000D03*
X117000000Y-73660000D03*
X115000000Y-73660000D03*
X113000000Y-73660000D03*
X111000000Y-73660000D03*
X109000000Y-73660000D03*
%TD*%
D16*
%TO.C,JP27*%
X111760000Y-91440000D03*
D17*
X110310000Y-91440000D03*
%TD*%
D16*
%TO.C,JP26*%
X111760000Y-93980000D03*
D17*
X110310000Y-93980000D03*
%TD*%
D16*
%TO.C,JP31*%
X111760000Y-81280000D03*
D17*
X110310000Y-81280000D03*
%TD*%
D16*
%TO.C,JP30*%
X111760000Y-83820000D03*
D17*
X110310000Y-83820000D03*
%TD*%
D18*
%TO.C,JP2*%
X127000000Y-87450000D03*
D19*
X127000000Y-88900000D03*
%TD*%
D20*
%TO.C,JP24*%
X117930000Y-96520000D03*
D21*
X119380000Y-96520000D03*
%TD*%
D22*
%TO.C,R2*%
X124460000Y-96520000D03*
D23*
X132080000Y-96520000D03*
%TD*%
D10*
%TO.C,D4*%
X154940000Y-81280000D03*
D11*
X154940000Y-78740000D03*
%TD*%
D12*
%TO.C,JP5*%
X124460000Y-92890000D03*
D13*
X124460000Y-91440000D03*
%TD*%
D22*
%TO.C,R4*%
X123190000Y-83820000D03*
D23*
X130810000Y-83820000D03*
%TD*%
D18*
%TO.C,JP10*%
X124460000Y-100150000D03*
D19*
X124460000Y-101600000D03*
%TD*%
D10*
%TO.C,D14*%
X170180000Y-99060000D03*
D11*
X170180000Y-96520000D03*
%TD*%
D20*
%TO.C,JP20*%
X117930000Y-86360000D03*
D21*
X119380000Y-86360000D03*
%TD*%
D10*
%TO.C,D12*%
X154940000Y-99060000D03*
D11*
X154940000Y-96520000D03*
%TD*%
D10*
%TO.C,D9*%
X162560000Y-86360000D03*
D11*
X162560000Y-88900000D03*
%TD*%
D10*
%TO.C,D3*%
X147320000Y-81280000D03*
D11*
X147320000Y-78740000D03*
%TD*%
D10*
%TO.C,D17*%
X162560000Y-104140000D03*
D11*
X162560000Y-106680000D03*
%TD*%
D20*
%TO.C,JP19*%
X117930000Y-83820000D03*
D21*
X119380000Y-83820000D03*
%TD*%
D10*
%TO.C,D10*%
X170180000Y-86360000D03*
D11*
X170180000Y-88900000D03*
%TD*%
D16*
%TO.C,JP32*%
X111760000Y-78740000D03*
D17*
X110310000Y-78740000D03*
%TD*%
D12*
%TO.C,JP14*%
X124460000Y-105590000D03*
D13*
X124460000Y-104140000D03*
%TD*%
D24*
%TO.C,H2*%
X147320000Y-111760000D03*
%TD*%
D20*
%TO.C,JP18*%
X117930000Y-81280000D03*
D21*
X119380000Y-81280000D03*
%TD*%
D18*
%TO.C,JP1*%
X124460000Y-87450000D03*
D19*
X124460000Y-88900000D03*
%TD*%
D12*
%TO.C,JP7*%
X129540000Y-92890000D03*
D13*
X129540000Y-91440000D03*
%TD*%
D10*
%TO.C,D1*%
X137160000Y-81280000D03*
D11*
X137160000Y-78740000D03*
%TD*%
D12*
%TO.C,JP13*%
X121920000Y-105590000D03*
D13*
X121920000Y-104140000D03*
%TD*%
D20*
%TO.C,JP23*%
X117930000Y-93980000D03*
D21*
X119380000Y-93980000D03*
%TD*%
D16*
%TO.C,JP28*%
X111760000Y-88900000D03*
D17*
X110310000Y-88900000D03*
%TD*%
D10*
%TO.C,D16*%
X154940000Y-104140000D03*
D11*
X154940000Y-106680000D03*
%TD*%
D18*
%TO.C,JP4*%
X132080000Y-87450000D03*
D19*
X132080000Y-88900000D03*
%TD*%
D18*
%TO.C,JP11*%
X127000000Y-100150000D03*
D19*
X127000000Y-101600000D03*
%TD*%
D12*
%TO.C,JP16*%
X129540000Y-105590000D03*
D13*
X129540000Y-104140000D03*
%TD*%
D12*
%TO.C,JP15*%
X127000000Y-105590000D03*
D13*
X127000000Y-104140000D03*
%TD*%
D20*
%TO.C,JP21*%
X117930000Y-88900000D03*
D21*
X119380000Y-88900000D03*
%TD*%
D16*
%TO.C,JP25*%
X111760000Y-96520000D03*
D17*
X110310000Y-96520000D03*
%TD*%
D22*
%TO.C,R1*%
X123190000Y-78740000D03*
D23*
X130810000Y-78740000D03*
%TD*%
D10*
%TO.C,D8*%
X154940000Y-86360000D03*
D11*
X154940000Y-88900000D03*
%TD*%
D20*
%TO.C,JP22*%
X117930000Y-91440000D03*
D21*
X119380000Y-91440000D03*
%TD*%
D24*
%TO.C,H1*%
X177800000Y-73660000D03*
%TD*%
D10*
%TO.C,D15*%
X147320000Y-104140000D03*
D11*
X147320000Y-106680000D03*
%TD*%
D18*
%TO.C,JP3*%
X129540000Y-87450000D03*
D19*
X129540000Y-88900000D03*
%TD*%
D10*
%TO.C,D11*%
X147320000Y-99060000D03*
D11*
X147320000Y-96520000D03*
%TD*%
M02*
