M48
; DRILL file {KiCad 7.0.8} date Tue Oct 10 01:17:24 2023
; FORMAT={-:-/ absolute / inch / decimal}
; #@! TF.CreationDate,2023-10-10T01:17:24-07:00
; #@! TF.GenerationSoftware,Kicad,Pcbnew,7.0.8
; #@! TF.FileFunction,MixedPlating,1,2
FMAT,2
INCH
; #@! TA.AperFunction,Plated,PTH,ViaDrill
T1C0.0157
; #@! TA.AperFunction,Plated,PTH,ComponentDrill
T2C0.0276
; #@! TA.AperFunction,Plated,PTH,ComponentDrill
T3C0.0315
; #@! TA.AperFunction,Plated,PTH,ComponentDrill
T4C0.0354
; #@! TA.AperFunction,NonPlated,NPTH,ComponentDrill
T5C0.0984
%
G90
G05
T1
X4.5Y-3.1
X4.5Y-3.2
X4.5Y-3.3
X4.5Y-3.4
X4.5Y-3.5
X4.5Y-3.6
X4.5Y-3.7
X4.5Y-3.8
X5.3Y-3.4
T2
X4.25Y-4.0
X4.55Y-4.0
X4.85Y-3.1
X4.85Y-3.3
X4.9Y-3.8
X5.15Y-3.1
X5.15Y-3.3
X5.2Y-3.8
T3
X4.2913Y-2.9
X4.2913Y-4.4
X4.3701Y-2.9
X4.3701Y-4.4
X4.4488Y-2.9
X4.4488Y-4.4
X4.5276Y-2.9
X4.5276Y-4.4
X4.6063Y-2.9
X4.6063Y-4.4
X4.685Y-2.9
X4.685Y-4.4
X4.7638Y-2.9
X4.7638Y-4.4
X4.8425Y-2.9
X4.8425Y-4.4
X4.9213Y-2.9
X4.9213Y-4.4
X5.0Y-2.9
X5.0Y-4.4
T4
X5.4Y-3.1
X5.4Y-3.2
X5.4Y-3.8
X5.4Y-3.9
X5.8Y-3.1
X5.8Y-3.2
X5.8Y-3.4
X5.8Y-3.5
X5.8Y-3.8
X5.8Y-3.9
X5.8Y-4.1
X5.8Y-4.2
X6.1Y-3.1
X6.1Y-3.2
X6.1Y-3.4
X6.1Y-3.5
X6.1Y-3.8
X6.1Y-3.9
X6.1Y-4.1
X6.1Y-4.2
X6.4Y-3.1
X6.4Y-3.2
X6.4Y-3.4
X6.4Y-3.5
X6.4Y-3.8
X6.4Y-3.9
X6.4Y-4.1
X6.4Y-4.2
X6.7Y-3.1
X6.7Y-3.2
X6.7Y-3.4
X6.7Y-3.5
X6.7Y-3.8
X6.7Y-3.9
X6.7Y-4.1
X6.7Y-4.2
T5
X5.8Y-4.4
X7.0Y-2.9
T0
M30
