%TF.GenerationSoftware,KiCad,Pcbnew,7.0.7*%
%TF.CreationDate,2023-09-23T02:03:23-07:00*%
%TF.ProjectId,htpm_modcore,6874706d-5f6d-46f6-9463-6f72652e6b69,01*%
%TF.SameCoordinates,Original*%
%TF.FileFunction,Copper,L2,Bot*%
%TF.FilePolarity,Positive*%
%FSLAX46Y46*%
G04 Gerber Fmt 4.6, Leading zero omitted, Abs format (unit mm)*
G04 Created by KiCad (PCBNEW 7.0.7) date 2023-09-23 02:03:23*
%MOMM*%
%LPD*%
G01*
G04 APERTURE LIST*
%TA.AperFunction,ComponentPad*%
%ADD10R,1.350000X1.350000*%
%TD*%
%TA.AperFunction,ComponentPad*%
%ADD11O,1.350000X1.350000*%
%TD*%
%TA.AperFunction,ComponentPad*%
%ADD12C,1.400000*%
%TD*%
%TA.AperFunction,ComponentPad*%
%ADD13O,1.400000X1.400000*%
%TD*%
%TA.AperFunction,ComponentPad*%
%ADD14R,1.700000X1.700000*%
%TD*%
%TA.AperFunction,ComponentPad*%
%ADD15O,1.700000X1.700000*%
%TD*%
%TA.AperFunction,ComponentPad*%
%ADD16R,1.905000X2.000000*%
%TD*%
%TA.AperFunction,ComponentPad*%
%ADD17O,1.905000X2.000000*%
%TD*%
%TA.AperFunction,ComponentPad*%
%ADD18C,1.600000*%
%TD*%
%TA.AperFunction,ComponentPad*%
%ADD19R,1.200000X1.200000*%
%TD*%
%TA.AperFunction,ComponentPad*%
%ADD20C,1.200000*%
%TD*%
%TA.AperFunction,ComponentPad*%
%ADD21R,1.600000X1.600000*%
%TD*%
%TA.AperFunction,ComponentPad*%
%ADD22O,1.600000X1.600000*%
%TD*%
%TA.AperFunction,ComponentPad*%
%ADD23C,1.500000*%
%TD*%
%TA.AperFunction,ViaPad*%
%ADD24C,0.800000*%
%TD*%
%TA.AperFunction,Conductor*%
%ADD25C,0.250000*%
%TD*%
G04 APERTURE END LIST*
D10*
%TO.P,J4,1,Pin_1*%
%TO.N,Net-(J1-Pin_1)*%
X172720000Y-114300000D03*
D11*
%TO.P,J4,2,Pin_2*%
%TO.N,Net-(J1-Pin_2)*%
X170720000Y-114300000D03*
%TO.P,J4,3,Pin_3*%
%TO.N,Net-(J1-Pin_3)*%
X168720000Y-114300000D03*
%TO.P,J4,4,Pin_4*%
%TO.N,Net-(J1-Pin_4)*%
X166720000Y-114300000D03*
%TO.P,J4,5,Pin_5*%
%TO.N,GND*%
X164720000Y-114300000D03*
%TO.P,J4,6,Pin_6*%
%TO.N,Net-(J1-Pin_6)*%
X162720000Y-114300000D03*
%TD*%
D10*
%TO.P,J3,1,Pin_1*%
%TO.N,Net-(J1-Pin_1)*%
X200660000Y-96520000D03*
D11*
%TO.P,J3,2,Pin_2*%
%TO.N,Net-(J1-Pin_2)*%
X200660000Y-94520000D03*
%TO.P,J3,3,Pin_3*%
%TO.N,Net-(J1-Pin_3)*%
X200660000Y-92520000D03*
%TO.P,J3,4,Pin_4*%
%TO.N,Net-(J1-Pin_4)*%
X200660000Y-90520000D03*
%TO.P,J3,5,Pin_5*%
%TO.N,GND*%
X200660000Y-88520000D03*
%TO.P,J3,6,Pin_6*%
%TO.N,Net-(J1-Pin_6)*%
X200660000Y-86520000D03*
%TD*%
D10*
%TO.P,J2,1,Pin_1*%
%TO.N,Net-(J1-Pin_1)*%
X139700000Y-25400000D03*
D11*
%TO.P,J2,2,Pin_2*%
%TO.N,Net-(J1-Pin_2)*%
X141700000Y-25400000D03*
%TO.P,J2,3,Pin_3*%
%TO.N,Net-(J1-Pin_3)*%
X143700000Y-25400000D03*
%TO.P,J2,4,Pin_4*%
%TO.N,Net-(J1-Pin_4)*%
X145700000Y-25400000D03*
%TO.P,J2,5,Pin_5*%
%TO.N,GND*%
X147700000Y-25400000D03*
%TO.P,J2,6,Pin_6*%
%TO.N,Net-(J1-Pin_6)*%
X149700000Y-25400000D03*
%TD*%
D10*
%TO.P,J1,1,Pin_1*%
%TO.N,Net-(J1-Pin_1)*%
X111760000Y-43180000D03*
D11*
%TO.P,J1,2,Pin_2*%
%TO.N,Net-(J1-Pin_2)*%
X111760000Y-45180000D03*
%TO.P,J1,3,Pin_3*%
%TO.N,Net-(J1-Pin_3)*%
X111760000Y-47180000D03*
%TO.P,J1,4,Pin_4*%
%TO.N,Net-(J1-Pin_4)*%
X111760000Y-49180000D03*
%TO.P,J1,5,Pin_5*%
%TO.N,GND*%
X111760000Y-51180000D03*
%TO.P,J1,6,Pin_6*%
%TO.N,Net-(J1-Pin_6)*%
X111760000Y-53180000D03*
%TD*%
D12*
%TO.P,R15,1*%
%TO.N,Net-(U4-QF)*%
X116840000Y-37465000D03*
D13*
%TO.P,R15,2*%
%TO.N,Net-(J10-Pin_3)*%
X116840000Y-29845000D03*
%TD*%
D12*
%TO.P,R2,1*%
%TO.N,Net-(U3-QA)*%
X188595000Y-27940000D03*
D13*
%TO.P,R2,2*%
%TO.N,Net-(J7-Pin_4)*%
X196215000Y-27940000D03*
%TD*%
D14*
%TO.P,J9,1,Pin_1*%
%TO.N,Net-(J9-Pin_1)*%
X111760000Y-104140000D03*
D15*
%TO.P,J9,2,Pin_2*%
%TO.N,Net-(J9-Pin_2)*%
X111760000Y-106680000D03*
%TO.P,J9,3,Pin_3*%
%TO.N,Net-(J9-Pin_3)*%
X111760000Y-109220000D03*
%TO.P,J9,4,Pin_4*%
%TO.N,Net-(J9-Pin_4)*%
X111760000Y-111760000D03*
%TD*%
D12*
%TO.P,R8,1*%
%TO.N,Net-(U3-QG)*%
X193040000Y-101600000D03*
D13*
%TO.P,R8,2*%
%TO.N,Net-(J8-Pin_2)*%
X193040000Y-109220000D03*
%TD*%
D12*
%TO.P,R12,1*%
%TO.N,Net-(U4-QC)*%
X123190000Y-106680000D03*
D13*
%TO.P,R12,2*%
%TO.N,Net-(J9-Pin_2)*%
X115570000Y-106680000D03*
%TD*%
D16*
%TO.P,U1,1,IN*%
%TO.N,Net-(J1-Pin_6)*%
X142240000Y-104140000D03*
D17*
%TO.P,U1,2,GND*%
%TO.N,GND*%
X144780000Y-104140000D03*
%TO.P,U1,3,OUT*%
%TO.N,Net-(U1-OUT)*%
X147320000Y-104140000D03*
%TD*%
D14*
%TO.P,J8,1,Pin_1*%
%TO.N,Net-(J8-Pin_1)*%
X190500000Y-113030000D03*
D15*
%TO.P,J8,2,Pin_2*%
%TO.N,Net-(J8-Pin_2)*%
X193040000Y-113030000D03*
%TO.P,J8,3,Pin_3*%
%TO.N,Net-(J8-Pin_3)*%
X195580000Y-113030000D03*
%TO.P,J8,4,Pin_4*%
%TO.N,Net-(J8-Pin_4)*%
X198120000Y-113030000D03*
%TD*%
D12*
%TO.P,R7,1*%
%TO.N,Net-(U3-QF)*%
X195580000Y-101600000D03*
D13*
%TO.P,R7,2*%
%TO.N,Net-(J8-Pin_3)*%
X195580000Y-109220000D03*
%TD*%
D12*
%TO.P,R6,1*%
%TO.N,Net-(U3-QE)*%
X198120000Y-101600000D03*
D13*
%TO.P,R6,2*%
%TO.N,Net-(J8-Pin_4)*%
X198120000Y-109220000D03*
%TD*%
D12*
%TO.P,R16,1*%
%TO.N,Net-(U4-QG)*%
X119380000Y-37465000D03*
D13*
%TO.P,R16,2*%
%TO.N,Net-(J10-Pin_2)*%
X119380000Y-29845000D03*
%TD*%
D14*
%TO.P,J13,1,Pin_1*%
%TO.N,GND*%
X111760000Y-99060000D03*
D15*
%TO.P,J13,2,Pin_2*%
X111760000Y-96520000D03*
%TO.P,J13,3,Pin_3*%
X111760000Y-93980000D03*
%TO.P,J13,4,Pin_4*%
X111760000Y-91440000D03*
%TD*%
D18*
%TO.P,C2,1*%
%TO.N,Net-(U2-XTAL2{slash}PB7)*%
X140960000Y-78740000D03*
%TO.P,C2,2*%
%TO.N,GND*%
X138460000Y-78740000D03*
%TD*%
D12*
%TO.P,R1,1*%
%TO.N,Net-(U1-OUT)*%
X148580000Y-60960000D03*
D13*
%TO.P,R1,2*%
%TO.N,Net-(U2-~{RESET}{slash}PC6)*%
X148580000Y-53340000D03*
%TD*%
D19*
%TO.P,C5,1*%
%TO.N,Net-(U1-OUT)*%
X112460000Y-83610000D03*
D20*
%TO.P,C5,2*%
%TO.N,GND*%
X112460000Y-81610000D03*
%TD*%
D19*
%TO.P,C4,1*%
%TO.N,Net-(U1-OUT)*%
X199960000Y-56090000D03*
D20*
%TO.P,C4,2*%
%TO.N,GND*%
X199960000Y-58090000D03*
%TD*%
D21*
%TO.P,U2,1,~{RESET}/PC6*%
%TO.N,Net-(U2-~{RESET}{slash}PC6)*%
X152400000Y-53340000D03*
D22*
%TO.P,U2,2,PD0*%
%TO.N,Net-(J6-Pin_1)*%
X152400000Y-55880000D03*
%TO.P,U2,3,PD1*%
%TO.N,Net-(J6-Pin_2)*%
X152400000Y-58420000D03*
%TO.P,U2,4,PD2*%
%TO.N,Net-(U2-PD2)*%
X152400000Y-60960000D03*
%TO.P,U2,5,PD3*%
%TO.N,Net-(U2-PD3)*%
X152400000Y-63500000D03*
%TO.P,U2,6,PD4*%
%TO.N,Net-(U2-PD4)*%
X152400000Y-66040000D03*
%TO.P,U2,7,VCC*%
%TO.N,Net-(U1-OUT)*%
X152400000Y-68580000D03*
%TO.P,U2,8,GND*%
%TO.N,GND*%
X152400000Y-71120000D03*
%TO.P,U2,9,XTAL1/PB6*%
%TO.N,Net-(U2-XTAL1{slash}PB6)*%
X152400000Y-73660000D03*
%TO.P,U2,10,XTAL2/PB7*%
%TO.N,Net-(U2-XTAL2{slash}PB7)*%
X152400000Y-76200000D03*
%TO.P,U2,11,PD5*%
%TO.N,Net-(J6-Pin_12)*%
X152400000Y-78740000D03*
%TO.P,U2,12,PD6*%
%TO.N,Net-(J6-Pin_13)*%
X152400000Y-81280000D03*
%TO.P,U2,13,PD7*%
%TO.N,Net-(J6-Pin_14)*%
X152400000Y-83820000D03*
%TO.P,U2,14,PB0*%
%TO.N,Net-(J6-Pin_15)*%
X152400000Y-86360000D03*
%TO.P,U2,15,PB1*%
%TO.N,Net-(J6-Pin_11)*%
X160020000Y-86360000D03*
%TO.P,U2,16,PB2*%
%TO.N,Net-(J6-Pin_10)*%
X160020000Y-83820000D03*
%TO.P,U2,17,PB3*%
%TO.N,Net-(J6-Pin_9)*%
X160020000Y-81280000D03*
%TO.P,U2,18,PB4*%
%TO.N,Net-(J6-Pin_8)*%
X160020000Y-78740000D03*
%TO.P,U2,19,PB5*%
%TO.N,Net-(J6-Pin_7)*%
X160020000Y-76200000D03*
%TO.P,U2,20,AVCC*%
%TO.N,Net-(U1-OUT)*%
X160020000Y-73660000D03*
%TO.P,U2,21,AREF*%
%TO.N,unconnected-(U2-AREF-Pad21)*%
X160020000Y-71120000D03*
%TO.P,U2,22,GND*%
%TO.N,GND*%
X160020000Y-68580000D03*
%TO.P,U2,23,PC0*%
%TO.N,Net-(J6-Pin_6)*%
X160020000Y-66040000D03*
%TO.P,U2,24,PC1*%
%TO.N,Net-(J6-Pin_5)*%
X160020000Y-63500000D03*
%TO.P,U2,25,PC2*%
%TO.N,Net-(J6-Pin_4)*%
X160020000Y-60960000D03*
%TO.P,U2,26,PC3*%
%TO.N,Net-(J6-Pin_3)*%
X160020000Y-58420000D03*
%TO.P,U2,27,PC4*%
%TO.N,Net-(J1-Pin_4)*%
X160020000Y-55880000D03*
%TO.P,U2,28,PC5*%
%TO.N,Net-(J1-Pin_3)*%
X160020000Y-53340000D03*
%TD*%
D12*
%TO.P,R11,1*%
%TO.N,Net-(U4-QB)*%
X123190000Y-109220000D03*
D13*
%TO.P,R11,2*%
%TO.N,Net-(J9-Pin_3)*%
X115570000Y-109220000D03*
%TD*%
D14*
%TO.P,J6,1,Pin_1*%
%TO.N,Net-(J6-Pin_1)*%
X175260000Y-50800000D03*
D15*
%TO.P,J6,2,Pin_2*%
%TO.N,Net-(J6-Pin_2)*%
X175260000Y-53340000D03*
%TO.P,J6,3,Pin_3*%
%TO.N,Net-(J6-Pin_3)*%
X175260000Y-55880000D03*
%TO.P,J6,4,Pin_4*%
%TO.N,Net-(J6-Pin_4)*%
X175260000Y-58420000D03*
%TO.P,J6,5,Pin_5*%
%TO.N,Net-(J6-Pin_5)*%
X175260000Y-60960000D03*
%TO.P,J6,6,Pin_6*%
%TO.N,Net-(J6-Pin_6)*%
X175260000Y-63500000D03*
%TO.P,J6,7,Pin_7*%
%TO.N,Net-(J6-Pin_7)*%
X175260000Y-66040000D03*
%TO.P,J6,8,Pin_8*%
%TO.N,Net-(J6-Pin_8)*%
X175260000Y-68580000D03*
%TO.P,J6,9,Pin_9*%
%TO.N,Net-(J6-Pin_9)*%
X175260000Y-71120000D03*
%TO.P,J6,10,Pin_10*%
%TO.N,Net-(J6-Pin_10)*%
X175260000Y-73660000D03*
%TO.P,J6,11,Pin_11*%
%TO.N,Net-(J6-Pin_11)*%
X175260000Y-76200000D03*
%TO.P,J6,12,Pin_12*%
%TO.N,Net-(J6-Pin_12)*%
X175260000Y-78740000D03*
%TO.P,J6,13,Pin_13*%
%TO.N,Net-(J6-Pin_13)*%
X175260000Y-81280000D03*
%TO.P,J6,14,Pin_14*%
%TO.N,Net-(J6-Pin_14)*%
X175260000Y-83820000D03*
%TO.P,J6,15,Pin_15*%
%TO.N,Net-(J6-Pin_15)*%
X175260000Y-86360000D03*
%TD*%
D12*
%TO.P,R5,1*%
%TO.N,Net-(U3-QD)*%
X188595000Y-35560000D03*
D13*
%TO.P,R5,2*%
%TO.N,Net-(J7-Pin_1)*%
X196215000Y-35560000D03*
%TD*%
D14*
%TO.P,J7,1,Pin_1*%
%TO.N,Net-(J7-Pin_1)*%
X200025000Y-35560000D03*
D15*
%TO.P,J7,2,Pin_2*%
%TO.N,Net-(J7-Pin_2)*%
X200025000Y-33020000D03*
%TO.P,J7,3,Pin_3*%
%TO.N,Net-(J7-Pin_3)*%
X200025000Y-30480000D03*
%TO.P,J7,4,Pin_4*%
%TO.N,Net-(J7-Pin_4)*%
X200025000Y-27940000D03*
%TD*%
D14*
%TO.P,J12,1,Pin_1*%
%TO.N,GND*%
X185420000Y-113030000D03*
D15*
%TO.P,J12,2,Pin_2*%
X182880000Y-113030000D03*
%TO.P,J12,3,Pin_3*%
X180340000Y-113030000D03*
%TO.P,J12,4,Pin_4*%
X177800000Y-113030000D03*
%TD*%
D21*
%TO.P,U4,1,QB*%
%TO.N,Net-(U4-QB)*%
X125160000Y-83610000D03*
D22*
%TO.P,U4,2,QC*%
%TO.N,Net-(U4-QC)*%
X125160000Y-81070000D03*
%TO.P,U4,3,QD*%
%TO.N,Net-(U4-QD)*%
X125160000Y-78530000D03*
%TO.P,U4,4,QE*%
%TO.N,Net-(U4-QE)*%
X125160000Y-75990000D03*
%TO.P,U4,5,QF*%
%TO.N,Net-(U4-QF)*%
X125160000Y-73450000D03*
%TO.P,U4,6,QG*%
%TO.N,Net-(U4-QG)*%
X125160000Y-70910000D03*
%TO.P,U4,7,QH*%
%TO.N,Net-(U4-QH)*%
X125160000Y-68370000D03*
%TO.P,U4,8,GND*%
%TO.N,GND*%
X125160000Y-65830000D03*
%TO.P,U4,9,QH'*%
%TO.N,unconnected-(U4-QH'-Pad9)*%
X117540000Y-65830000D03*
%TO.P,U4,10,~{SRCLR}*%
%TO.N,Net-(U1-OUT)*%
X117540000Y-68370000D03*
%TO.P,U4,11,SRCLK*%
%TO.N,Net-(U2-PD4)*%
X117540000Y-70910000D03*
%TO.P,U4,12,RCLK*%
%TO.N,Net-(U2-PD3)*%
X117540000Y-73450000D03*
%TO.P,U4,13,~{OE}*%
%TO.N,GND*%
X117540000Y-75990000D03*
%TO.P,U4,14,SER*%
%TO.N,Net-(U3-QH')*%
X117540000Y-78530000D03*
%TO.P,U4,15,QA*%
%TO.N,Net-(U4-QA)*%
X117540000Y-81070000D03*
%TO.P,U4,16,VCC*%
%TO.N,Net-(U1-OUT)*%
X117540000Y-83610000D03*
%TD*%
D12*
%TO.P,R14,1*%
%TO.N,Net-(U4-QE)*%
X114300000Y-37465000D03*
D13*
%TO.P,R14,2*%
%TO.N,Net-(J10-Pin_4)*%
X114300000Y-29845000D03*
%TD*%
D12*
%TO.P,R3,1*%
%TO.N,Net-(U3-QB)*%
X188595000Y-30480000D03*
D13*
%TO.P,R3,2*%
%TO.N,Net-(J7-Pin_3)*%
X196215000Y-30480000D03*
%TD*%
D18*
%TO.P,C1,1*%
%TO.N,GND*%
X138420000Y-73660000D03*
%TO.P,C1,2*%
%TO.N,Net-(U2-XTAL1{slash}PB6)*%
X140920000Y-73660000D03*
%TD*%
D12*
%TO.P,R10,1*%
%TO.N,Net-(U4-QA)*%
X123190000Y-111760000D03*
D13*
%TO.P,R10,2*%
%TO.N,Net-(J9-Pin_4)*%
X115570000Y-111760000D03*
%TD*%
D14*
%TO.P,J14,1,Pin_1*%
%TO.N,GND*%
X127000000Y-26035000D03*
D15*
%TO.P,J14,2,Pin_2*%
X129540000Y-26035000D03*
%TO.P,J14,3,Pin_3*%
X132080000Y-26035000D03*
%TO.P,J14,4,Pin_4*%
X134620000Y-26035000D03*
%TD*%
D12*
%TO.P,R17,1*%
%TO.N,Net-(U4-QH)*%
X121920000Y-37465000D03*
D13*
%TO.P,R17,2*%
%TO.N,Net-(J10-Pin_1)*%
X121920000Y-29845000D03*
%TD*%
D12*
%TO.P,R9,1*%
%TO.N,Net-(U3-QH)*%
X190500000Y-101600000D03*
D13*
%TO.P,R9,2*%
%TO.N,Net-(J8-Pin_1)*%
X190500000Y-109220000D03*
%TD*%
D12*
%TO.P,R4,1*%
%TO.N,Net-(U3-QC)*%
X188595000Y-33020000D03*
D13*
%TO.P,R4,2*%
%TO.N,Net-(J7-Pin_2)*%
X196215000Y-33020000D03*
%TD*%
D10*
%TO.P,J5,1,Pin_1*%
%TO.N,Net-(J1-Pin_1)*%
X165100000Y-25400000D03*
D11*
%TO.P,J5,2,Pin_2*%
%TO.N,Net-(J1-Pin_2)*%
X163100000Y-25400000D03*
%TD*%
D14*
%TO.P,J10,1,Pin_1*%
%TO.N,Net-(J10-Pin_1)*%
X121920000Y-26035000D03*
D15*
%TO.P,J10,2,Pin_2*%
%TO.N,Net-(J10-Pin_2)*%
X119380000Y-26035000D03*
%TO.P,J10,3,Pin_3*%
%TO.N,Net-(J10-Pin_3)*%
X116840000Y-26035000D03*
%TO.P,J10,4,Pin_4*%
%TO.N,Net-(J10-Pin_4)*%
X114300000Y-26035000D03*
%TD*%
D19*
%TO.P,C3,1*%
%TO.N,Net-(U1-OUT)*%
X166360000Y-70580000D03*
D20*
%TO.P,C3,2*%
%TO.N,GND*%
X166360000Y-68580000D03*
%TD*%
D12*
%TO.P,R13,1*%
%TO.N,Net-(U4-QD)*%
X123190000Y-104140000D03*
D13*
%TO.P,R13,2*%
%TO.N,Net-(J9-Pin_1)*%
X115570000Y-104140000D03*
%TD*%
D23*
%TO.P,Y1,1,1*%
%TO.N,Net-(U2-XTAL2{slash}PB7)*%
X146040000Y-78540000D03*
%TO.P,Y1,2,2*%
%TO.N,Net-(U2-XTAL1{slash}PB6)*%
X146040000Y-73660000D03*
%TD*%
D21*
%TO.P,U3,1,QB*%
%TO.N,Net-(U3-QB)*%
X187260000Y-56090000D03*
D22*
%TO.P,U3,2,QC*%
%TO.N,Net-(U3-QC)*%
X187260000Y-58630000D03*
%TO.P,U3,3,QD*%
%TO.N,Net-(U3-QD)*%
X187260000Y-61170000D03*
%TO.P,U3,4,QE*%
%TO.N,Net-(U3-QE)*%
X187260000Y-63710000D03*
%TO.P,U3,5,QF*%
%TO.N,Net-(U3-QF)*%
X187260000Y-66250000D03*
%TO.P,U3,6,QG*%
%TO.N,Net-(U3-QG)*%
X187260000Y-68790000D03*
%TO.P,U3,7,QH*%
%TO.N,Net-(U3-QH)*%
X187260000Y-71330000D03*
%TO.P,U3,8,GND*%
%TO.N,GND*%
X187260000Y-73870000D03*
%TO.P,U3,9,QH'*%
%TO.N,Net-(U3-QH')*%
X194880000Y-73870000D03*
%TO.P,U3,10,~{SRCLR}*%
%TO.N,Net-(U1-OUT)*%
X194880000Y-71330000D03*
%TO.P,U3,11,SRCLK*%
%TO.N,Net-(U2-PD4)*%
X194880000Y-68790000D03*
%TO.P,U3,12,RCLK*%
%TO.N,Net-(U2-PD3)*%
X194880000Y-66250000D03*
%TO.P,U3,13,~{OE}*%
%TO.N,GND*%
X194880000Y-63710000D03*
%TO.P,U3,14,SER*%
%TO.N,Net-(U2-PD2)*%
X194880000Y-61170000D03*
%TO.P,U3,15,QA*%
%TO.N,Net-(U3-QA)*%
X194880000Y-58630000D03*
%TO.P,U3,16,VCC*%
%TO.N,Net-(U1-OUT)*%
X194880000Y-56090000D03*
%TD*%
D14*
%TO.P,J11,1,Pin_1*%
%TO.N,GND*%
X200025000Y-40640000D03*
D15*
%TO.P,J11,2,Pin_2*%
X200025000Y-43180000D03*
%TO.P,J11,3,Pin_3*%
X200025000Y-45720000D03*
%TO.P,J11,4,Pin_4*%
X200025000Y-48260000D03*
%TD*%
D24*
%TO.N,Net-(J1-Pin_2)*%
X187960000Y-97028000D03*
%TO.N,GND*%
X188468000Y-90678000D03*
%TO.N,Net-(J1-Pin_4)*%
X178562000Y-102616000D03*
X170180000Y-93980000D03*
%TO.N,GND*%
X170180000Y-30480000D03*
X132080000Y-66040000D03*
X154940000Y-38100000D03*
%TO.N,Net-(U1-OUT)*%
X185420000Y-45720000D03*
X137160000Y-63500000D03*
X154940000Y-40640000D03*
%TO.N,Net-(J1-Pin_1)*%
X111760000Y-116840000D03*
%TO.N,Net-(J1-Pin_2)*%
X185420000Y-48260000D03*
%TO.N,Net-(J1-Pin_3)*%
X154940000Y-35560000D03*
X167640000Y-50800000D03*
X167640000Y-35560000D03*
%TO.N,Net-(J1-Pin_4)*%
X170180000Y-50800000D03*
%TO.N,Net-(J1-Pin_6)*%
X124460000Y-50800000D03*
%TO.N,Net-(U2-PD2)*%
X198120000Y-68580000D03*
%TO.N,Net-(U2-PD3)*%
X144780000Y-63500000D03*
%TO.N,Net-(U2-PD4)*%
X144780000Y-66040000D03*
X203200000Y-73660000D03*
%TO.N,Net-(U3-QH')*%
X144780000Y-109220000D03*
X121920000Y-81280000D03*
X203200000Y-78740000D03*
%TD*%
D25*
%TO.N,Net-(J1-Pin_1)*%
X170180000Y-116840000D02*
X172720000Y-114300000D01*
%TO.N,Net-(J1-Pin_2)*%
X185420000Y-48260000D02*
X182880000Y-50800000D01*
X182880000Y-50800000D02*
X182880000Y-91948000D01*
X182880000Y-91948000D02*
X187960000Y-97028000D01*
%TO.N,GND*%
X187260000Y-73870000D02*
X187260000Y-89470000D01*
X187260000Y-89470000D02*
X188468000Y-90678000D01*
%TO.N,Net-(J1-Pin_4)*%
X170180000Y-93980000D02*
X178562000Y-102362000D01*
X178562000Y-102362000D02*
X178562000Y-102616000D01*
%TO.N,Net-(J1-Pin_3)*%
X167640000Y-35560000D02*
X170180000Y-38100000D01*
X170180000Y-38100000D02*
X180340000Y-38100000D01*
X180340000Y-38100000D02*
X193040000Y-50800000D01*
X193040000Y-50800000D02*
X198120000Y-50800000D01*
X198120000Y-50800000D02*
X203200000Y-55880000D01*
X203200000Y-55880000D02*
X203200000Y-58420000D01*
X203200000Y-58420000D02*
X203925000Y-59145000D01*
X203925000Y-59145000D02*
X203925000Y-89255000D01*
X203925000Y-89255000D02*
X200660000Y-92520000D01*
%TO.N,GND*%
X111760000Y-99060000D02*
X124460000Y-99060000D01*
X127000000Y-109220000D02*
X129540000Y-111760000D01*
X124460000Y-99060000D02*
X127000000Y-101600000D01*
X129540000Y-111760000D02*
X162180000Y-111760000D01*
X162180000Y-111760000D02*
X164720000Y-114300000D01*
X127000000Y-101600000D02*
X127000000Y-109220000D01*
%TO.N,Net-(J1-Pin_4)*%
X160020000Y-38100000D02*
X154940000Y-33020000D01*
X167640000Y-38100000D02*
X160020000Y-38100000D01*
X154940000Y-33020000D02*
X153320000Y-33020000D01*
X153320000Y-33020000D02*
X145700000Y-25400000D01*
%TO.N,Net-(J1-Pin_1)*%
X142240000Y-22860000D02*
X139700000Y-25400000D01*
%TO.N,Net-(J1-Pin_2)*%
X143790000Y-23310000D02*
X141700000Y-25400000D01*
%TO.N,Net-(J1-Pin_3)*%
X153860000Y-35560000D02*
X143700000Y-25400000D01*
%TO.N,GND*%
X152780000Y-30480000D02*
X147700000Y-25400000D01*
X170180000Y-30480000D02*
X152780000Y-30480000D01*
%TO.N,Net-(J1-Pin_2)*%
X163100000Y-25400000D02*
X160020000Y-25400000D01*
X160020000Y-25400000D02*
X157930000Y-23310000D01*
X157930000Y-23310000D02*
X143790000Y-23310000D01*
%TO.N,Net-(J1-Pin_3)*%
X154940000Y-35560000D02*
X153860000Y-35560000D01*
%TO.N,Net-(J1-Pin_6)*%
X124460000Y-50800000D02*
X129540000Y-55880000D01*
X129540000Y-55880000D02*
X129540000Y-96520000D01*
X129540000Y-96520000D02*
X137160000Y-104140000D01*
X137160000Y-104140000D02*
X142240000Y-104140000D01*
%TO.N,GND*%
X129540000Y-26035000D02*
X132080000Y-26035000D01*
X187960000Y-40640000D02*
X200025000Y-40640000D01*
X170180000Y-30480000D02*
X182880000Y-30480000D01*
X127000000Y-26035000D02*
X129540000Y-26035000D01*
X132080000Y-91440000D02*
X132080000Y-66040000D01*
X132080000Y-53340000D02*
X147320000Y-38100000D01*
X200025000Y-40640000D02*
X200025000Y-43180000D01*
X180340000Y-113030000D02*
X177800000Y-113030000D01*
X111760000Y-93980000D02*
X111760000Y-91440000D01*
X182880000Y-113030000D02*
X180340000Y-113030000D01*
X111760000Y-96520000D02*
X111760000Y-93980000D01*
X153660000Y-71120000D02*
X156200000Y-68580000D01*
X152400000Y-71120000D02*
X153660000Y-71120000D01*
X132080000Y-66040000D02*
X132080000Y-53340000D01*
X185420000Y-113030000D02*
X182880000Y-113030000D01*
X200025000Y-45720000D02*
X200025000Y-48260000D01*
X200025000Y-43180000D02*
X200025000Y-45720000D01*
X185420000Y-38100000D02*
X187960000Y-40640000D01*
X156200000Y-68580000D02*
X160020000Y-68580000D01*
X132080000Y-26035000D02*
X134620000Y-26035000D01*
X185420000Y-33020000D02*
X185420000Y-38100000D01*
X147320000Y-38100000D02*
X154940000Y-38100000D01*
X111760000Y-99060000D02*
X111760000Y-96520000D01*
X144780000Y-104140000D02*
X132080000Y-91440000D01*
X182880000Y-30480000D02*
X185420000Y-33020000D01*
%TO.N,Net-(U2-XTAL1{slash}PB6)*%
X146040000Y-73660000D02*
X140920000Y-73660000D01*
X152400000Y-73660000D02*
X146040000Y-73660000D01*
%TO.N,Net-(U2-XTAL2{slash}PB7)*%
X146040000Y-78540000D02*
X141160000Y-78540000D01*
X151120000Y-76200000D02*
X148780000Y-78540000D01*
X141160000Y-78540000D02*
X140960000Y-78740000D01*
X148780000Y-78540000D02*
X146040000Y-78540000D01*
X152400000Y-76200000D02*
X151120000Y-76200000D01*
%TO.N,Net-(U1-OUT)*%
X199960000Y-55180000D02*
X199960000Y-56090000D01*
X137160000Y-68580000D02*
X137160000Y-66040000D01*
X194880000Y-56090000D02*
X192340000Y-58630000D01*
X117540000Y-83610000D02*
X120080000Y-81070000D01*
X147320000Y-99060000D02*
X144780000Y-96520000D01*
X144780000Y-96520000D02*
X134620000Y-86360000D01*
X192340000Y-68790000D02*
X194880000Y-71330000D01*
X134620000Y-71120000D02*
X137160000Y-68580000D01*
X192340000Y-58630000D02*
X192340000Y-68790000D01*
X193040000Y-53340000D02*
X198120000Y-53340000D01*
X120080000Y-81070000D02*
X120080000Y-70910000D01*
X137160000Y-53340000D02*
X149860000Y-40640000D01*
X147320000Y-104140000D02*
X147320000Y-99060000D01*
X120080000Y-70910000D02*
X117540000Y-68370000D01*
X137160000Y-63500000D02*
X137160000Y-53340000D01*
X198120000Y-53340000D02*
X199960000Y-55180000D01*
X137160000Y-66040000D02*
X137160000Y-63500000D01*
X149860000Y-40640000D02*
X154940000Y-40640000D01*
X185420000Y-45720000D02*
X193040000Y-53340000D01*
X134620000Y-86360000D02*
X134620000Y-71120000D01*
%TO.N,Net-(J1-Pin_1)*%
X142240000Y-22860000D02*
X162560000Y-22860000D01*
X162560000Y-22860000D02*
X165100000Y-25400000D01*
X111760000Y-116840000D02*
X170180000Y-116840000D01*
%TO.N,Net-(J1-Pin_3)*%
X167640000Y-43180000D02*
X167640000Y-50800000D01*
X165100000Y-40640000D02*
X167640000Y-43180000D01*
X154940000Y-35560000D02*
X160020000Y-40640000D01*
X160020000Y-40640000D02*
X165100000Y-40640000D01*
%TO.N,Net-(J1-Pin_4)*%
X167640000Y-38100000D02*
X170180000Y-40640000D01*
X170180000Y-40640000D02*
X170180000Y-50800000D01*
%TO.N,Net-(J6-Pin_1)*%
X160656396Y-50800000D02*
X165286396Y-55430000D01*
X174623604Y-50800000D02*
X175260000Y-50800000D01*
X157480000Y-50800000D02*
X160656396Y-50800000D01*
X152400000Y-55880000D02*
X157480000Y-50800000D01*
X165286396Y-55430000D02*
X169993604Y-55430000D01*
X169993604Y-55430000D02*
X174623604Y-50800000D01*
%TO.N,Net-(J6-Pin_2)*%
X160470000Y-51250000D02*
X165100000Y-55880000D01*
X157666396Y-51250000D02*
X160470000Y-51250000D01*
X172720000Y-53340000D02*
X175260000Y-53340000D01*
X170180000Y-55880000D02*
X172720000Y-53340000D01*
X152400000Y-58420000D02*
X155258198Y-55561802D01*
X155258198Y-55561802D02*
X155258198Y-53658198D01*
X165100000Y-55880000D02*
X170180000Y-55880000D01*
X155258198Y-53658198D02*
X157666396Y-51250000D01*
%TO.N,Net-(J6-Pin_3)*%
X172720000Y-58420000D02*
X175260000Y-55880000D01*
X160020000Y-58420000D02*
X172720000Y-58420000D01*
%TO.N,Net-(J6-Pin_4)*%
X160020000Y-60960000D02*
X172720000Y-60960000D01*
X172720000Y-60960000D02*
X175260000Y-58420000D01*
%TO.N,Net-(J6-Pin_5)*%
X160020000Y-63500000D02*
X172720000Y-63500000D01*
X172720000Y-63500000D02*
X175260000Y-60960000D01*
%TO.N,Net-(J6-Pin_6)*%
X172720000Y-66040000D02*
X175260000Y-63500000D01*
X160020000Y-66040000D02*
X172720000Y-66040000D01*
%TO.N,Net-(J6-Pin_7)*%
X165100000Y-76200000D02*
X175260000Y-66040000D01*
X160020000Y-76200000D02*
X165100000Y-76200000D01*
%TO.N,Net-(J6-Pin_8)*%
X160020000Y-78740000D02*
X165100000Y-78740000D01*
X165100000Y-78740000D02*
X175260000Y-68580000D01*
%TO.N,Net-(J6-Pin_9)*%
X160020000Y-81280000D02*
X165100000Y-81280000D01*
X165100000Y-81280000D02*
X175260000Y-71120000D01*
%TO.N,Net-(J6-Pin_10)*%
X165100000Y-83820000D02*
X175260000Y-73660000D01*
X160020000Y-83820000D02*
X165100000Y-83820000D01*
%TO.N,Net-(J6-Pin_11)*%
X160020000Y-86360000D02*
X165100000Y-86360000D01*
X165100000Y-86360000D02*
X175260000Y-76200000D01*
%TO.N,Net-(J6-Pin_12)*%
X152400000Y-78740000D02*
X154940000Y-78740000D01*
X160020000Y-88900000D02*
X165100000Y-88900000D01*
X165100000Y-88900000D02*
X175260000Y-78740000D01*
X154940000Y-78740000D02*
X157480000Y-81280000D01*
X157480000Y-86360000D02*
X160020000Y-88900000D01*
X157480000Y-81280000D02*
X157480000Y-86360000D01*
%TO.N,Net-(J6-Pin_13)*%
X167190000Y-89350000D02*
X175260000Y-81280000D01*
X152400000Y-81280000D02*
X154490000Y-81280000D01*
X157030000Y-83820000D02*
X157030000Y-86546396D01*
X159833604Y-89350000D02*
X167190000Y-89350000D01*
X154490000Y-81280000D02*
X157030000Y-83820000D01*
X157030000Y-86546396D02*
X159833604Y-89350000D01*
%TO.N,Net-(J6-Pin_14)*%
X159647208Y-89800000D02*
X169280000Y-89800000D01*
X169280000Y-89800000D02*
X175260000Y-83820000D01*
X152400000Y-83820000D02*
X153667208Y-83820000D01*
X153667208Y-83820000D02*
X159647208Y-89800000D01*
%TO.N,Net-(J6-Pin_15)*%
X152400000Y-86360000D02*
X155570812Y-86360000D01*
X171370000Y-90250000D02*
X175260000Y-86360000D01*
X159460812Y-90250000D02*
X171370000Y-90250000D01*
X155570812Y-86360000D02*
X159460812Y-90250000D01*
%TO.N,Net-(U3-QE)*%
X189560000Y-63710000D02*
X191890000Y-66040000D01*
X191890000Y-75050000D02*
X198120000Y-81280000D01*
X191890000Y-66040000D02*
X191890000Y-75050000D01*
X198120000Y-81280000D02*
X198120000Y-101600000D01*
X187260000Y-63710000D02*
X189560000Y-63710000D01*
%TO.N,Net-(U3-QF)*%
X191440000Y-75236396D02*
X195580000Y-79376396D01*
X187260000Y-66250000D02*
X191440000Y-70430000D01*
X191440000Y-70430000D02*
X191440000Y-75236396D01*
X195580000Y-79376396D02*
X195580000Y-101600000D01*
%TO.N,Net-(U3-QG)*%
X187260000Y-68790000D02*
X190990000Y-72520000D01*
X193040000Y-77472792D02*
X193040000Y-101600000D01*
X190990000Y-75422792D02*
X193040000Y-77472792D01*
X190990000Y-72520000D02*
X190990000Y-75422792D01*
%TO.N,Net-(U3-QH)*%
X190540000Y-73700000D02*
X190540000Y-101560000D01*
X188170000Y-71330000D02*
X190540000Y-73700000D01*
X187260000Y-71330000D02*
X188170000Y-71330000D01*
X190540000Y-101560000D02*
X190500000Y-101600000D01*
%TO.N,Net-(U4-QE)*%
X120530000Y-64650000D02*
X114300000Y-58420000D01*
X120530000Y-73660000D02*
X120530000Y-64650000D01*
X114300000Y-58420000D02*
X114300000Y-37465000D01*
X125160000Y-75990000D02*
X122860000Y-75990000D01*
X122860000Y-75990000D02*
X120530000Y-73660000D01*
%TO.N,Net-(U4-QF)*%
X120980000Y-69270000D02*
X120980000Y-64463604D01*
X116840000Y-60323604D02*
X116840000Y-37465000D01*
X125160000Y-73450000D02*
X120980000Y-69270000D01*
X120980000Y-64463604D02*
X116840000Y-60323604D01*
%TO.N,Net-(U4-QG)*%
X125160000Y-70910000D02*
X121430000Y-67180000D01*
X119380000Y-62227208D02*
X119380000Y-37465000D01*
X121430000Y-64277208D02*
X119380000Y-62227208D01*
X121430000Y-67180000D02*
X121430000Y-64277208D01*
%TO.N,Net-(U4-QH)*%
X125160000Y-68370000D02*
X121920000Y-65130000D01*
X121920000Y-65130000D02*
X121920000Y-37465000D01*
%TO.N,Net-(U2-PD2)*%
X198120000Y-68580000D02*
X198120000Y-64410000D01*
X198120000Y-64410000D02*
X194880000Y-61170000D01*
%TO.N,Net-(U2-PD3)*%
X152400000Y-63500000D02*
X144780000Y-63500000D01*
%TO.N,Net-(U2-PD4)*%
X197210000Y-71120000D02*
X194880000Y-68790000D01*
X200660000Y-71120000D02*
X197210000Y-71120000D01*
X203200000Y-73660000D02*
X200660000Y-71120000D01*
X152400000Y-66040000D02*
X144780000Y-66040000D01*
%TO.N,Net-(U3-QH')*%
X144780000Y-109220000D02*
X137160000Y-109220000D01*
X198330000Y-73870000D02*
X203200000Y-78740000D01*
X124460000Y-96520000D02*
X121920000Y-93980000D01*
X137160000Y-109220000D02*
X124460000Y-96520000D01*
X121920000Y-93980000D02*
X121920000Y-81280000D01*
X194880000Y-73870000D02*
X198330000Y-73870000D01*
%TD*%
M02*
