%TF.GenerationSoftware,KiCad,Pcbnew,7.0.7*%
%TF.CreationDate,2023-09-23T02:03:23-07:00*%
%TF.ProjectId,htpm_modcore,6874706d-5f6d-46f6-9463-6f72652e6b69,01*%
%TF.SameCoordinates,Original*%
%TF.FileFunction,Legend,Top*%
%TF.FilePolarity,Positive*%
%FSLAX46Y46*%
G04 Gerber Fmt 4.6, Leading zero omitted, Abs format (unit mm)*
G04 Created by KiCad (PCBNEW 7.0.7) date 2023-09-23 02:03:23*
%MOMM*%
%LPD*%
G01*
G04 APERTURE LIST*
%ADD10C,0.300000*%
%ADD11C,0.150000*%
%ADD12C,0.120000*%
G04 APERTURE END LIST*
D10*
X127554510Y-32945828D02*
X127554510Y-31445828D01*
X127554510Y-32160114D02*
X128411653Y-32160114D01*
X128411653Y-32945828D02*
X128411653Y-31445828D01*
X128911654Y-31445828D02*
X129768797Y-31445828D01*
X129340225Y-32945828D02*
X129340225Y-31445828D01*
X130268796Y-32945828D02*
X130268796Y-31445828D01*
X130268796Y-31445828D02*
X130840225Y-31445828D01*
X130840225Y-31445828D02*
X130983082Y-31517257D01*
X130983082Y-31517257D02*
X131054511Y-31588685D01*
X131054511Y-31588685D02*
X131125939Y-31731542D01*
X131125939Y-31731542D02*
X131125939Y-31945828D01*
X131125939Y-31945828D02*
X131054511Y-32088685D01*
X131054511Y-32088685D02*
X130983082Y-32160114D01*
X130983082Y-32160114D02*
X130840225Y-32231542D01*
X130840225Y-32231542D02*
X130268796Y-32231542D01*
X131768796Y-32802971D02*
X131840225Y-32874400D01*
X131840225Y-32874400D02*
X131768796Y-32945828D01*
X131768796Y-32945828D02*
X131697368Y-32874400D01*
X131697368Y-32874400D02*
X131768796Y-32802971D01*
X131768796Y-32802971D02*
X131768796Y-32945828D01*
X131768796Y-32374400D02*
X131697368Y-31517257D01*
X131697368Y-31517257D02*
X131768796Y-31445828D01*
X131768796Y-31445828D02*
X131840225Y-31517257D01*
X131840225Y-31517257D02*
X131768796Y-32374400D01*
X131768796Y-32374400D02*
X131768796Y-31445828D01*
X132483082Y-32945828D02*
X132483082Y-31945828D01*
X132483082Y-32088685D02*
X132554511Y-32017257D01*
X132554511Y-32017257D02*
X132697368Y-31945828D01*
X132697368Y-31945828D02*
X132911654Y-31945828D01*
X132911654Y-31945828D02*
X133054511Y-32017257D01*
X133054511Y-32017257D02*
X133125940Y-32160114D01*
X133125940Y-32160114D02*
X133125940Y-32945828D01*
X133125940Y-32160114D02*
X133197368Y-32017257D01*
X133197368Y-32017257D02*
X133340225Y-31945828D01*
X133340225Y-31945828D02*
X133554511Y-31945828D01*
X133554511Y-31945828D02*
X133697368Y-32017257D01*
X133697368Y-32017257D02*
X133768797Y-32160114D01*
X133768797Y-32160114D02*
X133768797Y-32945828D01*
X135625939Y-32945828D02*
X135625939Y-31445828D01*
X135625939Y-31445828D02*
X136125939Y-32517257D01*
X136125939Y-32517257D02*
X136625939Y-31445828D01*
X136625939Y-31445828D02*
X136625939Y-32945828D01*
X137625940Y-31445828D02*
X137911654Y-31445828D01*
X137911654Y-31445828D02*
X138054511Y-31517257D01*
X138054511Y-31517257D02*
X138197368Y-31660114D01*
X138197368Y-31660114D02*
X138268797Y-31945828D01*
X138268797Y-31945828D02*
X138268797Y-32445828D01*
X138268797Y-32445828D02*
X138197368Y-32731542D01*
X138197368Y-32731542D02*
X138054511Y-32874400D01*
X138054511Y-32874400D02*
X137911654Y-32945828D01*
X137911654Y-32945828D02*
X137625940Y-32945828D01*
X137625940Y-32945828D02*
X137483083Y-32874400D01*
X137483083Y-32874400D02*
X137340225Y-32731542D01*
X137340225Y-32731542D02*
X137268797Y-32445828D01*
X137268797Y-32445828D02*
X137268797Y-31945828D01*
X137268797Y-31945828D02*
X137340225Y-31660114D01*
X137340225Y-31660114D02*
X137483083Y-31517257D01*
X137483083Y-31517257D02*
X137625940Y-31445828D01*
X138911654Y-32945828D02*
X138911654Y-31445828D01*
X138911654Y-31445828D02*
X139268797Y-31445828D01*
X139268797Y-31445828D02*
X139483083Y-31517257D01*
X139483083Y-31517257D02*
X139625940Y-31660114D01*
X139625940Y-31660114D02*
X139697369Y-31802971D01*
X139697369Y-31802971D02*
X139768797Y-32088685D01*
X139768797Y-32088685D02*
X139768797Y-32302971D01*
X139768797Y-32302971D02*
X139697369Y-32588685D01*
X139697369Y-32588685D02*
X139625940Y-32731542D01*
X139625940Y-32731542D02*
X139483083Y-32874400D01*
X139483083Y-32874400D02*
X139268797Y-32945828D01*
X139268797Y-32945828D02*
X138911654Y-32945828D01*
X141268797Y-32802971D02*
X141197369Y-32874400D01*
X141197369Y-32874400D02*
X140983083Y-32945828D01*
X140983083Y-32945828D02*
X140840226Y-32945828D01*
X140840226Y-32945828D02*
X140625940Y-32874400D01*
X140625940Y-32874400D02*
X140483083Y-32731542D01*
X140483083Y-32731542D02*
X140411654Y-32588685D01*
X140411654Y-32588685D02*
X140340226Y-32302971D01*
X140340226Y-32302971D02*
X140340226Y-32088685D01*
X140340226Y-32088685D02*
X140411654Y-31802971D01*
X140411654Y-31802971D02*
X140483083Y-31660114D01*
X140483083Y-31660114D02*
X140625940Y-31517257D01*
X140625940Y-31517257D02*
X140840226Y-31445828D01*
X140840226Y-31445828D02*
X140983083Y-31445828D01*
X140983083Y-31445828D02*
X141197369Y-31517257D01*
X141197369Y-31517257D02*
X141268797Y-31588685D01*
X142197369Y-31445828D02*
X142483083Y-31445828D01*
X142483083Y-31445828D02*
X142625940Y-31517257D01*
X142625940Y-31517257D02*
X142768797Y-31660114D01*
X142768797Y-31660114D02*
X142840226Y-31945828D01*
X142840226Y-31945828D02*
X142840226Y-32445828D01*
X142840226Y-32445828D02*
X142768797Y-32731542D01*
X142768797Y-32731542D02*
X142625940Y-32874400D01*
X142625940Y-32874400D02*
X142483083Y-32945828D01*
X142483083Y-32945828D02*
X142197369Y-32945828D01*
X142197369Y-32945828D02*
X142054512Y-32874400D01*
X142054512Y-32874400D02*
X141911654Y-32731542D01*
X141911654Y-32731542D02*
X141840226Y-32445828D01*
X141840226Y-32445828D02*
X141840226Y-31945828D01*
X141840226Y-31945828D02*
X141911654Y-31660114D01*
X141911654Y-31660114D02*
X142054512Y-31517257D01*
X142054512Y-31517257D02*
X142197369Y-31445828D01*
X144340226Y-32945828D02*
X143840226Y-32231542D01*
X143483083Y-32945828D02*
X143483083Y-31445828D01*
X143483083Y-31445828D02*
X144054512Y-31445828D01*
X144054512Y-31445828D02*
X144197369Y-31517257D01*
X144197369Y-31517257D02*
X144268798Y-31588685D01*
X144268798Y-31588685D02*
X144340226Y-31731542D01*
X144340226Y-31731542D02*
X144340226Y-31945828D01*
X144340226Y-31945828D02*
X144268798Y-32088685D01*
X144268798Y-32088685D02*
X144197369Y-32160114D01*
X144197369Y-32160114D02*
X144054512Y-32231542D01*
X144054512Y-32231542D02*
X143483083Y-32231542D01*
X144983083Y-32160114D02*
X145483083Y-32160114D01*
X145697369Y-32945828D02*
X144983083Y-32945828D01*
X144983083Y-32945828D02*
X144983083Y-31445828D01*
X144983083Y-31445828D02*
X145697369Y-31445828D01*
X127554510Y-35360828D02*
X127554510Y-33860828D01*
X127554510Y-34432257D02*
X127697368Y-34360828D01*
X127697368Y-34360828D02*
X127983082Y-34360828D01*
X127983082Y-34360828D02*
X128125939Y-34432257D01*
X128125939Y-34432257D02*
X128197368Y-34503685D01*
X128197368Y-34503685D02*
X128268796Y-34646542D01*
X128268796Y-34646542D02*
X128268796Y-35075114D01*
X128268796Y-35075114D02*
X128197368Y-35217971D01*
X128197368Y-35217971D02*
X128125939Y-35289400D01*
X128125939Y-35289400D02*
X127983082Y-35360828D01*
X127983082Y-35360828D02*
X127697368Y-35360828D01*
X127697368Y-35360828D02*
X127554510Y-35289400D01*
X128768796Y-34360828D02*
X129125939Y-35360828D01*
X129483082Y-34360828D02*
X129125939Y-35360828D01*
X129125939Y-35360828D02*
X128983082Y-35717971D01*
X128983082Y-35717971D02*
X128911653Y-35789400D01*
X128911653Y-35789400D02*
X128768796Y-35860828D01*
X131125939Y-35289400D02*
X131268796Y-35360828D01*
X131268796Y-35360828D02*
X131554510Y-35360828D01*
X131554510Y-35360828D02*
X131697367Y-35289400D01*
X131697367Y-35289400D02*
X131768796Y-35146542D01*
X131768796Y-35146542D02*
X131768796Y-35075114D01*
X131768796Y-35075114D02*
X131697367Y-34932257D01*
X131697367Y-34932257D02*
X131554510Y-34860828D01*
X131554510Y-34860828D02*
X131340225Y-34860828D01*
X131340225Y-34860828D02*
X131197367Y-34789400D01*
X131197367Y-34789400D02*
X131125939Y-34646542D01*
X131125939Y-34646542D02*
X131125939Y-34575114D01*
X131125939Y-34575114D02*
X131197367Y-34432257D01*
X131197367Y-34432257D02*
X131340225Y-34360828D01*
X131340225Y-34360828D02*
X131554510Y-34360828D01*
X131554510Y-34360828D02*
X131697367Y-34432257D01*
X132411653Y-35360828D02*
X132411653Y-33860828D01*
X133054511Y-35360828D02*
X133054511Y-34575114D01*
X133054511Y-34575114D02*
X132983082Y-34432257D01*
X132983082Y-34432257D02*
X132840225Y-34360828D01*
X132840225Y-34360828D02*
X132625939Y-34360828D01*
X132625939Y-34360828D02*
X132483082Y-34432257D01*
X132483082Y-34432257D02*
X132411653Y-34503685D01*
X134411654Y-35360828D02*
X134411654Y-34575114D01*
X134411654Y-34575114D02*
X134340225Y-34432257D01*
X134340225Y-34432257D02*
X134197368Y-34360828D01*
X134197368Y-34360828D02*
X133911654Y-34360828D01*
X133911654Y-34360828D02*
X133768796Y-34432257D01*
X134411654Y-35289400D02*
X134268796Y-35360828D01*
X134268796Y-35360828D02*
X133911654Y-35360828D01*
X133911654Y-35360828D02*
X133768796Y-35289400D01*
X133768796Y-35289400D02*
X133697368Y-35146542D01*
X133697368Y-35146542D02*
X133697368Y-35003685D01*
X133697368Y-35003685D02*
X133768796Y-34860828D01*
X133768796Y-34860828D02*
X133911654Y-34789400D01*
X133911654Y-34789400D02*
X134268796Y-34789400D01*
X134268796Y-34789400D02*
X134411654Y-34717971D01*
X134983082Y-34360828D02*
X135268797Y-35360828D01*
X135268797Y-35360828D02*
X135554511Y-34646542D01*
X135554511Y-34646542D02*
X135840225Y-35360828D01*
X135840225Y-35360828D02*
X136125939Y-34360828D01*
X136697368Y-34360828D02*
X136697368Y-35360828D01*
X136697368Y-34503685D02*
X136768797Y-34432257D01*
X136768797Y-34432257D02*
X136911654Y-34360828D01*
X136911654Y-34360828D02*
X137125940Y-34360828D01*
X137125940Y-34360828D02*
X137268797Y-34432257D01*
X137268797Y-34432257D02*
X137340226Y-34575114D01*
X137340226Y-34575114D02*
X137340226Y-35360828D01*
X138697369Y-35360828D02*
X138697369Y-33860828D01*
X138697369Y-35289400D02*
X138554511Y-35360828D01*
X138554511Y-35360828D02*
X138268797Y-35360828D01*
X138268797Y-35360828D02*
X138125940Y-35289400D01*
X138125940Y-35289400D02*
X138054511Y-35217971D01*
X138054511Y-35217971D02*
X137983083Y-35075114D01*
X137983083Y-35075114D02*
X137983083Y-34646542D01*
X137983083Y-34646542D02*
X138054511Y-34503685D01*
X138054511Y-34503685D02*
X138125940Y-34432257D01*
X138125940Y-34432257D02*
X138268797Y-34360828D01*
X138268797Y-34360828D02*
X138554511Y-34360828D01*
X138554511Y-34360828D02*
X138697369Y-34432257D01*
X139411654Y-35217971D02*
X139483083Y-35289400D01*
X139483083Y-35289400D02*
X139411654Y-35360828D01*
X139411654Y-35360828D02*
X139340226Y-35289400D01*
X139340226Y-35289400D02*
X139411654Y-35217971D01*
X139411654Y-35217971D02*
X139411654Y-35360828D01*
X139983083Y-35360828D02*
X140768798Y-34360828D01*
X139983083Y-34360828D02*
X140768798Y-35360828D01*
X141197369Y-34360828D02*
X141554512Y-35360828D01*
X141911655Y-34360828D02*
X141554512Y-35360828D01*
X141554512Y-35360828D02*
X141411655Y-35717971D01*
X141411655Y-35717971D02*
X141340226Y-35789400D01*
X141340226Y-35789400D02*
X141197369Y-35860828D01*
X142340226Y-34360828D02*
X143125941Y-34360828D01*
X143125941Y-34360828D02*
X142340226Y-35360828D01*
X142340226Y-35360828D02*
X143125941Y-35360828D01*
D11*
X174234819Y-114633333D02*
X174949104Y-114633333D01*
X174949104Y-114633333D02*
X175091961Y-114680952D01*
X175091961Y-114680952D02*
X175187200Y-114776190D01*
X175187200Y-114776190D02*
X175234819Y-114919047D01*
X175234819Y-114919047D02*
X175234819Y-115014285D01*
X174568152Y-113728571D02*
X175234819Y-113728571D01*
X174187200Y-113966666D02*
X174901485Y-114204761D01*
X174901485Y-114204761D02*
X174901485Y-113585714D01*
X200326666Y-98034819D02*
X200326666Y-98749104D01*
X200326666Y-98749104D02*
X200279047Y-98891961D01*
X200279047Y-98891961D02*
X200183809Y-98987200D01*
X200183809Y-98987200D02*
X200040952Y-99034819D01*
X200040952Y-99034819D02*
X199945714Y-99034819D01*
X200707619Y-98034819D02*
X201326666Y-98034819D01*
X201326666Y-98034819D02*
X200993333Y-98415771D01*
X200993333Y-98415771D02*
X201136190Y-98415771D01*
X201136190Y-98415771D02*
X201231428Y-98463390D01*
X201231428Y-98463390D02*
X201279047Y-98511009D01*
X201279047Y-98511009D02*
X201326666Y-98606247D01*
X201326666Y-98606247D02*
X201326666Y-98844342D01*
X201326666Y-98844342D02*
X201279047Y-98939580D01*
X201279047Y-98939580D02*
X201231428Y-98987200D01*
X201231428Y-98987200D02*
X201136190Y-99034819D01*
X201136190Y-99034819D02*
X200850476Y-99034819D01*
X200850476Y-99034819D02*
X200755238Y-98987200D01*
X200755238Y-98987200D02*
X200707619Y-98939580D01*
X137094819Y-25733333D02*
X137809104Y-25733333D01*
X137809104Y-25733333D02*
X137951961Y-25780952D01*
X137951961Y-25780952D02*
X138047200Y-25876190D01*
X138047200Y-25876190D02*
X138094819Y-26019047D01*
X138094819Y-26019047D02*
X138094819Y-26114285D01*
X137190057Y-25304761D02*
X137142438Y-25257142D01*
X137142438Y-25257142D02*
X137094819Y-25161904D01*
X137094819Y-25161904D02*
X137094819Y-24923809D01*
X137094819Y-24923809D02*
X137142438Y-24828571D01*
X137142438Y-24828571D02*
X137190057Y-24780952D01*
X137190057Y-24780952D02*
X137285295Y-24733333D01*
X137285295Y-24733333D02*
X137380533Y-24733333D01*
X137380533Y-24733333D02*
X137523390Y-24780952D01*
X137523390Y-24780952D02*
X138094819Y-25352380D01*
X138094819Y-25352380D02*
X138094819Y-24733333D01*
X111426666Y-40574819D02*
X111426666Y-41289104D01*
X111426666Y-41289104D02*
X111379047Y-41431961D01*
X111379047Y-41431961D02*
X111283809Y-41527200D01*
X111283809Y-41527200D02*
X111140952Y-41574819D01*
X111140952Y-41574819D02*
X111045714Y-41574819D01*
X112426666Y-41574819D02*
X111855238Y-41574819D01*
X112140952Y-41574819D02*
X112140952Y-40574819D01*
X112140952Y-40574819D02*
X112045714Y-40717676D01*
X112045714Y-40717676D02*
X111950476Y-40812914D01*
X111950476Y-40812914D02*
X111855238Y-40860533D01*
X192238333Y-25854819D02*
X191905000Y-25378628D01*
X191666905Y-25854819D02*
X191666905Y-24854819D01*
X191666905Y-24854819D02*
X192047857Y-24854819D01*
X192047857Y-24854819D02*
X192143095Y-24902438D01*
X192143095Y-24902438D02*
X192190714Y-24950057D01*
X192190714Y-24950057D02*
X192238333Y-25045295D01*
X192238333Y-25045295D02*
X192238333Y-25188152D01*
X192238333Y-25188152D02*
X192190714Y-25283390D01*
X192190714Y-25283390D02*
X192143095Y-25331009D01*
X192143095Y-25331009D02*
X192047857Y-25378628D01*
X192047857Y-25378628D02*
X191666905Y-25378628D01*
X192619286Y-24950057D02*
X192666905Y-24902438D01*
X192666905Y-24902438D02*
X192762143Y-24854819D01*
X192762143Y-24854819D02*
X193000238Y-24854819D01*
X193000238Y-24854819D02*
X193095476Y-24902438D01*
X193095476Y-24902438D02*
X193143095Y-24950057D01*
X193143095Y-24950057D02*
X193190714Y-25045295D01*
X193190714Y-25045295D02*
X193190714Y-25140533D01*
X193190714Y-25140533D02*
X193143095Y-25283390D01*
X193143095Y-25283390D02*
X192571667Y-25854819D01*
X192571667Y-25854819D02*
X193190714Y-25854819D01*
X111426666Y-113754819D02*
X111426666Y-114469104D01*
X111426666Y-114469104D02*
X111379047Y-114611961D01*
X111379047Y-114611961D02*
X111283809Y-114707200D01*
X111283809Y-114707200D02*
X111140952Y-114754819D01*
X111140952Y-114754819D02*
X111045714Y-114754819D01*
X111950476Y-114754819D02*
X112140952Y-114754819D01*
X112140952Y-114754819D02*
X112236190Y-114707200D01*
X112236190Y-114707200D02*
X112283809Y-114659580D01*
X112283809Y-114659580D02*
X112379047Y-114516723D01*
X112379047Y-114516723D02*
X112426666Y-114326247D01*
X112426666Y-114326247D02*
X112426666Y-113945295D01*
X112426666Y-113945295D02*
X112379047Y-113850057D01*
X112379047Y-113850057D02*
X112331428Y-113802438D01*
X112331428Y-113802438D02*
X112236190Y-113754819D01*
X112236190Y-113754819D02*
X112045714Y-113754819D01*
X112045714Y-113754819D02*
X111950476Y-113802438D01*
X111950476Y-113802438D02*
X111902857Y-113850057D01*
X111902857Y-113850057D02*
X111855238Y-113945295D01*
X111855238Y-113945295D02*
X111855238Y-114183390D01*
X111855238Y-114183390D02*
X111902857Y-114278628D01*
X111902857Y-114278628D02*
X111950476Y-114326247D01*
X111950476Y-114326247D02*
X112045714Y-114373866D01*
X112045714Y-114373866D02*
X112236190Y-114373866D01*
X112236190Y-114373866D02*
X112331428Y-114326247D01*
X112331428Y-114326247D02*
X112379047Y-114278628D01*
X112379047Y-114278628D02*
X112426666Y-114183390D01*
X136398095Y-95974819D02*
X136398095Y-96784342D01*
X136398095Y-96784342D02*
X136445714Y-96879580D01*
X136445714Y-96879580D02*
X136493333Y-96927200D01*
X136493333Y-96927200D02*
X136588571Y-96974819D01*
X136588571Y-96974819D02*
X136779047Y-96974819D01*
X136779047Y-96974819D02*
X136874285Y-96927200D01*
X136874285Y-96927200D02*
X136921904Y-96879580D01*
X136921904Y-96879580D02*
X136969523Y-96784342D01*
X136969523Y-96784342D02*
X136969523Y-95974819D01*
X137969523Y-96974819D02*
X137398095Y-96974819D01*
X137683809Y-96974819D02*
X137683809Y-95974819D01*
X137683809Y-95974819D02*
X137588571Y-96117676D01*
X137588571Y-96117676D02*
X137493333Y-96212914D01*
X137493333Y-96212914D02*
X137398095Y-96260533D01*
X200114819Y-113363333D02*
X200829104Y-113363333D01*
X200829104Y-113363333D02*
X200971961Y-113410952D01*
X200971961Y-113410952D02*
X201067200Y-113506190D01*
X201067200Y-113506190D02*
X201114819Y-113649047D01*
X201114819Y-113649047D02*
X201114819Y-113744285D01*
X200543390Y-112744285D02*
X200495771Y-112839523D01*
X200495771Y-112839523D02*
X200448152Y-112887142D01*
X200448152Y-112887142D02*
X200352914Y-112934761D01*
X200352914Y-112934761D02*
X200305295Y-112934761D01*
X200305295Y-112934761D02*
X200210057Y-112887142D01*
X200210057Y-112887142D02*
X200162438Y-112839523D01*
X200162438Y-112839523D02*
X200114819Y-112744285D01*
X200114819Y-112744285D02*
X200114819Y-112553809D01*
X200114819Y-112553809D02*
X200162438Y-112458571D01*
X200162438Y-112458571D02*
X200210057Y-112410952D01*
X200210057Y-112410952D02*
X200305295Y-112363333D01*
X200305295Y-112363333D02*
X200352914Y-112363333D01*
X200352914Y-112363333D02*
X200448152Y-112410952D01*
X200448152Y-112410952D02*
X200495771Y-112458571D01*
X200495771Y-112458571D02*
X200543390Y-112553809D01*
X200543390Y-112553809D02*
X200543390Y-112744285D01*
X200543390Y-112744285D02*
X200591009Y-112839523D01*
X200591009Y-112839523D02*
X200638628Y-112887142D01*
X200638628Y-112887142D02*
X200733866Y-112934761D01*
X200733866Y-112934761D02*
X200924342Y-112934761D01*
X200924342Y-112934761D02*
X201019580Y-112887142D01*
X201019580Y-112887142D02*
X201067200Y-112839523D01*
X201067200Y-112839523D02*
X201114819Y-112744285D01*
X201114819Y-112744285D02*
X201114819Y-112553809D01*
X201114819Y-112553809D02*
X201067200Y-112458571D01*
X201067200Y-112458571D02*
X201019580Y-112410952D01*
X201019580Y-112410952D02*
X200924342Y-112363333D01*
X200924342Y-112363333D02*
X200733866Y-112363333D01*
X200733866Y-112363333D02*
X200638628Y-112410952D01*
X200638628Y-112410952D02*
X200591009Y-112458571D01*
X200591009Y-112458571D02*
X200543390Y-112553809D01*
X201114819Y-105576666D02*
X200638628Y-105909999D01*
X201114819Y-106148094D02*
X200114819Y-106148094D01*
X200114819Y-106148094D02*
X200114819Y-105767142D01*
X200114819Y-105767142D02*
X200162438Y-105671904D01*
X200162438Y-105671904D02*
X200210057Y-105624285D01*
X200210057Y-105624285D02*
X200305295Y-105576666D01*
X200305295Y-105576666D02*
X200448152Y-105576666D01*
X200448152Y-105576666D02*
X200543390Y-105624285D01*
X200543390Y-105624285D02*
X200591009Y-105671904D01*
X200591009Y-105671904D02*
X200638628Y-105767142D01*
X200638628Y-105767142D02*
X200638628Y-106148094D01*
X200114819Y-104719523D02*
X200114819Y-104909999D01*
X200114819Y-104909999D02*
X200162438Y-105005237D01*
X200162438Y-105005237D02*
X200210057Y-105052856D01*
X200210057Y-105052856D02*
X200352914Y-105148094D01*
X200352914Y-105148094D02*
X200543390Y-105195713D01*
X200543390Y-105195713D02*
X200924342Y-105195713D01*
X200924342Y-105195713D02*
X201019580Y-105148094D01*
X201019580Y-105148094D02*
X201067200Y-105100475D01*
X201067200Y-105100475D02*
X201114819Y-105005237D01*
X201114819Y-105005237D02*
X201114819Y-104814761D01*
X201114819Y-104814761D02*
X201067200Y-104719523D01*
X201067200Y-104719523D02*
X201019580Y-104671904D01*
X201019580Y-104671904D02*
X200924342Y-104624285D01*
X200924342Y-104624285D02*
X200686247Y-104624285D01*
X200686247Y-104624285D02*
X200591009Y-104671904D01*
X200591009Y-104671904D02*
X200543390Y-104719523D01*
X200543390Y-104719523D02*
X200495771Y-104814761D01*
X200495771Y-104814761D02*
X200495771Y-105005237D01*
X200495771Y-105005237D02*
X200543390Y-105100475D01*
X200543390Y-105100475D02*
X200591009Y-105148094D01*
X200591009Y-105148094D02*
X200686247Y-105195713D01*
X110950476Y-100844819D02*
X110950476Y-101559104D01*
X110950476Y-101559104D02*
X110902857Y-101701961D01*
X110902857Y-101701961D02*
X110807619Y-101797200D01*
X110807619Y-101797200D02*
X110664762Y-101844819D01*
X110664762Y-101844819D02*
X110569524Y-101844819D01*
X111950476Y-101844819D02*
X111379048Y-101844819D01*
X111664762Y-101844819D02*
X111664762Y-100844819D01*
X111664762Y-100844819D02*
X111569524Y-100987676D01*
X111569524Y-100987676D02*
X111474286Y-101082914D01*
X111474286Y-101082914D02*
X111379048Y-101130533D01*
X112283810Y-100844819D02*
X112902857Y-100844819D01*
X112902857Y-100844819D02*
X112569524Y-101225771D01*
X112569524Y-101225771D02*
X112712381Y-101225771D01*
X112712381Y-101225771D02*
X112807619Y-101273390D01*
X112807619Y-101273390D02*
X112855238Y-101321009D01*
X112855238Y-101321009D02*
X112902857Y-101416247D01*
X112902857Y-101416247D02*
X112902857Y-101654342D01*
X112902857Y-101654342D02*
X112855238Y-101749580D01*
X112855238Y-101749580D02*
X112807619Y-101797200D01*
X112807619Y-101797200D02*
X112712381Y-101844819D01*
X112712381Y-101844819D02*
X112426667Y-101844819D01*
X112426667Y-101844819D02*
X112331429Y-101797200D01*
X112331429Y-101797200D02*
X112283810Y-101749580D01*
X135713333Y-79099580D02*
X135665714Y-79147200D01*
X135665714Y-79147200D02*
X135522857Y-79194819D01*
X135522857Y-79194819D02*
X135427619Y-79194819D01*
X135427619Y-79194819D02*
X135284762Y-79147200D01*
X135284762Y-79147200D02*
X135189524Y-79051961D01*
X135189524Y-79051961D02*
X135141905Y-78956723D01*
X135141905Y-78956723D02*
X135094286Y-78766247D01*
X135094286Y-78766247D02*
X135094286Y-78623390D01*
X135094286Y-78623390D02*
X135141905Y-78432914D01*
X135141905Y-78432914D02*
X135189524Y-78337676D01*
X135189524Y-78337676D02*
X135284762Y-78242438D01*
X135284762Y-78242438D02*
X135427619Y-78194819D01*
X135427619Y-78194819D02*
X135522857Y-78194819D01*
X135522857Y-78194819D02*
X135665714Y-78242438D01*
X135665714Y-78242438D02*
X135713333Y-78290057D01*
X136094286Y-78290057D02*
X136141905Y-78242438D01*
X136141905Y-78242438D02*
X136237143Y-78194819D01*
X136237143Y-78194819D02*
X136475238Y-78194819D01*
X136475238Y-78194819D02*
X136570476Y-78242438D01*
X136570476Y-78242438D02*
X136618095Y-78290057D01*
X136618095Y-78290057D02*
X136665714Y-78385295D01*
X136665714Y-78385295D02*
X136665714Y-78480533D01*
X136665714Y-78480533D02*
X136618095Y-78623390D01*
X136618095Y-78623390D02*
X136046667Y-79194819D01*
X136046667Y-79194819D02*
X136665714Y-79194819D01*
X145873333Y-57604819D02*
X145540000Y-57128628D01*
X145301905Y-57604819D02*
X145301905Y-56604819D01*
X145301905Y-56604819D02*
X145682857Y-56604819D01*
X145682857Y-56604819D02*
X145778095Y-56652438D01*
X145778095Y-56652438D02*
X145825714Y-56700057D01*
X145825714Y-56700057D02*
X145873333Y-56795295D01*
X145873333Y-56795295D02*
X145873333Y-56938152D01*
X145873333Y-56938152D02*
X145825714Y-57033390D01*
X145825714Y-57033390D02*
X145778095Y-57081009D01*
X145778095Y-57081009D02*
X145682857Y-57128628D01*
X145682857Y-57128628D02*
X145301905Y-57128628D01*
X146825714Y-57604819D02*
X146254286Y-57604819D01*
X146540000Y-57604819D02*
X146540000Y-56604819D01*
X146540000Y-56604819D02*
X146444762Y-56747676D01*
X146444762Y-56747676D02*
X146349524Y-56842914D01*
X146349524Y-56842914D02*
X146254286Y-56890533D01*
X112293333Y-86509580D02*
X112245714Y-86557200D01*
X112245714Y-86557200D02*
X112102857Y-86604819D01*
X112102857Y-86604819D02*
X112007619Y-86604819D01*
X112007619Y-86604819D02*
X111864762Y-86557200D01*
X111864762Y-86557200D02*
X111769524Y-86461961D01*
X111769524Y-86461961D02*
X111721905Y-86366723D01*
X111721905Y-86366723D02*
X111674286Y-86176247D01*
X111674286Y-86176247D02*
X111674286Y-86033390D01*
X111674286Y-86033390D02*
X111721905Y-85842914D01*
X111721905Y-85842914D02*
X111769524Y-85747676D01*
X111769524Y-85747676D02*
X111864762Y-85652438D01*
X111864762Y-85652438D02*
X112007619Y-85604819D01*
X112007619Y-85604819D02*
X112102857Y-85604819D01*
X112102857Y-85604819D02*
X112245714Y-85652438D01*
X112245714Y-85652438D02*
X112293333Y-85700057D01*
X113198095Y-85604819D02*
X112721905Y-85604819D01*
X112721905Y-85604819D02*
X112674286Y-86081009D01*
X112674286Y-86081009D02*
X112721905Y-86033390D01*
X112721905Y-86033390D02*
X112817143Y-85985771D01*
X112817143Y-85985771D02*
X113055238Y-85985771D01*
X113055238Y-85985771D02*
X113150476Y-86033390D01*
X113150476Y-86033390D02*
X113198095Y-86081009D01*
X113198095Y-86081009D02*
X113245714Y-86176247D01*
X113245714Y-86176247D02*
X113245714Y-86414342D01*
X113245714Y-86414342D02*
X113198095Y-86509580D01*
X113198095Y-86509580D02*
X113150476Y-86557200D01*
X113150476Y-86557200D02*
X113055238Y-86604819D01*
X113055238Y-86604819D02*
X112817143Y-86604819D01*
X112817143Y-86604819D02*
X112721905Y-86557200D01*
X112721905Y-86557200D02*
X112674286Y-86509580D01*
X199793333Y-53909580D02*
X199745714Y-53957200D01*
X199745714Y-53957200D02*
X199602857Y-54004819D01*
X199602857Y-54004819D02*
X199507619Y-54004819D01*
X199507619Y-54004819D02*
X199364762Y-53957200D01*
X199364762Y-53957200D02*
X199269524Y-53861961D01*
X199269524Y-53861961D02*
X199221905Y-53766723D01*
X199221905Y-53766723D02*
X199174286Y-53576247D01*
X199174286Y-53576247D02*
X199174286Y-53433390D01*
X199174286Y-53433390D02*
X199221905Y-53242914D01*
X199221905Y-53242914D02*
X199269524Y-53147676D01*
X199269524Y-53147676D02*
X199364762Y-53052438D01*
X199364762Y-53052438D02*
X199507619Y-53004819D01*
X199507619Y-53004819D02*
X199602857Y-53004819D01*
X199602857Y-53004819D02*
X199745714Y-53052438D01*
X199745714Y-53052438D02*
X199793333Y-53100057D01*
X200650476Y-53338152D02*
X200650476Y-54004819D01*
X200412381Y-52957200D02*
X200174286Y-53671485D01*
X200174286Y-53671485D02*
X200793333Y-53671485D01*
X155438095Y-50254819D02*
X155438095Y-51064342D01*
X155438095Y-51064342D02*
X155485714Y-51159580D01*
X155485714Y-51159580D02*
X155533333Y-51207200D01*
X155533333Y-51207200D02*
X155628571Y-51254819D01*
X155628571Y-51254819D02*
X155819047Y-51254819D01*
X155819047Y-51254819D02*
X155914285Y-51207200D01*
X155914285Y-51207200D02*
X155961904Y-51159580D01*
X155961904Y-51159580D02*
X156009523Y-51064342D01*
X156009523Y-51064342D02*
X156009523Y-50254819D01*
X156438095Y-50350057D02*
X156485714Y-50302438D01*
X156485714Y-50302438D02*
X156580952Y-50254819D01*
X156580952Y-50254819D02*
X156819047Y-50254819D01*
X156819047Y-50254819D02*
X156914285Y-50302438D01*
X156914285Y-50302438D02*
X156961904Y-50350057D01*
X156961904Y-50350057D02*
X157009523Y-50445295D01*
X157009523Y-50445295D02*
X157009523Y-50540533D01*
X157009523Y-50540533D02*
X156961904Y-50683390D01*
X156961904Y-50683390D02*
X156390476Y-51254819D01*
X156390476Y-51254819D02*
X157009523Y-51254819D01*
X174926666Y-47924819D02*
X174926666Y-48639104D01*
X174926666Y-48639104D02*
X174879047Y-48781961D01*
X174879047Y-48781961D02*
X174783809Y-48877200D01*
X174783809Y-48877200D02*
X174640952Y-48924819D01*
X174640952Y-48924819D02*
X174545714Y-48924819D01*
X175831428Y-47924819D02*
X175640952Y-47924819D01*
X175640952Y-47924819D02*
X175545714Y-47972438D01*
X175545714Y-47972438D02*
X175498095Y-48020057D01*
X175498095Y-48020057D02*
X175402857Y-48162914D01*
X175402857Y-48162914D02*
X175355238Y-48353390D01*
X175355238Y-48353390D02*
X175355238Y-48734342D01*
X175355238Y-48734342D02*
X175402857Y-48829580D01*
X175402857Y-48829580D02*
X175450476Y-48877200D01*
X175450476Y-48877200D02*
X175545714Y-48924819D01*
X175545714Y-48924819D02*
X175736190Y-48924819D01*
X175736190Y-48924819D02*
X175831428Y-48877200D01*
X175831428Y-48877200D02*
X175879047Y-48829580D01*
X175879047Y-48829580D02*
X175926666Y-48734342D01*
X175926666Y-48734342D02*
X175926666Y-48496247D01*
X175926666Y-48496247D02*
X175879047Y-48401009D01*
X175879047Y-48401009D02*
X175831428Y-48353390D01*
X175831428Y-48353390D02*
X175736190Y-48305771D01*
X175736190Y-48305771D02*
X175545714Y-48305771D01*
X175545714Y-48305771D02*
X175450476Y-48353390D01*
X175450476Y-48353390D02*
X175402857Y-48401009D01*
X175402857Y-48401009D02*
X175355238Y-48496247D01*
X192238333Y-38454819D02*
X191905000Y-37978628D01*
X191666905Y-38454819D02*
X191666905Y-37454819D01*
X191666905Y-37454819D02*
X192047857Y-37454819D01*
X192047857Y-37454819D02*
X192143095Y-37502438D01*
X192143095Y-37502438D02*
X192190714Y-37550057D01*
X192190714Y-37550057D02*
X192238333Y-37645295D01*
X192238333Y-37645295D02*
X192238333Y-37788152D01*
X192238333Y-37788152D02*
X192190714Y-37883390D01*
X192190714Y-37883390D02*
X192143095Y-37931009D01*
X192143095Y-37931009D02*
X192047857Y-37978628D01*
X192047857Y-37978628D02*
X191666905Y-37978628D01*
X193143095Y-37454819D02*
X192666905Y-37454819D01*
X192666905Y-37454819D02*
X192619286Y-37931009D01*
X192619286Y-37931009D02*
X192666905Y-37883390D01*
X192666905Y-37883390D02*
X192762143Y-37835771D01*
X192762143Y-37835771D02*
X193000238Y-37835771D01*
X193000238Y-37835771D02*
X193095476Y-37883390D01*
X193095476Y-37883390D02*
X193143095Y-37931009D01*
X193143095Y-37931009D02*
X193190714Y-38026247D01*
X193190714Y-38026247D02*
X193190714Y-38264342D01*
X193190714Y-38264342D02*
X193143095Y-38359580D01*
X193143095Y-38359580D02*
X193095476Y-38407200D01*
X193095476Y-38407200D02*
X193000238Y-38454819D01*
X193000238Y-38454819D02*
X192762143Y-38454819D01*
X192762143Y-38454819D02*
X192666905Y-38407200D01*
X192666905Y-38407200D02*
X192619286Y-38359580D01*
X199691666Y-24854819D02*
X199691666Y-25569104D01*
X199691666Y-25569104D02*
X199644047Y-25711961D01*
X199644047Y-25711961D02*
X199548809Y-25807200D01*
X199548809Y-25807200D02*
X199405952Y-25854819D01*
X199405952Y-25854819D02*
X199310714Y-25854819D01*
X200072619Y-24854819D02*
X200739285Y-24854819D01*
X200739285Y-24854819D02*
X200310714Y-25854819D01*
X187204819Y-113839523D02*
X187919104Y-113839523D01*
X187919104Y-113839523D02*
X188061961Y-113887142D01*
X188061961Y-113887142D02*
X188157200Y-113982380D01*
X188157200Y-113982380D02*
X188204819Y-114125237D01*
X188204819Y-114125237D02*
X188204819Y-114220475D01*
X188204819Y-112839523D02*
X188204819Y-113410951D01*
X188204819Y-113125237D02*
X187204819Y-113125237D01*
X187204819Y-113125237D02*
X187347676Y-113220475D01*
X187347676Y-113220475D02*
X187442914Y-113315713D01*
X187442914Y-113315713D02*
X187490533Y-113410951D01*
X187300057Y-112458570D02*
X187252438Y-112410951D01*
X187252438Y-112410951D02*
X187204819Y-112315713D01*
X187204819Y-112315713D02*
X187204819Y-112077618D01*
X187204819Y-112077618D02*
X187252438Y-111982380D01*
X187252438Y-111982380D02*
X187300057Y-111934761D01*
X187300057Y-111934761D02*
X187395295Y-111887142D01*
X187395295Y-111887142D02*
X187490533Y-111887142D01*
X187490533Y-111887142D02*
X187633390Y-111934761D01*
X187633390Y-111934761D02*
X188204819Y-112506189D01*
X188204819Y-112506189D02*
X188204819Y-111887142D01*
X120588095Y-85394819D02*
X120588095Y-86204342D01*
X120588095Y-86204342D02*
X120635714Y-86299580D01*
X120635714Y-86299580D02*
X120683333Y-86347200D01*
X120683333Y-86347200D02*
X120778571Y-86394819D01*
X120778571Y-86394819D02*
X120969047Y-86394819D01*
X120969047Y-86394819D02*
X121064285Y-86347200D01*
X121064285Y-86347200D02*
X121111904Y-86299580D01*
X121111904Y-86299580D02*
X121159523Y-86204342D01*
X121159523Y-86204342D02*
X121159523Y-85394819D01*
X122064285Y-85728152D02*
X122064285Y-86394819D01*
X121826190Y-85347200D02*
X121588095Y-86061485D01*
X121588095Y-86061485D02*
X122207142Y-86061485D01*
X112214819Y-34297857D02*
X111738628Y-34631190D01*
X112214819Y-34869285D02*
X111214819Y-34869285D01*
X111214819Y-34869285D02*
X111214819Y-34488333D01*
X111214819Y-34488333D02*
X111262438Y-34393095D01*
X111262438Y-34393095D02*
X111310057Y-34345476D01*
X111310057Y-34345476D02*
X111405295Y-34297857D01*
X111405295Y-34297857D02*
X111548152Y-34297857D01*
X111548152Y-34297857D02*
X111643390Y-34345476D01*
X111643390Y-34345476D02*
X111691009Y-34393095D01*
X111691009Y-34393095D02*
X111738628Y-34488333D01*
X111738628Y-34488333D02*
X111738628Y-34869285D01*
X112214819Y-33345476D02*
X112214819Y-33916904D01*
X112214819Y-33631190D02*
X111214819Y-33631190D01*
X111214819Y-33631190D02*
X111357676Y-33726428D01*
X111357676Y-33726428D02*
X111452914Y-33821666D01*
X111452914Y-33821666D02*
X111500533Y-33916904D01*
X111548152Y-32488333D02*
X112214819Y-32488333D01*
X111167200Y-32726428D02*
X111881485Y-32964523D01*
X111881485Y-32964523D02*
X111881485Y-32345476D01*
X135713333Y-74019580D02*
X135665714Y-74067200D01*
X135665714Y-74067200D02*
X135522857Y-74114819D01*
X135522857Y-74114819D02*
X135427619Y-74114819D01*
X135427619Y-74114819D02*
X135284762Y-74067200D01*
X135284762Y-74067200D02*
X135189524Y-73971961D01*
X135189524Y-73971961D02*
X135141905Y-73876723D01*
X135141905Y-73876723D02*
X135094286Y-73686247D01*
X135094286Y-73686247D02*
X135094286Y-73543390D01*
X135094286Y-73543390D02*
X135141905Y-73352914D01*
X135141905Y-73352914D02*
X135189524Y-73257676D01*
X135189524Y-73257676D02*
X135284762Y-73162438D01*
X135284762Y-73162438D02*
X135427619Y-73114819D01*
X135427619Y-73114819D02*
X135522857Y-73114819D01*
X135522857Y-73114819D02*
X135665714Y-73162438D01*
X135665714Y-73162438D02*
X135713333Y-73210057D01*
X136665714Y-74114819D02*
X136094286Y-74114819D01*
X136380000Y-74114819D02*
X136380000Y-73114819D01*
X136380000Y-73114819D02*
X136284762Y-73257676D01*
X136284762Y-73257676D02*
X136189524Y-73352914D01*
X136189524Y-73352914D02*
X136094286Y-73400533D01*
X118737142Y-114754819D02*
X118403809Y-114278628D01*
X118165714Y-114754819D02*
X118165714Y-113754819D01*
X118165714Y-113754819D02*
X118546666Y-113754819D01*
X118546666Y-113754819D02*
X118641904Y-113802438D01*
X118641904Y-113802438D02*
X118689523Y-113850057D01*
X118689523Y-113850057D02*
X118737142Y-113945295D01*
X118737142Y-113945295D02*
X118737142Y-114088152D01*
X118737142Y-114088152D02*
X118689523Y-114183390D01*
X118689523Y-114183390D02*
X118641904Y-114231009D01*
X118641904Y-114231009D02*
X118546666Y-114278628D01*
X118546666Y-114278628D02*
X118165714Y-114278628D01*
X119689523Y-114754819D02*
X119118095Y-114754819D01*
X119403809Y-114754819D02*
X119403809Y-113754819D01*
X119403809Y-113754819D02*
X119308571Y-113897676D01*
X119308571Y-113897676D02*
X119213333Y-113992914D01*
X119213333Y-113992914D02*
X119118095Y-114040533D01*
X120308571Y-113754819D02*
X120403809Y-113754819D01*
X120403809Y-113754819D02*
X120499047Y-113802438D01*
X120499047Y-113802438D02*
X120546666Y-113850057D01*
X120546666Y-113850057D02*
X120594285Y-113945295D01*
X120594285Y-113945295D02*
X120641904Y-114135771D01*
X120641904Y-114135771D02*
X120641904Y-114373866D01*
X120641904Y-114373866D02*
X120594285Y-114564342D01*
X120594285Y-114564342D02*
X120546666Y-114659580D01*
X120546666Y-114659580D02*
X120499047Y-114707200D01*
X120499047Y-114707200D02*
X120403809Y-114754819D01*
X120403809Y-114754819D02*
X120308571Y-114754819D01*
X120308571Y-114754819D02*
X120213333Y-114707200D01*
X120213333Y-114707200D02*
X120165714Y-114659580D01*
X120165714Y-114659580D02*
X120118095Y-114564342D01*
X120118095Y-114564342D02*
X120070476Y-114373866D01*
X120070476Y-114373866D02*
X120070476Y-114135771D01*
X120070476Y-114135771D02*
X120118095Y-113945295D01*
X120118095Y-113945295D02*
X120165714Y-113850057D01*
X120165714Y-113850057D02*
X120213333Y-113802438D01*
X120213333Y-113802438D02*
X120308571Y-113754819D01*
X124124819Y-26844523D02*
X124839104Y-26844523D01*
X124839104Y-26844523D02*
X124981961Y-26892142D01*
X124981961Y-26892142D02*
X125077200Y-26987380D01*
X125077200Y-26987380D02*
X125124819Y-27130237D01*
X125124819Y-27130237D02*
X125124819Y-27225475D01*
X125124819Y-25844523D02*
X125124819Y-26415951D01*
X125124819Y-26130237D02*
X124124819Y-26130237D01*
X124124819Y-26130237D02*
X124267676Y-26225475D01*
X124267676Y-26225475D02*
X124362914Y-26320713D01*
X124362914Y-26320713D02*
X124410533Y-26415951D01*
X124458152Y-24987380D02*
X125124819Y-24987380D01*
X124077200Y-25225475D02*
X124791485Y-25463570D01*
X124791485Y-25463570D02*
X124791485Y-24844523D01*
X124914819Y-34297857D02*
X124438628Y-34631190D01*
X124914819Y-34869285D02*
X123914819Y-34869285D01*
X123914819Y-34869285D02*
X123914819Y-34488333D01*
X123914819Y-34488333D02*
X123962438Y-34393095D01*
X123962438Y-34393095D02*
X124010057Y-34345476D01*
X124010057Y-34345476D02*
X124105295Y-34297857D01*
X124105295Y-34297857D02*
X124248152Y-34297857D01*
X124248152Y-34297857D02*
X124343390Y-34345476D01*
X124343390Y-34345476D02*
X124391009Y-34393095D01*
X124391009Y-34393095D02*
X124438628Y-34488333D01*
X124438628Y-34488333D02*
X124438628Y-34869285D01*
X124914819Y-33345476D02*
X124914819Y-33916904D01*
X124914819Y-33631190D02*
X123914819Y-33631190D01*
X123914819Y-33631190D02*
X124057676Y-33726428D01*
X124057676Y-33726428D02*
X124152914Y-33821666D01*
X124152914Y-33821666D02*
X124200533Y-33916904D01*
X123914819Y-33012142D02*
X123914819Y-32345476D01*
X123914819Y-32345476D02*
X124914819Y-32774047D01*
X188414819Y-105576666D02*
X187938628Y-105909999D01*
X188414819Y-106148094D02*
X187414819Y-106148094D01*
X187414819Y-106148094D02*
X187414819Y-105767142D01*
X187414819Y-105767142D02*
X187462438Y-105671904D01*
X187462438Y-105671904D02*
X187510057Y-105624285D01*
X187510057Y-105624285D02*
X187605295Y-105576666D01*
X187605295Y-105576666D02*
X187748152Y-105576666D01*
X187748152Y-105576666D02*
X187843390Y-105624285D01*
X187843390Y-105624285D02*
X187891009Y-105671904D01*
X187891009Y-105671904D02*
X187938628Y-105767142D01*
X187938628Y-105767142D02*
X187938628Y-106148094D01*
X188414819Y-105100475D02*
X188414819Y-104909999D01*
X188414819Y-104909999D02*
X188367200Y-104814761D01*
X188367200Y-104814761D02*
X188319580Y-104767142D01*
X188319580Y-104767142D02*
X188176723Y-104671904D01*
X188176723Y-104671904D02*
X187986247Y-104624285D01*
X187986247Y-104624285D02*
X187605295Y-104624285D01*
X187605295Y-104624285D02*
X187510057Y-104671904D01*
X187510057Y-104671904D02*
X187462438Y-104719523D01*
X187462438Y-104719523D02*
X187414819Y-104814761D01*
X187414819Y-104814761D02*
X187414819Y-105005237D01*
X187414819Y-105005237D02*
X187462438Y-105100475D01*
X187462438Y-105100475D02*
X187510057Y-105148094D01*
X187510057Y-105148094D02*
X187605295Y-105195713D01*
X187605295Y-105195713D02*
X187843390Y-105195713D01*
X187843390Y-105195713D02*
X187938628Y-105148094D01*
X187938628Y-105148094D02*
X187986247Y-105100475D01*
X187986247Y-105100475D02*
X188033866Y-105005237D01*
X188033866Y-105005237D02*
X188033866Y-104814761D01*
X188033866Y-104814761D02*
X187986247Y-104719523D01*
X187986247Y-104719523D02*
X187938628Y-104671904D01*
X187938628Y-104671904D02*
X187843390Y-104624285D01*
X166614819Y-25733333D02*
X167329104Y-25733333D01*
X167329104Y-25733333D02*
X167471961Y-25780952D01*
X167471961Y-25780952D02*
X167567200Y-25876190D01*
X167567200Y-25876190D02*
X167614819Y-26019047D01*
X167614819Y-26019047D02*
X167614819Y-26114285D01*
X166614819Y-24780952D02*
X166614819Y-25257142D01*
X166614819Y-25257142D02*
X167091009Y-25304761D01*
X167091009Y-25304761D02*
X167043390Y-25257142D01*
X167043390Y-25257142D02*
X166995771Y-25161904D01*
X166995771Y-25161904D02*
X166995771Y-24923809D01*
X166995771Y-24923809D02*
X167043390Y-24828571D01*
X167043390Y-24828571D02*
X167091009Y-24780952D01*
X167091009Y-24780952D02*
X167186247Y-24733333D01*
X167186247Y-24733333D02*
X167424342Y-24733333D01*
X167424342Y-24733333D02*
X167519580Y-24780952D01*
X167519580Y-24780952D02*
X167567200Y-24828571D01*
X167567200Y-24828571D02*
X167614819Y-24923809D01*
X167614819Y-24923809D02*
X167614819Y-25161904D01*
X167614819Y-25161904D02*
X167567200Y-25257142D01*
X167567200Y-25257142D02*
X167519580Y-25304761D01*
X111214819Y-26844523D02*
X111929104Y-26844523D01*
X111929104Y-26844523D02*
X112071961Y-26892142D01*
X112071961Y-26892142D02*
X112167200Y-26987380D01*
X112167200Y-26987380D02*
X112214819Y-27130237D01*
X112214819Y-27130237D02*
X112214819Y-27225475D01*
X112214819Y-25844523D02*
X112214819Y-26415951D01*
X112214819Y-26130237D02*
X111214819Y-26130237D01*
X111214819Y-26130237D02*
X111357676Y-26225475D01*
X111357676Y-26225475D02*
X111452914Y-26320713D01*
X111452914Y-26320713D02*
X111500533Y-26415951D01*
X111214819Y-25225475D02*
X111214819Y-25130237D01*
X111214819Y-25130237D02*
X111262438Y-25034999D01*
X111262438Y-25034999D02*
X111310057Y-24987380D01*
X111310057Y-24987380D02*
X111405295Y-24939761D01*
X111405295Y-24939761D02*
X111595771Y-24892142D01*
X111595771Y-24892142D02*
X111833866Y-24892142D01*
X111833866Y-24892142D02*
X112024342Y-24939761D01*
X112024342Y-24939761D02*
X112119580Y-24987380D01*
X112119580Y-24987380D02*
X112167200Y-25034999D01*
X112167200Y-25034999D02*
X112214819Y-25130237D01*
X112214819Y-25130237D02*
X112214819Y-25225475D01*
X112214819Y-25225475D02*
X112167200Y-25320713D01*
X112167200Y-25320713D02*
X112119580Y-25368332D01*
X112119580Y-25368332D02*
X112024342Y-25415951D01*
X112024342Y-25415951D02*
X111833866Y-25463570D01*
X111833866Y-25463570D02*
X111595771Y-25463570D01*
X111595771Y-25463570D02*
X111405295Y-25415951D01*
X111405295Y-25415951D02*
X111310057Y-25368332D01*
X111310057Y-25368332D02*
X111262438Y-25320713D01*
X111262438Y-25320713D02*
X111214819Y-25225475D01*
X166193333Y-66399580D02*
X166145714Y-66447200D01*
X166145714Y-66447200D02*
X166002857Y-66494819D01*
X166002857Y-66494819D02*
X165907619Y-66494819D01*
X165907619Y-66494819D02*
X165764762Y-66447200D01*
X165764762Y-66447200D02*
X165669524Y-66351961D01*
X165669524Y-66351961D02*
X165621905Y-66256723D01*
X165621905Y-66256723D02*
X165574286Y-66066247D01*
X165574286Y-66066247D02*
X165574286Y-65923390D01*
X165574286Y-65923390D02*
X165621905Y-65732914D01*
X165621905Y-65732914D02*
X165669524Y-65637676D01*
X165669524Y-65637676D02*
X165764762Y-65542438D01*
X165764762Y-65542438D02*
X165907619Y-65494819D01*
X165907619Y-65494819D02*
X166002857Y-65494819D01*
X166002857Y-65494819D02*
X166145714Y-65542438D01*
X166145714Y-65542438D02*
X166193333Y-65590057D01*
X166526667Y-65494819D02*
X167145714Y-65494819D01*
X167145714Y-65494819D02*
X166812381Y-65875771D01*
X166812381Y-65875771D02*
X166955238Y-65875771D01*
X166955238Y-65875771D02*
X167050476Y-65923390D01*
X167050476Y-65923390D02*
X167098095Y-65971009D01*
X167098095Y-65971009D02*
X167145714Y-66066247D01*
X167145714Y-66066247D02*
X167145714Y-66304342D01*
X167145714Y-66304342D02*
X167098095Y-66399580D01*
X167098095Y-66399580D02*
X167050476Y-66447200D01*
X167050476Y-66447200D02*
X166955238Y-66494819D01*
X166955238Y-66494819D02*
X166669524Y-66494819D01*
X166669524Y-66494819D02*
X166574286Y-66447200D01*
X166574286Y-66447200D02*
X166526667Y-66399580D01*
X118737142Y-102054819D02*
X118403809Y-101578628D01*
X118165714Y-102054819D02*
X118165714Y-101054819D01*
X118165714Y-101054819D02*
X118546666Y-101054819D01*
X118546666Y-101054819D02*
X118641904Y-101102438D01*
X118641904Y-101102438D02*
X118689523Y-101150057D01*
X118689523Y-101150057D02*
X118737142Y-101245295D01*
X118737142Y-101245295D02*
X118737142Y-101388152D01*
X118737142Y-101388152D02*
X118689523Y-101483390D01*
X118689523Y-101483390D02*
X118641904Y-101531009D01*
X118641904Y-101531009D02*
X118546666Y-101578628D01*
X118546666Y-101578628D02*
X118165714Y-101578628D01*
X119689523Y-102054819D02*
X119118095Y-102054819D01*
X119403809Y-102054819D02*
X119403809Y-101054819D01*
X119403809Y-101054819D02*
X119308571Y-101197676D01*
X119308571Y-101197676D02*
X119213333Y-101292914D01*
X119213333Y-101292914D02*
X119118095Y-101340533D01*
X120022857Y-101054819D02*
X120641904Y-101054819D01*
X120641904Y-101054819D02*
X120308571Y-101435771D01*
X120308571Y-101435771D02*
X120451428Y-101435771D01*
X120451428Y-101435771D02*
X120546666Y-101483390D01*
X120546666Y-101483390D02*
X120594285Y-101531009D01*
X120594285Y-101531009D02*
X120641904Y-101626247D01*
X120641904Y-101626247D02*
X120641904Y-101864342D01*
X120641904Y-101864342D02*
X120594285Y-101959580D01*
X120594285Y-101959580D02*
X120546666Y-102007200D01*
X120546666Y-102007200D02*
X120451428Y-102054819D01*
X120451428Y-102054819D02*
X120165714Y-102054819D01*
X120165714Y-102054819D02*
X120070476Y-102007200D01*
X120070476Y-102007200D02*
X120022857Y-101959580D01*
X145563809Y-68558628D02*
X145563809Y-69034819D01*
X145230476Y-68034819D02*
X145563809Y-68558628D01*
X145563809Y-68558628D02*
X145897142Y-68034819D01*
X146754285Y-69034819D02*
X146182857Y-69034819D01*
X146468571Y-69034819D02*
X146468571Y-68034819D01*
X146468571Y-68034819D02*
X146373333Y-68177676D01*
X146373333Y-68177676D02*
X146278095Y-68272914D01*
X146278095Y-68272914D02*
X146182857Y-68320533D01*
X190308095Y-53214819D02*
X190308095Y-54024342D01*
X190308095Y-54024342D02*
X190355714Y-54119580D01*
X190355714Y-54119580D02*
X190403333Y-54167200D01*
X190403333Y-54167200D02*
X190498571Y-54214819D01*
X190498571Y-54214819D02*
X190689047Y-54214819D01*
X190689047Y-54214819D02*
X190784285Y-54167200D01*
X190784285Y-54167200D02*
X190831904Y-54119580D01*
X190831904Y-54119580D02*
X190879523Y-54024342D01*
X190879523Y-54024342D02*
X190879523Y-53214819D01*
X191260476Y-53214819D02*
X191879523Y-53214819D01*
X191879523Y-53214819D02*
X191546190Y-53595771D01*
X191546190Y-53595771D02*
X191689047Y-53595771D01*
X191689047Y-53595771D02*
X191784285Y-53643390D01*
X191784285Y-53643390D02*
X191831904Y-53691009D01*
X191831904Y-53691009D02*
X191879523Y-53786247D01*
X191879523Y-53786247D02*
X191879523Y-54024342D01*
X191879523Y-54024342D02*
X191831904Y-54119580D01*
X191831904Y-54119580D02*
X191784285Y-54167200D01*
X191784285Y-54167200D02*
X191689047Y-54214819D01*
X191689047Y-54214819D02*
X191403333Y-54214819D01*
X191403333Y-54214819D02*
X191308095Y-54167200D01*
X191308095Y-54167200D02*
X191260476Y-54119580D01*
X199215476Y-37764819D02*
X199215476Y-38479104D01*
X199215476Y-38479104D02*
X199167857Y-38621961D01*
X199167857Y-38621961D02*
X199072619Y-38717200D01*
X199072619Y-38717200D02*
X198929762Y-38764819D01*
X198929762Y-38764819D02*
X198834524Y-38764819D01*
X200215476Y-38764819D02*
X199644048Y-38764819D01*
X199929762Y-38764819D02*
X199929762Y-37764819D01*
X199929762Y-37764819D02*
X199834524Y-37907676D01*
X199834524Y-37907676D02*
X199739286Y-38002914D01*
X199739286Y-38002914D02*
X199644048Y-38050533D01*
X201167857Y-38764819D02*
X200596429Y-38764819D01*
X200882143Y-38764819D02*
X200882143Y-37764819D01*
X200882143Y-37764819D02*
X200786905Y-37907676D01*
X200786905Y-37907676D02*
X200691667Y-38002914D01*
X200691667Y-38002914D02*
X200596429Y-38050533D01*
D12*
%TO.C,J4*%
X171720000Y-113240000D02*
X171720000Y-115360000D01*
X161660000Y-113240000D02*
X161660000Y-115360000D01*
X173780000Y-113240000D02*
X173780000Y-114300000D01*
X171720000Y-115360000D02*
X161660000Y-115360000D01*
X172720000Y-113240000D02*
X173780000Y-113240000D01*
X171720000Y-113240000D02*
X161660000Y-113240000D01*
%TO.C,J3*%
X201720000Y-95520000D02*
X199600000Y-95520000D01*
X201720000Y-85460000D02*
X199600000Y-85460000D01*
X201720000Y-97580000D02*
X200660000Y-97580000D01*
X199600000Y-95520000D02*
X199600000Y-85460000D01*
X201720000Y-96520000D02*
X201720000Y-97580000D01*
X201720000Y-95520000D02*
X201720000Y-85460000D01*
%TO.C,J2*%
X140700000Y-26460000D02*
X140700000Y-24340000D01*
X150760000Y-26460000D02*
X150760000Y-24340000D01*
X138640000Y-26460000D02*
X138640000Y-25400000D01*
X140700000Y-24340000D02*
X150760000Y-24340000D01*
X139700000Y-26460000D02*
X138640000Y-26460000D01*
X140700000Y-26460000D02*
X150760000Y-26460000D01*
%TO.C,J1*%
X110700000Y-44180000D02*
X112820000Y-44180000D01*
X110700000Y-54240000D02*
X112820000Y-54240000D01*
X110700000Y-42120000D02*
X111760000Y-42120000D01*
X112820000Y-44180000D02*
X112820000Y-54240000D01*
X110700000Y-43180000D02*
X110700000Y-42120000D01*
X110700000Y-44180000D02*
X110700000Y-54240000D01*
%TO.C,R15*%
X116840000Y-36525000D02*
X116840000Y-35575000D01*
X115920000Y-35575000D02*
X117760000Y-35575000D01*
X117760000Y-35575000D02*
X117760000Y-31735000D01*
X115920000Y-31735000D02*
X115920000Y-35575000D01*
X117760000Y-31735000D02*
X115920000Y-31735000D01*
X116840000Y-30785000D02*
X116840000Y-31735000D01*
%TO.C,R2*%
X189535000Y-27940000D02*
X190485000Y-27940000D01*
X190485000Y-27020000D02*
X190485000Y-28860000D01*
X190485000Y-28860000D02*
X194325000Y-28860000D01*
X194325000Y-27020000D02*
X190485000Y-27020000D01*
X194325000Y-28860000D02*
X194325000Y-27020000D01*
X195275000Y-27940000D02*
X194325000Y-27940000D01*
%TO.C,J9*%
X110430000Y-102810000D02*
X111760000Y-102810000D01*
X110430000Y-104140000D02*
X110430000Y-102810000D01*
X110430000Y-105410000D02*
X110430000Y-113090000D01*
X110430000Y-105410000D02*
X113090000Y-105410000D01*
X110430000Y-113090000D02*
X113090000Y-113090000D01*
X113090000Y-105410000D02*
X113090000Y-113090000D01*
%TO.C,R8*%
X193040000Y-102540000D02*
X193040000Y-103490000D01*
X193960000Y-103490000D02*
X192120000Y-103490000D01*
X192120000Y-103490000D02*
X192120000Y-107330000D01*
X193960000Y-107330000D02*
X193960000Y-103490000D01*
X192120000Y-107330000D02*
X193960000Y-107330000D01*
X193040000Y-108280000D02*
X193040000Y-107330000D01*
%TO.C,R12*%
X122250000Y-106680000D02*
X121300000Y-106680000D01*
X121300000Y-107600000D02*
X121300000Y-105760000D01*
X121300000Y-105760000D02*
X117460000Y-105760000D01*
X117460000Y-107600000D02*
X121300000Y-107600000D01*
X117460000Y-105760000D02*
X117460000Y-107600000D01*
X116510000Y-106680000D02*
X117460000Y-106680000D01*
%TO.C,U1*%
X139660000Y-84560000D02*
X139660000Y-100450000D01*
X139660000Y-84560000D02*
X149900000Y-84560000D01*
X139660000Y-100450000D02*
X149900000Y-100450000D01*
X142240000Y-100450000D02*
X142240000Y-102990000D01*
X144780000Y-100450000D02*
X144780000Y-102990000D01*
X147320000Y-100450000D02*
X147320000Y-102990000D01*
X149900000Y-84560000D02*
X149900000Y-100450000D01*
%TO.C,J8*%
X189170000Y-114360000D02*
X189170000Y-113030000D01*
X190500000Y-114360000D02*
X189170000Y-114360000D01*
X191770000Y-114360000D02*
X199450000Y-114360000D01*
X191770000Y-114360000D02*
X191770000Y-111700000D01*
X199450000Y-114360000D02*
X199450000Y-111700000D01*
X191770000Y-111700000D02*
X199450000Y-111700000D01*
%TO.C,R7*%
X195580000Y-102540000D02*
X195580000Y-103490000D01*
X196500000Y-103490000D02*
X194660000Y-103490000D01*
X194660000Y-103490000D02*
X194660000Y-107330000D01*
X196500000Y-107330000D02*
X196500000Y-103490000D01*
X194660000Y-107330000D02*
X196500000Y-107330000D01*
X195580000Y-108280000D02*
X195580000Y-107330000D01*
%TO.C,R6*%
X198120000Y-102540000D02*
X198120000Y-103490000D01*
X199040000Y-103490000D02*
X197200000Y-103490000D01*
X197200000Y-103490000D02*
X197200000Y-107330000D01*
X199040000Y-107330000D02*
X199040000Y-103490000D01*
X197200000Y-107330000D02*
X199040000Y-107330000D01*
X198120000Y-108280000D02*
X198120000Y-107330000D01*
%TO.C,R16*%
X119380000Y-36525000D02*
X119380000Y-35575000D01*
X118460000Y-35575000D02*
X120300000Y-35575000D01*
X120300000Y-35575000D02*
X120300000Y-31735000D01*
X118460000Y-31735000D02*
X118460000Y-35575000D01*
X120300000Y-31735000D02*
X118460000Y-31735000D01*
X119380000Y-30785000D02*
X119380000Y-31735000D01*
%TO.C,J13*%
X113090000Y-100390000D02*
X111760000Y-100390000D01*
X113090000Y-99060000D02*
X113090000Y-100390000D01*
X113090000Y-97790000D02*
X113090000Y-90110000D01*
X113090000Y-97790000D02*
X110430000Y-97790000D01*
X113090000Y-90110000D02*
X110430000Y-90110000D01*
X110430000Y-97790000D02*
X110430000Y-90110000D01*
%TO.C,C2*%
X140339000Y-79660000D02*
X139081000Y-79660000D01*
X140339000Y-77820000D02*
X139081000Y-77820000D01*
%TO.C,R1*%
X148580000Y-60020000D02*
X148580000Y-59070000D01*
X147660000Y-59070000D02*
X149500000Y-59070000D01*
X149500000Y-59070000D02*
X149500000Y-55230000D01*
X147660000Y-55230000D02*
X147660000Y-59070000D01*
X149500000Y-55230000D02*
X147660000Y-55230000D01*
X148580000Y-54280000D02*
X148580000Y-55230000D01*
%TO.C,C5*%
X111265000Y-84879801D02*
X111265000Y-84479801D01*
X111065000Y-84679801D02*
X111465000Y-84679801D01*
X110380000Y-82610000D02*
X114540000Y-82610000D01*
X110380000Y-82570000D02*
X114540000Y-82570000D01*
X110381000Y-82530000D02*
X114539000Y-82530000D01*
X110383000Y-82490000D02*
X114537000Y-82490000D01*
X110386000Y-82450000D02*
X114534000Y-82450000D01*
X110389000Y-82410000D02*
X111620000Y-82410000D01*
X113300000Y-82410000D02*
X114531000Y-82410000D01*
X110393000Y-82370000D02*
X111620000Y-82370000D01*
X113300000Y-82370000D02*
X114527000Y-82370000D01*
X110398000Y-82330000D02*
X111620000Y-82330000D01*
X113300000Y-82330000D02*
X114522000Y-82330000D01*
X110404000Y-82290000D02*
X111620000Y-82290000D01*
X113300000Y-82290000D02*
X114516000Y-82290000D01*
X110410000Y-82250000D02*
X111620000Y-82250000D01*
X113300000Y-82250000D02*
X114510000Y-82250000D01*
X110418000Y-82210000D02*
X111620000Y-82210000D01*
X113300000Y-82210000D02*
X114502000Y-82210000D01*
X110426000Y-82170000D02*
X111620000Y-82170000D01*
X113300000Y-82170000D02*
X114494000Y-82170000D01*
X110435000Y-82130000D02*
X111620000Y-82130000D01*
X113300000Y-82130000D02*
X114485000Y-82130000D01*
X110444000Y-82090000D02*
X111620000Y-82090000D01*
X113300000Y-82090000D02*
X114476000Y-82090000D01*
X110455000Y-82050000D02*
X111620000Y-82050000D01*
X113300000Y-82050000D02*
X114465000Y-82050000D01*
X110466000Y-82010000D02*
X111620000Y-82010000D01*
X113300000Y-82010000D02*
X114454000Y-82010000D01*
X110478000Y-81970000D02*
X111620000Y-81970000D01*
X113300000Y-81970000D02*
X114442000Y-81970000D01*
X110492000Y-81930000D02*
X111620000Y-81930000D01*
X113300000Y-81930000D02*
X114428000Y-81930000D01*
X110506000Y-81889000D02*
X111620000Y-81889000D01*
X113300000Y-81889000D02*
X114414000Y-81889000D01*
X110520000Y-81849000D02*
X111620000Y-81849000D01*
X113300000Y-81849000D02*
X114400000Y-81849000D01*
X110536000Y-81809000D02*
X111620000Y-81809000D01*
X113300000Y-81809000D02*
X114384000Y-81809000D01*
X110553000Y-81769000D02*
X111620000Y-81769000D01*
X113300000Y-81769000D02*
X114367000Y-81769000D01*
X110571000Y-81729000D02*
X111620000Y-81729000D01*
X113300000Y-81729000D02*
X114349000Y-81729000D01*
X110590000Y-81689000D02*
X111620000Y-81689000D01*
X113300000Y-81689000D02*
X114330000Y-81689000D01*
X110609000Y-81649000D02*
X111620000Y-81649000D01*
X113300000Y-81649000D02*
X114311000Y-81649000D01*
X110630000Y-81609000D02*
X111620000Y-81609000D01*
X113300000Y-81609000D02*
X114290000Y-81609000D01*
X110652000Y-81569000D02*
X111620000Y-81569000D01*
X113300000Y-81569000D02*
X114268000Y-81569000D01*
X110675000Y-81529000D02*
X111620000Y-81529000D01*
X113300000Y-81529000D02*
X114245000Y-81529000D01*
X110700000Y-81489000D02*
X111620000Y-81489000D01*
X113300000Y-81489000D02*
X114220000Y-81489000D01*
X110725000Y-81449000D02*
X111620000Y-81449000D01*
X113300000Y-81449000D02*
X114195000Y-81449000D01*
X110752000Y-81409000D02*
X111620000Y-81409000D01*
X113300000Y-81409000D02*
X114168000Y-81409000D01*
X110780000Y-81369000D02*
X111620000Y-81369000D01*
X113300000Y-81369000D02*
X114140000Y-81369000D01*
X110810000Y-81329000D02*
X111620000Y-81329000D01*
X113300000Y-81329000D02*
X114110000Y-81329000D01*
X110841000Y-81289000D02*
X111620000Y-81289000D01*
X113300000Y-81289000D02*
X114079000Y-81289000D01*
X110873000Y-81249000D02*
X111620000Y-81249000D01*
X113300000Y-81249000D02*
X114047000Y-81249000D01*
X110908000Y-81209000D02*
X111620000Y-81209000D01*
X113300000Y-81209000D02*
X114012000Y-81209000D01*
X110944000Y-81169000D02*
X111620000Y-81169000D01*
X113300000Y-81169000D02*
X113976000Y-81169000D01*
X110982000Y-81129000D02*
X111620000Y-81129000D01*
X113300000Y-81129000D02*
X113938000Y-81129000D01*
X111022000Y-81089000D02*
X111620000Y-81089000D01*
X113300000Y-81089000D02*
X113898000Y-81089000D01*
X111064000Y-81049000D02*
X111620000Y-81049000D01*
X113300000Y-81049000D02*
X113856000Y-81049000D01*
X111109000Y-81009000D02*
X111620000Y-81009000D01*
X113300000Y-81009000D02*
X113811000Y-81009000D01*
X111156000Y-80969000D02*
X111620000Y-80969000D01*
X113300000Y-80969000D02*
X113764000Y-80969000D01*
X111206000Y-80929000D02*
X111620000Y-80929000D01*
X113300000Y-80929000D02*
X113714000Y-80929000D01*
X111260000Y-80889000D02*
X111620000Y-80889000D01*
X113300000Y-80889000D02*
X113660000Y-80889000D01*
X111318000Y-80849000D02*
X111620000Y-80849000D01*
X113300000Y-80849000D02*
X113602000Y-80849000D01*
X111380000Y-80809000D02*
X111620000Y-80809000D01*
X113300000Y-80809000D02*
X113540000Y-80809000D01*
X111447000Y-80769000D02*
X113473000Y-80769000D01*
X111520000Y-80729000D02*
X113400000Y-80729000D01*
X111601000Y-80689000D02*
X113319000Y-80689000D01*
X111692000Y-80649000D02*
X113228000Y-80649000D01*
X111796000Y-80609000D02*
X113124000Y-80609000D01*
X111923000Y-80569000D02*
X112997000Y-80569000D01*
X112090000Y-80529000D02*
X112830000Y-80529000D01*
X114580000Y-82610000D02*
G75*
G03*
X114580000Y-82610000I-2120000J0D01*
G01*
%TO.C,C4*%
X201155000Y-54820199D02*
X201155000Y-55220199D01*
X201355000Y-55020199D02*
X200955000Y-55020199D01*
X202040000Y-57090000D02*
X197880000Y-57090000D01*
X202040000Y-57130000D02*
X197880000Y-57130000D01*
X202039000Y-57170000D02*
X197881000Y-57170000D01*
X202037000Y-57210000D02*
X197883000Y-57210000D01*
X202034000Y-57250000D02*
X197886000Y-57250000D01*
X202031000Y-57290000D02*
X200800000Y-57290000D01*
X199120000Y-57290000D02*
X197889000Y-57290000D01*
X202027000Y-57330000D02*
X200800000Y-57330000D01*
X199120000Y-57330000D02*
X197893000Y-57330000D01*
X202022000Y-57370000D02*
X200800000Y-57370000D01*
X199120000Y-57370000D02*
X197898000Y-57370000D01*
X202016000Y-57410000D02*
X200800000Y-57410000D01*
X199120000Y-57410000D02*
X197904000Y-57410000D01*
X202010000Y-57450000D02*
X200800000Y-57450000D01*
X199120000Y-57450000D02*
X197910000Y-57450000D01*
X202002000Y-57490000D02*
X200800000Y-57490000D01*
X199120000Y-57490000D02*
X197918000Y-57490000D01*
X201994000Y-57530000D02*
X200800000Y-57530000D01*
X199120000Y-57530000D02*
X197926000Y-57530000D01*
X201985000Y-57570000D02*
X200800000Y-57570000D01*
X199120000Y-57570000D02*
X197935000Y-57570000D01*
X201976000Y-57610000D02*
X200800000Y-57610000D01*
X199120000Y-57610000D02*
X197944000Y-57610000D01*
X201965000Y-57650000D02*
X200800000Y-57650000D01*
X199120000Y-57650000D02*
X197955000Y-57650000D01*
X201954000Y-57690000D02*
X200800000Y-57690000D01*
X199120000Y-57690000D02*
X197966000Y-57690000D01*
X201942000Y-57730000D02*
X200800000Y-57730000D01*
X199120000Y-57730000D02*
X197978000Y-57730000D01*
X201928000Y-57770000D02*
X200800000Y-57770000D01*
X199120000Y-57770000D02*
X197992000Y-57770000D01*
X201914000Y-57811000D02*
X200800000Y-57811000D01*
X199120000Y-57811000D02*
X198006000Y-57811000D01*
X201900000Y-57851000D02*
X200800000Y-57851000D01*
X199120000Y-57851000D02*
X198020000Y-57851000D01*
X201884000Y-57891000D02*
X200800000Y-57891000D01*
X199120000Y-57891000D02*
X198036000Y-57891000D01*
X201867000Y-57931000D02*
X200800000Y-57931000D01*
X199120000Y-57931000D02*
X198053000Y-57931000D01*
X201849000Y-57971000D02*
X200800000Y-57971000D01*
X199120000Y-57971000D02*
X198071000Y-57971000D01*
X201830000Y-58011000D02*
X200800000Y-58011000D01*
X199120000Y-58011000D02*
X198090000Y-58011000D01*
X201811000Y-58051000D02*
X200800000Y-58051000D01*
X199120000Y-58051000D02*
X198109000Y-58051000D01*
X201790000Y-58091000D02*
X200800000Y-58091000D01*
X199120000Y-58091000D02*
X198130000Y-58091000D01*
X201768000Y-58131000D02*
X200800000Y-58131000D01*
X199120000Y-58131000D02*
X198152000Y-58131000D01*
X201745000Y-58171000D02*
X200800000Y-58171000D01*
X199120000Y-58171000D02*
X198175000Y-58171000D01*
X201720000Y-58211000D02*
X200800000Y-58211000D01*
X199120000Y-58211000D02*
X198200000Y-58211000D01*
X201695000Y-58251000D02*
X200800000Y-58251000D01*
X199120000Y-58251000D02*
X198225000Y-58251000D01*
X201668000Y-58291000D02*
X200800000Y-58291000D01*
X199120000Y-58291000D02*
X198252000Y-58291000D01*
X201640000Y-58331000D02*
X200800000Y-58331000D01*
X199120000Y-58331000D02*
X198280000Y-58331000D01*
X201610000Y-58371000D02*
X200800000Y-58371000D01*
X199120000Y-58371000D02*
X198310000Y-58371000D01*
X201579000Y-58411000D02*
X200800000Y-58411000D01*
X199120000Y-58411000D02*
X198341000Y-58411000D01*
X201547000Y-58451000D02*
X200800000Y-58451000D01*
X199120000Y-58451000D02*
X198373000Y-58451000D01*
X201512000Y-58491000D02*
X200800000Y-58491000D01*
X199120000Y-58491000D02*
X198408000Y-58491000D01*
X201476000Y-58531000D02*
X200800000Y-58531000D01*
X199120000Y-58531000D02*
X198444000Y-58531000D01*
X201438000Y-58571000D02*
X200800000Y-58571000D01*
X199120000Y-58571000D02*
X198482000Y-58571000D01*
X201398000Y-58611000D02*
X200800000Y-58611000D01*
X199120000Y-58611000D02*
X198522000Y-58611000D01*
X201356000Y-58651000D02*
X200800000Y-58651000D01*
X199120000Y-58651000D02*
X198564000Y-58651000D01*
X201311000Y-58691000D02*
X200800000Y-58691000D01*
X199120000Y-58691000D02*
X198609000Y-58691000D01*
X201264000Y-58731000D02*
X200800000Y-58731000D01*
X199120000Y-58731000D02*
X198656000Y-58731000D01*
X201214000Y-58771000D02*
X200800000Y-58771000D01*
X199120000Y-58771000D02*
X198706000Y-58771000D01*
X201160000Y-58811000D02*
X200800000Y-58811000D01*
X199120000Y-58811000D02*
X198760000Y-58811000D01*
X201102000Y-58851000D02*
X200800000Y-58851000D01*
X199120000Y-58851000D02*
X198818000Y-58851000D01*
X201040000Y-58891000D02*
X200800000Y-58891000D01*
X199120000Y-58891000D02*
X198880000Y-58891000D01*
X200973000Y-58931000D02*
X198947000Y-58931000D01*
X200900000Y-58971000D02*
X199020000Y-58971000D01*
X200819000Y-59011000D02*
X199101000Y-59011000D01*
X200728000Y-59051000D02*
X199192000Y-59051000D01*
X200624000Y-59091000D02*
X199296000Y-59091000D01*
X200497000Y-59131000D02*
X199423000Y-59131000D01*
X200330000Y-59171000D02*
X199590000Y-59171000D01*
X202080000Y-57090000D02*
G75*
G03*
X202080000Y-57090000I-2120000J0D01*
G01*
%TO.C,U2*%
X151070000Y-51950000D02*
X151070000Y-87750000D01*
X151070000Y-87750000D02*
X161350000Y-87750000D01*
X153560000Y-52010000D02*
X153560000Y-87690000D01*
X153560000Y-87690000D02*
X158860000Y-87690000D01*
X155210000Y-52010000D02*
X153560000Y-52010000D01*
X158860000Y-52010000D02*
X157210000Y-52010000D01*
X158860000Y-87690000D02*
X158860000Y-52010000D01*
X161350000Y-51950000D02*
X151070000Y-51950000D01*
X161350000Y-87750000D02*
X161350000Y-51950000D01*
X155210000Y-52010000D02*
G75*
G03*
X157210000Y-52010000I1000000J0D01*
G01*
%TO.C,R11*%
X122250000Y-109220000D02*
X121300000Y-109220000D01*
X121300000Y-110140000D02*
X121300000Y-108300000D01*
X121300000Y-108300000D02*
X117460000Y-108300000D01*
X117460000Y-110140000D02*
X121300000Y-110140000D01*
X117460000Y-108300000D02*
X117460000Y-110140000D01*
X116510000Y-109220000D02*
X117460000Y-109220000D01*
%TO.C,J6*%
X173930000Y-49470000D02*
X175260000Y-49470000D01*
X173930000Y-50800000D02*
X173930000Y-49470000D01*
X173930000Y-52070000D02*
X173930000Y-87690000D01*
X173930000Y-52070000D02*
X176590000Y-52070000D01*
X173930000Y-87690000D02*
X176590000Y-87690000D01*
X176590000Y-52070000D02*
X176590000Y-87690000D01*
%TO.C,R5*%
X189535000Y-35560000D02*
X190485000Y-35560000D01*
X190485000Y-34640000D02*
X190485000Y-36480000D01*
X190485000Y-36480000D02*
X194325000Y-36480000D01*
X194325000Y-34640000D02*
X190485000Y-34640000D01*
X194325000Y-36480000D02*
X194325000Y-34640000D01*
X195275000Y-35560000D02*
X194325000Y-35560000D01*
%TO.C,J7*%
X201355000Y-36890000D02*
X200025000Y-36890000D01*
X201355000Y-35560000D02*
X201355000Y-36890000D01*
X201355000Y-34290000D02*
X201355000Y-26610000D01*
X201355000Y-34290000D02*
X198695000Y-34290000D01*
X201355000Y-26610000D02*
X198695000Y-26610000D01*
X198695000Y-34290000D02*
X198695000Y-26610000D01*
%TO.C,J12*%
X186750000Y-111700000D02*
X186750000Y-113030000D01*
X185420000Y-111700000D02*
X186750000Y-111700000D01*
X184150000Y-111700000D02*
X176470000Y-111700000D01*
X184150000Y-111700000D02*
X184150000Y-114360000D01*
X176470000Y-111700000D02*
X176470000Y-114360000D01*
X184150000Y-114360000D02*
X176470000Y-114360000D01*
%TO.C,U4*%
X126490000Y-85000000D02*
X126490000Y-64440000D01*
X126490000Y-64440000D02*
X116210000Y-64440000D01*
X124000000Y-84940000D02*
X124000000Y-64500000D01*
X124000000Y-64500000D02*
X118700000Y-64500000D01*
X122350000Y-84940000D02*
X124000000Y-84940000D01*
X118700000Y-84940000D02*
X120350000Y-84940000D01*
X118700000Y-64500000D02*
X118700000Y-84940000D01*
X116210000Y-85000000D02*
X126490000Y-85000000D01*
X116210000Y-64440000D02*
X116210000Y-85000000D01*
X122350000Y-84940000D02*
G75*
G03*
X120350000Y-84940000I-1000000J0D01*
G01*
%TO.C,R14*%
X114300000Y-36525000D02*
X114300000Y-35575000D01*
X113380000Y-35575000D02*
X115220000Y-35575000D01*
X115220000Y-35575000D02*
X115220000Y-31735000D01*
X113380000Y-31735000D02*
X113380000Y-35575000D01*
X115220000Y-31735000D02*
X113380000Y-31735000D01*
X114300000Y-30785000D02*
X114300000Y-31735000D01*
%TO.C,R3*%
X189535000Y-30480000D02*
X190485000Y-30480000D01*
X190485000Y-29560000D02*
X190485000Y-31400000D01*
X190485000Y-31400000D02*
X194325000Y-31400000D01*
X194325000Y-29560000D02*
X190485000Y-29560000D01*
X194325000Y-31400000D02*
X194325000Y-29560000D01*
X195275000Y-30480000D02*
X194325000Y-30480000D01*
%TO.C,C1*%
X139041000Y-72740000D02*
X140299000Y-72740000D01*
X139041000Y-74580000D02*
X140299000Y-74580000D01*
%TO.C,R10*%
X122250000Y-111760000D02*
X121300000Y-111760000D01*
X121300000Y-112680000D02*
X121300000Y-110840000D01*
X121300000Y-110840000D02*
X117460000Y-110840000D01*
X117460000Y-112680000D02*
X121300000Y-112680000D01*
X117460000Y-110840000D02*
X117460000Y-112680000D01*
X116510000Y-111760000D02*
X117460000Y-111760000D01*
%TO.C,J14*%
X125670000Y-27365000D02*
X125670000Y-26035000D01*
X127000000Y-27365000D02*
X125670000Y-27365000D01*
X128270000Y-27365000D02*
X135950000Y-27365000D01*
X128270000Y-27365000D02*
X128270000Y-24705000D01*
X135950000Y-27365000D02*
X135950000Y-24705000D01*
X128270000Y-24705000D02*
X135950000Y-24705000D01*
%TO.C,R17*%
X121920000Y-36525000D02*
X121920000Y-35575000D01*
X121000000Y-35575000D02*
X122840000Y-35575000D01*
X122840000Y-35575000D02*
X122840000Y-31735000D01*
X121000000Y-31735000D02*
X121000000Y-35575000D01*
X122840000Y-31735000D02*
X121000000Y-31735000D01*
X121920000Y-30785000D02*
X121920000Y-31735000D01*
%TO.C,R9*%
X190500000Y-102540000D02*
X190500000Y-103490000D01*
X191420000Y-103490000D02*
X189580000Y-103490000D01*
X189580000Y-103490000D02*
X189580000Y-107330000D01*
X191420000Y-107330000D02*
X191420000Y-103490000D01*
X189580000Y-107330000D02*
X191420000Y-107330000D01*
X190500000Y-108280000D02*
X190500000Y-107330000D01*
%TO.C,R4*%
X189535000Y-33020000D02*
X190485000Y-33020000D01*
X190485000Y-32100000D02*
X190485000Y-33940000D01*
X190485000Y-33940000D02*
X194325000Y-33940000D01*
X194325000Y-32100000D02*
X190485000Y-32100000D01*
X194325000Y-33940000D02*
X194325000Y-32100000D01*
X195275000Y-33020000D02*
X194325000Y-33020000D01*
%TO.C,J5*%
X166160000Y-24340000D02*
X166160000Y-25400000D01*
X165100000Y-24340000D02*
X166160000Y-24340000D01*
X164100000Y-24340000D02*
X162040000Y-24340000D01*
X164100000Y-24340000D02*
X164100000Y-26460000D01*
X162040000Y-24340000D02*
X162040000Y-26460000D01*
X164100000Y-26460000D02*
X162040000Y-26460000D01*
%TO.C,J10*%
X123250000Y-24705000D02*
X123250000Y-26035000D01*
X121920000Y-24705000D02*
X123250000Y-24705000D01*
X120650000Y-24705000D02*
X112970000Y-24705000D01*
X120650000Y-24705000D02*
X120650000Y-27365000D01*
X112970000Y-24705000D02*
X112970000Y-27365000D01*
X120650000Y-27365000D02*
X112970000Y-27365000D01*
%TO.C,C3*%
X165165000Y-71849801D02*
X165165000Y-71449801D01*
X164965000Y-71649801D02*
X165365000Y-71649801D01*
X164280000Y-69580000D02*
X168440000Y-69580000D01*
X164280000Y-69540000D02*
X168440000Y-69540000D01*
X164281000Y-69500000D02*
X168439000Y-69500000D01*
X164283000Y-69460000D02*
X168437000Y-69460000D01*
X164286000Y-69420000D02*
X168434000Y-69420000D01*
X164289000Y-69380000D02*
X165520000Y-69380000D01*
X167200000Y-69380000D02*
X168431000Y-69380000D01*
X164293000Y-69340000D02*
X165520000Y-69340000D01*
X167200000Y-69340000D02*
X168427000Y-69340000D01*
X164298000Y-69300000D02*
X165520000Y-69300000D01*
X167200000Y-69300000D02*
X168422000Y-69300000D01*
X164304000Y-69260000D02*
X165520000Y-69260000D01*
X167200000Y-69260000D02*
X168416000Y-69260000D01*
X164310000Y-69220000D02*
X165520000Y-69220000D01*
X167200000Y-69220000D02*
X168410000Y-69220000D01*
X164318000Y-69180000D02*
X165520000Y-69180000D01*
X167200000Y-69180000D02*
X168402000Y-69180000D01*
X164326000Y-69140000D02*
X165520000Y-69140000D01*
X167200000Y-69140000D02*
X168394000Y-69140000D01*
X164335000Y-69100000D02*
X165520000Y-69100000D01*
X167200000Y-69100000D02*
X168385000Y-69100000D01*
X164344000Y-69060000D02*
X165520000Y-69060000D01*
X167200000Y-69060000D02*
X168376000Y-69060000D01*
X164355000Y-69020000D02*
X165520000Y-69020000D01*
X167200000Y-69020000D02*
X168365000Y-69020000D01*
X164366000Y-68980000D02*
X165520000Y-68980000D01*
X167200000Y-68980000D02*
X168354000Y-68980000D01*
X164378000Y-68940000D02*
X165520000Y-68940000D01*
X167200000Y-68940000D02*
X168342000Y-68940000D01*
X164392000Y-68900000D02*
X165520000Y-68900000D01*
X167200000Y-68900000D02*
X168328000Y-68900000D01*
X164406000Y-68859000D02*
X165520000Y-68859000D01*
X167200000Y-68859000D02*
X168314000Y-68859000D01*
X164420000Y-68819000D02*
X165520000Y-68819000D01*
X167200000Y-68819000D02*
X168300000Y-68819000D01*
X164436000Y-68779000D02*
X165520000Y-68779000D01*
X167200000Y-68779000D02*
X168284000Y-68779000D01*
X164453000Y-68739000D02*
X165520000Y-68739000D01*
X167200000Y-68739000D02*
X168267000Y-68739000D01*
X164471000Y-68699000D02*
X165520000Y-68699000D01*
X167200000Y-68699000D02*
X168249000Y-68699000D01*
X164490000Y-68659000D02*
X165520000Y-68659000D01*
X167200000Y-68659000D02*
X168230000Y-68659000D01*
X164509000Y-68619000D02*
X165520000Y-68619000D01*
X167200000Y-68619000D02*
X168211000Y-68619000D01*
X164530000Y-68579000D02*
X165520000Y-68579000D01*
X167200000Y-68579000D02*
X168190000Y-68579000D01*
X164552000Y-68539000D02*
X165520000Y-68539000D01*
X167200000Y-68539000D02*
X168168000Y-68539000D01*
X164575000Y-68499000D02*
X165520000Y-68499000D01*
X167200000Y-68499000D02*
X168145000Y-68499000D01*
X164600000Y-68459000D02*
X165520000Y-68459000D01*
X167200000Y-68459000D02*
X168120000Y-68459000D01*
X164625000Y-68419000D02*
X165520000Y-68419000D01*
X167200000Y-68419000D02*
X168095000Y-68419000D01*
X164652000Y-68379000D02*
X165520000Y-68379000D01*
X167200000Y-68379000D02*
X168068000Y-68379000D01*
X164680000Y-68339000D02*
X165520000Y-68339000D01*
X167200000Y-68339000D02*
X168040000Y-68339000D01*
X164710000Y-68299000D02*
X165520000Y-68299000D01*
X167200000Y-68299000D02*
X168010000Y-68299000D01*
X164741000Y-68259000D02*
X165520000Y-68259000D01*
X167200000Y-68259000D02*
X167979000Y-68259000D01*
X164773000Y-68219000D02*
X165520000Y-68219000D01*
X167200000Y-68219000D02*
X167947000Y-68219000D01*
X164808000Y-68179000D02*
X165520000Y-68179000D01*
X167200000Y-68179000D02*
X167912000Y-68179000D01*
X164844000Y-68139000D02*
X165520000Y-68139000D01*
X167200000Y-68139000D02*
X167876000Y-68139000D01*
X164882000Y-68099000D02*
X165520000Y-68099000D01*
X167200000Y-68099000D02*
X167838000Y-68099000D01*
X164922000Y-68059000D02*
X165520000Y-68059000D01*
X167200000Y-68059000D02*
X167798000Y-68059000D01*
X164964000Y-68019000D02*
X165520000Y-68019000D01*
X167200000Y-68019000D02*
X167756000Y-68019000D01*
X165009000Y-67979000D02*
X165520000Y-67979000D01*
X167200000Y-67979000D02*
X167711000Y-67979000D01*
X165056000Y-67939000D02*
X165520000Y-67939000D01*
X167200000Y-67939000D02*
X167664000Y-67939000D01*
X165106000Y-67899000D02*
X165520000Y-67899000D01*
X167200000Y-67899000D02*
X167614000Y-67899000D01*
X165160000Y-67859000D02*
X165520000Y-67859000D01*
X167200000Y-67859000D02*
X167560000Y-67859000D01*
X165218000Y-67819000D02*
X165520000Y-67819000D01*
X167200000Y-67819000D02*
X167502000Y-67819000D01*
X165280000Y-67779000D02*
X165520000Y-67779000D01*
X167200000Y-67779000D02*
X167440000Y-67779000D01*
X165347000Y-67739000D02*
X167373000Y-67739000D01*
X165420000Y-67699000D02*
X167300000Y-67699000D01*
X165501000Y-67659000D02*
X167219000Y-67659000D01*
X165592000Y-67619000D02*
X167128000Y-67619000D01*
X165696000Y-67579000D02*
X167024000Y-67579000D01*
X165823000Y-67539000D02*
X166897000Y-67539000D01*
X165990000Y-67499000D02*
X166730000Y-67499000D01*
X168480000Y-69580000D02*
G75*
G03*
X168480000Y-69580000I-2120000J0D01*
G01*
%TO.C,R13*%
X122250000Y-104140000D02*
X121300000Y-104140000D01*
X121300000Y-105060000D02*
X121300000Y-103220000D01*
X121300000Y-103220000D02*
X117460000Y-103220000D01*
X117460000Y-105060000D02*
X121300000Y-105060000D01*
X117460000Y-103220000D02*
X117460000Y-105060000D01*
X116510000Y-104140000D02*
X117460000Y-104140000D01*
%TO.C,Y1*%
X143515000Y-79225000D02*
X143515000Y-72975000D01*
X148565000Y-79225000D02*
X148565000Y-72975000D01*
X143515000Y-79225000D02*
G75*
G03*
X148565000Y-79225000I2525000J0D01*
G01*
X148565000Y-72975000D02*
G75*
G03*
X143515000Y-72975000I-2525000J0D01*
G01*
%TO.C,U3*%
X185930000Y-54700000D02*
X185930000Y-75260000D01*
X185930000Y-75260000D02*
X196210000Y-75260000D01*
X188420000Y-54760000D02*
X188420000Y-75200000D01*
X188420000Y-75200000D02*
X193720000Y-75200000D01*
X190070000Y-54760000D02*
X188420000Y-54760000D01*
X193720000Y-54760000D02*
X192070000Y-54760000D01*
X193720000Y-75200000D02*
X193720000Y-54760000D01*
X196210000Y-54700000D02*
X185930000Y-54700000D01*
X196210000Y-75260000D02*
X196210000Y-54700000D01*
X190070000Y-54760000D02*
G75*
G03*
X192070000Y-54760000I1000000J0D01*
G01*
%TO.C,J11*%
X198695000Y-39310000D02*
X200025000Y-39310000D01*
X198695000Y-40640000D02*
X198695000Y-39310000D01*
X198695000Y-41910000D02*
X198695000Y-49590000D01*
X198695000Y-41910000D02*
X201355000Y-41910000D01*
X198695000Y-49590000D02*
X201355000Y-49590000D01*
X201355000Y-41910000D02*
X201355000Y-49590000D01*
%TD*%
M02*
