%TF.GenerationSoftware,KiCad,Pcbnew,7.0.8*%
%TF.CreationDate,2023-10-10T00:58:14-07:00*%
%TF.ProjectId,htpm_control_numericals,6874706d-5f63-46f6-9e74-726f6c5f6e75,1*%
%TF.SameCoordinates,Original*%
%TF.FileFunction,Legend,Top*%
%TF.FilePolarity,Positive*%
%FSLAX46Y46*%
G04 Gerber Fmt 4.6, Leading zero omitted, Abs format (unit mm)*
G04 Created by KiCad (PCBNEW 7.0.8) date 2023-10-10 00:58:14*
%MOMM*%
%LPD*%
G01*
G04 APERTURE LIST*
%ADD10C,0.150000*%
%ADD11C,0.120000*%
G04 APERTURE END LIST*
D10*
X108458095Y-109984819D02*
X108458095Y-108984819D01*
X108458095Y-109461009D02*
X109029523Y-109461009D01*
X109029523Y-109984819D02*
X109029523Y-108984819D01*
X109458095Y-109080057D02*
X109505714Y-109032438D01*
X109505714Y-109032438D02*
X109600952Y-108984819D01*
X109600952Y-108984819D02*
X109839047Y-108984819D01*
X109839047Y-108984819D02*
X109934285Y-109032438D01*
X109934285Y-109032438D02*
X109981904Y-109080057D01*
X109981904Y-109080057D02*
X110029523Y-109175295D01*
X110029523Y-109175295D02*
X110029523Y-109270533D01*
X110029523Y-109270533D02*
X109981904Y-109413390D01*
X109981904Y-109413390D02*
X109410476Y-109984819D01*
X109410476Y-109984819D02*
X110029523Y-109984819D01*
X100838095Y-43944819D02*
X100838095Y-42944819D01*
X100838095Y-43421009D02*
X101409523Y-43421009D01*
X101409523Y-43944819D02*
X101409523Y-42944819D01*
X102409523Y-43944819D02*
X101838095Y-43944819D01*
X102123809Y-43944819D02*
X102123809Y-42944819D01*
X102123809Y-42944819D02*
X102028571Y-43087676D01*
X102028571Y-43087676D02*
X101933333Y-43182914D01*
X101933333Y-43182914D02*
X101838095Y-43230533D01*
X134453333Y-120454819D02*
X134120000Y-119978628D01*
X133881905Y-120454819D02*
X133881905Y-119454819D01*
X133881905Y-119454819D02*
X134262857Y-119454819D01*
X134262857Y-119454819D02*
X134358095Y-119502438D01*
X134358095Y-119502438D02*
X134405714Y-119550057D01*
X134405714Y-119550057D02*
X134453333Y-119645295D01*
X134453333Y-119645295D02*
X134453333Y-119788152D01*
X134453333Y-119788152D02*
X134405714Y-119883390D01*
X134405714Y-119883390D02*
X134358095Y-119931009D01*
X134358095Y-119931009D02*
X134262857Y-119978628D01*
X134262857Y-119978628D02*
X133881905Y-119978628D01*
X134834286Y-119550057D02*
X134881905Y-119502438D01*
X134881905Y-119502438D02*
X134977143Y-119454819D01*
X134977143Y-119454819D02*
X135215238Y-119454819D01*
X135215238Y-119454819D02*
X135310476Y-119502438D01*
X135310476Y-119502438D02*
X135358095Y-119550057D01*
X135358095Y-119550057D02*
X135405714Y-119645295D01*
X135405714Y-119645295D02*
X135405714Y-119740533D01*
X135405714Y-119740533D02*
X135358095Y-119883390D01*
X135358095Y-119883390D02*
X134786667Y-120454819D01*
X134786667Y-120454819D02*
X135405714Y-120454819D01*
X175093333Y-120454819D02*
X174760000Y-119978628D01*
X174521905Y-120454819D02*
X174521905Y-119454819D01*
X174521905Y-119454819D02*
X174902857Y-119454819D01*
X174902857Y-119454819D02*
X174998095Y-119502438D01*
X174998095Y-119502438D02*
X175045714Y-119550057D01*
X175045714Y-119550057D02*
X175093333Y-119645295D01*
X175093333Y-119645295D02*
X175093333Y-119788152D01*
X175093333Y-119788152D02*
X175045714Y-119883390D01*
X175045714Y-119883390D02*
X174998095Y-119931009D01*
X174998095Y-119931009D02*
X174902857Y-119978628D01*
X174902857Y-119978628D02*
X174521905Y-119978628D01*
X175426667Y-119454819D02*
X176045714Y-119454819D01*
X176045714Y-119454819D02*
X175712381Y-119835771D01*
X175712381Y-119835771D02*
X175855238Y-119835771D01*
X175855238Y-119835771D02*
X175950476Y-119883390D01*
X175950476Y-119883390D02*
X175998095Y-119931009D01*
X175998095Y-119931009D02*
X176045714Y-120026247D01*
X176045714Y-120026247D02*
X176045714Y-120264342D01*
X176045714Y-120264342D02*
X175998095Y-120359580D01*
X175998095Y-120359580D02*
X175950476Y-120407200D01*
X175950476Y-120407200D02*
X175855238Y-120454819D01*
X175855238Y-120454819D02*
X175569524Y-120454819D01*
X175569524Y-120454819D02*
X175474286Y-120407200D01*
X175474286Y-120407200D02*
X175426667Y-120359580D01*
X117774819Y-132048094D02*
X118584342Y-132048094D01*
X118584342Y-132048094D02*
X118679580Y-132000475D01*
X118679580Y-132000475D02*
X118727200Y-131952856D01*
X118727200Y-131952856D02*
X118774819Y-131857618D01*
X118774819Y-131857618D02*
X118774819Y-131667142D01*
X118774819Y-131667142D02*
X118727200Y-131571904D01*
X118727200Y-131571904D02*
X118679580Y-131524285D01*
X118679580Y-131524285D02*
X118584342Y-131476666D01*
X118584342Y-131476666D02*
X117774819Y-131476666D01*
X118774819Y-130476666D02*
X118774819Y-131048094D01*
X118774819Y-130762380D02*
X117774819Y-130762380D01*
X117774819Y-130762380D02*
X117917676Y-130857618D01*
X117917676Y-130857618D02*
X118012914Y-130952856D01*
X118012914Y-130952856D02*
X118060533Y-131048094D01*
X117774819Y-130143332D02*
X117774819Y-129524285D01*
X117774819Y-129524285D02*
X118155771Y-129857618D01*
X118155771Y-129857618D02*
X118155771Y-129714761D01*
X118155771Y-129714761D02*
X118203390Y-129619523D01*
X118203390Y-129619523D02*
X118251009Y-129571904D01*
X118251009Y-129571904D02*
X118346247Y-129524285D01*
X118346247Y-129524285D02*
X118584342Y-129524285D01*
X118584342Y-129524285D02*
X118679580Y-129571904D01*
X118679580Y-129571904D02*
X118727200Y-129619523D01*
X118727200Y-129619523D02*
X118774819Y-129714761D01*
X118774819Y-129714761D02*
X118774819Y-130000475D01*
X118774819Y-130000475D02*
X118727200Y-130095713D01*
X118727200Y-130095713D02*
X118679580Y-130143332D01*
X105918095Y-103384819D02*
X105918095Y-104194342D01*
X105918095Y-104194342D02*
X105965714Y-104289580D01*
X105965714Y-104289580D02*
X106013333Y-104337200D01*
X106013333Y-104337200D02*
X106108571Y-104384819D01*
X106108571Y-104384819D02*
X106299047Y-104384819D01*
X106299047Y-104384819D02*
X106394285Y-104337200D01*
X106394285Y-104337200D02*
X106441904Y-104289580D01*
X106441904Y-104289580D02*
X106489523Y-104194342D01*
X106489523Y-104194342D02*
X106489523Y-103384819D01*
X107489523Y-104384819D02*
X106918095Y-104384819D01*
X107203809Y-104384819D02*
X107203809Y-103384819D01*
X107203809Y-103384819D02*
X107108571Y-103527676D01*
X107108571Y-103527676D02*
X107013333Y-103622914D01*
X107013333Y-103622914D02*
X106918095Y-103670533D01*
X100784819Y-87796666D02*
X100308628Y-88129999D01*
X100784819Y-88368094D02*
X99784819Y-88368094D01*
X99784819Y-88368094D02*
X99784819Y-87987142D01*
X99784819Y-87987142D02*
X99832438Y-87891904D01*
X99832438Y-87891904D02*
X99880057Y-87844285D01*
X99880057Y-87844285D02*
X99975295Y-87796666D01*
X99975295Y-87796666D02*
X100118152Y-87796666D01*
X100118152Y-87796666D02*
X100213390Y-87844285D01*
X100213390Y-87844285D02*
X100261009Y-87891904D01*
X100261009Y-87891904D02*
X100308628Y-87987142D01*
X100308628Y-87987142D02*
X100308628Y-88368094D01*
X100784819Y-86844285D02*
X100784819Y-87415713D01*
X100784819Y-87129999D02*
X99784819Y-87129999D01*
X99784819Y-87129999D02*
X99927676Y-87225237D01*
X99927676Y-87225237D02*
X100022914Y-87320475D01*
X100022914Y-87320475D02*
X100070533Y-87415713D01*
X158414819Y-132048094D02*
X159224342Y-132048094D01*
X159224342Y-132048094D02*
X159319580Y-132000475D01*
X159319580Y-132000475D02*
X159367200Y-131952856D01*
X159367200Y-131952856D02*
X159414819Y-131857618D01*
X159414819Y-131857618D02*
X159414819Y-131667142D01*
X159414819Y-131667142D02*
X159367200Y-131571904D01*
X159367200Y-131571904D02*
X159319580Y-131524285D01*
X159319580Y-131524285D02*
X159224342Y-131476666D01*
X159224342Y-131476666D02*
X158414819Y-131476666D01*
X159414819Y-130476666D02*
X159414819Y-131048094D01*
X159414819Y-130762380D02*
X158414819Y-130762380D01*
X158414819Y-130762380D02*
X158557676Y-130857618D01*
X158557676Y-130857618D02*
X158652914Y-130952856D01*
X158652914Y-130952856D02*
X158700533Y-131048094D01*
X158843390Y-129905237D02*
X158795771Y-130000475D01*
X158795771Y-130000475D02*
X158748152Y-130048094D01*
X158748152Y-130048094D02*
X158652914Y-130095713D01*
X158652914Y-130095713D02*
X158605295Y-130095713D01*
X158605295Y-130095713D02*
X158510057Y-130048094D01*
X158510057Y-130048094D02*
X158462438Y-130000475D01*
X158462438Y-130000475D02*
X158414819Y-129905237D01*
X158414819Y-129905237D02*
X158414819Y-129714761D01*
X158414819Y-129714761D02*
X158462438Y-129619523D01*
X158462438Y-129619523D02*
X158510057Y-129571904D01*
X158510057Y-129571904D02*
X158605295Y-129524285D01*
X158605295Y-129524285D02*
X158652914Y-129524285D01*
X158652914Y-129524285D02*
X158748152Y-129571904D01*
X158748152Y-129571904D02*
X158795771Y-129619523D01*
X158795771Y-129619523D02*
X158843390Y-129714761D01*
X158843390Y-129714761D02*
X158843390Y-129905237D01*
X158843390Y-129905237D02*
X158891009Y-130000475D01*
X158891009Y-130000475D02*
X158938628Y-130048094D01*
X158938628Y-130048094D02*
X159033866Y-130095713D01*
X159033866Y-130095713D02*
X159224342Y-130095713D01*
X159224342Y-130095713D02*
X159319580Y-130048094D01*
X159319580Y-130048094D02*
X159367200Y-130000475D01*
X159367200Y-130000475D02*
X159414819Y-129905237D01*
X159414819Y-129905237D02*
X159414819Y-129714761D01*
X159414819Y-129714761D02*
X159367200Y-129619523D01*
X159367200Y-129619523D02*
X159319580Y-129571904D01*
X159319580Y-129571904D02*
X159224342Y-129524285D01*
X159224342Y-129524285D02*
X159033866Y-129524285D01*
X159033866Y-129524285D02*
X158938628Y-129571904D01*
X158938628Y-129571904D02*
X158891009Y-129619523D01*
X158891009Y-129619523D02*
X158843390Y-129714761D01*
X95724819Y-137493333D02*
X96439104Y-137493333D01*
X96439104Y-137493333D02*
X96581961Y-137540952D01*
X96581961Y-137540952D02*
X96677200Y-137636190D01*
X96677200Y-137636190D02*
X96724819Y-137779047D01*
X96724819Y-137779047D02*
X96724819Y-137874285D01*
X96724819Y-136493333D02*
X96724819Y-137064761D01*
X96724819Y-136779047D02*
X95724819Y-136779047D01*
X95724819Y-136779047D02*
X95867676Y-136874285D01*
X95867676Y-136874285D02*
X95962914Y-136969523D01*
X95962914Y-136969523D02*
X96010533Y-137064761D01*
X123023333Y-122279580D02*
X122975714Y-122327200D01*
X122975714Y-122327200D02*
X122832857Y-122374819D01*
X122832857Y-122374819D02*
X122737619Y-122374819D01*
X122737619Y-122374819D02*
X122594762Y-122327200D01*
X122594762Y-122327200D02*
X122499524Y-122231961D01*
X122499524Y-122231961D02*
X122451905Y-122136723D01*
X122451905Y-122136723D02*
X122404286Y-121946247D01*
X122404286Y-121946247D02*
X122404286Y-121803390D01*
X122404286Y-121803390D02*
X122451905Y-121612914D01*
X122451905Y-121612914D02*
X122499524Y-121517676D01*
X122499524Y-121517676D02*
X122594762Y-121422438D01*
X122594762Y-121422438D02*
X122737619Y-121374819D01*
X122737619Y-121374819D02*
X122832857Y-121374819D01*
X122832857Y-121374819D02*
X122975714Y-121422438D01*
X122975714Y-121422438D02*
X123023333Y-121470057D01*
X123404286Y-121470057D02*
X123451905Y-121422438D01*
X123451905Y-121422438D02*
X123547143Y-121374819D01*
X123547143Y-121374819D02*
X123785238Y-121374819D01*
X123785238Y-121374819D02*
X123880476Y-121422438D01*
X123880476Y-121422438D02*
X123928095Y-121470057D01*
X123928095Y-121470057D02*
X123975714Y-121565295D01*
X123975714Y-121565295D02*
X123975714Y-121660533D01*
X123975714Y-121660533D02*
X123928095Y-121803390D01*
X123928095Y-121803390D02*
X123356667Y-122374819D01*
X123356667Y-122374819D02*
X123975714Y-122374819D01*
X163663333Y-122279580D02*
X163615714Y-122327200D01*
X163615714Y-122327200D02*
X163472857Y-122374819D01*
X163472857Y-122374819D02*
X163377619Y-122374819D01*
X163377619Y-122374819D02*
X163234762Y-122327200D01*
X163234762Y-122327200D02*
X163139524Y-122231961D01*
X163139524Y-122231961D02*
X163091905Y-122136723D01*
X163091905Y-122136723D02*
X163044286Y-121946247D01*
X163044286Y-121946247D02*
X163044286Y-121803390D01*
X163044286Y-121803390D02*
X163091905Y-121612914D01*
X163091905Y-121612914D02*
X163139524Y-121517676D01*
X163139524Y-121517676D02*
X163234762Y-121422438D01*
X163234762Y-121422438D02*
X163377619Y-121374819D01*
X163377619Y-121374819D02*
X163472857Y-121374819D01*
X163472857Y-121374819D02*
X163615714Y-121422438D01*
X163615714Y-121422438D02*
X163663333Y-121470057D01*
X163996667Y-121374819D02*
X164615714Y-121374819D01*
X164615714Y-121374819D02*
X164282381Y-121755771D01*
X164282381Y-121755771D02*
X164425238Y-121755771D01*
X164425238Y-121755771D02*
X164520476Y-121803390D01*
X164520476Y-121803390D02*
X164568095Y-121851009D01*
X164568095Y-121851009D02*
X164615714Y-121946247D01*
X164615714Y-121946247D02*
X164615714Y-122184342D01*
X164615714Y-122184342D02*
X164568095Y-122279580D01*
X164568095Y-122279580D02*
X164520476Y-122327200D01*
X164520476Y-122327200D02*
X164425238Y-122374819D01*
X164425238Y-122374819D02*
X164139524Y-122374819D01*
X164139524Y-122374819D02*
X164044286Y-122327200D01*
X164044286Y-122327200D02*
X163996667Y-122279580D01*
X98149580Y-99766666D02*
X98197200Y-99814285D01*
X98197200Y-99814285D02*
X98244819Y-99957142D01*
X98244819Y-99957142D02*
X98244819Y-100052380D01*
X98244819Y-100052380D02*
X98197200Y-100195237D01*
X98197200Y-100195237D02*
X98101961Y-100290475D01*
X98101961Y-100290475D02*
X98006723Y-100338094D01*
X98006723Y-100338094D02*
X97816247Y-100385713D01*
X97816247Y-100385713D02*
X97673390Y-100385713D01*
X97673390Y-100385713D02*
X97482914Y-100338094D01*
X97482914Y-100338094D02*
X97387676Y-100290475D01*
X97387676Y-100290475D02*
X97292438Y-100195237D01*
X97292438Y-100195237D02*
X97244819Y-100052380D01*
X97244819Y-100052380D02*
X97244819Y-99957142D01*
X97244819Y-99957142D02*
X97292438Y-99814285D01*
X97292438Y-99814285D02*
X97340057Y-99766666D01*
X98244819Y-98814285D02*
X98244819Y-99385713D01*
X98244819Y-99099999D02*
X97244819Y-99099999D01*
X97244819Y-99099999D02*
X97387676Y-99195237D01*
X97387676Y-99195237D02*
X97482914Y-99290475D01*
X97482914Y-99290475D02*
X97530533Y-99385713D01*
D11*
%TO.C,U12*%
X180810000Y-88700000D02*
X182420000Y-88700000D01*
X180330000Y-88350000D02*
X193050000Y-88350000D01*
X184947200Y-83616200D02*
X188630200Y-83616200D01*
X184769400Y-78714000D02*
X184769400Y-83616200D01*
X188808000Y-78714000D02*
X188808000Y-83616200D01*
X184947200Y-78612400D02*
X188630200Y-78612400D01*
X184769400Y-73176800D02*
X184769400Y-78536200D01*
X188808000Y-73176800D02*
X188808000Y-78536200D01*
X184947200Y-73151400D02*
X188630200Y-73151400D01*
X180330000Y-69130000D02*
X180330000Y-88350000D01*
X180330000Y-69130000D02*
X193050000Y-69130000D01*
X193050000Y-69130000D02*
X193050000Y-88350000D01*
X190152467Y-83802467D02*
G75*
G03*
X190152467Y-83802467I-472467J0D01*
G01*
%TO.C,U14*%
X180810000Y-113977500D02*
X182420000Y-113977500D01*
X180330000Y-113627500D02*
X193050000Y-113627500D01*
X184947200Y-108893700D02*
X188630200Y-108893700D01*
X184769400Y-103991500D02*
X184769400Y-108893700D01*
X188808000Y-103991500D02*
X188808000Y-108893700D01*
X184947200Y-103889900D02*
X188630200Y-103889900D01*
X184769400Y-98454300D02*
X184769400Y-103813700D01*
X188808000Y-98454300D02*
X188808000Y-103813700D01*
X184947200Y-98428900D02*
X188630200Y-98428900D01*
X180330000Y-94407500D02*
X180330000Y-113627500D01*
X180330000Y-94407500D02*
X193050000Y-94407500D01*
X193050000Y-94407500D02*
X193050000Y-113627500D01*
X190152467Y-109079967D02*
G75*
G03*
X190152467Y-109079967I-472467J0D01*
G01*
%TO.C,U16*%
X155410000Y-113977500D02*
X157020000Y-113977500D01*
X154930000Y-113627500D02*
X167650000Y-113627500D01*
X159547200Y-108893700D02*
X163230200Y-108893700D01*
X159369400Y-103991500D02*
X159369400Y-108893700D01*
X163408000Y-103991500D02*
X163408000Y-108893700D01*
X159547200Y-103889900D02*
X163230200Y-103889900D01*
X159369400Y-98454300D02*
X159369400Y-103813700D01*
X163408000Y-98454300D02*
X163408000Y-103813700D01*
X159547200Y-98428900D02*
X163230200Y-98428900D01*
X154930000Y-94407500D02*
X154930000Y-113627500D01*
X154930000Y-94407500D02*
X167650000Y-94407500D01*
X167650000Y-94407500D02*
X167650000Y-113627500D01*
X164752467Y-109079967D02*
G75*
G03*
X164752467Y-109079967I-472467J0D01*
G01*
%TO.C,U11*%
X168110000Y-88700000D02*
X169720000Y-88700000D01*
X167630000Y-88350000D02*
X180350000Y-88350000D01*
X172247200Y-83616200D02*
X175930200Y-83616200D01*
X172069400Y-78714000D02*
X172069400Y-83616200D01*
X176108000Y-78714000D02*
X176108000Y-83616200D01*
X172247200Y-78612400D02*
X175930200Y-78612400D01*
X172069400Y-73176800D02*
X172069400Y-78536200D01*
X176108000Y-73176800D02*
X176108000Y-78536200D01*
X172247200Y-73151400D02*
X175930200Y-73151400D01*
X167630000Y-69130000D02*
X167630000Y-88350000D01*
X167630000Y-69130000D02*
X180350000Y-69130000D01*
X180350000Y-69130000D02*
X180350000Y-88350000D01*
X177452467Y-83802467D02*
G75*
G03*
X177452467Y-83802467I-472467J0D01*
G01*
%TO.C,U17*%
X142710000Y-113977500D02*
X144320000Y-113977500D01*
X142230000Y-113627500D02*
X154950000Y-113627500D01*
X146847200Y-108893700D02*
X150530200Y-108893700D01*
X146669400Y-103991500D02*
X146669400Y-108893700D01*
X150708000Y-103991500D02*
X150708000Y-108893700D01*
X146847200Y-103889900D02*
X150530200Y-103889900D01*
X146669400Y-98454300D02*
X146669400Y-103813700D01*
X150708000Y-98454300D02*
X150708000Y-103813700D01*
X146847200Y-98428900D02*
X150530200Y-98428900D01*
X142230000Y-94407500D02*
X142230000Y-113627500D01*
X142230000Y-94407500D02*
X154950000Y-94407500D01*
X154950000Y-94407500D02*
X154950000Y-113627500D01*
X152052467Y-109079967D02*
G75*
G03*
X152052467Y-109079967I-472467J0D01*
G01*
%TO.C,R2*%
X131750000Y-121920000D02*
X132700000Y-121920000D01*
X132700000Y-121000000D02*
X132700000Y-122840000D01*
X132700000Y-122840000D02*
X136540000Y-122840000D01*
X136540000Y-121000000D02*
X132700000Y-121000000D01*
X136540000Y-122840000D02*
X136540000Y-121000000D01*
X137490000Y-121920000D02*
X136540000Y-121920000D01*
%TO.C,R3*%
X172390000Y-121920000D02*
X173340000Y-121920000D01*
X173340000Y-121000000D02*
X173340000Y-122840000D01*
X173340000Y-122840000D02*
X177180000Y-122840000D01*
X177180000Y-121000000D02*
X173340000Y-121000000D01*
X177180000Y-122840000D02*
X177180000Y-121000000D01*
X178130000Y-121920000D02*
X177180000Y-121920000D01*
%TO.C,U13*%
X119260000Y-135950000D02*
X149980000Y-135950000D01*
X149980000Y-135950000D02*
X149980000Y-125670000D01*
X119320000Y-133460000D02*
X149920000Y-133460000D01*
X149920000Y-133460000D02*
X149920000Y-128160000D01*
X119320000Y-131810000D02*
X119320000Y-133460000D01*
X119320000Y-128160000D02*
X119320000Y-129810000D01*
X149920000Y-128160000D02*
X119320000Y-128160000D01*
X119260000Y-125670000D02*
X119260000Y-135950000D01*
X149980000Y-125670000D02*
X119260000Y-125670000D01*
X119320000Y-131810000D02*
G75*
G03*
X119320000Y-129810000I0J1000000D01*
G01*
%TO.C,U1*%
X111820000Y-102990000D02*
X111820000Y-72270000D01*
X111820000Y-72270000D02*
X101540000Y-72270000D01*
X109330000Y-102930000D02*
X109330000Y-72330000D01*
X109330000Y-72330000D02*
X104030000Y-72330000D01*
X107680000Y-102930000D02*
X109330000Y-102930000D01*
X104030000Y-102930000D02*
X105680000Y-102930000D01*
X104030000Y-72330000D02*
X104030000Y-102930000D01*
X101540000Y-102990000D02*
X111820000Y-102990000D01*
X101540000Y-72270000D02*
X101540000Y-102990000D01*
X107680000Y-102930000D02*
G75*
G03*
X105680000Y-102930000I-1000000J0D01*
G01*
%TO.C,R1*%
X97790000Y-90500000D02*
X97790000Y-89550000D01*
X96870000Y-89550000D02*
X98710000Y-89550000D01*
X98710000Y-89550000D02*
X98710000Y-85710000D01*
X96870000Y-85710000D02*
X96870000Y-89550000D01*
X98710000Y-85710000D02*
X96870000Y-85710000D01*
X97790000Y-84760000D02*
X97790000Y-85710000D01*
%TO.C,U5*%
X152870000Y-63177500D02*
X154480000Y-63177500D01*
X152390000Y-62827500D02*
X165110000Y-62827500D01*
X157007200Y-58093700D02*
X160690200Y-58093700D01*
X156829400Y-53191500D02*
X156829400Y-58093700D01*
X160868000Y-53191500D02*
X160868000Y-58093700D01*
X157007200Y-53089900D02*
X160690200Y-53089900D01*
X156829400Y-47654300D02*
X156829400Y-53013700D01*
X160868000Y-47654300D02*
X160868000Y-53013700D01*
X157007200Y-47628900D02*
X160690200Y-47628900D01*
X152390000Y-43607500D02*
X152390000Y-62827500D01*
X152390000Y-43607500D02*
X165110000Y-43607500D01*
X165110000Y-43607500D02*
X165110000Y-62827500D01*
X162212467Y-58279967D02*
G75*
G03*
X162212467Y-58279967I-472467J0D01*
G01*
%TO.C,U19*%
X130010000Y-113977500D02*
X131620000Y-113977500D01*
X129530000Y-113627500D02*
X142250000Y-113627500D01*
X134147200Y-108893700D02*
X137830200Y-108893700D01*
X133969400Y-103991500D02*
X133969400Y-108893700D01*
X138008000Y-103991500D02*
X138008000Y-108893700D01*
X134147200Y-103889900D02*
X137830200Y-103889900D01*
X133969400Y-98454300D02*
X133969400Y-103813700D01*
X138008000Y-98454300D02*
X138008000Y-103813700D01*
X134147200Y-98428900D02*
X137830200Y-98428900D01*
X129530000Y-94407500D02*
X129530000Y-113627500D01*
X129530000Y-94407500D02*
X142250000Y-94407500D01*
X142250000Y-94407500D02*
X142250000Y-113627500D01*
X139352467Y-109079967D02*
G75*
G03*
X139352467Y-109079967I-472467J0D01*
G01*
%TO.C,U18*%
X159900000Y-135950000D02*
X190620000Y-135950000D01*
X190620000Y-135950000D02*
X190620000Y-125670000D01*
X159960000Y-133460000D02*
X190560000Y-133460000D01*
X190560000Y-133460000D02*
X190560000Y-128160000D01*
X159960000Y-131810000D02*
X159960000Y-133460000D01*
X159960000Y-128160000D02*
X159960000Y-129810000D01*
X190560000Y-128160000D02*
X159960000Y-128160000D01*
X159900000Y-125670000D02*
X159900000Y-135950000D01*
X190620000Y-125670000D02*
X159900000Y-125670000D01*
X159960000Y-131810000D02*
G75*
G03*
X159960000Y-129810000I0J1000000D01*
G01*
%TO.C,U15*%
X168110000Y-113977500D02*
X169720000Y-113977500D01*
X167630000Y-113627500D02*
X180350000Y-113627500D01*
X172247200Y-108893700D02*
X175930200Y-108893700D01*
X172069400Y-103991500D02*
X172069400Y-108893700D01*
X176108000Y-103991500D02*
X176108000Y-108893700D01*
X172247200Y-103889900D02*
X175930200Y-103889900D01*
X172069400Y-98454300D02*
X172069400Y-103813700D01*
X176108000Y-98454300D02*
X176108000Y-103813700D01*
X172247200Y-98428900D02*
X175930200Y-98428900D01*
X167630000Y-94407500D02*
X167630000Y-113627500D01*
X167630000Y-94407500D02*
X180350000Y-94407500D01*
X180350000Y-94407500D02*
X180350000Y-113627500D01*
X177452467Y-109079967D02*
G75*
G03*
X177452467Y-109079967I-472467J0D01*
G01*
%TO.C,U9*%
X142710000Y-88700000D02*
X144320000Y-88700000D01*
X142230000Y-88350000D02*
X154950000Y-88350000D01*
X146847200Y-83616200D02*
X150530200Y-83616200D01*
X146669400Y-78714000D02*
X146669400Y-83616200D01*
X150708000Y-78714000D02*
X150708000Y-83616200D01*
X146847200Y-78612400D02*
X150530200Y-78612400D01*
X146669400Y-73176800D02*
X146669400Y-78536200D01*
X150708000Y-73176800D02*
X150708000Y-78536200D01*
X146847200Y-73151400D02*
X150530200Y-73151400D01*
X142230000Y-69130000D02*
X142230000Y-88350000D01*
X142230000Y-69130000D02*
X154950000Y-69130000D01*
X154950000Y-69130000D02*
X154950000Y-88350000D01*
X152052467Y-83802467D02*
G75*
G03*
X152052467Y-83802467I-472467J0D01*
G01*
%TO.C,U6*%
X168110000Y-63177500D02*
X169720000Y-63177500D01*
X167630000Y-62827500D02*
X180350000Y-62827500D01*
X172247200Y-58093700D02*
X175930200Y-58093700D01*
X172069400Y-53191500D02*
X172069400Y-58093700D01*
X176108000Y-53191500D02*
X176108000Y-58093700D01*
X172247200Y-53089900D02*
X175930200Y-53089900D01*
X172069400Y-47654300D02*
X172069400Y-53013700D01*
X176108000Y-47654300D02*
X176108000Y-53013700D01*
X172247200Y-47628900D02*
X175930200Y-47628900D01*
X167630000Y-43607500D02*
X167630000Y-62827500D01*
X167630000Y-43607500D02*
X180350000Y-43607500D01*
X180350000Y-43607500D02*
X180350000Y-62827500D01*
X177452467Y-58279967D02*
G75*
G03*
X177452467Y-58279967I-472467J0D01*
G01*
%TO.C,U8*%
X130010000Y-88700000D02*
X131620000Y-88700000D01*
X129530000Y-88350000D02*
X142250000Y-88350000D01*
X134147200Y-83616200D02*
X137830200Y-83616200D01*
X133969400Y-78714000D02*
X133969400Y-83616200D01*
X138008000Y-78714000D02*
X138008000Y-83616200D01*
X134147200Y-78612400D02*
X137830200Y-78612400D01*
X133969400Y-73176800D02*
X133969400Y-78536200D01*
X138008000Y-73176800D02*
X138008000Y-78536200D01*
X134147200Y-73151400D02*
X137830200Y-73151400D01*
X129530000Y-69130000D02*
X129530000Y-88350000D01*
X129530000Y-69130000D02*
X142250000Y-69130000D01*
X142250000Y-69130000D02*
X142250000Y-88350000D01*
X139352467Y-83802467D02*
G75*
G03*
X139352467Y-83802467I-472467J0D01*
G01*
%TO.C,J1*%
X97270000Y-138220000D02*
X97270000Y-137160000D01*
X98330000Y-138220000D02*
X97270000Y-138220000D01*
X99330000Y-138220000D02*
X107390000Y-138220000D01*
X99330000Y-138220000D02*
X99330000Y-136100000D01*
X107390000Y-138220000D02*
X107390000Y-136100000D01*
X99330000Y-136100000D02*
X107390000Y-136100000D01*
%TO.C,U10*%
X155410000Y-88700000D02*
X157020000Y-88700000D01*
X154930000Y-88350000D02*
X167650000Y-88350000D01*
X159547200Y-83616200D02*
X163230200Y-83616200D01*
X159369400Y-78714000D02*
X159369400Y-83616200D01*
X163408000Y-78714000D02*
X163408000Y-83616200D01*
X159547200Y-78612400D02*
X163230200Y-78612400D01*
X159369400Y-73176800D02*
X159369400Y-78536200D01*
X163408000Y-73176800D02*
X163408000Y-78536200D01*
X159547200Y-73151400D02*
X163230200Y-73151400D01*
X154930000Y-69130000D02*
X154930000Y-88350000D01*
X154930000Y-69130000D02*
X167650000Y-69130000D01*
X167650000Y-69130000D02*
X167650000Y-88350000D01*
X164752467Y-83802467D02*
G75*
G03*
X164752467Y-83802467I-472467J0D01*
G01*
%TO.C,U2*%
X112230000Y-63177500D02*
X113840000Y-63177500D01*
X111750000Y-62827500D02*
X124470000Y-62827500D01*
X116367200Y-58093700D02*
X120050200Y-58093700D01*
X116189400Y-53191500D02*
X116189400Y-58093700D01*
X120228000Y-53191500D02*
X120228000Y-58093700D01*
X116367200Y-53089900D02*
X120050200Y-53089900D01*
X116189400Y-47654300D02*
X116189400Y-53013700D01*
X120228000Y-47654300D02*
X120228000Y-53013700D01*
X116367200Y-47628900D02*
X120050200Y-47628900D01*
X111750000Y-43607500D02*
X111750000Y-62827500D01*
X111750000Y-43607500D02*
X124470000Y-43607500D01*
X124470000Y-43607500D02*
X124470000Y-62827500D01*
X121572467Y-58279967D02*
G75*
G03*
X121572467Y-58279967I-472467J0D01*
G01*
%TO.C,U4*%
X140170000Y-63177500D02*
X141780000Y-63177500D01*
X139690000Y-62827500D02*
X152410000Y-62827500D01*
X144307200Y-58093700D02*
X147990200Y-58093700D01*
X144129400Y-53191500D02*
X144129400Y-58093700D01*
X148168000Y-53191500D02*
X148168000Y-58093700D01*
X144307200Y-53089900D02*
X147990200Y-53089900D01*
X144129400Y-47654300D02*
X144129400Y-53013700D01*
X148168000Y-47654300D02*
X148168000Y-53013700D01*
X144307200Y-47628900D02*
X147990200Y-47628900D01*
X139690000Y-43607500D02*
X139690000Y-62827500D01*
X139690000Y-43607500D02*
X152410000Y-43607500D01*
X152410000Y-43607500D02*
X152410000Y-62827500D01*
X149512467Y-58279967D02*
G75*
G03*
X149512467Y-58279967I-472467J0D01*
G01*
%TO.C,C2*%
X128999801Y-123115000D02*
X128599801Y-123115000D01*
X128799801Y-123315000D02*
X128799801Y-122915000D01*
X126730000Y-124000000D02*
X126730000Y-119840000D01*
X126690000Y-124000000D02*
X126690000Y-119840000D01*
X126650000Y-123999000D02*
X126650000Y-119841000D01*
X126610000Y-123997000D02*
X126610000Y-119843000D01*
X126570000Y-123994000D02*
X126570000Y-119846000D01*
X126530000Y-123991000D02*
X126530000Y-122760000D01*
X126530000Y-121080000D02*
X126530000Y-119849000D01*
X126490000Y-123987000D02*
X126490000Y-122760000D01*
X126490000Y-121080000D02*
X126490000Y-119853000D01*
X126450000Y-123982000D02*
X126450000Y-122760000D01*
X126450000Y-121080000D02*
X126450000Y-119858000D01*
X126410000Y-123976000D02*
X126410000Y-122760000D01*
X126410000Y-121080000D02*
X126410000Y-119864000D01*
X126370000Y-123970000D02*
X126370000Y-122760000D01*
X126370000Y-121080000D02*
X126370000Y-119870000D01*
X126330000Y-123962000D02*
X126330000Y-122760000D01*
X126330000Y-121080000D02*
X126330000Y-119878000D01*
X126290000Y-123954000D02*
X126290000Y-122760000D01*
X126290000Y-121080000D02*
X126290000Y-119886000D01*
X126250000Y-123945000D02*
X126250000Y-122760000D01*
X126250000Y-121080000D02*
X126250000Y-119895000D01*
X126210000Y-123936000D02*
X126210000Y-122760000D01*
X126210000Y-121080000D02*
X126210000Y-119904000D01*
X126170000Y-123925000D02*
X126170000Y-122760000D01*
X126170000Y-121080000D02*
X126170000Y-119915000D01*
X126130000Y-123914000D02*
X126130000Y-122760000D01*
X126130000Y-121080000D02*
X126130000Y-119926000D01*
X126090000Y-123902000D02*
X126090000Y-122760000D01*
X126090000Y-121080000D02*
X126090000Y-119938000D01*
X126050000Y-123888000D02*
X126050000Y-122760000D01*
X126050000Y-121080000D02*
X126050000Y-119952000D01*
X126009000Y-123874000D02*
X126009000Y-122760000D01*
X126009000Y-121080000D02*
X126009000Y-119966000D01*
X125969000Y-123860000D02*
X125969000Y-122760000D01*
X125969000Y-121080000D02*
X125969000Y-119980000D01*
X125929000Y-123844000D02*
X125929000Y-122760000D01*
X125929000Y-121080000D02*
X125929000Y-119996000D01*
X125889000Y-123827000D02*
X125889000Y-122760000D01*
X125889000Y-121080000D02*
X125889000Y-120013000D01*
X125849000Y-123809000D02*
X125849000Y-122760000D01*
X125849000Y-121080000D02*
X125849000Y-120031000D01*
X125809000Y-123790000D02*
X125809000Y-122760000D01*
X125809000Y-121080000D02*
X125809000Y-120050000D01*
X125769000Y-123771000D02*
X125769000Y-122760000D01*
X125769000Y-121080000D02*
X125769000Y-120069000D01*
X125729000Y-123750000D02*
X125729000Y-122760000D01*
X125729000Y-121080000D02*
X125729000Y-120090000D01*
X125689000Y-123728000D02*
X125689000Y-122760000D01*
X125689000Y-121080000D02*
X125689000Y-120112000D01*
X125649000Y-123705000D02*
X125649000Y-122760000D01*
X125649000Y-121080000D02*
X125649000Y-120135000D01*
X125609000Y-123680000D02*
X125609000Y-122760000D01*
X125609000Y-121080000D02*
X125609000Y-120160000D01*
X125569000Y-123655000D02*
X125569000Y-122760000D01*
X125569000Y-121080000D02*
X125569000Y-120185000D01*
X125529000Y-123628000D02*
X125529000Y-122760000D01*
X125529000Y-121080000D02*
X125529000Y-120212000D01*
X125489000Y-123600000D02*
X125489000Y-122760000D01*
X125489000Y-121080000D02*
X125489000Y-120240000D01*
X125449000Y-123570000D02*
X125449000Y-122760000D01*
X125449000Y-121080000D02*
X125449000Y-120270000D01*
X125409000Y-123539000D02*
X125409000Y-122760000D01*
X125409000Y-121080000D02*
X125409000Y-120301000D01*
X125369000Y-123507000D02*
X125369000Y-122760000D01*
X125369000Y-121080000D02*
X125369000Y-120333000D01*
X125329000Y-123472000D02*
X125329000Y-122760000D01*
X125329000Y-121080000D02*
X125329000Y-120368000D01*
X125289000Y-123436000D02*
X125289000Y-122760000D01*
X125289000Y-121080000D02*
X125289000Y-120404000D01*
X125249000Y-123398000D02*
X125249000Y-122760000D01*
X125249000Y-121080000D02*
X125249000Y-120442000D01*
X125209000Y-123358000D02*
X125209000Y-122760000D01*
X125209000Y-121080000D02*
X125209000Y-120482000D01*
X125169000Y-123316000D02*
X125169000Y-122760000D01*
X125169000Y-121080000D02*
X125169000Y-120524000D01*
X125129000Y-123271000D02*
X125129000Y-122760000D01*
X125129000Y-121080000D02*
X125129000Y-120569000D01*
X125089000Y-123224000D02*
X125089000Y-122760000D01*
X125089000Y-121080000D02*
X125089000Y-120616000D01*
X125049000Y-123174000D02*
X125049000Y-122760000D01*
X125049000Y-121080000D02*
X125049000Y-120666000D01*
X125009000Y-123120000D02*
X125009000Y-122760000D01*
X125009000Y-121080000D02*
X125009000Y-120720000D01*
X124969000Y-123062000D02*
X124969000Y-122760000D01*
X124969000Y-121080000D02*
X124969000Y-120778000D01*
X124929000Y-123000000D02*
X124929000Y-122760000D01*
X124929000Y-121080000D02*
X124929000Y-120840000D01*
X124889000Y-122933000D02*
X124889000Y-120907000D01*
X124849000Y-122860000D02*
X124849000Y-120980000D01*
X124809000Y-122779000D02*
X124809000Y-121061000D01*
X124769000Y-122688000D02*
X124769000Y-121152000D01*
X124729000Y-122584000D02*
X124729000Y-121256000D01*
X124689000Y-122457000D02*
X124689000Y-121383000D01*
X124649000Y-122290000D02*
X124649000Y-121550000D01*
X128850000Y-121920000D02*
G75*
G03*
X128850000Y-121920000I-2120000J0D01*
G01*
%TO.C,C3*%
X169639801Y-123115000D02*
X169239801Y-123115000D01*
X169439801Y-123315000D02*
X169439801Y-122915000D01*
X167370000Y-124000000D02*
X167370000Y-119840000D01*
X167330000Y-124000000D02*
X167330000Y-119840000D01*
X167290000Y-123999000D02*
X167290000Y-119841000D01*
X167250000Y-123997000D02*
X167250000Y-119843000D01*
X167210000Y-123994000D02*
X167210000Y-119846000D01*
X167170000Y-123991000D02*
X167170000Y-122760000D01*
X167170000Y-121080000D02*
X167170000Y-119849000D01*
X167130000Y-123987000D02*
X167130000Y-122760000D01*
X167130000Y-121080000D02*
X167130000Y-119853000D01*
X167090000Y-123982000D02*
X167090000Y-122760000D01*
X167090000Y-121080000D02*
X167090000Y-119858000D01*
X167050000Y-123976000D02*
X167050000Y-122760000D01*
X167050000Y-121080000D02*
X167050000Y-119864000D01*
X167010000Y-123970000D02*
X167010000Y-122760000D01*
X167010000Y-121080000D02*
X167010000Y-119870000D01*
X166970000Y-123962000D02*
X166970000Y-122760000D01*
X166970000Y-121080000D02*
X166970000Y-119878000D01*
X166930000Y-123954000D02*
X166930000Y-122760000D01*
X166930000Y-121080000D02*
X166930000Y-119886000D01*
X166890000Y-123945000D02*
X166890000Y-122760000D01*
X166890000Y-121080000D02*
X166890000Y-119895000D01*
X166850000Y-123936000D02*
X166850000Y-122760000D01*
X166850000Y-121080000D02*
X166850000Y-119904000D01*
X166810000Y-123925000D02*
X166810000Y-122760000D01*
X166810000Y-121080000D02*
X166810000Y-119915000D01*
X166770000Y-123914000D02*
X166770000Y-122760000D01*
X166770000Y-121080000D02*
X166770000Y-119926000D01*
X166730000Y-123902000D02*
X166730000Y-122760000D01*
X166730000Y-121080000D02*
X166730000Y-119938000D01*
X166690000Y-123888000D02*
X166690000Y-122760000D01*
X166690000Y-121080000D02*
X166690000Y-119952000D01*
X166649000Y-123874000D02*
X166649000Y-122760000D01*
X166649000Y-121080000D02*
X166649000Y-119966000D01*
X166609000Y-123860000D02*
X166609000Y-122760000D01*
X166609000Y-121080000D02*
X166609000Y-119980000D01*
X166569000Y-123844000D02*
X166569000Y-122760000D01*
X166569000Y-121080000D02*
X166569000Y-119996000D01*
X166529000Y-123827000D02*
X166529000Y-122760000D01*
X166529000Y-121080000D02*
X166529000Y-120013000D01*
X166489000Y-123809000D02*
X166489000Y-122760000D01*
X166489000Y-121080000D02*
X166489000Y-120031000D01*
X166449000Y-123790000D02*
X166449000Y-122760000D01*
X166449000Y-121080000D02*
X166449000Y-120050000D01*
X166409000Y-123771000D02*
X166409000Y-122760000D01*
X166409000Y-121080000D02*
X166409000Y-120069000D01*
X166369000Y-123750000D02*
X166369000Y-122760000D01*
X166369000Y-121080000D02*
X166369000Y-120090000D01*
X166329000Y-123728000D02*
X166329000Y-122760000D01*
X166329000Y-121080000D02*
X166329000Y-120112000D01*
X166289000Y-123705000D02*
X166289000Y-122760000D01*
X166289000Y-121080000D02*
X166289000Y-120135000D01*
X166249000Y-123680000D02*
X166249000Y-122760000D01*
X166249000Y-121080000D02*
X166249000Y-120160000D01*
X166209000Y-123655000D02*
X166209000Y-122760000D01*
X166209000Y-121080000D02*
X166209000Y-120185000D01*
X166169000Y-123628000D02*
X166169000Y-122760000D01*
X166169000Y-121080000D02*
X166169000Y-120212000D01*
X166129000Y-123600000D02*
X166129000Y-122760000D01*
X166129000Y-121080000D02*
X166129000Y-120240000D01*
X166089000Y-123570000D02*
X166089000Y-122760000D01*
X166089000Y-121080000D02*
X166089000Y-120270000D01*
X166049000Y-123539000D02*
X166049000Y-122760000D01*
X166049000Y-121080000D02*
X166049000Y-120301000D01*
X166009000Y-123507000D02*
X166009000Y-122760000D01*
X166009000Y-121080000D02*
X166009000Y-120333000D01*
X165969000Y-123472000D02*
X165969000Y-122760000D01*
X165969000Y-121080000D02*
X165969000Y-120368000D01*
X165929000Y-123436000D02*
X165929000Y-122760000D01*
X165929000Y-121080000D02*
X165929000Y-120404000D01*
X165889000Y-123398000D02*
X165889000Y-122760000D01*
X165889000Y-121080000D02*
X165889000Y-120442000D01*
X165849000Y-123358000D02*
X165849000Y-122760000D01*
X165849000Y-121080000D02*
X165849000Y-120482000D01*
X165809000Y-123316000D02*
X165809000Y-122760000D01*
X165809000Y-121080000D02*
X165809000Y-120524000D01*
X165769000Y-123271000D02*
X165769000Y-122760000D01*
X165769000Y-121080000D02*
X165769000Y-120569000D01*
X165729000Y-123224000D02*
X165729000Y-122760000D01*
X165729000Y-121080000D02*
X165729000Y-120616000D01*
X165689000Y-123174000D02*
X165689000Y-122760000D01*
X165689000Y-121080000D02*
X165689000Y-120666000D01*
X165649000Y-123120000D02*
X165649000Y-122760000D01*
X165649000Y-121080000D02*
X165649000Y-120720000D01*
X165609000Y-123062000D02*
X165609000Y-122760000D01*
X165609000Y-121080000D02*
X165609000Y-120778000D01*
X165569000Y-123000000D02*
X165569000Y-122760000D01*
X165569000Y-121080000D02*
X165569000Y-120840000D01*
X165529000Y-122933000D02*
X165529000Y-120907000D01*
X165489000Y-122860000D02*
X165489000Y-120980000D01*
X165449000Y-122779000D02*
X165449000Y-121061000D01*
X165409000Y-122688000D02*
X165409000Y-121152000D01*
X165369000Y-122584000D02*
X165369000Y-121256000D01*
X165329000Y-122457000D02*
X165329000Y-121383000D01*
X165289000Y-122290000D02*
X165289000Y-121550000D01*
X169490000Y-121920000D02*
G75*
G03*
X169490000Y-121920000I-2120000J0D01*
G01*
%TO.C,U7*%
X180810000Y-63177500D02*
X182420000Y-63177500D01*
X180330000Y-62827500D02*
X193050000Y-62827500D01*
X184947200Y-58093700D02*
X188630200Y-58093700D01*
X184769400Y-53191500D02*
X184769400Y-58093700D01*
X188808000Y-53191500D02*
X188808000Y-58093700D01*
X184947200Y-53089900D02*
X188630200Y-53089900D01*
X184769400Y-47654300D02*
X184769400Y-53013700D01*
X188808000Y-47654300D02*
X188808000Y-53013700D01*
X184947200Y-47628900D02*
X188630200Y-47628900D01*
X180330000Y-43607500D02*
X180330000Y-62827500D01*
X180330000Y-43607500D02*
X193050000Y-43607500D01*
X193050000Y-43607500D02*
X193050000Y-62827500D01*
X190152467Y-58279967D02*
G75*
G03*
X190152467Y-58279967I-472467J0D01*
G01*
%TO.C,U3*%
X124930000Y-63177500D02*
X126540000Y-63177500D01*
X124450000Y-62827500D02*
X137170000Y-62827500D01*
X129067200Y-58093700D02*
X132750200Y-58093700D01*
X128889400Y-53191500D02*
X128889400Y-58093700D01*
X132928000Y-53191500D02*
X132928000Y-58093700D01*
X129067200Y-53089900D02*
X132750200Y-53089900D01*
X128889400Y-47654300D02*
X128889400Y-53013700D01*
X132928000Y-47654300D02*
X132928000Y-53013700D01*
X129067200Y-47628900D02*
X132750200Y-47628900D01*
X124450000Y-43607500D02*
X124450000Y-62827500D01*
X124450000Y-43607500D02*
X137170000Y-43607500D01*
X137170000Y-43607500D02*
X137170000Y-62827500D01*
X134272467Y-58279967D02*
G75*
G03*
X134272467Y-58279967I-472467J0D01*
G01*
%TO.C,C1*%
X98985000Y-93250199D02*
X98985000Y-93650199D01*
X99185000Y-93450199D02*
X98785000Y-93450199D01*
X99870000Y-95520000D02*
X95710000Y-95520000D01*
X99870000Y-95560000D02*
X95710000Y-95560000D01*
X99869000Y-95600000D02*
X95711000Y-95600000D01*
X99867000Y-95640000D02*
X95713000Y-95640000D01*
X99864000Y-95680000D02*
X95716000Y-95680000D01*
X99861000Y-95720000D02*
X98630000Y-95720000D01*
X96950000Y-95720000D02*
X95719000Y-95720000D01*
X99857000Y-95760000D02*
X98630000Y-95760000D01*
X96950000Y-95760000D02*
X95723000Y-95760000D01*
X99852000Y-95800000D02*
X98630000Y-95800000D01*
X96950000Y-95800000D02*
X95728000Y-95800000D01*
X99846000Y-95840000D02*
X98630000Y-95840000D01*
X96950000Y-95840000D02*
X95734000Y-95840000D01*
X99840000Y-95880000D02*
X98630000Y-95880000D01*
X96950000Y-95880000D02*
X95740000Y-95880000D01*
X99832000Y-95920000D02*
X98630000Y-95920000D01*
X96950000Y-95920000D02*
X95748000Y-95920000D01*
X99824000Y-95960000D02*
X98630000Y-95960000D01*
X96950000Y-95960000D02*
X95756000Y-95960000D01*
X99815000Y-96000000D02*
X98630000Y-96000000D01*
X96950000Y-96000000D02*
X95765000Y-96000000D01*
X99806000Y-96040000D02*
X98630000Y-96040000D01*
X96950000Y-96040000D02*
X95774000Y-96040000D01*
X99795000Y-96080000D02*
X98630000Y-96080000D01*
X96950000Y-96080000D02*
X95785000Y-96080000D01*
X99784000Y-96120000D02*
X98630000Y-96120000D01*
X96950000Y-96120000D02*
X95796000Y-96120000D01*
X99772000Y-96160000D02*
X98630000Y-96160000D01*
X96950000Y-96160000D02*
X95808000Y-96160000D01*
X99758000Y-96200000D02*
X98630000Y-96200000D01*
X96950000Y-96200000D02*
X95822000Y-96200000D01*
X99744000Y-96241000D02*
X98630000Y-96241000D01*
X96950000Y-96241000D02*
X95836000Y-96241000D01*
X99730000Y-96281000D02*
X98630000Y-96281000D01*
X96950000Y-96281000D02*
X95850000Y-96281000D01*
X99714000Y-96321000D02*
X98630000Y-96321000D01*
X96950000Y-96321000D02*
X95866000Y-96321000D01*
X99697000Y-96361000D02*
X98630000Y-96361000D01*
X96950000Y-96361000D02*
X95883000Y-96361000D01*
X99679000Y-96401000D02*
X98630000Y-96401000D01*
X96950000Y-96401000D02*
X95901000Y-96401000D01*
X99660000Y-96441000D02*
X98630000Y-96441000D01*
X96950000Y-96441000D02*
X95920000Y-96441000D01*
X99641000Y-96481000D02*
X98630000Y-96481000D01*
X96950000Y-96481000D02*
X95939000Y-96481000D01*
X99620000Y-96521000D02*
X98630000Y-96521000D01*
X96950000Y-96521000D02*
X95960000Y-96521000D01*
X99598000Y-96561000D02*
X98630000Y-96561000D01*
X96950000Y-96561000D02*
X95982000Y-96561000D01*
X99575000Y-96601000D02*
X98630000Y-96601000D01*
X96950000Y-96601000D02*
X96005000Y-96601000D01*
X99550000Y-96641000D02*
X98630000Y-96641000D01*
X96950000Y-96641000D02*
X96030000Y-96641000D01*
X99525000Y-96681000D02*
X98630000Y-96681000D01*
X96950000Y-96681000D02*
X96055000Y-96681000D01*
X99498000Y-96721000D02*
X98630000Y-96721000D01*
X96950000Y-96721000D02*
X96082000Y-96721000D01*
X99470000Y-96761000D02*
X98630000Y-96761000D01*
X96950000Y-96761000D02*
X96110000Y-96761000D01*
X99440000Y-96801000D02*
X98630000Y-96801000D01*
X96950000Y-96801000D02*
X96140000Y-96801000D01*
X99409000Y-96841000D02*
X98630000Y-96841000D01*
X96950000Y-96841000D02*
X96171000Y-96841000D01*
X99377000Y-96881000D02*
X98630000Y-96881000D01*
X96950000Y-96881000D02*
X96203000Y-96881000D01*
X99342000Y-96921000D02*
X98630000Y-96921000D01*
X96950000Y-96921000D02*
X96238000Y-96921000D01*
X99306000Y-96961000D02*
X98630000Y-96961000D01*
X96950000Y-96961000D02*
X96274000Y-96961000D01*
X99268000Y-97001000D02*
X98630000Y-97001000D01*
X96950000Y-97001000D02*
X96312000Y-97001000D01*
X99228000Y-97041000D02*
X98630000Y-97041000D01*
X96950000Y-97041000D02*
X96352000Y-97041000D01*
X99186000Y-97081000D02*
X98630000Y-97081000D01*
X96950000Y-97081000D02*
X96394000Y-97081000D01*
X99141000Y-97121000D02*
X98630000Y-97121000D01*
X96950000Y-97121000D02*
X96439000Y-97121000D01*
X99094000Y-97161000D02*
X98630000Y-97161000D01*
X96950000Y-97161000D02*
X96486000Y-97161000D01*
X99044000Y-97201000D02*
X98630000Y-97201000D01*
X96950000Y-97201000D02*
X96536000Y-97201000D01*
X98990000Y-97241000D02*
X98630000Y-97241000D01*
X96950000Y-97241000D02*
X96590000Y-97241000D01*
X98932000Y-97281000D02*
X98630000Y-97281000D01*
X96950000Y-97281000D02*
X96648000Y-97281000D01*
X98870000Y-97321000D02*
X98630000Y-97321000D01*
X96950000Y-97321000D02*
X96710000Y-97321000D01*
X98803000Y-97361000D02*
X96777000Y-97361000D01*
X98730000Y-97401000D02*
X96850000Y-97401000D01*
X98649000Y-97441000D02*
X96931000Y-97441000D01*
X98558000Y-97481000D02*
X97022000Y-97481000D01*
X98454000Y-97521000D02*
X97126000Y-97521000D01*
X98327000Y-97561000D02*
X97253000Y-97561000D01*
X98160000Y-97601000D02*
X97420000Y-97601000D01*
X99910000Y-95520000D02*
G75*
G03*
X99910000Y-95520000I-2120000J0D01*
G01*
%TD*%
M02*
