%TF.GenerationSoftware,KiCad,Pcbnew,7.0.8*%
%TF.CreationDate,2023-10-10T00:58:14-07:00*%
%TF.ProjectId,htpm_control_numericals,6874706d-5f63-46f6-9e74-726f6c5f6e75,1*%
%TF.SameCoordinates,Original*%
%TF.FileFunction,Legend,Bot*%
%TF.FilePolarity,Positive*%
%FSLAX46Y46*%
G04 Gerber Fmt 4.6, Leading zero omitted, Abs format (unit mm)*
G04 Created by KiCad (PCBNEW 7.0.8) date 2023-10-10 00:58:14*
%MOMM*%
%LPD*%
G01*
G04 APERTURE LIST*
%ADD10C,0.150000*%
G04 APERTURE END LIST*
D10*
X187928094Y-78067219D02*
X187928094Y-78876742D01*
X187928094Y-78876742D02*
X187880475Y-78971980D01*
X187880475Y-78971980D02*
X187832856Y-79019600D01*
X187832856Y-79019600D02*
X187737618Y-79067219D01*
X187737618Y-79067219D02*
X187547142Y-79067219D01*
X187547142Y-79067219D02*
X187451904Y-79019600D01*
X187451904Y-79019600D02*
X187404285Y-78971980D01*
X187404285Y-78971980D02*
X187356666Y-78876742D01*
X187356666Y-78876742D02*
X187356666Y-78067219D01*
X186356666Y-79067219D02*
X186928094Y-79067219D01*
X186642380Y-79067219D02*
X186642380Y-78067219D01*
X186642380Y-78067219D02*
X186737618Y-78210076D01*
X186737618Y-78210076D02*
X186832856Y-78305314D01*
X186832856Y-78305314D02*
X186928094Y-78352933D01*
X185975713Y-78162457D02*
X185928094Y-78114838D01*
X185928094Y-78114838D02*
X185832856Y-78067219D01*
X185832856Y-78067219D02*
X185594761Y-78067219D01*
X185594761Y-78067219D02*
X185499523Y-78114838D01*
X185499523Y-78114838D02*
X185451904Y-78162457D01*
X185451904Y-78162457D02*
X185404285Y-78257695D01*
X185404285Y-78257695D02*
X185404285Y-78352933D01*
X185404285Y-78352933D02*
X185451904Y-78495790D01*
X185451904Y-78495790D02*
X186023332Y-79067219D01*
X186023332Y-79067219D02*
X185404285Y-79067219D01*
X187928094Y-103594819D02*
X187928094Y-104404342D01*
X187928094Y-104404342D02*
X187880475Y-104499580D01*
X187880475Y-104499580D02*
X187832856Y-104547200D01*
X187832856Y-104547200D02*
X187737618Y-104594819D01*
X187737618Y-104594819D02*
X187547142Y-104594819D01*
X187547142Y-104594819D02*
X187451904Y-104547200D01*
X187451904Y-104547200D02*
X187404285Y-104499580D01*
X187404285Y-104499580D02*
X187356666Y-104404342D01*
X187356666Y-104404342D02*
X187356666Y-103594819D01*
X186356666Y-104594819D02*
X186928094Y-104594819D01*
X186642380Y-104594819D02*
X186642380Y-103594819D01*
X186642380Y-103594819D02*
X186737618Y-103737676D01*
X186737618Y-103737676D02*
X186832856Y-103832914D01*
X186832856Y-103832914D02*
X186928094Y-103880533D01*
X185499523Y-103928152D02*
X185499523Y-104594819D01*
X185737618Y-103547200D02*
X185975713Y-104261485D01*
X185975713Y-104261485D02*
X185356666Y-104261485D01*
X162528094Y-103472319D02*
X162528094Y-104281842D01*
X162528094Y-104281842D02*
X162480475Y-104377080D01*
X162480475Y-104377080D02*
X162432856Y-104424700D01*
X162432856Y-104424700D02*
X162337618Y-104472319D01*
X162337618Y-104472319D02*
X162147142Y-104472319D01*
X162147142Y-104472319D02*
X162051904Y-104424700D01*
X162051904Y-104424700D02*
X162004285Y-104377080D01*
X162004285Y-104377080D02*
X161956666Y-104281842D01*
X161956666Y-104281842D02*
X161956666Y-103472319D01*
X160956666Y-104472319D02*
X161528094Y-104472319D01*
X161242380Y-104472319D02*
X161242380Y-103472319D01*
X161242380Y-103472319D02*
X161337618Y-103615176D01*
X161337618Y-103615176D02*
X161432856Y-103710414D01*
X161432856Y-103710414D02*
X161528094Y-103758033D01*
X160099523Y-103472319D02*
X160289999Y-103472319D01*
X160289999Y-103472319D02*
X160385237Y-103519938D01*
X160385237Y-103519938D02*
X160432856Y-103567557D01*
X160432856Y-103567557D02*
X160528094Y-103710414D01*
X160528094Y-103710414D02*
X160575713Y-103900890D01*
X160575713Y-103900890D02*
X160575713Y-104281842D01*
X160575713Y-104281842D02*
X160528094Y-104377080D01*
X160528094Y-104377080D02*
X160480475Y-104424700D01*
X160480475Y-104424700D02*
X160385237Y-104472319D01*
X160385237Y-104472319D02*
X160194761Y-104472319D01*
X160194761Y-104472319D02*
X160099523Y-104424700D01*
X160099523Y-104424700D02*
X160051904Y-104377080D01*
X160051904Y-104377080D02*
X160004285Y-104281842D01*
X160004285Y-104281842D02*
X160004285Y-104043747D01*
X160004285Y-104043747D02*
X160051904Y-103948509D01*
X160051904Y-103948509D02*
X160099523Y-103900890D01*
X160099523Y-103900890D02*
X160194761Y-103853271D01*
X160194761Y-103853271D02*
X160385237Y-103853271D01*
X160385237Y-103853271D02*
X160480475Y-103900890D01*
X160480475Y-103900890D02*
X160528094Y-103948509D01*
X160528094Y-103948509D02*
X160575713Y-104043747D01*
X175228094Y-78317319D02*
X175228094Y-79126842D01*
X175228094Y-79126842D02*
X175180475Y-79222080D01*
X175180475Y-79222080D02*
X175132856Y-79269700D01*
X175132856Y-79269700D02*
X175037618Y-79317319D01*
X175037618Y-79317319D02*
X174847142Y-79317319D01*
X174847142Y-79317319D02*
X174751904Y-79269700D01*
X174751904Y-79269700D02*
X174704285Y-79222080D01*
X174704285Y-79222080D02*
X174656666Y-79126842D01*
X174656666Y-79126842D02*
X174656666Y-78317319D01*
X173656666Y-79317319D02*
X174228094Y-79317319D01*
X173942380Y-79317319D02*
X173942380Y-78317319D01*
X173942380Y-78317319D02*
X174037618Y-78460176D01*
X174037618Y-78460176D02*
X174132856Y-78555414D01*
X174132856Y-78555414D02*
X174228094Y-78603033D01*
X172704285Y-79317319D02*
X173275713Y-79317319D01*
X172989999Y-79317319D02*
X172989999Y-78317319D01*
X172989999Y-78317319D02*
X173085237Y-78460176D01*
X173085237Y-78460176D02*
X173180475Y-78555414D01*
X173180475Y-78555414D02*
X173275713Y-78603033D01*
X149828094Y-103472319D02*
X149828094Y-104281842D01*
X149828094Y-104281842D02*
X149780475Y-104377080D01*
X149780475Y-104377080D02*
X149732856Y-104424700D01*
X149732856Y-104424700D02*
X149637618Y-104472319D01*
X149637618Y-104472319D02*
X149447142Y-104472319D01*
X149447142Y-104472319D02*
X149351904Y-104424700D01*
X149351904Y-104424700D02*
X149304285Y-104377080D01*
X149304285Y-104377080D02*
X149256666Y-104281842D01*
X149256666Y-104281842D02*
X149256666Y-103472319D01*
X148256666Y-104472319D02*
X148828094Y-104472319D01*
X148542380Y-104472319D02*
X148542380Y-103472319D01*
X148542380Y-103472319D02*
X148637618Y-103615176D01*
X148637618Y-103615176D02*
X148732856Y-103710414D01*
X148732856Y-103710414D02*
X148828094Y-103758033D01*
X147923332Y-103472319D02*
X147256666Y-103472319D01*
X147256666Y-103472319D02*
X147685237Y-104472319D01*
X159511904Y-52672319D02*
X159511904Y-53481842D01*
X159511904Y-53481842D02*
X159464285Y-53577080D01*
X159464285Y-53577080D02*
X159416666Y-53624700D01*
X159416666Y-53624700D02*
X159321428Y-53672319D01*
X159321428Y-53672319D02*
X159130952Y-53672319D01*
X159130952Y-53672319D02*
X159035714Y-53624700D01*
X159035714Y-53624700D02*
X158988095Y-53577080D01*
X158988095Y-53577080D02*
X158940476Y-53481842D01*
X158940476Y-53481842D02*
X158940476Y-52672319D01*
X157988095Y-52672319D02*
X158464285Y-52672319D01*
X158464285Y-52672319D02*
X158511904Y-53148509D01*
X158511904Y-53148509D02*
X158464285Y-53100890D01*
X158464285Y-53100890D02*
X158369047Y-53053271D01*
X158369047Y-53053271D02*
X158130952Y-53053271D01*
X158130952Y-53053271D02*
X158035714Y-53100890D01*
X158035714Y-53100890D02*
X157988095Y-53148509D01*
X157988095Y-53148509D02*
X157940476Y-53243747D01*
X157940476Y-53243747D02*
X157940476Y-53481842D01*
X157940476Y-53481842D02*
X157988095Y-53577080D01*
X157988095Y-53577080D02*
X158035714Y-53624700D01*
X158035714Y-53624700D02*
X158130952Y-53672319D01*
X158130952Y-53672319D02*
X158369047Y-53672319D01*
X158369047Y-53672319D02*
X158464285Y-53624700D01*
X158464285Y-53624700D02*
X158511904Y-53577080D01*
X137128094Y-103472319D02*
X137128094Y-104281842D01*
X137128094Y-104281842D02*
X137080475Y-104377080D01*
X137080475Y-104377080D02*
X137032856Y-104424700D01*
X137032856Y-104424700D02*
X136937618Y-104472319D01*
X136937618Y-104472319D02*
X136747142Y-104472319D01*
X136747142Y-104472319D02*
X136651904Y-104424700D01*
X136651904Y-104424700D02*
X136604285Y-104377080D01*
X136604285Y-104377080D02*
X136556666Y-104281842D01*
X136556666Y-104281842D02*
X136556666Y-103472319D01*
X135556666Y-104472319D02*
X136128094Y-104472319D01*
X135842380Y-104472319D02*
X135842380Y-103472319D01*
X135842380Y-103472319D02*
X135937618Y-103615176D01*
X135937618Y-103615176D02*
X136032856Y-103710414D01*
X136032856Y-103710414D02*
X136128094Y-103758033D01*
X135080475Y-104472319D02*
X134889999Y-104472319D01*
X134889999Y-104472319D02*
X134794761Y-104424700D01*
X134794761Y-104424700D02*
X134747142Y-104377080D01*
X134747142Y-104377080D02*
X134651904Y-104234223D01*
X134651904Y-104234223D02*
X134604285Y-104043747D01*
X134604285Y-104043747D02*
X134604285Y-103662795D01*
X134604285Y-103662795D02*
X134651904Y-103567557D01*
X134651904Y-103567557D02*
X134699523Y-103519938D01*
X134699523Y-103519938D02*
X134794761Y-103472319D01*
X134794761Y-103472319D02*
X134985237Y-103472319D01*
X134985237Y-103472319D02*
X135080475Y-103519938D01*
X135080475Y-103519938D02*
X135128094Y-103567557D01*
X135128094Y-103567557D02*
X135175713Y-103662795D01*
X135175713Y-103662795D02*
X135175713Y-103900890D01*
X135175713Y-103900890D02*
X135128094Y-103996128D01*
X135128094Y-103996128D02*
X135080475Y-104043747D01*
X135080475Y-104043747D02*
X134985237Y-104091366D01*
X134985237Y-104091366D02*
X134794761Y-104091366D01*
X134794761Y-104091366D02*
X134699523Y-104043747D01*
X134699523Y-104043747D02*
X134651904Y-103996128D01*
X134651904Y-103996128D02*
X134604285Y-103900890D01*
X175228094Y-103472319D02*
X175228094Y-104281842D01*
X175228094Y-104281842D02*
X175180475Y-104377080D01*
X175180475Y-104377080D02*
X175132856Y-104424700D01*
X175132856Y-104424700D02*
X175037618Y-104472319D01*
X175037618Y-104472319D02*
X174847142Y-104472319D01*
X174847142Y-104472319D02*
X174751904Y-104424700D01*
X174751904Y-104424700D02*
X174704285Y-104377080D01*
X174704285Y-104377080D02*
X174656666Y-104281842D01*
X174656666Y-104281842D02*
X174656666Y-103472319D01*
X173656666Y-104472319D02*
X174228094Y-104472319D01*
X173942380Y-104472319D02*
X173942380Y-103472319D01*
X173942380Y-103472319D02*
X174037618Y-103615176D01*
X174037618Y-103615176D02*
X174132856Y-103710414D01*
X174132856Y-103710414D02*
X174228094Y-103758033D01*
X172751904Y-103472319D02*
X173228094Y-103472319D01*
X173228094Y-103472319D02*
X173275713Y-103948509D01*
X173275713Y-103948509D02*
X173228094Y-103900890D01*
X173228094Y-103900890D02*
X173132856Y-103853271D01*
X173132856Y-103853271D02*
X172894761Y-103853271D01*
X172894761Y-103853271D02*
X172799523Y-103900890D01*
X172799523Y-103900890D02*
X172751904Y-103948509D01*
X172751904Y-103948509D02*
X172704285Y-104043747D01*
X172704285Y-104043747D02*
X172704285Y-104281842D01*
X172704285Y-104281842D02*
X172751904Y-104377080D01*
X172751904Y-104377080D02*
X172799523Y-104424700D01*
X172799523Y-104424700D02*
X172894761Y-104472319D01*
X172894761Y-104472319D02*
X173132856Y-104472319D01*
X173132856Y-104472319D02*
X173228094Y-104424700D01*
X173228094Y-104424700D02*
X173275713Y-104377080D01*
X149450604Y-78067219D02*
X149450604Y-78876742D01*
X149450604Y-78876742D02*
X149402985Y-78971980D01*
X149402985Y-78971980D02*
X149355366Y-79019600D01*
X149355366Y-79019600D02*
X149260128Y-79067219D01*
X149260128Y-79067219D02*
X149069652Y-79067219D01*
X149069652Y-79067219D02*
X148974414Y-79019600D01*
X148974414Y-79019600D02*
X148926795Y-78971980D01*
X148926795Y-78971980D02*
X148879176Y-78876742D01*
X148879176Y-78876742D02*
X148879176Y-78067219D01*
X148355366Y-79067219D02*
X148164890Y-79067219D01*
X148164890Y-79067219D02*
X148069652Y-79019600D01*
X148069652Y-79019600D02*
X148022033Y-78971980D01*
X148022033Y-78971980D02*
X147926795Y-78829123D01*
X147926795Y-78829123D02*
X147879176Y-78638647D01*
X147879176Y-78638647D02*
X147879176Y-78257695D01*
X147879176Y-78257695D02*
X147926795Y-78162457D01*
X147926795Y-78162457D02*
X147974414Y-78114838D01*
X147974414Y-78114838D02*
X148069652Y-78067219D01*
X148069652Y-78067219D02*
X148260128Y-78067219D01*
X148260128Y-78067219D02*
X148355366Y-78114838D01*
X148355366Y-78114838D02*
X148402985Y-78162457D01*
X148402985Y-78162457D02*
X148450604Y-78257695D01*
X148450604Y-78257695D02*
X148450604Y-78495790D01*
X148450604Y-78495790D02*
X148402985Y-78591028D01*
X148402985Y-78591028D02*
X148355366Y-78638647D01*
X148355366Y-78638647D02*
X148260128Y-78686266D01*
X148260128Y-78686266D02*
X148069652Y-78686266D01*
X148069652Y-78686266D02*
X147974414Y-78638647D01*
X147974414Y-78638647D02*
X147926795Y-78591028D01*
X147926795Y-78591028D02*
X147879176Y-78495790D01*
X174751904Y-52544719D02*
X174751904Y-53354242D01*
X174751904Y-53354242D02*
X174704285Y-53449480D01*
X174704285Y-53449480D02*
X174656666Y-53497100D01*
X174656666Y-53497100D02*
X174561428Y-53544719D01*
X174561428Y-53544719D02*
X174370952Y-53544719D01*
X174370952Y-53544719D02*
X174275714Y-53497100D01*
X174275714Y-53497100D02*
X174228095Y-53449480D01*
X174228095Y-53449480D02*
X174180476Y-53354242D01*
X174180476Y-53354242D02*
X174180476Y-52544719D01*
X173275714Y-52544719D02*
X173466190Y-52544719D01*
X173466190Y-52544719D02*
X173561428Y-52592338D01*
X173561428Y-52592338D02*
X173609047Y-52639957D01*
X173609047Y-52639957D02*
X173704285Y-52782814D01*
X173704285Y-52782814D02*
X173751904Y-52973290D01*
X173751904Y-52973290D02*
X173751904Y-53354242D01*
X173751904Y-53354242D02*
X173704285Y-53449480D01*
X173704285Y-53449480D02*
X173656666Y-53497100D01*
X173656666Y-53497100D02*
X173561428Y-53544719D01*
X173561428Y-53544719D02*
X173370952Y-53544719D01*
X173370952Y-53544719D02*
X173275714Y-53497100D01*
X173275714Y-53497100D02*
X173228095Y-53449480D01*
X173228095Y-53449480D02*
X173180476Y-53354242D01*
X173180476Y-53354242D02*
X173180476Y-53116147D01*
X173180476Y-53116147D02*
X173228095Y-53020909D01*
X173228095Y-53020909D02*
X173275714Y-52973290D01*
X173275714Y-52973290D02*
X173370952Y-52925671D01*
X173370952Y-52925671D02*
X173561428Y-52925671D01*
X173561428Y-52925671D02*
X173656666Y-52973290D01*
X173656666Y-52973290D02*
X173704285Y-53020909D01*
X173704285Y-53020909D02*
X173751904Y-53116147D01*
X136651904Y-78194819D02*
X136651904Y-79004342D01*
X136651904Y-79004342D02*
X136604285Y-79099580D01*
X136604285Y-79099580D02*
X136556666Y-79147200D01*
X136556666Y-79147200D02*
X136461428Y-79194819D01*
X136461428Y-79194819D02*
X136270952Y-79194819D01*
X136270952Y-79194819D02*
X136175714Y-79147200D01*
X136175714Y-79147200D02*
X136128095Y-79099580D01*
X136128095Y-79099580D02*
X136080476Y-79004342D01*
X136080476Y-79004342D02*
X136080476Y-78194819D01*
X135461428Y-78623390D02*
X135556666Y-78575771D01*
X135556666Y-78575771D02*
X135604285Y-78528152D01*
X135604285Y-78528152D02*
X135651904Y-78432914D01*
X135651904Y-78432914D02*
X135651904Y-78385295D01*
X135651904Y-78385295D02*
X135604285Y-78290057D01*
X135604285Y-78290057D02*
X135556666Y-78242438D01*
X135556666Y-78242438D02*
X135461428Y-78194819D01*
X135461428Y-78194819D02*
X135270952Y-78194819D01*
X135270952Y-78194819D02*
X135175714Y-78242438D01*
X135175714Y-78242438D02*
X135128095Y-78290057D01*
X135128095Y-78290057D02*
X135080476Y-78385295D01*
X135080476Y-78385295D02*
X135080476Y-78432914D01*
X135080476Y-78432914D02*
X135128095Y-78528152D01*
X135128095Y-78528152D02*
X135175714Y-78575771D01*
X135175714Y-78575771D02*
X135270952Y-78623390D01*
X135270952Y-78623390D02*
X135461428Y-78623390D01*
X135461428Y-78623390D02*
X135556666Y-78671009D01*
X135556666Y-78671009D02*
X135604285Y-78718628D01*
X135604285Y-78718628D02*
X135651904Y-78813866D01*
X135651904Y-78813866D02*
X135651904Y-79004342D01*
X135651904Y-79004342D02*
X135604285Y-79099580D01*
X135604285Y-79099580D02*
X135556666Y-79147200D01*
X135556666Y-79147200D02*
X135461428Y-79194819D01*
X135461428Y-79194819D02*
X135270952Y-79194819D01*
X135270952Y-79194819D02*
X135175714Y-79147200D01*
X135175714Y-79147200D02*
X135128095Y-79099580D01*
X135128095Y-79099580D02*
X135080476Y-79004342D01*
X135080476Y-79004342D02*
X135080476Y-78813866D01*
X135080476Y-78813866D02*
X135128095Y-78718628D01*
X135128095Y-78718628D02*
X135175714Y-78671009D01*
X135175714Y-78671009D02*
X135270952Y-78623390D01*
X162528094Y-78317319D02*
X162528094Y-79126842D01*
X162528094Y-79126842D02*
X162480475Y-79222080D01*
X162480475Y-79222080D02*
X162432856Y-79269700D01*
X162432856Y-79269700D02*
X162337618Y-79317319D01*
X162337618Y-79317319D02*
X162147142Y-79317319D01*
X162147142Y-79317319D02*
X162051904Y-79269700D01*
X162051904Y-79269700D02*
X162004285Y-79222080D01*
X162004285Y-79222080D02*
X161956666Y-79126842D01*
X161956666Y-79126842D02*
X161956666Y-78317319D01*
X160956666Y-79317319D02*
X161528094Y-79317319D01*
X161242380Y-79317319D02*
X161242380Y-78317319D01*
X161242380Y-78317319D02*
X161337618Y-78460176D01*
X161337618Y-78460176D02*
X161432856Y-78555414D01*
X161432856Y-78555414D02*
X161528094Y-78603033D01*
X160337618Y-78317319D02*
X160242380Y-78317319D01*
X160242380Y-78317319D02*
X160147142Y-78364938D01*
X160147142Y-78364938D02*
X160099523Y-78412557D01*
X160099523Y-78412557D02*
X160051904Y-78507795D01*
X160051904Y-78507795D02*
X160004285Y-78698271D01*
X160004285Y-78698271D02*
X160004285Y-78936366D01*
X160004285Y-78936366D02*
X160051904Y-79126842D01*
X160051904Y-79126842D02*
X160099523Y-79222080D01*
X160099523Y-79222080D02*
X160147142Y-79269700D01*
X160147142Y-79269700D02*
X160242380Y-79317319D01*
X160242380Y-79317319D02*
X160337618Y-79317319D01*
X160337618Y-79317319D02*
X160432856Y-79269700D01*
X160432856Y-79269700D02*
X160480475Y-79222080D01*
X160480475Y-79222080D02*
X160528094Y-79126842D01*
X160528094Y-79126842D02*
X160575713Y-78936366D01*
X160575713Y-78936366D02*
X160575713Y-78698271D01*
X160575713Y-78698271D02*
X160528094Y-78507795D01*
X160528094Y-78507795D02*
X160480475Y-78412557D01*
X160480475Y-78412557D02*
X160432856Y-78364938D01*
X160432856Y-78364938D02*
X160337618Y-78317319D01*
X118871904Y-52672319D02*
X118871904Y-53481842D01*
X118871904Y-53481842D02*
X118824285Y-53577080D01*
X118824285Y-53577080D02*
X118776666Y-53624700D01*
X118776666Y-53624700D02*
X118681428Y-53672319D01*
X118681428Y-53672319D02*
X118490952Y-53672319D01*
X118490952Y-53672319D02*
X118395714Y-53624700D01*
X118395714Y-53624700D02*
X118348095Y-53577080D01*
X118348095Y-53577080D02*
X118300476Y-53481842D01*
X118300476Y-53481842D02*
X118300476Y-52672319D01*
X117871904Y-52767557D02*
X117824285Y-52719938D01*
X117824285Y-52719938D02*
X117729047Y-52672319D01*
X117729047Y-52672319D02*
X117490952Y-52672319D01*
X117490952Y-52672319D02*
X117395714Y-52719938D01*
X117395714Y-52719938D02*
X117348095Y-52767557D01*
X117348095Y-52767557D02*
X117300476Y-52862795D01*
X117300476Y-52862795D02*
X117300476Y-52958033D01*
X117300476Y-52958033D02*
X117348095Y-53100890D01*
X117348095Y-53100890D02*
X117919523Y-53672319D01*
X117919523Y-53672319D02*
X117300476Y-53672319D01*
X146811904Y-52672319D02*
X146811904Y-53481842D01*
X146811904Y-53481842D02*
X146764285Y-53577080D01*
X146764285Y-53577080D02*
X146716666Y-53624700D01*
X146716666Y-53624700D02*
X146621428Y-53672319D01*
X146621428Y-53672319D02*
X146430952Y-53672319D01*
X146430952Y-53672319D02*
X146335714Y-53624700D01*
X146335714Y-53624700D02*
X146288095Y-53577080D01*
X146288095Y-53577080D02*
X146240476Y-53481842D01*
X146240476Y-53481842D02*
X146240476Y-52672319D01*
X145335714Y-53005652D02*
X145335714Y-53672319D01*
X145573809Y-52624700D02*
X145811904Y-53338985D01*
X145811904Y-53338985D02*
X145192857Y-53338985D01*
X187451904Y-52544719D02*
X187451904Y-53354242D01*
X187451904Y-53354242D02*
X187404285Y-53449480D01*
X187404285Y-53449480D02*
X187356666Y-53497100D01*
X187356666Y-53497100D02*
X187261428Y-53544719D01*
X187261428Y-53544719D02*
X187070952Y-53544719D01*
X187070952Y-53544719D02*
X186975714Y-53497100D01*
X186975714Y-53497100D02*
X186928095Y-53449480D01*
X186928095Y-53449480D02*
X186880476Y-53354242D01*
X186880476Y-53354242D02*
X186880476Y-52544719D01*
X186499523Y-52544719D02*
X185832857Y-52544719D01*
X185832857Y-52544719D02*
X186261428Y-53544719D01*
X131571904Y-52672319D02*
X131571904Y-53481842D01*
X131571904Y-53481842D02*
X131524285Y-53577080D01*
X131524285Y-53577080D02*
X131476666Y-53624700D01*
X131476666Y-53624700D02*
X131381428Y-53672319D01*
X131381428Y-53672319D02*
X131190952Y-53672319D01*
X131190952Y-53672319D02*
X131095714Y-53624700D01*
X131095714Y-53624700D02*
X131048095Y-53577080D01*
X131048095Y-53577080D02*
X131000476Y-53481842D01*
X131000476Y-53481842D02*
X131000476Y-52672319D01*
X130619523Y-52672319D02*
X130000476Y-52672319D01*
X130000476Y-52672319D02*
X130333809Y-53053271D01*
X130333809Y-53053271D02*
X130190952Y-53053271D01*
X130190952Y-53053271D02*
X130095714Y-53100890D01*
X130095714Y-53100890D02*
X130048095Y-53148509D01*
X130048095Y-53148509D02*
X130000476Y-53243747D01*
X130000476Y-53243747D02*
X130000476Y-53481842D01*
X130000476Y-53481842D02*
X130048095Y-53577080D01*
X130048095Y-53577080D02*
X130095714Y-53624700D01*
X130095714Y-53624700D02*
X130190952Y-53672319D01*
X130190952Y-53672319D02*
X130476666Y-53672319D01*
X130476666Y-53672319D02*
X130571904Y-53624700D01*
X130571904Y-53624700D02*
X130619523Y-53577080D01*
M02*
