M48
; DRILL file {KiCad 7.0.8} date Tue Oct 10 00:58:20 2023
; FORMAT={-:-/ absolute / inch / decimal}
; #@! TF.CreationDate,2023-10-10T00:58:20-07:00
; #@! TF.GenerationSoftware,Kicad,Pcbnew,7.0.8
; #@! TF.FileFunction,MixedPlating,1,2
FMAT,2
INCH
; #@! TA.AperFunction,Plated,PTH,ViaDrill
T1C0.0157
; #@! TA.AperFunction,Plated,PTH,ComponentDrill
T2C0.0236
; #@! TA.AperFunction,Plated,PTH,ComponentDrill
T3C0.0276
; #@! TA.AperFunction,Plated,PTH,ComponentDrill
T4C0.0315
; #@! TA.AperFunction,NonPlated,NPTH,ComponentDrill
T5C0.0984
%
G90
G05
T1
X3.95Y-4.25
X3.95Y-4.3
X4.0Y-2.8
X4.0Y-4.1
X4.15Y-3.6
X4.15Y-5.15
X4.2Y-3.8
X4.25Y-2.9
X4.45Y-2.0
X4.45Y-2.15
X4.5Y-5.1
X4.55Y-1.95
X4.55Y-2.2
X4.55Y-3.4
X4.55Y-5.15
X4.6Y-3.5
X4.6Y-5.25
X4.75Y-1.9
X4.75Y-2.25
X4.85Y-1.85
X4.85Y-2.3
X4.9Y-4.7
X4.95Y-2.0
X4.95Y-2.15
X4.95Y-4.35
X4.95Y-5.15
X5.05Y-1.95
X5.05Y-2.2
X5.05Y-4.5
X5.15Y-3.0
X5.15Y-3.15
X5.15Y-3.9952
X5.15Y-4.1452
X5.15Y-4.65
X5.25Y-1.9
X5.25Y-2.25
X5.25Y-2.95
X5.25Y-3.2
X5.25Y-3.9452
X5.25Y-4.1952
X5.35Y-1.85
X5.35Y-2.3
X5.45Y-2.9
X5.45Y-3.25
X5.45Y-3.8952
X5.45Y-4.2452
X5.55Y-2.0
X5.55Y-2.15
X5.55Y-2.85
X5.55Y-3.3
X5.55Y-3.8452
X5.55Y-4.2952
X5.6Y-3.1
X5.6Y-3.6
X5.6Y-4.1
X5.6Y-4.55
X5.6Y-4.75
X5.6Y-4.85
X5.65Y-1.95
X5.65Y-2.2
X5.65Y-3.0
X5.65Y-3.15
X5.65Y-3.9952
X5.65Y-4.1452
X5.7Y-3.1
X5.7Y-3.6
X5.7Y-4.1
X5.7Y-4.55
X5.7Y-4.8
X5.75Y-2.95
X5.75Y-3.2
X5.75Y-3.9452
X5.75Y-4.1952
X5.75Y-4.8
X5.85Y-1.9
X5.85Y-2.25
X5.9Y-3.1
X5.9Y-3.6
X5.9Y-4.1
X5.9Y-4.6
X5.95Y-1.85
X5.95Y-2.3
X5.95Y-2.9
X5.95Y-3.25
X5.95Y-3.8952
X5.95Y-4.2452
X6.0Y-3.1
X6.0Y-3.6
X6.0Y-4.1
X6.0Y-4.65
X6.05Y-2.0
X6.05Y-2.15
X6.05Y-2.85
X6.05Y-3.3
X6.05Y-3.8452
X6.05Y-4.2952
X6.15Y-1.95
X6.15Y-2.2
X6.15Y-3.0
X6.15Y-3.15
X6.15Y-3.9952
X6.15Y-4.1452
X6.2Y-4.9
X6.2Y-5.05
X6.25Y-2.95
X6.25Y-3.2
X6.25Y-3.9452
X6.25Y-4.1952
X6.3Y-4.9
X6.3Y-5.1
X6.35Y-1.9
X6.35Y-2.25
X6.45Y-1.85
X6.45Y-2.3
X6.45Y-2.9
X6.45Y-3.25
X6.45Y-3.8952
X6.45Y-4.2452
X6.55Y-2.85
X6.55Y-3.3
X6.55Y-3.8452
X6.55Y-4.2952
X6.65Y-2.0
X6.65Y-2.15
X6.65Y-3.0
X6.65Y-3.15
X6.65Y-3.9952
X6.65Y-4.1452
X6.75Y-1.95
X6.75Y-2.2
X6.75Y-2.95
X6.75Y-3.2
X6.75Y-3.9452
X6.75Y-4.1952
X6.95Y-1.9
X6.95Y-2.25
X6.95Y-2.9
X6.95Y-3.25
X6.95Y-3.8952
X6.95Y-4.2452
X7.05Y-1.85
X7.05Y-2.3
X7.05Y-2.85
X7.05Y-3.3
X7.05Y-3.8452
X7.05Y-4.2952
X7.1Y-4.1
X7.1Y-4.7
X7.15Y-2.0
X7.15Y-2.15
X7.15Y-3.0
X7.15Y-3.15
X7.15Y-3.9952
X7.15Y-4.1452
X7.15Y-5.2
X7.25Y-1.95
X7.25Y-2.2
X7.25Y-2.95
X7.25Y-3.2
X7.25Y-3.9452
X7.25Y-4.1952
X7.45Y-1.9
X7.45Y-2.25
X7.45Y-2.9
X7.45Y-3.25
X7.45Y-3.8952
X7.45Y-4.2452
X7.45Y-4.75
X7.5Y-4.55
X7.55Y-1.85
X7.55Y-2.3
X7.55Y-2.85
X7.55Y-3.3
X7.55Y-3.8452
X7.55Y-4.2952
T2
X3.85Y-3.7213
X3.85Y-3.8
X4.95Y-4.8
X5.0287Y-4.8
X6.55Y-4.8
X6.6287Y-4.8
T3
X3.85Y-3.3
X3.85Y-3.6
X5.15Y-4.8
X5.45Y-4.8
X6.75Y-4.8
X7.05Y-4.8
T4
X3.8713Y-5.4
X3.95Y-5.4
X4.0287Y-5.4
X4.05Y-2.9
X4.05Y-3.0
X4.05Y-3.1
X4.05Y-3.2
X4.05Y-3.3
X4.05Y-3.4
X4.05Y-3.5
X4.05Y-3.6
X4.05Y-3.7
X4.05Y-3.8
X4.05Y-3.9
X4.05Y-4.0
X4.1075Y-5.4
X4.1862Y-5.4
X4.35Y-2.9
X4.35Y-3.0
X4.35Y-3.1
X4.35Y-3.2
X4.35Y-3.3
X4.35Y-3.4
X4.35Y-3.5
X4.35Y-3.6
X4.35Y-3.7
X4.35Y-3.8
X4.35Y-3.9
X4.35Y-4.0
X4.45Y-1.7952
X4.45Y-2.3952
X4.55Y-1.7952
X4.55Y-2.3952
X4.65Y-1.7952
X4.65Y-2.3952
X4.75Y-1.7952
X4.75Y-2.3952
X4.75Y-5.0
X4.75Y-5.3
X4.85Y-1.7952
X4.85Y-2.3952
X4.85Y-5.0
X4.85Y-5.3
X4.95Y-1.7952
X4.95Y-2.3952
X4.95Y-5.0
X4.95Y-5.3
X5.05Y-1.7952
X5.05Y-2.3952
X5.05Y-5.0
X5.05Y-5.3
X5.15Y-1.7952
X5.15Y-2.3952
X5.15Y-2.8
X5.15Y-3.4
X5.15Y-3.7952
X5.15Y-4.3952
X5.15Y-5.0
X5.15Y-5.3
X5.25Y-1.7952
X5.25Y-2.3952
X5.25Y-2.8
X5.25Y-3.4
X5.25Y-3.7952
X5.25Y-4.3952
X5.25Y-5.0
X5.25Y-5.3
X5.35Y-1.7952
X5.35Y-2.3952
X5.35Y-2.8
X5.35Y-3.4
X5.35Y-3.7952
X5.35Y-4.3952
X5.35Y-5.0
X5.35Y-5.3
X5.45Y-2.8
X5.45Y-3.4
X5.45Y-3.7952
X5.45Y-4.3952
X5.45Y-5.0
X5.45Y-5.3
X5.55Y-1.7952
X5.55Y-2.3952
X5.55Y-2.8
X5.55Y-3.4
X5.55Y-3.7952
X5.55Y-4.3952
X5.55Y-5.0
X5.55Y-5.3
X5.65Y-1.7952
X5.65Y-2.3952
X5.65Y-2.8
X5.65Y-3.4
X5.65Y-3.7952
X5.65Y-4.3952
X5.65Y-5.0
X5.65Y-5.3
X5.75Y-1.7952
X5.75Y-2.3952
X5.75Y-2.8
X5.75Y-3.4
X5.75Y-3.7952
X5.75Y-4.3952
X5.75Y-5.0
X5.75Y-5.3
X5.85Y-1.7952
X5.85Y-2.3952
X5.85Y-2.8
X5.85Y-3.4
X5.85Y-3.7952
X5.85Y-4.3952
X5.85Y-5.0
X5.85Y-5.3
X5.95Y-1.7952
X5.95Y-2.3952
X5.95Y-2.8
X5.95Y-3.4
X5.95Y-3.7952
X5.95Y-4.3952
X6.05Y-1.7952
X6.05Y-2.3952
X6.05Y-2.8
X6.05Y-3.4
X6.05Y-3.7952
X6.05Y-4.3952
X6.15Y-1.7952
X6.15Y-2.3952
X6.15Y-2.8
X6.15Y-3.4
X6.15Y-3.7952
X6.15Y-4.3952
X6.25Y-1.7952
X6.25Y-2.3952
X6.25Y-2.8
X6.25Y-3.4
X6.25Y-3.7952
X6.25Y-4.3952
X6.35Y-1.7952
X6.35Y-2.3952
X6.35Y-2.8
X6.35Y-3.4
X6.35Y-3.7952
X6.35Y-4.3952
X6.35Y-5.0
X6.35Y-5.3
X6.45Y-1.7952
X6.45Y-2.3952
X6.45Y-2.8
X6.45Y-3.4
X6.45Y-3.7952
X6.45Y-4.3952
X6.45Y-5.0
X6.45Y-5.3
X6.55Y-2.8
X6.55Y-3.4
X6.55Y-3.7952
X6.55Y-4.3952
X6.55Y-5.0
X6.55Y-5.3
X6.65Y-1.7952
X6.65Y-2.3952
X6.65Y-2.8
X6.65Y-3.4
X6.65Y-3.7952
X6.65Y-4.3952
X6.65Y-5.0
X6.65Y-5.3
X6.75Y-1.7952
X6.75Y-2.3952
X6.75Y-2.8
X6.75Y-3.4
X6.75Y-3.7952
X6.75Y-4.3952
X6.75Y-5.0
X6.75Y-5.3
X6.85Y-1.7952
X6.85Y-2.3952
X6.85Y-2.8
X6.85Y-3.4
X6.85Y-3.7952
X6.85Y-4.3952
X6.85Y-5.0
X6.85Y-5.3
X6.95Y-1.7952
X6.95Y-2.3952
X6.95Y-2.8
X6.95Y-3.4
X6.95Y-3.7952
X6.95Y-4.3952
X6.95Y-5.0
X6.95Y-5.3
X7.05Y-1.7952
X7.05Y-2.3952
X7.05Y-2.8
X7.05Y-3.4
X7.05Y-3.7952
X7.05Y-4.3952
X7.05Y-5.0
X7.05Y-5.3
X7.15Y-1.7952
X7.15Y-2.3952
X7.15Y-2.8
X7.15Y-3.4
X7.15Y-3.7952
X7.15Y-4.3952
X7.15Y-5.0
X7.15Y-5.3
X7.25Y-1.7952
X7.25Y-2.3952
X7.25Y-2.8
X7.25Y-3.4
X7.25Y-3.7952
X7.25Y-4.3952
X7.25Y-5.0
X7.25Y-5.3
X7.35Y-1.7952
X7.35Y-2.3952
X7.35Y-2.8
X7.35Y-3.4
X7.35Y-3.7952
X7.35Y-4.3952
X7.35Y-5.0
X7.35Y-5.3
X7.45Y-1.7952
X7.45Y-2.3952
X7.45Y-2.8
X7.45Y-3.4
X7.45Y-3.7952
X7.45Y-4.3952
X7.45Y-5.0
X7.45Y-5.3
X7.55Y-1.7952
X7.55Y-2.3952
X7.55Y-2.8
X7.55Y-3.4
X7.55Y-3.7952
X7.55Y-4.3952
T5
X4.0Y-1.85
X4.3Y-4.45
T0
M30
