%TF.GenerationSoftware,KiCad,Pcbnew,7.0.8*%
%TF.CreationDate,2023-10-10T01:09:48-07:00*%
%TF.ProjectId,htpm_control_numericals,6874706d-5f63-46f6-9e74-726f6c5f6e75,1*%
%TF.SameCoordinates,Original*%
%TF.FileFunction,Legend,Bot*%
%TF.FilePolarity,Positive*%
%FSLAX46Y46*%
G04 Gerber Fmt 4.6, Leading zero omitted, Abs format (unit mm)*
G04 Created by KiCad (PCBNEW 7.0.8) date 2023-10-10 01:09:48*
%MOMM*%
%LPD*%
G01*
G04 APERTURE LIST*
%ADD10C,0.300000*%
%ADD11C,0.150000*%
G04 APERTURE END LIST*
D10*
X121490828Y-75913082D02*
X122562257Y-75913082D01*
X122562257Y-75913082D02*
X122776542Y-75841653D01*
X122776542Y-75841653D02*
X122919400Y-75698796D01*
X122919400Y-75698796D02*
X122990828Y-75484510D01*
X122990828Y-75484510D02*
X122990828Y-75341653D01*
X122990828Y-77341653D02*
X122990828Y-76627367D01*
X122990828Y-76627367D02*
X121490828Y-76627367D01*
X122847971Y-78698796D02*
X122919400Y-78627368D01*
X122919400Y-78627368D02*
X122990828Y-78413082D01*
X122990828Y-78413082D02*
X122990828Y-78270225D01*
X122990828Y-78270225D02*
X122919400Y-78055939D01*
X122919400Y-78055939D02*
X122776542Y-77913082D01*
X122776542Y-77913082D02*
X122633685Y-77841653D01*
X122633685Y-77841653D02*
X122347971Y-77770225D01*
X122347971Y-77770225D02*
X122133685Y-77770225D01*
X122133685Y-77770225D02*
X121847971Y-77841653D01*
X121847971Y-77841653D02*
X121705114Y-77913082D01*
X121705114Y-77913082D02*
X121562257Y-78055939D01*
X121562257Y-78055939D02*
X121490828Y-78270225D01*
X121490828Y-78270225D02*
X121490828Y-78413082D01*
X121490828Y-78413082D02*
X121562257Y-78627368D01*
X121562257Y-78627368D02*
X121633685Y-78698796D01*
X121490828Y-79770225D02*
X122562257Y-79770225D01*
X122562257Y-79770225D02*
X122776542Y-79698796D01*
X122776542Y-79698796D02*
X122919400Y-79555939D01*
X122919400Y-79555939D02*
X122990828Y-79341653D01*
X122990828Y-79341653D02*
X122990828Y-79198796D01*
X122990828Y-81198796D02*
X122990828Y-80484510D01*
X122990828Y-80484510D02*
X121490828Y-80484510D01*
X122847971Y-82555939D02*
X122919400Y-82484511D01*
X122919400Y-82484511D02*
X122990828Y-82270225D01*
X122990828Y-82270225D02*
X122990828Y-82127368D01*
X122990828Y-82127368D02*
X122919400Y-81913082D01*
X122919400Y-81913082D02*
X122776542Y-81770225D01*
X122776542Y-81770225D02*
X122633685Y-81698796D01*
X122633685Y-81698796D02*
X122347971Y-81627368D01*
X122347971Y-81627368D02*
X122133685Y-81627368D01*
X122133685Y-81627368D02*
X121847971Y-81698796D01*
X121847971Y-81698796D02*
X121705114Y-81770225D01*
X121705114Y-81770225D02*
X121562257Y-81913082D01*
X121562257Y-81913082D02*
X121490828Y-82127368D01*
X121490828Y-82127368D02*
X121490828Y-82270225D01*
X121490828Y-82270225D02*
X121562257Y-82484511D01*
X121562257Y-82484511D02*
X121633685Y-82555939D01*
X121490828Y-83627368D02*
X122562257Y-83627368D01*
X122562257Y-83627368D02*
X122776542Y-83555939D01*
X122776542Y-83555939D02*
X122919400Y-83413082D01*
X122919400Y-83413082D02*
X122990828Y-83198796D01*
X122990828Y-83198796D02*
X122990828Y-83055939D01*
X122990828Y-85055939D02*
X122990828Y-84341653D01*
X122990828Y-84341653D02*
X121490828Y-84341653D01*
X122847971Y-86413082D02*
X122919400Y-86341654D01*
X122919400Y-86341654D02*
X122990828Y-86127368D01*
X122990828Y-86127368D02*
X122990828Y-85984511D01*
X122990828Y-85984511D02*
X122919400Y-85770225D01*
X122919400Y-85770225D02*
X122776542Y-85627368D01*
X122776542Y-85627368D02*
X122633685Y-85555939D01*
X122633685Y-85555939D02*
X122347971Y-85484511D01*
X122347971Y-85484511D02*
X122133685Y-85484511D01*
X122133685Y-85484511D02*
X121847971Y-85555939D01*
X121847971Y-85555939D02*
X121705114Y-85627368D01*
X121705114Y-85627368D02*
X121562257Y-85770225D01*
X121562257Y-85770225D02*
X121490828Y-85984511D01*
X121490828Y-85984511D02*
X121490828Y-86127368D01*
X121490828Y-86127368D02*
X121562257Y-86341654D01*
X121562257Y-86341654D02*
X121633685Y-86413082D01*
X121490828Y-87484511D02*
X122562257Y-87484511D01*
X122562257Y-87484511D02*
X122776542Y-87413082D01*
X122776542Y-87413082D02*
X122919400Y-87270225D01*
X122919400Y-87270225D02*
X122990828Y-87055939D01*
X122990828Y-87055939D02*
X122990828Y-86913082D01*
X122990828Y-88913082D02*
X122990828Y-88198796D01*
X122990828Y-88198796D02*
X121490828Y-88198796D01*
X122847971Y-90270225D02*
X122919400Y-90198797D01*
X122919400Y-90198797D02*
X122990828Y-89984511D01*
X122990828Y-89984511D02*
X122990828Y-89841654D01*
X122990828Y-89841654D02*
X122919400Y-89627368D01*
X122919400Y-89627368D02*
X122776542Y-89484511D01*
X122776542Y-89484511D02*
X122633685Y-89413082D01*
X122633685Y-89413082D02*
X122347971Y-89341654D01*
X122347971Y-89341654D02*
X122133685Y-89341654D01*
X122133685Y-89341654D02*
X121847971Y-89413082D01*
X121847971Y-89413082D02*
X121705114Y-89484511D01*
X121705114Y-89484511D02*
X121562257Y-89627368D01*
X121562257Y-89627368D02*
X121490828Y-89841654D01*
X121490828Y-89841654D02*
X121490828Y-89984511D01*
X121490828Y-89984511D02*
X121562257Y-90198797D01*
X121562257Y-90198797D02*
X121633685Y-90270225D01*
X100255828Y-104694510D02*
X98755828Y-104694510D01*
X99470114Y-104694510D02*
X99470114Y-105551653D01*
X100255828Y-105551653D02*
X98755828Y-105551653D01*
X98755828Y-106051654D02*
X98755828Y-106908797D01*
X100255828Y-106480225D02*
X98755828Y-106480225D01*
X100255828Y-107408796D02*
X98755828Y-107408796D01*
X98755828Y-107408796D02*
X98755828Y-107980225D01*
X98755828Y-107980225D02*
X98827257Y-108123082D01*
X98827257Y-108123082D02*
X98898685Y-108194511D01*
X98898685Y-108194511D02*
X99041542Y-108265939D01*
X99041542Y-108265939D02*
X99255828Y-108265939D01*
X99255828Y-108265939D02*
X99398685Y-108194511D01*
X99398685Y-108194511D02*
X99470114Y-108123082D01*
X99470114Y-108123082D02*
X99541542Y-107980225D01*
X99541542Y-107980225D02*
X99541542Y-107408796D01*
X100112971Y-108908796D02*
X100184400Y-108980225D01*
X100184400Y-108980225D02*
X100255828Y-108908796D01*
X100255828Y-108908796D02*
X100184400Y-108837368D01*
X100184400Y-108837368D02*
X100112971Y-108908796D01*
X100112971Y-108908796D02*
X100255828Y-108908796D01*
X99684400Y-108908796D02*
X98827257Y-108837368D01*
X98827257Y-108837368D02*
X98755828Y-108908796D01*
X98755828Y-108908796D02*
X98827257Y-108980225D01*
X98827257Y-108980225D02*
X99684400Y-108908796D01*
X99684400Y-108908796D02*
X98755828Y-108908796D01*
X100255828Y-109623082D02*
X99255828Y-109623082D01*
X99398685Y-109623082D02*
X99327257Y-109694511D01*
X99327257Y-109694511D02*
X99255828Y-109837368D01*
X99255828Y-109837368D02*
X99255828Y-110051654D01*
X99255828Y-110051654D02*
X99327257Y-110194511D01*
X99327257Y-110194511D02*
X99470114Y-110265940D01*
X99470114Y-110265940D02*
X100255828Y-110265940D01*
X99470114Y-110265940D02*
X99327257Y-110337368D01*
X99327257Y-110337368D02*
X99255828Y-110480225D01*
X99255828Y-110480225D02*
X99255828Y-110694511D01*
X99255828Y-110694511D02*
X99327257Y-110837368D01*
X99327257Y-110837368D02*
X99470114Y-110908797D01*
X99470114Y-110908797D02*
X100255828Y-110908797D01*
X100112971Y-113623082D02*
X100184400Y-113551654D01*
X100184400Y-113551654D02*
X100255828Y-113337368D01*
X100255828Y-113337368D02*
X100255828Y-113194511D01*
X100255828Y-113194511D02*
X100184400Y-112980225D01*
X100184400Y-112980225D02*
X100041542Y-112837368D01*
X100041542Y-112837368D02*
X99898685Y-112765939D01*
X99898685Y-112765939D02*
X99612971Y-112694511D01*
X99612971Y-112694511D02*
X99398685Y-112694511D01*
X99398685Y-112694511D02*
X99112971Y-112765939D01*
X99112971Y-112765939D02*
X98970114Y-112837368D01*
X98970114Y-112837368D02*
X98827257Y-112980225D01*
X98827257Y-112980225D02*
X98755828Y-113194511D01*
X98755828Y-113194511D02*
X98755828Y-113337368D01*
X98755828Y-113337368D02*
X98827257Y-113551654D01*
X98827257Y-113551654D02*
X98898685Y-113623082D01*
X98755828Y-114551654D02*
X98755828Y-114837368D01*
X98755828Y-114837368D02*
X98827257Y-114980225D01*
X98827257Y-114980225D02*
X98970114Y-115123082D01*
X98970114Y-115123082D02*
X99255828Y-115194511D01*
X99255828Y-115194511D02*
X99755828Y-115194511D01*
X99755828Y-115194511D02*
X100041542Y-115123082D01*
X100041542Y-115123082D02*
X100184400Y-114980225D01*
X100184400Y-114980225D02*
X100255828Y-114837368D01*
X100255828Y-114837368D02*
X100255828Y-114551654D01*
X100255828Y-114551654D02*
X100184400Y-114408797D01*
X100184400Y-114408797D02*
X100041542Y-114265939D01*
X100041542Y-114265939D02*
X99755828Y-114194511D01*
X99755828Y-114194511D02*
X99255828Y-114194511D01*
X99255828Y-114194511D02*
X98970114Y-114265939D01*
X98970114Y-114265939D02*
X98827257Y-114408797D01*
X98827257Y-114408797D02*
X98755828Y-114551654D01*
X100255828Y-115837368D02*
X98755828Y-115837368D01*
X98755828Y-115837368D02*
X100255828Y-116694511D01*
X100255828Y-116694511D02*
X98755828Y-116694511D01*
X98755828Y-117194512D02*
X98755828Y-118051655D01*
X100255828Y-117623083D02*
X98755828Y-117623083D01*
X100255828Y-119408797D02*
X99541542Y-118908797D01*
X100255828Y-118551654D02*
X98755828Y-118551654D01*
X98755828Y-118551654D02*
X98755828Y-119123083D01*
X98755828Y-119123083D02*
X98827257Y-119265940D01*
X98827257Y-119265940D02*
X98898685Y-119337369D01*
X98898685Y-119337369D02*
X99041542Y-119408797D01*
X99041542Y-119408797D02*
X99255828Y-119408797D01*
X99255828Y-119408797D02*
X99398685Y-119337369D01*
X99398685Y-119337369D02*
X99470114Y-119265940D01*
X99470114Y-119265940D02*
X99541542Y-119123083D01*
X99541542Y-119123083D02*
X99541542Y-118551654D01*
X98755828Y-120337369D02*
X98755828Y-120623083D01*
X98755828Y-120623083D02*
X98827257Y-120765940D01*
X98827257Y-120765940D02*
X98970114Y-120908797D01*
X98970114Y-120908797D02*
X99255828Y-120980226D01*
X99255828Y-120980226D02*
X99755828Y-120980226D01*
X99755828Y-120980226D02*
X100041542Y-120908797D01*
X100041542Y-120908797D02*
X100184400Y-120765940D01*
X100184400Y-120765940D02*
X100255828Y-120623083D01*
X100255828Y-120623083D02*
X100255828Y-120337369D01*
X100255828Y-120337369D02*
X100184400Y-120194512D01*
X100184400Y-120194512D02*
X100041542Y-120051654D01*
X100041542Y-120051654D02*
X99755828Y-119980226D01*
X99755828Y-119980226D02*
X99255828Y-119980226D01*
X99255828Y-119980226D02*
X98970114Y-120051654D01*
X98970114Y-120051654D02*
X98827257Y-120194512D01*
X98827257Y-120194512D02*
X98755828Y-120337369D01*
X100255828Y-122337369D02*
X100255828Y-121623083D01*
X100255828Y-121623083D02*
X98755828Y-121623083D01*
X100255828Y-123980226D02*
X98755828Y-123980226D01*
X98755828Y-123980226D02*
X100255828Y-124837369D01*
X100255828Y-124837369D02*
X98755828Y-124837369D01*
X99255828Y-126194513D02*
X100255828Y-126194513D01*
X99255828Y-125551655D02*
X100041542Y-125551655D01*
X100041542Y-125551655D02*
X100184400Y-125623084D01*
X100184400Y-125623084D02*
X100255828Y-125765941D01*
X100255828Y-125765941D02*
X100255828Y-125980227D01*
X100255828Y-125980227D02*
X100184400Y-126123084D01*
X100184400Y-126123084D02*
X100112971Y-126194513D01*
X100255828Y-126908798D02*
X99255828Y-126908798D01*
X99398685Y-126908798D02*
X99327257Y-126980227D01*
X99327257Y-126980227D02*
X99255828Y-127123084D01*
X99255828Y-127123084D02*
X99255828Y-127337370D01*
X99255828Y-127337370D02*
X99327257Y-127480227D01*
X99327257Y-127480227D02*
X99470114Y-127551656D01*
X99470114Y-127551656D02*
X100255828Y-127551656D01*
X99470114Y-127551656D02*
X99327257Y-127623084D01*
X99327257Y-127623084D02*
X99255828Y-127765941D01*
X99255828Y-127765941D02*
X99255828Y-127980227D01*
X99255828Y-127980227D02*
X99327257Y-128123084D01*
X99327257Y-128123084D02*
X99470114Y-128194513D01*
X99470114Y-128194513D02*
X100255828Y-128194513D01*
X100184400Y-129480227D02*
X100255828Y-129337370D01*
X100255828Y-129337370D02*
X100255828Y-129051656D01*
X100255828Y-129051656D02*
X100184400Y-128908798D01*
X100184400Y-128908798D02*
X100041542Y-128837370D01*
X100041542Y-128837370D02*
X99470114Y-128837370D01*
X99470114Y-128837370D02*
X99327257Y-128908798D01*
X99327257Y-128908798D02*
X99255828Y-129051656D01*
X99255828Y-129051656D02*
X99255828Y-129337370D01*
X99255828Y-129337370D02*
X99327257Y-129480227D01*
X99327257Y-129480227D02*
X99470114Y-129551656D01*
X99470114Y-129551656D02*
X99612971Y-129551656D01*
X99612971Y-129551656D02*
X99755828Y-128837370D01*
X100255828Y-130194512D02*
X99255828Y-130194512D01*
X99541542Y-130194512D02*
X99398685Y-130265941D01*
X99398685Y-130265941D02*
X99327257Y-130337370D01*
X99327257Y-130337370D02*
X99255828Y-130480227D01*
X99255828Y-130480227D02*
X99255828Y-130623084D01*
X100255828Y-131123083D02*
X99255828Y-131123083D01*
X98755828Y-131123083D02*
X98827257Y-131051655D01*
X98827257Y-131051655D02*
X98898685Y-131123083D01*
X98898685Y-131123083D02*
X98827257Y-131194512D01*
X98827257Y-131194512D02*
X98755828Y-131123083D01*
X98755828Y-131123083D02*
X98898685Y-131123083D01*
X100184400Y-132480227D02*
X100255828Y-132337369D01*
X100255828Y-132337369D02*
X100255828Y-132051655D01*
X100255828Y-132051655D02*
X100184400Y-131908798D01*
X100184400Y-131908798D02*
X100112971Y-131837369D01*
X100112971Y-131837369D02*
X99970114Y-131765941D01*
X99970114Y-131765941D02*
X99541542Y-131765941D01*
X99541542Y-131765941D02*
X99398685Y-131837369D01*
X99398685Y-131837369D02*
X99327257Y-131908798D01*
X99327257Y-131908798D02*
X99255828Y-132051655D01*
X99255828Y-132051655D02*
X99255828Y-132337369D01*
X99255828Y-132337369D02*
X99327257Y-132480227D01*
X100255828Y-133765941D02*
X99470114Y-133765941D01*
X99470114Y-133765941D02*
X99327257Y-133694512D01*
X99327257Y-133694512D02*
X99255828Y-133551655D01*
X99255828Y-133551655D02*
X99255828Y-133265941D01*
X99255828Y-133265941D02*
X99327257Y-133123083D01*
X100184400Y-133765941D02*
X100255828Y-133623083D01*
X100255828Y-133623083D02*
X100255828Y-133265941D01*
X100255828Y-133265941D02*
X100184400Y-133123083D01*
X100184400Y-133123083D02*
X100041542Y-133051655D01*
X100041542Y-133051655D02*
X99898685Y-133051655D01*
X99898685Y-133051655D02*
X99755828Y-133123083D01*
X99755828Y-133123083D02*
X99684400Y-133265941D01*
X99684400Y-133265941D02*
X99684400Y-133623083D01*
X99684400Y-133623083D02*
X99612971Y-133765941D01*
X100255828Y-134694512D02*
X100184400Y-134551655D01*
X100184400Y-134551655D02*
X100041542Y-134480226D01*
X100041542Y-134480226D02*
X98755828Y-134480226D01*
X100184400Y-135194512D02*
X100255828Y-135337369D01*
X100255828Y-135337369D02*
X100255828Y-135623083D01*
X100255828Y-135623083D02*
X100184400Y-135765940D01*
X100184400Y-135765940D02*
X100041542Y-135837369D01*
X100041542Y-135837369D02*
X99970114Y-135837369D01*
X99970114Y-135837369D02*
X99827257Y-135765940D01*
X99827257Y-135765940D02*
X99755828Y-135623083D01*
X99755828Y-135623083D02*
X99755828Y-135408798D01*
X99755828Y-135408798D02*
X99684400Y-135265940D01*
X99684400Y-135265940D02*
X99541542Y-135194512D01*
X99541542Y-135194512D02*
X99470114Y-135194512D01*
X99470114Y-135194512D02*
X99327257Y-135265940D01*
X99327257Y-135265940D02*
X99255828Y-135408798D01*
X99255828Y-135408798D02*
X99255828Y-135623083D01*
X99255828Y-135623083D02*
X99327257Y-135765940D01*
X102670828Y-104694510D02*
X101170828Y-104694510D01*
X101742257Y-104694510D02*
X101670828Y-104837368D01*
X101670828Y-104837368D02*
X101670828Y-105123082D01*
X101670828Y-105123082D02*
X101742257Y-105265939D01*
X101742257Y-105265939D02*
X101813685Y-105337368D01*
X101813685Y-105337368D02*
X101956542Y-105408796D01*
X101956542Y-105408796D02*
X102385114Y-105408796D01*
X102385114Y-105408796D02*
X102527971Y-105337368D01*
X102527971Y-105337368D02*
X102599400Y-105265939D01*
X102599400Y-105265939D02*
X102670828Y-105123082D01*
X102670828Y-105123082D02*
X102670828Y-104837368D01*
X102670828Y-104837368D02*
X102599400Y-104694510D01*
X101670828Y-105908796D02*
X102670828Y-106265939D01*
X101670828Y-106623082D02*
X102670828Y-106265939D01*
X102670828Y-106265939D02*
X103027971Y-106123082D01*
X103027971Y-106123082D02*
X103099400Y-106051653D01*
X103099400Y-106051653D02*
X103170828Y-105908796D01*
X102599400Y-108265939D02*
X102670828Y-108408796D01*
X102670828Y-108408796D02*
X102670828Y-108694510D01*
X102670828Y-108694510D02*
X102599400Y-108837367D01*
X102599400Y-108837367D02*
X102456542Y-108908796D01*
X102456542Y-108908796D02*
X102385114Y-108908796D01*
X102385114Y-108908796D02*
X102242257Y-108837367D01*
X102242257Y-108837367D02*
X102170828Y-108694510D01*
X102170828Y-108694510D02*
X102170828Y-108480225D01*
X102170828Y-108480225D02*
X102099400Y-108337367D01*
X102099400Y-108337367D02*
X101956542Y-108265939D01*
X101956542Y-108265939D02*
X101885114Y-108265939D01*
X101885114Y-108265939D02*
X101742257Y-108337367D01*
X101742257Y-108337367D02*
X101670828Y-108480225D01*
X101670828Y-108480225D02*
X101670828Y-108694510D01*
X101670828Y-108694510D02*
X101742257Y-108837367D01*
X102670828Y-109551653D02*
X101170828Y-109551653D01*
X102670828Y-110194511D02*
X101885114Y-110194511D01*
X101885114Y-110194511D02*
X101742257Y-110123082D01*
X101742257Y-110123082D02*
X101670828Y-109980225D01*
X101670828Y-109980225D02*
X101670828Y-109765939D01*
X101670828Y-109765939D02*
X101742257Y-109623082D01*
X101742257Y-109623082D02*
X101813685Y-109551653D01*
X102670828Y-111551654D02*
X101885114Y-111551654D01*
X101885114Y-111551654D02*
X101742257Y-111480225D01*
X101742257Y-111480225D02*
X101670828Y-111337368D01*
X101670828Y-111337368D02*
X101670828Y-111051654D01*
X101670828Y-111051654D02*
X101742257Y-110908796D01*
X102599400Y-111551654D02*
X102670828Y-111408796D01*
X102670828Y-111408796D02*
X102670828Y-111051654D01*
X102670828Y-111051654D02*
X102599400Y-110908796D01*
X102599400Y-110908796D02*
X102456542Y-110837368D01*
X102456542Y-110837368D02*
X102313685Y-110837368D01*
X102313685Y-110837368D02*
X102170828Y-110908796D01*
X102170828Y-110908796D02*
X102099400Y-111051654D01*
X102099400Y-111051654D02*
X102099400Y-111408796D01*
X102099400Y-111408796D02*
X102027971Y-111551654D01*
X101670828Y-112123082D02*
X102670828Y-112408797D01*
X102670828Y-112408797D02*
X101956542Y-112694511D01*
X101956542Y-112694511D02*
X102670828Y-112980225D01*
X102670828Y-112980225D02*
X101670828Y-113265939D01*
X101670828Y-113837368D02*
X102670828Y-113837368D01*
X101813685Y-113837368D02*
X101742257Y-113908797D01*
X101742257Y-113908797D02*
X101670828Y-114051654D01*
X101670828Y-114051654D02*
X101670828Y-114265940D01*
X101670828Y-114265940D02*
X101742257Y-114408797D01*
X101742257Y-114408797D02*
X101885114Y-114480226D01*
X101885114Y-114480226D02*
X102670828Y-114480226D01*
X102670828Y-115837369D02*
X101170828Y-115837369D01*
X102599400Y-115837369D02*
X102670828Y-115694511D01*
X102670828Y-115694511D02*
X102670828Y-115408797D01*
X102670828Y-115408797D02*
X102599400Y-115265940D01*
X102599400Y-115265940D02*
X102527971Y-115194511D01*
X102527971Y-115194511D02*
X102385114Y-115123083D01*
X102385114Y-115123083D02*
X101956542Y-115123083D01*
X101956542Y-115123083D02*
X101813685Y-115194511D01*
X101813685Y-115194511D02*
X101742257Y-115265940D01*
X101742257Y-115265940D02*
X101670828Y-115408797D01*
X101670828Y-115408797D02*
X101670828Y-115694511D01*
X101670828Y-115694511D02*
X101742257Y-115837369D01*
X102527971Y-116551654D02*
X102599400Y-116623083D01*
X102599400Y-116623083D02*
X102670828Y-116551654D01*
X102670828Y-116551654D02*
X102599400Y-116480226D01*
X102599400Y-116480226D02*
X102527971Y-116551654D01*
X102527971Y-116551654D02*
X102670828Y-116551654D01*
X102670828Y-117123083D02*
X101670828Y-117908798D01*
X101670828Y-117123083D02*
X102670828Y-117908798D01*
X101670828Y-118337369D02*
X102670828Y-118694512D01*
X101670828Y-119051655D02*
X102670828Y-118694512D01*
X102670828Y-118694512D02*
X103027971Y-118551655D01*
X103027971Y-118551655D02*
X103099400Y-118480226D01*
X103099400Y-118480226D02*
X103170828Y-118337369D01*
X101670828Y-119480226D02*
X101670828Y-120265941D01*
X101670828Y-120265941D02*
X102670828Y-119480226D01*
X102670828Y-119480226D02*
X102670828Y-120265941D01*
D11*
X109981904Y-109984819D02*
X109981904Y-108984819D01*
X109981904Y-109461009D02*
X109410476Y-109461009D01*
X109410476Y-109984819D02*
X109410476Y-108984819D01*
X108981904Y-109080057D02*
X108934285Y-109032438D01*
X108934285Y-109032438D02*
X108839047Y-108984819D01*
X108839047Y-108984819D02*
X108600952Y-108984819D01*
X108600952Y-108984819D02*
X108505714Y-109032438D01*
X108505714Y-109032438D02*
X108458095Y-109080057D01*
X108458095Y-109080057D02*
X108410476Y-109175295D01*
X108410476Y-109175295D02*
X108410476Y-109270533D01*
X108410476Y-109270533D02*
X108458095Y-109413390D01*
X108458095Y-109413390D02*
X109029523Y-109984819D01*
X109029523Y-109984819D02*
X108410476Y-109984819D01*
X187928094Y-78067219D02*
X187928094Y-78876742D01*
X187928094Y-78876742D02*
X187880475Y-78971980D01*
X187880475Y-78971980D02*
X187832856Y-79019600D01*
X187832856Y-79019600D02*
X187737618Y-79067219D01*
X187737618Y-79067219D02*
X187547142Y-79067219D01*
X187547142Y-79067219D02*
X187451904Y-79019600D01*
X187451904Y-79019600D02*
X187404285Y-78971980D01*
X187404285Y-78971980D02*
X187356666Y-78876742D01*
X187356666Y-78876742D02*
X187356666Y-78067219D01*
X186356666Y-79067219D02*
X186928094Y-79067219D01*
X186642380Y-79067219D02*
X186642380Y-78067219D01*
X186642380Y-78067219D02*
X186737618Y-78210076D01*
X186737618Y-78210076D02*
X186832856Y-78305314D01*
X186832856Y-78305314D02*
X186928094Y-78352933D01*
X185975713Y-78162457D02*
X185928094Y-78114838D01*
X185928094Y-78114838D02*
X185832856Y-78067219D01*
X185832856Y-78067219D02*
X185594761Y-78067219D01*
X185594761Y-78067219D02*
X185499523Y-78114838D01*
X185499523Y-78114838D02*
X185451904Y-78162457D01*
X185451904Y-78162457D02*
X185404285Y-78257695D01*
X185404285Y-78257695D02*
X185404285Y-78352933D01*
X185404285Y-78352933D02*
X185451904Y-78495790D01*
X185451904Y-78495790D02*
X186023332Y-79067219D01*
X186023332Y-79067219D02*
X185404285Y-79067219D01*
X187928094Y-103594819D02*
X187928094Y-104404342D01*
X187928094Y-104404342D02*
X187880475Y-104499580D01*
X187880475Y-104499580D02*
X187832856Y-104547200D01*
X187832856Y-104547200D02*
X187737618Y-104594819D01*
X187737618Y-104594819D02*
X187547142Y-104594819D01*
X187547142Y-104594819D02*
X187451904Y-104547200D01*
X187451904Y-104547200D02*
X187404285Y-104499580D01*
X187404285Y-104499580D02*
X187356666Y-104404342D01*
X187356666Y-104404342D02*
X187356666Y-103594819D01*
X186356666Y-104594819D02*
X186928094Y-104594819D01*
X186642380Y-104594819D02*
X186642380Y-103594819D01*
X186642380Y-103594819D02*
X186737618Y-103737676D01*
X186737618Y-103737676D02*
X186832856Y-103832914D01*
X186832856Y-103832914D02*
X186928094Y-103880533D01*
X185499523Y-103928152D02*
X185499523Y-104594819D01*
X185737618Y-103547200D02*
X185975713Y-104261485D01*
X185975713Y-104261485D02*
X185356666Y-104261485D01*
X162528094Y-103472319D02*
X162528094Y-104281842D01*
X162528094Y-104281842D02*
X162480475Y-104377080D01*
X162480475Y-104377080D02*
X162432856Y-104424700D01*
X162432856Y-104424700D02*
X162337618Y-104472319D01*
X162337618Y-104472319D02*
X162147142Y-104472319D01*
X162147142Y-104472319D02*
X162051904Y-104424700D01*
X162051904Y-104424700D02*
X162004285Y-104377080D01*
X162004285Y-104377080D02*
X161956666Y-104281842D01*
X161956666Y-104281842D02*
X161956666Y-103472319D01*
X160956666Y-104472319D02*
X161528094Y-104472319D01*
X161242380Y-104472319D02*
X161242380Y-103472319D01*
X161242380Y-103472319D02*
X161337618Y-103615176D01*
X161337618Y-103615176D02*
X161432856Y-103710414D01*
X161432856Y-103710414D02*
X161528094Y-103758033D01*
X160099523Y-103472319D02*
X160289999Y-103472319D01*
X160289999Y-103472319D02*
X160385237Y-103519938D01*
X160385237Y-103519938D02*
X160432856Y-103567557D01*
X160432856Y-103567557D02*
X160528094Y-103710414D01*
X160528094Y-103710414D02*
X160575713Y-103900890D01*
X160575713Y-103900890D02*
X160575713Y-104281842D01*
X160575713Y-104281842D02*
X160528094Y-104377080D01*
X160528094Y-104377080D02*
X160480475Y-104424700D01*
X160480475Y-104424700D02*
X160385237Y-104472319D01*
X160385237Y-104472319D02*
X160194761Y-104472319D01*
X160194761Y-104472319D02*
X160099523Y-104424700D01*
X160099523Y-104424700D02*
X160051904Y-104377080D01*
X160051904Y-104377080D02*
X160004285Y-104281842D01*
X160004285Y-104281842D02*
X160004285Y-104043747D01*
X160004285Y-104043747D02*
X160051904Y-103948509D01*
X160051904Y-103948509D02*
X160099523Y-103900890D01*
X160099523Y-103900890D02*
X160194761Y-103853271D01*
X160194761Y-103853271D02*
X160385237Y-103853271D01*
X160385237Y-103853271D02*
X160480475Y-103900890D01*
X160480475Y-103900890D02*
X160528094Y-103948509D01*
X160528094Y-103948509D02*
X160575713Y-104043747D01*
X175228094Y-78317319D02*
X175228094Y-79126842D01*
X175228094Y-79126842D02*
X175180475Y-79222080D01*
X175180475Y-79222080D02*
X175132856Y-79269700D01*
X175132856Y-79269700D02*
X175037618Y-79317319D01*
X175037618Y-79317319D02*
X174847142Y-79317319D01*
X174847142Y-79317319D02*
X174751904Y-79269700D01*
X174751904Y-79269700D02*
X174704285Y-79222080D01*
X174704285Y-79222080D02*
X174656666Y-79126842D01*
X174656666Y-79126842D02*
X174656666Y-78317319D01*
X173656666Y-79317319D02*
X174228094Y-79317319D01*
X173942380Y-79317319D02*
X173942380Y-78317319D01*
X173942380Y-78317319D02*
X174037618Y-78460176D01*
X174037618Y-78460176D02*
X174132856Y-78555414D01*
X174132856Y-78555414D02*
X174228094Y-78603033D01*
X172704285Y-79317319D02*
X173275713Y-79317319D01*
X172989999Y-79317319D02*
X172989999Y-78317319D01*
X172989999Y-78317319D02*
X173085237Y-78460176D01*
X173085237Y-78460176D02*
X173180475Y-78555414D01*
X173180475Y-78555414D02*
X173275713Y-78603033D01*
X149828094Y-103472319D02*
X149828094Y-104281842D01*
X149828094Y-104281842D02*
X149780475Y-104377080D01*
X149780475Y-104377080D02*
X149732856Y-104424700D01*
X149732856Y-104424700D02*
X149637618Y-104472319D01*
X149637618Y-104472319D02*
X149447142Y-104472319D01*
X149447142Y-104472319D02*
X149351904Y-104424700D01*
X149351904Y-104424700D02*
X149304285Y-104377080D01*
X149304285Y-104377080D02*
X149256666Y-104281842D01*
X149256666Y-104281842D02*
X149256666Y-103472319D01*
X148256666Y-104472319D02*
X148828094Y-104472319D01*
X148542380Y-104472319D02*
X148542380Y-103472319D01*
X148542380Y-103472319D02*
X148637618Y-103615176D01*
X148637618Y-103615176D02*
X148732856Y-103710414D01*
X148732856Y-103710414D02*
X148828094Y-103758033D01*
X147923332Y-103472319D02*
X147256666Y-103472319D01*
X147256666Y-103472319D02*
X147685237Y-104472319D01*
X102361904Y-43944819D02*
X102361904Y-42944819D01*
X102361904Y-43421009D02*
X101790476Y-43421009D01*
X101790476Y-43944819D02*
X101790476Y-42944819D01*
X100790476Y-43944819D02*
X101361904Y-43944819D01*
X101076190Y-43944819D02*
X101076190Y-42944819D01*
X101076190Y-42944819D02*
X101171428Y-43087676D01*
X101171428Y-43087676D02*
X101266666Y-43182914D01*
X101266666Y-43182914D02*
X101361904Y-43230533D01*
X134786666Y-120454819D02*
X135119999Y-119978628D01*
X135358094Y-120454819D02*
X135358094Y-119454819D01*
X135358094Y-119454819D02*
X134977142Y-119454819D01*
X134977142Y-119454819D02*
X134881904Y-119502438D01*
X134881904Y-119502438D02*
X134834285Y-119550057D01*
X134834285Y-119550057D02*
X134786666Y-119645295D01*
X134786666Y-119645295D02*
X134786666Y-119788152D01*
X134786666Y-119788152D02*
X134834285Y-119883390D01*
X134834285Y-119883390D02*
X134881904Y-119931009D01*
X134881904Y-119931009D02*
X134977142Y-119978628D01*
X134977142Y-119978628D02*
X135358094Y-119978628D01*
X134405713Y-119550057D02*
X134358094Y-119502438D01*
X134358094Y-119502438D02*
X134262856Y-119454819D01*
X134262856Y-119454819D02*
X134024761Y-119454819D01*
X134024761Y-119454819D02*
X133929523Y-119502438D01*
X133929523Y-119502438D02*
X133881904Y-119550057D01*
X133881904Y-119550057D02*
X133834285Y-119645295D01*
X133834285Y-119645295D02*
X133834285Y-119740533D01*
X133834285Y-119740533D02*
X133881904Y-119883390D01*
X133881904Y-119883390D02*
X134453332Y-120454819D01*
X134453332Y-120454819D02*
X133834285Y-120454819D01*
X175426666Y-120454819D02*
X175759999Y-119978628D01*
X175998094Y-120454819D02*
X175998094Y-119454819D01*
X175998094Y-119454819D02*
X175617142Y-119454819D01*
X175617142Y-119454819D02*
X175521904Y-119502438D01*
X175521904Y-119502438D02*
X175474285Y-119550057D01*
X175474285Y-119550057D02*
X175426666Y-119645295D01*
X175426666Y-119645295D02*
X175426666Y-119788152D01*
X175426666Y-119788152D02*
X175474285Y-119883390D01*
X175474285Y-119883390D02*
X175521904Y-119931009D01*
X175521904Y-119931009D02*
X175617142Y-119978628D01*
X175617142Y-119978628D02*
X175998094Y-119978628D01*
X175093332Y-119454819D02*
X174474285Y-119454819D01*
X174474285Y-119454819D02*
X174807618Y-119835771D01*
X174807618Y-119835771D02*
X174664761Y-119835771D01*
X174664761Y-119835771D02*
X174569523Y-119883390D01*
X174569523Y-119883390D02*
X174521904Y-119931009D01*
X174521904Y-119931009D02*
X174474285Y-120026247D01*
X174474285Y-120026247D02*
X174474285Y-120264342D01*
X174474285Y-120264342D02*
X174521904Y-120359580D01*
X174521904Y-120359580D02*
X174569523Y-120407200D01*
X174569523Y-120407200D02*
X174664761Y-120454819D01*
X174664761Y-120454819D02*
X174950475Y-120454819D01*
X174950475Y-120454819D02*
X175045713Y-120407200D01*
X175045713Y-120407200D02*
X175093332Y-120359580D01*
X117774819Y-129571905D02*
X118584342Y-129571905D01*
X118584342Y-129571905D02*
X118679580Y-129619524D01*
X118679580Y-129619524D02*
X118727200Y-129667143D01*
X118727200Y-129667143D02*
X118774819Y-129762381D01*
X118774819Y-129762381D02*
X118774819Y-129952857D01*
X118774819Y-129952857D02*
X118727200Y-130048095D01*
X118727200Y-130048095D02*
X118679580Y-130095714D01*
X118679580Y-130095714D02*
X118584342Y-130143333D01*
X118584342Y-130143333D02*
X117774819Y-130143333D01*
X118774819Y-131143333D02*
X118774819Y-130571905D01*
X118774819Y-130857619D02*
X117774819Y-130857619D01*
X117774819Y-130857619D02*
X117917676Y-130762381D01*
X117917676Y-130762381D02*
X118012914Y-130667143D01*
X118012914Y-130667143D02*
X118060533Y-130571905D01*
X117774819Y-131476667D02*
X117774819Y-132095714D01*
X117774819Y-132095714D02*
X118155771Y-131762381D01*
X118155771Y-131762381D02*
X118155771Y-131905238D01*
X118155771Y-131905238D02*
X118203390Y-132000476D01*
X118203390Y-132000476D02*
X118251009Y-132048095D01*
X118251009Y-132048095D02*
X118346247Y-132095714D01*
X118346247Y-132095714D02*
X118584342Y-132095714D01*
X118584342Y-132095714D02*
X118679580Y-132048095D01*
X118679580Y-132048095D02*
X118727200Y-132000476D01*
X118727200Y-132000476D02*
X118774819Y-131905238D01*
X118774819Y-131905238D02*
X118774819Y-131619524D01*
X118774819Y-131619524D02*
X118727200Y-131524286D01*
X118727200Y-131524286D02*
X118679580Y-131476667D01*
X107441904Y-103384819D02*
X107441904Y-104194342D01*
X107441904Y-104194342D02*
X107394285Y-104289580D01*
X107394285Y-104289580D02*
X107346666Y-104337200D01*
X107346666Y-104337200D02*
X107251428Y-104384819D01*
X107251428Y-104384819D02*
X107060952Y-104384819D01*
X107060952Y-104384819D02*
X106965714Y-104337200D01*
X106965714Y-104337200D02*
X106918095Y-104289580D01*
X106918095Y-104289580D02*
X106870476Y-104194342D01*
X106870476Y-104194342D02*
X106870476Y-103384819D01*
X105870476Y-104384819D02*
X106441904Y-104384819D01*
X106156190Y-104384819D02*
X106156190Y-103384819D01*
X106156190Y-103384819D02*
X106251428Y-103527676D01*
X106251428Y-103527676D02*
X106346666Y-103622914D01*
X106346666Y-103622914D02*
X106441904Y-103670533D01*
X100784819Y-87463333D02*
X100308628Y-87130000D01*
X100784819Y-86891905D02*
X99784819Y-86891905D01*
X99784819Y-86891905D02*
X99784819Y-87272857D01*
X99784819Y-87272857D02*
X99832438Y-87368095D01*
X99832438Y-87368095D02*
X99880057Y-87415714D01*
X99880057Y-87415714D02*
X99975295Y-87463333D01*
X99975295Y-87463333D02*
X100118152Y-87463333D01*
X100118152Y-87463333D02*
X100213390Y-87415714D01*
X100213390Y-87415714D02*
X100261009Y-87368095D01*
X100261009Y-87368095D02*
X100308628Y-87272857D01*
X100308628Y-87272857D02*
X100308628Y-86891905D01*
X100784819Y-88415714D02*
X100784819Y-87844286D01*
X100784819Y-88130000D02*
X99784819Y-88130000D01*
X99784819Y-88130000D02*
X99927676Y-88034762D01*
X99927676Y-88034762D02*
X100022914Y-87939524D01*
X100022914Y-87939524D02*
X100070533Y-87844286D01*
X159511904Y-52672319D02*
X159511904Y-53481842D01*
X159511904Y-53481842D02*
X159464285Y-53577080D01*
X159464285Y-53577080D02*
X159416666Y-53624700D01*
X159416666Y-53624700D02*
X159321428Y-53672319D01*
X159321428Y-53672319D02*
X159130952Y-53672319D01*
X159130952Y-53672319D02*
X159035714Y-53624700D01*
X159035714Y-53624700D02*
X158988095Y-53577080D01*
X158988095Y-53577080D02*
X158940476Y-53481842D01*
X158940476Y-53481842D02*
X158940476Y-52672319D01*
X157988095Y-52672319D02*
X158464285Y-52672319D01*
X158464285Y-52672319D02*
X158511904Y-53148509D01*
X158511904Y-53148509D02*
X158464285Y-53100890D01*
X158464285Y-53100890D02*
X158369047Y-53053271D01*
X158369047Y-53053271D02*
X158130952Y-53053271D01*
X158130952Y-53053271D02*
X158035714Y-53100890D01*
X158035714Y-53100890D02*
X157988095Y-53148509D01*
X157988095Y-53148509D02*
X157940476Y-53243747D01*
X157940476Y-53243747D02*
X157940476Y-53481842D01*
X157940476Y-53481842D02*
X157988095Y-53577080D01*
X157988095Y-53577080D02*
X158035714Y-53624700D01*
X158035714Y-53624700D02*
X158130952Y-53672319D01*
X158130952Y-53672319D02*
X158369047Y-53672319D01*
X158369047Y-53672319D02*
X158464285Y-53624700D01*
X158464285Y-53624700D02*
X158511904Y-53577080D01*
X137128094Y-103472319D02*
X137128094Y-104281842D01*
X137128094Y-104281842D02*
X137080475Y-104377080D01*
X137080475Y-104377080D02*
X137032856Y-104424700D01*
X137032856Y-104424700D02*
X136937618Y-104472319D01*
X136937618Y-104472319D02*
X136747142Y-104472319D01*
X136747142Y-104472319D02*
X136651904Y-104424700D01*
X136651904Y-104424700D02*
X136604285Y-104377080D01*
X136604285Y-104377080D02*
X136556666Y-104281842D01*
X136556666Y-104281842D02*
X136556666Y-103472319D01*
X135556666Y-104472319D02*
X136128094Y-104472319D01*
X135842380Y-104472319D02*
X135842380Y-103472319D01*
X135842380Y-103472319D02*
X135937618Y-103615176D01*
X135937618Y-103615176D02*
X136032856Y-103710414D01*
X136032856Y-103710414D02*
X136128094Y-103758033D01*
X135080475Y-104472319D02*
X134889999Y-104472319D01*
X134889999Y-104472319D02*
X134794761Y-104424700D01*
X134794761Y-104424700D02*
X134747142Y-104377080D01*
X134747142Y-104377080D02*
X134651904Y-104234223D01*
X134651904Y-104234223D02*
X134604285Y-104043747D01*
X134604285Y-104043747D02*
X134604285Y-103662795D01*
X134604285Y-103662795D02*
X134651904Y-103567557D01*
X134651904Y-103567557D02*
X134699523Y-103519938D01*
X134699523Y-103519938D02*
X134794761Y-103472319D01*
X134794761Y-103472319D02*
X134985237Y-103472319D01*
X134985237Y-103472319D02*
X135080475Y-103519938D01*
X135080475Y-103519938D02*
X135128094Y-103567557D01*
X135128094Y-103567557D02*
X135175713Y-103662795D01*
X135175713Y-103662795D02*
X135175713Y-103900890D01*
X135175713Y-103900890D02*
X135128094Y-103996128D01*
X135128094Y-103996128D02*
X135080475Y-104043747D01*
X135080475Y-104043747D02*
X134985237Y-104091366D01*
X134985237Y-104091366D02*
X134794761Y-104091366D01*
X134794761Y-104091366D02*
X134699523Y-104043747D01*
X134699523Y-104043747D02*
X134651904Y-103996128D01*
X134651904Y-103996128D02*
X134604285Y-103900890D01*
X158414819Y-129571905D02*
X159224342Y-129571905D01*
X159224342Y-129571905D02*
X159319580Y-129619524D01*
X159319580Y-129619524D02*
X159367200Y-129667143D01*
X159367200Y-129667143D02*
X159414819Y-129762381D01*
X159414819Y-129762381D02*
X159414819Y-129952857D01*
X159414819Y-129952857D02*
X159367200Y-130048095D01*
X159367200Y-130048095D02*
X159319580Y-130095714D01*
X159319580Y-130095714D02*
X159224342Y-130143333D01*
X159224342Y-130143333D02*
X158414819Y-130143333D01*
X159414819Y-131143333D02*
X159414819Y-130571905D01*
X159414819Y-130857619D02*
X158414819Y-130857619D01*
X158414819Y-130857619D02*
X158557676Y-130762381D01*
X158557676Y-130762381D02*
X158652914Y-130667143D01*
X158652914Y-130667143D02*
X158700533Y-130571905D01*
X158843390Y-131714762D02*
X158795771Y-131619524D01*
X158795771Y-131619524D02*
X158748152Y-131571905D01*
X158748152Y-131571905D02*
X158652914Y-131524286D01*
X158652914Y-131524286D02*
X158605295Y-131524286D01*
X158605295Y-131524286D02*
X158510057Y-131571905D01*
X158510057Y-131571905D02*
X158462438Y-131619524D01*
X158462438Y-131619524D02*
X158414819Y-131714762D01*
X158414819Y-131714762D02*
X158414819Y-131905238D01*
X158414819Y-131905238D02*
X158462438Y-132000476D01*
X158462438Y-132000476D02*
X158510057Y-132048095D01*
X158510057Y-132048095D02*
X158605295Y-132095714D01*
X158605295Y-132095714D02*
X158652914Y-132095714D01*
X158652914Y-132095714D02*
X158748152Y-132048095D01*
X158748152Y-132048095D02*
X158795771Y-132000476D01*
X158795771Y-132000476D02*
X158843390Y-131905238D01*
X158843390Y-131905238D02*
X158843390Y-131714762D01*
X158843390Y-131714762D02*
X158891009Y-131619524D01*
X158891009Y-131619524D02*
X158938628Y-131571905D01*
X158938628Y-131571905D02*
X159033866Y-131524286D01*
X159033866Y-131524286D02*
X159224342Y-131524286D01*
X159224342Y-131524286D02*
X159319580Y-131571905D01*
X159319580Y-131571905D02*
X159367200Y-131619524D01*
X159367200Y-131619524D02*
X159414819Y-131714762D01*
X159414819Y-131714762D02*
X159414819Y-131905238D01*
X159414819Y-131905238D02*
X159367200Y-132000476D01*
X159367200Y-132000476D02*
X159319580Y-132048095D01*
X159319580Y-132048095D02*
X159224342Y-132095714D01*
X159224342Y-132095714D02*
X159033866Y-132095714D01*
X159033866Y-132095714D02*
X158938628Y-132048095D01*
X158938628Y-132048095D02*
X158891009Y-132000476D01*
X158891009Y-132000476D02*
X158843390Y-131905238D01*
X175228094Y-103472319D02*
X175228094Y-104281842D01*
X175228094Y-104281842D02*
X175180475Y-104377080D01*
X175180475Y-104377080D02*
X175132856Y-104424700D01*
X175132856Y-104424700D02*
X175037618Y-104472319D01*
X175037618Y-104472319D02*
X174847142Y-104472319D01*
X174847142Y-104472319D02*
X174751904Y-104424700D01*
X174751904Y-104424700D02*
X174704285Y-104377080D01*
X174704285Y-104377080D02*
X174656666Y-104281842D01*
X174656666Y-104281842D02*
X174656666Y-103472319D01*
X173656666Y-104472319D02*
X174228094Y-104472319D01*
X173942380Y-104472319D02*
X173942380Y-103472319D01*
X173942380Y-103472319D02*
X174037618Y-103615176D01*
X174037618Y-103615176D02*
X174132856Y-103710414D01*
X174132856Y-103710414D02*
X174228094Y-103758033D01*
X172751904Y-103472319D02*
X173228094Y-103472319D01*
X173228094Y-103472319D02*
X173275713Y-103948509D01*
X173275713Y-103948509D02*
X173228094Y-103900890D01*
X173228094Y-103900890D02*
X173132856Y-103853271D01*
X173132856Y-103853271D02*
X172894761Y-103853271D01*
X172894761Y-103853271D02*
X172799523Y-103900890D01*
X172799523Y-103900890D02*
X172751904Y-103948509D01*
X172751904Y-103948509D02*
X172704285Y-104043747D01*
X172704285Y-104043747D02*
X172704285Y-104281842D01*
X172704285Y-104281842D02*
X172751904Y-104377080D01*
X172751904Y-104377080D02*
X172799523Y-104424700D01*
X172799523Y-104424700D02*
X172894761Y-104472319D01*
X172894761Y-104472319D02*
X173132856Y-104472319D01*
X173132856Y-104472319D02*
X173228094Y-104424700D01*
X173228094Y-104424700D02*
X173275713Y-104377080D01*
X149450604Y-78067219D02*
X149450604Y-78876742D01*
X149450604Y-78876742D02*
X149402985Y-78971980D01*
X149402985Y-78971980D02*
X149355366Y-79019600D01*
X149355366Y-79019600D02*
X149260128Y-79067219D01*
X149260128Y-79067219D02*
X149069652Y-79067219D01*
X149069652Y-79067219D02*
X148974414Y-79019600D01*
X148974414Y-79019600D02*
X148926795Y-78971980D01*
X148926795Y-78971980D02*
X148879176Y-78876742D01*
X148879176Y-78876742D02*
X148879176Y-78067219D01*
X148355366Y-79067219D02*
X148164890Y-79067219D01*
X148164890Y-79067219D02*
X148069652Y-79019600D01*
X148069652Y-79019600D02*
X148022033Y-78971980D01*
X148022033Y-78971980D02*
X147926795Y-78829123D01*
X147926795Y-78829123D02*
X147879176Y-78638647D01*
X147879176Y-78638647D02*
X147879176Y-78257695D01*
X147879176Y-78257695D02*
X147926795Y-78162457D01*
X147926795Y-78162457D02*
X147974414Y-78114838D01*
X147974414Y-78114838D02*
X148069652Y-78067219D01*
X148069652Y-78067219D02*
X148260128Y-78067219D01*
X148260128Y-78067219D02*
X148355366Y-78114838D01*
X148355366Y-78114838D02*
X148402985Y-78162457D01*
X148402985Y-78162457D02*
X148450604Y-78257695D01*
X148450604Y-78257695D02*
X148450604Y-78495790D01*
X148450604Y-78495790D02*
X148402985Y-78591028D01*
X148402985Y-78591028D02*
X148355366Y-78638647D01*
X148355366Y-78638647D02*
X148260128Y-78686266D01*
X148260128Y-78686266D02*
X148069652Y-78686266D01*
X148069652Y-78686266D02*
X147974414Y-78638647D01*
X147974414Y-78638647D02*
X147926795Y-78591028D01*
X147926795Y-78591028D02*
X147879176Y-78495790D01*
X174751904Y-52544719D02*
X174751904Y-53354242D01*
X174751904Y-53354242D02*
X174704285Y-53449480D01*
X174704285Y-53449480D02*
X174656666Y-53497100D01*
X174656666Y-53497100D02*
X174561428Y-53544719D01*
X174561428Y-53544719D02*
X174370952Y-53544719D01*
X174370952Y-53544719D02*
X174275714Y-53497100D01*
X174275714Y-53497100D02*
X174228095Y-53449480D01*
X174228095Y-53449480D02*
X174180476Y-53354242D01*
X174180476Y-53354242D02*
X174180476Y-52544719D01*
X173275714Y-52544719D02*
X173466190Y-52544719D01*
X173466190Y-52544719D02*
X173561428Y-52592338D01*
X173561428Y-52592338D02*
X173609047Y-52639957D01*
X173609047Y-52639957D02*
X173704285Y-52782814D01*
X173704285Y-52782814D02*
X173751904Y-52973290D01*
X173751904Y-52973290D02*
X173751904Y-53354242D01*
X173751904Y-53354242D02*
X173704285Y-53449480D01*
X173704285Y-53449480D02*
X173656666Y-53497100D01*
X173656666Y-53497100D02*
X173561428Y-53544719D01*
X173561428Y-53544719D02*
X173370952Y-53544719D01*
X173370952Y-53544719D02*
X173275714Y-53497100D01*
X173275714Y-53497100D02*
X173228095Y-53449480D01*
X173228095Y-53449480D02*
X173180476Y-53354242D01*
X173180476Y-53354242D02*
X173180476Y-53116147D01*
X173180476Y-53116147D02*
X173228095Y-53020909D01*
X173228095Y-53020909D02*
X173275714Y-52973290D01*
X173275714Y-52973290D02*
X173370952Y-52925671D01*
X173370952Y-52925671D02*
X173561428Y-52925671D01*
X173561428Y-52925671D02*
X173656666Y-52973290D01*
X173656666Y-52973290D02*
X173704285Y-53020909D01*
X173704285Y-53020909D02*
X173751904Y-53116147D01*
X136651904Y-78194819D02*
X136651904Y-79004342D01*
X136651904Y-79004342D02*
X136604285Y-79099580D01*
X136604285Y-79099580D02*
X136556666Y-79147200D01*
X136556666Y-79147200D02*
X136461428Y-79194819D01*
X136461428Y-79194819D02*
X136270952Y-79194819D01*
X136270952Y-79194819D02*
X136175714Y-79147200D01*
X136175714Y-79147200D02*
X136128095Y-79099580D01*
X136128095Y-79099580D02*
X136080476Y-79004342D01*
X136080476Y-79004342D02*
X136080476Y-78194819D01*
X135461428Y-78623390D02*
X135556666Y-78575771D01*
X135556666Y-78575771D02*
X135604285Y-78528152D01*
X135604285Y-78528152D02*
X135651904Y-78432914D01*
X135651904Y-78432914D02*
X135651904Y-78385295D01*
X135651904Y-78385295D02*
X135604285Y-78290057D01*
X135604285Y-78290057D02*
X135556666Y-78242438D01*
X135556666Y-78242438D02*
X135461428Y-78194819D01*
X135461428Y-78194819D02*
X135270952Y-78194819D01*
X135270952Y-78194819D02*
X135175714Y-78242438D01*
X135175714Y-78242438D02*
X135128095Y-78290057D01*
X135128095Y-78290057D02*
X135080476Y-78385295D01*
X135080476Y-78385295D02*
X135080476Y-78432914D01*
X135080476Y-78432914D02*
X135128095Y-78528152D01*
X135128095Y-78528152D02*
X135175714Y-78575771D01*
X135175714Y-78575771D02*
X135270952Y-78623390D01*
X135270952Y-78623390D02*
X135461428Y-78623390D01*
X135461428Y-78623390D02*
X135556666Y-78671009D01*
X135556666Y-78671009D02*
X135604285Y-78718628D01*
X135604285Y-78718628D02*
X135651904Y-78813866D01*
X135651904Y-78813866D02*
X135651904Y-79004342D01*
X135651904Y-79004342D02*
X135604285Y-79099580D01*
X135604285Y-79099580D02*
X135556666Y-79147200D01*
X135556666Y-79147200D02*
X135461428Y-79194819D01*
X135461428Y-79194819D02*
X135270952Y-79194819D01*
X135270952Y-79194819D02*
X135175714Y-79147200D01*
X135175714Y-79147200D02*
X135128095Y-79099580D01*
X135128095Y-79099580D02*
X135080476Y-79004342D01*
X135080476Y-79004342D02*
X135080476Y-78813866D01*
X135080476Y-78813866D02*
X135128095Y-78718628D01*
X135128095Y-78718628D02*
X135175714Y-78671009D01*
X135175714Y-78671009D02*
X135270952Y-78623390D01*
X95724819Y-136826666D02*
X96439104Y-136826666D01*
X96439104Y-136826666D02*
X96581961Y-136779047D01*
X96581961Y-136779047D02*
X96677200Y-136683809D01*
X96677200Y-136683809D02*
X96724819Y-136540952D01*
X96724819Y-136540952D02*
X96724819Y-136445714D01*
X96724819Y-137826666D02*
X96724819Y-137255238D01*
X96724819Y-137540952D02*
X95724819Y-137540952D01*
X95724819Y-137540952D02*
X95867676Y-137445714D01*
X95867676Y-137445714D02*
X95962914Y-137350476D01*
X95962914Y-137350476D02*
X96010533Y-137255238D01*
X162528094Y-78317319D02*
X162528094Y-79126842D01*
X162528094Y-79126842D02*
X162480475Y-79222080D01*
X162480475Y-79222080D02*
X162432856Y-79269700D01*
X162432856Y-79269700D02*
X162337618Y-79317319D01*
X162337618Y-79317319D02*
X162147142Y-79317319D01*
X162147142Y-79317319D02*
X162051904Y-79269700D01*
X162051904Y-79269700D02*
X162004285Y-79222080D01*
X162004285Y-79222080D02*
X161956666Y-79126842D01*
X161956666Y-79126842D02*
X161956666Y-78317319D01*
X160956666Y-79317319D02*
X161528094Y-79317319D01*
X161242380Y-79317319D02*
X161242380Y-78317319D01*
X161242380Y-78317319D02*
X161337618Y-78460176D01*
X161337618Y-78460176D02*
X161432856Y-78555414D01*
X161432856Y-78555414D02*
X161528094Y-78603033D01*
X160337618Y-78317319D02*
X160242380Y-78317319D01*
X160242380Y-78317319D02*
X160147142Y-78364938D01*
X160147142Y-78364938D02*
X160099523Y-78412557D01*
X160099523Y-78412557D02*
X160051904Y-78507795D01*
X160051904Y-78507795D02*
X160004285Y-78698271D01*
X160004285Y-78698271D02*
X160004285Y-78936366D01*
X160004285Y-78936366D02*
X160051904Y-79126842D01*
X160051904Y-79126842D02*
X160099523Y-79222080D01*
X160099523Y-79222080D02*
X160147142Y-79269700D01*
X160147142Y-79269700D02*
X160242380Y-79317319D01*
X160242380Y-79317319D02*
X160337618Y-79317319D01*
X160337618Y-79317319D02*
X160432856Y-79269700D01*
X160432856Y-79269700D02*
X160480475Y-79222080D01*
X160480475Y-79222080D02*
X160528094Y-79126842D01*
X160528094Y-79126842D02*
X160575713Y-78936366D01*
X160575713Y-78936366D02*
X160575713Y-78698271D01*
X160575713Y-78698271D02*
X160528094Y-78507795D01*
X160528094Y-78507795D02*
X160480475Y-78412557D01*
X160480475Y-78412557D02*
X160432856Y-78364938D01*
X160432856Y-78364938D02*
X160337618Y-78317319D01*
X118871904Y-52672319D02*
X118871904Y-53481842D01*
X118871904Y-53481842D02*
X118824285Y-53577080D01*
X118824285Y-53577080D02*
X118776666Y-53624700D01*
X118776666Y-53624700D02*
X118681428Y-53672319D01*
X118681428Y-53672319D02*
X118490952Y-53672319D01*
X118490952Y-53672319D02*
X118395714Y-53624700D01*
X118395714Y-53624700D02*
X118348095Y-53577080D01*
X118348095Y-53577080D02*
X118300476Y-53481842D01*
X118300476Y-53481842D02*
X118300476Y-52672319D01*
X117871904Y-52767557D02*
X117824285Y-52719938D01*
X117824285Y-52719938D02*
X117729047Y-52672319D01*
X117729047Y-52672319D02*
X117490952Y-52672319D01*
X117490952Y-52672319D02*
X117395714Y-52719938D01*
X117395714Y-52719938D02*
X117348095Y-52767557D01*
X117348095Y-52767557D02*
X117300476Y-52862795D01*
X117300476Y-52862795D02*
X117300476Y-52958033D01*
X117300476Y-52958033D02*
X117348095Y-53100890D01*
X117348095Y-53100890D02*
X117919523Y-53672319D01*
X117919523Y-53672319D02*
X117300476Y-53672319D01*
X146811904Y-52672319D02*
X146811904Y-53481842D01*
X146811904Y-53481842D02*
X146764285Y-53577080D01*
X146764285Y-53577080D02*
X146716666Y-53624700D01*
X146716666Y-53624700D02*
X146621428Y-53672319D01*
X146621428Y-53672319D02*
X146430952Y-53672319D01*
X146430952Y-53672319D02*
X146335714Y-53624700D01*
X146335714Y-53624700D02*
X146288095Y-53577080D01*
X146288095Y-53577080D02*
X146240476Y-53481842D01*
X146240476Y-53481842D02*
X146240476Y-52672319D01*
X145335714Y-53005652D02*
X145335714Y-53672319D01*
X145573809Y-52624700D02*
X145811904Y-53338985D01*
X145811904Y-53338985D02*
X145192857Y-53338985D01*
X123356666Y-122279580D02*
X123404285Y-122327200D01*
X123404285Y-122327200D02*
X123547142Y-122374819D01*
X123547142Y-122374819D02*
X123642380Y-122374819D01*
X123642380Y-122374819D02*
X123785237Y-122327200D01*
X123785237Y-122327200D02*
X123880475Y-122231961D01*
X123880475Y-122231961D02*
X123928094Y-122136723D01*
X123928094Y-122136723D02*
X123975713Y-121946247D01*
X123975713Y-121946247D02*
X123975713Y-121803390D01*
X123975713Y-121803390D02*
X123928094Y-121612914D01*
X123928094Y-121612914D02*
X123880475Y-121517676D01*
X123880475Y-121517676D02*
X123785237Y-121422438D01*
X123785237Y-121422438D02*
X123642380Y-121374819D01*
X123642380Y-121374819D02*
X123547142Y-121374819D01*
X123547142Y-121374819D02*
X123404285Y-121422438D01*
X123404285Y-121422438D02*
X123356666Y-121470057D01*
X122975713Y-121470057D02*
X122928094Y-121422438D01*
X122928094Y-121422438D02*
X122832856Y-121374819D01*
X122832856Y-121374819D02*
X122594761Y-121374819D01*
X122594761Y-121374819D02*
X122499523Y-121422438D01*
X122499523Y-121422438D02*
X122451904Y-121470057D01*
X122451904Y-121470057D02*
X122404285Y-121565295D01*
X122404285Y-121565295D02*
X122404285Y-121660533D01*
X122404285Y-121660533D02*
X122451904Y-121803390D01*
X122451904Y-121803390D02*
X123023332Y-122374819D01*
X123023332Y-122374819D02*
X122404285Y-122374819D01*
X163996666Y-122279580D02*
X164044285Y-122327200D01*
X164044285Y-122327200D02*
X164187142Y-122374819D01*
X164187142Y-122374819D02*
X164282380Y-122374819D01*
X164282380Y-122374819D02*
X164425237Y-122327200D01*
X164425237Y-122327200D02*
X164520475Y-122231961D01*
X164520475Y-122231961D02*
X164568094Y-122136723D01*
X164568094Y-122136723D02*
X164615713Y-121946247D01*
X164615713Y-121946247D02*
X164615713Y-121803390D01*
X164615713Y-121803390D02*
X164568094Y-121612914D01*
X164568094Y-121612914D02*
X164520475Y-121517676D01*
X164520475Y-121517676D02*
X164425237Y-121422438D01*
X164425237Y-121422438D02*
X164282380Y-121374819D01*
X164282380Y-121374819D02*
X164187142Y-121374819D01*
X164187142Y-121374819D02*
X164044285Y-121422438D01*
X164044285Y-121422438D02*
X163996666Y-121470057D01*
X163663332Y-121374819D02*
X163044285Y-121374819D01*
X163044285Y-121374819D02*
X163377618Y-121755771D01*
X163377618Y-121755771D02*
X163234761Y-121755771D01*
X163234761Y-121755771D02*
X163139523Y-121803390D01*
X163139523Y-121803390D02*
X163091904Y-121851009D01*
X163091904Y-121851009D02*
X163044285Y-121946247D01*
X163044285Y-121946247D02*
X163044285Y-122184342D01*
X163044285Y-122184342D02*
X163091904Y-122279580D01*
X163091904Y-122279580D02*
X163139523Y-122327200D01*
X163139523Y-122327200D02*
X163234761Y-122374819D01*
X163234761Y-122374819D02*
X163520475Y-122374819D01*
X163520475Y-122374819D02*
X163615713Y-122327200D01*
X163615713Y-122327200D02*
X163663332Y-122279580D01*
X187451904Y-52544719D02*
X187451904Y-53354242D01*
X187451904Y-53354242D02*
X187404285Y-53449480D01*
X187404285Y-53449480D02*
X187356666Y-53497100D01*
X187356666Y-53497100D02*
X187261428Y-53544719D01*
X187261428Y-53544719D02*
X187070952Y-53544719D01*
X187070952Y-53544719D02*
X186975714Y-53497100D01*
X186975714Y-53497100D02*
X186928095Y-53449480D01*
X186928095Y-53449480D02*
X186880476Y-53354242D01*
X186880476Y-53354242D02*
X186880476Y-52544719D01*
X186499523Y-52544719D02*
X185832857Y-52544719D01*
X185832857Y-52544719D02*
X186261428Y-53544719D01*
X131571904Y-52672319D02*
X131571904Y-53481842D01*
X131571904Y-53481842D02*
X131524285Y-53577080D01*
X131524285Y-53577080D02*
X131476666Y-53624700D01*
X131476666Y-53624700D02*
X131381428Y-53672319D01*
X131381428Y-53672319D02*
X131190952Y-53672319D01*
X131190952Y-53672319D02*
X131095714Y-53624700D01*
X131095714Y-53624700D02*
X131048095Y-53577080D01*
X131048095Y-53577080D02*
X131000476Y-53481842D01*
X131000476Y-53481842D02*
X131000476Y-52672319D01*
X130619523Y-52672319D02*
X130000476Y-52672319D01*
X130000476Y-52672319D02*
X130333809Y-53053271D01*
X130333809Y-53053271D02*
X130190952Y-53053271D01*
X130190952Y-53053271D02*
X130095714Y-53100890D01*
X130095714Y-53100890D02*
X130048095Y-53148509D01*
X130048095Y-53148509D02*
X130000476Y-53243747D01*
X130000476Y-53243747D02*
X130000476Y-53481842D01*
X130000476Y-53481842D02*
X130048095Y-53577080D01*
X130048095Y-53577080D02*
X130095714Y-53624700D01*
X130095714Y-53624700D02*
X130190952Y-53672319D01*
X130190952Y-53672319D02*
X130476666Y-53672319D01*
X130476666Y-53672319D02*
X130571904Y-53624700D01*
X130571904Y-53624700D02*
X130619523Y-53577080D01*
X98149580Y-99433333D02*
X98197200Y-99385714D01*
X98197200Y-99385714D02*
X98244819Y-99242857D01*
X98244819Y-99242857D02*
X98244819Y-99147619D01*
X98244819Y-99147619D02*
X98197200Y-99004762D01*
X98197200Y-99004762D02*
X98101961Y-98909524D01*
X98101961Y-98909524D02*
X98006723Y-98861905D01*
X98006723Y-98861905D02*
X97816247Y-98814286D01*
X97816247Y-98814286D02*
X97673390Y-98814286D01*
X97673390Y-98814286D02*
X97482914Y-98861905D01*
X97482914Y-98861905D02*
X97387676Y-98909524D01*
X97387676Y-98909524D02*
X97292438Y-99004762D01*
X97292438Y-99004762D02*
X97244819Y-99147619D01*
X97244819Y-99147619D02*
X97244819Y-99242857D01*
X97244819Y-99242857D02*
X97292438Y-99385714D01*
X97292438Y-99385714D02*
X97340057Y-99433333D01*
X98244819Y-100385714D02*
X98244819Y-99814286D01*
X98244819Y-100100000D02*
X97244819Y-100100000D01*
X97244819Y-100100000D02*
X97387676Y-100004762D01*
X97387676Y-100004762D02*
X97482914Y-99909524D01*
X97482914Y-99909524D02*
X97530533Y-99814286D01*
M02*
