%TF.GenerationSoftware,KiCad,Pcbnew,7.0.8*%
%TF.CreationDate,2023-10-07T23:49:35-07:00*%
%TF.ProjectId,htpm_control_module_status,6874706d-5f63-46f6-9e74-726f6c5f6d6f,1*%
%TF.SameCoordinates,Original*%
%TF.FileFunction,Legend,Top*%
%TF.FilePolarity,Positive*%
%FSLAX46Y46*%
G04 Gerber Fmt 4.6, Leading zero omitted, Abs format (unit mm)*
G04 Created by KiCad (PCBNEW 7.0.8) date 2023-10-07 23:49:35*
%MOMM*%
%LPD*%
G01*
G04 APERTURE LIST*
%ADD10C,0.120000*%
G04 APERTURE END LIST*
D10*
%TO.C,D10*%
X117835000Y-87650000D02*
X120925000Y-87650000D01*
X119380462Y-82100001D02*
G75*
G03*
X117835170Y-87649999I-462J-2989999D01*
G01*
X120924830Y-87650000D02*
G75*
G03*
X119379538Y-82100000I-1544830J2560000D01*
G01*
X121880000Y-85090000D02*
G75*
G03*
X121880000Y-85090000I-2500000J0D01*
G01*
%TO.C,D14*%
X148315000Y-87650000D02*
X151405000Y-87650000D01*
X149860462Y-82100001D02*
G75*
G03*
X148315170Y-87649999I-462J-2989999D01*
G01*
X151404830Y-87650000D02*
G75*
G03*
X149859538Y-82100000I-1544830J2560000D01*
G01*
X152360000Y-85090000D02*
G75*
G03*
X152360000Y-85090000I-2500000J0D01*
G01*
%TO.C,D2*%
X117835000Y-80030000D02*
X120925000Y-80030000D01*
X119380462Y-74480001D02*
G75*
G03*
X117835170Y-80029999I-462J-2989999D01*
G01*
X120924830Y-80030000D02*
G75*
G03*
X119379538Y-74480000I-1544830J2560000D01*
G01*
X121880000Y-77470000D02*
G75*
G03*
X121880000Y-77470000I-2500000J0D01*
G01*
%TO.C,D30*%
X148315000Y-110510000D02*
X151405000Y-110510000D01*
X149860462Y-104960001D02*
G75*
G03*
X148315170Y-110509999I-462J-2989999D01*
G01*
X151404830Y-110510000D02*
G75*
G03*
X149859538Y-104960000I-1544830J2560000D01*
G01*
X152360000Y-107950000D02*
G75*
G03*
X152360000Y-107950000I-2500000J0D01*
G01*
%TO.C,D26*%
X117835000Y-110510000D02*
X120925000Y-110510000D01*
X119380462Y-104960001D02*
G75*
G03*
X117835170Y-110509999I-462J-2989999D01*
G01*
X120924830Y-110510000D02*
G75*
G03*
X119379538Y-104960000I-1544830J2560000D01*
G01*
X121880000Y-107950000D02*
G75*
G03*
X121880000Y-107950000I-2500000J0D01*
G01*
%TO.C,D32*%
X163555000Y-110510000D02*
X166645000Y-110510000D01*
X165100462Y-104960001D02*
G75*
G03*
X163555170Y-110509999I-462J-2989999D01*
G01*
X166644830Y-110510000D02*
G75*
G03*
X165099538Y-104960000I-1544830J2560000D01*
G01*
X167600000Y-107950000D02*
G75*
G03*
X167600000Y-107950000I-2500000J0D01*
G01*
%TO.C,J3*%
X143680000Y-113240000D02*
X143680000Y-114300000D01*
X142620000Y-113240000D02*
X143680000Y-113240000D01*
X141620000Y-113240000D02*
X127560000Y-113240000D01*
X141620000Y-113240000D02*
X141620000Y-115360000D01*
X127560000Y-113240000D02*
X127560000Y-115360000D01*
X141620000Y-115360000D02*
X127560000Y-115360000D01*
%TO.C,D20*%
X133075000Y-102890000D02*
X136165000Y-102890000D01*
X134620462Y-97340001D02*
G75*
G03*
X133075170Y-102889999I-462J-2989999D01*
G01*
X136164830Y-102890000D02*
G75*
G03*
X134619538Y-97340000I-1544830J2560000D01*
G01*
X137120000Y-100330000D02*
G75*
G03*
X137120000Y-100330000I-2500000J0D01*
G01*
%TO.C,D25*%
X110215000Y-110510000D02*
X113305000Y-110510000D01*
X111760462Y-104960001D02*
G75*
G03*
X110215170Y-110509999I-462J-2989999D01*
G01*
X113304830Y-110510000D02*
G75*
G03*
X111759538Y-104960000I-1544830J2560000D01*
G01*
X114260000Y-107950000D02*
G75*
G03*
X114260000Y-107950000I-2500000J0D01*
G01*
%TO.C,D27*%
X125455000Y-110510000D02*
X128545000Y-110510000D01*
X127000462Y-104960001D02*
G75*
G03*
X125455170Y-110509999I-462J-2989999D01*
G01*
X128544830Y-110510000D02*
G75*
G03*
X126999538Y-104960000I-1544830J2560000D01*
G01*
X129500000Y-107950000D02*
G75*
G03*
X129500000Y-107950000I-2500000J0D01*
G01*
%TO.C,J1*%
X143680000Y-70060000D02*
X143680000Y-71120000D01*
X142620000Y-70060000D02*
X143680000Y-70060000D01*
X141620000Y-70060000D02*
X127560000Y-70060000D01*
X141620000Y-70060000D02*
X141620000Y-72180000D01*
X127560000Y-70060000D02*
X127560000Y-72180000D01*
X141620000Y-72180000D02*
X127560000Y-72180000D01*
%TO.C,D9*%
X110215000Y-87650000D02*
X113305000Y-87650000D01*
X111760462Y-82100001D02*
G75*
G03*
X110215170Y-87649999I-462J-2989999D01*
G01*
X113304830Y-87650000D02*
G75*
G03*
X111759538Y-82100000I-1544830J2560000D01*
G01*
X114260000Y-85090000D02*
G75*
G03*
X114260000Y-85090000I-2500000J0D01*
G01*
%TO.C,D16*%
X163555000Y-87650000D02*
X166645000Y-87650000D01*
X165100462Y-82100001D02*
G75*
G03*
X163555170Y-87649999I-462J-2989999D01*
G01*
X166644830Y-87650000D02*
G75*
G03*
X165099538Y-82100000I-1544830J2560000D01*
G01*
X167600000Y-85090000D02*
G75*
G03*
X167600000Y-85090000I-2500000J0D01*
G01*
%TO.C,D5*%
X140695000Y-80030000D02*
X143785000Y-80030000D01*
X142240462Y-74480001D02*
G75*
G03*
X140695170Y-80029999I-462J-2989999D01*
G01*
X143784830Y-80030000D02*
G75*
G03*
X142239538Y-74480000I-1544830J2560000D01*
G01*
X144740000Y-77470000D02*
G75*
G03*
X144740000Y-77470000I-2500000J0D01*
G01*
%TO.C,D12*%
X133075000Y-87650000D02*
X136165000Y-87650000D01*
X134620462Y-82100001D02*
G75*
G03*
X133075170Y-87649999I-462J-2989999D01*
G01*
X136164830Y-87650000D02*
G75*
G03*
X134619538Y-82100000I-1544830J2560000D01*
G01*
X137120000Y-85090000D02*
G75*
G03*
X137120000Y-85090000I-2500000J0D01*
G01*
%TO.C,D23*%
X155935000Y-102890000D02*
X159025000Y-102890000D01*
X157480462Y-97340001D02*
G75*
G03*
X155935170Y-102889999I-462J-2989999D01*
G01*
X159024830Y-102890000D02*
G75*
G03*
X157479538Y-97340000I-1544830J2560000D01*
G01*
X159980000Y-100330000D02*
G75*
G03*
X159980000Y-100330000I-2500000J0D01*
G01*
%TO.C,D6*%
X148315000Y-80030000D02*
X151405000Y-80030000D01*
X149860462Y-74480001D02*
G75*
G03*
X148315170Y-80029999I-462J-2989999D01*
G01*
X151404830Y-80030000D02*
G75*
G03*
X149859538Y-74480000I-1544830J2560000D01*
G01*
X152360000Y-77470000D02*
G75*
G03*
X152360000Y-77470000I-2500000J0D01*
G01*
%TO.C,D28*%
X133075000Y-110510000D02*
X136165000Y-110510000D01*
X134620462Y-104960001D02*
G75*
G03*
X133075170Y-110509999I-462J-2989999D01*
G01*
X136164830Y-110510000D02*
G75*
G03*
X134619538Y-104960000I-1544830J2560000D01*
G01*
X137120000Y-107950000D02*
G75*
G03*
X137120000Y-107950000I-2500000J0D01*
G01*
%TO.C,D22*%
X148315000Y-102890000D02*
X151405000Y-102890000D01*
X149860462Y-97340001D02*
G75*
G03*
X148315170Y-102889999I-462J-2989999D01*
G01*
X151404830Y-102890000D02*
G75*
G03*
X149859538Y-97340000I-1544830J2560000D01*
G01*
X152360000Y-100330000D02*
G75*
G03*
X152360000Y-100330000I-2500000J0D01*
G01*
%TO.C,D24*%
X163555000Y-102890000D02*
X166645000Y-102890000D01*
X165100462Y-97340001D02*
G75*
G03*
X163555170Y-102889999I-462J-2989999D01*
G01*
X166644830Y-102890000D02*
G75*
G03*
X165099538Y-97340000I-1544830J2560000D01*
G01*
X167600000Y-100330000D02*
G75*
G03*
X167600000Y-100330000I-2500000J0D01*
G01*
%TO.C,D17*%
X110215000Y-102890000D02*
X113305000Y-102890000D01*
X111760462Y-97340001D02*
G75*
G03*
X110215170Y-102889999I-462J-2989999D01*
G01*
X113304830Y-102890000D02*
G75*
G03*
X111759538Y-97340000I-1544830J2560000D01*
G01*
X114260000Y-100330000D02*
G75*
G03*
X114260000Y-100330000I-2500000J0D01*
G01*
%TO.C,D8*%
X163555000Y-80030000D02*
X166645000Y-80030000D01*
X165100462Y-74480001D02*
G75*
G03*
X163555170Y-80029999I-462J-2989999D01*
G01*
X166644830Y-80030000D02*
G75*
G03*
X165099538Y-74480000I-1544830J2560000D01*
G01*
X167600000Y-77470000D02*
G75*
G03*
X167600000Y-77470000I-2500000J0D01*
G01*
%TO.C,D13*%
X140695000Y-87650000D02*
X143785000Y-87650000D01*
X142240462Y-82100001D02*
G75*
G03*
X140695170Y-87649999I-462J-2989999D01*
G01*
X143784830Y-87650000D02*
G75*
G03*
X142239538Y-82100000I-1544830J2560000D01*
G01*
X144740000Y-85090000D02*
G75*
G03*
X144740000Y-85090000I-2500000J0D01*
G01*
%TO.C,J2*%
X171660000Y-87840000D02*
X172720000Y-87840000D01*
X171660000Y-88900000D02*
X171660000Y-87840000D01*
X171660000Y-89900000D02*
X171660000Y-95960000D01*
X171660000Y-89900000D02*
X173780000Y-89900000D01*
X171660000Y-95960000D02*
X173780000Y-95960000D01*
X173780000Y-89900000D02*
X173780000Y-95960000D01*
%TO.C,D11*%
X125455000Y-87650000D02*
X128545000Y-87650000D01*
X127000462Y-82100001D02*
G75*
G03*
X125455170Y-87649999I-462J-2989999D01*
G01*
X128544830Y-87650000D02*
G75*
G03*
X126999538Y-82100000I-1544830J2560000D01*
G01*
X129500000Y-85090000D02*
G75*
G03*
X129500000Y-85090000I-2500000J0D01*
G01*
%TO.C,D31*%
X155935000Y-110510000D02*
X159025000Y-110510000D01*
X157480462Y-104960001D02*
G75*
G03*
X155935170Y-110509999I-462J-2989999D01*
G01*
X159024830Y-110510000D02*
G75*
G03*
X157479538Y-104960000I-1544830J2560000D01*
G01*
X159980000Y-107950000D02*
G75*
G03*
X159980000Y-107950000I-2500000J0D01*
G01*
%TO.C,D1*%
X110215000Y-80030000D02*
X113305000Y-80030000D01*
X111760462Y-74480001D02*
G75*
G03*
X110215170Y-80029999I-462J-2989999D01*
G01*
X113304830Y-80030000D02*
G75*
G03*
X111759538Y-74480000I-1544830J2560000D01*
G01*
X114260000Y-77470000D02*
G75*
G03*
X114260000Y-77470000I-2500000J0D01*
G01*
%TO.C,D4*%
X133075000Y-80030000D02*
X136165000Y-80030000D01*
X134620462Y-74480001D02*
G75*
G03*
X133075170Y-80029999I-462J-2989999D01*
G01*
X136164830Y-80030000D02*
G75*
G03*
X134619538Y-74480000I-1544830J2560000D01*
G01*
X137120000Y-77470000D02*
G75*
G03*
X137120000Y-77470000I-2500000J0D01*
G01*
%TO.C,D7*%
X155935000Y-80030000D02*
X159025000Y-80030000D01*
X157480462Y-74480001D02*
G75*
G03*
X155935170Y-80029999I-462J-2989999D01*
G01*
X159024830Y-80030000D02*
G75*
G03*
X157479538Y-74480000I-1544830J2560000D01*
G01*
X159980000Y-77470000D02*
G75*
G03*
X159980000Y-77470000I-2500000J0D01*
G01*
%TO.C,D19*%
X125455000Y-102890000D02*
X128545000Y-102890000D01*
X127000462Y-97340001D02*
G75*
G03*
X125455170Y-102889999I-462J-2989999D01*
G01*
X128544830Y-102890000D02*
G75*
G03*
X126999538Y-97340000I-1544830J2560000D01*
G01*
X129500000Y-100330000D02*
G75*
G03*
X129500000Y-100330000I-2500000J0D01*
G01*
%TO.C,D3*%
X125455000Y-80030000D02*
X128545000Y-80030000D01*
X127000462Y-74480001D02*
G75*
G03*
X125455170Y-80029999I-462J-2989999D01*
G01*
X128544830Y-80030000D02*
G75*
G03*
X126999538Y-74480000I-1544830J2560000D01*
G01*
X129500000Y-77470000D02*
G75*
G03*
X129500000Y-77470000I-2500000J0D01*
G01*
%TO.C,D15*%
X155935000Y-87650000D02*
X159025000Y-87650000D01*
X157480462Y-82100001D02*
G75*
G03*
X155935170Y-87649999I-462J-2989999D01*
G01*
X159024830Y-87650000D02*
G75*
G03*
X157479538Y-82100000I-1544830J2560000D01*
G01*
X159980000Y-85090000D02*
G75*
G03*
X159980000Y-85090000I-2500000J0D01*
G01*
%TO.C,D29*%
X140695000Y-110510000D02*
X143785000Y-110510000D01*
X142240462Y-104960001D02*
G75*
G03*
X140695170Y-110509999I-462J-2989999D01*
G01*
X143784830Y-110510000D02*
G75*
G03*
X142239538Y-104960000I-1544830J2560000D01*
G01*
X144740000Y-107950000D02*
G75*
G03*
X144740000Y-107950000I-2500000J0D01*
G01*
%TO.C,D21*%
X140695000Y-102890000D02*
X143785000Y-102890000D01*
X142240462Y-97340001D02*
G75*
G03*
X140695170Y-102889999I-462J-2989999D01*
G01*
X143784830Y-102890000D02*
G75*
G03*
X142239538Y-97340000I-1544830J2560000D01*
G01*
X144740000Y-100330000D02*
G75*
G03*
X144740000Y-100330000I-2500000J0D01*
G01*
%TO.C,D18*%
X117835000Y-102890000D02*
X120925000Y-102890000D01*
X119380462Y-97340001D02*
G75*
G03*
X117835170Y-102889999I-462J-2989999D01*
G01*
X120924830Y-102890000D02*
G75*
G03*
X119379538Y-97340000I-1544830J2560000D01*
G01*
X121880000Y-100330000D02*
G75*
G03*
X121880000Y-100330000I-2500000J0D01*
G01*
%TD*%
M02*
