%TF.GenerationSoftware,KiCad,Pcbnew,7.0.8*%
%TF.CreationDate,2023-10-07T23:49:35-07:00*%
%TF.ProjectId,htpm_control_module_status,6874706d-5f63-46f6-9e74-726f6c5f6d6f,1*%
%TF.SameCoordinates,Original*%
%TF.FileFunction,Copper,L1,Top*%
%TF.FilePolarity,Positive*%
%FSLAX46Y46*%
G04 Gerber Fmt 4.6, Leading zero omitted, Abs format (unit mm)*
G04 Created by KiCad (PCBNEW 7.0.8) date 2023-10-07 23:49:35*
%MOMM*%
%LPD*%
G01*
G04 APERTURE LIST*
%TA.AperFunction,ComponentPad*%
%ADD10R,1.800000X1.800000*%
%TD*%
%TA.AperFunction,ComponentPad*%
%ADD11C,1.800000*%
%TD*%
%TA.AperFunction,ComponentPad*%
%ADD12R,1.350000X1.350000*%
%TD*%
%TA.AperFunction,ComponentPad*%
%ADD13O,1.350000X1.350000*%
%TD*%
%TA.AperFunction,Conductor*%
%ADD14C,0.250000*%
%TD*%
G04 APERTURE END LIST*
D10*
%TO.P,D10,1,K*%
%TO.N,Net-(D10-K)*%
X119380000Y-86360000D03*
D11*
%TO.P,D10,2,A*%
%TO.N,Net-(D10-A)*%
X119380000Y-83820000D03*
%TD*%
D10*
%TO.P,D14,1,K*%
%TO.N,Net-(D10-K)*%
X149860000Y-86360000D03*
D11*
%TO.P,D14,2,A*%
%TO.N,Net-(D14-A)*%
X149860000Y-83820000D03*
%TD*%
D10*
%TO.P,D2,1,K*%
%TO.N,Net-(D1-K)*%
X119380000Y-78740000D03*
D11*
%TO.P,D2,2,A*%
%TO.N,Net-(D10-A)*%
X119380000Y-76200000D03*
%TD*%
D10*
%TO.P,D30,1,K*%
%TO.N,Net-(D25-K)*%
X149860000Y-109220000D03*
D11*
%TO.P,D30,2,A*%
%TO.N,Net-(D14-A)*%
X149860000Y-106680000D03*
%TD*%
D10*
%TO.P,D26,1,K*%
%TO.N,Net-(D25-K)*%
X119380000Y-109220000D03*
D11*
%TO.P,D26,2,A*%
%TO.N,Net-(D10-A)*%
X119380000Y-106680000D03*
%TD*%
D10*
%TO.P,D32,1,K*%
%TO.N,Net-(D25-K)*%
X165100000Y-109220000D03*
D11*
%TO.P,D32,2,A*%
%TO.N,Net-(D16-A)*%
X165100000Y-106680000D03*
%TD*%
D12*
%TO.P,J3,1,Pin_1*%
%TO.N,Net-(D16-A)*%
X142620000Y-114300000D03*
D13*
%TO.P,J3,2,Pin_2*%
%TO.N,Net-(D15-A)*%
X140620000Y-114300000D03*
%TO.P,J3,3,Pin_3*%
%TO.N,Net-(D14-A)*%
X138620000Y-114300000D03*
%TO.P,J3,4,Pin_4*%
%TO.N,Net-(D13-A)*%
X136620000Y-114300000D03*
%TO.P,J3,5,Pin_5*%
%TO.N,Net-(D12-A)*%
X134620000Y-114300000D03*
%TO.P,J3,6,Pin_6*%
%TO.N,Net-(D11-A)*%
X132620000Y-114300000D03*
%TO.P,J3,7,Pin_7*%
%TO.N,Net-(D10-A)*%
X130620000Y-114300000D03*
%TO.P,J3,8,Pin_8*%
%TO.N,Net-(D1-A)*%
X128620000Y-114300000D03*
%TD*%
D10*
%TO.P,D20,1,K*%
%TO.N,Net-(D17-K)*%
X134620000Y-101600000D03*
D11*
%TO.P,D20,2,A*%
%TO.N,Net-(D12-A)*%
X134620000Y-99060000D03*
%TD*%
D10*
%TO.P,D25,1,K*%
%TO.N,Net-(D25-K)*%
X111760000Y-109220000D03*
D11*
%TO.P,D25,2,A*%
%TO.N,Net-(D1-A)*%
X111760000Y-106680000D03*
%TD*%
D10*
%TO.P,D27,1,K*%
%TO.N,Net-(D25-K)*%
X127000000Y-109220000D03*
D11*
%TO.P,D27,2,A*%
%TO.N,Net-(D11-A)*%
X127000000Y-106680000D03*
%TD*%
D12*
%TO.P,J1,1,Pin_1*%
%TO.N,Net-(D16-A)*%
X142620000Y-71120000D03*
D13*
%TO.P,J1,2,Pin_2*%
%TO.N,Net-(D15-A)*%
X140620000Y-71120000D03*
%TO.P,J1,3,Pin_3*%
%TO.N,Net-(D14-A)*%
X138620000Y-71120000D03*
%TO.P,J1,4,Pin_4*%
%TO.N,Net-(D13-A)*%
X136620000Y-71120000D03*
%TO.P,J1,5,Pin_5*%
%TO.N,Net-(D12-A)*%
X134620000Y-71120000D03*
%TO.P,J1,6,Pin_6*%
%TO.N,Net-(D11-A)*%
X132620000Y-71120000D03*
%TO.P,J1,7,Pin_7*%
%TO.N,Net-(D10-A)*%
X130620000Y-71120000D03*
%TO.P,J1,8,Pin_8*%
%TO.N,Net-(D1-A)*%
X128620000Y-71120000D03*
%TD*%
D10*
%TO.P,D9,1,K*%
%TO.N,Net-(D10-K)*%
X111760000Y-86360000D03*
D11*
%TO.P,D9,2,A*%
%TO.N,Net-(D1-A)*%
X111760000Y-83820000D03*
%TD*%
D10*
%TO.P,D16,1,K*%
%TO.N,Net-(D10-K)*%
X165100000Y-86360000D03*
D11*
%TO.P,D16,2,A*%
%TO.N,Net-(D16-A)*%
X165100000Y-83820000D03*
%TD*%
D10*
%TO.P,D5,1,K*%
%TO.N,Net-(D1-K)*%
X142240000Y-78740000D03*
D11*
%TO.P,D5,2,A*%
%TO.N,Net-(D13-A)*%
X142240000Y-76200000D03*
%TD*%
D10*
%TO.P,D12,1,K*%
%TO.N,Net-(D10-K)*%
X134620000Y-86360000D03*
D11*
%TO.P,D12,2,A*%
%TO.N,Net-(D12-A)*%
X134620000Y-83820000D03*
%TD*%
D10*
%TO.P,D23,1,K*%
%TO.N,Net-(D17-K)*%
X157480000Y-101600000D03*
D11*
%TO.P,D23,2,A*%
%TO.N,Net-(D15-A)*%
X157480000Y-99060000D03*
%TD*%
D10*
%TO.P,D6,1,K*%
%TO.N,Net-(D1-K)*%
X149860000Y-78740000D03*
D11*
%TO.P,D6,2,A*%
%TO.N,Net-(D14-A)*%
X149860000Y-76200000D03*
%TD*%
D10*
%TO.P,D28,1,K*%
%TO.N,Net-(D25-K)*%
X134620000Y-109220000D03*
D11*
%TO.P,D28,2,A*%
%TO.N,Net-(D12-A)*%
X134620000Y-106680000D03*
%TD*%
D10*
%TO.P,D22,1,K*%
%TO.N,Net-(D17-K)*%
X149860000Y-101600000D03*
D11*
%TO.P,D22,2,A*%
%TO.N,Net-(D14-A)*%
X149860000Y-99060000D03*
%TD*%
D10*
%TO.P,D24,1,K*%
%TO.N,Net-(D17-K)*%
X165100000Y-101600000D03*
D11*
%TO.P,D24,2,A*%
%TO.N,Net-(D16-A)*%
X165100000Y-99060000D03*
%TD*%
D10*
%TO.P,D17,1,K*%
%TO.N,Net-(D17-K)*%
X111760000Y-101600000D03*
D11*
%TO.P,D17,2,A*%
%TO.N,Net-(D1-A)*%
X111760000Y-99060000D03*
%TD*%
D10*
%TO.P,D8,1,K*%
%TO.N,Net-(D1-K)*%
X165100000Y-78740000D03*
D11*
%TO.P,D8,2,A*%
%TO.N,Net-(D16-A)*%
X165100000Y-76200000D03*
%TD*%
D10*
%TO.P,D13,1,K*%
%TO.N,Net-(D10-K)*%
X142240000Y-86360000D03*
D11*
%TO.P,D13,2,A*%
%TO.N,Net-(D13-A)*%
X142240000Y-83820000D03*
%TD*%
D12*
%TO.P,J2,1,Pin_1*%
%TO.N,Net-(D1-K)*%
X172720000Y-88900000D03*
D13*
%TO.P,J2,2,Pin_2*%
%TO.N,Net-(D10-K)*%
X172720000Y-90900000D03*
%TO.P,J2,3,Pin_3*%
%TO.N,Net-(D17-K)*%
X172720000Y-92900000D03*
%TO.P,J2,4,Pin_4*%
%TO.N,Net-(D25-K)*%
X172720000Y-94900000D03*
%TD*%
D10*
%TO.P,D11,1,K*%
%TO.N,Net-(D10-K)*%
X127000000Y-86360000D03*
D11*
%TO.P,D11,2,A*%
%TO.N,Net-(D11-A)*%
X127000000Y-83820000D03*
%TD*%
D10*
%TO.P,D31,1,K*%
%TO.N,Net-(D25-K)*%
X157480000Y-109220000D03*
D11*
%TO.P,D31,2,A*%
%TO.N,Net-(D15-A)*%
X157480000Y-106680000D03*
%TD*%
D10*
%TO.P,D1,1,K*%
%TO.N,Net-(D1-K)*%
X111760000Y-78740000D03*
D11*
%TO.P,D1,2,A*%
%TO.N,Net-(D1-A)*%
X111760000Y-76200000D03*
%TD*%
D10*
%TO.P,D4,1,K*%
%TO.N,Net-(D1-K)*%
X134620000Y-78740000D03*
D11*
%TO.P,D4,2,A*%
%TO.N,Net-(D12-A)*%
X134620000Y-76200000D03*
%TD*%
D10*
%TO.P,D7,1,K*%
%TO.N,Net-(D1-K)*%
X157480000Y-78740000D03*
D11*
%TO.P,D7,2,A*%
%TO.N,Net-(D15-A)*%
X157480000Y-76200000D03*
%TD*%
D10*
%TO.P,D19,1,K*%
%TO.N,Net-(D17-K)*%
X127000000Y-101600000D03*
D11*
%TO.P,D19,2,A*%
%TO.N,Net-(D11-A)*%
X127000000Y-99060000D03*
%TD*%
D10*
%TO.P,D3,1,K*%
%TO.N,Net-(D1-K)*%
X127000000Y-78740000D03*
D11*
%TO.P,D3,2,A*%
%TO.N,Net-(D11-A)*%
X127000000Y-76200000D03*
%TD*%
D10*
%TO.P,D15,1,K*%
%TO.N,Net-(D10-K)*%
X157480000Y-86360000D03*
D11*
%TO.P,D15,2,A*%
%TO.N,Net-(D15-A)*%
X157480000Y-83820000D03*
%TD*%
D10*
%TO.P,D29,1,K*%
%TO.N,Net-(D25-K)*%
X142240000Y-109220000D03*
D11*
%TO.P,D29,2,A*%
%TO.N,Net-(D13-A)*%
X142240000Y-106680000D03*
%TD*%
D10*
%TO.P,D21,1,K*%
%TO.N,Net-(D17-K)*%
X142240000Y-101600000D03*
D11*
%TO.P,D21,2,A*%
%TO.N,Net-(D13-A)*%
X142240000Y-99060000D03*
%TD*%
D10*
%TO.P,D18,1,K*%
%TO.N,Net-(D17-K)*%
X119380000Y-101600000D03*
D11*
%TO.P,D18,2,A*%
%TO.N,Net-(D10-A)*%
X119380000Y-99060000D03*
%TD*%
D14*
%TO.N,Net-(D1-A)*%
X114300000Y-81280000D02*
X111760000Y-83820000D01*
X116840000Y-71120000D02*
X128620000Y-71120000D01*
X111760000Y-99060000D02*
X114300000Y-101600000D01*
X114300000Y-86360000D02*
X114300000Y-96520000D01*
X111760000Y-76200000D02*
X114300000Y-78740000D01*
X114300000Y-96520000D02*
X111760000Y-99060000D01*
X114300000Y-101600000D02*
X114300000Y-104140000D01*
X114300000Y-78740000D02*
X114300000Y-81280000D01*
X114300000Y-104140000D02*
X111760000Y-106680000D01*
X119380000Y-114300000D02*
X128620000Y-114300000D01*
X111760000Y-106680000D02*
X119380000Y-114300000D01*
X111760000Y-76200000D02*
X116840000Y-71120000D01*
X111760000Y-83820000D02*
X114300000Y-86360000D01*
%TO.N,Net-(D10-A)*%
X119380000Y-99060000D02*
X121920000Y-101600000D01*
X121920000Y-81280000D02*
X119380000Y-83820000D01*
X124460000Y-111760000D02*
X128080000Y-111760000D01*
X121920000Y-78740000D02*
X121920000Y-81280000D01*
X121920000Y-86360000D02*
X121920000Y-96520000D01*
X121920000Y-96520000D02*
X119380000Y-99060000D01*
X128080000Y-111760000D02*
X130620000Y-114300000D01*
X121920000Y-104140000D02*
X119380000Y-106680000D01*
X119380000Y-106680000D02*
X124460000Y-111760000D01*
X119380000Y-76200000D02*
X121920000Y-78740000D01*
X121920000Y-101600000D02*
X121920000Y-104140000D01*
X119380000Y-83820000D02*
X121920000Y-86360000D01*
X119380000Y-76200000D02*
X121920000Y-73660000D01*
X128080000Y-73660000D02*
X130620000Y-71120000D01*
X121920000Y-73660000D02*
X128080000Y-73660000D01*
%TO.N,Net-(D11-A)*%
X129540000Y-78740000D02*
X129540000Y-81280000D01*
X130080000Y-73660000D02*
X132620000Y-71120000D01*
X127000000Y-106680000D02*
X132620000Y-112300000D01*
X129540000Y-96520000D02*
X127000000Y-99060000D01*
X129540000Y-104140000D02*
X127000000Y-106680000D01*
X127000000Y-99060000D02*
X129540000Y-101600000D01*
X127000000Y-76200000D02*
X129540000Y-73660000D01*
X129540000Y-81280000D02*
X127000000Y-83820000D01*
X129540000Y-73660000D02*
X130080000Y-73660000D01*
X127000000Y-83820000D02*
X129540000Y-86360000D01*
X132620000Y-112300000D02*
X132620000Y-114300000D01*
X129540000Y-86360000D02*
X129540000Y-96520000D01*
X129540000Y-101600000D02*
X129540000Y-104140000D01*
X127000000Y-76200000D02*
X129540000Y-78740000D01*
%TO.N,Net-(D12-A)*%
X137160000Y-86360000D02*
X137160000Y-96520000D01*
X134620000Y-76200000D02*
X134620000Y-71120000D01*
X137160000Y-96520000D02*
X134620000Y-99060000D01*
X137160000Y-78740000D02*
X137160000Y-81280000D01*
X137160000Y-109220000D02*
X137160000Y-111760000D01*
X134620000Y-106680000D02*
X137160000Y-109220000D01*
X137160000Y-104140000D02*
X134620000Y-106680000D01*
X137160000Y-101600000D02*
X137160000Y-104140000D01*
X134620000Y-76200000D02*
X137160000Y-78740000D01*
X137160000Y-81280000D02*
X134620000Y-83820000D01*
X137160000Y-111760000D02*
X134620000Y-114300000D01*
X134620000Y-99060000D02*
X137160000Y-101600000D01*
X134620000Y-83820000D02*
X137160000Y-86360000D01*
%TO.N,Net-(D13-A)*%
X144780000Y-78740000D02*
X144780000Y-81280000D01*
X139700000Y-73660000D02*
X139160000Y-73660000D01*
X142240000Y-106680000D02*
X137610000Y-111310000D01*
X142240000Y-76200000D02*
X139700000Y-73660000D01*
X144780000Y-81280000D02*
X142240000Y-83820000D01*
X137610000Y-113310000D02*
X136620000Y-114300000D01*
X142240000Y-83820000D02*
X144780000Y-86360000D01*
X139160000Y-73660000D02*
X136620000Y-71120000D01*
X144780000Y-101600000D02*
X144780000Y-104140000D01*
X142240000Y-99060000D02*
X144780000Y-101600000D01*
X144780000Y-104140000D02*
X142240000Y-106680000D01*
X137610000Y-111310000D02*
X137610000Y-113310000D01*
X144780000Y-96520000D02*
X142240000Y-99060000D01*
X144780000Y-86360000D02*
X144780000Y-96520000D01*
X142240000Y-76200000D02*
X144780000Y-78740000D01*
%TO.N,Net-(D14-A)*%
X149860000Y-76200000D02*
X152400000Y-78740000D01*
X141160000Y-73660000D02*
X138620000Y-71120000D01*
X152400000Y-86360000D02*
X152400000Y-96520000D01*
X152400000Y-96520000D02*
X149860000Y-99060000D01*
X152400000Y-104140000D02*
X149860000Y-106680000D01*
X149860000Y-83820000D02*
X152400000Y-86360000D01*
X138620000Y-114300000D02*
X141160000Y-111760000D01*
X149860000Y-76200000D02*
X147320000Y-73660000D01*
X152400000Y-101600000D02*
X152400000Y-104140000D01*
X152400000Y-81280000D02*
X149860000Y-83820000D01*
X141160000Y-111760000D02*
X142240000Y-111760000D01*
X152400000Y-78740000D02*
X152400000Y-81280000D01*
X142240000Y-111760000D02*
X147320000Y-106680000D01*
X147320000Y-106680000D02*
X149860000Y-106680000D01*
X147320000Y-73660000D02*
X141160000Y-73660000D01*
X149860000Y-99060000D02*
X152400000Y-101600000D01*
%TO.N,Net-(D15-A)*%
X160020000Y-86360000D02*
X160020000Y-96520000D01*
X160020000Y-104140000D02*
X157480000Y-106680000D01*
X157480000Y-76200000D02*
X160020000Y-78740000D01*
X160020000Y-81280000D02*
X157480000Y-83820000D01*
X160020000Y-96520000D02*
X157480000Y-99060000D01*
X157480000Y-83820000D02*
X160020000Y-86360000D01*
X157480000Y-76200000D02*
X154490000Y-73210000D01*
X160020000Y-101600000D02*
X160020000Y-104140000D01*
X157480000Y-99060000D02*
X160020000Y-101600000D01*
X142710000Y-73210000D02*
X140620000Y-71120000D01*
X140620000Y-114300000D02*
X143160000Y-111760000D01*
X152400000Y-111760000D02*
X157480000Y-106680000D01*
X154490000Y-73210000D02*
X142710000Y-73210000D01*
X143160000Y-111760000D02*
X152400000Y-111760000D01*
X160020000Y-78740000D02*
X160020000Y-81280000D01*
%TO.N,Net-(D16-A)*%
X165100000Y-99060000D02*
X167640000Y-101600000D01*
X167640000Y-78740000D02*
X167640000Y-81280000D01*
X165100000Y-76200000D02*
X160020000Y-71120000D01*
X167640000Y-86360000D02*
X167640000Y-96520000D01*
X165100000Y-106680000D02*
X157480000Y-114300000D01*
X165100000Y-83820000D02*
X167640000Y-86360000D01*
X157480000Y-114300000D02*
X142620000Y-114300000D01*
X167640000Y-101600000D02*
X167640000Y-104140000D01*
X160020000Y-71120000D02*
X142620000Y-71120000D01*
X167640000Y-104140000D02*
X165100000Y-106680000D01*
X165100000Y-76200000D02*
X167640000Y-78740000D01*
X167640000Y-81280000D02*
X165100000Y-83820000D01*
X167640000Y-96520000D02*
X165100000Y-99060000D01*
%TD*%
M02*
