%TF.GenerationSoftware,KiCad,Pcbnew,7.0.8*%
%TF.CreationDate,2023-10-08T00:11:49-07:00*%
%TF.ProjectId,htpm_control_module_status,6874706d-5f63-46f6-9e74-726f6c5f6d6f,1*%
%TF.SameCoordinates,Original*%
%TF.FileFunction,Legend,Bot*%
%TF.FilePolarity,Positive*%
%FSLAX46Y46*%
G04 Gerber Fmt 4.6, Leading zero omitted, Abs format (unit mm)*
G04 Created by KiCad (PCBNEW 7.0.8) date 2023-10-08 00:11:49*
%MOMM*%
%LPD*%
G01*
G04 APERTURE LIST*
%ADD10C,0.150000*%
G04 APERTURE END LIST*
D10*
X172383220Y-70989819D02*
X172383220Y-69989819D01*
X172383220Y-70466009D02*
X171811792Y-70466009D01*
X171811792Y-70989819D02*
X171811792Y-69989819D01*
X171478458Y-69989819D02*
X170907030Y-69989819D01*
X171192744Y-70989819D02*
X171192744Y-69989819D01*
X170573696Y-70989819D02*
X170573696Y-69989819D01*
X170573696Y-69989819D02*
X170192744Y-69989819D01*
X170192744Y-69989819D02*
X170097506Y-70037438D01*
X170097506Y-70037438D02*
X170049887Y-70085057D01*
X170049887Y-70085057D02*
X170002268Y-70180295D01*
X170002268Y-70180295D02*
X170002268Y-70323152D01*
X170002268Y-70323152D02*
X170049887Y-70418390D01*
X170049887Y-70418390D02*
X170097506Y-70466009D01*
X170097506Y-70466009D02*
X170192744Y-70513628D01*
X170192744Y-70513628D02*
X170573696Y-70513628D01*
X169573696Y-70894580D02*
X169526077Y-70942200D01*
X169526077Y-70942200D02*
X169573696Y-70989819D01*
X169573696Y-70989819D02*
X169621315Y-70942200D01*
X169621315Y-70942200D02*
X169573696Y-70894580D01*
X169573696Y-70894580D02*
X169573696Y-70989819D01*
X169573696Y-70608866D02*
X169621315Y-70037438D01*
X169621315Y-70037438D02*
X169573696Y-69989819D01*
X169573696Y-69989819D02*
X169526077Y-70037438D01*
X169526077Y-70037438D02*
X169573696Y-70608866D01*
X169573696Y-70608866D02*
X169573696Y-69989819D01*
X169097506Y-70989819D02*
X169097506Y-70323152D01*
X169097506Y-70418390D02*
X169049887Y-70370771D01*
X169049887Y-70370771D02*
X168954649Y-70323152D01*
X168954649Y-70323152D02*
X168811792Y-70323152D01*
X168811792Y-70323152D02*
X168716554Y-70370771D01*
X168716554Y-70370771D02*
X168668935Y-70466009D01*
X168668935Y-70466009D02*
X168668935Y-70989819D01*
X168668935Y-70466009D02*
X168621316Y-70370771D01*
X168621316Y-70370771D02*
X168526078Y-70323152D01*
X168526078Y-70323152D02*
X168383221Y-70323152D01*
X168383221Y-70323152D02*
X168287982Y-70370771D01*
X168287982Y-70370771D02*
X168240363Y-70466009D01*
X168240363Y-70466009D02*
X168240363Y-70989819D01*
X166430840Y-70894580D02*
X166478459Y-70942200D01*
X166478459Y-70942200D02*
X166621316Y-70989819D01*
X166621316Y-70989819D02*
X166716554Y-70989819D01*
X166716554Y-70989819D02*
X166859411Y-70942200D01*
X166859411Y-70942200D02*
X166954649Y-70846961D01*
X166954649Y-70846961D02*
X167002268Y-70751723D01*
X167002268Y-70751723D02*
X167049887Y-70561247D01*
X167049887Y-70561247D02*
X167049887Y-70418390D01*
X167049887Y-70418390D02*
X167002268Y-70227914D01*
X167002268Y-70227914D02*
X166954649Y-70132676D01*
X166954649Y-70132676D02*
X166859411Y-70037438D01*
X166859411Y-70037438D02*
X166716554Y-69989819D01*
X166716554Y-69989819D02*
X166621316Y-69989819D01*
X166621316Y-69989819D02*
X166478459Y-70037438D01*
X166478459Y-70037438D02*
X166430840Y-70085057D01*
X165811792Y-69989819D02*
X165621316Y-69989819D01*
X165621316Y-69989819D02*
X165526078Y-70037438D01*
X165526078Y-70037438D02*
X165430840Y-70132676D01*
X165430840Y-70132676D02*
X165383221Y-70323152D01*
X165383221Y-70323152D02*
X165383221Y-70656485D01*
X165383221Y-70656485D02*
X165430840Y-70846961D01*
X165430840Y-70846961D02*
X165526078Y-70942200D01*
X165526078Y-70942200D02*
X165621316Y-70989819D01*
X165621316Y-70989819D02*
X165811792Y-70989819D01*
X165811792Y-70989819D02*
X165907030Y-70942200D01*
X165907030Y-70942200D02*
X166002268Y-70846961D01*
X166002268Y-70846961D02*
X166049887Y-70656485D01*
X166049887Y-70656485D02*
X166049887Y-70323152D01*
X166049887Y-70323152D02*
X166002268Y-70132676D01*
X166002268Y-70132676D02*
X165907030Y-70037438D01*
X165907030Y-70037438D02*
X165811792Y-69989819D01*
X164954649Y-70989819D02*
X164954649Y-69989819D01*
X164954649Y-69989819D02*
X164383221Y-70989819D01*
X164383221Y-70989819D02*
X164383221Y-69989819D01*
X164049887Y-69989819D02*
X163478459Y-69989819D01*
X163764173Y-70989819D02*
X163764173Y-69989819D01*
X162573697Y-70989819D02*
X162907030Y-70513628D01*
X163145125Y-70989819D02*
X163145125Y-69989819D01*
X163145125Y-69989819D02*
X162764173Y-69989819D01*
X162764173Y-69989819D02*
X162668935Y-70037438D01*
X162668935Y-70037438D02*
X162621316Y-70085057D01*
X162621316Y-70085057D02*
X162573697Y-70180295D01*
X162573697Y-70180295D02*
X162573697Y-70323152D01*
X162573697Y-70323152D02*
X162621316Y-70418390D01*
X162621316Y-70418390D02*
X162668935Y-70466009D01*
X162668935Y-70466009D02*
X162764173Y-70513628D01*
X162764173Y-70513628D02*
X163145125Y-70513628D01*
X161954649Y-69989819D02*
X161764173Y-69989819D01*
X161764173Y-69989819D02*
X161668935Y-70037438D01*
X161668935Y-70037438D02*
X161573697Y-70132676D01*
X161573697Y-70132676D02*
X161526078Y-70323152D01*
X161526078Y-70323152D02*
X161526078Y-70656485D01*
X161526078Y-70656485D02*
X161573697Y-70846961D01*
X161573697Y-70846961D02*
X161668935Y-70942200D01*
X161668935Y-70942200D02*
X161764173Y-70989819D01*
X161764173Y-70989819D02*
X161954649Y-70989819D01*
X161954649Y-70989819D02*
X162049887Y-70942200D01*
X162049887Y-70942200D02*
X162145125Y-70846961D01*
X162145125Y-70846961D02*
X162192744Y-70656485D01*
X162192744Y-70656485D02*
X162192744Y-70323152D01*
X162192744Y-70323152D02*
X162145125Y-70132676D01*
X162145125Y-70132676D02*
X162049887Y-70037438D01*
X162049887Y-70037438D02*
X161954649Y-69989819D01*
X160621316Y-70989819D02*
X161097506Y-70989819D01*
X161097506Y-70989819D02*
X161097506Y-69989819D01*
X159526077Y-70989819D02*
X159526077Y-69989819D01*
X159526077Y-69989819D02*
X159192744Y-70704104D01*
X159192744Y-70704104D02*
X158859411Y-69989819D01*
X158859411Y-69989819D02*
X158859411Y-70989819D01*
X158240363Y-70989819D02*
X158335601Y-70942200D01*
X158335601Y-70942200D02*
X158383220Y-70894580D01*
X158383220Y-70894580D02*
X158430839Y-70799342D01*
X158430839Y-70799342D02*
X158430839Y-70513628D01*
X158430839Y-70513628D02*
X158383220Y-70418390D01*
X158383220Y-70418390D02*
X158335601Y-70370771D01*
X158335601Y-70370771D02*
X158240363Y-70323152D01*
X158240363Y-70323152D02*
X158097506Y-70323152D01*
X158097506Y-70323152D02*
X158002268Y-70370771D01*
X158002268Y-70370771D02*
X157954649Y-70418390D01*
X157954649Y-70418390D02*
X157907030Y-70513628D01*
X157907030Y-70513628D02*
X157907030Y-70799342D01*
X157907030Y-70799342D02*
X157954649Y-70894580D01*
X157954649Y-70894580D02*
X158002268Y-70942200D01*
X158002268Y-70942200D02*
X158097506Y-70989819D01*
X158097506Y-70989819D02*
X158240363Y-70989819D01*
X157049887Y-70989819D02*
X157049887Y-69989819D01*
X157049887Y-70942200D02*
X157145125Y-70989819D01*
X157145125Y-70989819D02*
X157335601Y-70989819D01*
X157335601Y-70989819D02*
X157430839Y-70942200D01*
X157430839Y-70942200D02*
X157478458Y-70894580D01*
X157478458Y-70894580D02*
X157526077Y-70799342D01*
X157526077Y-70799342D02*
X157526077Y-70513628D01*
X157526077Y-70513628D02*
X157478458Y-70418390D01*
X157478458Y-70418390D02*
X157430839Y-70370771D01*
X157430839Y-70370771D02*
X157335601Y-70323152D01*
X157335601Y-70323152D02*
X157145125Y-70323152D01*
X157145125Y-70323152D02*
X157049887Y-70370771D01*
X156145125Y-70323152D02*
X156145125Y-70989819D01*
X156573696Y-70323152D02*
X156573696Y-70846961D01*
X156573696Y-70846961D02*
X156526077Y-70942200D01*
X156526077Y-70942200D02*
X156430839Y-70989819D01*
X156430839Y-70989819D02*
X156287982Y-70989819D01*
X156287982Y-70989819D02*
X156192744Y-70942200D01*
X156192744Y-70942200D02*
X156145125Y-70894580D01*
X155526077Y-70989819D02*
X155621315Y-70942200D01*
X155621315Y-70942200D02*
X155668934Y-70846961D01*
X155668934Y-70846961D02*
X155668934Y-69989819D01*
X154764172Y-70942200D02*
X154859410Y-70989819D01*
X154859410Y-70989819D02*
X155049886Y-70989819D01*
X155049886Y-70989819D02*
X155145124Y-70942200D01*
X155145124Y-70942200D02*
X155192743Y-70846961D01*
X155192743Y-70846961D02*
X155192743Y-70466009D01*
X155192743Y-70466009D02*
X155145124Y-70370771D01*
X155145124Y-70370771D02*
X155049886Y-70323152D01*
X155049886Y-70323152D02*
X154859410Y-70323152D01*
X154859410Y-70323152D02*
X154764172Y-70370771D01*
X154764172Y-70370771D02*
X154716553Y-70466009D01*
X154716553Y-70466009D02*
X154716553Y-70561247D01*
X154716553Y-70561247D02*
X155192743Y-70656485D01*
X153573695Y-70942200D02*
X153430838Y-70989819D01*
X153430838Y-70989819D02*
X153192743Y-70989819D01*
X153192743Y-70989819D02*
X153097505Y-70942200D01*
X153097505Y-70942200D02*
X153049886Y-70894580D01*
X153049886Y-70894580D02*
X153002267Y-70799342D01*
X153002267Y-70799342D02*
X153002267Y-70704104D01*
X153002267Y-70704104D02*
X153049886Y-70608866D01*
X153049886Y-70608866D02*
X153097505Y-70561247D01*
X153097505Y-70561247D02*
X153192743Y-70513628D01*
X153192743Y-70513628D02*
X153383219Y-70466009D01*
X153383219Y-70466009D02*
X153478457Y-70418390D01*
X153478457Y-70418390D02*
X153526076Y-70370771D01*
X153526076Y-70370771D02*
X153573695Y-70275533D01*
X153573695Y-70275533D02*
X153573695Y-70180295D01*
X153573695Y-70180295D02*
X153526076Y-70085057D01*
X153526076Y-70085057D02*
X153478457Y-70037438D01*
X153478457Y-70037438D02*
X153383219Y-69989819D01*
X153383219Y-69989819D02*
X153145124Y-69989819D01*
X153145124Y-69989819D02*
X153002267Y-70037438D01*
X152716552Y-70323152D02*
X152335600Y-70323152D01*
X152573695Y-69989819D02*
X152573695Y-70846961D01*
X152573695Y-70846961D02*
X152526076Y-70942200D01*
X152526076Y-70942200D02*
X152430838Y-70989819D01*
X152430838Y-70989819D02*
X152335600Y-70989819D01*
X151573695Y-70989819D02*
X151573695Y-70466009D01*
X151573695Y-70466009D02*
X151621314Y-70370771D01*
X151621314Y-70370771D02*
X151716552Y-70323152D01*
X151716552Y-70323152D02*
X151907028Y-70323152D01*
X151907028Y-70323152D02*
X152002266Y-70370771D01*
X151573695Y-70942200D02*
X151668933Y-70989819D01*
X151668933Y-70989819D02*
X151907028Y-70989819D01*
X151907028Y-70989819D02*
X152002266Y-70942200D01*
X152002266Y-70942200D02*
X152049885Y-70846961D01*
X152049885Y-70846961D02*
X152049885Y-70751723D01*
X152049885Y-70751723D02*
X152002266Y-70656485D01*
X152002266Y-70656485D02*
X151907028Y-70608866D01*
X151907028Y-70608866D02*
X151668933Y-70608866D01*
X151668933Y-70608866D02*
X151573695Y-70561247D01*
X151240361Y-70323152D02*
X150859409Y-70323152D01*
X151097504Y-69989819D02*
X151097504Y-70846961D01*
X151097504Y-70846961D02*
X151049885Y-70942200D01*
X151049885Y-70942200D02*
X150954647Y-70989819D01*
X150954647Y-70989819D02*
X150859409Y-70989819D01*
X150097504Y-70323152D02*
X150097504Y-70989819D01*
X150526075Y-70323152D02*
X150526075Y-70846961D01*
X150526075Y-70846961D02*
X150478456Y-70942200D01*
X150478456Y-70942200D02*
X150383218Y-70989819D01*
X150383218Y-70989819D02*
X150240361Y-70989819D01*
X150240361Y-70989819D02*
X150145123Y-70942200D01*
X150145123Y-70942200D02*
X150097504Y-70894580D01*
X149668932Y-70942200D02*
X149573694Y-70989819D01*
X149573694Y-70989819D02*
X149383218Y-70989819D01*
X149383218Y-70989819D02*
X149287980Y-70942200D01*
X149287980Y-70942200D02*
X149240361Y-70846961D01*
X149240361Y-70846961D02*
X149240361Y-70799342D01*
X149240361Y-70799342D02*
X149287980Y-70704104D01*
X149287980Y-70704104D02*
X149383218Y-70656485D01*
X149383218Y-70656485D02*
X149526075Y-70656485D01*
X149526075Y-70656485D02*
X149621313Y-70608866D01*
X149621313Y-70608866D02*
X149668932Y-70513628D01*
X149668932Y-70513628D02*
X149668932Y-70466009D01*
X149668932Y-70466009D02*
X149621313Y-70370771D01*
X149621313Y-70370771D02*
X149526075Y-70323152D01*
X149526075Y-70323152D02*
X149383218Y-70323152D01*
X149383218Y-70323152D02*
X149287980Y-70370771D01*
X116217506Y-108089819D02*
X116217506Y-108804104D01*
X116217506Y-108804104D02*
X116265125Y-108946961D01*
X116265125Y-108946961D02*
X116360363Y-109042200D01*
X116360363Y-109042200D02*
X116503220Y-109089819D01*
X116503220Y-109089819D02*
X116598458Y-109089819D01*
X115265125Y-109089819D02*
X115741315Y-109089819D01*
X115741315Y-109089819D02*
X115741315Y-108089819D01*
X114360363Y-108994580D02*
X114407982Y-109042200D01*
X114407982Y-109042200D02*
X114550839Y-109089819D01*
X114550839Y-109089819D02*
X114646077Y-109089819D01*
X114646077Y-109089819D02*
X114788934Y-109042200D01*
X114788934Y-109042200D02*
X114884172Y-108946961D01*
X114884172Y-108946961D02*
X114931791Y-108851723D01*
X114931791Y-108851723D02*
X114979410Y-108661247D01*
X114979410Y-108661247D02*
X114979410Y-108518390D01*
X114979410Y-108518390D02*
X114931791Y-108327914D01*
X114931791Y-108327914D02*
X114884172Y-108232676D01*
X114884172Y-108232676D02*
X114788934Y-108137438D01*
X114788934Y-108137438D02*
X114646077Y-108089819D01*
X114646077Y-108089819D02*
X114550839Y-108089819D01*
X114550839Y-108089819D02*
X114407982Y-108137438D01*
X114407982Y-108137438D02*
X114360363Y-108185057D01*
X113646077Y-108089819D02*
X113646077Y-108804104D01*
X113646077Y-108804104D02*
X113693696Y-108946961D01*
X113693696Y-108946961D02*
X113788934Y-109042200D01*
X113788934Y-109042200D02*
X113931791Y-109089819D01*
X113931791Y-109089819D02*
X114027029Y-109089819D01*
X112693696Y-109089819D02*
X113169886Y-109089819D01*
X113169886Y-109089819D02*
X113169886Y-108089819D01*
X111788934Y-108994580D02*
X111836553Y-109042200D01*
X111836553Y-109042200D02*
X111979410Y-109089819D01*
X111979410Y-109089819D02*
X112074648Y-109089819D01*
X112074648Y-109089819D02*
X112217505Y-109042200D01*
X112217505Y-109042200D02*
X112312743Y-108946961D01*
X112312743Y-108946961D02*
X112360362Y-108851723D01*
X112360362Y-108851723D02*
X112407981Y-108661247D01*
X112407981Y-108661247D02*
X112407981Y-108518390D01*
X112407981Y-108518390D02*
X112360362Y-108327914D01*
X112360362Y-108327914D02*
X112312743Y-108232676D01*
X112312743Y-108232676D02*
X112217505Y-108137438D01*
X112217505Y-108137438D02*
X112074648Y-108089819D01*
X112074648Y-108089819D02*
X111979410Y-108089819D01*
X111979410Y-108089819D02*
X111836553Y-108137438D01*
X111836553Y-108137438D02*
X111788934Y-108185057D01*
X111074648Y-108089819D02*
X111074648Y-108804104D01*
X111074648Y-108804104D02*
X111122267Y-108946961D01*
X111122267Y-108946961D02*
X111217505Y-109042200D01*
X111217505Y-109042200D02*
X111360362Y-109089819D01*
X111360362Y-109089819D02*
X111455600Y-109089819D01*
X110122267Y-109089819D02*
X110598457Y-109089819D01*
X110598457Y-109089819D02*
X110598457Y-108089819D01*
X109217505Y-108994580D02*
X109265124Y-109042200D01*
X109265124Y-109042200D02*
X109407981Y-109089819D01*
X109407981Y-109089819D02*
X109503219Y-109089819D01*
X109503219Y-109089819D02*
X109646076Y-109042200D01*
X109646076Y-109042200D02*
X109741314Y-108946961D01*
X109741314Y-108946961D02*
X109788933Y-108851723D01*
X109788933Y-108851723D02*
X109836552Y-108661247D01*
X109836552Y-108661247D02*
X109836552Y-108518390D01*
X109836552Y-108518390D02*
X109788933Y-108327914D01*
X109788933Y-108327914D02*
X109741314Y-108232676D01*
X109741314Y-108232676D02*
X109646076Y-108137438D01*
X109646076Y-108137438D02*
X109503219Y-108089819D01*
X109503219Y-108089819D02*
X109407981Y-108089819D01*
X109407981Y-108089819D02*
X109265124Y-108137438D01*
X109265124Y-108137438D02*
X109217505Y-108185057D01*
X108503219Y-108089819D02*
X108503219Y-108804104D01*
X108503219Y-108804104D02*
X108550838Y-108946961D01*
X108550838Y-108946961D02*
X108646076Y-109042200D01*
X108646076Y-109042200D02*
X108788933Y-109089819D01*
X108788933Y-109089819D02*
X108884171Y-109089819D01*
X107550838Y-109089819D02*
X108027028Y-109089819D01*
X108027028Y-109089819D02*
X108027028Y-108089819D01*
X106646076Y-108994580D02*
X106693695Y-109042200D01*
X106693695Y-109042200D02*
X106836552Y-109089819D01*
X106836552Y-109089819D02*
X106931790Y-109089819D01*
X106931790Y-109089819D02*
X107074647Y-109042200D01*
X107074647Y-109042200D02*
X107169885Y-108946961D01*
X107169885Y-108946961D02*
X107217504Y-108851723D01*
X107217504Y-108851723D02*
X107265123Y-108661247D01*
X107265123Y-108661247D02*
X107265123Y-108518390D01*
X107265123Y-108518390D02*
X107217504Y-108327914D01*
X107217504Y-108327914D02*
X107169885Y-108232676D01*
X107169885Y-108232676D02*
X107074647Y-108137438D01*
X107074647Y-108137438D02*
X106931790Y-108089819D01*
X106931790Y-108089819D02*
X106836552Y-108089819D01*
X106836552Y-108089819D02*
X106693695Y-108137438D01*
X106693695Y-108137438D02*
X106646076Y-108185057D01*
X170634819Y-95305714D02*
X169634819Y-95305714D01*
X169634819Y-95305714D02*
X169634819Y-95543809D01*
X169634819Y-95543809D02*
X169682438Y-95686666D01*
X169682438Y-95686666D02*
X169777676Y-95781904D01*
X169777676Y-95781904D02*
X169872914Y-95829523D01*
X169872914Y-95829523D02*
X170063390Y-95877142D01*
X170063390Y-95877142D02*
X170206247Y-95877142D01*
X170206247Y-95877142D02*
X170396723Y-95829523D01*
X170396723Y-95829523D02*
X170491961Y-95781904D01*
X170491961Y-95781904D02*
X170587200Y-95686666D01*
X170587200Y-95686666D02*
X170634819Y-95543809D01*
X170634819Y-95543809D02*
X170634819Y-95305714D01*
X169730057Y-96258095D02*
X169682438Y-96305714D01*
X169682438Y-96305714D02*
X169634819Y-96400952D01*
X169634819Y-96400952D02*
X169634819Y-96639047D01*
X169634819Y-96639047D02*
X169682438Y-96734285D01*
X169682438Y-96734285D02*
X169730057Y-96781904D01*
X169730057Y-96781904D02*
X169825295Y-96829523D01*
X169825295Y-96829523D02*
X169920533Y-96829523D01*
X169920533Y-96829523D02*
X170063390Y-96781904D01*
X170063390Y-96781904D02*
X170634819Y-96210476D01*
X170634819Y-96210476D02*
X170634819Y-96829523D01*
X169968152Y-97686666D02*
X170634819Y-97686666D01*
X169587200Y-97448571D02*
X170301485Y-97210476D01*
X170301485Y-97210476D02*
X170301485Y-97829523D01*
X144134819Y-108886666D02*
X144849104Y-108886666D01*
X144849104Y-108886666D02*
X144991961Y-108839047D01*
X144991961Y-108839047D02*
X145087200Y-108743809D01*
X145087200Y-108743809D02*
X145134819Y-108600952D01*
X145134819Y-108600952D02*
X145134819Y-108505714D01*
X144134819Y-109267619D02*
X144134819Y-109886666D01*
X144134819Y-109886666D02*
X144515771Y-109553333D01*
X144515771Y-109553333D02*
X144515771Y-109696190D01*
X144515771Y-109696190D02*
X144563390Y-109791428D01*
X144563390Y-109791428D02*
X144611009Y-109839047D01*
X144611009Y-109839047D02*
X144706247Y-109886666D01*
X144706247Y-109886666D02*
X144944342Y-109886666D01*
X144944342Y-109886666D02*
X145039580Y-109839047D01*
X145039580Y-109839047D02*
X145087200Y-109791428D01*
X145087200Y-109791428D02*
X145134819Y-109696190D01*
X145134819Y-109696190D02*
X145134819Y-109410476D01*
X145134819Y-109410476D02*
X145087200Y-109315238D01*
X145087200Y-109315238D02*
X145039580Y-109267619D01*
X170634819Y-102925714D02*
X169634819Y-102925714D01*
X169634819Y-102925714D02*
X169634819Y-103163809D01*
X169634819Y-103163809D02*
X169682438Y-103306666D01*
X169682438Y-103306666D02*
X169777676Y-103401904D01*
X169777676Y-103401904D02*
X169872914Y-103449523D01*
X169872914Y-103449523D02*
X170063390Y-103497142D01*
X170063390Y-103497142D02*
X170206247Y-103497142D01*
X170206247Y-103497142D02*
X170396723Y-103449523D01*
X170396723Y-103449523D02*
X170491961Y-103401904D01*
X170491961Y-103401904D02*
X170587200Y-103306666D01*
X170587200Y-103306666D02*
X170634819Y-103163809D01*
X170634819Y-103163809D02*
X170634819Y-102925714D01*
X169634819Y-103830476D02*
X169634819Y-104449523D01*
X169634819Y-104449523D02*
X170015771Y-104116190D01*
X170015771Y-104116190D02*
X170015771Y-104259047D01*
X170015771Y-104259047D02*
X170063390Y-104354285D01*
X170063390Y-104354285D02*
X170111009Y-104401904D01*
X170111009Y-104401904D02*
X170206247Y-104449523D01*
X170206247Y-104449523D02*
X170444342Y-104449523D01*
X170444342Y-104449523D02*
X170539580Y-104401904D01*
X170539580Y-104401904D02*
X170587200Y-104354285D01*
X170587200Y-104354285D02*
X170634819Y-104259047D01*
X170634819Y-104259047D02*
X170634819Y-103973333D01*
X170634819Y-103973333D02*
X170587200Y-103878095D01*
X170587200Y-103878095D02*
X170539580Y-103830476D01*
X169730057Y-104830476D02*
X169682438Y-104878095D01*
X169682438Y-104878095D02*
X169634819Y-104973333D01*
X169634819Y-104973333D02*
X169634819Y-105211428D01*
X169634819Y-105211428D02*
X169682438Y-105306666D01*
X169682438Y-105306666D02*
X169730057Y-105354285D01*
X169730057Y-105354285D02*
X169825295Y-105401904D01*
X169825295Y-105401904D02*
X169920533Y-105401904D01*
X169920533Y-105401904D02*
X170063390Y-105354285D01*
X170063390Y-105354285D02*
X170634819Y-104782857D01*
X170634819Y-104782857D02*
X170634819Y-105401904D01*
X107134819Y-102925714D02*
X106134819Y-102925714D01*
X106134819Y-102925714D02*
X106134819Y-103163809D01*
X106134819Y-103163809D02*
X106182438Y-103306666D01*
X106182438Y-103306666D02*
X106277676Y-103401904D01*
X106277676Y-103401904D02*
X106372914Y-103449523D01*
X106372914Y-103449523D02*
X106563390Y-103497142D01*
X106563390Y-103497142D02*
X106706247Y-103497142D01*
X106706247Y-103497142D02*
X106896723Y-103449523D01*
X106896723Y-103449523D02*
X106991961Y-103401904D01*
X106991961Y-103401904D02*
X107087200Y-103306666D01*
X107087200Y-103306666D02*
X107134819Y-103163809D01*
X107134819Y-103163809D02*
X107134819Y-102925714D01*
X106230057Y-103878095D02*
X106182438Y-103925714D01*
X106182438Y-103925714D02*
X106134819Y-104020952D01*
X106134819Y-104020952D02*
X106134819Y-104259047D01*
X106134819Y-104259047D02*
X106182438Y-104354285D01*
X106182438Y-104354285D02*
X106230057Y-104401904D01*
X106230057Y-104401904D02*
X106325295Y-104449523D01*
X106325295Y-104449523D02*
X106420533Y-104449523D01*
X106420533Y-104449523D02*
X106563390Y-104401904D01*
X106563390Y-104401904D02*
X107134819Y-103830476D01*
X107134819Y-103830476D02*
X107134819Y-104449523D01*
X106134819Y-105354285D02*
X106134819Y-104878095D01*
X106134819Y-104878095D02*
X106611009Y-104830476D01*
X106611009Y-104830476D02*
X106563390Y-104878095D01*
X106563390Y-104878095D02*
X106515771Y-104973333D01*
X106515771Y-104973333D02*
X106515771Y-105211428D01*
X106515771Y-105211428D02*
X106563390Y-105306666D01*
X106563390Y-105306666D02*
X106611009Y-105354285D01*
X106611009Y-105354285D02*
X106706247Y-105401904D01*
X106706247Y-105401904D02*
X106944342Y-105401904D01*
X106944342Y-105401904D02*
X107039580Y-105354285D01*
X107039580Y-105354285D02*
X107087200Y-105306666D01*
X107087200Y-105306666D02*
X107134819Y-105211428D01*
X107134819Y-105211428D02*
X107134819Y-104973333D01*
X107134819Y-104973333D02*
X107087200Y-104878095D01*
X107087200Y-104878095D02*
X107039580Y-104830476D01*
X144134819Y-70786666D02*
X144849104Y-70786666D01*
X144849104Y-70786666D02*
X144991961Y-70739047D01*
X144991961Y-70739047D02*
X145087200Y-70643809D01*
X145087200Y-70643809D02*
X145134819Y-70500952D01*
X145134819Y-70500952D02*
X145134819Y-70405714D01*
X145134819Y-71786666D02*
X145134819Y-71215238D01*
X145134819Y-71500952D02*
X144134819Y-71500952D01*
X144134819Y-71500952D02*
X144277676Y-71405714D01*
X144277676Y-71405714D02*
X144372914Y-71310476D01*
X144372914Y-71310476D02*
X144420533Y-71215238D01*
X107134819Y-85621905D02*
X106134819Y-85621905D01*
X106134819Y-85621905D02*
X106134819Y-85860000D01*
X106134819Y-85860000D02*
X106182438Y-86002857D01*
X106182438Y-86002857D02*
X106277676Y-86098095D01*
X106277676Y-86098095D02*
X106372914Y-86145714D01*
X106372914Y-86145714D02*
X106563390Y-86193333D01*
X106563390Y-86193333D02*
X106706247Y-86193333D01*
X106706247Y-86193333D02*
X106896723Y-86145714D01*
X106896723Y-86145714D02*
X106991961Y-86098095D01*
X106991961Y-86098095D02*
X107087200Y-86002857D01*
X107087200Y-86002857D02*
X107134819Y-85860000D01*
X107134819Y-85860000D02*
X107134819Y-85621905D01*
X107134819Y-86669524D02*
X107134819Y-86860000D01*
X107134819Y-86860000D02*
X107087200Y-86955238D01*
X107087200Y-86955238D02*
X107039580Y-87002857D01*
X107039580Y-87002857D02*
X106896723Y-87098095D01*
X106896723Y-87098095D02*
X106706247Y-87145714D01*
X106706247Y-87145714D02*
X106325295Y-87145714D01*
X106325295Y-87145714D02*
X106230057Y-87098095D01*
X106230057Y-87098095D02*
X106182438Y-87050476D01*
X106182438Y-87050476D02*
X106134819Y-86955238D01*
X106134819Y-86955238D02*
X106134819Y-86764762D01*
X106134819Y-86764762D02*
X106182438Y-86669524D01*
X106182438Y-86669524D02*
X106230057Y-86621905D01*
X106230057Y-86621905D02*
X106325295Y-86574286D01*
X106325295Y-86574286D02*
X106563390Y-86574286D01*
X106563390Y-86574286D02*
X106658628Y-86621905D01*
X106658628Y-86621905D02*
X106706247Y-86669524D01*
X106706247Y-86669524D02*
X106753866Y-86764762D01*
X106753866Y-86764762D02*
X106753866Y-86955238D01*
X106753866Y-86955238D02*
X106706247Y-87050476D01*
X106706247Y-87050476D02*
X106658628Y-87098095D01*
X106658628Y-87098095D02*
X106563390Y-87145714D01*
X170634819Y-85145714D02*
X169634819Y-85145714D01*
X169634819Y-85145714D02*
X169634819Y-85383809D01*
X169634819Y-85383809D02*
X169682438Y-85526666D01*
X169682438Y-85526666D02*
X169777676Y-85621904D01*
X169777676Y-85621904D02*
X169872914Y-85669523D01*
X169872914Y-85669523D02*
X170063390Y-85717142D01*
X170063390Y-85717142D02*
X170206247Y-85717142D01*
X170206247Y-85717142D02*
X170396723Y-85669523D01*
X170396723Y-85669523D02*
X170491961Y-85621904D01*
X170491961Y-85621904D02*
X170587200Y-85526666D01*
X170587200Y-85526666D02*
X170634819Y-85383809D01*
X170634819Y-85383809D02*
X170634819Y-85145714D01*
X170634819Y-86669523D02*
X170634819Y-86098095D01*
X170634819Y-86383809D02*
X169634819Y-86383809D01*
X169634819Y-86383809D02*
X169777676Y-86288571D01*
X169777676Y-86288571D02*
X169872914Y-86193333D01*
X169872914Y-86193333D02*
X169920533Y-86098095D01*
X169634819Y-87526666D02*
X169634819Y-87336190D01*
X169634819Y-87336190D02*
X169682438Y-87240952D01*
X169682438Y-87240952D02*
X169730057Y-87193333D01*
X169730057Y-87193333D02*
X169872914Y-87098095D01*
X169872914Y-87098095D02*
X170063390Y-87050476D01*
X170063390Y-87050476D02*
X170444342Y-87050476D01*
X170444342Y-87050476D02*
X170539580Y-87098095D01*
X170539580Y-87098095D02*
X170587200Y-87145714D01*
X170587200Y-87145714D02*
X170634819Y-87240952D01*
X170634819Y-87240952D02*
X170634819Y-87431428D01*
X170634819Y-87431428D02*
X170587200Y-87526666D01*
X170587200Y-87526666D02*
X170539580Y-87574285D01*
X170539580Y-87574285D02*
X170444342Y-87621904D01*
X170444342Y-87621904D02*
X170206247Y-87621904D01*
X170206247Y-87621904D02*
X170111009Y-87574285D01*
X170111009Y-87574285D02*
X170063390Y-87526666D01*
X170063390Y-87526666D02*
X170015771Y-87431428D01*
X170015771Y-87431428D02*
X170015771Y-87240952D01*
X170015771Y-87240952D02*
X170063390Y-87145714D01*
X170063390Y-87145714D02*
X170111009Y-87098095D01*
X170111009Y-87098095D02*
X170206247Y-87050476D01*
X107134819Y-95305714D02*
X106134819Y-95305714D01*
X106134819Y-95305714D02*
X106134819Y-95543809D01*
X106134819Y-95543809D02*
X106182438Y-95686666D01*
X106182438Y-95686666D02*
X106277676Y-95781904D01*
X106277676Y-95781904D02*
X106372914Y-95829523D01*
X106372914Y-95829523D02*
X106563390Y-95877142D01*
X106563390Y-95877142D02*
X106706247Y-95877142D01*
X106706247Y-95877142D02*
X106896723Y-95829523D01*
X106896723Y-95829523D02*
X106991961Y-95781904D01*
X106991961Y-95781904D02*
X107087200Y-95686666D01*
X107087200Y-95686666D02*
X107134819Y-95543809D01*
X107134819Y-95543809D02*
X107134819Y-95305714D01*
X107134819Y-96829523D02*
X107134819Y-96258095D01*
X107134819Y-96543809D02*
X106134819Y-96543809D01*
X106134819Y-96543809D02*
X106277676Y-96448571D01*
X106277676Y-96448571D02*
X106372914Y-96353333D01*
X106372914Y-96353333D02*
X106420533Y-96258095D01*
X106134819Y-97162857D02*
X106134819Y-97829523D01*
X106134819Y-97829523D02*
X107134819Y-97400952D01*
X170634819Y-78001905D02*
X169634819Y-78001905D01*
X169634819Y-78001905D02*
X169634819Y-78240000D01*
X169634819Y-78240000D02*
X169682438Y-78382857D01*
X169682438Y-78382857D02*
X169777676Y-78478095D01*
X169777676Y-78478095D02*
X169872914Y-78525714D01*
X169872914Y-78525714D02*
X170063390Y-78573333D01*
X170063390Y-78573333D02*
X170206247Y-78573333D01*
X170206247Y-78573333D02*
X170396723Y-78525714D01*
X170396723Y-78525714D02*
X170491961Y-78478095D01*
X170491961Y-78478095D02*
X170587200Y-78382857D01*
X170587200Y-78382857D02*
X170634819Y-78240000D01*
X170634819Y-78240000D02*
X170634819Y-78001905D01*
X170063390Y-79144762D02*
X170015771Y-79049524D01*
X170015771Y-79049524D02*
X169968152Y-79001905D01*
X169968152Y-79001905D02*
X169872914Y-78954286D01*
X169872914Y-78954286D02*
X169825295Y-78954286D01*
X169825295Y-78954286D02*
X169730057Y-79001905D01*
X169730057Y-79001905D02*
X169682438Y-79049524D01*
X169682438Y-79049524D02*
X169634819Y-79144762D01*
X169634819Y-79144762D02*
X169634819Y-79335238D01*
X169634819Y-79335238D02*
X169682438Y-79430476D01*
X169682438Y-79430476D02*
X169730057Y-79478095D01*
X169730057Y-79478095D02*
X169825295Y-79525714D01*
X169825295Y-79525714D02*
X169872914Y-79525714D01*
X169872914Y-79525714D02*
X169968152Y-79478095D01*
X169968152Y-79478095D02*
X170015771Y-79430476D01*
X170015771Y-79430476D02*
X170063390Y-79335238D01*
X170063390Y-79335238D02*
X170063390Y-79144762D01*
X170063390Y-79144762D02*
X170111009Y-79049524D01*
X170111009Y-79049524D02*
X170158628Y-79001905D01*
X170158628Y-79001905D02*
X170253866Y-78954286D01*
X170253866Y-78954286D02*
X170444342Y-78954286D01*
X170444342Y-78954286D02*
X170539580Y-79001905D01*
X170539580Y-79001905D02*
X170587200Y-79049524D01*
X170587200Y-79049524D02*
X170634819Y-79144762D01*
X170634819Y-79144762D02*
X170634819Y-79335238D01*
X170634819Y-79335238D02*
X170587200Y-79430476D01*
X170587200Y-79430476D02*
X170539580Y-79478095D01*
X170539580Y-79478095D02*
X170444342Y-79525714D01*
X170444342Y-79525714D02*
X170253866Y-79525714D01*
X170253866Y-79525714D02*
X170158628Y-79478095D01*
X170158628Y-79478095D02*
X170111009Y-79430476D01*
X170111009Y-79430476D02*
X170063390Y-79335238D01*
X173053333Y-86294819D02*
X173053333Y-87009104D01*
X173053333Y-87009104D02*
X173100952Y-87151961D01*
X173100952Y-87151961D02*
X173196190Y-87247200D01*
X173196190Y-87247200D02*
X173339047Y-87294819D01*
X173339047Y-87294819D02*
X173434285Y-87294819D01*
X172624761Y-86390057D02*
X172577142Y-86342438D01*
X172577142Y-86342438D02*
X172481904Y-86294819D01*
X172481904Y-86294819D02*
X172243809Y-86294819D01*
X172243809Y-86294819D02*
X172148571Y-86342438D01*
X172148571Y-86342438D02*
X172100952Y-86390057D01*
X172100952Y-86390057D02*
X172053333Y-86485295D01*
X172053333Y-86485295D02*
X172053333Y-86580533D01*
X172053333Y-86580533D02*
X172100952Y-86723390D01*
X172100952Y-86723390D02*
X172672380Y-87294819D01*
X172672380Y-87294819D02*
X172053333Y-87294819D01*
X107134819Y-78001905D02*
X106134819Y-78001905D01*
X106134819Y-78001905D02*
X106134819Y-78240000D01*
X106134819Y-78240000D02*
X106182438Y-78382857D01*
X106182438Y-78382857D02*
X106277676Y-78478095D01*
X106277676Y-78478095D02*
X106372914Y-78525714D01*
X106372914Y-78525714D02*
X106563390Y-78573333D01*
X106563390Y-78573333D02*
X106706247Y-78573333D01*
X106706247Y-78573333D02*
X106896723Y-78525714D01*
X106896723Y-78525714D02*
X106991961Y-78478095D01*
X106991961Y-78478095D02*
X107087200Y-78382857D01*
X107087200Y-78382857D02*
X107134819Y-78240000D01*
X107134819Y-78240000D02*
X107134819Y-78001905D01*
X107134819Y-79525714D02*
X107134819Y-78954286D01*
X107134819Y-79240000D02*
X106134819Y-79240000D01*
X106134819Y-79240000D02*
X106277676Y-79144762D01*
X106277676Y-79144762D02*
X106372914Y-79049524D01*
X106372914Y-79049524D02*
X106420533Y-78954286D01*
M02*
