M48
; DRILL file {KiCad 7.0.8} date Sun Oct  8 00:11:53 2023
; FORMAT={-:-/ absolute / inch / decimal}
; #@! TF.CreationDate,2023-10-08T00:11:53-07:00
; #@! TF.GenerationSoftware,Kicad,Pcbnew,7.0.8
; #@! TF.FileFunction,MixedPlating,1,2
FMAT,2
INCH
; #@! TA.AperFunction,Plated,PTH,ComponentDrill
T1C0.0315
; #@! TA.AperFunction,Plated,PTH,ComponentDrill
T2C0.0354
; #@! TA.AperFunction,NonPlated,NPTH,ComponentDrill
T3C0.0984
%
G90
G05
T1
X5.0638Y-2.8
X5.0638Y-4.3
X5.1425Y-2.8
X5.1425Y-4.3
X5.2213Y-2.8
X5.2213Y-4.3
X5.3Y-2.8
X5.3Y-4.3
X5.3787Y-2.8
X5.3787Y-4.3
X5.4575Y-2.8
X5.4575Y-4.3
X5.5362Y-2.8
X5.5362Y-4.3
X5.615Y-2.8
X5.615Y-4.3
X6.8Y-3.5
X6.8Y-3.5787
X6.8Y-3.6575
X6.8Y-3.7362
T2
X4.4Y-3.0
X4.4Y-3.1
X4.4Y-3.3
X4.4Y-3.4
X4.4Y-3.7
X4.4Y-3.8
X4.4Y-4.0
X4.4Y-4.1
X4.7Y-3.0
X4.7Y-3.1
X4.7Y-3.3
X4.7Y-3.4
X4.7Y-3.7
X4.7Y-3.8
X4.7Y-4.0
X4.7Y-4.1
X5.0Y-3.0
X5.0Y-3.1
X5.0Y-3.3
X5.0Y-3.4
X5.0Y-3.7
X5.0Y-3.8
X5.0Y-4.0
X5.0Y-4.1
X5.3Y-3.0
X5.3Y-3.1
X5.3Y-3.3
X5.3Y-3.4
X5.3Y-3.7
X5.3Y-3.8
X5.3Y-4.0
X5.3Y-4.1
X5.6Y-3.0
X5.6Y-3.1
X5.6Y-3.3
X5.6Y-3.4
X5.6Y-3.7
X5.6Y-3.8
X5.6Y-4.0
X5.6Y-4.1
X5.9Y-3.0
X5.9Y-3.1
X5.9Y-3.3
X5.9Y-3.4
X5.9Y-3.7
X5.9Y-3.8
X5.9Y-4.0
X5.9Y-4.1
X6.2Y-3.0
X6.2Y-3.1
X6.2Y-3.3
X6.2Y-3.4
X6.2Y-3.7
X6.2Y-3.8
X6.2Y-4.0
X6.2Y-4.1
X6.5Y-3.0
X6.5Y-3.1
X6.5Y-3.3
X6.5Y-3.4
X6.5Y-3.7
X6.5Y-3.8
X6.5Y-4.0
X6.5Y-4.1
T3
X4.2Y-2.8
X6.8Y-4.3
T0
M30
