%TF.GenerationSoftware,KiCad,Pcbnew,7.0.8*%
%TF.CreationDate,2023-10-15T17:50:00-07:00*%
%TF.ProjectId,htpm_control_additional_info,6874706d-5f63-46f6-9e74-726f6c5f6164,1*%
%TF.SameCoordinates,Original*%
%TF.FileFunction,Copper,L1,Top*%
%TF.FilePolarity,Positive*%
%FSLAX46Y46*%
G04 Gerber Fmt 4.6, Leading zero omitted, Abs format (unit mm)*
G04 Created by KiCad (PCBNEW 7.0.8) date 2023-10-15 17:50:00*
%MOMM*%
%LPD*%
G01*
G04 APERTURE LIST*
%TA.AperFunction,ComponentPad*%
%ADD10R,1.350000X1.350000*%
%TD*%
%TA.AperFunction,ComponentPad*%
%ADD11O,1.350000X1.350000*%
%TD*%
%TA.AperFunction,ComponentPad*%
%ADD12R,1.800000X1.800000*%
%TD*%
%TA.AperFunction,ComponentPad*%
%ADD13C,1.800000*%
%TD*%
%TA.AperFunction,ComponentPad*%
%ADD14C,1.400000*%
%TD*%
%TA.AperFunction,ComponentPad*%
%ADD15O,1.400000X1.400000*%
%TD*%
%TA.AperFunction,ComponentPad*%
%ADD16R,1.200000X1.200000*%
%TD*%
%TA.AperFunction,ComponentPad*%
%ADD17C,1.200000*%
%TD*%
%TA.AperFunction,ComponentPad*%
%ADD18R,1.600000X1.600000*%
%TD*%
%TA.AperFunction,ComponentPad*%
%ADD19O,1.600000X1.600000*%
%TD*%
%TA.AperFunction,ComponentPad*%
%ADD20R,2.000000X1.905000*%
%TD*%
%TA.AperFunction,ComponentPad*%
%ADD21O,2.000000X1.905000*%
%TD*%
%TA.AperFunction,ViaPad*%
%ADD22C,0.800000*%
%TD*%
%TA.AperFunction,Conductor*%
%ADD23C,0.250000*%
%TD*%
G04 APERTURE END LIST*
D10*
%TO.P,J3,1,Pin_1*%
%TO.N,Net-(J3-Pin_1)*%
X96012000Y-71628000D03*
D11*
%TO.P,J3,2,Pin_2*%
%TO.N,Net-(J3-Pin_2)*%
X96012000Y-73628000D03*
%TO.P,J3,3,Pin_3*%
%TO.N,Net-(J3-Pin_3)*%
X96012000Y-75628000D03*
%TO.P,J3,4,Pin_4*%
%TO.N,Net-(J3-Pin_4)*%
X96012000Y-77628000D03*
%TD*%
D12*
%TO.P,D2,1,K*%
%TO.N,GND*%
X134112000Y-62987000D03*
D13*
%TO.P,D2,2,A*%
%TO.N,Net-(D2-A)*%
X134112000Y-65527000D03*
%TD*%
D12*
%TO.P,D13,1,K*%
%TO.N,GND*%
X187452000Y-94488000D03*
D13*
%TO.P,D13,2,A*%
%TO.N,Net-(D13-A)*%
X187452000Y-97028000D03*
%TD*%
D14*
%TO.P,R22,1*%
%TO.N,Net-(J1-Pin_1)*%
X122428000Y-106680000D03*
D15*
%TO.P,R22,2*%
%TO.N,Net-(U7-ISET)*%
X114808000Y-106680000D03*
%TD*%
D12*
%TO.P,D17,1,K*%
%TO.N,GND*%
X156972000Y-94488000D03*
D13*
%TO.P,D17,2,A*%
%TO.N,Net-(D17-A)*%
X156972000Y-97028000D03*
%TD*%
D12*
%TO.P,D18,1,K*%
%TO.N,GND*%
X149352000Y-94488000D03*
D13*
%TO.P,D18,2,A*%
%TO.N,Net-(D18-A)*%
X149352000Y-97028000D03*
%TD*%
D14*
%TO.P,R8,1*%
%TO.N,Net-(U3-QD)*%
X159004000Y-110236000D03*
D15*
%TO.P,R8,2*%
%TO.N,Net-(D8-A)*%
X159004000Y-102616000D03*
%TD*%
D16*
%TO.P,C4,1*%
%TO.N,Net-(J1-Pin_1)*%
X187994000Y-53594000D03*
D17*
%TO.P,C4,2*%
%TO.N,GND*%
X187994000Y-55594000D03*
%TD*%
D14*
%TO.P,R13,1*%
%TO.N,Net-(U2-QA)*%
X189230000Y-110236000D03*
D15*
%TO.P,R13,2*%
%TO.N,Net-(D13-A)*%
X189230000Y-102616000D03*
%TD*%
D18*
%TO.P,U3,1,QB*%
%TO.N,Net-(U3-QB)*%
X166634000Y-114310000D03*
D19*
%TO.P,U3,2,QC*%
%TO.N,Net-(U3-QC)*%
X164094000Y-114310000D03*
%TO.P,U3,3,QD*%
%TO.N,Net-(U3-QD)*%
X161554000Y-114310000D03*
%TO.P,U3,4,QE*%
%TO.N,Net-(U3-QE)*%
X159014000Y-114310000D03*
%TO.P,U3,5,QF*%
%TO.N,Net-(U3-QF)*%
X156474000Y-114310000D03*
%TO.P,U3,6,QG*%
%TO.N,Net-(U3-QG)*%
X153934000Y-114310000D03*
%TO.P,U3,7,QH*%
%TO.N,Net-(U3-QH)*%
X151394000Y-114310000D03*
%TO.P,U3,8,GND*%
%TO.N,GND*%
X148854000Y-114310000D03*
%TO.P,U3,9,QH'*%
%TO.N,Net-(U3-QH')*%
X148854000Y-121930000D03*
%TO.P,U3,10,~{SRCLR}*%
%TO.N,Net-(J1-Pin_1)*%
X151394000Y-121930000D03*
%TO.P,U3,11,SRCLK*%
%TO.N,Net-(J8-Pin_1)*%
X153934000Y-121930000D03*
%TO.P,U3,12,RCLK*%
%TO.N,Net-(J8-Pin_2)*%
X156474000Y-121930000D03*
%TO.P,U3,13,~{OE}*%
%TO.N,GND*%
X159014000Y-121930000D03*
%TO.P,U3,14,SER*%
%TO.N,Net-(U2-QH')*%
X161554000Y-121930000D03*
%TO.P,U3,15,QA*%
%TO.N,Net-(U3-QA)*%
X164094000Y-121930000D03*
%TO.P,U3,16,VCC*%
%TO.N,Net-(J1-Pin_1)*%
X166634000Y-121930000D03*
%TD*%
D12*
%TO.P,D19,1,K*%
%TO.N,GND*%
X141732000Y-94488000D03*
D13*
%TO.P,D19,2,A*%
%TO.N,Net-(D19-A)*%
X141732000Y-97028000D03*
%TD*%
D12*
%TO.P,D20,1,K*%
%TO.N,GND*%
X134112000Y-94488000D03*
D13*
%TO.P,D20,2,A*%
%TO.N,Net-(D20-A)*%
X134112000Y-97028000D03*
%TD*%
D12*
%TO.P,D3,1,K*%
%TO.N,GND*%
X134112000Y-70607000D03*
D13*
%TO.P,D3,2,A*%
%TO.N,Net-(D3-A)*%
X134112000Y-73147000D03*
%TD*%
D18*
%TO.P,U2,1,QB*%
%TO.N,Net-(U2-QB)*%
X189240000Y-114310000D03*
D19*
%TO.P,U2,2,QC*%
%TO.N,Net-(U2-QC)*%
X186700000Y-114310000D03*
%TO.P,U2,3,QD*%
%TO.N,Net-(U2-QD)*%
X184160000Y-114310000D03*
%TO.P,U2,4,QE*%
%TO.N,Net-(U2-QE)*%
X181620000Y-114310000D03*
%TO.P,U2,5,QF*%
%TO.N,Net-(U2-QF)*%
X179080000Y-114310000D03*
%TO.P,U2,6,QG*%
%TO.N,Net-(U2-QG)*%
X176540000Y-114310000D03*
%TO.P,U2,7,QH*%
%TO.N,Net-(U2-QH)*%
X174000000Y-114310000D03*
%TO.P,U2,8,GND*%
%TO.N,GND*%
X171460000Y-114310000D03*
%TO.P,U2,9,QH'*%
%TO.N,Net-(U2-QH')*%
X171460000Y-121930000D03*
%TO.P,U2,10,~{SRCLR}*%
%TO.N,Net-(J1-Pin_1)*%
X174000000Y-121930000D03*
%TO.P,U2,11,SRCLK*%
%TO.N,Net-(J8-Pin_1)*%
X176540000Y-121930000D03*
%TO.P,U2,12,RCLK*%
%TO.N,Net-(J8-Pin_2)*%
X179080000Y-121930000D03*
%TO.P,U2,13,~{OE}*%
%TO.N,GND*%
X181620000Y-121930000D03*
%TO.P,U2,14,SER*%
%TO.N,Net-(J8-Pin_3)*%
X184160000Y-121930000D03*
%TO.P,U2,15,QA*%
%TO.N,Net-(U2-QA)*%
X186700000Y-121930000D03*
%TO.P,U2,16,VCC*%
%TO.N,Net-(J1-Pin_1)*%
X189240000Y-121930000D03*
%TD*%
D12*
%TO.P,D12,1,K*%
%TO.N,GND*%
X134112000Y-89408000D03*
D13*
%TO.P,D12,2,A*%
%TO.N,Net-(D12-A)*%
X134112000Y-86868000D03*
%TD*%
D14*
%TO.P,R1,1*%
%TO.N,Net-(U5-QA)*%
X163576000Y-57912000D03*
D15*
%TO.P,R1,2*%
%TO.N,Net-(D1-A)*%
X155956000Y-57912000D03*
%TD*%
D10*
%TO.P,J1,1,Pin_1*%
%TO.N,Net-(J1-Pin_1)*%
X119922000Y-128270000D03*
D11*
%TO.P,J1,2,Pin_2*%
%TO.N,GND*%
X121922000Y-128270000D03*
%TO.P,J1,3,Pin_3*%
%TO.N,Net-(J1-Pin_3)*%
X123922000Y-128270000D03*
%TO.P,J1,4,Pin_4*%
%TO.N,Net-(J1-Pin_4)*%
X125922000Y-128270000D03*
%TO.P,J1,5,Pin_5*%
%TO.N,Net-(J1-Pin_5)*%
X127922000Y-128270000D03*
%TO.P,J1,6,Pin_6*%
%TO.N,Net-(J1-Pin_6)*%
X129922000Y-128270000D03*
%TO.P,J1,7,Pin_7*%
%TO.N,Net-(J1-Pin_7)*%
X131922000Y-128270000D03*
%TO.P,J1,8,Pin_8*%
%TO.N,Net-(J1-Pin_8)*%
X133922000Y-128270000D03*
%TO.P,J1,9,Pin_9*%
%TO.N,Net-(J1-Pin_9)*%
X135922000Y-128270000D03*
%TO.P,J1,10,Pin_10*%
%TO.N,Net-(J1-Pin_10)*%
X137922000Y-128270000D03*
%TD*%
D14*
%TO.P,R12,1*%
%TO.N,Net-(U3-QH)*%
X148844000Y-110236000D03*
D15*
%TO.P,R12,2*%
%TO.N,Net-(D12-A)*%
X148844000Y-102616000D03*
%TD*%
D16*
%TO.P,C1,1*%
%TO.N,Net-(J1-Pin_1)*%
X189240000Y-127010000D03*
D17*
%TO.P,C1,2*%
%TO.N,GND*%
X187240000Y-127010000D03*
%TD*%
D14*
%TO.P,R21,1*%
%TO.N,Net-(J1-Pin_1)*%
X119380000Y-67056000D03*
D15*
%TO.P,R21,2*%
%TO.N,Net-(U6-ISET)*%
X127000000Y-67056000D03*
%TD*%
D20*
%TO.P,U1,1,IN*%
%TO.N,Net-(J8-Pin_4)*%
X114386000Y-120142000D03*
D21*
%TO.P,U1,2,GND*%
%TO.N,GND*%
X114386000Y-117602000D03*
%TO.P,U1,3,OUT*%
%TO.N,Net-(J1-Pin_1)*%
X114386000Y-115062000D03*
%TD*%
D14*
%TO.P,R10,1*%
%TO.N,Net-(U3-QF)*%
X153924000Y-110236000D03*
D15*
%TO.P,R10,2*%
%TO.N,Net-(D10-A)*%
X153924000Y-102616000D03*
%TD*%
D16*
%TO.P,C2,1*%
%TO.N,Net-(J1-Pin_1)*%
X166634000Y-127010000D03*
D17*
%TO.P,C2,2*%
%TO.N,GND*%
X164634000Y-127010000D03*
%TD*%
D10*
%TO.P,J2,1,Pin_1*%
%TO.N,Net-(J2-Pin_1)*%
X96012000Y-61468000D03*
D11*
%TO.P,J2,2,Pin_2*%
%TO.N,Net-(J2-Pin_2)*%
X96012000Y-63468000D03*
%TO.P,J2,3,Pin_3*%
%TO.N,Net-(J2-Pin_3)*%
X96012000Y-65468000D03*
%TO.P,J2,4,Pin_4*%
%TO.N,Net-(J2-Pin_4)*%
X96012000Y-67468000D03*
%TD*%
D14*
%TO.P,R11,1*%
%TO.N,Net-(U3-QG)*%
X151384000Y-110236000D03*
D15*
%TO.P,R11,2*%
%TO.N,Net-(D11-A)*%
X151384000Y-102616000D03*
%TD*%
D14*
%TO.P,R17,1*%
%TO.N,Net-(U2-QE)*%
X179070000Y-110236000D03*
D15*
%TO.P,R17,2*%
%TO.N,Net-(D17-A)*%
X179070000Y-102616000D03*
%TD*%
D12*
%TO.P,D10,1,K*%
%TO.N,GND*%
X149352000Y-89408000D03*
D13*
%TO.P,D10,2,A*%
%TO.N,Net-(D10-A)*%
X149352000Y-86868000D03*
%TD*%
D16*
%TO.P,C6,1*%
%TO.N,Net-(J1-Pin_1)*%
X115359401Y-91186000D03*
D17*
%TO.P,C6,2*%
%TO.N,GND*%
X117359401Y-91186000D03*
%TD*%
D12*
%TO.P,D8,1,K*%
%TO.N,GND*%
X164592000Y-89408000D03*
D13*
%TO.P,D8,2,A*%
%TO.N,Net-(D8-A)*%
X164592000Y-86868000D03*
%TD*%
D14*
%TO.P,R5,1*%
%TO.N,Net-(U3-QA)*%
X166624000Y-110236000D03*
D15*
%TO.P,R5,2*%
%TO.N,Net-(D5-A)*%
X166624000Y-102616000D03*
%TD*%
D12*
%TO.P,D7,1,K*%
%TO.N,GND*%
X172212000Y-89408000D03*
D13*
%TO.P,D7,2,A*%
%TO.N,Net-(D7-A)*%
X172212000Y-86868000D03*
%TD*%
D12*
%TO.P,D16,1,K*%
%TO.N,GND*%
X164592000Y-94488000D03*
D13*
%TO.P,D16,2,A*%
%TO.N,Net-(D16-A)*%
X164592000Y-97028000D03*
%TD*%
D14*
%TO.P,R7,1*%
%TO.N,Net-(U3-QC)*%
X161544000Y-110236000D03*
D15*
%TO.P,R7,2*%
%TO.N,Net-(D7-A)*%
X161544000Y-102616000D03*
%TD*%
D18*
%TO.P,U5,1,QB*%
%TO.N,Net-(U5-QB)*%
X175294000Y-53594000D03*
D19*
%TO.P,U5,2,QC*%
%TO.N,Net-(U5-QC)*%
X175294000Y-56134000D03*
%TO.P,U5,3,QD*%
%TO.N,Net-(U5-QD)*%
X175294000Y-58674000D03*
%TO.P,U5,4,QE*%
%TO.N,unconnected-(U5-QE-Pad4)*%
X175294000Y-61214000D03*
%TO.P,U5,5,QF*%
%TO.N,unconnected-(U5-QF-Pad5)*%
X175294000Y-63754000D03*
%TO.P,U5,6,QG*%
%TO.N,unconnected-(U5-QG-Pad6)*%
X175294000Y-66294000D03*
%TO.P,U5,7,QH*%
%TO.N,unconnected-(U5-QH-Pad7)*%
X175294000Y-68834000D03*
%TO.P,U5,8,GND*%
%TO.N,GND*%
X175294000Y-71374000D03*
%TO.P,U5,9,QH'*%
%TO.N,unconnected-(U5-QH'-Pad9)*%
X182914000Y-71374000D03*
%TO.P,U5,10,~{SRCLR}*%
%TO.N,Net-(J1-Pin_1)*%
X182914000Y-68834000D03*
%TO.P,U5,11,SRCLK*%
%TO.N,Net-(J8-Pin_1)*%
X182914000Y-66294000D03*
%TO.P,U5,12,RCLK*%
%TO.N,Net-(J8-Pin_2)*%
X182914000Y-63754000D03*
%TO.P,U5,13,~{OE}*%
%TO.N,GND*%
X182914000Y-61214000D03*
%TO.P,U5,14,SER*%
%TO.N,Net-(U4-QH')*%
X182914000Y-58674000D03*
%TO.P,U5,15,QA*%
%TO.N,Net-(U5-QA)*%
X182914000Y-56134000D03*
%TO.P,U5,16,VCC*%
%TO.N,Net-(J1-Pin_1)*%
X182914000Y-53594000D03*
%TD*%
D12*
%TO.P,D14,1,K*%
%TO.N,GND*%
X179832000Y-94488000D03*
D13*
%TO.P,D14,2,A*%
%TO.N,Net-(D14-A)*%
X179832000Y-97028000D03*
%TD*%
D18*
%TO.P,U7,1,DIN*%
%TO.N,Net-(U6-DOUT)*%
X127762000Y-95758000D03*
D19*
%TO.P,U7,2,DIG_0*%
%TO.N,Net-(J6-Pin_1)*%
X125222000Y-95758000D03*
%TO.P,U7,3,DIG_4*%
%TO.N,Net-(J7-Pin_1)*%
X122682000Y-95758000D03*
%TO.P,U7,4,GND*%
%TO.N,GND*%
X120142000Y-95758000D03*
%TO.P,U7,5,DIG_6*%
%TO.N,Net-(J7-Pin_3)*%
X117602000Y-95758000D03*
%TO.P,U7,6,DIG_2*%
%TO.N,Net-(J6-Pin_3)*%
X115062000Y-95758000D03*
%TO.P,U7,7,DIG_3*%
%TO.N,Net-(J6-Pin_4)*%
X112522000Y-95758000D03*
%TO.P,U7,8,DIG_7*%
%TO.N,Net-(J7-Pin_4)*%
X109982000Y-95758000D03*
%TO.P,U7,9,GND*%
%TO.N,GND*%
X107442000Y-95758000D03*
%TO.P,U7,10,DIG_5*%
%TO.N,Net-(J7-Pin_2)*%
X104902000Y-95758000D03*
%TO.P,U7,11,DIG_1*%
%TO.N,Net-(J6-Pin_2)*%
X102362000Y-95758000D03*
%TO.P,U7,12,LOAD*%
%TO.N,Net-(J8-Pin_6)*%
X99822000Y-95758000D03*
%TO.P,U7,13,CLK*%
%TO.N,Net-(J8-Pin_7)*%
X99822000Y-103378000D03*
%TO.P,U7,14,SEG_A*%
%TO.N,Net-(J5-Pin_2)*%
X102362000Y-103378000D03*
%TO.P,U7,15,SEG_F*%
%TO.N,Net-(J5-Pin_7)*%
X104902000Y-103378000D03*
%TO.P,U7,16,SEG_B*%
%TO.N,Net-(J5-Pin_3)*%
X107442000Y-103378000D03*
%TO.P,U7,17,SEG_G*%
%TO.N,Net-(J5-Pin_8)*%
X109982000Y-103378000D03*
%TO.P,U7,18,ISET*%
%TO.N,Net-(U7-ISET)*%
X112522000Y-103378000D03*
%TO.P,U7,19,V+*%
%TO.N,Net-(J1-Pin_1)*%
X115062000Y-103378000D03*
%TO.P,U7,20,SEG_C*%
%TO.N,Net-(J5-Pin_4)*%
X117602000Y-103378000D03*
%TO.P,U7,21,SEG_E*%
%TO.N,Net-(J5-Pin_6)*%
X120142000Y-103378000D03*
%TO.P,U7,22,SEG_DP*%
%TO.N,Net-(J5-Pin_1)*%
X122682000Y-103378000D03*
%TO.P,U7,23,SEG_D*%
%TO.N,Net-(J5-Pin_5)*%
X125222000Y-103378000D03*
%TO.P,U7,24,DOUT*%
%TO.N,unconnected-(U7-DOUT-Pad24)*%
X127762000Y-103378000D03*
%TD*%
D14*
%TO.P,R18,1*%
%TO.N,Net-(U2-QF)*%
X176530000Y-110236000D03*
D15*
%TO.P,R18,2*%
%TO.N,Net-(D18-A)*%
X176530000Y-102616000D03*
%TD*%
D12*
%TO.P,D6,1,K*%
%TO.N,GND*%
X179832000Y-89408000D03*
D13*
%TO.P,D6,2,A*%
%TO.N,Net-(D6-A)*%
X179832000Y-86868000D03*
%TD*%
D14*
%TO.P,R2,1*%
%TO.N,Net-(U5-QB)*%
X163576000Y-60452000D03*
D15*
%TO.P,R2,2*%
%TO.N,Net-(D2-A)*%
X155956000Y-60452000D03*
%TD*%
D10*
%TO.P,J5,1,Pin_1*%
%TO.N,Net-(J5-Pin_1)*%
X96012000Y-107458000D03*
D11*
%TO.P,J5,2,Pin_2*%
%TO.N,Net-(J5-Pin_2)*%
X98012000Y-107458000D03*
%TO.P,J5,3,Pin_3*%
%TO.N,Net-(J5-Pin_3)*%
X100012000Y-107458000D03*
%TO.P,J5,4,Pin_4*%
%TO.N,Net-(J5-Pin_4)*%
X102012000Y-107458000D03*
%TO.P,J5,5,Pin_5*%
%TO.N,Net-(J5-Pin_5)*%
X104012000Y-107458000D03*
%TO.P,J5,6,Pin_6*%
%TO.N,Net-(J5-Pin_6)*%
X106012000Y-107458000D03*
%TO.P,J5,7,Pin_7*%
%TO.N,Net-(J5-Pin_7)*%
X108012000Y-107458000D03*
%TO.P,J5,8,Pin_8*%
%TO.N,Net-(J5-Pin_8)*%
X110012000Y-107458000D03*
%TD*%
D18*
%TO.P,U4,1,QB*%
%TO.N,Net-(J1-Pin_4)*%
X124714000Y-121920000D03*
D19*
%TO.P,U4,2,QC*%
%TO.N,Net-(J1-Pin_5)*%
X127254000Y-121920000D03*
%TO.P,U4,3,QD*%
%TO.N,Net-(J1-Pin_6)*%
X129794000Y-121920000D03*
%TO.P,U4,4,QE*%
%TO.N,Net-(J1-Pin_7)*%
X132334000Y-121920000D03*
%TO.P,U4,5,QF*%
%TO.N,Net-(J1-Pin_8)*%
X134874000Y-121920000D03*
%TO.P,U4,6,QG*%
%TO.N,Net-(J1-Pin_9)*%
X137414000Y-121920000D03*
%TO.P,U4,7,QH*%
%TO.N,Net-(J1-Pin_10)*%
X139954000Y-121920000D03*
%TO.P,U4,8,GND*%
%TO.N,GND*%
X142494000Y-121920000D03*
%TO.P,U4,9,QH'*%
%TO.N,Net-(U4-QH')*%
X142494000Y-114300000D03*
%TO.P,U4,10,~{SRCLR}*%
%TO.N,Net-(J1-Pin_1)*%
X139954000Y-114300000D03*
%TO.P,U4,11,SRCLK*%
%TO.N,Net-(J8-Pin_1)*%
X137414000Y-114300000D03*
%TO.P,U4,12,RCLK*%
%TO.N,Net-(J8-Pin_2)*%
X134874000Y-114300000D03*
%TO.P,U4,13,~{OE}*%
%TO.N,GND*%
X132334000Y-114300000D03*
%TO.P,U4,14,SER*%
%TO.N,Net-(U3-QH')*%
X129794000Y-114300000D03*
%TO.P,U4,15,QA*%
%TO.N,Net-(J1-Pin_3)*%
X127254000Y-114300000D03*
%TO.P,U4,16,VCC*%
%TO.N,Net-(J1-Pin_1)*%
X124714000Y-114300000D03*
%TD*%
D16*
%TO.P,C5,1*%
%TO.N,Net-(J1-Pin_1)*%
X116078000Y-64516000D03*
D17*
%TO.P,C5,2*%
%TO.N,GND*%
X114078000Y-64516000D03*
%TD*%
D10*
%TO.P,J9,1,Pin_1*%
%TO.N,Net-(J8-Pin_9)*%
X96552000Y-51308000D03*
D11*
%TO.P,J9,2,Pin_2*%
%TO.N,Net-(J8-Pin_8)*%
X98552000Y-51308000D03*
%TO.P,J9,3,Pin_3*%
%TO.N,Net-(J8-Pin_7)*%
X100552000Y-51308000D03*
%TO.P,J9,4,Pin_4*%
%TO.N,Net-(J1-Pin_1)*%
X102552000Y-51308000D03*
%TO.P,J9,5,Pin_5*%
%TO.N,GND*%
X104552000Y-51308000D03*
%TD*%
D14*
%TO.P,R15,1*%
%TO.N,Net-(U2-QC)*%
X184150000Y-110236000D03*
D15*
%TO.P,R15,2*%
%TO.N,Net-(D15-A)*%
X184150000Y-102616000D03*
%TD*%
D14*
%TO.P,R16,1*%
%TO.N,Net-(U2-QD)*%
X181610000Y-110236000D03*
D15*
%TO.P,R16,2*%
%TO.N,Net-(D16-A)*%
X181610000Y-102616000D03*
%TD*%
D10*
%TO.P,J7,1,Pin_1*%
%TO.N,Net-(J7-Pin_1)*%
X96012000Y-97298000D03*
D11*
%TO.P,J7,2,Pin_2*%
%TO.N,Net-(J7-Pin_2)*%
X96012000Y-99298000D03*
%TO.P,J7,3,Pin_3*%
%TO.N,Net-(J7-Pin_3)*%
X96012000Y-101298000D03*
%TO.P,J7,4,Pin_4*%
%TO.N,Net-(J7-Pin_4)*%
X96012000Y-103298000D03*
%TD*%
D10*
%TO.P,J4,1,Pin_1*%
%TO.N,Net-(J4-Pin_1)*%
X96012000Y-81788000D03*
D11*
%TO.P,J4,2,Pin_2*%
%TO.N,Net-(J4-Pin_2)*%
X98012000Y-81788000D03*
%TO.P,J4,3,Pin_3*%
%TO.N,Net-(J4-Pin_3)*%
X100012000Y-81788000D03*
%TO.P,J4,4,Pin_4*%
%TO.N,Net-(J4-Pin_4)*%
X102012000Y-81788000D03*
%TO.P,J4,5,Pin_5*%
%TO.N,Net-(J4-Pin_5)*%
X104012000Y-81788000D03*
%TO.P,J4,6,Pin_6*%
%TO.N,Net-(J4-Pin_6)*%
X106012000Y-81788000D03*
%TO.P,J4,7,Pin_7*%
%TO.N,Net-(J4-Pin_7)*%
X108012000Y-81788000D03*
%TO.P,J4,8,Pin_8*%
%TO.N,Net-(J4-Pin_8)*%
X110012000Y-81788000D03*
%TD*%
%TO.P,J8,9,Pin_9*%
%TO.N,Net-(J8-Pin_9)*%
X96044000Y-128270000D03*
%TO.P,J8,8,Pin_8*%
%TO.N,Net-(J8-Pin_8)*%
X98044000Y-128270000D03*
%TO.P,J8,7,Pin_7*%
%TO.N,Net-(J8-Pin_7)*%
X100044000Y-128270000D03*
%TO.P,J8,6,Pin_6*%
%TO.N,Net-(J8-Pin_6)*%
X102044000Y-128270000D03*
%TO.P,J8,5,Pin_5*%
%TO.N,GND*%
X104044000Y-128270000D03*
%TO.P,J8,4,Pin_4*%
%TO.N,Net-(J8-Pin_4)*%
X106044000Y-128270000D03*
%TO.P,J8,3,Pin_3*%
%TO.N,Net-(J8-Pin_3)*%
X108044000Y-128270000D03*
%TO.P,J8,2,Pin_2*%
%TO.N,Net-(J8-Pin_2)*%
X110044000Y-128270000D03*
D10*
%TO.P,J8,1,Pin_1*%
%TO.N,Net-(J8-Pin_1)*%
X112044000Y-128270000D03*
%TD*%
D12*
%TO.P,D4,1,K*%
%TO.N,GND*%
X134112000Y-78227000D03*
D13*
%TO.P,D4,2,A*%
%TO.N,Net-(D4-A)*%
X134112000Y-80767000D03*
%TD*%
D12*
%TO.P,D15,1,K*%
%TO.N,GND*%
X172212000Y-94488000D03*
D13*
%TO.P,D15,2,A*%
%TO.N,Net-(D15-A)*%
X172212000Y-97028000D03*
%TD*%
D14*
%TO.P,R3,1*%
%TO.N,Net-(U5-QC)*%
X163576000Y-62992000D03*
D15*
%TO.P,R3,2*%
%TO.N,Net-(D3-A)*%
X155956000Y-62992000D03*
%TD*%
D12*
%TO.P,D1,1,K*%
%TO.N,GND*%
X134112000Y-55367000D03*
D13*
%TO.P,D1,2,A*%
%TO.N,Net-(D1-A)*%
X134112000Y-57907000D03*
%TD*%
D14*
%TO.P,R6,1*%
%TO.N,Net-(U3-QB)*%
X164084000Y-110236000D03*
D15*
%TO.P,R6,2*%
%TO.N,Net-(D6-A)*%
X164084000Y-102616000D03*
%TD*%
D14*
%TO.P,R20,1*%
%TO.N,Net-(U2-QH)*%
X171450000Y-110236000D03*
D15*
%TO.P,R20,2*%
%TO.N,Net-(D20-A)*%
X171450000Y-102616000D03*
%TD*%
D14*
%TO.P,R19,1*%
%TO.N,Net-(U2-QG)*%
X173990000Y-110236000D03*
D15*
%TO.P,R19,2*%
%TO.N,Net-(D19-A)*%
X173990000Y-102616000D03*
%TD*%
D12*
%TO.P,D5,1,K*%
%TO.N,GND*%
X187452000Y-89408000D03*
D13*
%TO.P,D5,2,A*%
%TO.N,Net-(D5-A)*%
X187452000Y-86868000D03*
%TD*%
D10*
%TO.P,J6,1,Pin_1*%
%TO.N,Net-(J6-Pin_1)*%
X96012000Y-87138000D03*
D11*
%TO.P,J6,2,Pin_2*%
%TO.N,Net-(J6-Pin_2)*%
X96012000Y-89138000D03*
%TO.P,J6,3,Pin_3*%
%TO.N,Net-(J6-Pin_3)*%
X96012000Y-91138000D03*
%TO.P,J6,4,Pin_4*%
%TO.N,Net-(J6-Pin_4)*%
X96012000Y-93138000D03*
%TD*%
D16*
%TO.P,C3,1*%
%TO.N,Net-(J1-Pin_1)*%
X124724000Y-109230000D03*
D17*
%TO.P,C3,2*%
%TO.N,GND*%
X126724000Y-109230000D03*
%TD*%
D14*
%TO.P,R4,1*%
%TO.N,Net-(U5-QD)*%
X163576000Y-65532000D03*
D15*
%TO.P,R4,2*%
%TO.N,Net-(D4-A)*%
X155956000Y-65532000D03*
%TD*%
D12*
%TO.P,D9,1,K*%
%TO.N,GND*%
X156972000Y-89408000D03*
D13*
%TO.P,D9,2,A*%
%TO.N,Net-(D9-A)*%
X156972000Y-86868000D03*
%TD*%
D14*
%TO.P,R9,1*%
%TO.N,Net-(U3-QE)*%
X156464000Y-110236000D03*
D15*
%TO.P,R9,2*%
%TO.N,Net-(D9-A)*%
X156464000Y-102616000D03*
%TD*%
D12*
%TO.P,D11,1,K*%
%TO.N,GND*%
X141732000Y-89408000D03*
D13*
%TO.P,D11,2,A*%
%TO.N,Net-(D11-A)*%
X141732000Y-86868000D03*
%TD*%
D18*
%TO.P,U6,1,DIN*%
%TO.N,Net-(J8-Pin_8)*%
X127762000Y-70104000D03*
D19*
%TO.P,U6,2,DIG_0*%
%TO.N,Net-(J2-Pin_1)*%
X125222000Y-70104000D03*
%TO.P,U6,3,DIG_4*%
%TO.N,Net-(J3-Pin_1)*%
X122682000Y-70104000D03*
%TO.P,U6,4,GND*%
%TO.N,GND*%
X120142000Y-70104000D03*
%TO.P,U6,5,DIG_6*%
%TO.N,Net-(J3-Pin_3)*%
X117602000Y-70104000D03*
%TO.P,U6,6,DIG_2*%
%TO.N,Net-(J2-Pin_3)*%
X115062000Y-70104000D03*
%TO.P,U6,7,DIG_3*%
%TO.N,Net-(J2-Pin_4)*%
X112522000Y-70104000D03*
%TO.P,U6,8,DIG_7*%
%TO.N,Net-(J3-Pin_4)*%
X109982000Y-70104000D03*
%TO.P,U6,9,GND*%
%TO.N,GND*%
X107442000Y-70104000D03*
%TO.P,U6,10,DIG_5*%
%TO.N,Net-(J3-Pin_2)*%
X104902000Y-70104000D03*
%TO.P,U6,11,DIG_1*%
%TO.N,Net-(J2-Pin_2)*%
X102362000Y-70104000D03*
%TO.P,U6,12,LOAD*%
%TO.N,Net-(J8-Pin_6)*%
X99822000Y-70104000D03*
%TO.P,U6,13,CLK*%
%TO.N,Net-(J8-Pin_7)*%
X99822000Y-77724000D03*
%TO.P,U6,14,SEG_A*%
%TO.N,Net-(J4-Pin_2)*%
X102362000Y-77724000D03*
%TO.P,U6,15,SEG_F*%
%TO.N,Net-(J4-Pin_7)*%
X104902000Y-77724000D03*
%TO.P,U6,16,SEG_B*%
%TO.N,Net-(J4-Pin_3)*%
X107442000Y-77724000D03*
%TO.P,U6,17,SEG_G*%
%TO.N,Net-(J4-Pin_8)*%
X109982000Y-77724000D03*
%TO.P,U6,18,ISET*%
%TO.N,Net-(U6-ISET)*%
X112522000Y-77724000D03*
%TO.P,U6,19,V+*%
%TO.N,Net-(J1-Pin_1)*%
X115062000Y-77724000D03*
%TO.P,U6,20,SEG_C*%
%TO.N,Net-(J4-Pin_4)*%
X117602000Y-77724000D03*
%TO.P,U6,21,SEG_E*%
%TO.N,Net-(J4-Pin_6)*%
X120142000Y-77724000D03*
%TO.P,U6,22,SEG_DP*%
%TO.N,Net-(J4-Pin_1)*%
X122682000Y-77724000D03*
%TO.P,U6,23,SEG_D*%
%TO.N,Net-(J4-Pin_5)*%
X125222000Y-77724000D03*
%TO.P,U6,24,DOUT*%
%TO.N,Net-(U6-DOUT)*%
X127762000Y-77724000D03*
%TD*%
D14*
%TO.P,R14,1*%
%TO.N,Net-(U2-QB)*%
X186690000Y-110236000D03*
D15*
%TO.P,R14,2*%
%TO.N,Net-(D14-A)*%
X186690000Y-102616000D03*
%TD*%
D22*
%TO.N,Net-(J1-Pin_1)*%
X115062000Y-72390000D03*
X149860000Y-118110000D03*
X112014000Y-88900000D03*
%TO.N,GND*%
X130810000Y-109220000D03*
X106680000Y-58166000D03*
%TO.N,Net-(J3-Pin_2)*%
X104902000Y-72390000D03*
%TO.N,Net-(J3-Pin_3)*%
X117602000Y-74676000D03*
%TO.N,Net-(J3-Pin_4)*%
X107950000Y-72644000D03*
%TO.N,Net-(J4-Pin_1)*%
X118110000Y-85852000D03*
%TO.N,Net-(J7-Pin_1)*%
X116332000Y-99568000D03*
%TO.N,Net-(J8-Pin_1)*%
X137414000Y-117348000D03*
X118618000Y-120650000D03*
X176530000Y-118872000D03*
X153924000Y-118872000D03*
%TO.N,Net-(J8-Pin_2)*%
X134874000Y-117094000D03*
X117602000Y-119634000D03*
X156464000Y-119634000D03*
X179070000Y-119634000D03*
%TO.N,Net-(J8-Pin_3)*%
X185928000Y-124714000D03*
%TO.N,Net-(J8-Pin_6)*%
X104140000Y-92964000D03*
%TO.N,Net-(J8-Pin_7)*%
X101092000Y-111506000D03*
%TO.N,Net-(J8-Pin_8)*%
X105156000Y-123952000D03*
%TO.N,Net-(U3-QA)*%
X169164000Y-116840000D03*
%TO.N,Net-(U6-ISET)*%
X118872000Y-75692000D03*
%TD*%
D23*
%TO.N,Net-(J1-Pin_1)*%
X114386000Y-115062000D02*
X118892000Y-115062000D01*
X118727000Y-100475000D02*
X130193000Y-100475000D01*
X187472000Y-123698000D02*
X175768000Y-123698000D01*
X118727000Y-100475000D02*
X115824000Y-103378000D01*
X182914000Y-53594000D02*
X181356000Y-55152000D01*
X114386000Y-115062000D02*
X119922000Y-120598000D01*
X189240000Y-121930000D02*
X187472000Y-123698000D01*
X178816000Y-72932000D02*
X178816000Y-75692000D01*
X130302000Y-86868000D02*
X130302000Y-100584000D01*
X166634000Y-127010000D02*
X168920000Y-127010000D01*
X115824000Y-103378000D02*
X115062000Y-103378000D01*
X130302000Y-100584000D02*
X130302000Y-103652000D01*
X166634000Y-127010000D02*
X166634000Y-121930000D01*
X182914000Y-68834000D02*
X178816000Y-72932000D01*
X119922000Y-120598000D02*
X119922000Y-128270000D01*
X124724000Y-109230000D02*
X124724000Y-114290000D01*
X124724000Y-109230000D02*
X124724000Y-108976000D01*
X166634000Y-121930000D02*
X164866000Y-123698000D01*
X169926000Y-84582000D02*
X132588000Y-84582000D01*
X143764000Y-118110000D02*
X139954000Y-114300000D01*
X115359401Y-91186000D02*
X115359401Y-91611797D01*
X116840000Y-64516000D02*
X119380000Y-67056000D01*
X175768000Y-123698000D02*
X174000000Y-121930000D01*
X168920000Y-127010000D02*
X174000000Y-121930000D01*
X178816000Y-75692000D02*
X169926000Y-84582000D01*
X130302000Y-103652000D02*
X124724000Y-109230000D01*
X124724000Y-108976000D02*
X122428000Y-106680000D01*
X116078000Y-64516000D02*
X116840000Y-64516000D01*
X112014000Y-87122000D02*
X115062000Y-84074000D01*
X126492000Y-112522000D02*
X138176000Y-112522000D01*
X181356000Y-67276000D02*
X182914000Y-68834000D01*
X115062000Y-84074000D02*
X115062000Y-77724000D01*
X164866000Y-123698000D02*
X153162000Y-123698000D01*
X189240000Y-127010000D02*
X189240000Y-121930000D01*
X115359401Y-91611797D02*
X118727000Y-94979396D01*
X182914000Y-53594000D02*
X187994000Y-53594000D01*
X132588000Y-84582000D02*
X130302000Y-86868000D01*
X124714000Y-114300000D02*
X126492000Y-112522000D01*
X124724000Y-114290000D02*
X124714000Y-114300000D01*
X115062000Y-72390000D02*
X115062000Y-77724000D01*
X181356000Y-55152000D02*
X181356000Y-67276000D01*
X149860000Y-118110000D02*
X143764000Y-118110000D01*
X112014000Y-88900000D02*
X112014000Y-87122000D01*
X118892000Y-115062000D02*
X124724000Y-109230000D01*
X138176000Y-112522000D02*
X139954000Y-114300000D01*
X118727000Y-94979396D02*
X118727000Y-100475000D01*
X130193000Y-100475000D02*
X130302000Y-100584000D01*
X153162000Y-123698000D02*
X151394000Y-121930000D01*
%TO.N,GND*%
X132887000Y-56592000D02*
X132887000Y-61762000D01*
X134112000Y-94488000D02*
X130810000Y-97790000D01*
X105664000Y-58166000D02*
X104552000Y-57054000D01*
X134112000Y-70607000D02*
X132887000Y-71832000D01*
X134112000Y-55367000D02*
X132887000Y-56592000D01*
X187452000Y-94488000D02*
X134112000Y-94488000D01*
X134112000Y-78227000D02*
X129286000Y-83053000D01*
X132887000Y-69382000D02*
X134112000Y-70607000D01*
X187452000Y-89408000D02*
X134112000Y-89408000D01*
X129286000Y-96520000D02*
X128016000Y-97790000D01*
X112939000Y-90261000D02*
X107442000Y-95758000D01*
X119666000Y-70104000D02*
X120142000Y-70104000D01*
X132887000Y-77002000D02*
X134112000Y-78227000D01*
X132887000Y-61762000D02*
X134112000Y-62987000D01*
X130810000Y-97790000D02*
X130810000Y-109220000D01*
X117359401Y-91186000D02*
X117359401Y-92975401D01*
X106680000Y-58166000D02*
X105664000Y-58166000D01*
X187994000Y-56134000D02*
X187994000Y-55594000D01*
X104552000Y-57054000D02*
X104552000Y-51308000D01*
X128016000Y-97790000D02*
X122174000Y-97790000D01*
X114078000Y-64516000D02*
X119666000Y-70104000D01*
X134112000Y-62987000D02*
X132887000Y-64212000D01*
X116434401Y-90261000D02*
X112939000Y-90261000D01*
X132887000Y-64212000D02*
X132887000Y-69382000D01*
X117359401Y-91186000D02*
X116434401Y-90261000D01*
X182914000Y-61214000D02*
X187994000Y-56134000D01*
X117359401Y-92975401D02*
X120142000Y-95758000D01*
X132887000Y-71832000D02*
X132887000Y-77002000D01*
X122174000Y-97790000D02*
X120142000Y-95758000D01*
X129286000Y-83053000D02*
X129286000Y-96520000D01*
X134112000Y-94488000D02*
X134112000Y-89408000D01*
%TO.N,Net-(D1-A)*%
X155956000Y-57912000D02*
X134117000Y-57912000D01*
X134117000Y-57912000D02*
X134112000Y-57907000D01*
%TO.N,Net-(D2-A)*%
X146304000Y-60452000D02*
X141224000Y-65532000D01*
X155956000Y-60452000D02*
X146304000Y-60452000D01*
X141224000Y-65532000D02*
X141219000Y-65527000D01*
X141219000Y-65527000D02*
X134112000Y-65527000D01*
%TO.N,Net-(D3-A)*%
X134117000Y-73152000D02*
X134112000Y-73147000D01*
X151384000Y-62992000D02*
X141224000Y-73152000D01*
X141219000Y-73147000D02*
X134112000Y-73147000D01*
X155956000Y-62992000D02*
X151384000Y-62992000D01*
X141224000Y-73152000D02*
X141219000Y-73147000D01*
%TO.N,Net-(D4-A)*%
X155956000Y-65532000D02*
X140721000Y-80767000D01*
X140721000Y-80767000D02*
X134112000Y-80767000D01*
%TO.N,Net-(D13-A)*%
X189230000Y-102616000D02*
X189230000Y-98806000D01*
X189230000Y-98806000D02*
X187452000Y-97028000D01*
%TO.N,Net-(D14-A)*%
X186690000Y-98552000D02*
X185166000Y-97028000D01*
X185166000Y-97028000D02*
X179832000Y-97028000D01*
X186690000Y-102616000D02*
X186690000Y-98552000D01*
%TO.N,Net-(D15-A)*%
X177546000Y-97028000D02*
X172212000Y-97028000D01*
X179070000Y-98552000D02*
X177546000Y-97028000D01*
X184150000Y-102616000D02*
X180086000Y-98552000D01*
X180086000Y-98552000D02*
X179070000Y-98552000D01*
%TO.N,Net-(D16-A)*%
X169418000Y-97028000D02*
X164592000Y-97028000D01*
X177546000Y-98552000D02*
X170942000Y-98552000D01*
X181610000Y-102616000D02*
X177546000Y-98552000D01*
X170942000Y-98552000D02*
X169418000Y-97028000D01*
%TO.N,Net-(D17-A)*%
X175456000Y-99002000D02*
X163518000Y-99002000D01*
X161544000Y-97028000D02*
X156972000Y-97028000D01*
X179070000Y-102616000D02*
X175456000Y-99002000D01*
X163518000Y-99002000D02*
X161544000Y-97028000D01*
%TO.N,Net-(D18-A)*%
X153924000Y-97028000D02*
X149352000Y-97028000D01*
X156348000Y-99452000D02*
X153924000Y-97028000D01*
X173366000Y-99452000D02*
X156348000Y-99452000D01*
X176530000Y-102616000D02*
X173366000Y-99452000D01*
%TO.N,Net-(D19-A)*%
X173990000Y-102616000D02*
X171276000Y-99902000D01*
X146558000Y-97028000D02*
X141732000Y-97028000D01*
X171276000Y-99902000D02*
X149432000Y-99902000D01*
X149432000Y-99902000D02*
X146558000Y-97028000D01*
%TO.N,Net-(D20-A)*%
X169186000Y-100352000D02*
X142516000Y-100352000D01*
X139192000Y-97028000D02*
X134112000Y-97028000D01*
X142516000Y-100352000D02*
X139192000Y-97028000D01*
X171450000Y-102616000D02*
X169186000Y-100352000D01*
%TO.N,Net-(J1-Pin_3)*%
X127254000Y-114300000D02*
X122936000Y-118618000D01*
X123922000Y-127508000D02*
X123922000Y-128270000D01*
X122936000Y-118618000D02*
X122936000Y-126522000D01*
X122936000Y-126522000D02*
X123922000Y-127508000D01*
%TO.N,Net-(J1-Pin_4)*%
X124714000Y-121920000D02*
X124714000Y-126300000D01*
X125922000Y-127508000D02*
X125922000Y-128270000D01*
X124714000Y-126300000D02*
X125922000Y-127508000D01*
%TO.N,Net-(J1-Pin_5)*%
X127922000Y-127508000D02*
X127922000Y-128270000D01*
X127254000Y-121920000D02*
X127254000Y-126840000D01*
X127254000Y-126840000D02*
X127922000Y-127508000D01*
%TO.N,Net-(J1-Pin_6)*%
X129794000Y-127380000D02*
X129922000Y-127508000D01*
X129922000Y-127508000D02*
X129922000Y-128270000D01*
X129794000Y-121920000D02*
X129794000Y-127380000D01*
%TO.N,Net-(J1-Pin_7)*%
X132334000Y-127096000D02*
X131922000Y-127508000D01*
X132334000Y-121920000D02*
X132334000Y-127096000D01*
X131922000Y-127508000D02*
X131922000Y-128270000D01*
%TO.N,Net-(J1-Pin_8)*%
X133922000Y-127508000D02*
X133922000Y-128270000D01*
X134874000Y-121920000D02*
X134874000Y-126556000D01*
X134874000Y-126556000D02*
X133922000Y-127508000D01*
%TO.N,Net-(J1-Pin_9)*%
X137414000Y-121920000D02*
X137414000Y-126016000D01*
X137414000Y-126016000D02*
X135922000Y-127508000D01*
X135922000Y-127508000D02*
X135922000Y-128270000D01*
%TO.N,Net-(J1-Pin_10)*%
X137922000Y-127508000D02*
X137922000Y-128270000D01*
X139954000Y-125476000D02*
X137922000Y-127508000D01*
X139954000Y-121920000D02*
X139954000Y-125476000D01*
%TO.N,Net-(J2-Pin_1)*%
X116586000Y-61468000D02*
X125222000Y-70104000D01*
X96012000Y-61468000D02*
X116586000Y-61468000D01*
%TO.N,Net-(J2-Pin_3)*%
X110426000Y-65468000D02*
X115062000Y-70104000D01*
X96012000Y-65468000D02*
X110426000Y-65468000D01*
%TO.N,Net-(J2-Pin_4)*%
X109886000Y-67468000D02*
X112522000Y-70104000D01*
X96012000Y-67468000D02*
X109886000Y-67468000D01*
%TO.N,Net-(J3-Pin_2)*%
X103664000Y-73628000D02*
X104902000Y-72390000D01*
X96012000Y-73628000D02*
X103664000Y-73628000D01*
%TO.N,Net-(J3-Pin_3)*%
X117602000Y-74676000D02*
X117602000Y-70104000D01*
%TO.N,Net-(J3-Pin_4)*%
X96012000Y-77628000D02*
X99562000Y-74078000D01*
X106516000Y-74078000D02*
X107950000Y-72644000D01*
X99562000Y-74078000D02*
X106516000Y-74078000D01*
%TO.N,Net-(J4-Pin_1)*%
X122682000Y-84582000D02*
X122682000Y-77724000D01*
X118110000Y-85852000D02*
X121412000Y-85852000D01*
X121412000Y-85852000D02*
X122682000Y-84582000D01*
%TO.N,Net-(J4-Pin_2)*%
X98012000Y-81788000D02*
X102076000Y-77724000D01*
X102076000Y-77724000D02*
X102362000Y-77724000D01*
%TO.N,Net-(J4-Pin_7)*%
X108012000Y-81788000D02*
X104902000Y-78678000D01*
X104902000Y-78678000D02*
X104902000Y-77724000D01*
%TO.N,Net-(J4-Pin_8)*%
X110012000Y-81788000D02*
X110012000Y-77754000D01*
X110012000Y-77754000D02*
X109982000Y-77724000D01*
%TO.N,Net-(J5-Pin_5)*%
X118052000Y-106104396D02*
X119653396Y-104503000D01*
X118052000Y-108136396D02*
X118052000Y-106104396D01*
X117026396Y-109162000D02*
X118052000Y-108136396D01*
X124097000Y-104503000D02*
X125222000Y-103378000D01*
X104012000Y-107458000D02*
X105716000Y-109162000D01*
X105716000Y-109162000D02*
X117026396Y-109162000D01*
X119653396Y-104503000D02*
X124097000Y-104503000D01*
%TO.N,Net-(J5-Pin_6)*%
X117602000Y-105918000D02*
X120142000Y-103378000D01*
X116840000Y-108712000D02*
X117602000Y-107950000D01*
X107266000Y-108712000D02*
X116840000Y-108712000D01*
X117602000Y-107950000D02*
X117602000Y-105918000D01*
X106012000Y-107458000D02*
X107266000Y-108712000D01*
%TO.N,Net-(J5-Pin_7)*%
X108012000Y-107458000D02*
X104902000Y-104348000D01*
X104902000Y-104348000D02*
X104902000Y-103378000D01*
%TO.N,Net-(J5-Pin_8)*%
X109982000Y-103378000D02*
X109982000Y-107428000D01*
X109982000Y-107428000D02*
X110012000Y-107458000D01*
%TO.N,Net-(J6-Pin_2)*%
X96012000Y-89138000D02*
X102362000Y-95488000D01*
X102362000Y-95488000D02*
X102362000Y-95758000D01*
%TO.N,Net-(J7-Pin_1)*%
X114062000Y-97298000D02*
X116332000Y-99568000D01*
X96012000Y-97298000D02*
X114062000Y-97298000D01*
%TO.N,Net-(J7-Pin_3)*%
X117602000Y-100330000D02*
X117602000Y-95758000D01*
X96012000Y-101298000D02*
X96472000Y-100838000D01*
X96472000Y-100838000D02*
X117094000Y-100838000D01*
X117094000Y-100838000D02*
X117602000Y-100330000D01*
%TO.N,Net-(J8-Pin_1)*%
X189484000Y-68072000D02*
X187706000Y-66294000D01*
X187706000Y-66294000D02*
X182914000Y-66294000D01*
X176530000Y-118872000D02*
X187960000Y-118872000D01*
X138938000Y-118872000D02*
X153924000Y-118872000D01*
X118618000Y-120650000D02*
X115570000Y-123698000D01*
X189484000Y-82042000D02*
X189484000Y-68072000D01*
X187960000Y-118872000D02*
X190812000Y-116020000D01*
X115570000Y-123698000D02*
X114046000Y-123698000D01*
X190812000Y-116020000D02*
X190812000Y-83370000D01*
X137414000Y-117348000D02*
X138938000Y-118872000D01*
X137414000Y-114300000D02*
X137414000Y-117348000D01*
X190812000Y-83370000D02*
X189484000Y-82042000D01*
X114046000Y-123698000D02*
X112044000Y-125700000D01*
X112044000Y-125700000D02*
X112044000Y-128270000D01*
X153924000Y-118872000D02*
X176530000Y-118872000D01*
%TO.N,Net-(J8-Pin_2)*%
X134874000Y-117094000D02*
X137414000Y-119634000D01*
X112268000Y-122682000D02*
X110044000Y-124906000D01*
X114554000Y-122682000D02*
X112268000Y-122682000D01*
X187960000Y-63754000D02*
X182914000Y-63754000D01*
X179070000Y-119634000D02*
X187960000Y-119634000D01*
X110044000Y-124906000D02*
X110044000Y-128270000D01*
X191262000Y-116332000D02*
X191262000Y-67056000D01*
X137414000Y-119634000D02*
X156464000Y-119634000D01*
X191262000Y-67056000D02*
X187960000Y-63754000D01*
X134874000Y-114300000D02*
X134874000Y-117094000D01*
X117602000Y-119634000D02*
X114554000Y-122682000D01*
X187960000Y-119634000D02*
X191262000Y-116332000D01*
X156464000Y-119634000D02*
X179070000Y-119634000D01*
%TO.N,Net-(J8-Pin_3)*%
X185928000Y-124714000D02*
X181102000Y-129540000D01*
X181102000Y-129540000D02*
X109314000Y-129540000D01*
X109314000Y-129540000D02*
X108044000Y-128270000D01*
%TO.N,Net-(J8-Pin_6)*%
X108712000Y-71374000D02*
X101092000Y-71374000D01*
X104140000Y-92964000D02*
X105535604Y-92964000D01*
X105535604Y-92964000D02*
X114612000Y-83887604D01*
X114612000Y-83887604D02*
X114612000Y-80264000D01*
X113937000Y-79589000D02*
X113937000Y-76599000D01*
X114612000Y-80264000D02*
X113937000Y-79589000D01*
X101092000Y-71374000D02*
X99822000Y-70104000D01*
X113937000Y-76599000D02*
X108712000Y-71374000D01*
%TO.N,Net-(J8-Pin_7)*%
X94742000Y-81248380D02*
X96234380Y-79756000D01*
X96234380Y-79756000D02*
X97790000Y-79756000D01*
X101092000Y-111506000D02*
X101012000Y-111426000D01*
X95504000Y-105156000D02*
X94742000Y-104394000D01*
X98044000Y-105156000D02*
X95504000Y-105156000D01*
X101012000Y-111426000D02*
X101012000Y-104568000D01*
X101012000Y-104568000D02*
X99822000Y-103378000D01*
X94742000Y-57118000D02*
X100552000Y-51308000D01*
X94742000Y-104394000D02*
X94742000Y-81248380D01*
X99822000Y-103378000D02*
X98044000Y-105156000D01*
X97790000Y-79756000D02*
X99822000Y-77724000D01*
X94742000Y-81248380D02*
X94742000Y-57118000D01*
%TO.N,Net-(J8-Pin_8)*%
X129794000Y-63500000D02*
X129794000Y-68072000D01*
X116332000Y-50038000D02*
X129794000Y-63500000D01*
X129794000Y-68072000D02*
X127762000Y-70104000D01*
X99822000Y-50038000D02*
X116332000Y-50038000D01*
X102362000Y-123952000D02*
X105156000Y-123952000D01*
X98552000Y-51308000D02*
X99822000Y-50038000D01*
X98044000Y-128270000D02*
X102362000Y-123952000D01*
%TO.N,Net-(U5-QB)*%
X173736000Y-53594000D02*
X166878000Y-60452000D01*
X166878000Y-60452000D02*
X163576000Y-60452000D01*
X175294000Y-53594000D02*
X173736000Y-53594000D01*
%TO.N,Net-(U5-QC)*%
X175294000Y-56134000D02*
X173736000Y-56134000D01*
X166878000Y-62992000D02*
X163576000Y-62992000D01*
X173736000Y-56134000D02*
X166878000Y-62992000D01*
%TO.N,Net-(U5-QD)*%
X175294000Y-58674000D02*
X173736000Y-58674000D01*
X173736000Y-58674000D02*
X166878000Y-65532000D01*
X166878000Y-65532000D02*
X163576000Y-65532000D01*
%TO.N,Net-(U3-QA)*%
X169164000Y-116840000D02*
X169164000Y-112776000D01*
X169164000Y-112776000D02*
X166624000Y-110236000D01*
%TO.N,Net-(U3-QB)*%
X166634000Y-112786000D02*
X164084000Y-110236000D01*
X166634000Y-114310000D02*
X166634000Y-112786000D01*
%TO.N,Net-(U3-QC)*%
X164094000Y-114310000D02*
X164094000Y-112786000D01*
X164094000Y-112786000D02*
X161544000Y-110236000D01*
%TO.N,Net-(U3-QD)*%
X161554000Y-114310000D02*
X161554000Y-112786000D01*
X161554000Y-112786000D02*
X159004000Y-110236000D01*
%TO.N,Net-(U3-QE)*%
X159014000Y-114310000D02*
X159014000Y-112786000D01*
X159014000Y-112786000D02*
X156464000Y-110236000D01*
%TO.N,Net-(U3-QF)*%
X156474000Y-114310000D02*
X156474000Y-112786000D01*
X156474000Y-112786000D02*
X153924000Y-110236000D01*
%TO.N,Net-(U3-QG)*%
X153934000Y-114310000D02*
X153934000Y-112786000D01*
X153934000Y-112786000D02*
X151384000Y-110236000D01*
%TO.N,Net-(U3-QH)*%
X151394000Y-114310000D02*
X151394000Y-112786000D01*
X151394000Y-112786000D02*
X148844000Y-110236000D01*
%TO.N,Net-(U6-ISET)*%
X126507736Y-72628264D02*
X126238000Y-72898000D01*
X123444000Y-75692000D02*
X118872000Y-75692000D01*
X127000000Y-67056000D02*
X126507736Y-67548264D01*
X126238000Y-72898000D02*
X123444000Y-75692000D01*
X126507736Y-67548264D02*
X126507736Y-72628264D01*
%TO.N,Net-(U7-ISET)*%
X112522000Y-104394000D02*
X112522000Y-103378000D01*
X114808000Y-106680000D02*
X112522000Y-104394000D01*
%TO.N,Net-(U3-QH')*%
X135636000Y-120142000D02*
X146050000Y-120142000D01*
X129794000Y-114300000D02*
X135636000Y-120142000D01*
X146050000Y-120142000D02*
X147838000Y-121930000D01*
X147838000Y-121930000D02*
X148854000Y-121930000D01*
%TO.N,Net-(U6-DOUT)*%
X127762000Y-95758000D02*
X127762000Y-77724000D01*
%TD*%
M02*
