%TF.GenerationSoftware,KiCad,Pcbnew,7.0.8*%
%TF.CreationDate,2023-10-15T17:50:00-07:00*%
%TF.ProjectId,htpm_control_additional_info,6874706d-5f63-46f6-9e74-726f6c5f6164,1*%
%TF.SameCoordinates,Original*%
%TF.FileFunction,Copper,L2,Bot*%
%TF.FilePolarity,Positive*%
%FSLAX46Y46*%
G04 Gerber Fmt 4.6, Leading zero omitted, Abs format (unit mm)*
G04 Created by KiCad (PCBNEW 7.0.8) date 2023-10-15 17:50:00*
%MOMM*%
%LPD*%
G01*
G04 APERTURE LIST*
%TA.AperFunction,ComponentPad*%
%ADD10R,1.350000X1.350000*%
%TD*%
%TA.AperFunction,ComponentPad*%
%ADD11O,1.350000X1.350000*%
%TD*%
%TA.AperFunction,ComponentPad*%
%ADD12R,1.800000X1.800000*%
%TD*%
%TA.AperFunction,ComponentPad*%
%ADD13C,1.800000*%
%TD*%
%TA.AperFunction,ComponentPad*%
%ADD14C,1.400000*%
%TD*%
%TA.AperFunction,ComponentPad*%
%ADD15O,1.400000X1.400000*%
%TD*%
%TA.AperFunction,ComponentPad*%
%ADD16R,1.200000X1.200000*%
%TD*%
%TA.AperFunction,ComponentPad*%
%ADD17C,1.200000*%
%TD*%
%TA.AperFunction,ComponentPad*%
%ADD18R,1.600000X1.600000*%
%TD*%
%TA.AperFunction,ComponentPad*%
%ADD19O,1.600000X1.600000*%
%TD*%
%TA.AperFunction,ComponentPad*%
%ADD20R,2.000000X1.905000*%
%TD*%
%TA.AperFunction,ComponentPad*%
%ADD21O,2.000000X1.905000*%
%TD*%
%TA.AperFunction,ViaPad*%
%ADD22C,0.800000*%
%TD*%
%TA.AperFunction,Conductor*%
%ADD23C,0.250000*%
%TD*%
G04 APERTURE END LIST*
D10*
%TO.P,J3,1,Pin_1*%
%TO.N,Net-(J3-Pin_1)*%
X96012000Y-71628000D03*
D11*
%TO.P,J3,2,Pin_2*%
%TO.N,Net-(J3-Pin_2)*%
X96012000Y-73628000D03*
%TO.P,J3,3,Pin_3*%
%TO.N,Net-(J3-Pin_3)*%
X96012000Y-75628000D03*
%TO.P,J3,4,Pin_4*%
%TO.N,Net-(J3-Pin_4)*%
X96012000Y-77628000D03*
%TD*%
D12*
%TO.P,D2,1,K*%
%TO.N,GND*%
X134112000Y-62987000D03*
D13*
%TO.P,D2,2,A*%
%TO.N,Net-(D2-A)*%
X134112000Y-65527000D03*
%TD*%
D12*
%TO.P,D13,1,K*%
%TO.N,GND*%
X187452000Y-94488000D03*
D13*
%TO.P,D13,2,A*%
%TO.N,Net-(D13-A)*%
X187452000Y-97028000D03*
%TD*%
D14*
%TO.P,R22,1*%
%TO.N,Net-(J1-Pin_1)*%
X122428000Y-106680000D03*
D15*
%TO.P,R22,2*%
%TO.N,Net-(U7-ISET)*%
X114808000Y-106680000D03*
%TD*%
D12*
%TO.P,D17,1,K*%
%TO.N,GND*%
X156972000Y-94488000D03*
D13*
%TO.P,D17,2,A*%
%TO.N,Net-(D17-A)*%
X156972000Y-97028000D03*
%TD*%
D12*
%TO.P,D18,1,K*%
%TO.N,GND*%
X149352000Y-94488000D03*
D13*
%TO.P,D18,2,A*%
%TO.N,Net-(D18-A)*%
X149352000Y-97028000D03*
%TD*%
D14*
%TO.P,R8,1*%
%TO.N,Net-(U3-QD)*%
X159004000Y-110236000D03*
D15*
%TO.P,R8,2*%
%TO.N,Net-(D8-A)*%
X159004000Y-102616000D03*
%TD*%
D16*
%TO.P,C4,1*%
%TO.N,Net-(J1-Pin_1)*%
X187994000Y-53594000D03*
D17*
%TO.P,C4,2*%
%TO.N,GND*%
X187994000Y-55594000D03*
%TD*%
D14*
%TO.P,R13,1*%
%TO.N,Net-(U2-QA)*%
X189230000Y-110236000D03*
D15*
%TO.P,R13,2*%
%TO.N,Net-(D13-A)*%
X189230000Y-102616000D03*
%TD*%
D18*
%TO.P,U3,1,QB*%
%TO.N,Net-(U3-QB)*%
X166634000Y-114310000D03*
D19*
%TO.P,U3,2,QC*%
%TO.N,Net-(U3-QC)*%
X164094000Y-114310000D03*
%TO.P,U3,3,QD*%
%TO.N,Net-(U3-QD)*%
X161554000Y-114310000D03*
%TO.P,U3,4,QE*%
%TO.N,Net-(U3-QE)*%
X159014000Y-114310000D03*
%TO.P,U3,5,QF*%
%TO.N,Net-(U3-QF)*%
X156474000Y-114310000D03*
%TO.P,U3,6,QG*%
%TO.N,Net-(U3-QG)*%
X153934000Y-114310000D03*
%TO.P,U3,7,QH*%
%TO.N,Net-(U3-QH)*%
X151394000Y-114310000D03*
%TO.P,U3,8,GND*%
%TO.N,GND*%
X148854000Y-114310000D03*
%TO.P,U3,9,QH'*%
%TO.N,Net-(U3-QH')*%
X148854000Y-121930000D03*
%TO.P,U3,10,~{SRCLR}*%
%TO.N,Net-(J1-Pin_1)*%
X151394000Y-121930000D03*
%TO.P,U3,11,SRCLK*%
%TO.N,Net-(J8-Pin_1)*%
X153934000Y-121930000D03*
%TO.P,U3,12,RCLK*%
%TO.N,Net-(J8-Pin_2)*%
X156474000Y-121930000D03*
%TO.P,U3,13,~{OE}*%
%TO.N,GND*%
X159014000Y-121930000D03*
%TO.P,U3,14,SER*%
%TO.N,Net-(U2-QH')*%
X161554000Y-121930000D03*
%TO.P,U3,15,QA*%
%TO.N,Net-(U3-QA)*%
X164094000Y-121930000D03*
%TO.P,U3,16,VCC*%
%TO.N,Net-(J1-Pin_1)*%
X166634000Y-121930000D03*
%TD*%
D12*
%TO.P,D19,1,K*%
%TO.N,GND*%
X141732000Y-94488000D03*
D13*
%TO.P,D19,2,A*%
%TO.N,Net-(D19-A)*%
X141732000Y-97028000D03*
%TD*%
D12*
%TO.P,D20,1,K*%
%TO.N,GND*%
X134112000Y-94488000D03*
D13*
%TO.P,D20,2,A*%
%TO.N,Net-(D20-A)*%
X134112000Y-97028000D03*
%TD*%
D12*
%TO.P,D3,1,K*%
%TO.N,GND*%
X134112000Y-70607000D03*
D13*
%TO.P,D3,2,A*%
%TO.N,Net-(D3-A)*%
X134112000Y-73147000D03*
%TD*%
D18*
%TO.P,U2,1,QB*%
%TO.N,Net-(U2-QB)*%
X189240000Y-114310000D03*
D19*
%TO.P,U2,2,QC*%
%TO.N,Net-(U2-QC)*%
X186700000Y-114310000D03*
%TO.P,U2,3,QD*%
%TO.N,Net-(U2-QD)*%
X184160000Y-114310000D03*
%TO.P,U2,4,QE*%
%TO.N,Net-(U2-QE)*%
X181620000Y-114310000D03*
%TO.P,U2,5,QF*%
%TO.N,Net-(U2-QF)*%
X179080000Y-114310000D03*
%TO.P,U2,6,QG*%
%TO.N,Net-(U2-QG)*%
X176540000Y-114310000D03*
%TO.P,U2,7,QH*%
%TO.N,Net-(U2-QH)*%
X174000000Y-114310000D03*
%TO.P,U2,8,GND*%
%TO.N,GND*%
X171460000Y-114310000D03*
%TO.P,U2,9,QH'*%
%TO.N,Net-(U2-QH')*%
X171460000Y-121930000D03*
%TO.P,U2,10,~{SRCLR}*%
%TO.N,Net-(J1-Pin_1)*%
X174000000Y-121930000D03*
%TO.P,U2,11,SRCLK*%
%TO.N,Net-(J8-Pin_1)*%
X176540000Y-121930000D03*
%TO.P,U2,12,RCLK*%
%TO.N,Net-(J8-Pin_2)*%
X179080000Y-121930000D03*
%TO.P,U2,13,~{OE}*%
%TO.N,GND*%
X181620000Y-121930000D03*
%TO.P,U2,14,SER*%
%TO.N,Net-(J8-Pin_3)*%
X184160000Y-121930000D03*
%TO.P,U2,15,QA*%
%TO.N,Net-(U2-QA)*%
X186700000Y-121930000D03*
%TO.P,U2,16,VCC*%
%TO.N,Net-(J1-Pin_1)*%
X189240000Y-121930000D03*
%TD*%
D12*
%TO.P,D12,1,K*%
%TO.N,GND*%
X134112000Y-89408000D03*
D13*
%TO.P,D12,2,A*%
%TO.N,Net-(D12-A)*%
X134112000Y-86868000D03*
%TD*%
D14*
%TO.P,R1,1*%
%TO.N,Net-(U5-QA)*%
X163576000Y-57912000D03*
D15*
%TO.P,R1,2*%
%TO.N,Net-(D1-A)*%
X155956000Y-57912000D03*
%TD*%
D10*
%TO.P,J1,1,Pin_1*%
%TO.N,Net-(J1-Pin_1)*%
X119922000Y-128270000D03*
D11*
%TO.P,J1,2,Pin_2*%
%TO.N,GND*%
X121922000Y-128270000D03*
%TO.P,J1,3,Pin_3*%
%TO.N,Net-(J1-Pin_3)*%
X123922000Y-128270000D03*
%TO.P,J1,4,Pin_4*%
%TO.N,Net-(J1-Pin_4)*%
X125922000Y-128270000D03*
%TO.P,J1,5,Pin_5*%
%TO.N,Net-(J1-Pin_5)*%
X127922000Y-128270000D03*
%TO.P,J1,6,Pin_6*%
%TO.N,Net-(J1-Pin_6)*%
X129922000Y-128270000D03*
%TO.P,J1,7,Pin_7*%
%TO.N,Net-(J1-Pin_7)*%
X131922000Y-128270000D03*
%TO.P,J1,8,Pin_8*%
%TO.N,Net-(J1-Pin_8)*%
X133922000Y-128270000D03*
%TO.P,J1,9,Pin_9*%
%TO.N,Net-(J1-Pin_9)*%
X135922000Y-128270000D03*
%TO.P,J1,10,Pin_10*%
%TO.N,Net-(J1-Pin_10)*%
X137922000Y-128270000D03*
%TD*%
D14*
%TO.P,R12,1*%
%TO.N,Net-(U3-QH)*%
X148844000Y-110236000D03*
D15*
%TO.P,R12,2*%
%TO.N,Net-(D12-A)*%
X148844000Y-102616000D03*
%TD*%
D16*
%TO.P,C1,1*%
%TO.N,Net-(J1-Pin_1)*%
X189240000Y-127010000D03*
D17*
%TO.P,C1,2*%
%TO.N,GND*%
X187240000Y-127010000D03*
%TD*%
D14*
%TO.P,R21,1*%
%TO.N,Net-(J1-Pin_1)*%
X119380000Y-67056000D03*
D15*
%TO.P,R21,2*%
%TO.N,Net-(U6-ISET)*%
X127000000Y-67056000D03*
%TD*%
D20*
%TO.P,U1,1,IN*%
%TO.N,Net-(J8-Pin_4)*%
X114386000Y-120142000D03*
D21*
%TO.P,U1,2,GND*%
%TO.N,GND*%
X114386000Y-117602000D03*
%TO.P,U1,3,OUT*%
%TO.N,Net-(J1-Pin_1)*%
X114386000Y-115062000D03*
%TD*%
D14*
%TO.P,R10,1*%
%TO.N,Net-(U3-QF)*%
X153924000Y-110236000D03*
D15*
%TO.P,R10,2*%
%TO.N,Net-(D10-A)*%
X153924000Y-102616000D03*
%TD*%
D16*
%TO.P,C2,1*%
%TO.N,Net-(J1-Pin_1)*%
X166634000Y-127010000D03*
D17*
%TO.P,C2,2*%
%TO.N,GND*%
X164634000Y-127010000D03*
%TD*%
D10*
%TO.P,J2,1,Pin_1*%
%TO.N,Net-(J2-Pin_1)*%
X96012000Y-61468000D03*
D11*
%TO.P,J2,2,Pin_2*%
%TO.N,Net-(J2-Pin_2)*%
X96012000Y-63468000D03*
%TO.P,J2,3,Pin_3*%
%TO.N,Net-(J2-Pin_3)*%
X96012000Y-65468000D03*
%TO.P,J2,4,Pin_4*%
%TO.N,Net-(J2-Pin_4)*%
X96012000Y-67468000D03*
%TD*%
D14*
%TO.P,R11,1*%
%TO.N,Net-(U3-QG)*%
X151384000Y-110236000D03*
D15*
%TO.P,R11,2*%
%TO.N,Net-(D11-A)*%
X151384000Y-102616000D03*
%TD*%
D14*
%TO.P,R17,1*%
%TO.N,Net-(U2-QE)*%
X179070000Y-110236000D03*
D15*
%TO.P,R17,2*%
%TO.N,Net-(D17-A)*%
X179070000Y-102616000D03*
%TD*%
D12*
%TO.P,D10,1,K*%
%TO.N,GND*%
X149352000Y-89408000D03*
D13*
%TO.P,D10,2,A*%
%TO.N,Net-(D10-A)*%
X149352000Y-86868000D03*
%TD*%
D16*
%TO.P,C6,1*%
%TO.N,Net-(J1-Pin_1)*%
X115359401Y-91186000D03*
D17*
%TO.P,C6,2*%
%TO.N,GND*%
X117359401Y-91186000D03*
%TD*%
D12*
%TO.P,D8,1,K*%
%TO.N,GND*%
X164592000Y-89408000D03*
D13*
%TO.P,D8,2,A*%
%TO.N,Net-(D8-A)*%
X164592000Y-86868000D03*
%TD*%
D14*
%TO.P,R5,1*%
%TO.N,Net-(U3-QA)*%
X166624000Y-110236000D03*
D15*
%TO.P,R5,2*%
%TO.N,Net-(D5-A)*%
X166624000Y-102616000D03*
%TD*%
D12*
%TO.P,D7,1,K*%
%TO.N,GND*%
X172212000Y-89408000D03*
D13*
%TO.P,D7,2,A*%
%TO.N,Net-(D7-A)*%
X172212000Y-86868000D03*
%TD*%
D12*
%TO.P,D16,1,K*%
%TO.N,GND*%
X164592000Y-94488000D03*
D13*
%TO.P,D16,2,A*%
%TO.N,Net-(D16-A)*%
X164592000Y-97028000D03*
%TD*%
D14*
%TO.P,R7,1*%
%TO.N,Net-(U3-QC)*%
X161544000Y-110236000D03*
D15*
%TO.P,R7,2*%
%TO.N,Net-(D7-A)*%
X161544000Y-102616000D03*
%TD*%
D18*
%TO.P,U5,1,QB*%
%TO.N,Net-(U5-QB)*%
X175294000Y-53594000D03*
D19*
%TO.P,U5,2,QC*%
%TO.N,Net-(U5-QC)*%
X175294000Y-56134000D03*
%TO.P,U5,3,QD*%
%TO.N,Net-(U5-QD)*%
X175294000Y-58674000D03*
%TO.P,U5,4,QE*%
%TO.N,unconnected-(U5-QE-Pad4)*%
X175294000Y-61214000D03*
%TO.P,U5,5,QF*%
%TO.N,unconnected-(U5-QF-Pad5)*%
X175294000Y-63754000D03*
%TO.P,U5,6,QG*%
%TO.N,unconnected-(U5-QG-Pad6)*%
X175294000Y-66294000D03*
%TO.P,U5,7,QH*%
%TO.N,unconnected-(U5-QH-Pad7)*%
X175294000Y-68834000D03*
%TO.P,U5,8,GND*%
%TO.N,GND*%
X175294000Y-71374000D03*
%TO.P,U5,9,QH'*%
%TO.N,unconnected-(U5-QH'-Pad9)*%
X182914000Y-71374000D03*
%TO.P,U5,10,~{SRCLR}*%
%TO.N,Net-(J1-Pin_1)*%
X182914000Y-68834000D03*
%TO.P,U5,11,SRCLK*%
%TO.N,Net-(J8-Pin_1)*%
X182914000Y-66294000D03*
%TO.P,U5,12,RCLK*%
%TO.N,Net-(J8-Pin_2)*%
X182914000Y-63754000D03*
%TO.P,U5,13,~{OE}*%
%TO.N,GND*%
X182914000Y-61214000D03*
%TO.P,U5,14,SER*%
%TO.N,Net-(U4-QH')*%
X182914000Y-58674000D03*
%TO.P,U5,15,QA*%
%TO.N,Net-(U5-QA)*%
X182914000Y-56134000D03*
%TO.P,U5,16,VCC*%
%TO.N,Net-(J1-Pin_1)*%
X182914000Y-53594000D03*
%TD*%
D12*
%TO.P,D14,1,K*%
%TO.N,GND*%
X179832000Y-94488000D03*
D13*
%TO.P,D14,2,A*%
%TO.N,Net-(D14-A)*%
X179832000Y-97028000D03*
%TD*%
D18*
%TO.P,U7,1,DIN*%
%TO.N,Net-(U6-DOUT)*%
X127762000Y-95758000D03*
D19*
%TO.P,U7,2,DIG_0*%
%TO.N,Net-(J6-Pin_1)*%
X125222000Y-95758000D03*
%TO.P,U7,3,DIG_4*%
%TO.N,Net-(J7-Pin_1)*%
X122682000Y-95758000D03*
%TO.P,U7,4,GND*%
%TO.N,GND*%
X120142000Y-95758000D03*
%TO.P,U7,5,DIG_6*%
%TO.N,Net-(J7-Pin_3)*%
X117602000Y-95758000D03*
%TO.P,U7,6,DIG_2*%
%TO.N,Net-(J6-Pin_3)*%
X115062000Y-95758000D03*
%TO.P,U7,7,DIG_3*%
%TO.N,Net-(J6-Pin_4)*%
X112522000Y-95758000D03*
%TO.P,U7,8,DIG_7*%
%TO.N,Net-(J7-Pin_4)*%
X109982000Y-95758000D03*
%TO.P,U7,9,GND*%
%TO.N,GND*%
X107442000Y-95758000D03*
%TO.P,U7,10,DIG_5*%
%TO.N,Net-(J7-Pin_2)*%
X104902000Y-95758000D03*
%TO.P,U7,11,DIG_1*%
%TO.N,Net-(J6-Pin_2)*%
X102362000Y-95758000D03*
%TO.P,U7,12,LOAD*%
%TO.N,Net-(J8-Pin_6)*%
X99822000Y-95758000D03*
%TO.P,U7,13,CLK*%
%TO.N,Net-(J8-Pin_7)*%
X99822000Y-103378000D03*
%TO.P,U7,14,SEG_A*%
%TO.N,Net-(J5-Pin_2)*%
X102362000Y-103378000D03*
%TO.P,U7,15,SEG_F*%
%TO.N,Net-(J5-Pin_7)*%
X104902000Y-103378000D03*
%TO.P,U7,16,SEG_B*%
%TO.N,Net-(J5-Pin_3)*%
X107442000Y-103378000D03*
%TO.P,U7,17,SEG_G*%
%TO.N,Net-(J5-Pin_8)*%
X109982000Y-103378000D03*
%TO.P,U7,18,ISET*%
%TO.N,Net-(U7-ISET)*%
X112522000Y-103378000D03*
%TO.P,U7,19,V+*%
%TO.N,Net-(J1-Pin_1)*%
X115062000Y-103378000D03*
%TO.P,U7,20,SEG_C*%
%TO.N,Net-(J5-Pin_4)*%
X117602000Y-103378000D03*
%TO.P,U7,21,SEG_E*%
%TO.N,Net-(J5-Pin_6)*%
X120142000Y-103378000D03*
%TO.P,U7,22,SEG_DP*%
%TO.N,Net-(J5-Pin_1)*%
X122682000Y-103378000D03*
%TO.P,U7,23,SEG_D*%
%TO.N,Net-(J5-Pin_5)*%
X125222000Y-103378000D03*
%TO.P,U7,24,DOUT*%
%TO.N,unconnected-(U7-DOUT-Pad24)*%
X127762000Y-103378000D03*
%TD*%
D14*
%TO.P,R18,1*%
%TO.N,Net-(U2-QF)*%
X176530000Y-110236000D03*
D15*
%TO.P,R18,2*%
%TO.N,Net-(D18-A)*%
X176530000Y-102616000D03*
%TD*%
D12*
%TO.P,D6,1,K*%
%TO.N,GND*%
X179832000Y-89408000D03*
D13*
%TO.P,D6,2,A*%
%TO.N,Net-(D6-A)*%
X179832000Y-86868000D03*
%TD*%
D14*
%TO.P,R2,1*%
%TO.N,Net-(U5-QB)*%
X163576000Y-60452000D03*
D15*
%TO.P,R2,2*%
%TO.N,Net-(D2-A)*%
X155956000Y-60452000D03*
%TD*%
D10*
%TO.P,J5,1,Pin_1*%
%TO.N,Net-(J5-Pin_1)*%
X96012000Y-107458000D03*
D11*
%TO.P,J5,2,Pin_2*%
%TO.N,Net-(J5-Pin_2)*%
X98012000Y-107458000D03*
%TO.P,J5,3,Pin_3*%
%TO.N,Net-(J5-Pin_3)*%
X100012000Y-107458000D03*
%TO.P,J5,4,Pin_4*%
%TO.N,Net-(J5-Pin_4)*%
X102012000Y-107458000D03*
%TO.P,J5,5,Pin_5*%
%TO.N,Net-(J5-Pin_5)*%
X104012000Y-107458000D03*
%TO.P,J5,6,Pin_6*%
%TO.N,Net-(J5-Pin_6)*%
X106012000Y-107458000D03*
%TO.P,J5,7,Pin_7*%
%TO.N,Net-(J5-Pin_7)*%
X108012000Y-107458000D03*
%TO.P,J5,8,Pin_8*%
%TO.N,Net-(J5-Pin_8)*%
X110012000Y-107458000D03*
%TD*%
D18*
%TO.P,U4,1,QB*%
%TO.N,Net-(J1-Pin_4)*%
X124714000Y-121920000D03*
D19*
%TO.P,U4,2,QC*%
%TO.N,Net-(J1-Pin_5)*%
X127254000Y-121920000D03*
%TO.P,U4,3,QD*%
%TO.N,Net-(J1-Pin_6)*%
X129794000Y-121920000D03*
%TO.P,U4,4,QE*%
%TO.N,Net-(J1-Pin_7)*%
X132334000Y-121920000D03*
%TO.P,U4,5,QF*%
%TO.N,Net-(J1-Pin_8)*%
X134874000Y-121920000D03*
%TO.P,U4,6,QG*%
%TO.N,Net-(J1-Pin_9)*%
X137414000Y-121920000D03*
%TO.P,U4,7,QH*%
%TO.N,Net-(J1-Pin_10)*%
X139954000Y-121920000D03*
%TO.P,U4,8,GND*%
%TO.N,GND*%
X142494000Y-121920000D03*
%TO.P,U4,9,QH'*%
%TO.N,Net-(U4-QH')*%
X142494000Y-114300000D03*
%TO.P,U4,10,~{SRCLR}*%
%TO.N,Net-(J1-Pin_1)*%
X139954000Y-114300000D03*
%TO.P,U4,11,SRCLK*%
%TO.N,Net-(J8-Pin_1)*%
X137414000Y-114300000D03*
%TO.P,U4,12,RCLK*%
%TO.N,Net-(J8-Pin_2)*%
X134874000Y-114300000D03*
%TO.P,U4,13,~{OE}*%
%TO.N,GND*%
X132334000Y-114300000D03*
%TO.P,U4,14,SER*%
%TO.N,Net-(U3-QH')*%
X129794000Y-114300000D03*
%TO.P,U4,15,QA*%
%TO.N,Net-(J1-Pin_3)*%
X127254000Y-114300000D03*
%TO.P,U4,16,VCC*%
%TO.N,Net-(J1-Pin_1)*%
X124714000Y-114300000D03*
%TD*%
D16*
%TO.P,C5,1*%
%TO.N,Net-(J1-Pin_1)*%
X116078000Y-64516000D03*
D17*
%TO.P,C5,2*%
%TO.N,GND*%
X114078000Y-64516000D03*
%TD*%
D10*
%TO.P,J9,1,Pin_1*%
%TO.N,Net-(J8-Pin_9)*%
X96552000Y-51308000D03*
D11*
%TO.P,J9,2,Pin_2*%
%TO.N,Net-(J8-Pin_8)*%
X98552000Y-51308000D03*
%TO.P,J9,3,Pin_3*%
%TO.N,Net-(J8-Pin_7)*%
X100552000Y-51308000D03*
%TO.P,J9,4,Pin_4*%
%TO.N,Net-(J1-Pin_1)*%
X102552000Y-51308000D03*
%TO.P,J9,5,Pin_5*%
%TO.N,GND*%
X104552000Y-51308000D03*
%TD*%
D14*
%TO.P,R15,1*%
%TO.N,Net-(U2-QC)*%
X184150000Y-110236000D03*
D15*
%TO.P,R15,2*%
%TO.N,Net-(D15-A)*%
X184150000Y-102616000D03*
%TD*%
D14*
%TO.P,R16,1*%
%TO.N,Net-(U2-QD)*%
X181610000Y-110236000D03*
D15*
%TO.P,R16,2*%
%TO.N,Net-(D16-A)*%
X181610000Y-102616000D03*
%TD*%
D10*
%TO.P,J7,1,Pin_1*%
%TO.N,Net-(J7-Pin_1)*%
X96012000Y-97298000D03*
D11*
%TO.P,J7,2,Pin_2*%
%TO.N,Net-(J7-Pin_2)*%
X96012000Y-99298000D03*
%TO.P,J7,3,Pin_3*%
%TO.N,Net-(J7-Pin_3)*%
X96012000Y-101298000D03*
%TO.P,J7,4,Pin_4*%
%TO.N,Net-(J7-Pin_4)*%
X96012000Y-103298000D03*
%TD*%
D10*
%TO.P,J4,1,Pin_1*%
%TO.N,Net-(J4-Pin_1)*%
X96012000Y-81788000D03*
D11*
%TO.P,J4,2,Pin_2*%
%TO.N,Net-(J4-Pin_2)*%
X98012000Y-81788000D03*
%TO.P,J4,3,Pin_3*%
%TO.N,Net-(J4-Pin_3)*%
X100012000Y-81788000D03*
%TO.P,J4,4,Pin_4*%
%TO.N,Net-(J4-Pin_4)*%
X102012000Y-81788000D03*
%TO.P,J4,5,Pin_5*%
%TO.N,Net-(J4-Pin_5)*%
X104012000Y-81788000D03*
%TO.P,J4,6,Pin_6*%
%TO.N,Net-(J4-Pin_6)*%
X106012000Y-81788000D03*
%TO.P,J4,7,Pin_7*%
%TO.N,Net-(J4-Pin_7)*%
X108012000Y-81788000D03*
%TO.P,J4,8,Pin_8*%
%TO.N,Net-(J4-Pin_8)*%
X110012000Y-81788000D03*
%TD*%
%TO.P,J8,9,Pin_9*%
%TO.N,Net-(J8-Pin_9)*%
X96044000Y-128270000D03*
%TO.P,J8,8,Pin_8*%
%TO.N,Net-(J8-Pin_8)*%
X98044000Y-128270000D03*
%TO.P,J8,7,Pin_7*%
%TO.N,Net-(J8-Pin_7)*%
X100044000Y-128270000D03*
%TO.P,J8,6,Pin_6*%
%TO.N,Net-(J8-Pin_6)*%
X102044000Y-128270000D03*
%TO.P,J8,5,Pin_5*%
%TO.N,GND*%
X104044000Y-128270000D03*
%TO.P,J8,4,Pin_4*%
%TO.N,Net-(J8-Pin_4)*%
X106044000Y-128270000D03*
%TO.P,J8,3,Pin_3*%
%TO.N,Net-(J8-Pin_3)*%
X108044000Y-128270000D03*
%TO.P,J8,2,Pin_2*%
%TO.N,Net-(J8-Pin_2)*%
X110044000Y-128270000D03*
D10*
%TO.P,J8,1,Pin_1*%
%TO.N,Net-(J8-Pin_1)*%
X112044000Y-128270000D03*
%TD*%
D12*
%TO.P,D4,1,K*%
%TO.N,GND*%
X134112000Y-78227000D03*
D13*
%TO.P,D4,2,A*%
%TO.N,Net-(D4-A)*%
X134112000Y-80767000D03*
%TD*%
D12*
%TO.P,D15,1,K*%
%TO.N,GND*%
X172212000Y-94488000D03*
D13*
%TO.P,D15,2,A*%
%TO.N,Net-(D15-A)*%
X172212000Y-97028000D03*
%TD*%
D14*
%TO.P,R3,1*%
%TO.N,Net-(U5-QC)*%
X163576000Y-62992000D03*
D15*
%TO.P,R3,2*%
%TO.N,Net-(D3-A)*%
X155956000Y-62992000D03*
%TD*%
D12*
%TO.P,D1,1,K*%
%TO.N,GND*%
X134112000Y-55367000D03*
D13*
%TO.P,D1,2,A*%
%TO.N,Net-(D1-A)*%
X134112000Y-57907000D03*
%TD*%
D14*
%TO.P,R6,1*%
%TO.N,Net-(U3-QB)*%
X164084000Y-110236000D03*
D15*
%TO.P,R6,2*%
%TO.N,Net-(D6-A)*%
X164084000Y-102616000D03*
%TD*%
D14*
%TO.P,R20,1*%
%TO.N,Net-(U2-QH)*%
X171450000Y-110236000D03*
D15*
%TO.P,R20,2*%
%TO.N,Net-(D20-A)*%
X171450000Y-102616000D03*
%TD*%
D14*
%TO.P,R19,1*%
%TO.N,Net-(U2-QG)*%
X173990000Y-110236000D03*
D15*
%TO.P,R19,2*%
%TO.N,Net-(D19-A)*%
X173990000Y-102616000D03*
%TD*%
D12*
%TO.P,D5,1,K*%
%TO.N,GND*%
X187452000Y-89408000D03*
D13*
%TO.P,D5,2,A*%
%TO.N,Net-(D5-A)*%
X187452000Y-86868000D03*
%TD*%
D10*
%TO.P,J6,1,Pin_1*%
%TO.N,Net-(J6-Pin_1)*%
X96012000Y-87138000D03*
D11*
%TO.P,J6,2,Pin_2*%
%TO.N,Net-(J6-Pin_2)*%
X96012000Y-89138000D03*
%TO.P,J6,3,Pin_3*%
%TO.N,Net-(J6-Pin_3)*%
X96012000Y-91138000D03*
%TO.P,J6,4,Pin_4*%
%TO.N,Net-(J6-Pin_4)*%
X96012000Y-93138000D03*
%TD*%
D16*
%TO.P,C3,1*%
%TO.N,Net-(J1-Pin_1)*%
X124724000Y-109230000D03*
D17*
%TO.P,C3,2*%
%TO.N,GND*%
X126724000Y-109230000D03*
%TD*%
D14*
%TO.P,R4,1*%
%TO.N,Net-(U5-QD)*%
X163576000Y-65532000D03*
D15*
%TO.P,R4,2*%
%TO.N,Net-(D4-A)*%
X155956000Y-65532000D03*
%TD*%
D12*
%TO.P,D9,1,K*%
%TO.N,GND*%
X156972000Y-89408000D03*
D13*
%TO.P,D9,2,A*%
%TO.N,Net-(D9-A)*%
X156972000Y-86868000D03*
%TD*%
D14*
%TO.P,R9,1*%
%TO.N,Net-(U3-QE)*%
X156464000Y-110236000D03*
D15*
%TO.P,R9,2*%
%TO.N,Net-(D9-A)*%
X156464000Y-102616000D03*
%TD*%
D12*
%TO.P,D11,1,K*%
%TO.N,GND*%
X141732000Y-89408000D03*
D13*
%TO.P,D11,2,A*%
%TO.N,Net-(D11-A)*%
X141732000Y-86868000D03*
%TD*%
D18*
%TO.P,U6,1,DIN*%
%TO.N,Net-(J8-Pin_8)*%
X127762000Y-70104000D03*
D19*
%TO.P,U6,2,DIG_0*%
%TO.N,Net-(J2-Pin_1)*%
X125222000Y-70104000D03*
%TO.P,U6,3,DIG_4*%
%TO.N,Net-(J3-Pin_1)*%
X122682000Y-70104000D03*
%TO.P,U6,4,GND*%
%TO.N,GND*%
X120142000Y-70104000D03*
%TO.P,U6,5,DIG_6*%
%TO.N,Net-(J3-Pin_3)*%
X117602000Y-70104000D03*
%TO.P,U6,6,DIG_2*%
%TO.N,Net-(J2-Pin_3)*%
X115062000Y-70104000D03*
%TO.P,U6,7,DIG_3*%
%TO.N,Net-(J2-Pin_4)*%
X112522000Y-70104000D03*
%TO.P,U6,8,DIG_7*%
%TO.N,Net-(J3-Pin_4)*%
X109982000Y-70104000D03*
%TO.P,U6,9,GND*%
%TO.N,GND*%
X107442000Y-70104000D03*
%TO.P,U6,10,DIG_5*%
%TO.N,Net-(J3-Pin_2)*%
X104902000Y-70104000D03*
%TO.P,U6,11,DIG_1*%
%TO.N,Net-(J2-Pin_2)*%
X102362000Y-70104000D03*
%TO.P,U6,12,LOAD*%
%TO.N,Net-(J8-Pin_6)*%
X99822000Y-70104000D03*
%TO.P,U6,13,CLK*%
%TO.N,Net-(J8-Pin_7)*%
X99822000Y-77724000D03*
%TO.P,U6,14,SEG_A*%
%TO.N,Net-(J4-Pin_2)*%
X102362000Y-77724000D03*
%TO.P,U6,15,SEG_F*%
%TO.N,Net-(J4-Pin_7)*%
X104902000Y-77724000D03*
%TO.P,U6,16,SEG_B*%
%TO.N,Net-(J4-Pin_3)*%
X107442000Y-77724000D03*
%TO.P,U6,17,SEG_G*%
%TO.N,Net-(J4-Pin_8)*%
X109982000Y-77724000D03*
%TO.P,U6,18,ISET*%
%TO.N,Net-(U6-ISET)*%
X112522000Y-77724000D03*
%TO.P,U6,19,V+*%
%TO.N,Net-(J1-Pin_1)*%
X115062000Y-77724000D03*
%TO.P,U6,20,SEG_C*%
%TO.N,Net-(J4-Pin_4)*%
X117602000Y-77724000D03*
%TO.P,U6,21,SEG_E*%
%TO.N,Net-(J4-Pin_6)*%
X120142000Y-77724000D03*
%TO.P,U6,22,SEG_DP*%
%TO.N,Net-(J4-Pin_1)*%
X122682000Y-77724000D03*
%TO.P,U6,23,SEG_D*%
%TO.N,Net-(J4-Pin_5)*%
X125222000Y-77724000D03*
%TO.P,U6,24,DOUT*%
%TO.N,Net-(U6-DOUT)*%
X127762000Y-77724000D03*
%TD*%
D14*
%TO.P,R14,1*%
%TO.N,Net-(U2-QB)*%
X186690000Y-110236000D03*
D15*
%TO.P,R14,2*%
%TO.N,Net-(D14-A)*%
X186690000Y-102616000D03*
%TD*%
D22*
%TO.N,Net-(J1-Pin_1)*%
X115062000Y-72390000D03*
X149860000Y-118110000D03*
X112014000Y-88900000D03*
%TO.N,GND*%
X130810000Y-109220000D03*
X106680000Y-58166000D03*
%TO.N,Net-(J3-Pin_2)*%
X104902000Y-72390000D03*
%TO.N,Net-(J3-Pin_3)*%
X117602000Y-74676000D03*
%TO.N,Net-(J3-Pin_4)*%
X107950000Y-72644000D03*
%TO.N,Net-(J4-Pin_1)*%
X118110000Y-85852000D03*
%TO.N,Net-(J7-Pin_1)*%
X116332000Y-99568000D03*
%TO.N,Net-(J8-Pin_1)*%
X137414000Y-117348000D03*
X118618000Y-120650000D03*
X176530000Y-118872000D03*
X153924000Y-118872000D03*
%TO.N,Net-(J8-Pin_2)*%
X134874000Y-117094000D03*
X117602000Y-119634000D03*
X156464000Y-119634000D03*
X179070000Y-119634000D03*
%TO.N,Net-(J8-Pin_3)*%
X185928000Y-124714000D03*
%TO.N,Net-(J8-Pin_6)*%
X104140000Y-92964000D03*
%TO.N,Net-(J8-Pin_7)*%
X101092000Y-111506000D03*
%TO.N,Net-(J8-Pin_8)*%
X105156000Y-123952000D03*
%TO.N,Net-(U3-QA)*%
X169164000Y-116840000D03*
%TO.N,Net-(U6-ISET)*%
X118872000Y-75692000D03*
%TD*%
D23*
%TO.N,Net-(J1-Pin_1)*%
X118680000Y-67056000D02*
X116187000Y-69549000D01*
X116187000Y-69549000D02*
X116187000Y-71265000D01*
X115760000Y-64516000D02*
X102552000Y-51308000D01*
X115359401Y-91186000D02*
X113284000Y-91186000D01*
X112014000Y-89916000D02*
X112014000Y-88900000D01*
X113284000Y-91186000D02*
X112014000Y-89916000D01*
X116187000Y-71265000D02*
X115062000Y-72390000D01*
X151394000Y-119644000D02*
X149860000Y-118110000D01*
X119380000Y-67056000D02*
X118680000Y-67056000D01*
X116078000Y-64516000D02*
X115760000Y-64516000D01*
X151394000Y-121930000D02*
X151394000Y-119644000D01*
%TO.N,GND*%
X179324000Y-71374000D02*
X175294000Y-71374000D01*
X181620000Y-121930000D02*
X181620000Y-119644000D01*
X162814000Y-123698000D02*
X164634000Y-125518000D01*
X118352000Y-117602000D02*
X114386000Y-117602000D01*
X126724000Y-109230000D02*
X130810000Y-109230000D01*
X176784000Y-86360000D02*
X179832000Y-89408000D01*
X181620000Y-121930000D02*
X186700000Y-127010000D01*
X150368000Y-115824000D02*
X148854000Y-114310000D01*
X140970000Y-116078000D02*
X142494000Y-117602000D01*
X150896000Y-112268000D02*
X167132000Y-112268000D01*
X159014000Y-121930000D02*
X159014000Y-119136000D01*
X114078000Y-64516000D02*
X114078000Y-63470396D01*
X142494000Y-117602000D02*
X145786000Y-114310000D01*
X132334000Y-110744000D02*
X132334000Y-114300000D01*
X177800000Y-115824000D02*
X172974000Y-115824000D01*
X159014000Y-121930000D02*
X160782000Y-123698000D01*
X134112000Y-116078000D02*
X140970000Y-116078000D01*
X130810000Y-109230000D02*
X130810000Y-109220000D01*
X181356000Y-62772000D02*
X181356000Y-69342000D01*
X159014000Y-119136000D02*
X155702000Y-115824000D01*
X114078000Y-64516000D02*
X113030000Y-64516000D01*
X126724000Y-109230000D02*
X118352000Y-117602000D01*
X121666000Y-68580000D02*
X130556000Y-68580000D01*
X148854000Y-114310000D02*
X150896000Y-112268000D01*
X132334000Y-114300000D02*
X134112000Y-116078000D01*
X130820000Y-109230000D02*
X132334000Y-110744000D01*
X155702000Y-115824000D02*
X150368000Y-115824000D01*
X104044000Y-128270000D02*
X104044000Y-127944000D01*
X182914000Y-61214000D02*
X181356000Y-62772000D01*
X108773604Y-58166000D02*
X106680000Y-58166000D01*
X130810000Y-109220000D02*
X130820000Y-109230000D01*
X186700000Y-127010000D02*
X187240000Y-127010000D01*
X120142000Y-70104000D02*
X121666000Y-68580000D01*
X160782000Y-123698000D02*
X162814000Y-123698000D01*
X176784000Y-83058000D02*
X176784000Y-86360000D01*
X132887000Y-79452000D02*
X132887000Y-88183000D01*
X179324000Y-80518000D02*
X176784000Y-83058000D01*
X164634000Y-125518000D02*
X164634000Y-127010000D01*
X114078000Y-63470396D02*
X110139802Y-59532198D01*
X130556000Y-68580000D02*
X132583000Y-70607000D01*
X172974000Y-115824000D02*
X171460000Y-114310000D01*
X167132000Y-112268000D02*
X169174000Y-114310000D01*
X169174000Y-114310000D02*
X171460000Y-114310000D01*
X181620000Y-119644000D02*
X177800000Y-115824000D01*
X110139802Y-59532198D02*
X108773604Y-58166000D01*
X179324000Y-71374000D02*
X179324000Y-80518000D01*
X121922000Y-125138000D02*
X121922000Y-128270000D01*
X145786000Y-114310000D02*
X148854000Y-114310000D01*
X142494000Y-117602000D02*
X142494000Y-121920000D01*
X132887000Y-88183000D02*
X134112000Y-89408000D01*
X134112000Y-78227000D02*
X132887000Y-79452000D01*
X114386000Y-117602000D02*
X121922000Y-125138000D01*
X104044000Y-127944000D02*
X114386000Y-117602000D01*
X181356000Y-69342000D02*
X179324000Y-71374000D01*
X132583000Y-70607000D02*
X134112000Y-70607000D01*
X113030000Y-64516000D02*
X107442000Y-70104000D01*
%TO.N,Net-(D5-A)*%
X168402000Y-100838000D02*
X181102000Y-100838000D01*
X183896000Y-98044000D02*
X183896000Y-90424000D01*
X181102000Y-100838000D02*
X183896000Y-98044000D01*
X183896000Y-90424000D02*
X187452000Y-86868000D01*
X166624000Y-102616000D02*
X168402000Y-100838000D01*
%TO.N,Net-(D6-A)*%
X183446000Y-97857604D02*
X183446000Y-90482000D01*
X183446000Y-90482000D02*
X179832000Y-86868000D01*
X166312000Y-100388000D02*
X180915604Y-100388000D01*
X180915604Y-100388000D02*
X183446000Y-97857604D01*
X164084000Y-102616000D02*
X166312000Y-100388000D01*
%TO.N,Net-(D7-A)*%
X180729208Y-99938000D02*
X182996000Y-97671208D01*
X181218000Y-91440000D02*
X179070000Y-91440000D01*
X182996000Y-97671208D02*
X182996000Y-93218000D01*
X161544000Y-102616000D02*
X164222000Y-99938000D01*
X174498000Y-86868000D02*
X172212000Y-86868000D01*
X164222000Y-99938000D02*
X180729208Y-99938000D01*
X182996000Y-93218000D02*
X181218000Y-91440000D01*
X179070000Y-91440000D02*
X174498000Y-86868000D01*
%TO.N,Net-(D8-A)*%
X182546000Y-97484812D02*
X182546000Y-93404396D01*
X172154000Y-91890000D02*
X167132000Y-86868000D01*
X181031604Y-91890000D02*
X172154000Y-91890000D01*
X159004000Y-102616000D02*
X162132000Y-99488000D01*
X180542812Y-99488000D02*
X182546000Y-97484812D01*
X167132000Y-86868000D02*
X164592000Y-86868000D01*
X162132000Y-99488000D02*
X180542812Y-99488000D01*
X182546000Y-93404396D02*
X181031604Y-91890000D01*
%TO.N,Net-(D9-A)*%
X156464000Y-102616000D02*
X161290000Y-97790000D01*
X161290000Y-97790000D02*
X161290000Y-91186000D01*
X161290000Y-91186000D02*
X156972000Y-86868000D01*
%TO.N,Net-(D10-A)*%
X160840000Y-92260000D02*
X159766000Y-91186000D01*
X155956000Y-91186000D02*
X151638000Y-86868000D01*
X160840000Y-97603604D02*
X160840000Y-92260000D01*
X153924000Y-102616000D02*
X155639198Y-100900802D01*
X157542802Y-100900802D02*
X160840000Y-97603604D01*
X151638000Y-86868000D02*
X149352000Y-86868000D01*
X159766000Y-91186000D02*
X155956000Y-91186000D01*
X155639198Y-100900802D02*
X157542802Y-100900802D01*
%TO.N,Net-(D11-A)*%
X158300000Y-91636000D02*
X149040000Y-91636000D01*
X144272000Y-86868000D02*
X141732000Y-86868000D01*
X151384000Y-102616000D02*
X153549198Y-100450802D01*
X149040000Y-91636000D02*
X144272000Y-86868000D01*
X160390000Y-97417208D02*
X160390000Y-93726000D01*
X153549198Y-100450802D02*
X157356406Y-100450802D01*
X157356406Y-100450802D02*
X160390000Y-97417208D01*
X160390000Y-93726000D02*
X158300000Y-91636000D01*
%TO.N,Net-(D12-A)*%
X147712000Y-92086000D02*
X146558000Y-90932000D01*
X148844000Y-102616000D02*
X151459198Y-100000802D01*
X136398000Y-86868000D02*
X134112000Y-86868000D01*
X146558000Y-90932000D02*
X140462000Y-90932000D01*
X158113604Y-92086000D02*
X147712000Y-92086000D01*
X159940000Y-97230812D02*
X159940000Y-93912396D01*
X159940000Y-93912396D02*
X158113604Y-92086000D01*
X157170010Y-100000802D02*
X159940000Y-97230812D01*
X151459198Y-100000802D02*
X157170010Y-100000802D01*
X140462000Y-90932000D02*
X136398000Y-86868000D01*
%TO.N,Net-(J2-Pin_2)*%
X100806000Y-63468000D02*
X102362000Y-65024000D01*
X102362000Y-65024000D02*
X102362000Y-70104000D01*
X96012000Y-63468000D02*
X100806000Y-63468000D01*
%TO.N,Net-(J3-Pin_1)*%
X99314000Y-71628000D02*
X101092000Y-73406000D01*
X122682000Y-71120000D02*
X122682000Y-70104000D01*
X101092000Y-73406000D02*
X120396000Y-73406000D01*
X96012000Y-71628000D02*
X99314000Y-71628000D01*
X120396000Y-73406000D02*
X122682000Y-71120000D01*
%TO.N,Net-(J3-Pin_2)*%
X104902000Y-72390000D02*
X104902000Y-70104000D01*
%TO.N,Net-(J3-Pin_3)*%
X116650000Y-75628000D02*
X117602000Y-74676000D01*
X96012000Y-75628000D02*
X116650000Y-75628000D01*
%TO.N,Net-(J3-Pin_4)*%
X107950000Y-72644000D02*
X109474000Y-72644000D01*
X109474000Y-72644000D02*
X109982000Y-72136000D01*
X109982000Y-72136000D02*
X109982000Y-70104000D01*
%TO.N,Net-(J4-Pin_1)*%
X96012000Y-81788000D02*
X100076000Y-85852000D01*
X100076000Y-85852000D02*
X118110000Y-85852000D01*
%TO.N,Net-(J4-Pin_3)*%
X107442000Y-79052000D02*
X107442000Y-77724000D01*
X101732000Y-80068000D02*
X106426000Y-80068000D01*
X106426000Y-80068000D02*
X107442000Y-79052000D01*
X100012000Y-81788000D02*
X101732000Y-80068000D01*
%TO.N,Net-(J4-Pin_4)*%
X102012000Y-81788000D02*
X103282000Y-80518000D01*
X103282000Y-80518000D02*
X116078000Y-80518000D01*
X117602000Y-78994000D02*
X117602000Y-77724000D01*
X116078000Y-80518000D02*
X117602000Y-78994000D01*
%TO.N,Net-(J4-Pin_5)*%
X104012000Y-81788000D02*
X106044000Y-83820000D01*
X106044000Y-83820000D02*
X122682000Y-83820000D01*
X125222000Y-81280000D02*
X125222000Y-77724000D01*
X122682000Y-83820000D02*
X125222000Y-81280000D01*
%TO.N,Net-(J4-Pin_6)*%
X107536000Y-83312000D02*
X117856000Y-83312000D01*
X106012000Y-81788000D02*
X107536000Y-83312000D01*
X117856000Y-83312000D02*
X120142000Y-81026000D01*
X120142000Y-81026000D02*
X120142000Y-77724000D01*
%TO.N,Net-(J5-Pin_1)*%
X96012000Y-107458000D02*
X97716000Y-109162000D01*
X117026396Y-109162000D02*
X118052000Y-108136396D01*
X121557000Y-104503000D02*
X122682000Y-103378000D01*
X118052000Y-104960000D02*
X118509000Y-104503000D01*
X97716000Y-109162000D02*
X117026396Y-109162000D01*
X118052000Y-108136396D02*
X118052000Y-104960000D01*
X118509000Y-104503000D02*
X121557000Y-104503000D01*
%TO.N,Net-(J5-Pin_2)*%
X102362000Y-104742922D02*
X102362000Y-103378000D01*
X98012000Y-107458000D02*
X99457078Y-106012922D01*
X101092000Y-106012922D02*
X102362000Y-104742922D01*
X99457078Y-106012922D02*
X101092000Y-106012922D01*
%TO.N,Net-(J5-Pin_3)*%
X101278396Y-106462922D02*
X101823318Y-105918000D01*
X101007078Y-106462922D02*
X101278396Y-106462922D01*
X104902000Y-105918000D02*
X107442000Y-103378000D01*
X101823318Y-105918000D02*
X104902000Y-105918000D01*
X100012000Y-107458000D02*
X101007078Y-106462922D01*
%TO.N,Net-(J5-Pin_4)*%
X102012000Y-107458000D02*
X103266000Y-108712000D01*
X116840000Y-108712000D02*
X117602000Y-107950000D01*
X103266000Y-108712000D02*
X116840000Y-108712000D01*
X117602000Y-107950000D02*
X117602000Y-103378000D01*
%TO.N,Net-(J6-Pin_1)*%
X116602000Y-87138000D02*
X125222000Y-95758000D01*
X96012000Y-87138000D02*
X116602000Y-87138000D01*
%TO.N,Net-(J6-Pin_3)*%
X110442000Y-91138000D02*
X115062000Y-95758000D01*
X96012000Y-91138000D02*
X110442000Y-91138000D01*
%TO.N,Net-(J6-Pin_4)*%
X96012000Y-93138000D02*
X97562000Y-91588000D01*
X97562000Y-91588000D02*
X108352000Y-91588000D01*
X108352000Y-91588000D02*
X112522000Y-95758000D01*
%TO.N,Net-(J7-Pin_1)*%
X116332000Y-99568000D02*
X118872000Y-99568000D01*
X118872000Y-99568000D02*
X122682000Y-95758000D01*
%TO.N,Net-(J7-Pin_2)*%
X96012000Y-99298000D02*
X101362000Y-99298000D01*
X101362000Y-99298000D02*
X104902000Y-95758000D01*
%TO.N,Net-(J7-Pin_4)*%
X108966000Y-101092000D02*
X109982000Y-100076000D01*
X109982000Y-100076000D02*
X109982000Y-95758000D01*
X96012000Y-103298000D02*
X98218000Y-101092000D01*
X98218000Y-101092000D02*
X108966000Y-101092000D01*
%TO.N,Net-(J8-Pin_1)*%
X153934000Y-118882000D02*
X153934000Y-121930000D01*
X153924000Y-118872000D02*
X153934000Y-118882000D01*
X120904000Y-118364000D02*
X118618000Y-120650000D01*
X137414000Y-117348000D02*
X136398000Y-118364000D01*
X176540000Y-118882000D02*
X176540000Y-121930000D01*
X176530000Y-118872000D02*
X176540000Y-118882000D01*
X136398000Y-118364000D02*
X120904000Y-118364000D01*
%TO.N,Net-(J8-Pin_2)*%
X134874000Y-117094000D02*
X120142000Y-117094000D01*
X156474000Y-119644000D02*
X156464000Y-119634000D01*
X119634000Y-117602000D02*
X117602000Y-119634000D01*
X120142000Y-117094000D02*
X119634000Y-117602000D01*
X156474000Y-121930000D02*
X156474000Y-119644000D01*
X179070000Y-121920000D02*
X179080000Y-121930000D01*
X179070000Y-119634000D02*
X179070000Y-121920000D01*
%TO.N,Net-(J8-Pin_3)*%
X184160000Y-122946000D02*
X185928000Y-124714000D01*
X184160000Y-121930000D02*
X184160000Y-122946000D01*
%TO.N,Net-(J8-Pin_6)*%
X99822000Y-95758000D02*
X102616000Y-92964000D01*
X100468000Y-109612000D02*
X96356380Y-109612000D01*
X102044000Y-128270000D02*
X102044000Y-111188000D01*
X102044000Y-111188000D02*
X100468000Y-109612000D01*
X95742380Y-95758000D02*
X99822000Y-95758000D01*
X96356380Y-109612000D02*
X94996000Y-108251620D01*
X102616000Y-92964000D02*
X104140000Y-92964000D01*
X94996000Y-96504380D02*
X95742380Y-95758000D01*
X94996000Y-108251620D02*
X94996000Y-96504380D01*
%TO.N,Net-(J8-Pin_7)*%
X101092000Y-127222000D02*
X101092000Y-111506000D01*
X100044000Y-128270000D02*
X101092000Y-127222000D01*
%TO.N,Net-(J8-Pin_8)*%
X127000000Y-106934000D02*
X130556000Y-103378000D01*
X105156000Y-123952000D02*
X112014000Y-117094000D01*
X130556000Y-103378000D02*
X130556000Y-72898000D01*
X112014000Y-117094000D02*
X112014000Y-114300000D01*
X113792000Y-112522000D02*
X119380000Y-112522000D01*
X112014000Y-114300000D02*
X113792000Y-112522000D01*
X119380000Y-112522000D02*
X124968000Y-106934000D01*
X130556000Y-72898000D02*
X127762000Y-70104000D01*
X124968000Y-106934000D02*
X127000000Y-106934000D01*
%TO.N,Net-(U5-QA)*%
X173228000Y-51562000D02*
X166878000Y-57912000D01*
X166878000Y-57912000D02*
X163576000Y-57912000D01*
X182914000Y-56134000D02*
X178342000Y-51562000D01*
X178342000Y-51562000D02*
X173228000Y-51562000D01*
%TO.N,Net-(U3-QA)*%
X169164000Y-116860000D02*
X169164000Y-116840000D01*
X164094000Y-121930000D02*
X169164000Y-116860000D01*
%TO.N,Net-(U2-QA)*%
X186700000Y-121930000D02*
X191770000Y-116860000D01*
X191770000Y-112776000D02*
X189230000Y-110236000D01*
X191770000Y-116860000D02*
X191770000Y-112776000D01*
%TO.N,Net-(U2-QB)*%
X189230000Y-114300000D02*
X189240000Y-114310000D01*
X189240000Y-112786000D02*
X186690000Y-110236000D01*
X189240000Y-114310000D02*
X189240000Y-112786000D01*
%TO.N,Net-(U2-QC)*%
X186700000Y-112786000D02*
X184150000Y-110236000D01*
X186700000Y-114310000D02*
X186700000Y-112786000D01*
%TO.N,Net-(U2-QD)*%
X184160000Y-114310000D02*
X184160000Y-112786000D01*
X184160000Y-112786000D02*
X181610000Y-110236000D01*
%TO.N,Net-(U2-QE)*%
X181620000Y-112786000D02*
X179070000Y-110236000D01*
X181620000Y-114310000D02*
X181620000Y-112786000D01*
%TO.N,Net-(U2-QF)*%
X179080000Y-114310000D02*
X179080000Y-112786000D01*
X179080000Y-112786000D02*
X176530000Y-110236000D01*
%TO.N,Net-(U2-QG)*%
X176540000Y-114310000D02*
X176540000Y-112786000D01*
X176540000Y-112786000D02*
X173990000Y-110236000D01*
%TO.N,Net-(U2-QH)*%
X174000000Y-114310000D02*
X174000000Y-112786000D01*
X174000000Y-112786000D02*
X171450000Y-110236000D01*
%TO.N,Net-(U6-ISET)*%
X118364000Y-76200000D02*
X114046000Y-76200000D01*
X118872000Y-75692000D02*
X118364000Y-76200000D01*
X114046000Y-76200000D02*
X112522000Y-77724000D01*
%TO.N,Net-(U2-QH')*%
X161554000Y-121930000D02*
X161682396Y-121930000D01*
X169946000Y-123444000D02*
X171460000Y-121930000D01*
X161682396Y-121930000D02*
X163196396Y-123444000D01*
X163196396Y-123444000D02*
X169946000Y-123444000D01*
%TO.N,Net-(U4-QH')*%
X191008000Y-107188000D02*
X191008000Y-61214000D01*
X191008000Y-61214000D02*
X188468000Y-58674000D01*
X142494000Y-114300000D02*
X148336000Y-108458000D01*
X189738000Y-108458000D02*
X191008000Y-107188000D01*
X188468000Y-58674000D02*
X182914000Y-58674000D01*
X148336000Y-108458000D02*
X189738000Y-108458000D01*
%TO.N,Net-(J8-Pin_9)*%
X94546000Y-126772000D02*
X94546000Y-53314000D01*
X96044000Y-128270000D02*
X94546000Y-126772000D01*
X94546000Y-53314000D02*
X96552000Y-51308000D01*
%TO.N,Net-(J8-Pin_4)*%
X114172000Y-120142000D02*
X114386000Y-120142000D01*
X106044000Y-128270000D02*
X114172000Y-120142000D01*
%TD*%
M02*
