M48
; DRILL file {KiCad 7.0.8} date Sun Oct 15 17:50:04 2023
; FORMAT={-:-/ absolute / inch / decimal}
; #@! TF.CreationDate,2023-10-15T17:50:04-07:00
; #@! TF.GenerationSoftware,Kicad,Pcbnew,7.0.8
; #@! TF.FileFunction,MixedPlating,1,2
FMAT,2
INCH
; #@! TA.AperFunction,Plated,PTH,ViaDrill
T1C0.0157
; #@! TA.AperFunction,Plated,PTH,ComponentDrill
T2C0.0236
; #@! TA.AperFunction,Plated,PTH,ComponentDrill
T3C0.0276
; #@! TA.AperFunction,Plated,PTH,ComponentDrill
T4C0.0315
; #@! TA.AperFunction,Plated,PTH,ComponentDrill
T5C0.0354
; #@! TA.AperFunction,Plated,PTH,ComponentDrill
T6C0.0433
; #@! TA.AperFunction,NonPlated,NPTH,ComponentDrill
T7C0.0984
; #@! TA.AperFunction,NonPlated,NPTH,ComponentDrill
T8C0.1378
%
G90
G05
T1
X3.98Y-4.39
X4.1Y-3.66
X4.13Y-2.85
X4.14Y-4.88
X4.2Y-2.29
X4.25Y-2.86
X4.41Y-3.5
X4.53Y-2.85
X4.58Y-3.92
X4.63Y-2.94
X4.63Y-4.71
X4.65Y-3.38
X4.67Y-4.75
X4.68Y-2.98
X5.15Y-4.3
X5.31Y-4.61
X5.41Y-4.62
X5.9Y-4.65
X6.06Y-4.68
X6.16Y-4.71
X6.66Y-4.6
X6.95Y-4.68
X7.05Y-4.71
X7.32Y-4.91
T2
X4.4913Y-2.54
X4.5417Y-3.59
X4.57Y-2.54
X4.6204Y-3.59
X4.9104Y-4.3004
X4.9891Y-4.3004
X6.4817Y-5.0004
X6.5604Y-5.0004
X7.3717Y-5.0004
X7.4013Y-2.11
X7.4013Y-2.1887
X7.4504Y-5.0004
T3
X4.52Y-4.2
X4.7Y-2.64
X4.82Y-4.2
X5.0Y-2.64
X5.86Y-4.04
X5.86Y-4.34
X5.96Y-4.04
X5.96Y-4.34
X6.06Y-4.04
X6.06Y-4.34
X6.14Y-2.28
X6.14Y-2.38
X6.14Y-2.48
X6.14Y-2.58
X6.16Y-4.04
X6.16Y-4.34
X6.26Y-4.04
X6.26Y-4.34
X6.36Y-4.04
X6.36Y-4.34
X6.44Y-2.28
X6.44Y-2.38
X6.44Y-2.48
X6.44Y-2.58
X6.46Y-4.04
X6.46Y-4.34
X6.56Y-4.04
X6.56Y-4.34
X6.75Y-4.04
X6.75Y-4.34
X6.85Y-4.04
X6.85Y-4.34
X6.95Y-4.04
X6.95Y-4.34
X7.05Y-4.04
X7.05Y-4.34
X7.15Y-4.04
X7.15Y-4.34
X7.25Y-4.04
X7.25Y-4.34
X7.35Y-4.04
X7.35Y-4.34
X7.45Y-4.04
X7.45Y-4.34
T4
X3.78Y-2.42
X3.78Y-2.4987
X3.78Y-2.5775
X3.78Y-2.6562
X3.78Y-2.82
X3.78Y-2.8987
X3.78Y-2.9775
X3.78Y-3.0562
X3.78Y-3.22
X3.78Y-3.4306
X3.78Y-3.5094
X3.78Y-3.5881
X3.78Y-3.6669
X3.78Y-3.8306
X3.78Y-3.9094
X3.78Y-3.9881
X3.78Y-4.0669
X3.78Y-4.2306
X3.7813Y-5.05
X3.8013Y-2.02
X3.8587Y-3.22
X3.8587Y-4.2306
X3.86Y-5.05
X3.88Y-2.02
X3.93Y-2.76
X3.93Y-3.06
X3.93Y-3.77
X3.93Y-4.07
X3.9375Y-3.22
X3.9375Y-4.2306
X3.9387Y-5.05
X3.9587Y-2.02
X4.0162Y-3.22
X4.0162Y-4.2306
X4.0175Y-5.05
X4.03Y-2.76
X4.03Y-3.06
X4.03Y-3.77
X4.03Y-4.07
X4.0375Y-2.02
X4.095Y-3.22
X4.095Y-4.2306
X4.0962Y-5.05
X4.1162Y-2.02
X4.13Y-2.76
X4.13Y-3.06
X4.13Y-3.77
X4.13Y-4.07
X4.1737Y-3.22
X4.1737Y-4.2306
X4.175Y-5.05
X4.23Y-2.76
X4.23Y-3.06
X4.23Y-3.77
X4.23Y-4.07
X4.2524Y-3.22
X4.2524Y-4.2306
X4.2537Y-5.05
X4.33Y-2.76
X4.33Y-3.06
X4.33Y-3.77
X4.33Y-4.07
X4.3312Y-3.22
X4.3312Y-4.2306
X4.3324Y-5.05
X4.4112Y-5.05
X4.43Y-2.76
X4.43Y-3.06
X4.43Y-3.77
X4.43Y-4.07
X4.53Y-2.76
X4.53Y-3.06
X4.53Y-3.77
X4.53Y-4.07
X4.63Y-2.76
X4.63Y-3.06
X4.63Y-3.77
X4.63Y-4.07
X4.7213Y-5.05
X4.73Y-2.76
X4.73Y-3.06
X4.73Y-3.77
X4.73Y-4.07
X4.8001Y-5.05
X4.83Y-2.76
X4.83Y-3.06
X4.83Y-3.77
X4.83Y-4.07
X4.8788Y-5.05
X4.91Y-4.5
X4.91Y-4.8
X4.93Y-2.76
X4.93Y-3.06
X4.93Y-3.77
X4.93Y-4.07
X4.9576Y-5.05
X5.01Y-4.5
X5.01Y-4.8
X5.03Y-2.76
X5.03Y-3.06
X5.03Y-3.77
X5.03Y-4.07
X5.0363Y-5.05
X5.11Y-4.5
X5.11Y-4.8
X5.115Y-5.05
X5.1938Y-5.05
X5.21Y-4.5
X5.21Y-4.8
X5.2725Y-5.05
X5.31Y-4.5
X5.31Y-4.8
X5.3513Y-5.05
X5.41Y-4.5
X5.41Y-4.8
X5.43Y-5.05
X5.51Y-4.5
X5.51Y-4.8
X5.61Y-4.5
X5.61Y-4.8
X5.8604Y-4.5004
X5.8604Y-4.8004
X5.9604Y-4.5004
X5.9604Y-4.8004
X6.0604Y-4.5004
X6.0604Y-4.8004
X6.1604Y-4.5004
X6.1604Y-4.8004
X6.2604Y-4.5004
X6.2604Y-4.8004
X6.3604Y-4.5004
X6.3604Y-4.8004
X6.4604Y-4.5004
X6.4604Y-4.8004
X6.5604Y-4.5004
X6.5604Y-4.8004
X6.7504Y-4.5004
X6.7504Y-4.8004
X6.8504Y-4.5004
X6.8504Y-4.8004
X6.9013Y-2.11
X6.9013Y-2.21
X6.9013Y-2.31
X6.9013Y-2.41
X6.9013Y-2.51
X6.9013Y-2.61
X6.9013Y-2.71
X6.9013Y-2.81
X6.9504Y-4.5004
X6.9504Y-4.8004
X7.0504Y-4.5004
X7.0504Y-4.8004
X7.1504Y-4.5004
X7.1504Y-4.8004
X7.2013Y-2.11
X7.2013Y-2.21
X7.2013Y-2.31
X7.2013Y-2.41
X7.2013Y-2.51
X7.2013Y-2.61
X7.2013Y-2.71
X7.2013Y-2.81
X7.2504Y-4.5004
X7.2504Y-4.8004
X7.3504Y-4.5004
X7.3504Y-4.8004
X7.4504Y-4.5004
X7.4504Y-4.8004
T5
X5.28Y-2.1798
X5.28Y-2.2798
X5.28Y-2.4798
X5.28Y-2.5798
X5.28Y-2.7798
X5.28Y-2.8798
X5.28Y-3.0798
X5.28Y-3.1798
X5.28Y-3.42
X5.28Y-3.52
X5.28Y-3.72
X5.28Y-3.82
X5.58Y-3.42
X5.58Y-3.52
X5.58Y-3.72
X5.58Y-3.82
X5.88Y-3.42
X5.88Y-3.52
X5.88Y-3.72
X5.88Y-3.82
X6.18Y-3.42
X6.18Y-3.52
X6.18Y-3.72
X6.18Y-3.82
X6.48Y-3.42
X6.48Y-3.52
X6.48Y-3.72
X6.48Y-3.82
X6.78Y-3.42
X6.78Y-3.52
X6.78Y-3.72
X6.78Y-3.82
X7.08Y-3.42
X7.08Y-3.52
X7.08Y-3.72
X7.08Y-3.82
X7.38Y-3.42
X7.38Y-3.52
X7.38Y-3.72
X7.38Y-3.82
T6
X4.5034Y-4.53
X4.5034Y-4.63
X4.5034Y-4.73
T7
X5.44Y-4.19
X6.48Y-2.93
T8
X3.8475Y-4.63
T0
M30
