%TF.GenerationSoftware,KiCad,Pcbnew,7.0.8*%
%TF.CreationDate,2023-10-15T17:50:00-07:00*%
%TF.ProjectId,htpm_control_additional_info,6874706d-5f63-46f6-9e74-726f6c5f6164,1*%
%TF.SameCoordinates,Original*%
%TF.FileFunction,Soldermask,Top*%
%TF.FilePolarity,Negative*%
%FSLAX46Y46*%
G04 Gerber Fmt 4.6, Leading zero omitted, Abs format (unit mm)*
G04 Created by KiCad (PCBNEW 7.0.8) date 2023-10-15 17:50:00*
%MOMM*%
%LPD*%
G01*
G04 APERTURE LIST*
%ADD10R,1.350000X1.350000*%
%ADD11O,1.350000X1.350000*%
%ADD12R,1.800000X1.800000*%
%ADD13C,1.800000*%
%ADD14C,1.400000*%
%ADD15O,1.400000X1.400000*%
%ADD16R,1.200000X1.200000*%
%ADD17C,1.200000*%
%ADD18R,1.600000X1.600000*%
%ADD19O,1.600000X1.600000*%
%ADD20C,2.500000*%
%ADD21O,3.500000X3.500000*%
%ADD22R,2.000000X1.905000*%
%ADD23O,2.000000X1.905000*%
G04 APERTURE END LIST*
D10*
%TO.C,J3*%
X96012000Y-71628000D03*
D11*
X96012000Y-73628000D03*
X96012000Y-75628000D03*
X96012000Y-77628000D03*
%TD*%
D12*
%TO.C,D2*%
X134112000Y-62987000D03*
D13*
X134112000Y-65527000D03*
%TD*%
D12*
%TO.C,D13*%
X187452000Y-94488000D03*
D13*
X187452000Y-97028000D03*
%TD*%
D14*
%TO.C,R22*%
X122428000Y-106680000D03*
D15*
X114808000Y-106680000D03*
%TD*%
D12*
%TO.C,D17*%
X156972000Y-94488000D03*
D13*
X156972000Y-97028000D03*
%TD*%
D12*
%TO.C,D18*%
X149352000Y-94488000D03*
D13*
X149352000Y-97028000D03*
%TD*%
D14*
%TO.C,R8*%
X159004000Y-110236000D03*
D15*
X159004000Y-102616000D03*
%TD*%
D16*
%TO.C,C4*%
X187994000Y-53594000D03*
D17*
X187994000Y-55594000D03*
%TD*%
D14*
%TO.C,R13*%
X189230000Y-110236000D03*
D15*
X189230000Y-102616000D03*
%TD*%
D18*
%TO.C,U3*%
X166634000Y-114310000D03*
D19*
X164094000Y-114310000D03*
X161554000Y-114310000D03*
X159014000Y-114310000D03*
X156474000Y-114310000D03*
X153934000Y-114310000D03*
X151394000Y-114310000D03*
X148854000Y-114310000D03*
X148854000Y-121930000D03*
X151394000Y-121930000D03*
X153934000Y-121930000D03*
X156474000Y-121930000D03*
X159014000Y-121930000D03*
X161554000Y-121930000D03*
X164094000Y-121930000D03*
X166634000Y-121930000D03*
%TD*%
D12*
%TO.C,D19*%
X141732000Y-94488000D03*
D13*
X141732000Y-97028000D03*
%TD*%
D12*
%TO.C,D20*%
X134112000Y-94488000D03*
D13*
X134112000Y-97028000D03*
%TD*%
D20*
%TO.C,H2*%
X138176000Y-106426000D03*
%TD*%
D12*
%TO.C,D3*%
X134112000Y-70607000D03*
D13*
X134112000Y-73147000D03*
%TD*%
D18*
%TO.C,U2*%
X189240000Y-114310000D03*
D19*
X186700000Y-114310000D03*
X184160000Y-114310000D03*
X181620000Y-114310000D03*
X179080000Y-114310000D03*
X176540000Y-114310000D03*
X174000000Y-114310000D03*
X171460000Y-114310000D03*
X171460000Y-121930000D03*
X174000000Y-121930000D03*
X176540000Y-121930000D03*
X179080000Y-121930000D03*
X181620000Y-121930000D03*
X184160000Y-121930000D03*
X186700000Y-121930000D03*
X189240000Y-121930000D03*
%TD*%
D12*
%TO.C,D12*%
X134112000Y-89408000D03*
D13*
X134112000Y-86868000D03*
%TD*%
D14*
%TO.C,R1*%
X163576000Y-57912000D03*
D15*
X155956000Y-57912000D03*
%TD*%
D10*
%TO.C,J1*%
X119922000Y-128270000D03*
D11*
X121922000Y-128270000D03*
X123922000Y-128270000D03*
X125922000Y-128270000D03*
X127922000Y-128270000D03*
X129922000Y-128270000D03*
X131922000Y-128270000D03*
X133922000Y-128270000D03*
X135922000Y-128270000D03*
X137922000Y-128270000D03*
%TD*%
D20*
%TO.C,H1*%
X164592000Y-74422000D03*
%TD*%
D14*
%TO.C,R12*%
X148844000Y-110236000D03*
D15*
X148844000Y-102616000D03*
%TD*%
D16*
%TO.C,C1*%
X189240000Y-127010000D03*
D17*
X187240000Y-127010000D03*
%TD*%
D14*
%TO.C,R21*%
X119380000Y-67056000D03*
D15*
X127000000Y-67056000D03*
%TD*%
D21*
%TO.C,U1*%
X97726000Y-117602000D03*
D22*
X114386000Y-120142000D03*
D23*
X114386000Y-117602000D03*
X114386000Y-115062000D03*
%TD*%
D14*
%TO.C,R10*%
X153924000Y-110236000D03*
D15*
X153924000Y-102616000D03*
%TD*%
D16*
%TO.C,C2*%
X166634000Y-127010000D03*
D17*
X164634000Y-127010000D03*
%TD*%
D10*
%TO.C,J2*%
X96012000Y-61468000D03*
D11*
X96012000Y-63468000D03*
X96012000Y-65468000D03*
X96012000Y-67468000D03*
%TD*%
D14*
%TO.C,R11*%
X151384000Y-110236000D03*
D15*
X151384000Y-102616000D03*
%TD*%
D14*
%TO.C,R17*%
X179070000Y-110236000D03*
D15*
X179070000Y-102616000D03*
%TD*%
D12*
%TO.C,D10*%
X149352000Y-89408000D03*
D13*
X149352000Y-86868000D03*
%TD*%
D16*
%TO.C,C6*%
X115359401Y-91186000D03*
D17*
X117359401Y-91186000D03*
%TD*%
D12*
%TO.C,D8*%
X164592000Y-89408000D03*
D13*
X164592000Y-86868000D03*
%TD*%
D14*
%TO.C,R5*%
X166624000Y-110236000D03*
D15*
X166624000Y-102616000D03*
%TD*%
D12*
%TO.C,D7*%
X172212000Y-89408000D03*
D13*
X172212000Y-86868000D03*
%TD*%
D12*
%TO.C,D16*%
X164592000Y-94488000D03*
D13*
X164592000Y-97028000D03*
%TD*%
D14*
%TO.C,R7*%
X161544000Y-110236000D03*
D15*
X161544000Y-102616000D03*
%TD*%
D18*
%TO.C,U5*%
X175294000Y-53594000D03*
D19*
X175294000Y-56134000D03*
X175294000Y-58674000D03*
X175294000Y-61214000D03*
X175294000Y-63754000D03*
X175294000Y-66294000D03*
X175294000Y-68834000D03*
X175294000Y-71374000D03*
X182914000Y-71374000D03*
X182914000Y-68834000D03*
X182914000Y-66294000D03*
X182914000Y-63754000D03*
X182914000Y-61214000D03*
X182914000Y-58674000D03*
X182914000Y-56134000D03*
X182914000Y-53594000D03*
%TD*%
D12*
%TO.C,D14*%
X179832000Y-94488000D03*
D13*
X179832000Y-97028000D03*
%TD*%
D18*
%TO.C,U7*%
X127762000Y-95758000D03*
D19*
X125222000Y-95758000D03*
X122682000Y-95758000D03*
X120142000Y-95758000D03*
X117602000Y-95758000D03*
X115062000Y-95758000D03*
X112522000Y-95758000D03*
X109982000Y-95758000D03*
X107442000Y-95758000D03*
X104902000Y-95758000D03*
X102362000Y-95758000D03*
X99822000Y-95758000D03*
X99822000Y-103378000D03*
X102362000Y-103378000D03*
X104902000Y-103378000D03*
X107442000Y-103378000D03*
X109982000Y-103378000D03*
X112522000Y-103378000D03*
X115062000Y-103378000D03*
X117602000Y-103378000D03*
X120142000Y-103378000D03*
X122682000Y-103378000D03*
X125222000Y-103378000D03*
X127762000Y-103378000D03*
%TD*%
D14*
%TO.C,R18*%
X176530000Y-110236000D03*
D15*
X176530000Y-102616000D03*
%TD*%
D12*
%TO.C,D6*%
X179832000Y-89408000D03*
D13*
X179832000Y-86868000D03*
%TD*%
D14*
%TO.C,R2*%
X163576000Y-60452000D03*
D15*
X155956000Y-60452000D03*
%TD*%
D10*
%TO.C,J5*%
X96012000Y-107458000D03*
D11*
X98012000Y-107458000D03*
X100012000Y-107458000D03*
X102012000Y-107458000D03*
X104012000Y-107458000D03*
X106012000Y-107458000D03*
X108012000Y-107458000D03*
X110012000Y-107458000D03*
%TD*%
D18*
%TO.C,U4*%
X124714000Y-121920000D03*
D19*
X127254000Y-121920000D03*
X129794000Y-121920000D03*
X132334000Y-121920000D03*
X134874000Y-121920000D03*
X137414000Y-121920000D03*
X139954000Y-121920000D03*
X142494000Y-121920000D03*
X142494000Y-114300000D03*
X139954000Y-114300000D03*
X137414000Y-114300000D03*
X134874000Y-114300000D03*
X132334000Y-114300000D03*
X129794000Y-114300000D03*
X127254000Y-114300000D03*
X124714000Y-114300000D03*
%TD*%
D16*
%TO.C,C5*%
X116078000Y-64516000D03*
D17*
X114078000Y-64516000D03*
%TD*%
D10*
%TO.C,J9*%
X96552000Y-51308000D03*
D11*
X98552000Y-51308000D03*
X100552000Y-51308000D03*
X102552000Y-51308000D03*
X104552000Y-51308000D03*
%TD*%
D14*
%TO.C,R15*%
X184150000Y-110236000D03*
D15*
X184150000Y-102616000D03*
%TD*%
D14*
%TO.C,R16*%
X181610000Y-110236000D03*
D15*
X181610000Y-102616000D03*
%TD*%
D10*
%TO.C,J7*%
X96012000Y-97298000D03*
D11*
X96012000Y-99298000D03*
X96012000Y-101298000D03*
X96012000Y-103298000D03*
%TD*%
D10*
%TO.C,J4*%
X96012000Y-81788000D03*
D11*
X98012000Y-81788000D03*
X100012000Y-81788000D03*
X102012000Y-81788000D03*
X104012000Y-81788000D03*
X106012000Y-81788000D03*
X108012000Y-81788000D03*
X110012000Y-81788000D03*
%TD*%
%TO.C,J8*%
X96044000Y-128270000D03*
X98044000Y-128270000D03*
X100044000Y-128270000D03*
X102044000Y-128270000D03*
X104044000Y-128270000D03*
X106044000Y-128270000D03*
X108044000Y-128270000D03*
X110044000Y-128270000D03*
D10*
X112044000Y-128270000D03*
%TD*%
D12*
%TO.C,D4*%
X134112000Y-78227000D03*
D13*
X134112000Y-80767000D03*
%TD*%
D12*
%TO.C,D15*%
X172212000Y-94488000D03*
D13*
X172212000Y-97028000D03*
%TD*%
D14*
%TO.C,R3*%
X163576000Y-62992000D03*
D15*
X155956000Y-62992000D03*
%TD*%
D12*
%TO.C,D1*%
X134112000Y-55367000D03*
D13*
X134112000Y-57907000D03*
%TD*%
D14*
%TO.C,R6*%
X164084000Y-110236000D03*
D15*
X164084000Y-102616000D03*
%TD*%
D14*
%TO.C,R20*%
X171450000Y-110236000D03*
D15*
X171450000Y-102616000D03*
%TD*%
D14*
%TO.C,R19*%
X173990000Y-110236000D03*
D15*
X173990000Y-102616000D03*
%TD*%
D12*
%TO.C,D5*%
X187452000Y-89408000D03*
D13*
X187452000Y-86868000D03*
%TD*%
D10*
%TO.C,J6*%
X96012000Y-87138000D03*
D11*
X96012000Y-89138000D03*
X96012000Y-91138000D03*
X96012000Y-93138000D03*
%TD*%
D16*
%TO.C,C3*%
X124724000Y-109230000D03*
D17*
X126724000Y-109230000D03*
%TD*%
D14*
%TO.C,R4*%
X163576000Y-65532000D03*
D15*
X155956000Y-65532000D03*
%TD*%
D12*
%TO.C,D9*%
X156972000Y-89408000D03*
D13*
X156972000Y-86868000D03*
%TD*%
D14*
%TO.C,R9*%
X156464000Y-110236000D03*
D15*
X156464000Y-102616000D03*
%TD*%
D12*
%TO.C,D11*%
X141732000Y-89408000D03*
D13*
X141732000Y-86868000D03*
%TD*%
D18*
%TO.C,U6*%
X127762000Y-70104000D03*
D19*
X125222000Y-70104000D03*
X122682000Y-70104000D03*
X120142000Y-70104000D03*
X117602000Y-70104000D03*
X115062000Y-70104000D03*
X112522000Y-70104000D03*
X109982000Y-70104000D03*
X107442000Y-70104000D03*
X104902000Y-70104000D03*
X102362000Y-70104000D03*
X99822000Y-70104000D03*
X99822000Y-77724000D03*
X102362000Y-77724000D03*
X104902000Y-77724000D03*
X107442000Y-77724000D03*
X109982000Y-77724000D03*
X112522000Y-77724000D03*
X115062000Y-77724000D03*
X117602000Y-77724000D03*
X120142000Y-77724000D03*
X122682000Y-77724000D03*
X125222000Y-77724000D03*
X127762000Y-77724000D03*
%TD*%
D14*
%TO.C,R14*%
X186690000Y-110236000D03*
D15*
X186690000Y-102616000D03*
%TD*%
M02*
