M48
; DRILL file {KiCad 7.0.7} date Sat Sep 23 02:03:27 2023
; FORMAT={-:-/ absolute / inch / decimal}
; #@! TF.CreationDate,2023-09-23T02:03:27-07:00
; #@! TF.GenerationSoftware,Kicad,Pcbnew,7.0.7
; #@! TF.FileFunction,MixedPlating,1,2
FMAT,2
INCH
; #@! TA.AperFunction,Plated,PTH,ViaDrill
T1C0.0157
; #@! TA.AperFunction,Plated,PTH,ComponentDrill
T2C0.0236
; #@! TA.AperFunction,Plated,PTH,ComponentDrill
T3C0.0276
; #@! TA.AperFunction,Plated,PTH,ComponentDrill
T4C0.0315
; #@! TA.AperFunction,Plated,PTH,ComponentDrill
T5C0.0394
; #@! TA.AperFunction,Plated,PTH,ComponentDrill
T6C0.0433
; #@! TA.AperFunction,NonPlated,NPTH,ComponentDrill
T7C0.1378
%
G90
G05
T1
X4.4Y-4.6
X4.8Y-3.2
X4.9Y-2.0
X5.2Y-2.6
X5.4Y-2.5
X5.7Y-2.5
X5.7Y-2.6
X5.7Y-4.3
X6.1Y-1.4
X6.1Y-1.5
X6.1Y-1.6
X6.6Y-1.4
X6.6Y-2.0
X6.7Y-1.2
X6.7Y-2.0
X6.7Y-3.7
X7.03Y-4.04
X7.3Y-1.8
X7.3Y-1.9
X7.4Y-3.82
X7.42Y-3.57
X7.8Y-2.7
X8.0Y-2.9
X8.0Y-3.1
T2
X4.4276Y-3.213
X4.4276Y-3.2917
X6.5496Y-2.7
X6.5496Y-2.7787
X7.8724Y-2.2083
X7.8724Y-2.287
T3
X4.5Y-1.175
X4.5Y-1.475
X4.55Y-4.1
X4.55Y-4.2
X4.55Y-4.3
X4.55Y-4.4
X4.6Y-1.175
X4.6Y-1.475
X4.7Y-1.175
X4.7Y-1.475
X4.8Y-1.175
X4.8Y-1.475
X4.85Y-4.1
X4.85Y-4.2
X4.85Y-4.3
X4.85Y-4.4
X5.8496Y-2.1
X5.8496Y-2.4
X7.425Y-1.1
X7.425Y-1.2
X7.425Y-1.3
X7.425Y-1.4
X7.5Y-4.0
X7.5Y-4.3
X7.6Y-4.0
X7.6Y-4.3
X7.7Y-4.0
X7.7Y-4.3
X7.725Y-1.1
X7.725Y-1.2
X7.725Y-1.3
X7.725Y-1.4
X7.8Y-4.0
X7.8Y-4.3
T4
X4.4Y-1.7
X4.4Y-1.7787
X4.4Y-1.8575
X4.4Y-1.9362
X4.4Y-2.015
X4.4Y-2.0937
X4.6276Y-2.5917
X4.6276Y-2.6917
X4.6276Y-2.7917
X4.6276Y-2.8917
X4.6276Y-2.9917
X4.6276Y-3.0917
X4.6276Y-3.1917
X4.6276Y-3.2917
X4.9276Y-2.5917
X4.9276Y-2.6917
X4.9276Y-2.7917
X4.9276Y-2.8917
X4.9276Y-2.9917
X4.9276Y-3.0917
X4.9276Y-3.1917
X4.9276Y-3.2917
X5.4496Y-2.9
X5.4512Y-3.1
X5.5Y-1.0
X5.548Y-2.9
X5.5496Y-3.1
X5.5787Y-1.0
X5.6575Y-1.0
X5.7362Y-1.0
X5.7496Y-2.9
X5.7496Y-3.0921
X5.815Y-1.0
X5.8937Y-1.0
X6.0Y-2.1
X6.0Y-2.2
X6.0Y-2.3
X6.0Y-2.4
X6.0Y-2.5
X6.0Y-2.6
X6.0Y-2.7
X6.0Y-2.8
X6.0Y-2.9
X6.0Y-3.0
X6.0Y-3.1
X6.0Y-3.2
X6.0Y-3.3
X6.0Y-3.4
X6.3Y-2.1
X6.3Y-2.2
X6.3Y-2.3
X6.3Y-2.4
X6.3Y-2.5
X6.3Y-2.6
X6.3Y-2.7
X6.3Y-2.8
X6.3Y-2.9
X6.3Y-3.0
X6.3Y-3.1
X6.3Y-3.2
X6.3Y-3.3
X6.3Y-3.4
X6.4063Y-4.5
X6.4213Y-1.0
X6.485Y-4.5
X6.5Y-1.0
X6.5638Y-4.5
X6.6425Y-4.5
X6.7213Y-4.5
X6.8Y-4.5
X7.3724Y-2.2083
X7.3724Y-2.3083
X7.3724Y-2.4083
X7.3724Y-2.5083
X7.3724Y-2.6083
X7.3724Y-2.7083
X7.3724Y-2.8083
X7.3724Y-2.9083
X7.6724Y-2.2083
X7.6724Y-2.3083
X7.6724Y-2.4083
X7.6724Y-2.5083
X7.6724Y-2.6083
X7.6724Y-2.7083
X7.6724Y-2.8083
X7.6724Y-2.9083
X7.9Y-3.4063
X7.9Y-3.485
X7.9Y-3.5638
X7.9Y-3.6425
X7.9Y-3.7213
X7.9Y-3.8
T5
X4.4Y-3.6
X4.4Y-3.7
X4.4Y-3.8
X4.4Y-3.9
X4.4Y-4.1
X4.4Y-4.2
X4.4Y-4.3
X4.4Y-4.4
X4.5Y-1.025
X4.6Y-1.025
X4.7Y-1.025
X4.8Y-1.025
X5.0Y-1.025
X5.1Y-1.025
X5.2Y-1.025
X5.3Y-1.025
X6.9Y-2.0
X6.9Y-2.1
X6.9Y-2.2
X6.9Y-2.3
X6.9Y-2.4
X6.9Y-2.5
X6.9Y-2.6
X6.9Y-2.7
X6.9Y-2.8
X6.9Y-2.9
X6.9Y-3.0
X6.9Y-3.1
X6.9Y-3.2
X6.9Y-3.3
X6.9Y-3.4
X7.0Y-4.45
X7.1Y-4.45
X7.2Y-4.45
X7.3Y-4.45
X7.5Y-4.45
X7.6Y-4.45
X7.7Y-4.45
X7.8Y-4.45
X7.875Y-1.1
X7.875Y-1.2
X7.875Y-1.3
X7.875Y-1.4
X7.875Y-1.6
X7.875Y-1.7
X7.875Y-1.8
X7.875Y-1.9
T6
X5.6Y-4.1
X5.7Y-4.1
X5.8Y-4.1
T7
X5.7Y-3.4441
T0
M30
