%TF.GenerationSoftware,KiCad,Pcbnew,7.0.8*%
%TF.CreationDate,2023-10-23T01:27:40-07:00*%
%TF.ProjectId,motherboard,6d6f7468-6572-4626-9f61-72642e6b6963,1*%
%TF.SameCoordinates,Original*%
%TF.FileFunction,Legend,Top*%
%TF.FilePolarity,Positive*%
%FSLAX46Y46*%
G04 Gerber Fmt 4.6, Leading zero omitted, Abs format (unit mm)*
G04 Created by KiCad (PCBNEW 7.0.8) date 2023-10-23 01:27:40*
%MOMM*%
%LPD*%
G01*
G04 APERTURE LIST*
%ADD10C,0.150000*%
%ADD11C,0.300000*%
%ADD12C,0.120000*%
G04 APERTURE END LIST*
D10*
X182749819Y-108989523D02*
X181749819Y-108989523D01*
X181749819Y-108989523D02*
X181749819Y-108608571D01*
X181749819Y-108608571D02*
X181797438Y-108513333D01*
X181797438Y-108513333D02*
X181845057Y-108465714D01*
X181845057Y-108465714D02*
X181940295Y-108418095D01*
X181940295Y-108418095D02*
X182083152Y-108418095D01*
X182083152Y-108418095D02*
X182178390Y-108465714D01*
X182178390Y-108465714D02*
X182226009Y-108513333D01*
X182226009Y-108513333D02*
X182273628Y-108608571D01*
X182273628Y-108608571D02*
X182273628Y-108989523D01*
X181749819Y-107799047D02*
X181749819Y-107608571D01*
X181749819Y-107608571D02*
X181797438Y-107513333D01*
X181797438Y-107513333D02*
X181892676Y-107418095D01*
X181892676Y-107418095D02*
X182083152Y-107370476D01*
X182083152Y-107370476D02*
X182416485Y-107370476D01*
X182416485Y-107370476D02*
X182606961Y-107418095D01*
X182606961Y-107418095D02*
X182702200Y-107513333D01*
X182702200Y-107513333D02*
X182749819Y-107608571D01*
X182749819Y-107608571D02*
X182749819Y-107799047D01*
X182749819Y-107799047D02*
X182702200Y-107894285D01*
X182702200Y-107894285D02*
X182606961Y-107989523D01*
X182606961Y-107989523D02*
X182416485Y-108037142D01*
X182416485Y-108037142D02*
X182083152Y-108037142D01*
X182083152Y-108037142D02*
X181892676Y-107989523D01*
X181892676Y-107989523D02*
X181797438Y-107894285D01*
X181797438Y-107894285D02*
X181749819Y-107799047D01*
X181749819Y-107037142D02*
X182749819Y-106799047D01*
X182749819Y-106799047D02*
X182035533Y-106608571D01*
X182035533Y-106608571D02*
X182749819Y-106418095D01*
X182749819Y-106418095D02*
X181749819Y-106180000D01*
X182226009Y-105799047D02*
X182226009Y-105465714D01*
X182749819Y-105322857D02*
X182749819Y-105799047D01*
X182749819Y-105799047D02*
X181749819Y-105799047D01*
X181749819Y-105799047D02*
X181749819Y-105322857D01*
X182749819Y-104322857D02*
X182273628Y-104656190D01*
X182749819Y-104894285D02*
X181749819Y-104894285D01*
X181749819Y-104894285D02*
X181749819Y-104513333D01*
X181749819Y-104513333D02*
X181797438Y-104418095D01*
X181797438Y-104418095D02*
X181845057Y-104370476D01*
X181845057Y-104370476D02*
X181940295Y-104322857D01*
X181940295Y-104322857D02*
X182083152Y-104322857D01*
X182083152Y-104322857D02*
X182178390Y-104370476D01*
X182178390Y-104370476D02*
X182226009Y-104418095D01*
X182226009Y-104418095D02*
X182273628Y-104513333D01*
X182273628Y-104513333D02*
X182273628Y-104894285D01*
X182749819Y-97453220D02*
X181749819Y-97453220D01*
X181749819Y-97453220D02*
X181749819Y-97215125D01*
X181749819Y-97215125D02*
X181797438Y-97072268D01*
X181797438Y-97072268D02*
X181892676Y-96977030D01*
X181892676Y-96977030D02*
X181987914Y-96929411D01*
X181987914Y-96929411D02*
X182178390Y-96881792D01*
X182178390Y-96881792D02*
X182321247Y-96881792D01*
X182321247Y-96881792D02*
X182511723Y-96929411D01*
X182511723Y-96929411D02*
X182606961Y-96977030D01*
X182606961Y-96977030D02*
X182702200Y-97072268D01*
X182702200Y-97072268D02*
X182749819Y-97215125D01*
X182749819Y-97215125D02*
X182749819Y-97453220D01*
X182749819Y-96453220D02*
X181749819Y-96453220D01*
X182702200Y-96024649D02*
X182749819Y-95881792D01*
X182749819Y-95881792D02*
X182749819Y-95643697D01*
X182749819Y-95643697D02*
X182702200Y-95548459D01*
X182702200Y-95548459D02*
X182654580Y-95500840D01*
X182654580Y-95500840D02*
X182559342Y-95453221D01*
X182559342Y-95453221D02*
X182464104Y-95453221D01*
X182464104Y-95453221D02*
X182368866Y-95500840D01*
X182368866Y-95500840D02*
X182321247Y-95548459D01*
X182321247Y-95548459D02*
X182273628Y-95643697D01*
X182273628Y-95643697D02*
X182226009Y-95834173D01*
X182226009Y-95834173D02*
X182178390Y-95929411D01*
X182178390Y-95929411D02*
X182130771Y-95977030D01*
X182130771Y-95977030D02*
X182035533Y-96024649D01*
X182035533Y-96024649D02*
X181940295Y-96024649D01*
X181940295Y-96024649D02*
X181845057Y-95977030D01*
X181845057Y-95977030D02*
X181797438Y-95929411D01*
X181797438Y-95929411D02*
X181749819Y-95834173D01*
X181749819Y-95834173D02*
X181749819Y-95596078D01*
X181749819Y-95596078D02*
X181797438Y-95453221D01*
X182749819Y-95024649D02*
X181749819Y-95024649D01*
X181749819Y-95024649D02*
X181749819Y-94643697D01*
X181749819Y-94643697D02*
X181797438Y-94548459D01*
X181797438Y-94548459D02*
X181845057Y-94500840D01*
X181845057Y-94500840D02*
X181940295Y-94453221D01*
X181940295Y-94453221D02*
X182083152Y-94453221D01*
X182083152Y-94453221D02*
X182178390Y-94500840D01*
X182178390Y-94500840D02*
X182226009Y-94548459D01*
X182226009Y-94548459D02*
X182273628Y-94643697D01*
X182273628Y-94643697D02*
X182273628Y-95024649D01*
X182749819Y-93548459D02*
X182749819Y-94024649D01*
X182749819Y-94024649D02*
X181749819Y-94024649D01*
X182464104Y-93262744D02*
X182464104Y-92786554D01*
X182749819Y-93357982D02*
X181749819Y-93024649D01*
X181749819Y-93024649D02*
X182749819Y-92691316D01*
X182273628Y-92167506D02*
X182749819Y-92167506D01*
X181749819Y-92500839D02*
X182273628Y-92167506D01*
X182273628Y-92167506D02*
X181749819Y-91834173D01*
X110826779Y-123059819D02*
X110826779Y-122059819D01*
X110826779Y-122059819D02*
X111160112Y-122774104D01*
X111160112Y-122774104D02*
X111493445Y-122059819D01*
X111493445Y-122059819D02*
X111493445Y-123059819D01*
X111969636Y-123059819D02*
X111969636Y-122059819D01*
X111969636Y-122059819D02*
X112207731Y-122059819D01*
X112207731Y-122059819D02*
X112350588Y-122107438D01*
X112350588Y-122107438D02*
X112445826Y-122202676D01*
X112445826Y-122202676D02*
X112493445Y-122297914D01*
X112493445Y-122297914D02*
X112541064Y-122488390D01*
X112541064Y-122488390D02*
X112541064Y-122631247D01*
X112541064Y-122631247D02*
X112493445Y-122821723D01*
X112493445Y-122821723D02*
X112445826Y-122916961D01*
X112445826Y-122916961D02*
X112350588Y-123012200D01*
X112350588Y-123012200D02*
X112207731Y-123059819D01*
X112207731Y-123059819D02*
X111969636Y-123059819D01*
X114302969Y-122964580D02*
X114255350Y-123012200D01*
X114255350Y-123012200D02*
X114112493Y-123059819D01*
X114112493Y-123059819D02*
X114017255Y-123059819D01*
X114017255Y-123059819D02*
X113874398Y-123012200D01*
X113874398Y-123012200D02*
X113779160Y-122916961D01*
X113779160Y-122916961D02*
X113731541Y-122821723D01*
X113731541Y-122821723D02*
X113683922Y-122631247D01*
X113683922Y-122631247D02*
X113683922Y-122488390D01*
X113683922Y-122488390D02*
X113731541Y-122297914D01*
X113731541Y-122297914D02*
X113779160Y-122202676D01*
X113779160Y-122202676D02*
X113874398Y-122107438D01*
X113874398Y-122107438D02*
X114017255Y-122059819D01*
X114017255Y-122059819D02*
X114112493Y-122059819D01*
X114112493Y-122059819D02*
X114255350Y-122107438D01*
X114255350Y-122107438D02*
X114302969Y-122155057D01*
X114922017Y-122059819D02*
X115112493Y-122059819D01*
X115112493Y-122059819D02*
X115207731Y-122107438D01*
X115207731Y-122107438D02*
X115302969Y-122202676D01*
X115302969Y-122202676D02*
X115350588Y-122393152D01*
X115350588Y-122393152D02*
X115350588Y-122726485D01*
X115350588Y-122726485D02*
X115302969Y-122916961D01*
X115302969Y-122916961D02*
X115207731Y-123012200D01*
X115207731Y-123012200D02*
X115112493Y-123059819D01*
X115112493Y-123059819D02*
X114922017Y-123059819D01*
X114922017Y-123059819D02*
X114826779Y-123012200D01*
X114826779Y-123012200D02*
X114731541Y-122916961D01*
X114731541Y-122916961D02*
X114683922Y-122726485D01*
X114683922Y-122726485D02*
X114683922Y-122393152D01*
X114683922Y-122393152D02*
X114731541Y-122202676D01*
X114731541Y-122202676D02*
X114826779Y-122107438D01*
X114826779Y-122107438D02*
X114922017Y-122059819D01*
X115779160Y-123059819D02*
X115779160Y-122059819D01*
X115779160Y-122059819D02*
X116350588Y-123059819D01*
X116350588Y-123059819D02*
X116350588Y-122059819D01*
X116683922Y-122059819D02*
X117255350Y-122059819D01*
X116969636Y-123059819D02*
X116969636Y-122059819D01*
X118160112Y-123059819D02*
X117826779Y-122583628D01*
X117588684Y-123059819D02*
X117588684Y-122059819D01*
X117588684Y-122059819D02*
X117969636Y-122059819D01*
X117969636Y-122059819D02*
X118064874Y-122107438D01*
X118064874Y-122107438D02*
X118112493Y-122155057D01*
X118112493Y-122155057D02*
X118160112Y-122250295D01*
X118160112Y-122250295D02*
X118160112Y-122393152D01*
X118160112Y-122393152D02*
X118112493Y-122488390D01*
X118112493Y-122488390D02*
X118064874Y-122536009D01*
X118064874Y-122536009D02*
X117969636Y-122583628D01*
X117969636Y-122583628D02*
X117588684Y-122583628D01*
X118779160Y-122059819D02*
X118969636Y-122059819D01*
X118969636Y-122059819D02*
X119064874Y-122107438D01*
X119064874Y-122107438D02*
X119160112Y-122202676D01*
X119160112Y-122202676D02*
X119207731Y-122393152D01*
X119207731Y-122393152D02*
X119207731Y-122726485D01*
X119207731Y-122726485D02*
X119160112Y-122916961D01*
X119160112Y-122916961D02*
X119064874Y-123012200D01*
X119064874Y-123012200D02*
X118969636Y-123059819D01*
X118969636Y-123059819D02*
X118779160Y-123059819D01*
X118779160Y-123059819D02*
X118683922Y-123012200D01*
X118683922Y-123012200D02*
X118588684Y-122916961D01*
X118588684Y-122916961D02*
X118541065Y-122726485D01*
X118541065Y-122726485D02*
X118541065Y-122393152D01*
X118541065Y-122393152D02*
X118588684Y-122202676D01*
X118588684Y-122202676D02*
X118683922Y-122107438D01*
X118683922Y-122107438D02*
X118779160Y-122059819D01*
X120112493Y-123059819D02*
X119636303Y-123059819D01*
X119636303Y-123059819D02*
X119636303Y-122059819D01*
X131146779Y-68449819D02*
X131146779Y-67449819D01*
X131146779Y-67449819D02*
X131527731Y-67449819D01*
X131527731Y-67449819D02*
X131622969Y-67497438D01*
X131622969Y-67497438D02*
X131670588Y-67545057D01*
X131670588Y-67545057D02*
X131718207Y-67640295D01*
X131718207Y-67640295D02*
X131718207Y-67783152D01*
X131718207Y-67783152D02*
X131670588Y-67878390D01*
X131670588Y-67878390D02*
X131622969Y-67926009D01*
X131622969Y-67926009D02*
X131527731Y-67973628D01*
X131527731Y-67973628D02*
X131146779Y-67973628D01*
X132146779Y-68449819D02*
X132146779Y-67449819D01*
X133384874Y-68449819D02*
X133384874Y-67449819D01*
X133384874Y-67926009D02*
X133956302Y-67926009D01*
X133956302Y-68449819D02*
X133956302Y-67449819D01*
X134432493Y-67926009D02*
X134765826Y-67926009D01*
X134908683Y-68449819D02*
X134432493Y-68449819D01*
X134432493Y-68449819D02*
X134432493Y-67449819D01*
X134432493Y-67449819D02*
X134908683Y-67449819D01*
X135289636Y-68164104D02*
X135765826Y-68164104D01*
X135194398Y-68449819D02*
X135527731Y-67449819D01*
X135527731Y-67449819D02*
X135861064Y-68449819D01*
X136194398Y-68449819D02*
X136194398Y-67449819D01*
X136194398Y-67449819D02*
X136432493Y-67449819D01*
X136432493Y-67449819D02*
X136575350Y-67497438D01*
X136575350Y-67497438D02*
X136670588Y-67592676D01*
X136670588Y-67592676D02*
X136718207Y-67687914D01*
X136718207Y-67687914D02*
X136765826Y-67878390D01*
X136765826Y-67878390D02*
X136765826Y-68021247D01*
X136765826Y-68021247D02*
X136718207Y-68211723D01*
X136718207Y-68211723D02*
X136670588Y-68306961D01*
X136670588Y-68306961D02*
X136575350Y-68402200D01*
X136575350Y-68402200D02*
X136432493Y-68449819D01*
X136432493Y-68449819D02*
X136194398Y-68449819D01*
X137194398Y-67926009D02*
X137527731Y-67926009D01*
X137670588Y-68449819D02*
X137194398Y-68449819D01*
X137194398Y-68449819D02*
X137194398Y-67449819D01*
X137194398Y-67449819D02*
X137670588Y-67449819D01*
X138670588Y-68449819D02*
X138337255Y-67973628D01*
X138099160Y-68449819D02*
X138099160Y-67449819D01*
X138099160Y-67449819D02*
X138480112Y-67449819D01*
X138480112Y-67449819D02*
X138575350Y-67497438D01*
X138575350Y-67497438D02*
X138622969Y-67545057D01*
X138622969Y-67545057D02*
X138670588Y-67640295D01*
X138670588Y-67640295D02*
X138670588Y-67783152D01*
X138670588Y-67783152D02*
X138622969Y-67878390D01*
X138622969Y-67878390D02*
X138575350Y-67926009D01*
X138575350Y-67926009D02*
X138480112Y-67973628D01*
X138480112Y-67973628D02*
X138099160Y-67973628D01*
X139051541Y-68402200D02*
X139194398Y-68449819D01*
X139194398Y-68449819D02*
X139432493Y-68449819D01*
X139432493Y-68449819D02*
X139527731Y-68402200D01*
X139527731Y-68402200D02*
X139575350Y-68354580D01*
X139575350Y-68354580D02*
X139622969Y-68259342D01*
X139622969Y-68259342D02*
X139622969Y-68164104D01*
X139622969Y-68164104D02*
X139575350Y-68068866D01*
X139575350Y-68068866D02*
X139527731Y-68021247D01*
X139527731Y-68021247D02*
X139432493Y-67973628D01*
X139432493Y-67973628D02*
X139242017Y-67926009D01*
X139242017Y-67926009D02*
X139146779Y-67878390D01*
X139146779Y-67878390D02*
X139099160Y-67830771D01*
X139099160Y-67830771D02*
X139051541Y-67735533D01*
X139051541Y-67735533D02*
X139051541Y-67640295D01*
X139051541Y-67640295D02*
X139099160Y-67545057D01*
X139099160Y-67545057D02*
X139146779Y-67497438D01*
X139146779Y-67497438D02*
X139242017Y-67449819D01*
X139242017Y-67449819D02*
X139480112Y-67449819D01*
X139480112Y-67449819D02*
X139622969Y-67497438D01*
X182749819Y-73323220D02*
X181749819Y-73323220D01*
X181749819Y-73323220D02*
X182464104Y-72989887D01*
X182464104Y-72989887D02*
X181749819Y-72656554D01*
X181749819Y-72656554D02*
X182749819Y-72656554D01*
X181749819Y-71989887D02*
X181749819Y-71799411D01*
X181749819Y-71799411D02*
X181797438Y-71704173D01*
X181797438Y-71704173D02*
X181892676Y-71608935D01*
X181892676Y-71608935D02*
X182083152Y-71561316D01*
X182083152Y-71561316D02*
X182416485Y-71561316D01*
X182416485Y-71561316D02*
X182606961Y-71608935D01*
X182606961Y-71608935D02*
X182702200Y-71704173D01*
X182702200Y-71704173D02*
X182749819Y-71799411D01*
X182749819Y-71799411D02*
X182749819Y-71989887D01*
X182749819Y-71989887D02*
X182702200Y-72085125D01*
X182702200Y-72085125D02*
X182606961Y-72180363D01*
X182606961Y-72180363D02*
X182416485Y-72227982D01*
X182416485Y-72227982D02*
X182083152Y-72227982D01*
X182083152Y-72227982D02*
X181892676Y-72180363D01*
X181892676Y-72180363D02*
X181797438Y-72085125D01*
X181797438Y-72085125D02*
X181749819Y-71989887D01*
X182749819Y-71132744D02*
X181749819Y-71132744D01*
X181749819Y-71132744D02*
X181749819Y-70894649D01*
X181749819Y-70894649D02*
X181797438Y-70751792D01*
X181797438Y-70751792D02*
X181892676Y-70656554D01*
X181892676Y-70656554D02*
X181987914Y-70608935D01*
X181987914Y-70608935D02*
X182178390Y-70561316D01*
X182178390Y-70561316D02*
X182321247Y-70561316D01*
X182321247Y-70561316D02*
X182511723Y-70608935D01*
X182511723Y-70608935D02*
X182606961Y-70656554D01*
X182606961Y-70656554D02*
X182702200Y-70751792D01*
X182702200Y-70751792D02*
X182749819Y-70894649D01*
X182749819Y-70894649D02*
X182749819Y-71132744D01*
X182654580Y-69561316D02*
X182702200Y-69608935D01*
X182702200Y-69608935D02*
X182749819Y-69751792D01*
X182749819Y-69751792D02*
X182749819Y-69847030D01*
X182749819Y-69847030D02*
X182702200Y-69989887D01*
X182702200Y-69989887D02*
X182606961Y-70085125D01*
X182606961Y-70085125D02*
X182511723Y-70132744D01*
X182511723Y-70132744D02*
X182321247Y-70180363D01*
X182321247Y-70180363D02*
X182178390Y-70180363D01*
X182178390Y-70180363D02*
X181987914Y-70132744D01*
X181987914Y-70132744D02*
X181892676Y-70085125D01*
X181892676Y-70085125D02*
X181797438Y-69989887D01*
X181797438Y-69989887D02*
X181749819Y-69847030D01*
X181749819Y-69847030D02*
X181749819Y-69751792D01*
X181749819Y-69751792D02*
X181797438Y-69608935D01*
X181797438Y-69608935D02*
X181845057Y-69561316D01*
X181749819Y-68942268D02*
X181749819Y-68751792D01*
X181749819Y-68751792D02*
X181797438Y-68656554D01*
X181797438Y-68656554D02*
X181892676Y-68561316D01*
X181892676Y-68561316D02*
X182083152Y-68513697D01*
X182083152Y-68513697D02*
X182416485Y-68513697D01*
X182416485Y-68513697D02*
X182606961Y-68561316D01*
X182606961Y-68561316D02*
X182702200Y-68656554D01*
X182702200Y-68656554D02*
X182749819Y-68751792D01*
X182749819Y-68751792D02*
X182749819Y-68942268D01*
X182749819Y-68942268D02*
X182702200Y-69037506D01*
X182702200Y-69037506D02*
X182606961Y-69132744D01*
X182606961Y-69132744D02*
X182416485Y-69180363D01*
X182416485Y-69180363D02*
X182083152Y-69180363D01*
X182083152Y-69180363D02*
X181892676Y-69132744D01*
X181892676Y-69132744D02*
X181797438Y-69037506D01*
X181797438Y-69037506D02*
X181749819Y-68942268D01*
X182749819Y-67513697D02*
X182273628Y-67847030D01*
X182749819Y-68085125D02*
X181749819Y-68085125D01*
X181749819Y-68085125D02*
X181749819Y-67704173D01*
X181749819Y-67704173D02*
X181797438Y-67608935D01*
X181797438Y-67608935D02*
X181845057Y-67561316D01*
X181845057Y-67561316D02*
X181940295Y-67513697D01*
X181940295Y-67513697D02*
X182083152Y-67513697D01*
X182083152Y-67513697D02*
X182178390Y-67561316D01*
X182178390Y-67561316D02*
X182226009Y-67608935D01*
X182226009Y-67608935D02*
X182273628Y-67704173D01*
X182273628Y-67704173D02*
X182273628Y-68085125D01*
X182226009Y-67085125D02*
X182226009Y-66751792D01*
X182749819Y-66608935D02*
X182749819Y-67085125D01*
X182749819Y-67085125D02*
X181749819Y-67085125D01*
X181749819Y-67085125D02*
X181749819Y-66608935D01*
D11*
X100884510Y-113080828D02*
X100884510Y-111580828D01*
X100884510Y-112295114D02*
X101741653Y-112295114D01*
X101741653Y-113080828D02*
X101741653Y-111580828D01*
X102241654Y-111580828D02*
X103098797Y-111580828D01*
X102670225Y-113080828D02*
X102670225Y-111580828D01*
X103598796Y-113080828D02*
X103598796Y-111580828D01*
X103598796Y-111580828D02*
X104170225Y-111580828D01*
X104170225Y-111580828D02*
X104313082Y-111652257D01*
X104313082Y-111652257D02*
X104384511Y-111723685D01*
X104384511Y-111723685D02*
X104455939Y-111866542D01*
X104455939Y-111866542D02*
X104455939Y-112080828D01*
X104455939Y-112080828D02*
X104384511Y-112223685D01*
X104384511Y-112223685D02*
X104313082Y-112295114D01*
X104313082Y-112295114D02*
X104170225Y-112366542D01*
X104170225Y-112366542D02*
X103598796Y-112366542D01*
X105098796Y-112937971D02*
X105170225Y-113009400D01*
X105170225Y-113009400D02*
X105098796Y-113080828D01*
X105098796Y-113080828D02*
X105027368Y-113009400D01*
X105027368Y-113009400D02*
X105098796Y-112937971D01*
X105098796Y-112937971D02*
X105098796Y-113080828D01*
X105098796Y-112509400D02*
X105027368Y-111652257D01*
X105027368Y-111652257D02*
X105098796Y-111580828D01*
X105098796Y-111580828D02*
X105170225Y-111652257D01*
X105170225Y-111652257D02*
X105098796Y-112509400D01*
X105098796Y-112509400D02*
X105098796Y-111580828D01*
X105813082Y-113080828D02*
X105813082Y-112080828D01*
X105813082Y-112223685D02*
X105884511Y-112152257D01*
X105884511Y-112152257D02*
X106027368Y-112080828D01*
X106027368Y-112080828D02*
X106241654Y-112080828D01*
X106241654Y-112080828D02*
X106384511Y-112152257D01*
X106384511Y-112152257D02*
X106455940Y-112295114D01*
X106455940Y-112295114D02*
X106455940Y-113080828D01*
X106455940Y-112295114D02*
X106527368Y-112152257D01*
X106527368Y-112152257D02*
X106670225Y-112080828D01*
X106670225Y-112080828D02*
X106884511Y-112080828D01*
X106884511Y-112080828D02*
X107027368Y-112152257D01*
X107027368Y-112152257D02*
X107098797Y-112295114D01*
X107098797Y-112295114D02*
X107098797Y-113080828D01*
X109813082Y-112937971D02*
X109741654Y-113009400D01*
X109741654Y-113009400D02*
X109527368Y-113080828D01*
X109527368Y-113080828D02*
X109384511Y-113080828D01*
X109384511Y-113080828D02*
X109170225Y-113009400D01*
X109170225Y-113009400D02*
X109027368Y-112866542D01*
X109027368Y-112866542D02*
X108955939Y-112723685D01*
X108955939Y-112723685D02*
X108884511Y-112437971D01*
X108884511Y-112437971D02*
X108884511Y-112223685D01*
X108884511Y-112223685D02*
X108955939Y-111937971D01*
X108955939Y-111937971D02*
X109027368Y-111795114D01*
X109027368Y-111795114D02*
X109170225Y-111652257D01*
X109170225Y-111652257D02*
X109384511Y-111580828D01*
X109384511Y-111580828D02*
X109527368Y-111580828D01*
X109527368Y-111580828D02*
X109741654Y-111652257D01*
X109741654Y-111652257D02*
X109813082Y-111723685D01*
X110741654Y-111580828D02*
X111027368Y-111580828D01*
X111027368Y-111580828D02*
X111170225Y-111652257D01*
X111170225Y-111652257D02*
X111313082Y-111795114D01*
X111313082Y-111795114D02*
X111384511Y-112080828D01*
X111384511Y-112080828D02*
X111384511Y-112580828D01*
X111384511Y-112580828D02*
X111313082Y-112866542D01*
X111313082Y-112866542D02*
X111170225Y-113009400D01*
X111170225Y-113009400D02*
X111027368Y-113080828D01*
X111027368Y-113080828D02*
X110741654Y-113080828D01*
X110741654Y-113080828D02*
X110598797Y-113009400D01*
X110598797Y-113009400D02*
X110455939Y-112866542D01*
X110455939Y-112866542D02*
X110384511Y-112580828D01*
X110384511Y-112580828D02*
X110384511Y-112080828D01*
X110384511Y-112080828D02*
X110455939Y-111795114D01*
X110455939Y-111795114D02*
X110598797Y-111652257D01*
X110598797Y-111652257D02*
X110741654Y-111580828D01*
X112027368Y-113080828D02*
X112027368Y-111580828D01*
X112027368Y-111580828D02*
X112884511Y-113080828D01*
X112884511Y-113080828D02*
X112884511Y-111580828D01*
X113384512Y-111580828D02*
X114241655Y-111580828D01*
X113813083Y-113080828D02*
X113813083Y-111580828D01*
X115598797Y-113080828D02*
X115098797Y-112366542D01*
X114741654Y-113080828D02*
X114741654Y-111580828D01*
X114741654Y-111580828D02*
X115313083Y-111580828D01*
X115313083Y-111580828D02*
X115455940Y-111652257D01*
X115455940Y-111652257D02*
X115527369Y-111723685D01*
X115527369Y-111723685D02*
X115598797Y-111866542D01*
X115598797Y-111866542D02*
X115598797Y-112080828D01*
X115598797Y-112080828D02*
X115527369Y-112223685D01*
X115527369Y-112223685D02*
X115455940Y-112295114D01*
X115455940Y-112295114D02*
X115313083Y-112366542D01*
X115313083Y-112366542D02*
X114741654Y-112366542D01*
X116527369Y-111580828D02*
X116813083Y-111580828D01*
X116813083Y-111580828D02*
X116955940Y-111652257D01*
X116955940Y-111652257D02*
X117098797Y-111795114D01*
X117098797Y-111795114D02*
X117170226Y-112080828D01*
X117170226Y-112080828D02*
X117170226Y-112580828D01*
X117170226Y-112580828D02*
X117098797Y-112866542D01*
X117098797Y-112866542D02*
X116955940Y-113009400D01*
X116955940Y-113009400D02*
X116813083Y-113080828D01*
X116813083Y-113080828D02*
X116527369Y-113080828D01*
X116527369Y-113080828D02*
X116384512Y-113009400D01*
X116384512Y-113009400D02*
X116241654Y-112866542D01*
X116241654Y-112866542D02*
X116170226Y-112580828D01*
X116170226Y-112580828D02*
X116170226Y-112080828D01*
X116170226Y-112080828D02*
X116241654Y-111795114D01*
X116241654Y-111795114D02*
X116384512Y-111652257D01*
X116384512Y-111652257D02*
X116527369Y-111580828D01*
X118527369Y-113080828D02*
X117813083Y-113080828D01*
X117813083Y-113080828D02*
X117813083Y-111580828D01*
X100884510Y-115495828D02*
X100884510Y-113995828D01*
X100884510Y-113995828D02*
X101384510Y-115067257D01*
X101384510Y-115067257D02*
X101884510Y-113995828D01*
X101884510Y-113995828D02*
X101884510Y-115495828D01*
X102813082Y-115495828D02*
X102670225Y-115424400D01*
X102670225Y-115424400D02*
X102598796Y-115352971D01*
X102598796Y-115352971D02*
X102527368Y-115210114D01*
X102527368Y-115210114D02*
X102527368Y-114781542D01*
X102527368Y-114781542D02*
X102598796Y-114638685D01*
X102598796Y-114638685D02*
X102670225Y-114567257D01*
X102670225Y-114567257D02*
X102813082Y-114495828D01*
X102813082Y-114495828D02*
X103027368Y-114495828D01*
X103027368Y-114495828D02*
X103170225Y-114567257D01*
X103170225Y-114567257D02*
X103241654Y-114638685D01*
X103241654Y-114638685D02*
X103313082Y-114781542D01*
X103313082Y-114781542D02*
X103313082Y-115210114D01*
X103313082Y-115210114D02*
X103241654Y-115352971D01*
X103241654Y-115352971D02*
X103170225Y-115424400D01*
X103170225Y-115424400D02*
X103027368Y-115495828D01*
X103027368Y-115495828D02*
X102813082Y-115495828D01*
X103741654Y-114495828D02*
X104313082Y-114495828D01*
X103955939Y-113995828D02*
X103955939Y-115281542D01*
X103955939Y-115281542D02*
X104027368Y-115424400D01*
X104027368Y-115424400D02*
X104170225Y-115495828D01*
X104170225Y-115495828D02*
X104313082Y-115495828D01*
X104813082Y-115495828D02*
X104813082Y-113995828D01*
X105455940Y-115495828D02*
X105455940Y-114710114D01*
X105455940Y-114710114D02*
X105384511Y-114567257D01*
X105384511Y-114567257D02*
X105241654Y-114495828D01*
X105241654Y-114495828D02*
X105027368Y-114495828D01*
X105027368Y-114495828D02*
X104884511Y-114567257D01*
X104884511Y-114567257D02*
X104813082Y-114638685D01*
X106741654Y-115424400D02*
X106598797Y-115495828D01*
X106598797Y-115495828D02*
X106313083Y-115495828D01*
X106313083Y-115495828D02*
X106170225Y-115424400D01*
X106170225Y-115424400D02*
X106098797Y-115281542D01*
X106098797Y-115281542D02*
X106098797Y-114710114D01*
X106098797Y-114710114D02*
X106170225Y-114567257D01*
X106170225Y-114567257D02*
X106313083Y-114495828D01*
X106313083Y-114495828D02*
X106598797Y-114495828D01*
X106598797Y-114495828D02*
X106741654Y-114567257D01*
X106741654Y-114567257D02*
X106813083Y-114710114D01*
X106813083Y-114710114D02*
X106813083Y-114852971D01*
X106813083Y-114852971D02*
X106098797Y-114995828D01*
X107455939Y-115495828D02*
X107455939Y-114495828D01*
X107455939Y-114781542D02*
X107527368Y-114638685D01*
X107527368Y-114638685D02*
X107598797Y-114567257D01*
X107598797Y-114567257D02*
X107741654Y-114495828D01*
X107741654Y-114495828D02*
X107884511Y-114495828D01*
X108384510Y-115495828D02*
X108384510Y-113995828D01*
X108384510Y-114567257D02*
X108527368Y-114495828D01*
X108527368Y-114495828D02*
X108813082Y-114495828D01*
X108813082Y-114495828D02*
X108955939Y-114567257D01*
X108955939Y-114567257D02*
X109027368Y-114638685D01*
X109027368Y-114638685D02*
X109098796Y-114781542D01*
X109098796Y-114781542D02*
X109098796Y-115210114D01*
X109098796Y-115210114D02*
X109027368Y-115352971D01*
X109027368Y-115352971D02*
X108955939Y-115424400D01*
X108955939Y-115424400D02*
X108813082Y-115495828D01*
X108813082Y-115495828D02*
X108527368Y-115495828D01*
X108527368Y-115495828D02*
X108384510Y-115424400D01*
X109955939Y-115495828D02*
X109813082Y-115424400D01*
X109813082Y-115424400D02*
X109741653Y-115352971D01*
X109741653Y-115352971D02*
X109670225Y-115210114D01*
X109670225Y-115210114D02*
X109670225Y-114781542D01*
X109670225Y-114781542D02*
X109741653Y-114638685D01*
X109741653Y-114638685D02*
X109813082Y-114567257D01*
X109813082Y-114567257D02*
X109955939Y-114495828D01*
X109955939Y-114495828D02*
X110170225Y-114495828D01*
X110170225Y-114495828D02*
X110313082Y-114567257D01*
X110313082Y-114567257D02*
X110384511Y-114638685D01*
X110384511Y-114638685D02*
X110455939Y-114781542D01*
X110455939Y-114781542D02*
X110455939Y-115210114D01*
X110455939Y-115210114D02*
X110384511Y-115352971D01*
X110384511Y-115352971D02*
X110313082Y-115424400D01*
X110313082Y-115424400D02*
X110170225Y-115495828D01*
X110170225Y-115495828D02*
X109955939Y-115495828D01*
X111741654Y-115495828D02*
X111741654Y-114710114D01*
X111741654Y-114710114D02*
X111670225Y-114567257D01*
X111670225Y-114567257D02*
X111527368Y-114495828D01*
X111527368Y-114495828D02*
X111241654Y-114495828D01*
X111241654Y-114495828D02*
X111098796Y-114567257D01*
X111741654Y-115424400D02*
X111598796Y-115495828D01*
X111598796Y-115495828D02*
X111241654Y-115495828D01*
X111241654Y-115495828D02*
X111098796Y-115424400D01*
X111098796Y-115424400D02*
X111027368Y-115281542D01*
X111027368Y-115281542D02*
X111027368Y-115138685D01*
X111027368Y-115138685D02*
X111098796Y-114995828D01*
X111098796Y-114995828D02*
X111241654Y-114924400D01*
X111241654Y-114924400D02*
X111598796Y-114924400D01*
X111598796Y-114924400D02*
X111741654Y-114852971D01*
X112455939Y-115495828D02*
X112455939Y-114495828D01*
X112455939Y-114781542D02*
X112527368Y-114638685D01*
X112527368Y-114638685D02*
X112598797Y-114567257D01*
X112598797Y-114567257D02*
X112741654Y-114495828D01*
X112741654Y-114495828D02*
X112884511Y-114495828D01*
X114027368Y-115495828D02*
X114027368Y-113995828D01*
X114027368Y-115424400D02*
X113884510Y-115495828D01*
X113884510Y-115495828D02*
X113598796Y-115495828D01*
X113598796Y-115495828D02*
X113455939Y-115424400D01*
X113455939Y-115424400D02*
X113384510Y-115352971D01*
X113384510Y-115352971D02*
X113313082Y-115210114D01*
X113313082Y-115210114D02*
X113313082Y-114781542D01*
X113313082Y-114781542D02*
X113384510Y-114638685D01*
X113384510Y-114638685D02*
X113455939Y-114567257D01*
X113455939Y-114567257D02*
X113598796Y-114495828D01*
X113598796Y-114495828D02*
X113884510Y-114495828D01*
X113884510Y-114495828D02*
X114027368Y-114567257D01*
X100884510Y-117910828D02*
X100884510Y-116410828D01*
X100884510Y-116982257D02*
X101027368Y-116910828D01*
X101027368Y-116910828D02*
X101313082Y-116910828D01*
X101313082Y-116910828D02*
X101455939Y-116982257D01*
X101455939Y-116982257D02*
X101527368Y-117053685D01*
X101527368Y-117053685D02*
X101598796Y-117196542D01*
X101598796Y-117196542D02*
X101598796Y-117625114D01*
X101598796Y-117625114D02*
X101527368Y-117767971D01*
X101527368Y-117767971D02*
X101455939Y-117839400D01*
X101455939Y-117839400D02*
X101313082Y-117910828D01*
X101313082Y-117910828D02*
X101027368Y-117910828D01*
X101027368Y-117910828D02*
X100884510Y-117839400D01*
X102098796Y-116910828D02*
X102455939Y-117910828D01*
X102813082Y-116910828D02*
X102455939Y-117910828D01*
X102455939Y-117910828D02*
X102313082Y-118267971D01*
X102313082Y-118267971D02*
X102241653Y-118339400D01*
X102241653Y-118339400D02*
X102098796Y-118410828D01*
X104455939Y-117839400D02*
X104598796Y-117910828D01*
X104598796Y-117910828D02*
X104884510Y-117910828D01*
X104884510Y-117910828D02*
X105027367Y-117839400D01*
X105027367Y-117839400D02*
X105098796Y-117696542D01*
X105098796Y-117696542D02*
X105098796Y-117625114D01*
X105098796Y-117625114D02*
X105027367Y-117482257D01*
X105027367Y-117482257D02*
X104884510Y-117410828D01*
X104884510Y-117410828D02*
X104670225Y-117410828D01*
X104670225Y-117410828D02*
X104527367Y-117339400D01*
X104527367Y-117339400D02*
X104455939Y-117196542D01*
X104455939Y-117196542D02*
X104455939Y-117125114D01*
X104455939Y-117125114D02*
X104527367Y-116982257D01*
X104527367Y-116982257D02*
X104670225Y-116910828D01*
X104670225Y-116910828D02*
X104884510Y-116910828D01*
X104884510Y-116910828D02*
X105027367Y-116982257D01*
X105741653Y-117910828D02*
X105741653Y-116410828D01*
X106384511Y-117910828D02*
X106384511Y-117125114D01*
X106384511Y-117125114D02*
X106313082Y-116982257D01*
X106313082Y-116982257D02*
X106170225Y-116910828D01*
X106170225Y-116910828D02*
X105955939Y-116910828D01*
X105955939Y-116910828D02*
X105813082Y-116982257D01*
X105813082Y-116982257D02*
X105741653Y-117053685D01*
X107741654Y-117910828D02*
X107741654Y-117125114D01*
X107741654Y-117125114D02*
X107670225Y-116982257D01*
X107670225Y-116982257D02*
X107527368Y-116910828D01*
X107527368Y-116910828D02*
X107241654Y-116910828D01*
X107241654Y-116910828D02*
X107098796Y-116982257D01*
X107741654Y-117839400D02*
X107598796Y-117910828D01*
X107598796Y-117910828D02*
X107241654Y-117910828D01*
X107241654Y-117910828D02*
X107098796Y-117839400D01*
X107098796Y-117839400D02*
X107027368Y-117696542D01*
X107027368Y-117696542D02*
X107027368Y-117553685D01*
X107027368Y-117553685D02*
X107098796Y-117410828D01*
X107098796Y-117410828D02*
X107241654Y-117339400D01*
X107241654Y-117339400D02*
X107598796Y-117339400D01*
X107598796Y-117339400D02*
X107741654Y-117267971D01*
X108313082Y-116910828D02*
X108598797Y-117910828D01*
X108598797Y-117910828D02*
X108884511Y-117196542D01*
X108884511Y-117196542D02*
X109170225Y-117910828D01*
X109170225Y-117910828D02*
X109455939Y-116910828D01*
X110027368Y-116910828D02*
X110027368Y-117910828D01*
X110027368Y-117053685D02*
X110098797Y-116982257D01*
X110098797Y-116982257D02*
X110241654Y-116910828D01*
X110241654Y-116910828D02*
X110455940Y-116910828D01*
X110455940Y-116910828D02*
X110598797Y-116982257D01*
X110598797Y-116982257D02*
X110670226Y-117125114D01*
X110670226Y-117125114D02*
X110670226Y-117910828D01*
X112027369Y-117910828D02*
X112027369Y-116410828D01*
X112027369Y-117839400D02*
X111884511Y-117910828D01*
X111884511Y-117910828D02*
X111598797Y-117910828D01*
X111598797Y-117910828D02*
X111455940Y-117839400D01*
X111455940Y-117839400D02*
X111384511Y-117767971D01*
X111384511Y-117767971D02*
X111313083Y-117625114D01*
X111313083Y-117625114D02*
X111313083Y-117196542D01*
X111313083Y-117196542D02*
X111384511Y-117053685D01*
X111384511Y-117053685D02*
X111455940Y-116982257D01*
X111455940Y-116982257D02*
X111598797Y-116910828D01*
X111598797Y-116910828D02*
X111884511Y-116910828D01*
X111884511Y-116910828D02*
X112027369Y-116982257D01*
X112741654Y-117767971D02*
X112813083Y-117839400D01*
X112813083Y-117839400D02*
X112741654Y-117910828D01*
X112741654Y-117910828D02*
X112670226Y-117839400D01*
X112670226Y-117839400D02*
X112741654Y-117767971D01*
X112741654Y-117767971D02*
X112741654Y-117910828D01*
X113313083Y-117910828D02*
X114098798Y-116910828D01*
X113313083Y-116910828D02*
X114098798Y-117910828D01*
X114527369Y-116910828D02*
X114884512Y-117910828D01*
X115241655Y-116910828D02*
X114884512Y-117910828D01*
X114884512Y-117910828D02*
X114741655Y-118267971D01*
X114741655Y-118267971D02*
X114670226Y-118339400D01*
X114670226Y-118339400D02*
X114527369Y-118410828D01*
X115670226Y-116910828D02*
X116455941Y-116910828D01*
X116455941Y-116910828D02*
X115670226Y-117910828D01*
X115670226Y-117910828D02*
X116455941Y-117910828D01*
D10*
X100666779Y-123059819D02*
X100666779Y-122059819D01*
X100666779Y-122059819D02*
X101000112Y-122774104D01*
X101000112Y-122774104D02*
X101333445Y-122059819D01*
X101333445Y-122059819D02*
X101333445Y-123059819D01*
X101809636Y-123059819D02*
X101809636Y-122059819D01*
X101809636Y-122059819D02*
X102047731Y-122059819D01*
X102047731Y-122059819D02*
X102190588Y-122107438D01*
X102190588Y-122107438D02*
X102285826Y-122202676D01*
X102285826Y-122202676D02*
X102333445Y-122297914D01*
X102333445Y-122297914D02*
X102381064Y-122488390D01*
X102381064Y-122488390D02*
X102381064Y-122631247D01*
X102381064Y-122631247D02*
X102333445Y-122821723D01*
X102333445Y-122821723D02*
X102285826Y-122916961D01*
X102285826Y-122916961D02*
X102190588Y-123012200D01*
X102190588Y-123012200D02*
X102047731Y-123059819D01*
X102047731Y-123059819D02*
X101809636Y-123059819D01*
X103571541Y-123059819D02*
X103571541Y-122059819D01*
X103571541Y-122059819D02*
X103952493Y-122059819D01*
X103952493Y-122059819D02*
X104047731Y-122107438D01*
X104047731Y-122107438D02*
X104095350Y-122155057D01*
X104095350Y-122155057D02*
X104142969Y-122250295D01*
X104142969Y-122250295D02*
X104142969Y-122393152D01*
X104142969Y-122393152D02*
X104095350Y-122488390D01*
X104095350Y-122488390D02*
X104047731Y-122536009D01*
X104047731Y-122536009D02*
X103952493Y-122583628D01*
X103952493Y-122583628D02*
X103571541Y-122583628D01*
X104762017Y-122059819D02*
X104952493Y-122059819D01*
X104952493Y-122059819D02*
X105047731Y-122107438D01*
X105047731Y-122107438D02*
X105142969Y-122202676D01*
X105142969Y-122202676D02*
X105190588Y-122393152D01*
X105190588Y-122393152D02*
X105190588Y-122726485D01*
X105190588Y-122726485D02*
X105142969Y-122916961D01*
X105142969Y-122916961D02*
X105047731Y-123012200D01*
X105047731Y-123012200D02*
X104952493Y-123059819D01*
X104952493Y-123059819D02*
X104762017Y-123059819D01*
X104762017Y-123059819D02*
X104666779Y-123012200D01*
X104666779Y-123012200D02*
X104571541Y-122916961D01*
X104571541Y-122916961D02*
X104523922Y-122726485D01*
X104523922Y-122726485D02*
X104523922Y-122393152D01*
X104523922Y-122393152D02*
X104571541Y-122202676D01*
X104571541Y-122202676D02*
X104666779Y-122107438D01*
X104666779Y-122107438D02*
X104762017Y-122059819D01*
X105523922Y-122059819D02*
X105762017Y-123059819D01*
X105762017Y-123059819D02*
X105952493Y-122345533D01*
X105952493Y-122345533D02*
X106142969Y-123059819D01*
X106142969Y-123059819D02*
X106381065Y-122059819D01*
X106762017Y-122536009D02*
X107095350Y-122536009D01*
X107238207Y-123059819D02*
X106762017Y-123059819D01*
X106762017Y-123059819D02*
X106762017Y-122059819D01*
X106762017Y-122059819D02*
X107238207Y-122059819D01*
X108238207Y-123059819D02*
X107904874Y-122583628D01*
X107666779Y-123059819D02*
X107666779Y-122059819D01*
X107666779Y-122059819D02*
X108047731Y-122059819D01*
X108047731Y-122059819D02*
X108142969Y-122107438D01*
X108142969Y-122107438D02*
X108190588Y-122155057D01*
X108190588Y-122155057D02*
X108238207Y-122250295D01*
X108238207Y-122250295D02*
X108238207Y-122393152D01*
X108238207Y-122393152D02*
X108190588Y-122488390D01*
X108190588Y-122488390D02*
X108142969Y-122536009D01*
X108142969Y-122536009D02*
X108047731Y-122583628D01*
X108047731Y-122583628D02*
X107666779Y-122583628D01*
X121574819Y-82031904D02*
X122384342Y-82031904D01*
X122384342Y-82031904D02*
X122479580Y-81984285D01*
X122479580Y-81984285D02*
X122527200Y-81936666D01*
X122527200Y-81936666D02*
X122574819Y-81841428D01*
X122574819Y-81841428D02*
X122574819Y-81650952D01*
X122574819Y-81650952D02*
X122527200Y-81555714D01*
X122527200Y-81555714D02*
X122479580Y-81508095D01*
X122479580Y-81508095D02*
X122384342Y-81460476D01*
X122384342Y-81460476D02*
X121574819Y-81460476D01*
X122574819Y-80460476D02*
X122574819Y-81031904D01*
X122574819Y-80746190D02*
X121574819Y-80746190D01*
X121574819Y-80746190D02*
X121717676Y-80841428D01*
X121717676Y-80841428D02*
X121812914Y-80936666D01*
X121812914Y-80936666D02*
X121860533Y-81031904D01*
X184874819Y-117173333D02*
X185589104Y-117173333D01*
X185589104Y-117173333D02*
X185731961Y-117220952D01*
X185731961Y-117220952D02*
X185827200Y-117316190D01*
X185827200Y-117316190D02*
X185874819Y-117459047D01*
X185874819Y-117459047D02*
X185874819Y-117554285D01*
X184970057Y-116744761D02*
X184922438Y-116697142D01*
X184922438Y-116697142D02*
X184874819Y-116601904D01*
X184874819Y-116601904D02*
X184874819Y-116363809D01*
X184874819Y-116363809D02*
X184922438Y-116268571D01*
X184922438Y-116268571D02*
X184970057Y-116220952D01*
X184970057Y-116220952D02*
X185065295Y-116173333D01*
X185065295Y-116173333D02*
X185160533Y-116173333D01*
X185160533Y-116173333D02*
X185303390Y-116220952D01*
X185303390Y-116220952D02*
X185874819Y-116792380D01*
X185874819Y-116792380D02*
X185874819Y-116173333D01*
X144444819Y-82041904D02*
X145254342Y-82041904D01*
X145254342Y-82041904D02*
X145349580Y-81994285D01*
X145349580Y-81994285D02*
X145397200Y-81946666D01*
X145397200Y-81946666D02*
X145444819Y-81851428D01*
X145444819Y-81851428D02*
X145444819Y-81660952D01*
X145444819Y-81660952D02*
X145397200Y-81565714D01*
X145397200Y-81565714D02*
X145349580Y-81518095D01*
X145349580Y-81518095D02*
X145254342Y-81470476D01*
X145254342Y-81470476D02*
X144444819Y-81470476D01*
X144540057Y-81041904D02*
X144492438Y-80994285D01*
X144492438Y-80994285D02*
X144444819Y-80899047D01*
X144444819Y-80899047D02*
X144444819Y-80660952D01*
X144444819Y-80660952D02*
X144492438Y-80565714D01*
X144492438Y-80565714D02*
X144540057Y-80518095D01*
X144540057Y-80518095D02*
X144635295Y-80470476D01*
X144635295Y-80470476D02*
X144730533Y-80470476D01*
X144730533Y-80470476D02*
X144873390Y-80518095D01*
X144873390Y-80518095D02*
X145444819Y-81089523D01*
X145444819Y-81089523D02*
X145444819Y-80470476D01*
X121584819Y-103631904D02*
X122394342Y-103631904D01*
X122394342Y-103631904D02*
X122489580Y-103584285D01*
X122489580Y-103584285D02*
X122537200Y-103536666D01*
X122537200Y-103536666D02*
X122584819Y-103441428D01*
X122584819Y-103441428D02*
X122584819Y-103250952D01*
X122584819Y-103250952D02*
X122537200Y-103155714D01*
X122537200Y-103155714D02*
X122489580Y-103108095D01*
X122489580Y-103108095D02*
X122394342Y-103060476D01*
X122394342Y-103060476D02*
X121584819Y-103060476D01*
X121584819Y-102679523D02*
X121584819Y-102060476D01*
X121584819Y-102060476D02*
X121965771Y-102393809D01*
X121965771Y-102393809D02*
X121965771Y-102250952D01*
X121965771Y-102250952D02*
X122013390Y-102155714D01*
X122013390Y-102155714D02*
X122061009Y-102108095D01*
X122061009Y-102108095D02*
X122156247Y-102060476D01*
X122156247Y-102060476D02*
X122394342Y-102060476D01*
X122394342Y-102060476D02*
X122489580Y-102108095D01*
X122489580Y-102108095D02*
X122537200Y-102155714D01*
X122537200Y-102155714D02*
X122584819Y-102250952D01*
X122584819Y-102250952D02*
X122584819Y-102536666D01*
X122584819Y-102536666D02*
X122537200Y-102631904D01*
X122537200Y-102631904D02*
X122489580Y-102679523D01*
X157934819Y-111412857D02*
X157458628Y-111746190D01*
X157934819Y-111984285D02*
X156934819Y-111984285D01*
X156934819Y-111984285D02*
X156934819Y-111603333D01*
X156934819Y-111603333D02*
X156982438Y-111508095D01*
X156982438Y-111508095D02*
X157030057Y-111460476D01*
X157030057Y-111460476D02*
X157125295Y-111412857D01*
X157125295Y-111412857D02*
X157268152Y-111412857D01*
X157268152Y-111412857D02*
X157363390Y-111460476D01*
X157363390Y-111460476D02*
X157411009Y-111508095D01*
X157411009Y-111508095D02*
X157458628Y-111603333D01*
X157458628Y-111603333D02*
X157458628Y-111984285D01*
X156934819Y-111079523D02*
X156934819Y-110460476D01*
X156934819Y-110460476D02*
X157315771Y-110793809D01*
X157315771Y-110793809D02*
X157315771Y-110650952D01*
X157315771Y-110650952D02*
X157363390Y-110555714D01*
X157363390Y-110555714D02*
X157411009Y-110508095D01*
X157411009Y-110508095D02*
X157506247Y-110460476D01*
X157506247Y-110460476D02*
X157744342Y-110460476D01*
X157744342Y-110460476D02*
X157839580Y-110508095D01*
X157839580Y-110508095D02*
X157887200Y-110555714D01*
X157887200Y-110555714D02*
X157934819Y-110650952D01*
X157934819Y-110650952D02*
X157934819Y-110936666D01*
X157934819Y-110936666D02*
X157887200Y-111031904D01*
X157887200Y-111031904D02*
X157839580Y-111079523D01*
X156934819Y-109841428D02*
X156934819Y-109746190D01*
X156934819Y-109746190D02*
X156982438Y-109650952D01*
X156982438Y-109650952D02*
X157030057Y-109603333D01*
X157030057Y-109603333D02*
X157125295Y-109555714D01*
X157125295Y-109555714D02*
X157315771Y-109508095D01*
X157315771Y-109508095D02*
X157553866Y-109508095D01*
X157553866Y-109508095D02*
X157744342Y-109555714D01*
X157744342Y-109555714D02*
X157839580Y-109603333D01*
X157839580Y-109603333D02*
X157887200Y-109650952D01*
X157887200Y-109650952D02*
X157934819Y-109746190D01*
X157934819Y-109746190D02*
X157934819Y-109841428D01*
X157934819Y-109841428D02*
X157887200Y-109936666D01*
X157887200Y-109936666D02*
X157839580Y-109984285D01*
X157839580Y-109984285D02*
X157744342Y-110031904D01*
X157744342Y-110031904D02*
X157553866Y-110079523D01*
X157553866Y-110079523D02*
X157315771Y-110079523D01*
X157315771Y-110079523D02*
X157125295Y-110031904D01*
X157125295Y-110031904D02*
X157030057Y-109984285D01*
X157030057Y-109984285D02*
X156982438Y-109936666D01*
X156982438Y-109936666D02*
X156934819Y-109841428D01*
X185086666Y-59624819D02*
X185086666Y-60339104D01*
X185086666Y-60339104D02*
X185039047Y-60481961D01*
X185039047Y-60481961D02*
X184943809Y-60577200D01*
X184943809Y-60577200D02*
X184800952Y-60624819D01*
X184800952Y-60624819D02*
X184705714Y-60624819D01*
X186039047Y-59624819D02*
X185562857Y-59624819D01*
X185562857Y-59624819D02*
X185515238Y-60101009D01*
X185515238Y-60101009D02*
X185562857Y-60053390D01*
X185562857Y-60053390D02*
X185658095Y-60005771D01*
X185658095Y-60005771D02*
X185896190Y-60005771D01*
X185896190Y-60005771D02*
X185991428Y-60053390D01*
X185991428Y-60053390D02*
X186039047Y-60101009D01*
X186039047Y-60101009D02*
X186086666Y-60196247D01*
X186086666Y-60196247D02*
X186086666Y-60434342D01*
X186086666Y-60434342D02*
X186039047Y-60529580D01*
X186039047Y-60529580D02*
X185991428Y-60577200D01*
X185991428Y-60577200D02*
X185896190Y-60624819D01*
X185896190Y-60624819D02*
X185658095Y-60624819D01*
X185658095Y-60624819D02*
X185562857Y-60577200D01*
X185562857Y-60577200D02*
X185515238Y-60529580D01*
X140154819Y-73552542D02*
X139678628Y-73885875D01*
X140154819Y-74123970D02*
X139154819Y-74123970D01*
X139154819Y-74123970D02*
X139154819Y-73743018D01*
X139154819Y-73743018D02*
X139202438Y-73647780D01*
X139202438Y-73647780D02*
X139250057Y-73600161D01*
X139250057Y-73600161D02*
X139345295Y-73552542D01*
X139345295Y-73552542D02*
X139488152Y-73552542D01*
X139488152Y-73552542D02*
X139583390Y-73600161D01*
X139583390Y-73600161D02*
X139631009Y-73647780D01*
X139631009Y-73647780D02*
X139678628Y-73743018D01*
X139678628Y-73743018D02*
X139678628Y-74123970D01*
X140154819Y-72600161D02*
X140154819Y-73171589D01*
X140154819Y-72885875D02*
X139154819Y-72885875D01*
X139154819Y-72885875D02*
X139297676Y-72981113D01*
X139297676Y-72981113D02*
X139392914Y-73076351D01*
X139392914Y-73076351D02*
X139440533Y-73171589D01*
X163014819Y-89822857D02*
X162538628Y-90156190D01*
X163014819Y-90394285D02*
X162014819Y-90394285D01*
X162014819Y-90394285D02*
X162014819Y-90013333D01*
X162014819Y-90013333D02*
X162062438Y-89918095D01*
X162062438Y-89918095D02*
X162110057Y-89870476D01*
X162110057Y-89870476D02*
X162205295Y-89822857D01*
X162205295Y-89822857D02*
X162348152Y-89822857D01*
X162348152Y-89822857D02*
X162443390Y-89870476D01*
X162443390Y-89870476D02*
X162491009Y-89918095D01*
X162491009Y-89918095D02*
X162538628Y-90013333D01*
X162538628Y-90013333D02*
X162538628Y-90394285D01*
X163014819Y-88870476D02*
X163014819Y-89441904D01*
X163014819Y-89156190D02*
X162014819Y-89156190D01*
X162014819Y-89156190D02*
X162157676Y-89251428D01*
X162157676Y-89251428D02*
X162252914Y-89346666D01*
X162252914Y-89346666D02*
X162300533Y-89441904D01*
X162014819Y-88013333D02*
X162014819Y-88203809D01*
X162014819Y-88203809D02*
X162062438Y-88299047D01*
X162062438Y-88299047D02*
X162110057Y-88346666D01*
X162110057Y-88346666D02*
X162252914Y-88441904D01*
X162252914Y-88441904D02*
X162443390Y-88489523D01*
X162443390Y-88489523D02*
X162824342Y-88489523D01*
X162824342Y-88489523D02*
X162919580Y-88441904D01*
X162919580Y-88441904D02*
X162967200Y-88394285D01*
X162967200Y-88394285D02*
X163014819Y-88299047D01*
X163014819Y-88299047D02*
X163014819Y-88108571D01*
X163014819Y-88108571D02*
X162967200Y-88013333D01*
X162967200Y-88013333D02*
X162919580Y-87965714D01*
X162919580Y-87965714D02*
X162824342Y-87918095D01*
X162824342Y-87918095D02*
X162586247Y-87918095D01*
X162586247Y-87918095D02*
X162491009Y-87965714D01*
X162491009Y-87965714D02*
X162443390Y-88013333D01*
X162443390Y-88013333D02*
X162395771Y-88108571D01*
X162395771Y-88108571D02*
X162395771Y-88299047D01*
X162395771Y-88299047D02*
X162443390Y-88394285D01*
X162443390Y-88394285D02*
X162491009Y-88441904D01*
X162491009Y-88441904D02*
X162586247Y-88489523D01*
X123363333Y-68939580D02*
X123315714Y-68987200D01*
X123315714Y-68987200D02*
X123172857Y-69034819D01*
X123172857Y-69034819D02*
X123077619Y-69034819D01*
X123077619Y-69034819D02*
X122934762Y-68987200D01*
X122934762Y-68987200D02*
X122839524Y-68891961D01*
X122839524Y-68891961D02*
X122791905Y-68796723D01*
X122791905Y-68796723D02*
X122744286Y-68606247D01*
X122744286Y-68606247D02*
X122744286Y-68463390D01*
X122744286Y-68463390D02*
X122791905Y-68272914D01*
X122791905Y-68272914D02*
X122839524Y-68177676D01*
X122839524Y-68177676D02*
X122934762Y-68082438D01*
X122934762Y-68082438D02*
X123077619Y-68034819D01*
X123077619Y-68034819D02*
X123172857Y-68034819D01*
X123172857Y-68034819D02*
X123315714Y-68082438D01*
X123315714Y-68082438D02*
X123363333Y-68130057D01*
X124315714Y-69034819D02*
X123744286Y-69034819D01*
X124030000Y-69034819D02*
X124030000Y-68034819D01*
X124030000Y-68034819D02*
X123934762Y-68177676D01*
X123934762Y-68177676D02*
X123839524Y-68272914D01*
X123839524Y-68272914D02*
X123744286Y-68320533D01*
X146223333Y-90529580D02*
X146175714Y-90577200D01*
X146175714Y-90577200D02*
X146032857Y-90624819D01*
X146032857Y-90624819D02*
X145937619Y-90624819D01*
X145937619Y-90624819D02*
X145794762Y-90577200D01*
X145794762Y-90577200D02*
X145699524Y-90481961D01*
X145699524Y-90481961D02*
X145651905Y-90386723D01*
X145651905Y-90386723D02*
X145604286Y-90196247D01*
X145604286Y-90196247D02*
X145604286Y-90053390D01*
X145604286Y-90053390D02*
X145651905Y-89862914D01*
X145651905Y-89862914D02*
X145699524Y-89767676D01*
X145699524Y-89767676D02*
X145794762Y-89672438D01*
X145794762Y-89672438D02*
X145937619Y-89624819D01*
X145937619Y-89624819D02*
X146032857Y-89624819D01*
X146032857Y-89624819D02*
X146175714Y-89672438D01*
X146175714Y-89672438D02*
X146223333Y-89720057D01*
X147080476Y-89958152D02*
X147080476Y-90624819D01*
X146842381Y-89577200D02*
X146604286Y-90291485D01*
X146604286Y-90291485D02*
X147223333Y-90291485D01*
X105918095Y-84754819D02*
X105918095Y-85564342D01*
X105918095Y-85564342D02*
X105965714Y-85659580D01*
X105965714Y-85659580D02*
X106013333Y-85707200D01*
X106013333Y-85707200D02*
X106108571Y-85754819D01*
X106108571Y-85754819D02*
X106299047Y-85754819D01*
X106299047Y-85754819D02*
X106394285Y-85707200D01*
X106394285Y-85707200D02*
X106441904Y-85659580D01*
X106441904Y-85659580D02*
X106489523Y-85564342D01*
X106489523Y-85564342D02*
X106489523Y-84754819D01*
X107394285Y-84754819D02*
X107203809Y-84754819D01*
X107203809Y-84754819D02*
X107108571Y-84802438D01*
X107108571Y-84802438D02*
X107060952Y-84850057D01*
X107060952Y-84850057D02*
X106965714Y-84992914D01*
X106965714Y-84992914D02*
X106918095Y-85183390D01*
X106918095Y-85183390D02*
X106918095Y-85564342D01*
X106918095Y-85564342D02*
X106965714Y-85659580D01*
X106965714Y-85659580D02*
X107013333Y-85707200D01*
X107013333Y-85707200D02*
X107108571Y-85754819D01*
X107108571Y-85754819D02*
X107299047Y-85754819D01*
X107299047Y-85754819D02*
X107394285Y-85707200D01*
X107394285Y-85707200D02*
X107441904Y-85659580D01*
X107441904Y-85659580D02*
X107489523Y-85564342D01*
X107489523Y-85564342D02*
X107489523Y-85326247D01*
X107489523Y-85326247D02*
X107441904Y-85231009D01*
X107441904Y-85231009D02*
X107394285Y-85183390D01*
X107394285Y-85183390D02*
X107299047Y-85135771D01*
X107299047Y-85135771D02*
X107108571Y-85135771D01*
X107108571Y-85135771D02*
X107013333Y-85183390D01*
X107013333Y-85183390D02*
X106965714Y-85231009D01*
X106965714Y-85231009D02*
X106918095Y-85326247D01*
X123363333Y-90529580D02*
X123315714Y-90577200D01*
X123315714Y-90577200D02*
X123172857Y-90624819D01*
X123172857Y-90624819D02*
X123077619Y-90624819D01*
X123077619Y-90624819D02*
X122934762Y-90577200D01*
X122934762Y-90577200D02*
X122839524Y-90481961D01*
X122839524Y-90481961D02*
X122791905Y-90386723D01*
X122791905Y-90386723D02*
X122744286Y-90196247D01*
X122744286Y-90196247D02*
X122744286Y-90053390D01*
X122744286Y-90053390D02*
X122791905Y-89862914D01*
X122791905Y-89862914D02*
X122839524Y-89767676D01*
X122839524Y-89767676D02*
X122934762Y-89672438D01*
X122934762Y-89672438D02*
X123077619Y-89624819D01*
X123077619Y-89624819D02*
X123172857Y-89624819D01*
X123172857Y-89624819D02*
X123315714Y-89672438D01*
X123315714Y-89672438D02*
X123363333Y-89720057D01*
X123696667Y-89624819D02*
X124315714Y-89624819D01*
X124315714Y-89624819D02*
X123982381Y-90005771D01*
X123982381Y-90005771D02*
X124125238Y-90005771D01*
X124125238Y-90005771D02*
X124220476Y-90053390D01*
X124220476Y-90053390D02*
X124268095Y-90101009D01*
X124268095Y-90101009D02*
X124315714Y-90196247D01*
X124315714Y-90196247D02*
X124315714Y-90434342D01*
X124315714Y-90434342D02*
X124268095Y-90529580D01*
X124268095Y-90529580D02*
X124220476Y-90577200D01*
X124220476Y-90577200D02*
X124125238Y-90624819D01*
X124125238Y-90624819D02*
X123839524Y-90624819D01*
X123839524Y-90624819D02*
X123744286Y-90577200D01*
X123744286Y-90577200D02*
X123696667Y-90529580D01*
X185086666Y-102534819D02*
X185086666Y-103249104D01*
X185086666Y-103249104D02*
X185039047Y-103391961D01*
X185039047Y-103391961D02*
X184943809Y-103487200D01*
X184943809Y-103487200D02*
X184800952Y-103534819D01*
X184800952Y-103534819D02*
X184705714Y-103534819D01*
X185991428Y-102868152D02*
X185991428Y-103534819D01*
X185753333Y-102487200D02*
X185515238Y-103201485D01*
X185515238Y-103201485D02*
X186134285Y-103201485D01*
X184874819Y-127333333D02*
X185589104Y-127333333D01*
X185589104Y-127333333D02*
X185731961Y-127380952D01*
X185731961Y-127380952D02*
X185827200Y-127476190D01*
X185827200Y-127476190D02*
X185874819Y-127619047D01*
X185874819Y-127619047D02*
X185874819Y-127714285D01*
X185874819Y-126333333D02*
X185874819Y-126904761D01*
X185874819Y-126619047D02*
X184874819Y-126619047D01*
X184874819Y-126619047D02*
X185017676Y-126714285D01*
X185017676Y-126714285D02*
X185112914Y-126809523D01*
X185112914Y-126809523D02*
X185160533Y-126904761D01*
X119629580Y-89996666D02*
X119677200Y-90044285D01*
X119677200Y-90044285D02*
X119724819Y-90187142D01*
X119724819Y-90187142D02*
X119724819Y-90282380D01*
X119724819Y-90282380D02*
X119677200Y-90425237D01*
X119677200Y-90425237D02*
X119581961Y-90520475D01*
X119581961Y-90520475D02*
X119486723Y-90568094D01*
X119486723Y-90568094D02*
X119296247Y-90615713D01*
X119296247Y-90615713D02*
X119153390Y-90615713D01*
X119153390Y-90615713D02*
X118962914Y-90568094D01*
X118962914Y-90568094D02*
X118867676Y-90520475D01*
X118867676Y-90520475D02*
X118772438Y-90425237D01*
X118772438Y-90425237D02*
X118724819Y-90282380D01*
X118724819Y-90282380D02*
X118724819Y-90187142D01*
X118724819Y-90187142D02*
X118772438Y-90044285D01*
X118772438Y-90044285D02*
X118820057Y-89996666D01*
X118724819Y-89139523D02*
X118724819Y-89329999D01*
X118724819Y-89329999D02*
X118772438Y-89425237D01*
X118772438Y-89425237D02*
X118820057Y-89472856D01*
X118820057Y-89472856D02*
X118962914Y-89568094D01*
X118962914Y-89568094D02*
X119153390Y-89615713D01*
X119153390Y-89615713D02*
X119534342Y-89615713D01*
X119534342Y-89615713D02*
X119629580Y-89568094D01*
X119629580Y-89568094D02*
X119677200Y-89520475D01*
X119677200Y-89520475D02*
X119724819Y-89425237D01*
X119724819Y-89425237D02*
X119724819Y-89234761D01*
X119724819Y-89234761D02*
X119677200Y-89139523D01*
X119677200Y-89139523D02*
X119629580Y-89091904D01*
X119629580Y-89091904D02*
X119534342Y-89044285D01*
X119534342Y-89044285D02*
X119296247Y-89044285D01*
X119296247Y-89044285D02*
X119201009Y-89091904D01*
X119201009Y-89091904D02*
X119153390Y-89139523D01*
X119153390Y-89139523D02*
X119105771Y-89234761D01*
X119105771Y-89234761D02*
X119105771Y-89425237D01*
X119105771Y-89425237D02*
X119153390Y-89520475D01*
X119153390Y-89520475D02*
X119201009Y-89568094D01*
X119201009Y-89568094D02*
X119296247Y-89615713D01*
X118834819Y-126063333D02*
X119549104Y-126063333D01*
X119549104Y-126063333D02*
X119691961Y-126110952D01*
X119691961Y-126110952D02*
X119787200Y-126206190D01*
X119787200Y-126206190D02*
X119834819Y-126349047D01*
X119834819Y-126349047D02*
X119834819Y-126444285D01*
X119263390Y-125444285D02*
X119215771Y-125539523D01*
X119215771Y-125539523D02*
X119168152Y-125587142D01*
X119168152Y-125587142D02*
X119072914Y-125634761D01*
X119072914Y-125634761D02*
X119025295Y-125634761D01*
X119025295Y-125634761D02*
X118930057Y-125587142D01*
X118930057Y-125587142D02*
X118882438Y-125539523D01*
X118882438Y-125539523D02*
X118834819Y-125444285D01*
X118834819Y-125444285D02*
X118834819Y-125253809D01*
X118834819Y-125253809D02*
X118882438Y-125158571D01*
X118882438Y-125158571D02*
X118930057Y-125110952D01*
X118930057Y-125110952D02*
X119025295Y-125063333D01*
X119025295Y-125063333D02*
X119072914Y-125063333D01*
X119072914Y-125063333D02*
X119168152Y-125110952D01*
X119168152Y-125110952D02*
X119215771Y-125158571D01*
X119215771Y-125158571D02*
X119263390Y-125253809D01*
X119263390Y-125253809D02*
X119263390Y-125444285D01*
X119263390Y-125444285D02*
X119311009Y-125539523D01*
X119311009Y-125539523D02*
X119358628Y-125587142D01*
X119358628Y-125587142D02*
X119453866Y-125634761D01*
X119453866Y-125634761D02*
X119644342Y-125634761D01*
X119644342Y-125634761D02*
X119739580Y-125587142D01*
X119739580Y-125587142D02*
X119787200Y-125539523D01*
X119787200Y-125539523D02*
X119834819Y-125444285D01*
X119834819Y-125444285D02*
X119834819Y-125253809D01*
X119834819Y-125253809D02*
X119787200Y-125158571D01*
X119787200Y-125158571D02*
X119739580Y-125110952D01*
X119739580Y-125110952D02*
X119644342Y-125063333D01*
X119644342Y-125063333D02*
X119453866Y-125063333D01*
X119453866Y-125063333D02*
X119358628Y-125110952D01*
X119358628Y-125110952D02*
X119311009Y-125158571D01*
X119311009Y-125158571D02*
X119263390Y-125253809D01*
X163014819Y-73546666D02*
X162538628Y-73879999D01*
X163014819Y-74118094D02*
X162014819Y-74118094D01*
X162014819Y-74118094D02*
X162014819Y-73737142D01*
X162014819Y-73737142D02*
X162062438Y-73641904D01*
X162062438Y-73641904D02*
X162110057Y-73594285D01*
X162110057Y-73594285D02*
X162205295Y-73546666D01*
X162205295Y-73546666D02*
X162348152Y-73546666D01*
X162348152Y-73546666D02*
X162443390Y-73594285D01*
X162443390Y-73594285D02*
X162491009Y-73641904D01*
X162491009Y-73641904D02*
X162538628Y-73737142D01*
X162538628Y-73737142D02*
X162538628Y-74118094D01*
X163014819Y-73070475D02*
X163014819Y-72879999D01*
X163014819Y-72879999D02*
X162967200Y-72784761D01*
X162967200Y-72784761D02*
X162919580Y-72737142D01*
X162919580Y-72737142D02*
X162776723Y-72641904D01*
X162776723Y-72641904D02*
X162586247Y-72594285D01*
X162586247Y-72594285D02*
X162205295Y-72594285D01*
X162205295Y-72594285D02*
X162110057Y-72641904D01*
X162110057Y-72641904D02*
X162062438Y-72689523D01*
X162062438Y-72689523D02*
X162014819Y-72784761D01*
X162014819Y-72784761D02*
X162014819Y-72975237D01*
X162014819Y-72975237D02*
X162062438Y-73070475D01*
X162062438Y-73070475D02*
X162110057Y-73118094D01*
X162110057Y-73118094D02*
X162205295Y-73165713D01*
X162205295Y-73165713D02*
X162443390Y-73165713D01*
X162443390Y-73165713D02*
X162538628Y-73118094D01*
X162538628Y-73118094D02*
X162586247Y-73070475D01*
X162586247Y-73070475D02*
X162633866Y-72975237D01*
X162633866Y-72975237D02*
X162633866Y-72784761D01*
X162633866Y-72784761D02*
X162586247Y-72689523D01*
X162586247Y-72689523D02*
X162538628Y-72641904D01*
X162538628Y-72641904D02*
X162443390Y-72594285D01*
X174498095Y-73194819D02*
X174498095Y-74004342D01*
X174498095Y-74004342D02*
X174545714Y-74099580D01*
X174545714Y-74099580D02*
X174593333Y-74147200D01*
X174593333Y-74147200D02*
X174688571Y-74194819D01*
X174688571Y-74194819D02*
X174879047Y-74194819D01*
X174879047Y-74194819D02*
X174974285Y-74147200D01*
X174974285Y-74147200D02*
X175021904Y-74099580D01*
X175021904Y-74099580D02*
X175069523Y-74004342D01*
X175069523Y-74004342D02*
X175069523Y-73194819D01*
X175450476Y-73194819D02*
X176117142Y-73194819D01*
X176117142Y-73194819D02*
X175688571Y-74194819D01*
X140154819Y-89346666D02*
X139678628Y-89679999D01*
X140154819Y-89918094D02*
X139154819Y-89918094D01*
X139154819Y-89918094D02*
X139154819Y-89537142D01*
X139154819Y-89537142D02*
X139202438Y-89441904D01*
X139202438Y-89441904D02*
X139250057Y-89394285D01*
X139250057Y-89394285D02*
X139345295Y-89346666D01*
X139345295Y-89346666D02*
X139488152Y-89346666D01*
X139488152Y-89346666D02*
X139583390Y-89394285D01*
X139583390Y-89394285D02*
X139631009Y-89441904D01*
X139631009Y-89441904D02*
X139678628Y-89537142D01*
X139678628Y-89537142D02*
X139678628Y-89918094D01*
X139583390Y-88775237D02*
X139535771Y-88870475D01*
X139535771Y-88870475D02*
X139488152Y-88918094D01*
X139488152Y-88918094D02*
X139392914Y-88965713D01*
X139392914Y-88965713D02*
X139345295Y-88965713D01*
X139345295Y-88965713D02*
X139250057Y-88918094D01*
X139250057Y-88918094D02*
X139202438Y-88870475D01*
X139202438Y-88870475D02*
X139154819Y-88775237D01*
X139154819Y-88775237D02*
X139154819Y-88584761D01*
X139154819Y-88584761D02*
X139202438Y-88489523D01*
X139202438Y-88489523D02*
X139250057Y-88441904D01*
X139250057Y-88441904D02*
X139345295Y-88394285D01*
X139345295Y-88394285D02*
X139392914Y-88394285D01*
X139392914Y-88394285D02*
X139488152Y-88441904D01*
X139488152Y-88441904D02*
X139535771Y-88489523D01*
X139535771Y-88489523D02*
X139583390Y-88584761D01*
X139583390Y-88584761D02*
X139583390Y-88775237D01*
X139583390Y-88775237D02*
X139631009Y-88870475D01*
X139631009Y-88870475D02*
X139678628Y-88918094D01*
X139678628Y-88918094D02*
X139773866Y-88965713D01*
X139773866Y-88965713D02*
X139964342Y-88965713D01*
X139964342Y-88965713D02*
X140059580Y-88918094D01*
X140059580Y-88918094D02*
X140107200Y-88870475D01*
X140107200Y-88870475D02*
X140154819Y-88775237D01*
X140154819Y-88775237D02*
X140154819Y-88584761D01*
X140154819Y-88584761D02*
X140107200Y-88489523D01*
X140107200Y-88489523D02*
X140059580Y-88441904D01*
X140059580Y-88441904D02*
X139964342Y-88394285D01*
X139964342Y-88394285D02*
X139773866Y-88394285D01*
X139773866Y-88394285D02*
X139678628Y-88441904D01*
X139678628Y-88441904D02*
X139631009Y-88489523D01*
X139631009Y-88489523D02*
X139583390Y-88584761D01*
X162294819Y-95612857D02*
X161818628Y-95946190D01*
X162294819Y-96184285D02*
X161294819Y-96184285D01*
X161294819Y-96184285D02*
X161294819Y-95803333D01*
X161294819Y-95803333D02*
X161342438Y-95708095D01*
X161342438Y-95708095D02*
X161390057Y-95660476D01*
X161390057Y-95660476D02*
X161485295Y-95612857D01*
X161485295Y-95612857D02*
X161628152Y-95612857D01*
X161628152Y-95612857D02*
X161723390Y-95660476D01*
X161723390Y-95660476D02*
X161771009Y-95708095D01*
X161771009Y-95708095D02*
X161818628Y-95803333D01*
X161818628Y-95803333D02*
X161818628Y-96184285D01*
X161390057Y-95231904D02*
X161342438Y-95184285D01*
X161342438Y-95184285D02*
X161294819Y-95089047D01*
X161294819Y-95089047D02*
X161294819Y-94850952D01*
X161294819Y-94850952D02*
X161342438Y-94755714D01*
X161342438Y-94755714D02*
X161390057Y-94708095D01*
X161390057Y-94708095D02*
X161485295Y-94660476D01*
X161485295Y-94660476D02*
X161580533Y-94660476D01*
X161580533Y-94660476D02*
X161723390Y-94708095D01*
X161723390Y-94708095D02*
X162294819Y-95279523D01*
X162294819Y-95279523D02*
X162294819Y-94660476D01*
X161294819Y-93755714D02*
X161294819Y-94231904D01*
X161294819Y-94231904D02*
X161771009Y-94279523D01*
X161771009Y-94279523D02*
X161723390Y-94231904D01*
X161723390Y-94231904D02*
X161675771Y-94136666D01*
X161675771Y-94136666D02*
X161675771Y-93898571D01*
X161675771Y-93898571D02*
X161723390Y-93803333D01*
X161723390Y-93803333D02*
X161771009Y-93755714D01*
X161771009Y-93755714D02*
X161866247Y-93708095D01*
X161866247Y-93708095D02*
X162104342Y-93708095D01*
X162104342Y-93708095D02*
X162199580Y-93755714D01*
X162199580Y-93755714D02*
X162247200Y-93803333D01*
X162247200Y-93803333D02*
X162294819Y-93898571D01*
X162294819Y-93898571D02*
X162294819Y-94136666D01*
X162294819Y-94136666D02*
X162247200Y-94231904D01*
X162247200Y-94231904D02*
X162199580Y-94279523D01*
X140154819Y-95612857D02*
X139678628Y-95946190D01*
X140154819Y-96184285D02*
X139154819Y-96184285D01*
X139154819Y-96184285D02*
X139154819Y-95803333D01*
X139154819Y-95803333D02*
X139202438Y-95708095D01*
X139202438Y-95708095D02*
X139250057Y-95660476D01*
X139250057Y-95660476D02*
X139345295Y-95612857D01*
X139345295Y-95612857D02*
X139488152Y-95612857D01*
X139488152Y-95612857D02*
X139583390Y-95660476D01*
X139583390Y-95660476D02*
X139631009Y-95708095D01*
X139631009Y-95708095D02*
X139678628Y-95803333D01*
X139678628Y-95803333D02*
X139678628Y-96184285D01*
X140154819Y-94660476D02*
X140154819Y-95231904D01*
X140154819Y-94946190D02*
X139154819Y-94946190D01*
X139154819Y-94946190D02*
X139297676Y-95041428D01*
X139297676Y-95041428D02*
X139392914Y-95136666D01*
X139392914Y-95136666D02*
X139440533Y-95231904D01*
X139154819Y-94327142D02*
X139154819Y-93660476D01*
X139154819Y-93660476D02*
X140154819Y-94089047D01*
X106134819Y-126063333D02*
X106849104Y-126063333D01*
X106849104Y-126063333D02*
X106991961Y-126110952D01*
X106991961Y-126110952D02*
X107087200Y-126206190D01*
X107087200Y-126206190D02*
X107134819Y-126349047D01*
X107134819Y-126349047D02*
X107134819Y-126444285D01*
X106134819Y-125158571D02*
X106134819Y-125349047D01*
X106134819Y-125349047D02*
X106182438Y-125444285D01*
X106182438Y-125444285D02*
X106230057Y-125491904D01*
X106230057Y-125491904D02*
X106372914Y-125587142D01*
X106372914Y-125587142D02*
X106563390Y-125634761D01*
X106563390Y-125634761D02*
X106944342Y-125634761D01*
X106944342Y-125634761D02*
X107039580Y-125587142D01*
X107039580Y-125587142D02*
X107087200Y-125539523D01*
X107087200Y-125539523D02*
X107134819Y-125444285D01*
X107134819Y-125444285D02*
X107134819Y-125253809D01*
X107134819Y-125253809D02*
X107087200Y-125158571D01*
X107087200Y-125158571D02*
X107039580Y-125110952D01*
X107039580Y-125110952D02*
X106944342Y-125063333D01*
X106944342Y-125063333D02*
X106706247Y-125063333D01*
X106706247Y-125063333D02*
X106611009Y-125110952D01*
X106611009Y-125110952D02*
X106563390Y-125158571D01*
X106563390Y-125158571D02*
X106515771Y-125253809D01*
X106515771Y-125253809D02*
X106515771Y-125444285D01*
X106515771Y-125444285D02*
X106563390Y-125539523D01*
X106563390Y-125539523D02*
X106611009Y-125587142D01*
X106611009Y-125587142D02*
X106706247Y-125634761D01*
X119629580Y-65866666D02*
X119677200Y-65914285D01*
X119677200Y-65914285D02*
X119724819Y-66057142D01*
X119724819Y-66057142D02*
X119724819Y-66152380D01*
X119724819Y-66152380D02*
X119677200Y-66295237D01*
X119677200Y-66295237D02*
X119581961Y-66390475D01*
X119581961Y-66390475D02*
X119486723Y-66438094D01*
X119486723Y-66438094D02*
X119296247Y-66485713D01*
X119296247Y-66485713D02*
X119153390Y-66485713D01*
X119153390Y-66485713D02*
X118962914Y-66438094D01*
X118962914Y-66438094D02*
X118867676Y-66390475D01*
X118867676Y-66390475D02*
X118772438Y-66295237D01*
X118772438Y-66295237D02*
X118724819Y-66152380D01*
X118724819Y-66152380D02*
X118724819Y-66057142D01*
X118724819Y-66057142D02*
X118772438Y-65914285D01*
X118772438Y-65914285D02*
X118820057Y-65866666D01*
X118724819Y-64961904D02*
X118724819Y-65438094D01*
X118724819Y-65438094D02*
X119201009Y-65485713D01*
X119201009Y-65485713D02*
X119153390Y-65438094D01*
X119153390Y-65438094D02*
X119105771Y-65342856D01*
X119105771Y-65342856D02*
X119105771Y-65104761D01*
X119105771Y-65104761D02*
X119153390Y-65009523D01*
X119153390Y-65009523D02*
X119201009Y-64961904D01*
X119201009Y-64961904D02*
X119296247Y-64914285D01*
X119296247Y-64914285D02*
X119534342Y-64914285D01*
X119534342Y-64914285D02*
X119629580Y-64961904D01*
X119629580Y-64961904D02*
X119677200Y-65009523D01*
X119677200Y-65009523D02*
X119724819Y-65104761D01*
X119724819Y-65104761D02*
X119724819Y-65342856D01*
X119724819Y-65342856D02*
X119677200Y-65438094D01*
X119677200Y-65438094D02*
X119629580Y-65485713D01*
X185086666Y-77404819D02*
X185086666Y-78119104D01*
X185086666Y-78119104D02*
X185039047Y-78261961D01*
X185039047Y-78261961D02*
X184943809Y-78357200D01*
X184943809Y-78357200D02*
X184800952Y-78404819D01*
X184800952Y-78404819D02*
X184705714Y-78404819D01*
X185467619Y-77404819D02*
X186134285Y-77404819D01*
X186134285Y-77404819D02*
X185705714Y-78404819D01*
X144444819Y-103631904D02*
X145254342Y-103631904D01*
X145254342Y-103631904D02*
X145349580Y-103584285D01*
X145349580Y-103584285D02*
X145397200Y-103536666D01*
X145397200Y-103536666D02*
X145444819Y-103441428D01*
X145444819Y-103441428D02*
X145444819Y-103250952D01*
X145444819Y-103250952D02*
X145397200Y-103155714D01*
X145397200Y-103155714D02*
X145349580Y-103108095D01*
X145349580Y-103108095D02*
X145254342Y-103060476D01*
X145254342Y-103060476D02*
X144444819Y-103060476D01*
X144778152Y-102155714D02*
X145444819Y-102155714D01*
X144397200Y-102393809D02*
X145111485Y-102631904D01*
X145111485Y-102631904D02*
X145111485Y-102012857D01*
X146223333Y-68939580D02*
X146175714Y-68987200D01*
X146175714Y-68987200D02*
X146032857Y-69034819D01*
X146032857Y-69034819D02*
X145937619Y-69034819D01*
X145937619Y-69034819D02*
X145794762Y-68987200D01*
X145794762Y-68987200D02*
X145699524Y-68891961D01*
X145699524Y-68891961D02*
X145651905Y-68796723D01*
X145651905Y-68796723D02*
X145604286Y-68606247D01*
X145604286Y-68606247D02*
X145604286Y-68463390D01*
X145604286Y-68463390D02*
X145651905Y-68272914D01*
X145651905Y-68272914D02*
X145699524Y-68177676D01*
X145699524Y-68177676D02*
X145794762Y-68082438D01*
X145794762Y-68082438D02*
X145937619Y-68034819D01*
X145937619Y-68034819D02*
X146032857Y-68034819D01*
X146032857Y-68034819D02*
X146175714Y-68082438D01*
X146175714Y-68082438D02*
X146223333Y-68130057D01*
X146604286Y-68130057D02*
X146651905Y-68082438D01*
X146651905Y-68082438D02*
X146747143Y-68034819D01*
X146747143Y-68034819D02*
X146985238Y-68034819D01*
X146985238Y-68034819D02*
X147080476Y-68082438D01*
X147080476Y-68082438D02*
X147128095Y-68130057D01*
X147128095Y-68130057D02*
X147175714Y-68225295D01*
X147175714Y-68225295D02*
X147175714Y-68320533D01*
X147175714Y-68320533D02*
X147128095Y-68463390D01*
X147128095Y-68463390D02*
X146556667Y-69034819D01*
X146556667Y-69034819D02*
X147175714Y-69034819D01*
X140154819Y-111412857D02*
X139678628Y-111746190D01*
X140154819Y-111984285D02*
X139154819Y-111984285D01*
X139154819Y-111984285D02*
X139154819Y-111603333D01*
X139154819Y-111603333D02*
X139202438Y-111508095D01*
X139202438Y-111508095D02*
X139250057Y-111460476D01*
X139250057Y-111460476D02*
X139345295Y-111412857D01*
X139345295Y-111412857D02*
X139488152Y-111412857D01*
X139488152Y-111412857D02*
X139583390Y-111460476D01*
X139583390Y-111460476D02*
X139631009Y-111508095D01*
X139631009Y-111508095D02*
X139678628Y-111603333D01*
X139678628Y-111603333D02*
X139678628Y-111984285D01*
X139250057Y-111031904D02*
X139202438Y-110984285D01*
X139202438Y-110984285D02*
X139154819Y-110889047D01*
X139154819Y-110889047D02*
X139154819Y-110650952D01*
X139154819Y-110650952D02*
X139202438Y-110555714D01*
X139202438Y-110555714D02*
X139250057Y-110508095D01*
X139250057Y-110508095D02*
X139345295Y-110460476D01*
X139345295Y-110460476D02*
X139440533Y-110460476D01*
X139440533Y-110460476D02*
X139583390Y-110508095D01*
X139583390Y-110508095D02*
X140154819Y-111079523D01*
X140154819Y-111079523D02*
X140154819Y-110460476D01*
X139488152Y-109603333D02*
X140154819Y-109603333D01*
X139107200Y-109841428D02*
X139821485Y-110079523D01*
X139821485Y-110079523D02*
X139821485Y-109460476D01*
X105918095Y-60624819D02*
X105918095Y-61434342D01*
X105918095Y-61434342D02*
X105965714Y-61529580D01*
X105965714Y-61529580D02*
X106013333Y-61577200D01*
X106013333Y-61577200D02*
X106108571Y-61624819D01*
X106108571Y-61624819D02*
X106299047Y-61624819D01*
X106299047Y-61624819D02*
X106394285Y-61577200D01*
X106394285Y-61577200D02*
X106441904Y-61529580D01*
X106441904Y-61529580D02*
X106489523Y-61434342D01*
X106489523Y-61434342D02*
X106489523Y-60624819D01*
X107441904Y-60624819D02*
X106965714Y-60624819D01*
X106965714Y-60624819D02*
X106918095Y-61101009D01*
X106918095Y-61101009D02*
X106965714Y-61053390D01*
X106965714Y-61053390D02*
X107060952Y-61005771D01*
X107060952Y-61005771D02*
X107299047Y-61005771D01*
X107299047Y-61005771D02*
X107394285Y-61053390D01*
X107394285Y-61053390D02*
X107441904Y-61101009D01*
X107441904Y-61101009D02*
X107489523Y-61196247D01*
X107489523Y-61196247D02*
X107489523Y-61434342D01*
X107489523Y-61434342D02*
X107441904Y-61529580D01*
X107441904Y-61529580D02*
X107394285Y-61577200D01*
X107394285Y-61577200D02*
X107299047Y-61624819D01*
X107299047Y-61624819D02*
X107060952Y-61624819D01*
X107060952Y-61624819D02*
X106965714Y-61577200D01*
X106965714Y-61577200D02*
X106918095Y-61529580D01*
D12*
%TO.C,R12*%
X153310000Y-72652936D02*
X153310000Y-74107064D01*
X151490000Y-72652936D02*
X151490000Y-74107064D01*
%TO.C,R22*%
X131170000Y-111497064D02*
X131170000Y-110042936D01*
X132990000Y-111497064D02*
X132990000Y-110042936D01*
%TO.C,U1*%
X123060000Y-86410000D02*
X143620000Y-86410000D01*
X143620000Y-86410000D02*
X143620000Y-76130000D01*
X123120000Y-83920000D02*
X143560000Y-83920000D01*
X143560000Y-83920000D02*
X143560000Y-78620000D01*
X123120000Y-82270000D02*
X123120000Y-83920000D01*
X123120000Y-78620000D02*
X123120000Y-80270000D01*
X143560000Y-78620000D02*
X123120000Y-78620000D01*
X123060000Y-76130000D02*
X123060000Y-86410000D01*
X143620000Y-76130000D02*
X123060000Y-76130000D01*
X123120000Y-82270000D02*
G75*
G03*
X123120000Y-80270000I0J1000000D01*
G01*
%TO.C,J2*%
X186750000Y-118050000D02*
X186750000Y-119380000D01*
X185420000Y-118050000D02*
X186750000Y-118050000D01*
X184150000Y-118050000D02*
X125670000Y-118050000D01*
X184150000Y-118050000D02*
X184150000Y-120710000D01*
X125670000Y-118050000D02*
X125670000Y-120710000D01*
X184150000Y-120710000D02*
X125670000Y-120710000D01*
%TO.C,U2*%
X145930000Y-86420000D02*
X166490000Y-86420000D01*
X166490000Y-86420000D02*
X166490000Y-76140000D01*
X145990000Y-83930000D02*
X166430000Y-83930000D01*
X166430000Y-83930000D02*
X166430000Y-78630000D01*
X145990000Y-82280000D02*
X145990000Y-83930000D01*
X145990000Y-78630000D02*
X145990000Y-80280000D01*
X166430000Y-78630000D02*
X145990000Y-78630000D01*
X145930000Y-76140000D02*
X145930000Y-86420000D01*
X166490000Y-76140000D02*
X145930000Y-76140000D01*
X145990000Y-82280000D02*
G75*
G03*
X145990000Y-80280000I0J1000000D01*
G01*
%TO.C,R4*%
X130450000Y-72652936D02*
X130450000Y-74107064D01*
X128630000Y-72652936D02*
X128630000Y-74107064D01*
%TO.C,R29*%
X151490000Y-111497064D02*
X151490000Y-110042936D01*
X153310000Y-111497064D02*
X153310000Y-110042936D01*
%TO.C,U3*%
X123070000Y-108010000D02*
X143630000Y-108010000D01*
X143630000Y-108010000D02*
X143630000Y-97730000D01*
X123130000Y-105520000D02*
X143570000Y-105520000D01*
X143570000Y-105520000D02*
X143570000Y-100220000D01*
X123130000Y-103870000D02*
X123130000Y-105520000D01*
X123130000Y-100220000D02*
X123130000Y-101870000D01*
X143570000Y-100220000D02*
X123130000Y-100220000D01*
X123070000Y-97730000D02*
X123070000Y-108010000D01*
X143630000Y-97730000D02*
X123070000Y-97730000D01*
X123130000Y-103870000D02*
G75*
G03*
X123130000Y-101870000I0J1000000D01*
G01*
%TO.C,R20*%
X130450000Y-94242936D02*
X130450000Y-95697064D01*
X128630000Y-94242936D02*
X128630000Y-95697064D01*
%TO.C,R30*%
X154030000Y-111497064D02*
X154030000Y-110042936D01*
X155850000Y-111497064D02*
X155850000Y-110042936D01*
%TO.C,J5*%
X184360000Y-61170000D02*
X185420000Y-61170000D01*
X184360000Y-62230000D02*
X184360000Y-61170000D01*
X184360000Y-63230000D02*
X184360000Y-73290000D01*
X184360000Y-63230000D02*
X186480000Y-63230000D01*
X184360000Y-73290000D02*
X186480000Y-73290000D01*
X186480000Y-63230000D02*
X186480000Y-73290000D01*
%TO.C,R13*%
X151490000Y-89907064D02*
X151490000Y-88452936D01*
X153310000Y-89907064D02*
X153310000Y-88452936D01*
%TO.C,R3*%
X132990000Y-72652936D02*
X132990000Y-74107064D01*
X131170000Y-72652936D02*
X131170000Y-74107064D01*
%TO.C,R1*%
X138070000Y-72652936D02*
X138070000Y-74107064D01*
X136250000Y-72652936D02*
X136250000Y-74107064D01*
%TO.C,R27*%
X155850000Y-94242936D02*
X155850000Y-95697064D01*
X154030000Y-94242936D02*
X154030000Y-95697064D01*
%TO.C,R16*%
X159110000Y-89907064D02*
X159110000Y-88452936D01*
X160930000Y-89907064D02*
X160930000Y-88452936D01*
%TO.C,C1*%
X127155000Y-74075000D02*
X126530000Y-74075000D01*
X126842500Y-74387500D02*
X126842500Y-73762500D01*
X126290000Y-74085563D02*
X126290000Y-73450000D01*
X126290000Y-74085563D02*
X125225563Y-75150000D01*
X126290000Y-70694437D02*
X126290000Y-71330000D01*
X126290000Y-70694437D02*
X125225563Y-69630000D01*
X125225563Y-75150000D02*
X120770000Y-75150000D01*
X125225563Y-69630000D02*
X120770000Y-69630000D01*
X120770000Y-75150000D02*
X120770000Y-73450000D01*
X120770000Y-69630000D02*
X120770000Y-71330000D01*
%TO.C,C4*%
X150015000Y-95665000D02*
X149390000Y-95665000D01*
X149702500Y-95977500D02*
X149702500Y-95352500D01*
X149150000Y-95675563D02*
X149150000Y-95040000D01*
X149150000Y-95675563D02*
X148085563Y-96740000D01*
X149150000Y-92284437D02*
X149150000Y-92920000D01*
X149150000Y-92284437D02*
X148085563Y-91220000D01*
X148085563Y-96740000D02*
X143630000Y-96740000D01*
X148085563Y-91220000D02*
X143630000Y-91220000D01*
X143630000Y-96740000D02*
X143630000Y-95040000D01*
X143630000Y-91220000D02*
X143630000Y-92920000D01*
%TO.C,U6*%
X101540000Y-86240000D02*
X101540000Y-106800000D01*
X101540000Y-106800000D02*
X111820000Y-106800000D01*
X104030000Y-86300000D02*
X104030000Y-106740000D01*
X104030000Y-106740000D02*
X109330000Y-106740000D01*
X105680000Y-86300000D02*
X104030000Y-86300000D01*
X109330000Y-86300000D02*
X107680000Y-86300000D01*
X109330000Y-106740000D02*
X109330000Y-86300000D01*
X111820000Y-86240000D02*
X101540000Y-86240000D01*
X111820000Y-106800000D02*
X111820000Y-86240000D01*
X105680000Y-86300000D02*
G75*
G03*
X107680000Y-86300000I1000000J0D01*
G01*
%TO.C,C3*%
X127155000Y-95665000D02*
X126530000Y-95665000D01*
X126842500Y-95977500D02*
X126842500Y-95352500D01*
X126290000Y-95675563D02*
X126290000Y-95040000D01*
X126290000Y-95675563D02*
X125225563Y-96740000D01*
X126290000Y-92284437D02*
X126290000Y-92920000D01*
X126290000Y-92284437D02*
X125225563Y-91220000D01*
X125225563Y-96740000D02*
X120770000Y-96740000D01*
X125225563Y-91220000D02*
X120770000Y-91220000D01*
X120770000Y-96740000D02*
X120770000Y-95040000D01*
X120770000Y-91220000D02*
X120770000Y-92920000D01*
%TO.C,R2*%
X135530000Y-72652936D02*
X135530000Y-74107064D01*
X133710000Y-72652936D02*
X133710000Y-74107064D01*
%TO.C,J4*%
X184090000Y-104080000D02*
X185420000Y-104080000D01*
X184090000Y-105410000D02*
X184090000Y-104080000D01*
X184090000Y-106680000D02*
X184090000Y-109280000D01*
X184090000Y-106680000D02*
X186750000Y-106680000D01*
X184090000Y-109280000D02*
X186750000Y-109280000D01*
X186750000Y-106680000D02*
X186750000Y-109280000D01*
%TO.C,J1*%
X186750000Y-123130000D02*
X186750000Y-124460000D01*
X185420000Y-123130000D02*
X186750000Y-123130000D01*
X184150000Y-123130000D02*
X125670000Y-123130000D01*
X184150000Y-123130000D02*
X184150000Y-125790000D01*
X125670000Y-123130000D02*
X125670000Y-125790000D01*
X184150000Y-125790000D02*
X125670000Y-125790000D01*
%TO.C,C6*%
X117255000Y-86205000D02*
X117255000Y-86830000D01*
X117567500Y-86517500D02*
X116942500Y-86517500D01*
X117265563Y-87070000D02*
X116630000Y-87070000D01*
X117265563Y-87070000D02*
X118330000Y-88134437D01*
X113874437Y-87070000D02*
X114510000Y-87070000D01*
X113874437Y-87070000D02*
X112810000Y-88134437D01*
X118330000Y-88134437D02*
X118330000Y-92590000D01*
X112810000Y-88134437D02*
X112810000Y-92590000D01*
X118330000Y-92590000D02*
X116630000Y-92590000D01*
X112810000Y-92590000D02*
X114510000Y-92590000D01*
%TO.C,R23*%
X133710000Y-111497064D02*
X133710000Y-110042936D01*
X135530000Y-111497064D02*
X135530000Y-110042936D01*
%TO.C,J8*%
X110430000Y-127060000D02*
X110430000Y-125730000D01*
X111760000Y-127060000D02*
X110430000Y-127060000D01*
X113030000Y-127060000D02*
X118170000Y-127060000D01*
X113030000Y-127060000D02*
X113030000Y-124400000D01*
X118170000Y-127060000D02*
X118170000Y-124400000D01*
X113030000Y-124400000D02*
X118170000Y-124400000D01*
%TO.C,R9*%
X160930000Y-72652936D02*
X160930000Y-74107064D01*
X159110000Y-72652936D02*
X159110000Y-74107064D01*
%TO.C,R11*%
X155850000Y-72652936D02*
X155850000Y-74107064D01*
X154030000Y-72652936D02*
X154030000Y-74107064D01*
%TO.C,U7*%
X170140000Y-74740000D02*
X170140000Y-90630000D01*
X170140000Y-74740000D02*
X180380000Y-74740000D01*
X170140000Y-90630000D02*
X180380000Y-90630000D01*
X172720000Y-90630000D02*
X172720000Y-93170000D01*
X175260000Y-90630000D02*
X175260000Y-93170000D01*
X177800000Y-90630000D02*
X177800000Y-93170000D01*
X180380000Y-74740000D02*
X180380000Y-90630000D01*
%TO.C,R26*%
X158390000Y-94242936D02*
X158390000Y-95697064D01*
X156570000Y-94242936D02*
X156570000Y-95697064D01*
%TO.C,R10*%
X158390000Y-72652936D02*
X158390000Y-74107064D01*
X156570000Y-72652936D02*
X156570000Y-74107064D01*
%TO.C,R8*%
X136250000Y-89907064D02*
X136250000Y-88452936D01*
X138070000Y-89907064D02*
X138070000Y-88452936D01*
%TO.C,R25*%
X160930000Y-94242936D02*
X160930000Y-95697064D01*
X159110000Y-94242936D02*
X159110000Y-95697064D01*
%TO.C,R17*%
X138070000Y-94242936D02*
X138070000Y-95697064D01*
X136250000Y-94242936D02*
X136250000Y-95697064D01*
%TO.C,J6*%
X100270000Y-127060000D02*
X100270000Y-125730000D01*
X101600000Y-127060000D02*
X100270000Y-127060000D01*
X102870000Y-127060000D02*
X105470000Y-127060000D01*
X102870000Y-127060000D02*
X102870000Y-124400000D01*
X105470000Y-127060000D02*
X105470000Y-124400000D01*
X102870000Y-124400000D02*
X105470000Y-124400000D01*
%TO.C,R15*%
X156570000Y-89907064D02*
X156570000Y-88452936D01*
X158390000Y-89907064D02*
X158390000Y-88452936D01*
%TO.C,R21*%
X128630000Y-111497064D02*
X128630000Y-110042936D01*
X130450000Y-111497064D02*
X130450000Y-110042936D01*
%TO.C,C5*%
X117255000Y-62075000D02*
X117255000Y-62700000D01*
X117567500Y-62387500D02*
X116942500Y-62387500D01*
X117265563Y-62940000D02*
X116630000Y-62940000D01*
X117265563Y-62940000D02*
X118330000Y-64004437D01*
X113874437Y-62940000D02*
X114510000Y-62940000D01*
X113874437Y-62940000D02*
X112810000Y-64004437D01*
X118330000Y-64004437D02*
X118330000Y-68460000D01*
X112810000Y-64004437D02*
X112810000Y-68460000D01*
X118330000Y-68460000D02*
X116630000Y-68460000D01*
X112810000Y-68460000D02*
X114510000Y-68460000D01*
%TO.C,J7*%
X184360000Y-78950000D02*
X185420000Y-78950000D01*
X184360000Y-80010000D02*
X184360000Y-78950000D01*
X184360000Y-81010000D02*
X184360000Y-97070000D01*
X184360000Y-81010000D02*
X186480000Y-81010000D01*
X184360000Y-97070000D02*
X186480000Y-97070000D01*
X186480000Y-81010000D02*
X186480000Y-97070000D01*
%TO.C,R6*%
X131170000Y-89907064D02*
X131170000Y-88452936D01*
X132990000Y-89907064D02*
X132990000Y-88452936D01*
%TO.C,R7*%
X133710000Y-89907064D02*
X133710000Y-88452936D01*
X135530000Y-89907064D02*
X135530000Y-88452936D01*
%TO.C,U4*%
X145930000Y-108010000D02*
X166490000Y-108010000D01*
X166490000Y-108010000D02*
X166490000Y-97730000D01*
X145990000Y-105520000D02*
X166430000Y-105520000D01*
X166430000Y-105520000D02*
X166430000Y-100220000D01*
X145990000Y-103870000D02*
X145990000Y-105520000D01*
X145990000Y-100220000D02*
X145990000Y-101870000D01*
X166430000Y-100220000D02*
X145990000Y-100220000D01*
X145930000Y-97730000D02*
X145930000Y-108010000D01*
X166490000Y-97730000D02*
X145930000Y-97730000D01*
X145990000Y-103870000D02*
G75*
G03*
X145990000Y-101870000I0J1000000D01*
G01*
%TO.C,R19*%
X132990000Y-94242936D02*
X132990000Y-95697064D01*
X131170000Y-94242936D02*
X131170000Y-95697064D01*
%TO.C,R28*%
X153310000Y-94242936D02*
X153310000Y-95697064D01*
X151490000Y-94242936D02*
X151490000Y-95697064D01*
%TO.C,C2*%
X150015000Y-74075000D02*
X149390000Y-74075000D01*
X149702500Y-74387500D02*
X149702500Y-73762500D01*
X149150000Y-74085563D02*
X149150000Y-73450000D01*
X149150000Y-74085563D02*
X148085563Y-75150000D01*
X149150000Y-70694437D02*
X149150000Y-71330000D01*
X149150000Y-70694437D02*
X148085563Y-69630000D01*
X148085563Y-75150000D02*
X143630000Y-75150000D01*
X148085563Y-69630000D02*
X143630000Y-69630000D01*
X143630000Y-75150000D02*
X143630000Y-73450000D01*
X143630000Y-69630000D02*
X143630000Y-71330000D01*
%TO.C,R24*%
X136250000Y-111497064D02*
X136250000Y-110042936D01*
X138070000Y-111497064D02*
X138070000Y-110042936D01*
%TO.C,R5*%
X128630000Y-89907064D02*
X128630000Y-88452936D01*
X130450000Y-89907064D02*
X130450000Y-88452936D01*
%TO.C,U5*%
X101540000Y-62110000D02*
X101540000Y-82670000D01*
X101540000Y-82670000D02*
X111820000Y-82670000D01*
X104030000Y-62170000D02*
X104030000Y-82610000D01*
X104030000Y-82610000D02*
X109330000Y-82610000D01*
X105680000Y-62170000D02*
X104030000Y-62170000D01*
X109330000Y-62170000D02*
X107680000Y-62170000D01*
X109330000Y-82610000D02*
X109330000Y-62170000D01*
X111820000Y-62110000D02*
X101540000Y-62110000D01*
X111820000Y-82670000D02*
X111820000Y-62110000D01*
X105680000Y-62170000D02*
G75*
G03*
X107680000Y-62170000I1000000J0D01*
G01*
%TO.C,R18*%
X135530000Y-94242936D02*
X135530000Y-95697064D01*
X133710000Y-94242936D02*
X133710000Y-95697064D01*
%TO.C,R14*%
X154030000Y-89907064D02*
X154030000Y-88452936D01*
X155850000Y-89907064D02*
X155850000Y-88452936D01*
%TD*%
M02*
