%TF.GenerationSoftware,KiCad,Pcbnew,7.0.8*%
%TF.CreationDate,2023-10-23T01:27:40-07:00*%
%TF.ProjectId,motherboard,6d6f7468-6572-4626-9f61-72642e6b6963,1*%
%TF.SameCoordinates,Original*%
%TF.FileFunction,Legend,Bot*%
%TF.FilePolarity,Positive*%
%FSLAX46Y46*%
G04 Gerber Fmt 4.6, Leading zero omitted, Abs format (unit mm)*
G04 Created by KiCad (PCBNEW 7.0.8) date 2023-10-23 01:27:40*
%MOMM*%
%LPD*%
G01*
G04 APERTURE LIST*
%ADD10C,0.150000*%
%ADD11C,0.120000*%
G04 APERTURE END LIST*
D10*
X182257506Y-114439819D02*
X182257506Y-115154104D01*
X182257506Y-115154104D02*
X182305125Y-115296961D01*
X182305125Y-115296961D02*
X182400363Y-115392200D01*
X182400363Y-115392200D02*
X182543220Y-115439819D01*
X182543220Y-115439819D02*
X182638458Y-115439819D01*
X181305125Y-115439819D02*
X181781315Y-115439819D01*
X181781315Y-115439819D02*
X181781315Y-114439819D01*
X180400363Y-115344580D02*
X180447982Y-115392200D01*
X180447982Y-115392200D02*
X180590839Y-115439819D01*
X180590839Y-115439819D02*
X180686077Y-115439819D01*
X180686077Y-115439819D02*
X180828934Y-115392200D01*
X180828934Y-115392200D02*
X180924172Y-115296961D01*
X180924172Y-115296961D02*
X180971791Y-115201723D01*
X180971791Y-115201723D02*
X181019410Y-115011247D01*
X181019410Y-115011247D02*
X181019410Y-114868390D01*
X181019410Y-114868390D02*
X180971791Y-114677914D01*
X180971791Y-114677914D02*
X180924172Y-114582676D01*
X180924172Y-114582676D02*
X180828934Y-114487438D01*
X180828934Y-114487438D02*
X180686077Y-114439819D01*
X180686077Y-114439819D02*
X180590839Y-114439819D01*
X180590839Y-114439819D02*
X180447982Y-114487438D01*
X180447982Y-114487438D02*
X180400363Y-114535057D01*
X179686077Y-114439819D02*
X179686077Y-115154104D01*
X179686077Y-115154104D02*
X179733696Y-115296961D01*
X179733696Y-115296961D02*
X179828934Y-115392200D01*
X179828934Y-115392200D02*
X179971791Y-115439819D01*
X179971791Y-115439819D02*
X180067029Y-115439819D01*
X178733696Y-115439819D02*
X179209886Y-115439819D01*
X179209886Y-115439819D02*
X179209886Y-114439819D01*
X177828934Y-115344580D02*
X177876553Y-115392200D01*
X177876553Y-115392200D02*
X178019410Y-115439819D01*
X178019410Y-115439819D02*
X178114648Y-115439819D01*
X178114648Y-115439819D02*
X178257505Y-115392200D01*
X178257505Y-115392200D02*
X178352743Y-115296961D01*
X178352743Y-115296961D02*
X178400362Y-115201723D01*
X178400362Y-115201723D02*
X178447981Y-115011247D01*
X178447981Y-115011247D02*
X178447981Y-114868390D01*
X178447981Y-114868390D02*
X178400362Y-114677914D01*
X178400362Y-114677914D02*
X178352743Y-114582676D01*
X178352743Y-114582676D02*
X178257505Y-114487438D01*
X178257505Y-114487438D02*
X178114648Y-114439819D01*
X178114648Y-114439819D02*
X178019410Y-114439819D01*
X178019410Y-114439819D02*
X177876553Y-114487438D01*
X177876553Y-114487438D02*
X177828934Y-114535057D01*
X177114648Y-114439819D02*
X177114648Y-115154104D01*
X177114648Y-115154104D02*
X177162267Y-115296961D01*
X177162267Y-115296961D02*
X177257505Y-115392200D01*
X177257505Y-115392200D02*
X177400362Y-115439819D01*
X177400362Y-115439819D02*
X177495600Y-115439819D01*
X176162267Y-115439819D02*
X176638457Y-115439819D01*
X176638457Y-115439819D02*
X176638457Y-114439819D01*
X175257505Y-115344580D02*
X175305124Y-115392200D01*
X175305124Y-115392200D02*
X175447981Y-115439819D01*
X175447981Y-115439819D02*
X175543219Y-115439819D01*
X175543219Y-115439819D02*
X175686076Y-115392200D01*
X175686076Y-115392200D02*
X175781314Y-115296961D01*
X175781314Y-115296961D02*
X175828933Y-115201723D01*
X175828933Y-115201723D02*
X175876552Y-115011247D01*
X175876552Y-115011247D02*
X175876552Y-114868390D01*
X175876552Y-114868390D02*
X175828933Y-114677914D01*
X175828933Y-114677914D02*
X175781314Y-114582676D01*
X175781314Y-114582676D02*
X175686076Y-114487438D01*
X175686076Y-114487438D02*
X175543219Y-114439819D01*
X175543219Y-114439819D02*
X175447981Y-114439819D01*
X175447981Y-114439819D02*
X175305124Y-114487438D01*
X175305124Y-114487438D02*
X175257505Y-114535057D01*
X174543219Y-114439819D02*
X174543219Y-115154104D01*
X174543219Y-115154104D02*
X174590838Y-115296961D01*
X174590838Y-115296961D02*
X174686076Y-115392200D01*
X174686076Y-115392200D02*
X174828933Y-115439819D01*
X174828933Y-115439819D02*
X174924171Y-115439819D01*
X173590838Y-115439819D02*
X174067028Y-115439819D01*
X174067028Y-115439819D02*
X174067028Y-114439819D01*
X172686076Y-115344580D02*
X172733695Y-115392200D01*
X172733695Y-115392200D02*
X172876552Y-115439819D01*
X172876552Y-115439819D02*
X172971790Y-115439819D01*
X172971790Y-115439819D02*
X173114647Y-115392200D01*
X173114647Y-115392200D02*
X173209885Y-115296961D01*
X173209885Y-115296961D02*
X173257504Y-115201723D01*
X173257504Y-115201723D02*
X173305123Y-115011247D01*
X173305123Y-115011247D02*
X173305123Y-114868390D01*
X173305123Y-114868390D02*
X173257504Y-114677914D01*
X173257504Y-114677914D02*
X173209885Y-114582676D01*
X173209885Y-114582676D02*
X173114647Y-114487438D01*
X173114647Y-114487438D02*
X172971790Y-114439819D01*
X172971790Y-114439819D02*
X172876552Y-114439819D01*
X172876552Y-114439819D02*
X172733695Y-114487438D01*
X172733695Y-114487438D02*
X172686076Y-114535057D01*
X131714819Y-66976666D02*
X132429104Y-66976666D01*
X132429104Y-66976666D02*
X132571961Y-66929047D01*
X132571961Y-66929047D02*
X132667200Y-66833809D01*
X132667200Y-66833809D02*
X132714819Y-66690952D01*
X132714819Y-66690952D02*
X132714819Y-66595714D01*
X131714819Y-67357619D02*
X131714819Y-67976666D01*
X131714819Y-67976666D02*
X132095771Y-67643333D01*
X132095771Y-67643333D02*
X132095771Y-67786190D01*
X132095771Y-67786190D02*
X132143390Y-67881428D01*
X132143390Y-67881428D02*
X132191009Y-67929047D01*
X132191009Y-67929047D02*
X132286247Y-67976666D01*
X132286247Y-67976666D02*
X132524342Y-67976666D01*
X132524342Y-67976666D02*
X132619580Y-67929047D01*
X132619580Y-67929047D02*
X132667200Y-67881428D01*
X132667200Y-67881428D02*
X132714819Y-67786190D01*
X132714819Y-67786190D02*
X132714819Y-67500476D01*
X132714819Y-67500476D02*
X132667200Y-67405238D01*
X132667200Y-67405238D02*
X132619580Y-67357619D01*
D11*
%TO.C,J3*%
X181670000Y-60900000D02*
X181670000Y-66100000D01*
X130750000Y-60900000D02*
X181670000Y-60900000D01*
X130750000Y-60900000D02*
X130750000Y-63500000D01*
X133350000Y-63500000D02*
X133350000Y-66100000D01*
X130750000Y-63500000D02*
X133350000Y-63500000D01*
X130750000Y-64770000D02*
X130750000Y-66100000D01*
X133350000Y-66100000D02*
X181670000Y-66100000D01*
X130750000Y-66100000D02*
X132080000Y-66100000D01*
%TD*%
M02*
