%TF.GenerationSoftware,KiCad,Pcbnew,7.0.8*%
%TF.CreationDate,2023-10-23T01:27:40-07:00*%
%TF.ProjectId,motherboard,6d6f7468-6572-4626-9f61-72642e6b6963,1*%
%TF.SameCoordinates,Original*%
%TF.FileFunction,Copper,L2,Bot*%
%TF.FilePolarity,Positive*%
%FSLAX46Y46*%
G04 Gerber Fmt 4.6, Leading zero omitted, Abs format (unit mm)*
G04 Created by KiCad (PCBNEW 7.0.8) date 2023-10-23 01:27:40*
%MOMM*%
%LPD*%
G01*
G04 APERTURE LIST*
%TA.AperFunction,ComponentPad*%
%ADD10R,1.600000X1.600000*%
%TD*%
%TA.AperFunction,ComponentPad*%
%ADD11O,1.600000X1.600000*%
%TD*%
%TA.AperFunction,ComponentPad*%
%ADD12R,1.700000X1.700000*%
%TD*%
%TA.AperFunction,ComponentPad*%
%ADD13O,1.700000X1.700000*%
%TD*%
%TA.AperFunction,ComponentPad*%
%ADD14R,1.350000X1.350000*%
%TD*%
%TA.AperFunction,ComponentPad*%
%ADD15O,1.350000X1.350000*%
%TD*%
%TA.AperFunction,ComponentPad*%
%ADD16R,1.905000X2.000000*%
%TD*%
%TA.AperFunction,ComponentPad*%
%ADD17O,1.905000X2.000000*%
%TD*%
%TA.AperFunction,ViaPad*%
%ADD18C,0.800000*%
%TD*%
%TA.AperFunction,Conductor*%
%ADD19C,0.250000*%
%TD*%
G04 APERTURE END LIST*
D10*
%TO.P,U1,1,~{PL}*%
%TO.N,Net-(J3-GPIO13(PWM1))*%
X124450000Y-85080000D03*
D11*
%TO.P,U1,2,CP*%
%TO.N,Net-(J3-GPIO18(PCM_CLK))*%
X126990000Y-85080000D03*
%TO.P,U1,3,D4*%
%TO.N,Net-(J1-BIT_4)*%
X129530000Y-85080000D03*
%TO.P,U1,4,D5*%
%TO.N,Net-(J1-BIT_5)*%
X132070000Y-85080000D03*
%TO.P,U1,5,D6*%
%TO.N,Net-(J1-BIT_6)*%
X134610000Y-85080000D03*
%TO.P,U1,6,D7*%
%TO.N,Net-(J1-BIT_7)*%
X137150000Y-85080000D03*
%TO.P,U1,7,~{Q7}*%
%TO.N,unconnected-(U1-~{Q7}-Pad7)*%
X139690000Y-85080000D03*
%TO.P,U1,8,GND*%
%TO.N,GND*%
X142230000Y-85080000D03*
%TO.P,U1,9,Q7*%
%TO.N,Net-(U1-Q7)*%
X142230000Y-77460000D03*
%TO.P,U1,10,DS*%
%TO.N,GND*%
X139690000Y-77460000D03*
%TO.P,U1,11,D0*%
%TO.N,Net-(J1-BIT_0)*%
X137150000Y-77460000D03*
%TO.P,U1,12,D1*%
%TO.N,Net-(J1-BIT_1)*%
X134610000Y-77460000D03*
%TO.P,U1,13,D2*%
%TO.N,Net-(J1-BIT_2)*%
X132070000Y-77460000D03*
%TO.P,U1,14,D3*%
%TO.N,Net-(J1-BIT_3)*%
X129530000Y-77460000D03*
%TO.P,U1,15,~{CE}*%
%TO.N,GND*%
X126990000Y-77460000D03*
%TO.P,U1,16,VCC*%
%TO.N,Net-(J7-5V)*%
X124450000Y-77460000D03*
%TD*%
D12*
%TO.P,J2,1,02_LED*%
%TO.N,Net-(J2-02_LED)*%
X185420000Y-119380000D03*
D13*
%TO.P,J2,2,13_LED*%
%TO.N,Net-(J2-13_LED)*%
X182880000Y-119380000D03*
%TO.P,J2,3,02_SWITCH*%
%TO.N,Net-(J2-02_SWITCH)*%
X180340000Y-119380000D03*
%TO.P,J2,4,13_SWITCH*%
%TO.N,Net-(J2-13_SWITCH)*%
X177800000Y-119380000D03*
%TO.P,J2,5,03_LED*%
%TO.N,Net-(J2-03_LED)*%
X175260000Y-119380000D03*
%TO.P,J2,6,12_LED*%
%TO.N,Net-(J2-12_LED)*%
X172720000Y-119380000D03*
%TO.P,J2,7,03_SWITCH*%
%TO.N,Net-(J2-03_SWITCH)*%
X170180000Y-119380000D03*
%TO.P,J2,8,12_SWITCH*%
%TO.N,Net-(J2-12_SWITCH)*%
X167640000Y-119380000D03*
%TO.P,J2,9,TIME_ACTIVE_SWITCH*%
%TO.N,Net-(J2-TIME_ACTIVE_SWITCH)*%
X165100000Y-119380000D03*
%TO.P,J2,10,11_LED*%
%TO.N,Net-(J2-11_LED)*%
X162560000Y-119380000D03*
%TO.P,J2,11,POWER_A*%
%TO.N,Net-(J2-POWER_A)*%
X160020000Y-119380000D03*
%TO.P,J2,12,11_SWITCH*%
%TO.N,Net-(J2-11_SWITCH)*%
X157480000Y-119380000D03*
%TO.P,J2,13,POWER_B*%
%TO.N,Net-(J2-POWER_B)*%
X154940000Y-119380000D03*
%TO.P,J2,14,01_LED*%
%TO.N,Net-(J2-01_LED)*%
X152400000Y-119380000D03*
%TO.P,J2,15,EMERGENCY_STOP_SWITCH*%
%TO.N,Net-(J2-EMERGENCY_STOP_SWITCH)*%
X149860000Y-119380000D03*
%TO.P,J2,16,01_SWITCH*%
%TO.N,Net-(J2-01_SWITCH)*%
X147320000Y-119380000D03*
%TO.P,J2,17,EMERGENCY_STOP_LED*%
%TO.N,Net-(J2-EMERGENCY_STOP_LED)*%
X144780000Y-119380000D03*
%TO.P,J2,18,10_LED*%
%TO.N,Net-(J2-10_LED)*%
X142240000Y-119380000D03*
%TO.P,J2,19,5V*%
%TO.N,Net-(J2-5V)*%
X139700000Y-119380000D03*
%TO.P,J2,20,10_SWITCH*%
%TO.N,Net-(J2-10_SWITCH)*%
X137160000Y-119380000D03*
%TO.P,J2,21,TIME_SET_DT*%
%TO.N,Net-(J2-TIME_SET_DT)*%
X134620000Y-119380000D03*
%TO.P,J2,22,00_LED*%
%TO.N,Net-(J2-00_LED)*%
X132080000Y-119380000D03*
%TO.P,J2,23,TIME_SET_CLK*%
%TO.N,Net-(J2-TIME_SET_CLK)*%
X129540000Y-119380000D03*
%TO.P,J2,24,00_SWITCH*%
%TO.N,Net-(J2-00_SWITCH)*%
X127000000Y-119380000D03*
%TD*%
D10*
%TO.P,U2,1,~{PL}*%
%TO.N,Net-(J3-GPIO13(PWM1))*%
X147320000Y-85090000D03*
D11*
%TO.P,U2,2,CP*%
%TO.N,Net-(J3-GPIO18(PCM_CLK))*%
X149860000Y-85090000D03*
%TO.P,U2,3,D4*%
%TO.N,Net-(J1-BIT_C)*%
X152400000Y-85090000D03*
%TO.P,U2,4,D5*%
%TO.N,Net-(J1-BIT_D)*%
X154940000Y-85090000D03*
%TO.P,U2,5,D6*%
%TO.N,Net-(J1-BIT_E)*%
X157480000Y-85090000D03*
%TO.P,U2,6,D7*%
%TO.N,Net-(J1-BIT_F)*%
X160020000Y-85090000D03*
%TO.P,U2,7,~{Q7}*%
%TO.N,unconnected-(U2-~{Q7}-Pad7)*%
X162560000Y-85090000D03*
%TO.P,U2,8,GND*%
%TO.N,GND*%
X165100000Y-85090000D03*
%TO.P,U2,9,Q7*%
%TO.N,Net-(U2-Q7)*%
X165100000Y-77470000D03*
%TO.P,U2,10,DS*%
%TO.N,Net-(U1-Q7)*%
X162560000Y-77470000D03*
%TO.P,U2,11,D0*%
%TO.N,Net-(J1-BIT_8)*%
X160020000Y-77470000D03*
%TO.P,U2,12,D1*%
%TO.N,Net-(J1-BIT_9)*%
X157480000Y-77470000D03*
%TO.P,U2,13,D2*%
%TO.N,Net-(J1-BIT_A)*%
X154940000Y-77470000D03*
%TO.P,U2,14,D3*%
%TO.N,Net-(J1-BIT_B)*%
X152400000Y-77470000D03*
%TO.P,U2,15,~{CE}*%
%TO.N,GND*%
X149860000Y-77470000D03*
%TO.P,U2,16,VCC*%
%TO.N,Net-(J7-5V)*%
X147320000Y-77470000D03*
%TD*%
D10*
%TO.P,U3,1,~{PL}*%
%TO.N,Net-(J3-GPIO13(PWM1))*%
X124460000Y-106680000D03*
D11*
%TO.P,U3,2,CP*%
%TO.N,Net-(J3-GPIO18(PCM_CLK))*%
X127000000Y-106680000D03*
%TO.P,U3,3,D4*%
%TO.N,Net-(J2-10_SWITCH)*%
X129540000Y-106680000D03*
%TO.P,U3,4,D5*%
%TO.N,Net-(J2-11_SWITCH)*%
X132080000Y-106680000D03*
%TO.P,U3,5,D6*%
%TO.N,Net-(J2-12_SWITCH)*%
X134620000Y-106680000D03*
%TO.P,U3,6,D7*%
%TO.N,Net-(J2-13_SWITCH)*%
X137160000Y-106680000D03*
%TO.P,U3,7,~{Q7}*%
%TO.N,unconnected-(U3-~{Q7}-Pad7)*%
X139700000Y-106680000D03*
%TO.P,U3,8,GND*%
%TO.N,GND*%
X142240000Y-106680000D03*
%TO.P,U3,9,Q7*%
%TO.N,Net-(U3-Q7)*%
X142240000Y-99060000D03*
%TO.P,U3,10,DS*%
%TO.N,Net-(U2-Q7)*%
X139700000Y-99060000D03*
%TO.P,U3,11,D0*%
%TO.N,Net-(J2-00_SWITCH)*%
X137160000Y-99060000D03*
%TO.P,U3,12,D1*%
%TO.N,Net-(J2-01_SWITCH)*%
X134620000Y-99060000D03*
%TO.P,U3,13,D2*%
%TO.N,Net-(J2-02_SWITCH)*%
X132080000Y-99060000D03*
%TO.P,U3,14,D3*%
%TO.N,Net-(J2-03_SWITCH)*%
X129540000Y-99060000D03*
%TO.P,U3,15,~{CE}*%
%TO.N,GND*%
X127000000Y-99060000D03*
%TO.P,U3,16,VCC*%
%TO.N,Net-(J7-5V)*%
X124460000Y-99060000D03*
%TD*%
D14*
%TO.P,J5,1,12V*%
%TO.N,Net-(J2-POWER_B)*%
X185420000Y-62230000D03*
D15*
%TO.P,J5,2,GND*%
%TO.N,GND*%
X185420000Y-64230000D03*
%TO.P,J5,3,I2C_SDA*%
%TO.N,Net-(J3-GPIO2(I2C1_SDA))*%
X185420000Y-66230000D03*
%TO.P,J5,4,I2C_SCLK*%
%TO.N,Net-(J3-GPIO3(I2C1_SCL))*%
X185420000Y-68230000D03*
%TO.P,J5,5,VB*%
%TO.N,Net-(J5-VB)*%
X185420000Y-70230000D03*
%TO.P,J5,6,VA*%
%TO.N,Net-(J5-VA)*%
X185420000Y-72230000D03*
%TD*%
D10*
%TO.P,U6,1,QB*%
%TO.N,Net-(J2-EMERGENCY_STOP_LED)*%
X102870000Y-87630000D03*
D11*
%TO.P,U6,2,QC*%
%TO.N,unconnected-(U6-QC-Pad2)*%
X102870000Y-90170000D03*
%TO.P,U6,3,QD*%
%TO.N,unconnected-(U6-QD-Pad3)*%
X102870000Y-92710000D03*
%TO.P,U6,4,QE*%
%TO.N,unconnected-(U6-QE-Pad4)*%
X102870000Y-95250000D03*
%TO.P,U6,5,QF*%
%TO.N,unconnected-(U6-QF-Pad5)*%
X102870000Y-97790000D03*
%TO.P,U6,6,QG*%
%TO.N,unconnected-(U6-QG-Pad6)*%
X102870000Y-100330000D03*
%TO.P,U6,7,QH*%
%TO.N,unconnected-(U6-QH-Pad7)*%
X102870000Y-102870000D03*
%TO.P,U6,8,GND*%
%TO.N,GND*%
X102870000Y-105410000D03*
%TO.P,U6,9,QH'*%
%TO.N,unconnected-(U6-QH'-Pad9)*%
X110490000Y-105410000D03*
%TO.P,U6,10,~{SRCLR}*%
%TO.N,Net-(J7-5V)*%
X110490000Y-102870000D03*
%TO.P,U6,11,SRCLK*%
%TO.N,Net-(J3-GPIO17)*%
X110490000Y-100330000D03*
%TO.P,U6,12,RCLK*%
%TO.N,Net-(J3-GPIO27)*%
X110490000Y-97790000D03*
%TO.P,U6,13,~{OE}*%
%TO.N,GND*%
X110490000Y-95250000D03*
%TO.P,U6,14,SER*%
%TO.N,Net-(U5-QH')*%
X110490000Y-92710000D03*
%TO.P,U6,15,QA*%
%TO.N,Net-(J1-PUSH_LED)*%
X110490000Y-90170000D03*
%TO.P,U6,16,VCC*%
%TO.N,Net-(J7-5V)*%
X110490000Y-87630000D03*
%TD*%
D12*
%TO.P,J4,1,GND*%
%TO.N,GND*%
X185420000Y-105410000D03*
D13*
%TO.P,J4,2,12V*%
%TO.N,Net-(J2-POWER_A)*%
X185420000Y-107950000D03*
%TD*%
D12*
%TO.P,J1,1,RAIL_OVERRIDE_SWITCH*%
%TO.N,Net-(J1-RAIL_OVERRIDE_SWITCH)*%
X185420000Y-124460000D03*
D13*
%TO.P,J1,2,GND*%
%TO.N,GND*%
X182880000Y-124460000D03*
%TO.P,J1,3,PUSH_LED*%
%TO.N,Net-(J1-PUSH_LED)*%
X180340000Y-124460000D03*
%TO.P,J1,4,BIT_0*%
%TO.N,Net-(J1-BIT_0)*%
X177800000Y-124460000D03*
%TO.P,J1,5,PUSH_SWITCH*%
%TO.N,Net-(J1-PUSH_SWITCH)*%
X175260000Y-124460000D03*
%TO.P,J1,6,BIT_1*%
%TO.N,Net-(J1-BIT_1)*%
X172720000Y-124460000D03*
%TO.P,J1,7,MODULE_OVERRIDE_SWITCH*%
%TO.N,Net-(J1-MODULE_OVERRIDE_SWITCH)*%
X170180000Y-124460000D03*
%TO.P,J1,8,BIT_2*%
%TO.N,Net-(J1-BIT_2)*%
X167640000Y-124460000D03*
%TO.P,J1,9,VELOCITY_DT*%
%TO.N,Net-(J1-VELOCITY_DT)*%
X165100000Y-124460000D03*
%TO.P,J1,10,BIT_3*%
%TO.N,Net-(J1-BIT_3)*%
X162560000Y-124460000D03*
%TO.P,J1,11,VELOCITY_CLK*%
%TO.N,Net-(J1-VELOCITY_CLK)*%
X160020000Y-124460000D03*
%TO.P,J1,12,BIT_4*%
%TO.N,Net-(J1-BIT_4)*%
X157480000Y-124460000D03*
%TO.P,J1,13,FWD/BWD_SWITCH*%
%TO.N,Net-(J1-FWD{slash}BWD_SWITCH)*%
X154940000Y-124460000D03*
%TO.P,J1,14,BIT_5*%
%TO.N,Net-(J1-BIT_5)*%
X152400000Y-124460000D03*
%TO.P,J1,15,BIT_F*%
%TO.N,Net-(J1-BIT_F)*%
X149860000Y-124460000D03*
%TO.P,J1,16,BIT_6*%
%TO.N,Net-(J1-BIT_6)*%
X147320000Y-124460000D03*
%TO.P,J1,17,BIT_E*%
%TO.N,Net-(J1-BIT_E)*%
X144780000Y-124460000D03*
%TO.P,J1,18,BIT_7*%
%TO.N,Net-(J1-BIT_7)*%
X142240000Y-124460000D03*
%TO.P,J1,19,BIT_D*%
%TO.N,Net-(J1-BIT_D)*%
X139700000Y-124460000D03*
%TO.P,J1,20,BIT_8*%
%TO.N,Net-(J1-BIT_8)*%
X137160000Y-124460000D03*
%TO.P,J1,21,BIT_C*%
%TO.N,Net-(J1-BIT_C)*%
X134620000Y-124460000D03*
%TO.P,J1,22,BIT_9*%
%TO.N,Net-(J1-BIT_9)*%
X132080000Y-124460000D03*
%TO.P,J1,23,BIT_A*%
%TO.N,Net-(J1-BIT_A)*%
X129540000Y-124460000D03*
%TO.P,J1,24,BIT_B*%
%TO.N,Net-(J1-BIT_B)*%
X127000000Y-124460000D03*
%TD*%
D12*
%TO.P,J8,1,ENA*%
%TO.N,Net-(J3-GPIO12(PWM0))*%
X111760000Y-125730000D03*
D13*
%TO.P,J8,2,IN1*%
%TO.N,Net-(J3-GPIO23)*%
X114300000Y-125730000D03*
%TO.P,J8,3,IN2*%
%TO.N,Net-(J3-GPIO24)*%
X116840000Y-125730000D03*
%TD*%
D16*
%TO.P,U7,1,IN*%
%TO.N,Net-(J2-POWER_B)*%
X172720000Y-94320000D03*
D17*
%TO.P,U7,2,GND*%
%TO.N,GND*%
X175260000Y-94320000D03*
%TO.P,U7,3,OUT*%
%TO.N,Net-(J7-5V)*%
X177800000Y-94320000D03*
%TD*%
D12*
%TO.P,J6,1,VA*%
%TO.N,Net-(J5-VA)*%
X101600000Y-125730000D03*
D13*
%TO.P,J6,2,VB*%
%TO.N,Net-(J5-VB)*%
X104140000Y-125730000D03*
%TD*%
D14*
%TO.P,J7,1,CSB*%
%TO.N,Net-(J3-GPIO7(SPI0_CE1))*%
X185420000Y-80010000D03*
D15*
%TO.P,J7,2,SDA*%
%TO.N,Net-(J3-GPIO10(SPI0_MOSI))*%
X185420000Y-82010000D03*
%TO.P,J7,3,SCLK*%
%TO.N,Net-(J3-GPIO11(SPI0_SCLK))*%
X185420000Y-84010000D03*
%TO.P,J7,4,CSA*%
%TO.N,Net-(J3-GPIO8(SPI0_CE0))*%
X185420000Y-86010000D03*
%TO.P,J7,5,5V*%
%TO.N,Net-(J7-5V)*%
X185420000Y-88010000D03*
%TO.P,J7,6,GND*%
%TO.N,GND*%
X185420000Y-90010000D03*
%TO.P,J7,7,SER*%
%TO.N,Net-(J3-GPIO16)*%
X185420000Y-92010000D03*
%TO.P,J7,8,RCLK*%
%TO.N,Net-(J3-GPIO20(PCM_DIN))*%
X185420000Y-94010000D03*
%TO.P,J7,9,SRCLK*%
%TO.N,Net-(J3-GPIO21(PCM_DOUT))*%
X185420000Y-96010000D03*
%TD*%
D10*
%TO.P,U4,1,~{PL}*%
%TO.N,Net-(J3-GPIO13(PWM1))*%
X147320000Y-106680000D03*
D11*
%TO.P,U4,2,CP*%
%TO.N,Net-(J3-GPIO18(PCM_CLK))*%
X149860000Y-106680000D03*
%TO.P,U4,3,D4*%
%TO.N,Net-(J2-TIME_ACTIVE_SWITCH)*%
X152400000Y-106680000D03*
%TO.P,U4,4,D5*%
%TO.N,Net-(J2-EMERGENCY_STOP_SWITCH)*%
X154940000Y-106680000D03*
%TO.P,U4,5,D6*%
%TO.N,unconnected-(U4-D6-Pad5)*%
X157480000Y-106680000D03*
%TO.P,U4,6,D7*%
%TO.N,unconnected-(U4-D7-Pad6)*%
X160020000Y-106680000D03*
%TO.P,U4,7,~{Q7}*%
%TO.N,unconnected-(U4-~{Q7}-Pad7)*%
X162560000Y-106680000D03*
%TO.P,U4,8,GND*%
%TO.N,GND*%
X165100000Y-106680000D03*
%TO.P,U4,9,Q7*%
%TO.N,Net-(J3-GPIO4(GPCLK0))*%
X165100000Y-99060000D03*
%TO.P,U4,10,DS*%
%TO.N,Net-(U3-Q7)*%
X162560000Y-99060000D03*
%TO.P,U4,11,D0*%
%TO.N,Net-(J1-RAIL_OVERRIDE_SWITCH)*%
X160020000Y-99060000D03*
%TO.P,U4,12,D1*%
%TO.N,Net-(J1-PUSH_SWITCH)*%
X157480000Y-99060000D03*
%TO.P,U4,13,D2*%
%TO.N,Net-(J1-MODULE_OVERRIDE_SWITCH)*%
X154940000Y-99060000D03*
%TO.P,U4,14,D3*%
%TO.N,Net-(J1-FWD{slash}BWD_SWITCH)*%
X152400000Y-99060000D03*
%TO.P,U4,15,~{CE}*%
%TO.N,GND*%
X149860000Y-99060000D03*
%TO.P,U4,16,VCC*%
%TO.N,Net-(J7-5V)*%
X147320000Y-99060000D03*
%TD*%
D10*
%TO.P,U5,1,QB*%
%TO.N,Net-(J2-01_LED)*%
X102870000Y-63500000D03*
D11*
%TO.P,U5,2,QC*%
%TO.N,Net-(J2-02_LED)*%
X102870000Y-66040000D03*
%TO.P,U5,3,QD*%
%TO.N,Net-(J2-03_LED)*%
X102870000Y-68580000D03*
%TO.P,U5,4,QE*%
%TO.N,Net-(J2-10_LED)*%
X102870000Y-71120000D03*
%TO.P,U5,5,QF*%
%TO.N,Net-(J2-11_LED)*%
X102870000Y-73660000D03*
%TO.P,U5,6,QG*%
%TO.N,Net-(J2-12_LED)*%
X102870000Y-76200000D03*
%TO.P,U5,7,QH*%
%TO.N,Net-(J2-13_LED)*%
X102870000Y-78740000D03*
%TO.P,U5,8,GND*%
%TO.N,GND*%
X102870000Y-81280000D03*
%TO.P,U5,9,QH'*%
%TO.N,Net-(U5-QH')*%
X110490000Y-81280000D03*
%TO.P,U5,10,~{SRCLR}*%
%TO.N,Net-(J7-5V)*%
X110490000Y-78740000D03*
%TO.P,U5,11,SRCLK*%
%TO.N,Net-(J3-GPIO17)*%
X110490000Y-76200000D03*
%TO.P,U5,12,RCLK*%
%TO.N,Net-(J3-GPIO27)*%
X110490000Y-73660000D03*
%TO.P,U5,13,~{OE}*%
%TO.N,GND*%
X110490000Y-71120000D03*
%TO.P,U5,14,SER*%
%TO.N,Net-(J3-GPIO22)*%
X110490000Y-68580000D03*
%TO.P,U5,15,QA*%
%TO.N,Net-(J2-00_LED)*%
X110490000Y-66040000D03*
%TO.P,U5,16,VCC*%
%TO.N,Net-(J7-5V)*%
X110490000Y-63500000D03*
%TD*%
D12*
%TO.P,J3,1,3v3*%
%TO.N,unconnected-(J3-3v3-Pad1)*%
X132080000Y-64770000D03*
D13*
%TO.P,J3,2,5v*%
%TO.N,Net-(J2-5V)*%
X132080000Y-62230000D03*
%TO.P,J3,3,GPIO2(I2C1_SDA)*%
%TO.N,Net-(J3-GPIO2(I2C1_SDA))*%
X134620000Y-64770000D03*
%TO.P,J3,4,5v*%
%TO.N,unconnected-(J3-5v-Pad4)*%
X134620000Y-62230000D03*
%TO.P,J3,5,GPIO3(I2C1_SCL)*%
%TO.N,Net-(J3-GPIO3(I2C1_SCL))*%
X137160000Y-64770000D03*
%TO.P,J3,6,GND*%
%TO.N,GND*%
X137160000Y-62230000D03*
%TO.P,J3,7,GPIO4(GPCLK0)*%
%TO.N,Net-(J3-GPIO4(GPCLK0))*%
X139700000Y-64770000D03*
%TO.P,J3,8,GPIO14(UART_TX)*%
%TO.N,unconnected-(J3-GPIO14(UART_TX)-Pad8)*%
X139700000Y-62230000D03*
%TO.P,J3,9,GND*%
%TO.N,unconnected-(J3-GND-Pad9)*%
X142240000Y-64770000D03*
%TO.P,J3,10,GPIO15(UART_RX)*%
%TO.N,unconnected-(J3-GPIO15(UART_RX)-Pad10)*%
X142240000Y-62230000D03*
%TO.P,J3,11,GPIO17*%
%TO.N,Net-(J3-GPIO17)*%
X144780000Y-64770000D03*
%TO.P,J3,12,GPIO18(PCM_CLK)*%
%TO.N,Net-(J3-GPIO18(PCM_CLK))*%
X144780000Y-62230000D03*
%TO.P,J3,13,GPIO27*%
%TO.N,Net-(J3-GPIO27)*%
X147320000Y-64770000D03*
%TO.P,J3,14,GND*%
%TO.N,unconnected-(J3-GND-Pad14)*%
X147320000Y-62230000D03*
%TO.P,J3,15,GPIO22*%
%TO.N,Net-(J3-GPIO22)*%
X149860000Y-64770000D03*
%TO.P,J3,16,GPIO23*%
%TO.N,Net-(J3-GPIO23)*%
X149860000Y-62230000D03*
%TO.P,J3,17,3v3*%
%TO.N,unconnected-(J3-3v3-Pad17)*%
X152400000Y-64770000D03*
%TO.P,J3,18,GPIO24*%
%TO.N,Net-(J3-GPIO24)*%
X152400000Y-62230000D03*
%TO.P,J3,19,GPIO10(SPI0_MOSI)*%
%TO.N,Net-(J3-GPIO10(SPI0_MOSI))*%
X154940000Y-64770000D03*
%TO.P,J3,20,GND*%
%TO.N,unconnected-(J3-GND-Pad20)*%
X154940000Y-62230000D03*
%TO.P,J3,21,GPIO9(SPI0_MISO)*%
%TO.N,unconnected-(J3-GPIO9(SPI0_MISO)-Pad21)*%
X157480000Y-64770000D03*
%TO.P,J3,22,GPIO25*%
%TO.N,unconnected-(J3-GPIO25-Pad22)*%
X157480000Y-62230000D03*
%TO.P,J3,23,GPIO11(SPI0_SCLK)*%
%TO.N,Net-(J3-GPIO11(SPI0_SCLK))*%
X160020000Y-64770000D03*
%TO.P,J3,24,GPIO8(SPI0_CE0)*%
%TO.N,Net-(J3-GPIO8(SPI0_CE0))*%
X160020000Y-62230000D03*
%TO.P,J3,25,GND*%
%TO.N,unconnected-(J3-GND-Pad25)*%
X162560000Y-64770000D03*
%TO.P,J3,26,GPIO7(SPI0_CE1)*%
%TO.N,Net-(J3-GPIO7(SPI0_CE1))*%
X162560000Y-62230000D03*
%TO.P,J3,27,GPIO0(EEPROM_SDA)*%
%TO.N,unconnected-(J3-GPIO0(EEPROM_SDA)-Pad27)*%
X165100000Y-64770000D03*
%TO.P,J3,28,GPIO1(EEPROM_SCL)*%
%TO.N,unconnected-(J3-GPIO1(EEPROM_SCL)-Pad28)*%
X165100000Y-62230000D03*
%TO.P,J3,29,GPIO5*%
%TO.N,Net-(J1-VELOCITY_CLK)*%
X167640000Y-64770000D03*
%TO.P,J3,30,GND*%
%TO.N,unconnected-(J3-GND-Pad30)*%
X167640000Y-62230000D03*
%TO.P,J3,31,GPIO6*%
%TO.N,Net-(J1-VELOCITY_DT)*%
X170180000Y-64770000D03*
%TO.P,J3,32,GPIO12(PWM0)*%
%TO.N,Net-(J3-GPIO12(PWM0))*%
X170180000Y-62230000D03*
%TO.P,J3,33,GPIO13(PWM1)*%
%TO.N,Net-(J3-GPIO13(PWM1))*%
X172720000Y-64770000D03*
%TO.P,J3,34,GND*%
%TO.N,unconnected-(J3-GND-Pad34)*%
X172720000Y-62230000D03*
%TO.P,J3,35,GPIO19(PCM_FS)*%
%TO.N,Net-(J2-TIME_SET_CLK)*%
X175260000Y-64770000D03*
%TO.P,J3,36,GPIO16*%
%TO.N,Net-(J3-GPIO16)*%
X175260000Y-62230000D03*
%TO.P,J3,37,GPIO26*%
%TO.N,Net-(J2-TIME_SET_DT)*%
X177800000Y-64770000D03*
%TO.P,J3,38,GPIO20(PCM_DIN)*%
%TO.N,Net-(J3-GPIO20(PCM_DIN))*%
X177800000Y-62230000D03*
%TO.P,J3,39,GND*%
%TO.N,unconnected-(J3-GND-Pad39)*%
X180340000Y-64770000D03*
%TO.P,J3,40,GPIO21(PCM_DOUT)*%
%TO.N,Net-(J3-GPIO21(PCM_DOUT))*%
X180340000Y-62230000D03*
%TD*%
D18*
%TO.N,Net-(J7-5V)*%
X179070000Y-86360000D03*
%TO.N,GND*%
X118110000Y-66040000D03*
X182880000Y-73660000D03*
X144780000Y-97790000D03*
X121920000Y-62230000D03*
X121920000Y-76200000D03*
X144780000Y-76200000D03*
X166370000Y-92710000D03*
X176530000Y-87630000D03*
X121920000Y-97790000D03*
%TO.N,Net-(J1-PUSH_LED)*%
X118850000Y-93255500D03*
%TO.N,Net-(J1-BIT_0)*%
X111760000Y-111760000D03*
%TO.N,Net-(J1-BIT_1)*%
X110490000Y-110490000D03*
%TO.N,Net-(J1-BIT_2)*%
X109220000Y-109220000D03*
%TO.N,Net-(J1-VELOCITY_DT)*%
X185420000Y-110490000D03*
X186690000Y-101600000D03*
%TO.N,Net-(J1-BIT_3)*%
X107950000Y-107950000D03*
%TO.N,Net-(J1-VELOCITY_CLK)*%
X185420000Y-101600000D03*
X185420000Y-111760000D03*
%TO.N,Net-(J1-BIT_F)*%
X184150000Y-111760000D03*
X184150000Y-101600000D03*
%TO.N,Net-(J1-BIT_E)*%
X181610000Y-101600000D03*
X181610000Y-111760000D03*
%TO.N,Net-(J1-BIT_D)*%
X180340000Y-111760000D03*
X180340000Y-101600000D03*
%TO.N,Net-(J1-BIT_8)*%
X113030000Y-102870000D03*
%TO.N,Net-(J1-BIT_C)*%
X114300000Y-102870000D03*
%TO.N,Net-(J1-BIT_9)*%
X113030000Y-80010000D03*
X115570000Y-100330000D03*
X115570000Y-85090000D03*
%TO.N,Net-(J1-BIT_A)*%
X151130000Y-81280000D03*
X116840000Y-102870000D03*
%TO.N,Net-(J1-BIT_B)*%
X115570000Y-102870000D03*
X138430000Y-81280000D03*
X143510000Y-78740000D03*
%TO.N,Net-(J2-02_LED)*%
X182880000Y-101600000D03*
X181610000Y-91440000D03*
X182880000Y-111760000D03*
%TO.N,Net-(J2-13_LED)*%
X184150000Y-114300000D03*
%TO.N,Net-(J2-02_SWITCH)*%
X135890000Y-102870000D03*
%TO.N,Net-(J2-13_SWITCH)*%
X143510000Y-110490000D03*
%TO.N,Net-(J2-03_LED)*%
X175260000Y-114300000D03*
X168910000Y-72390000D03*
%TO.N,Net-(J2-12_LED)*%
X167640000Y-72390000D03*
X172720000Y-114300000D03*
%TO.N,Net-(J2-03_SWITCH)*%
X160020000Y-110490000D03*
X134620000Y-104140000D03*
X146050000Y-104140000D03*
%TO.N,Net-(J2-12_SWITCH)*%
X144780000Y-111760000D03*
X146050000Y-114300000D03*
%TO.N,Net-(J2-11_LED)*%
X101471220Y-67310000D03*
X170180000Y-72390000D03*
X173990000Y-110490000D03*
%TO.N,Net-(J2-11_SWITCH)*%
X143510000Y-113030000D03*
X154940000Y-115570000D03*
%TO.N,Net-(J2-POWER_B)*%
X182880000Y-76200000D03*
X176530000Y-82550000D03*
%TO.N,Net-(J2-01_LED)*%
X143510000Y-114300000D03*
X119380000Y-113030000D03*
X129540000Y-115570000D03*
%TO.N,Net-(J2-EMERGENCY_STOP_SWITCH)*%
X157480000Y-111760000D03*
%TO.N,Net-(J2-01_SWITCH)*%
X137160000Y-101600000D03*
%TO.N,Net-(J2-EMERGENCY_STOP_LED)*%
X119380000Y-111760000D03*
X143510000Y-115570000D03*
X130810000Y-115570000D03*
%TO.N,Net-(J2-10_LED)*%
X105483150Y-114226851D03*
X132080000Y-115570000D03*
X119184503Y-110685497D03*
%TO.N,Net-(J2-5V)*%
X119380000Y-118110000D03*
%TO.N,Net-(J2-TIME_SET_DT)*%
X104140000Y-115570000D03*
X119380000Y-114300000D03*
X123190000Y-64770000D03*
%TO.N,Net-(J2-00_LED)*%
X102870000Y-116840000D03*
X119380000Y-116840000D03*
X101600000Y-113030000D03*
X107950000Y-78740000D03*
%TO.N,Net-(J2-TIME_SET_CLK)*%
X101600000Y-115570000D03*
X167640000Y-67310000D03*
X119380000Y-115570000D03*
%TO.N,Net-(J3-GPIO2(I2C1_SDA))*%
X152400000Y-67310000D03*
X176530000Y-67310000D03*
%TO.N,Net-(J3-GPIO3(I2C1_SCL))*%
X182880000Y-64770000D03*
%TO.N,Net-(J3-GPIO4(GPCLK0))*%
X167640000Y-73660000D03*
X158750000Y-63500000D03*
X163830000Y-69850000D03*
%TO.N,Net-(J3-GPIO17)*%
X107950000Y-90170000D03*
X109220000Y-80010000D03*
X118110000Y-68580000D03*
%TO.N,Net-(J3-GPIO18(PCM_CLK))*%
X149860000Y-96520000D03*
X140970000Y-72390000D03*
X149860000Y-102870000D03*
X127000000Y-90170000D03*
X149860000Y-91440000D03*
%TO.N,Net-(J3-GPIO27)*%
X106680000Y-85090000D03*
X106680000Y-74930000D03*
X107950000Y-63500000D03*
X106680000Y-92710000D03*
X106680000Y-97790000D03*
X140970000Y-66040000D03*
%TO.N,Net-(J3-GPIO22)*%
X143510000Y-66955500D03*
%TO.N,Net-(J3-GPIO24)*%
X116840000Y-95250000D03*
X139718247Y-72408247D03*
X121920000Y-83820000D03*
%TO.N,Net-(J3-GPIO10(SPI0_MOSI))*%
X179070000Y-81280000D03*
X170180000Y-71120000D03*
%TO.N,Net-(J3-GPIO11(SPI0_SCLK))*%
X171450000Y-72390000D03*
X179070000Y-82550000D03*
%TO.N,Net-(J3-GPIO8(SPI0_CE0))*%
X181610000Y-85090000D03*
X176530000Y-71120000D03*
%TO.N,Net-(J3-GPIO12(PWM0))*%
X99060000Y-127000000D03*
X161290000Y-60960000D03*
%TO.N,Net-(J3-GPIO13(PWM1))*%
X179070000Y-73660000D03*
X125730000Y-90170000D03*
X163830000Y-90170000D03*
X167640000Y-88900000D03*
X133350000Y-105410000D03*
X167640000Y-85090000D03*
X180340000Y-76200000D03*
X130810000Y-104140000D03*
%TO.N,Net-(J3-GPIO20(PCM_DIN))*%
X186690000Y-60960000D03*
X184150000Y-60960000D03*
X185420000Y-77470000D03*
%TO.N,Net-(J3-GPIO21(PCM_DOUT))*%
X186690000Y-77470000D03*
%TO.N,Net-(U1-Q7)*%
X161290000Y-80010000D03*
X158750000Y-80010000D03*
%TO.N,Net-(U2-Q7)*%
X139700000Y-96520000D03*
X151130000Y-82550000D03*
%TO.N,Net-(U3-Q7)*%
X142240000Y-96520000D03*
%TD*%
D19*
%TO.N,Net-(J7-5V)*%
X177800000Y-94320000D02*
X177800000Y-87630000D01*
X177800000Y-87630000D02*
X179070000Y-86360000D01*
%TO.N,GND*%
X148590000Y-76200000D02*
X149860000Y-77470000D01*
X183330000Y-87920000D02*
X185420000Y-90010000D01*
X127000000Y-99060000D02*
X128270000Y-97790000D01*
X176530000Y-90170000D02*
X176530000Y-87630000D01*
X164375000Y-90895000D02*
X164465000Y-90805000D01*
X163529695Y-90895000D02*
X164375000Y-90895000D01*
X163254695Y-90620000D02*
X163529695Y-90895000D01*
X138430000Y-76200000D02*
X139690000Y-77460000D01*
X142230000Y-88890000D02*
X143960000Y-90620000D01*
X121920000Y-76200000D02*
X125730000Y-76200000D01*
X183330000Y-78290000D02*
X183330000Y-87920000D01*
X175260000Y-91440000D02*
X176530000Y-90170000D01*
X121920000Y-62230000D02*
X118110000Y-66040000D01*
X175260000Y-94320000D02*
X175260000Y-91440000D01*
X148590000Y-97790000D02*
X149860000Y-99060000D01*
X144780000Y-76200000D02*
X148590000Y-76200000D01*
X125730000Y-97790000D02*
X127000000Y-99060000D01*
X164465000Y-90805000D02*
X165100000Y-90170000D01*
X128250000Y-76200000D02*
X138430000Y-76200000D01*
X184150000Y-77470000D02*
X183330000Y-78290000D01*
X140950000Y-76200000D02*
X144780000Y-76200000D01*
X165100000Y-90170000D02*
X165100000Y-85090000D01*
X121920000Y-97790000D02*
X125730000Y-97790000D01*
X182880000Y-73660000D02*
X184150000Y-74930000D01*
X142230000Y-85080000D02*
X142230000Y-88890000D01*
X166370000Y-92710000D02*
X164465000Y-90805000D01*
X125730000Y-76200000D02*
X126990000Y-77460000D01*
X144780000Y-97790000D02*
X148590000Y-97790000D01*
X184150000Y-74930000D02*
X184150000Y-77470000D01*
X143960000Y-90620000D02*
X163254695Y-90620000D01*
X128270000Y-97790000D02*
X144780000Y-97790000D01*
X139690000Y-77460000D02*
X140950000Y-76200000D01*
X126990000Y-77460000D02*
X128250000Y-76200000D01*
%TO.N,Net-(J1-RAIL_OVERRIDE_SWITCH)*%
X172640000Y-116760000D02*
X187169188Y-116760000D01*
X163830000Y-102870000D02*
X163830000Y-107950000D01*
X160020000Y-99060000D02*
X163830000Y-102870000D01*
X187960000Y-117550812D02*
X187960000Y-121920000D01*
X187169188Y-116760000D02*
X187960000Y-117550812D01*
X163830000Y-107950000D02*
X172640000Y-116760000D01*
X187960000Y-121920000D02*
X185420000Y-124460000D01*
%TO.N,Net-(J1-PUSH_LED)*%
X118110000Y-108586396D02*
X120650000Y-111126396D01*
X120650000Y-126366396D02*
X122553604Y-128270000D01*
X122553604Y-128270000D02*
X177800000Y-128270000D01*
X177800000Y-128270000D02*
X180340000Y-125730000D01*
X180340000Y-125730000D02*
X180340000Y-124460000D01*
X120650000Y-111126396D02*
X120650000Y-126366396D01*
X118850000Y-94617792D02*
X118110000Y-95357792D01*
X118110000Y-95357792D02*
X118110000Y-108586396D01*
X118850000Y-93255500D02*
X118850000Y-94617792D01*
%TO.N,Net-(J1-BIT_0)*%
X116129188Y-80090000D02*
X112277386Y-83941802D01*
X105940000Y-89640000D02*
X105940000Y-102763604D01*
X134520000Y-80090000D02*
X116129188Y-80090000D01*
X111638198Y-83941802D02*
X105940000Y-89640000D01*
X105940000Y-102763604D02*
X111760000Y-108583604D01*
X111760000Y-108583604D02*
X111760000Y-111760000D01*
X137150000Y-77460000D02*
X134520000Y-80090000D01*
X112277386Y-83941802D02*
X111638198Y-83941802D01*
%TO.N,Net-(J1-PUSH_SWITCH)*%
X157480000Y-99060000D02*
X161290000Y-102870000D01*
X186371802Y-122871802D02*
X176848198Y-122871802D01*
X161290000Y-102870000D02*
X161290000Y-108077482D01*
X172453604Y-117210000D02*
X186982792Y-117210000D01*
X176848198Y-122871802D02*
X175260000Y-124460000D01*
X186982792Y-117210000D02*
X187510000Y-117737208D01*
X161532518Y-108320000D02*
X163563604Y-108320000D01*
X163563604Y-108320000D02*
X172453604Y-117210000D01*
X161290000Y-108077482D02*
X161532518Y-108320000D01*
X187510000Y-121733604D02*
X186371802Y-122871802D01*
X187510000Y-117737208D02*
X187510000Y-121733604D01*
%TO.N,Net-(J1-BIT_1)*%
X105490000Y-102950000D02*
X110490000Y-107950000D01*
X105490000Y-89453604D02*
X105490000Y-102950000D01*
X112090990Y-83491802D02*
X111451802Y-83491802D01*
X110490000Y-107950000D02*
X110490000Y-110490000D01*
X134610000Y-77460000D02*
X132430000Y-79640000D01*
X132430000Y-79640000D02*
X115942792Y-79640000D01*
X111451802Y-83491802D02*
X105490000Y-89453604D01*
X115942792Y-79640000D02*
X112090990Y-83491802D01*
%TO.N,Net-(J1-MODULE_OVERRIDE_SWITCH)*%
X158750000Y-107950000D02*
X159570000Y-108770000D01*
X186796396Y-117660000D02*
X187060000Y-117923604D01*
X159570000Y-108770000D02*
X163377208Y-108770000D01*
X172218198Y-122421802D02*
X170180000Y-124460000D01*
X186185406Y-122421802D02*
X172218198Y-122421802D01*
X187060000Y-121547208D02*
X186185406Y-122421802D01*
X163377208Y-108770000D02*
X172267208Y-117660000D01*
X172267208Y-117660000D02*
X186796396Y-117660000D01*
X158750000Y-102870000D02*
X158750000Y-107950000D01*
X154940000Y-99060000D02*
X158750000Y-102870000D01*
X187060000Y-117923604D02*
X187060000Y-121547208D01*
%TO.N,Net-(J1-BIT_2)*%
X105040000Y-103136396D02*
X105040000Y-89267208D01*
X115756396Y-79190000D02*
X130340000Y-79190000D01*
X130340000Y-79190000D02*
X132070000Y-77460000D01*
X105040000Y-89267208D02*
X111307208Y-83000000D01*
X111307208Y-83000000D02*
X111946396Y-83000000D01*
X109220000Y-107316396D02*
X105040000Y-103136396D01*
X109220000Y-109220000D02*
X109220000Y-107316396D01*
X111946396Y-83000000D02*
X115756396Y-79190000D01*
%TO.N,Net-(J1-VELOCITY_DT)*%
X187510000Y-108400000D02*
X187510000Y-102870000D01*
X185420000Y-110490000D02*
X187510000Y-108400000D01*
X187510000Y-102870000D02*
X186690000Y-102050000D01*
X186690000Y-102050000D02*
X186690000Y-101600000D01*
%TO.N,Net-(J1-BIT_3)*%
X128250000Y-78740000D02*
X115570000Y-78740000D01*
X111760000Y-82550000D02*
X111120812Y-82550000D01*
X104590000Y-104590000D02*
X107950000Y-107950000D01*
X115570000Y-78740000D02*
X111760000Y-82550000D01*
X104590000Y-89080812D02*
X104590000Y-104590000D01*
X111120812Y-82550000D02*
X104590000Y-89080812D01*
X129530000Y-77460000D02*
X128250000Y-78740000D01*
%TO.N,Net-(J1-VELOCITY_CLK)*%
X184150000Y-110490000D02*
X184150000Y-102870000D01*
X184150000Y-102870000D02*
X185420000Y-101600000D01*
X185420000Y-111760000D02*
X184150000Y-110490000D01*
%TO.N,Net-(J1-BIT_4)*%
X119460000Y-95170000D02*
X118560000Y-96070000D01*
X129530000Y-93910000D02*
X128270000Y-95170000D01*
X121100000Y-126180000D02*
X122740000Y-127820000D01*
X154120000Y-127820000D02*
X157480000Y-124460000D01*
X128270000Y-95170000D02*
X119460000Y-95170000D01*
X118560000Y-108400000D02*
X121100000Y-110940000D01*
X122740000Y-127820000D02*
X154120000Y-127820000D01*
X129530000Y-85080000D02*
X129530000Y-93910000D01*
X121100000Y-110940000D02*
X121100000Y-126180000D01*
X118560000Y-96070000D02*
X118560000Y-108400000D01*
%TO.N,Net-(J1-FWD{slash}BWD_SWITCH)*%
X156210000Y-107471939D02*
X157958061Y-109220000D01*
X163190812Y-109220000D02*
X172080812Y-118110000D01*
X157428198Y-121971802D02*
X154940000Y-124460000D01*
X157958061Y-109220000D02*
X163190812Y-109220000D01*
X186610000Y-121360812D02*
X185999010Y-121971802D01*
X152400000Y-99060000D02*
X156210000Y-102870000D01*
X172080812Y-118110000D02*
X186610000Y-118110000D01*
X156210000Y-102870000D02*
X156210000Y-107471939D01*
X185999010Y-121971802D02*
X157428198Y-121971802D01*
X186610000Y-118110000D02*
X186610000Y-121360812D01*
%TO.N,Net-(J1-BIT_5)*%
X119380000Y-107951396D02*
X121920000Y-110491396D01*
X149860000Y-127000000D02*
X152400000Y-124460000D01*
X121920000Y-110491396D02*
X121920000Y-125730000D01*
X132070000Y-94360000D02*
X130810000Y-95620000D01*
X119380000Y-97156396D02*
X119380000Y-107951396D01*
X121920000Y-125730000D02*
X123190000Y-127000000D01*
X120916396Y-95620000D02*
X119380000Y-97156396D01*
X130810000Y-95620000D02*
X120916396Y-95620000D01*
X132070000Y-85080000D02*
X132070000Y-94360000D01*
X123190000Y-127000000D02*
X149860000Y-127000000D01*
%TO.N,Net-(J1-BIT_F)*%
X183700000Y-111310000D02*
X183700000Y-102050000D01*
X183700000Y-102050000D02*
X184150000Y-101600000D01*
X184150000Y-111760000D02*
X183700000Y-111310000D01*
%TO.N,Net-(J1-BIT_6)*%
X134610000Y-94810000D02*
X133350000Y-96070000D01*
X123640000Y-126180000D02*
X145600000Y-126180000D01*
X145600000Y-126180000D02*
X147320000Y-124460000D01*
X122740000Y-110040000D02*
X122740000Y-125280000D01*
X120200000Y-107500000D02*
X122740000Y-110040000D01*
X120200000Y-97603604D02*
X120200000Y-107500000D01*
X122740000Y-125280000D02*
X123640000Y-126180000D01*
X133350000Y-96070000D02*
X121733604Y-96070000D01*
X121733604Y-96070000D02*
X120200000Y-97603604D01*
X134610000Y-85080000D02*
X134610000Y-94810000D01*
%TO.N,Net-(J1-BIT_E)*%
X181610000Y-101600000D02*
X181610000Y-111760000D01*
%TO.N,Net-(J1-BIT_7)*%
X120650000Y-97790000D02*
X120650000Y-107314302D01*
X137150000Y-85080000D02*
X137150000Y-95260000D01*
X135890000Y-96520000D02*
X121920000Y-96520000D01*
X123190000Y-109854302D02*
X123190000Y-125093604D01*
X123826396Y-125730000D02*
X140970000Y-125730000D01*
X123190000Y-125093604D02*
X123826396Y-125730000D01*
X120650000Y-107314302D02*
X123190000Y-109854302D01*
X140970000Y-125730000D02*
X142240000Y-124460000D01*
X121920000Y-96520000D02*
X120650000Y-97790000D01*
X137150000Y-95260000D02*
X135890000Y-96520000D01*
%TO.N,Net-(J1-BIT_D)*%
X180340000Y-111760000D02*
X180340000Y-101600000D01*
%TO.N,Net-(J1-BIT_8)*%
X153670000Y-82550000D02*
X158750000Y-82550000D01*
X135236396Y-80010000D02*
X151766396Y-80010000D01*
X116315584Y-80540000D02*
X134706396Y-80540000D01*
X134706396Y-80540000D02*
X135236396Y-80010000D01*
X158750000Y-82550000D02*
X160020000Y-81280000D01*
X152850000Y-81093604D02*
X152850000Y-81730000D01*
X151766396Y-80010000D02*
X152850000Y-81093604D01*
X160020000Y-81280000D02*
X160020000Y-77470000D01*
X113030000Y-102870000D02*
X113030000Y-83825584D01*
X152850000Y-81730000D02*
X153670000Y-82550000D01*
X113030000Y-83825584D02*
X116315584Y-80540000D01*
%TO.N,Net-(J1-BIT_C)*%
X135422792Y-80460000D02*
X151580000Y-80460000D01*
X113480000Y-102050000D02*
X113480000Y-84011980D01*
X134892792Y-80990000D02*
X135422792Y-80460000D01*
X152400000Y-81280000D02*
X152400000Y-85090000D01*
X114300000Y-102870000D02*
X113480000Y-102050000D01*
X113480000Y-84011980D02*
X116501980Y-80990000D01*
X116501980Y-80990000D02*
X134892792Y-80990000D01*
X151580000Y-80460000D02*
X152400000Y-81280000D01*
%TO.N,Net-(J1-BIT_9)*%
X154940000Y-74930000D02*
X157480000Y-77470000D01*
X116206396Y-74930000D02*
X154940000Y-74930000D01*
X113030000Y-78106396D02*
X116206396Y-74930000D01*
X113030000Y-80010000D02*
X113030000Y-78106396D01*
X115570000Y-100330000D02*
X115570000Y-85090000D01*
%TO.N,Net-(J1-BIT_A)*%
X114380000Y-84384772D02*
X114380000Y-100410000D01*
X114380000Y-100410000D02*
X116840000Y-102870000D01*
X116874772Y-81890000D02*
X114380000Y-84384772D01*
X151130000Y-81280000D02*
X139700000Y-81280000D01*
X138430000Y-82550000D02*
X136550000Y-82550000D01*
X136550000Y-82550000D02*
X135890000Y-81890000D01*
X139700000Y-81280000D02*
X138430000Y-82550000D01*
X135890000Y-81890000D02*
X116874772Y-81890000D01*
%TO.N,Net-(J1-BIT_B)*%
X143510000Y-78740000D02*
X151130000Y-78740000D01*
X115570000Y-102870000D02*
X113930000Y-101230000D01*
X138270000Y-81440000D02*
X138430000Y-81280000D01*
X151130000Y-78740000D02*
X152400000Y-77470000D01*
X116688376Y-81440000D02*
X138270000Y-81440000D01*
X113930000Y-84198376D02*
X116688376Y-81440000D01*
X113930000Y-101230000D02*
X113930000Y-84198376D01*
%TO.N,Net-(J2-02_LED)*%
X172815000Y-69945000D02*
X168423299Y-69945000D01*
X155312792Y-74030000D02*
X115940000Y-74030000D01*
X182880000Y-111760000D02*
X182880000Y-101600000D01*
X106680000Y-69850000D02*
X102870000Y-66040000D01*
X180790000Y-90620000D02*
X180790000Y-77920000D01*
X115940000Y-74030000D02*
X111760000Y-69850000D01*
X157032792Y-75750000D02*
X155312792Y-74030000D01*
X111760000Y-69850000D02*
X106680000Y-69850000D01*
X180790000Y-77920000D02*
X172815000Y-69945000D01*
X181610000Y-91440000D02*
X180790000Y-90620000D01*
X168423299Y-69945000D02*
X162618299Y-75750000D01*
X162618299Y-75750000D02*
X157032792Y-75750000D01*
%TO.N,Net-(J2-13_LED)*%
X186690000Y-99060000D02*
X184150000Y-99060000D01*
X116020000Y-74480000D02*
X115570000Y-74930000D01*
X104140000Y-74930000D02*
X104140000Y-77470000D01*
X162804695Y-76200000D02*
X156846396Y-76200000D01*
X106680000Y-72390000D02*
X104140000Y-74930000D01*
X114300000Y-74930000D02*
X111760000Y-72390000D01*
X180340000Y-78106396D02*
X172628604Y-70395000D01*
X172628604Y-70395000D02*
X168609695Y-70395000D01*
X115570000Y-74930000D02*
X114300000Y-74930000D01*
X182880000Y-95250000D02*
X180340000Y-92710000D01*
X187960000Y-110490000D02*
X187960000Y-100330000D01*
X184150000Y-114300000D02*
X187960000Y-110490000D01*
X156846396Y-76200000D02*
X155126396Y-74480000D01*
X184150000Y-99060000D02*
X182880000Y-97790000D01*
X182880000Y-97790000D02*
X182880000Y-95250000D01*
X187960000Y-100330000D02*
X186690000Y-99060000D01*
X168609695Y-70395000D02*
X162804695Y-76200000D01*
X104140000Y-77470000D02*
X102870000Y-78740000D01*
X155126396Y-74480000D02*
X116020000Y-74480000D01*
X111760000Y-72390000D02*
X106680000Y-72390000D01*
X180340000Y-92710000D02*
X180340000Y-78106396D01*
%TO.N,Net-(J2-02_SWITCH)*%
X148590000Y-109853604D02*
X144780000Y-113663604D01*
X145474695Y-103690000D02*
X145749695Y-103415000D01*
X148590000Y-104805305D02*
X148590000Y-109853604D01*
X178198198Y-121521802D02*
X180340000Y-119380000D01*
X147199695Y-103415000D02*
X148590000Y-104805305D01*
X144186775Y-121521802D02*
X178198198Y-121521802D01*
X144780000Y-116644973D02*
X143510000Y-117914973D01*
X143510000Y-117914973D02*
X143510000Y-120845027D01*
X145749695Y-103415000D02*
X147199695Y-103415000D01*
X144780000Y-113663604D02*
X144780000Y-116644973D01*
X135890000Y-102870000D02*
X136710000Y-103690000D01*
X136710000Y-103690000D02*
X145474695Y-103690000D01*
X143510000Y-120845027D02*
X144186775Y-121521802D01*
%TO.N,Net-(J2-13_SWITCH)*%
X137160000Y-106680000D02*
X139700000Y-109220000D01*
X139700000Y-109220000D02*
X142240000Y-109220000D01*
X142240000Y-109220000D02*
X143510000Y-110490000D01*
%TO.N,Net-(J2-03_LED)*%
X175260000Y-114300000D02*
X170630000Y-109670000D01*
X170630000Y-74110000D02*
X168910000Y-72390000D01*
X170630000Y-109670000D02*
X170630000Y-74110000D01*
%TO.N,Net-(J2-12_LED)*%
X167640000Y-72390000D02*
X170180000Y-74930000D01*
X170180000Y-111760000D02*
X172720000Y-114300000D01*
X170180000Y-74930000D02*
X170180000Y-111760000D01*
%TO.N,Net-(J2-03_SWITCH)*%
X163824416Y-110490000D02*
X170180000Y-116845584D01*
X134620000Y-104140000D02*
X146050000Y-104140000D01*
X170180000Y-116845584D02*
X170180000Y-119380000D01*
X160020000Y-110490000D02*
X163824416Y-110490000D01*
%TO.N,Net-(J2-12_SWITCH)*%
X140970000Y-110490000D02*
X138430000Y-110490000D01*
X138430000Y-110490000D02*
X134620000Y-106680000D01*
X146050000Y-120650000D02*
X146471802Y-121071802D01*
X165948198Y-121071802D02*
X167640000Y-119380000D01*
X146471802Y-121071802D02*
X165948198Y-121071802D01*
X146050000Y-114300000D02*
X146050000Y-120650000D01*
X142240000Y-111760000D02*
X140970000Y-110490000D01*
X142240000Y-111760000D02*
X144780000Y-111760000D01*
%TO.N,Net-(J2-TIME_ACTIVE_SWITCH)*%
X165100000Y-119380000D02*
X165100000Y-116840000D01*
X157930000Y-109670000D02*
X155390000Y-109670000D01*
X165100000Y-116840000D02*
X157930000Y-109670000D01*
X155390000Y-109670000D02*
X152400000Y-106680000D01*
%TO.N,Net-(J2-11_LED)*%
X171080000Y-73290000D02*
X170180000Y-72390000D01*
X173990000Y-110490000D02*
X173990000Y-106680000D01*
X101471220Y-67310000D02*
X101471220Y-72261220D01*
X173990000Y-106680000D02*
X171080000Y-103770000D01*
X101471220Y-72261220D02*
X102870000Y-73660000D01*
X171080000Y-103770000D02*
X171080000Y-73290000D01*
%TO.N,Net-(J2-11_SWITCH)*%
X140970000Y-113030000D02*
X143510000Y-113030000D01*
X137160000Y-111760000D02*
X132080000Y-106680000D01*
X157480000Y-116840000D02*
X157480000Y-119380000D01*
X154940000Y-115570000D02*
X156210000Y-115570000D01*
X156210000Y-115570000D02*
X157480000Y-116840000D01*
X140970000Y-113030000D02*
X139700000Y-111760000D01*
X139700000Y-111760000D02*
X137160000Y-111760000D01*
%TO.N,Net-(J2-POWER_B)*%
X182140000Y-75460000D02*
X182140000Y-74431903D01*
X176530000Y-82550000D02*
X172720000Y-86360000D01*
X181610000Y-66146396D02*
X182155000Y-65601396D01*
X182155000Y-65601396D02*
X182155000Y-64225000D01*
X182155000Y-64225000D02*
X184150000Y-62230000D01*
X184150000Y-62230000D02*
X185420000Y-62230000D01*
X172720000Y-86360000D02*
X172720000Y-94320000D01*
X182880000Y-76200000D02*
X182140000Y-75460000D01*
X181610000Y-73901903D02*
X181610000Y-66146396D01*
X182140000Y-74431903D02*
X181610000Y-73901903D01*
%TO.N,Net-(J2-01_LED)*%
X100425000Y-113761396D02*
X100425000Y-111662208D01*
X130810000Y-114300000D02*
X129540000Y-115570000D01*
X101600000Y-73026396D02*
X100746220Y-72172616D01*
X101600000Y-88263604D02*
X101600000Y-73026396D01*
X100746220Y-72172616D02*
X100746220Y-65623780D01*
X104440305Y-114845000D02*
X101508604Y-114845000D01*
X101150000Y-88713604D02*
X101600000Y-88263604D01*
X100746220Y-65623780D02*
X102870000Y-63500000D01*
X143510000Y-114300000D02*
X130810000Y-114300000D01*
X116100000Y-116310000D02*
X105905305Y-116310000D01*
X101508604Y-114845000D02*
X100425000Y-113761396D01*
X100425000Y-111662208D02*
X101150000Y-110937208D01*
X105905305Y-116310000D02*
X104440305Y-114845000D01*
X119380000Y-113030000D02*
X116100000Y-116310000D01*
X101150000Y-110937208D02*
X101150000Y-88713604D01*
%TO.N,Net-(J2-EMERGENCY_STOP_SWITCH)*%
X149860000Y-119380000D02*
X157480000Y-111760000D01*
%TO.N,Net-(J2-01_SWITCH)*%
X144410000Y-103240000D02*
X146050000Y-101600000D01*
X151130000Y-102870000D02*
X151130000Y-107950000D01*
X146050000Y-101600000D02*
X149860000Y-101600000D01*
X138800000Y-103240000D02*
X144410000Y-103240000D01*
X149860000Y-101600000D02*
X151130000Y-102870000D01*
X151130000Y-107950000D02*
X147320000Y-111760000D01*
X147320000Y-111760000D02*
X147320000Y-119380000D01*
X137160000Y-101600000D02*
X138800000Y-103240000D01*
%TO.N,Net-(J2-EMERGENCY_STOP_LED)*%
X115280000Y-115860000D02*
X106091701Y-115860000D01*
X119380000Y-111760000D02*
X115280000Y-115860000D01*
X101600000Y-88900000D02*
X102870000Y-87630000D01*
X100875000Y-113575000D02*
X100875000Y-111848604D01*
X104626701Y-114395000D02*
X101695000Y-114395000D01*
X130810000Y-115570000D02*
X131630000Y-114750000D01*
X101600000Y-111123604D02*
X101600000Y-88900000D01*
X101695000Y-114395000D02*
X100875000Y-113575000D01*
X142690000Y-114750000D02*
X143510000Y-115570000D01*
X100875000Y-111848604D02*
X101600000Y-111123604D01*
X131630000Y-114750000D02*
X142690000Y-114750000D01*
X106091701Y-115860000D02*
X104626701Y-114395000D01*
%TO.N,Net-(J2-10_LED)*%
X132080000Y-115570000D02*
X132450000Y-115200000D01*
X105483150Y-114226851D02*
X105483150Y-114615053D01*
X132450000Y-115200000D02*
X138060000Y-115200000D01*
X105483150Y-114615053D02*
X106278097Y-115410000D01*
X106278097Y-115410000D02*
X114460000Y-115410000D01*
X138060000Y-115200000D02*
X142240000Y-119380000D01*
X114460000Y-115410000D02*
X119184503Y-110685497D01*
%TO.N,Net-(J2-5V)*%
X130440000Y-60590000D02*
X132080000Y-62230000D01*
X119380000Y-118110000D02*
X102870000Y-118110000D01*
X101150000Y-88077208D02*
X101150000Y-73212792D01*
X100700000Y-88527208D02*
X101150000Y-88077208D01*
X100296220Y-63532384D02*
X103238604Y-60590000D01*
X99975000Y-115215000D02*
X99975000Y-111475812D01*
X100296220Y-72359012D02*
X100296220Y-63532384D01*
X102870000Y-118110000D02*
X99975000Y-115215000D01*
X99975000Y-111475812D02*
X100700000Y-110750812D01*
X103238604Y-60590000D02*
X130440000Y-60590000D01*
X100700000Y-110750812D02*
X100700000Y-88527208D01*
X101150000Y-73212792D02*
X100296220Y-72359012D01*
%TO.N,Net-(J2-TIME_SET_DT)*%
X157219188Y-75300000D02*
X162431903Y-75300000D01*
X168236903Y-69495000D02*
X175370305Y-69495000D01*
X177800000Y-67065305D02*
X177800000Y-64770000D01*
X126920000Y-73580000D02*
X155499188Y-73580000D01*
X123190000Y-69850000D02*
X126920000Y-73580000D01*
X105330000Y-116760000D02*
X116920000Y-116760000D01*
X123190000Y-64770000D02*
X123190000Y-69850000D01*
X155499188Y-73580000D02*
X157219188Y-75300000D01*
X175370305Y-69495000D02*
X177800000Y-67065305D01*
X104140000Y-115570000D02*
X105330000Y-116760000D01*
X162431903Y-75300000D02*
X168236903Y-69495000D01*
X116920000Y-116760000D02*
X119380000Y-114300000D01*
%TO.N,Net-(J2-00_LED)*%
X119380000Y-116840000D02*
X118560000Y-117660000D01*
X104140000Y-109220000D02*
X104140000Y-88894416D01*
X101600000Y-111760000D02*
X104140000Y-109220000D01*
X103690000Y-117660000D02*
X118560000Y-117660000D01*
X107950000Y-85084416D02*
X107950000Y-78740000D01*
X101600000Y-113030000D02*
X101600000Y-111760000D01*
X104140000Y-88894416D02*
X107950000Y-85084416D01*
X103690000Y-117660000D02*
X102870000Y-116840000D01*
%TO.N,Net-(J2-TIME_SET_CLK)*%
X117740000Y-117210000D02*
X104265305Y-117210000D01*
X119380000Y-115570000D02*
X117740000Y-117210000D01*
X102625305Y-115570000D02*
X101600000Y-115570000D01*
X167640000Y-67310000D02*
X172720000Y-67310000D01*
X104265305Y-117210000D02*
X102625305Y-115570000D01*
X172720000Y-67310000D02*
X175260000Y-64770000D01*
%TO.N,Net-(J2-00_SWITCH)*%
X137160000Y-99060000D02*
X130665000Y-105555000D01*
X130665000Y-111905000D02*
X127000000Y-115570000D01*
X127000000Y-115570000D02*
X127000000Y-119380000D01*
X130665000Y-105555000D02*
X130665000Y-111905000D01*
%TO.N,Net-(J3-GPIO2(I2C1_SDA))*%
X152400000Y-69844416D02*
X152400000Y-67310000D01*
X157405584Y-74850000D02*
X152400000Y-69844416D01*
X162245506Y-74850000D02*
X157405584Y-74850000D01*
X174795000Y-69045000D02*
X168050507Y-69045000D01*
X176530000Y-67310000D02*
X174795000Y-69045000D01*
X168050507Y-69045000D02*
X162245506Y-74850000D01*
%TO.N,Net-(J3-GPIO3(I2C1_SCL))*%
X182880000Y-65690000D02*
X182880000Y-64770000D01*
X185420000Y-68230000D02*
X182880000Y-65690000D01*
%TO.N,Net-(J3-GPIO4(GPCLK0))*%
X163830000Y-69850000D02*
X160899946Y-69850000D01*
X168460000Y-99060000D02*
X169730000Y-97790000D01*
X158750000Y-67700054D02*
X158750000Y-63500000D01*
X165100000Y-99060000D02*
X168460000Y-99060000D01*
X169730000Y-97790000D02*
X169730000Y-75750000D01*
X160899946Y-69850000D02*
X158750000Y-67700054D01*
X169730000Y-75750000D02*
X167640000Y-73660000D01*
%TO.N,Net-(J3-GPIO17)*%
X123915000Y-64469695D02*
X123915000Y-68035000D01*
X143421396Y-67680500D02*
X144109902Y-67680500D01*
X110490000Y-100330000D02*
X107950000Y-97790000D01*
X109220000Y-80010000D02*
X109220000Y-77470000D01*
X118110000Y-68580000D02*
X122645000Y-64045000D01*
X109220000Y-77470000D02*
X110490000Y-76200000D01*
X137971896Y-73130000D02*
X143421396Y-67680500D01*
X144109902Y-67680500D02*
X144780000Y-67010402D01*
X123490305Y-64045000D02*
X123915000Y-64469695D01*
X122645000Y-64045000D02*
X123490305Y-64045000D01*
X129010000Y-73130000D02*
X137971896Y-73130000D01*
X144780000Y-67010402D02*
X144780000Y-64770000D01*
X107950000Y-97790000D02*
X107950000Y-90170000D01*
X123915000Y-68035000D02*
X129010000Y-73130000D01*
%TO.N,Net-(J3-GPIO18(PCM_CLK))*%
X149860000Y-106680000D02*
X149860000Y-102870000D01*
X144780000Y-68580000D02*
X143510000Y-68580000D01*
X127000000Y-90170000D02*
X126990000Y-90160000D01*
X146050000Y-67310000D02*
X144780000Y-68580000D01*
X149860000Y-96520000D02*
X149860000Y-91440000D01*
X140970000Y-71120000D02*
X140970000Y-72390000D01*
X143510000Y-68580000D02*
X140970000Y-71120000D01*
X144780000Y-62230000D02*
X146050000Y-63500000D01*
X126990000Y-90160000D02*
X126990000Y-85080000D01*
X146050000Y-63500000D02*
X146050000Y-67310000D01*
%TO.N,Net-(J3-GPIO27)*%
X106680000Y-92710000D02*
X106680000Y-97790000D01*
X125810000Y-61040000D02*
X130810000Y-66040000D01*
X107950000Y-73660000D02*
X106680000Y-74930000D01*
X107950000Y-63500000D02*
X110410000Y-61040000D01*
X106680000Y-74930000D02*
X106680000Y-85090000D01*
X130810000Y-66040000D02*
X140970000Y-66040000D01*
X110410000Y-61040000D02*
X125810000Y-61040000D01*
X110490000Y-73660000D02*
X107950000Y-73660000D01*
%TO.N,Net-(J3-GPIO22)*%
X111310000Y-69400000D02*
X110490000Y-68580000D01*
X111946396Y-69400000D02*
X111310000Y-69400000D01*
X123676701Y-63595000D02*
X122458604Y-63595000D01*
X114300000Y-71120000D02*
X113666396Y-71120000D01*
X128906396Y-72390000D02*
X124365000Y-67848604D01*
X113666396Y-71120000D02*
X111946396Y-69400000D01*
X124365000Y-67848604D02*
X124365000Y-64283299D01*
X124365000Y-64283299D02*
X123676701Y-63595000D01*
X118110000Y-67310000D02*
X114300000Y-71120000D01*
X143510000Y-66955500D02*
X138075500Y-72390000D01*
X138075500Y-72390000D02*
X128906396Y-72390000D01*
X122458604Y-63595000D02*
X118743604Y-67310000D01*
X118743604Y-67310000D02*
X118110000Y-67310000D01*
%TO.N,Net-(J3-GPIO23)*%
X114300000Y-127000000D02*
X113030000Y-128270000D01*
X114300000Y-125730000D02*
X114300000Y-127000000D01*
X101600000Y-128270000D02*
X99510000Y-126180000D01*
X113030000Y-128270000D02*
X101600000Y-128270000D01*
X99510000Y-62416396D02*
X101786396Y-60140000D01*
X101786396Y-60140000D02*
X147770000Y-60140000D01*
X99510000Y-126180000D02*
X99510000Y-62416396D01*
X147770000Y-60140000D02*
X149860000Y-62230000D01*
%TO.N,Net-(J3-GPIO24)*%
X140440000Y-73130000D02*
X149120000Y-73130000D01*
X139718247Y-72408247D02*
X140440000Y-73130000D01*
X149120000Y-73130000D02*
X151130000Y-71120000D01*
X116840000Y-95250000D02*
X116840000Y-88900000D01*
X116840000Y-88900000D02*
X121920000Y-83820000D01*
X151130000Y-71120000D02*
X151130000Y-63500000D01*
X151130000Y-63500000D02*
X152400000Y-62230000D01*
%TO.N,Net-(J3-GPIO10(SPI0_MOSI))*%
X171980000Y-72885305D02*
X172175000Y-72690305D01*
X179070000Y-81280000D02*
X178620000Y-80830000D01*
X178620000Y-80830000D02*
X174176396Y-80830000D01*
X172175000Y-71845000D02*
X171450000Y-71120000D01*
X171450000Y-71120000D02*
X170180000Y-71120000D01*
X174176396Y-80830000D02*
X171980000Y-78633604D01*
X172175000Y-72690305D02*
X172175000Y-71845000D01*
X171980000Y-78633604D02*
X171980000Y-72885305D01*
%TO.N,Net-(J3-GPIO11(SPI0_SCLK))*%
X173990000Y-81280000D02*
X171530000Y-78820000D01*
X177800000Y-81280000D02*
X173990000Y-81280000D01*
X171530000Y-78820000D02*
X171530000Y-78740000D01*
X171530000Y-72470000D02*
X171450000Y-72390000D01*
X171530000Y-78740000D02*
X171530000Y-72470000D01*
X179070000Y-82550000D02*
X177800000Y-81280000D01*
%TO.N,Net-(J3-GPIO8(SPI0_CE0))*%
X177800000Y-72390000D02*
X176530000Y-71120000D01*
X181240000Y-84720000D02*
X181240000Y-74804695D01*
X178825305Y-72390000D02*
X177800000Y-72390000D01*
X181240000Y-74804695D02*
X178825305Y-72390000D01*
X181610000Y-85090000D02*
X181240000Y-84720000D01*
%TO.N,Net-(J3-GPIO7(SPI0_CE1))*%
X187960000Y-77470000D02*
X187960000Y-76200000D01*
X187960000Y-60568299D02*
X187081701Y-59690000D01*
X187590000Y-62230000D02*
X187960000Y-61860000D01*
X163830000Y-59690000D02*
X162560000Y-60960000D01*
X187960000Y-61860000D02*
X187960000Y-60568299D01*
X162560000Y-60960000D02*
X162560000Y-62230000D01*
X185420000Y-80010000D02*
X187960000Y-77470000D01*
X187960000Y-76200000D02*
X187590000Y-75830000D01*
X187081701Y-59690000D02*
X163830000Y-59690000D01*
X187590000Y-75830000D02*
X187590000Y-62230000D01*
%TO.N,Net-(J3-GPIO12(PWM0))*%
X101600000Y-59690000D02*
X99060000Y-62230000D01*
X99060000Y-62230000D02*
X99060000Y-127000000D01*
X160020000Y-59690000D02*
X101600000Y-59690000D01*
X160020000Y-59690000D02*
X161290000Y-60960000D01*
%TO.N,Net-(J3-GPIO13(PWM1))*%
X125730000Y-90170000D02*
X125730000Y-86360000D01*
X167640000Y-88900000D02*
X167640000Y-85090000D01*
X147320000Y-85090000D02*
X147320000Y-88900000D01*
X180340000Y-76200000D02*
X180340000Y-74930000D01*
X147320000Y-106680000D02*
X146050000Y-105410000D01*
X148590000Y-90170000D02*
X163830000Y-90170000D01*
X127000000Y-104140000D02*
X124460000Y-106680000D01*
X180340000Y-74930000D02*
X179070000Y-73660000D01*
X147320000Y-88900000D02*
X148590000Y-90170000D01*
X125730000Y-86360000D02*
X124450000Y-85080000D01*
X130810000Y-104140000D02*
X127000000Y-104140000D01*
X146050000Y-105410000D02*
X133350000Y-105410000D01*
%TO.N,Net-(J3-GPIO16)*%
X179070000Y-64136396D02*
X178433604Y-63500000D01*
X180340000Y-73268299D02*
X180340000Y-66675000D01*
X176530000Y-63500000D02*
X175260000Y-62230000D01*
X178433604Y-63500000D02*
X176530000Y-63500000D01*
X182880000Y-81280000D02*
X181690000Y-80090000D01*
X181690000Y-80090000D02*
X181690000Y-74618299D01*
X179070000Y-65405000D02*
X179070000Y-64136396D01*
X185420000Y-92010000D02*
X182880000Y-89470000D01*
X182880000Y-89470000D02*
X182880000Y-81280000D01*
X180340000Y-66675000D02*
X179070000Y-65405000D01*
X181690000Y-74618299D02*
X180340000Y-73268299D01*
%TO.N,Net-(J3-GPIO20(PCM_DIN))*%
X183513604Y-60960000D02*
X180973604Y-63500000D01*
X179070000Y-63500000D02*
X177800000Y-62230000D01*
X184150000Y-60960000D02*
X183513604Y-60960000D01*
X180973604Y-63500000D02*
X179070000Y-63500000D01*
X185420000Y-77470000D02*
X186690000Y-76200000D01*
X186690000Y-76200000D02*
X186690000Y-60960000D01*
%TO.N,Net-(J3-GPIO21(PCM_DOUT))*%
X187510000Y-60754695D02*
X186895305Y-60140000D01*
X187510000Y-61673604D02*
X187510000Y-60754695D01*
X180340000Y-60960000D02*
X180340000Y-62230000D01*
X186690000Y-77470000D02*
X186690000Y-76836396D01*
X187140000Y-76386396D02*
X187140000Y-62043604D01*
X181160000Y-60140000D02*
X180340000Y-60960000D01*
X187140000Y-62043604D02*
X187510000Y-61673604D01*
X186895305Y-60140000D02*
X181160000Y-60140000D01*
X186690000Y-76836396D02*
X187140000Y-76386396D01*
%TO.N,Net-(U1-Q7)*%
X158750000Y-80010000D02*
X156210000Y-80010000D01*
X155760000Y-79560000D02*
X143304695Y-79560000D01*
X143304695Y-79560000D02*
X142230000Y-78485305D01*
X161290000Y-80010000D02*
X162560000Y-78740000D01*
X156210000Y-80010000D02*
X155760000Y-79560000D01*
X142230000Y-78485305D02*
X142230000Y-77460000D01*
X162560000Y-78740000D02*
X162560000Y-77470000D01*
%TO.N,Net-(U2-Q7)*%
X138430000Y-87630000D02*
X138430000Y-83820000D01*
X139700000Y-88900000D02*
X138430000Y-87630000D01*
X139700000Y-82550000D02*
X151130000Y-82550000D01*
X138430000Y-83820000D02*
X139700000Y-82550000D01*
X139700000Y-96520000D02*
X139700000Y-88900000D01*
%TO.N,Net-(U3-Q7)*%
X162560000Y-99060000D02*
X160840000Y-97340000D01*
X144780000Y-96520000D02*
X142240000Y-96520000D01*
X160840000Y-97340000D02*
X145600000Y-97340000D01*
X145600000Y-97340000D02*
X144780000Y-96520000D01*
%TD*%
M02*
