M48
; DRILL file {KiCad 7.0.8} date Mon Oct 23 01:27:48 2023
; FORMAT={-:-/ absolute / inch / decimal}
; #@! TF.CreationDate,2023-10-23T01:27:48-07:00
; #@! TF.GenerationSoftware,Kicad,Pcbnew,7.0.8
; #@! TF.FileFunction,MixedPlating,1,2
FMAT,2
INCH
; #@! TA.AperFunction,Plated,PTH,ViaDrill
T1C0.0157
; #@! TA.AperFunction,Plated,PTH,ComponentDrill
T2C0.0315
; #@! TA.AperFunction,Plated,PTH,ComponentDrill
T3C0.0394
; #@! TA.AperFunction,Plated,PTH,ComponentDrill
T4C0.0433
; #@! TA.AperFunction,NonPlated,NPTH,ComponentDrill
T5C0.1378
%
G90
G05
T1
X3.9Y-5.0
X3.9949Y-2.65
X4.0Y-4.45
X4.0Y-4.55
X4.05Y-4.6
X4.1Y-4.55
X4.1529Y-4.4971
X4.2Y-2.95
X4.2Y-3.35
X4.2Y-3.65
X4.2Y-3.85
X4.25Y-2.5
X4.25Y-3.1
X4.25Y-3.55
X4.25Y-4.25
X4.3Y-3.15
X4.3Y-4.3
X4.35Y-4.35
X4.4Y-4.4
X4.45Y-3.15
X4.45Y-4.05
X4.5Y-4.05
X4.55Y-3.35
X4.55Y-3.95
X4.55Y-4.05
X4.6Y-3.75
X4.6Y-4.05
X4.65Y-2.6
X4.65Y-2.7
X4.6791Y-3.6715
X4.6923Y-4.3577
X4.7Y-4.4
X4.7Y-4.45
X4.7Y-4.5
X4.7Y-4.55
X4.7Y-4.6
X4.7Y-4.65
X4.8Y-2.45
X4.8Y-3.0
X4.8Y-3.3
X4.8Y-3.85
X4.85Y-2.55
X4.95Y-3.55
X5.0Y-3.55
X5.1Y-4.55
X5.15Y-4.1
X5.15Y-4.55
X5.2Y-4.55
X5.25Y-4.15
X5.3Y-4.1
X5.35Y-4.05
X5.4Y-4.0
X5.45Y-3.2
X5.5Y-3.8
X5.5007Y-2.8507
X5.55Y-2.6
X5.55Y-2.85
X5.6Y-3.8
X5.65Y-2.636
X5.65Y-3.1
X5.65Y-4.35
X5.65Y-4.45
X5.65Y-4.5
X5.65Y-4.55
X5.7Y-3.0
X5.7Y-3.85
X5.7Y-4.4
X5.75Y-4.1
X5.75Y-4.5
X5.9Y-3.6
X5.9Y-3.8
X5.9Y-4.05
X5.95Y-3.2
X5.95Y-3.25
X6.0Y-2.65
X6.1Y-4.55
X6.2Y-4.4
X6.25Y-2.5
X6.25Y-3.15
X6.3Y-4.35
X6.35Y-2.4
X6.35Y-3.15
X6.45Y-2.75
X6.45Y-3.55
X6.55Y-3.65
X6.6Y-2.65
X6.6Y-2.85
X6.6Y-2.9
X6.6Y-3.35
X6.6Y-3.5
X6.65Y-2.85
X6.7Y-2.8
X6.7Y-2.85
X6.75Y-2.85
X6.8Y-4.5
X6.85Y-4.35
X6.9Y-4.5
X6.95Y-2.65
X6.95Y-2.8
X6.95Y-3.25
X6.95Y-3.45
X7.05Y-2.9
X7.05Y-3.2
X7.05Y-3.25
X7.05Y-3.4
X7.1Y-3.0
X7.1Y-4.0
X7.1Y-4.4
X7.15Y-3.35
X7.15Y-3.6
X7.15Y-4.0
X7.15Y-4.4
X7.2Y-2.55
X7.2Y-2.9
X7.2Y-3.0
X7.2Y-4.0
X7.2Y-4.4
X7.25Y-2.4
X7.25Y-4.0
X7.25Y-4.4
X7.25Y-4.5
X7.3Y-3.05
X7.3Y-4.0
X7.3Y-4.35
X7.3Y-4.4
X7.35Y-2.4
X7.35Y-3.05
X7.35Y-4.0
T2
X4.05Y-2.5
X4.05Y-2.6
X4.05Y-2.7
X4.05Y-2.8
X4.05Y-2.9
X4.05Y-3.0
X4.05Y-3.1
X4.05Y-3.2
X4.05Y-3.45
X4.05Y-3.55
X4.05Y-3.65
X4.05Y-3.75
X4.05Y-3.85
X4.05Y-3.95
X4.05Y-4.05
X4.05Y-4.15
X4.35Y-2.5
X4.35Y-2.6
X4.35Y-2.7
X4.35Y-2.8
X4.35Y-2.9
X4.35Y-3.0
X4.35Y-3.1
X4.35Y-3.2
X4.35Y-3.45
X4.35Y-3.55
X4.35Y-3.65
X4.35Y-3.75
X4.35Y-3.85
X4.35Y-3.95
X4.35Y-4.05
X4.35Y-4.15
X4.8996Y-3.0496
X4.8996Y-3.3496
X4.9Y-3.9
X4.9Y-4.2
X4.9996Y-3.0496
X4.9996Y-3.3496
X5.0Y-3.9
X5.0Y-4.2
X5.0996Y-3.0496
X5.0996Y-3.3496
X5.1Y-3.9
X5.1Y-4.2
X5.1996Y-3.0496
X5.1996Y-3.3496
X5.2Y-3.9
X5.2Y-4.2
X5.2996Y-3.0496
X5.2996Y-3.3496
X5.3Y-3.9
X5.3Y-4.2
X5.3996Y-3.0496
X5.3996Y-3.3496
X5.4Y-3.9
X5.4Y-4.2
X5.4996Y-3.0496
X5.4996Y-3.3496
X5.5Y-3.9
X5.5Y-4.2
X5.5996Y-3.0496
X5.5996Y-3.3496
X5.6Y-3.9
X5.6Y-4.2
X5.8Y-3.05
X5.8Y-3.35
X5.8Y-3.9
X5.8Y-4.2
X5.9Y-3.05
X5.9Y-3.35
X5.9Y-3.9
X5.9Y-4.2
X6.0Y-3.05
X6.0Y-3.35
X6.0Y-3.9
X6.0Y-4.2
X6.1Y-3.05
X6.1Y-3.35
X6.1Y-3.9
X6.1Y-4.2
X6.2Y-3.05
X6.2Y-3.35
X6.2Y-3.9
X6.2Y-4.2
X6.3Y-3.05
X6.3Y-3.35
X6.3Y-3.9
X6.3Y-4.2
X6.4Y-3.05
X6.4Y-3.35
X6.4Y-3.9
X6.4Y-4.2
X6.5Y-3.05
X6.5Y-3.35
X6.5Y-3.9
X6.5Y-4.2
X7.3Y-2.45
X7.3Y-2.5287
X7.3Y-2.6075
X7.3Y-2.6862
X7.3Y-2.765
X7.3Y-2.8437
X7.3Y-3.15
X7.3Y-3.2287
X7.3Y-3.3075
X7.3Y-3.3862
X7.3Y-3.465
X7.3Y-3.5437
X7.3Y-3.6224
X7.3Y-3.7012
X7.3Y-3.7799
T3
X4.0Y-4.95
X4.1Y-4.95
X4.4Y-4.95
X4.5Y-4.95
X4.6Y-4.95
X5.0Y-4.7
X5.0Y-4.9
X5.1Y-4.7
X5.1Y-4.9
X5.2Y-2.45
X5.2Y-2.55
X5.2Y-4.7
X5.2Y-4.9
X5.3Y-2.45
X5.3Y-2.55
X5.3Y-4.7
X5.3Y-4.9
X5.4Y-2.45
X5.4Y-2.55
X5.4Y-4.7
X5.4Y-4.9
X5.5Y-2.45
X5.5Y-2.55
X5.5Y-4.7
X5.5Y-4.9
X5.6Y-2.45
X5.6Y-2.55
X5.6Y-4.7
X5.6Y-4.9
X5.7Y-2.45
X5.7Y-2.55
X5.7Y-4.7
X5.7Y-4.9
X5.8Y-2.45
X5.8Y-2.55
X5.8Y-4.7
X5.8Y-4.9
X5.9Y-2.45
X5.9Y-2.55
X5.9Y-4.7
X5.9Y-4.9
X6.0Y-2.45
X6.0Y-2.55
X6.0Y-4.7
X6.0Y-4.9
X6.1Y-2.45
X6.1Y-2.55
X6.1Y-4.7
X6.1Y-4.9
X6.2Y-2.45
X6.2Y-2.55
X6.2Y-4.7
X6.2Y-4.9
X6.3Y-2.45
X6.3Y-2.55
X6.3Y-4.7
X6.3Y-4.9
X6.4Y-2.45
X6.4Y-2.55
X6.4Y-4.7
X6.4Y-4.9
X6.5Y-2.45
X6.5Y-2.55
X6.5Y-4.7
X6.5Y-4.9
X6.6Y-2.45
X6.6Y-2.55
X6.6Y-4.7
X6.6Y-4.9
X6.7Y-2.45
X6.7Y-2.55
X6.7Y-4.7
X6.7Y-4.9
X6.8Y-2.45
X6.8Y-2.55
X6.8Y-4.7
X6.8Y-4.9
X6.9Y-2.45
X6.9Y-2.55
X6.9Y-4.7
X6.9Y-4.9
X7.0Y-2.45
X7.0Y-2.55
X7.0Y-4.7
X7.0Y-4.9
X7.1Y-2.45
X7.1Y-2.55
X7.1Y-4.7
X7.1Y-4.9
X7.2Y-4.7
X7.2Y-4.9
X7.3Y-4.15
X7.3Y-4.25
X7.3Y-4.7
X7.3Y-4.9
T4
X6.8Y-3.7134
X6.9Y-3.7134
X7.0Y-3.7134
T5
X6.9Y-3.0575
T0
M30
