%TF.GenerationSoftware,KiCad,Pcbnew,7.0.8*%
%TF.CreationDate,2023-10-23T01:27:40-07:00*%
%TF.ProjectId,motherboard,6d6f7468-6572-4626-9f61-72642e6b6963,1*%
%TF.SameCoordinates,Original*%
%TF.FileFunction,Soldermask,Top*%
%TF.FilePolarity,Negative*%
%FSLAX46Y46*%
G04 Gerber Fmt 4.6, Leading zero omitted, Abs format (unit mm)*
G04 Created by KiCad (PCBNEW 7.0.8) date 2023-10-23 01:27:40*
%MOMM*%
%LPD*%
G01*
G04 APERTURE LIST*
G04 Aperture macros list*
%AMRoundRect*
0 Rectangle with rounded corners*
0 $1 Rounding radius*
0 $2 $3 $4 $5 $6 $7 $8 $9 X,Y pos of 4 corners*
0 Add a 4 corners polygon primitive as box body*
4,1,4,$2,$3,$4,$5,$6,$7,$8,$9,$2,$3,0*
0 Add four circle primitives for the rounded corners*
1,1,$1+$1,$2,$3*
1,1,$1+$1,$4,$5*
1,1,$1+$1,$6,$7*
1,1,$1+$1,$8,$9*
0 Add four rect primitives between the rounded corners*
20,1,$1+$1,$2,$3,$4,$5,0*
20,1,$1+$1,$4,$5,$6,$7,0*
20,1,$1+$1,$6,$7,$8,$9,0*
20,1,$1+$1,$8,$9,$2,$3,0*%
G04 Aperture macros list end*
%ADD10RoundRect,0.250000X-0.625000X0.400000X-0.625000X-0.400000X0.625000X-0.400000X0.625000X0.400000X0*%
%ADD11RoundRect,0.250000X0.625000X-0.400000X0.625000X0.400000X-0.625000X0.400000X-0.625000X-0.400000X0*%
%ADD12R,1.600000X1.600000*%
%ADD13O,1.600000X1.600000*%
%ADD14R,1.700000X1.700000*%
%ADD15O,1.700000X1.700000*%
%ADD16R,1.350000X1.350000*%
%ADD17O,1.350000X1.350000*%
%ADD18RoundRect,0.250000X1.250000X0.550000X-1.250000X0.550000X-1.250000X-0.550000X1.250000X-0.550000X0*%
%ADD19RoundRect,0.250000X-0.550000X1.250000X-0.550000X-1.250000X0.550000X-1.250000X0.550000X1.250000X0*%
%ADD20O,3.500000X3.500000*%
%ADD21R,1.905000X2.000000*%
%ADD22O,1.905000X2.000000*%
G04 APERTURE END LIST*
D10*
%TO.C,R12*%
X152400000Y-71830000D03*
X152400000Y-74930000D03*
%TD*%
D11*
%TO.C,R22*%
X132080000Y-112320000D03*
X132080000Y-109220000D03*
%TD*%
D12*
%TO.C,U1*%
X124450000Y-85080000D03*
D13*
X126990000Y-85080000D03*
X129530000Y-85080000D03*
X132070000Y-85080000D03*
X134610000Y-85080000D03*
X137150000Y-85080000D03*
X139690000Y-85080000D03*
X142230000Y-85080000D03*
X142230000Y-77460000D03*
X139690000Y-77460000D03*
X137150000Y-77460000D03*
X134610000Y-77460000D03*
X132070000Y-77460000D03*
X129530000Y-77460000D03*
X126990000Y-77460000D03*
X124450000Y-77460000D03*
%TD*%
D14*
%TO.C,J2*%
X185420000Y-119380000D03*
D15*
X182880000Y-119380000D03*
X180340000Y-119380000D03*
X177800000Y-119380000D03*
X175260000Y-119380000D03*
X172720000Y-119380000D03*
X170180000Y-119380000D03*
X167640000Y-119380000D03*
X165100000Y-119380000D03*
X162560000Y-119380000D03*
X160020000Y-119380000D03*
X157480000Y-119380000D03*
X154940000Y-119380000D03*
X152400000Y-119380000D03*
X149860000Y-119380000D03*
X147320000Y-119380000D03*
X144780000Y-119380000D03*
X142240000Y-119380000D03*
X139700000Y-119380000D03*
X137160000Y-119380000D03*
X134620000Y-119380000D03*
X132080000Y-119380000D03*
X129540000Y-119380000D03*
X127000000Y-119380000D03*
%TD*%
D12*
%TO.C,U2*%
X147320000Y-85090000D03*
D13*
X149860000Y-85090000D03*
X152400000Y-85090000D03*
X154940000Y-85090000D03*
X157480000Y-85090000D03*
X160020000Y-85090000D03*
X162560000Y-85090000D03*
X165100000Y-85090000D03*
X165100000Y-77470000D03*
X162560000Y-77470000D03*
X160020000Y-77470000D03*
X157480000Y-77470000D03*
X154940000Y-77470000D03*
X152400000Y-77470000D03*
X149860000Y-77470000D03*
X147320000Y-77470000D03*
%TD*%
D10*
%TO.C,R4*%
X129540000Y-71830000D03*
X129540000Y-74930000D03*
%TD*%
D11*
%TO.C,R29*%
X152400000Y-112320000D03*
X152400000Y-109220000D03*
%TD*%
D12*
%TO.C,U3*%
X124460000Y-106680000D03*
D13*
X127000000Y-106680000D03*
X129540000Y-106680000D03*
X132080000Y-106680000D03*
X134620000Y-106680000D03*
X137160000Y-106680000D03*
X139700000Y-106680000D03*
X142240000Y-106680000D03*
X142240000Y-99060000D03*
X139700000Y-99060000D03*
X137160000Y-99060000D03*
X134620000Y-99060000D03*
X132080000Y-99060000D03*
X129540000Y-99060000D03*
X127000000Y-99060000D03*
X124460000Y-99060000D03*
%TD*%
D10*
%TO.C,R20*%
X129540000Y-93420000D03*
X129540000Y-96520000D03*
%TD*%
D11*
%TO.C,R30*%
X154940000Y-112320000D03*
X154940000Y-109220000D03*
%TD*%
D16*
%TO.C,J5*%
X185420000Y-62230000D03*
D17*
X185420000Y-64230000D03*
X185420000Y-66230000D03*
X185420000Y-68230000D03*
X185420000Y-70230000D03*
X185420000Y-72230000D03*
%TD*%
D11*
%TO.C,R13*%
X152400000Y-90730000D03*
X152400000Y-87630000D03*
%TD*%
D10*
%TO.C,R3*%
X132080000Y-71830000D03*
X132080000Y-74930000D03*
%TD*%
%TO.C,R1*%
X137160000Y-71830000D03*
X137160000Y-74930000D03*
%TD*%
%TO.C,R27*%
X154940000Y-93420000D03*
X154940000Y-96520000D03*
%TD*%
D11*
%TO.C,R16*%
X160020000Y-90730000D03*
X160020000Y-87630000D03*
%TD*%
D18*
%TO.C,C1*%
X125730000Y-72390000D03*
X121330000Y-72390000D03*
%TD*%
%TO.C,C4*%
X148590000Y-93980000D03*
X144190000Y-93980000D03*
%TD*%
D12*
%TO.C,U6*%
X102870000Y-87630000D03*
D13*
X102870000Y-90170000D03*
X102870000Y-92710000D03*
X102870000Y-95250000D03*
X102870000Y-97790000D03*
X102870000Y-100330000D03*
X102870000Y-102870000D03*
X102870000Y-105410000D03*
X110490000Y-105410000D03*
X110490000Y-102870000D03*
X110490000Y-100330000D03*
X110490000Y-97790000D03*
X110490000Y-95250000D03*
X110490000Y-92710000D03*
X110490000Y-90170000D03*
X110490000Y-87630000D03*
%TD*%
D18*
%TO.C,C3*%
X125730000Y-93980000D03*
X121330000Y-93980000D03*
%TD*%
D10*
%TO.C,R2*%
X134620000Y-71830000D03*
X134620000Y-74930000D03*
%TD*%
D14*
%TO.C,J4*%
X185420000Y-105410000D03*
D15*
X185420000Y-107950000D03*
%TD*%
D14*
%TO.C,J1*%
X185420000Y-124460000D03*
D15*
X182880000Y-124460000D03*
X180340000Y-124460000D03*
X177800000Y-124460000D03*
X175260000Y-124460000D03*
X172720000Y-124460000D03*
X170180000Y-124460000D03*
X167640000Y-124460000D03*
X165100000Y-124460000D03*
X162560000Y-124460000D03*
X160020000Y-124460000D03*
X157480000Y-124460000D03*
X154940000Y-124460000D03*
X152400000Y-124460000D03*
X149860000Y-124460000D03*
X147320000Y-124460000D03*
X144780000Y-124460000D03*
X142240000Y-124460000D03*
X139700000Y-124460000D03*
X137160000Y-124460000D03*
X134620000Y-124460000D03*
X132080000Y-124460000D03*
X129540000Y-124460000D03*
X127000000Y-124460000D03*
%TD*%
D19*
%TO.C,C6*%
X115570000Y-87630000D03*
X115570000Y-92030000D03*
%TD*%
D11*
%TO.C,R23*%
X134620000Y-112320000D03*
X134620000Y-109220000D03*
%TD*%
D14*
%TO.C,J8*%
X111760000Y-125730000D03*
D15*
X114300000Y-125730000D03*
X116840000Y-125730000D03*
%TD*%
D10*
%TO.C,R9*%
X160020000Y-71830000D03*
X160020000Y-74930000D03*
%TD*%
%TO.C,R11*%
X154940000Y-71830000D03*
X154940000Y-74930000D03*
%TD*%
D20*
%TO.C,U7*%
X175260000Y-77660000D03*
D21*
X172720000Y-94320000D03*
D22*
X175260000Y-94320000D03*
X177800000Y-94320000D03*
%TD*%
D10*
%TO.C,R26*%
X157480000Y-93420000D03*
X157480000Y-96520000D03*
%TD*%
%TO.C,R10*%
X157480000Y-71830000D03*
X157480000Y-74930000D03*
%TD*%
D11*
%TO.C,R8*%
X137160000Y-90730000D03*
X137160000Y-87630000D03*
%TD*%
D10*
%TO.C,R25*%
X160020000Y-93420000D03*
X160020000Y-96520000D03*
%TD*%
%TO.C,R17*%
X137160000Y-93420000D03*
X137160000Y-96520000D03*
%TD*%
D14*
%TO.C,J6*%
X101600000Y-125730000D03*
D15*
X104140000Y-125730000D03*
%TD*%
D11*
%TO.C,R15*%
X157480000Y-90730000D03*
X157480000Y-87630000D03*
%TD*%
%TO.C,R21*%
X129540000Y-112320000D03*
X129540000Y-109220000D03*
%TD*%
D19*
%TO.C,C5*%
X115570000Y-63500000D03*
X115570000Y-67900000D03*
%TD*%
D16*
%TO.C,J7*%
X185420000Y-80010000D03*
D17*
X185420000Y-82010000D03*
X185420000Y-84010000D03*
X185420000Y-86010000D03*
X185420000Y-88010000D03*
X185420000Y-90010000D03*
X185420000Y-92010000D03*
X185420000Y-94010000D03*
X185420000Y-96010000D03*
%TD*%
D11*
%TO.C,R6*%
X132080000Y-90730000D03*
X132080000Y-87630000D03*
%TD*%
%TO.C,R7*%
X134620000Y-90730000D03*
X134620000Y-87630000D03*
%TD*%
D12*
%TO.C,U4*%
X147320000Y-106680000D03*
D13*
X149860000Y-106680000D03*
X152400000Y-106680000D03*
X154940000Y-106680000D03*
X157480000Y-106680000D03*
X160020000Y-106680000D03*
X162560000Y-106680000D03*
X165100000Y-106680000D03*
X165100000Y-99060000D03*
X162560000Y-99060000D03*
X160020000Y-99060000D03*
X157480000Y-99060000D03*
X154940000Y-99060000D03*
X152400000Y-99060000D03*
X149860000Y-99060000D03*
X147320000Y-99060000D03*
%TD*%
D10*
%TO.C,R19*%
X132080000Y-93420000D03*
X132080000Y-96520000D03*
%TD*%
%TO.C,R28*%
X152400000Y-93420000D03*
X152400000Y-96520000D03*
%TD*%
D18*
%TO.C,C2*%
X148590000Y-72390000D03*
X144190000Y-72390000D03*
%TD*%
D11*
%TO.C,R24*%
X137160000Y-112320000D03*
X137160000Y-109220000D03*
%TD*%
%TO.C,R5*%
X129540000Y-90730000D03*
X129540000Y-87630000D03*
%TD*%
D12*
%TO.C,U5*%
X102870000Y-63500000D03*
D13*
X102870000Y-66040000D03*
X102870000Y-68580000D03*
X102870000Y-71120000D03*
X102870000Y-73660000D03*
X102870000Y-76200000D03*
X102870000Y-78740000D03*
X102870000Y-81280000D03*
X110490000Y-81280000D03*
X110490000Y-78740000D03*
X110490000Y-76200000D03*
X110490000Y-73660000D03*
X110490000Y-71120000D03*
X110490000Y-68580000D03*
X110490000Y-66040000D03*
X110490000Y-63500000D03*
%TD*%
D10*
%TO.C,R18*%
X134620000Y-93420000D03*
X134620000Y-96520000D03*
%TD*%
D11*
%TO.C,R14*%
X154940000Y-90730000D03*
X154940000Y-87630000D03*
%TD*%
D14*
%TO.C,J3*%
X132080000Y-64770000D03*
D15*
X132080000Y-62230000D03*
X134620000Y-64770000D03*
X134620000Y-62230000D03*
X137160000Y-64770000D03*
X137160000Y-62230000D03*
X139700000Y-64770000D03*
X139700000Y-62230000D03*
X142240000Y-64770000D03*
X142240000Y-62230000D03*
X144780000Y-64770000D03*
X144780000Y-62230000D03*
X147320000Y-64770000D03*
X147320000Y-62230000D03*
X149860000Y-64770000D03*
X149860000Y-62230000D03*
X152400000Y-64770000D03*
X152400000Y-62230000D03*
X154940000Y-64770000D03*
X154940000Y-62230000D03*
X157480000Y-64770000D03*
X157480000Y-62230000D03*
X160020000Y-64770000D03*
X160020000Y-62230000D03*
X162560000Y-64770000D03*
X162560000Y-62230000D03*
X165100000Y-64770000D03*
X165100000Y-62230000D03*
X167640000Y-64770000D03*
X167640000Y-62230000D03*
X170180000Y-64770000D03*
X170180000Y-62230000D03*
X172720000Y-64770000D03*
X172720000Y-62230000D03*
X175260000Y-64770000D03*
X175260000Y-62230000D03*
X177800000Y-64770000D03*
X177800000Y-62230000D03*
X180340000Y-64770000D03*
X180340000Y-62230000D03*
%TD*%
M02*
