%TF.GenerationSoftware,KiCad,Pcbnew,7.0.8*%
%TF.CreationDate,2023-10-23T01:27:40-07:00*%
%TF.ProjectId,motherboard,6d6f7468-6572-4626-9f61-72642e6b6963,1*%
%TF.SameCoordinates,Original*%
%TF.FileFunction,Paste,Top*%
%TF.FilePolarity,Positive*%
%FSLAX46Y46*%
G04 Gerber Fmt 4.6, Leading zero omitted, Abs format (unit mm)*
G04 Created by KiCad (PCBNEW 7.0.8) date 2023-10-23 01:27:40*
%MOMM*%
%LPD*%
G01*
G04 APERTURE LIST*
G04 Aperture macros list*
%AMRoundRect*
0 Rectangle with rounded corners*
0 $1 Rounding radius*
0 $2 $3 $4 $5 $6 $7 $8 $9 X,Y pos of 4 corners*
0 Add a 4 corners polygon primitive as box body*
4,1,4,$2,$3,$4,$5,$6,$7,$8,$9,$2,$3,0*
0 Add four circle primitives for the rounded corners*
1,1,$1+$1,$2,$3*
1,1,$1+$1,$4,$5*
1,1,$1+$1,$6,$7*
1,1,$1+$1,$8,$9*
0 Add four rect primitives between the rounded corners*
20,1,$1+$1,$2,$3,$4,$5,0*
20,1,$1+$1,$4,$5,$6,$7,0*
20,1,$1+$1,$6,$7,$8,$9,0*
20,1,$1+$1,$8,$9,$2,$3,0*%
G04 Aperture macros list end*
%ADD10RoundRect,0.250000X-0.625000X0.400000X-0.625000X-0.400000X0.625000X-0.400000X0.625000X0.400000X0*%
%ADD11RoundRect,0.250000X0.625000X-0.400000X0.625000X0.400000X-0.625000X0.400000X-0.625000X-0.400000X0*%
%ADD12RoundRect,0.250000X1.250000X0.550000X-1.250000X0.550000X-1.250000X-0.550000X1.250000X-0.550000X0*%
%ADD13RoundRect,0.250000X-0.550000X1.250000X-0.550000X-1.250000X0.550000X-1.250000X0.550000X1.250000X0*%
G04 APERTURE END LIST*
D10*
%TO.C,R12*%
X152400000Y-71830000D03*
X152400000Y-74930000D03*
%TD*%
D11*
%TO.C,R22*%
X132080000Y-112320000D03*
X132080000Y-109220000D03*
%TD*%
D10*
%TO.C,R4*%
X129540000Y-71830000D03*
X129540000Y-74930000D03*
%TD*%
D11*
%TO.C,R29*%
X152400000Y-112320000D03*
X152400000Y-109220000D03*
%TD*%
D10*
%TO.C,R20*%
X129540000Y-93420000D03*
X129540000Y-96520000D03*
%TD*%
D11*
%TO.C,R30*%
X154940000Y-112320000D03*
X154940000Y-109220000D03*
%TD*%
%TO.C,R13*%
X152400000Y-90730000D03*
X152400000Y-87630000D03*
%TD*%
D10*
%TO.C,R3*%
X132080000Y-71830000D03*
X132080000Y-74930000D03*
%TD*%
%TO.C,R1*%
X137160000Y-71830000D03*
X137160000Y-74930000D03*
%TD*%
%TO.C,R27*%
X154940000Y-93420000D03*
X154940000Y-96520000D03*
%TD*%
D11*
%TO.C,R16*%
X160020000Y-90730000D03*
X160020000Y-87630000D03*
%TD*%
D12*
%TO.C,C1*%
X125730000Y-72390000D03*
X121330000Y-72390000D03*
%TD*%
%TO.C,C4*%
X148590000Y-93980000D03*
X144190000Y-93980000D03*
%TD*%
%TO.C,C3*%
X125730000Y-93980000D03*
X121330000Y-93980000D03*
%TD*%
D10*
%TO.C,R2*%
X134620000Y-71830000D03*
X134620000Y-74930000D03*
%TD*%
D13*
%TO.C,C6*%
X115570000Y-87630000D03*
X115570000Y-92030000D03*
%TD*%
D11*
%TO.C,R23*%
X134620000Y-112320000D03*
X134620000Y-109220000D03*
%TD*%
D10*
%TO.C,R9*%
X160020000Y-71830000D03*
X160020000Y-74930000D03*
%TD*%
%TO.C,R11*%
X154940000Y-71830000D03*
X154940000Y-74930000D03*
%TD*%
%TO.C,R26*%
X157480000Y-93420000D03*
X157480000Y-96520000D03*
%TD*%
%TO.C,R10*%
X157480000Y-71830000D03*
X157480000Y-74930000D03*
%TD*%
D11*
%TO.C,R8*%
X137160000Y-90730000D03*
X137160000Y-87630000D03*
%TD*%
D10*
%TO.C,R25*%
X160020000Y-93420000D03*
X160020000Y-96520000D03*
%TD*%
%TO.C,R17*%
X137160000Y-93420000D03*
X137160000Y-96520000D03*
%TD*%
D11*
%TO.C,R15*%
X157480000Y-90730000D03*
X157480000Y-87630000D03*
%TD*%
%TO.C,R21*%
X129540000Y-112320000D03*
X129540000Y-109220000D03*
%TD*%
D13*
%TO.C,C5*%
X115570000Y-63500000D03*
X115570000Y-67900000D03*
%TD*%
D11*
%TO.C,R6*%
X132080000Y-90730000D03*
X132080000Y-87630000D03*
%TD*%
%TO.C,R7*%
X134620000Y-90730000D03*
X134620000Y-87630000D03*
%TD*%
D10*
%TO.C,R19*%
X132080000Y-93420000D03*
X132080000Y-96520000D03*
%TD*%
%TO.C,R28*%
X152400000Y-93420000D03*
X152400000Y-96520000D03*
%TD*%
D12*
%TO.C,C2*%
X148590000Y-72390000D03*
X144190000Y-72390000D03*
%TD*%
D11*
%TO.C,R24*%
X137160000Y-112320000D03*
X137160000Y-109220000D03*
%TD*%
%TO.C,R5*%
X129540000Y-90730000D03*
X129540000Y-87630000D03*
%TD*%
D10*
%TO.C,R18*%
X134620000Y-93420000D03*
X134620000Y-96520000D03*
%TD*%
D11*
%TO.C,R14*%
X154940000Y-90730000D03*
X154940000Y-87630000D03*
%TD*%
M02*
