%TF.GenerationSoftware,KiCad,Pcbnew,7.0.8*%
%TF.CreationDate,2023-10-23T01:27:40-07:00*%
%TF.ProjectId,motherboard,6d6f7468-6572-4626-9f61-72642e6b6963,1*%
%TF.SameCoordinates,Original*%
%TF.FileFunction,Copper,L1,Top*%
%TF.FilePolarity,Positive*%
%FSLAX46Y46*%
G04 Gerber Fmt 4.6, Leading zero omitted, Abs format (unit mm)*
G04 Created by KiCad (PCBNEW 7.0.8) date 2023-10-23 01:27:40*
%MOMM*%
%LPD*%
G01*
G04 APERTURE LIST*
G04 Aperture macros list*
%AMRoundRect*
0 Rectangle with rounded corners*
0 $1 Rounding radius*
0 $2 $3 $4 $5 $6 $7 $8 $9 X,Y pos of 4 corners*
0 Add a 4 corners polygon primitive as box body*
4,1,4,$2,$3,$4,$5,$6,$7,$8,$9,$2,$3,0*
0 Add four circle primitives for the rounded corners*
1,1,$1+$1,$2,$3*
1,1,$1+$1,$4,$5*
1,1,$1+$1,$6,$7*
1,1,$1+$1,$8,$9*
0 Add four rect primitives between the rounded corners*
20,1,$1+$1,$2,$3,$4,$5,0*
20,1,$1+$1,$4,$5,$6,$7,0*
20,1,$1+$1,$6,$7,$8,$9,0*
20,1,$1+$1,$8,$9,$2,$3,0*%
G04 Aperture macros list end*
%TA.AperFunction,SMDPad,CuDef*%
%ADD10RoundRect,0.250000X-0.625000X0.400000X-0.625000X-0.400000X0.625000X-0.400000X0.625000X0.400000X0*%
%TD*%
%TA.AperFunction,SMDPad,CuDef*%
%ADD11RoundRect,0.250000X0.625000X-0.400000X0.625000X0.400000X-0.625000X0.400000X-0.625000X-0.400000X0*%
%TD*%
%TA.AperFunction,ComponentPad*%
%ADD12R,1.600000X1.600000*%
%TD*%
%TA.AperFunction,ComponentPad*%
%ADD13O,1.600000X1.600000*%
%TD*%
%TA.AperFunction,ComponentPad*%
%ADD14R,1.700000X1.700000*%
%TD*%
%TA.AperFunction,ComponentPad*%
%ADD15O,1.700000X1.700000*%
%TD*%
%TA.AperFunction,ComponentPad*%
%ADD16R,1.350000X1.350000*%
%TD*%
%TA.AperFunction,ComponentPad*%
%ADD17O,1.350000X1.350000*%
%TD*%
%TA.AperFunction,SMDPad,CuDef*%
%ADD18RoundRect,0.250000X1.250000X0.550000X-1.250000X0.550000X-1.250000X-0.550000X1.250000X-0.550000X0*%
%TD*%
%TA.AperFunction,SMDPad,CuDef*%
%ADD19RoundRect,0.250000X-0.550000X1.250000X-0.550000X-1.250000X0.550000X-1.250000X0.550000X1.250000X0*%
%TD*%
%TA.AperFunction,ComponentPad*%
%ADD20R,1.905000X2.000000*%
%TD*%
%TA.AperFunction,ComponentPad*%
%ADD21O,1.905000X2.000000*%
%TD*%
%TA.AperFunction,ViaPad*%
%ADD22C,0.800000*%
%TD*%
%TA.AperFunction,Conductor*%
%ADD23C,0.250000*%
%TD*%
%TA.AperFunction,Conductor*%
%ADD24C,1.270000*%
%TD*%
G04 APERTURE END LIST*
D10*
%TO.P,R12,1*%
%TO.N,Net-(J7-5V)*%
X152400000Y-71830000D03*
%TO.P,R12,2*%
%TO.N,Net-(J1-BIT_B)*%
X152400000Y-74930000D03*
%TD*%
D11*
%TO.P,R22,1*%
%TO.N,Net-(J7-5V)*%
X132080000Y-112320000D03*
%TO.P,R22,2*%
%TO.N,Net-(J2-11_SWITCH)*%
X132080000Y-109220000D03*
%TD*%
D12*
%TO.P,U1,1,~{PL}*%
%TO.N,Net-(J3-GPIO13(PWM1))*%
X124450000Y-85080000D03*
D13*
%TO.P,U1,2,CP*%
%TO.N,Net-(J3-GPIO18(PCM_CLK))*%
X126990000Y-85080000D03*
%TO.P,U1,3,D4*%
%TO.N,Net-(J1-BIT_4)*%
X129530000Y-85080000D03*
%TO.P,U1,4,D5*%
%TO.N,Net-(J1-BIT_5)*%
X132070000Y-85080000D03*
%TO.P,U1,5,D6*%
%TO.N,Net-(J1-BIT_6)*%
X134610000Y-85080000D03*
%TO.P,U1,6,D7*%
%TO.N,Net-(J1-BIT_7)*%
X137150000Y-85080000D03*
%TO.P,U1,7,~{Q7}*%
%TO.N,unconnected-(U1-~{Q7}-Pad7)*%
X139690000Y-85080000D03*
%TO.P,U1,8,GND*%
%TO.N,GND*%
X142230000Y-85080000D03*
%TO.P,U1,9,Q7*%
%TO.N,Net-(U1-Q7)*%
X142230000Y-77460000D03*
%TO.P,U1,10,DS*%
%TO.N,GND*%
X139690000Y-77460000D03*
%TO.P,U1,11,D0*%
%TO.N,Net-(J1-BIT_0)*%
X137150000Y-77460000D03*
%TO.P,U1,12,D1*%
%TO.N,Net-(J1-BIT_1)*%
X134610000Y-77460000D03*
%TO.P,U1,13,D2*%
%TO.N,Net-(J1-BIT_2)*%
X132070000Y-77460000D03*
%TO.P,U1,14,D3*%
%TO.N,Net-(J1-BIT_3)*%
X129530000Y-77460000D03*
%TO.P,U1,15,~{CE}*%
%TO.N,GND*%
X126990000Y-77460000D03*
%TO.P,U1,16,VCC*%
%TO.N,Net-(J7-5V)*%
X124450000Y-77460000D03*
%TD*%
D14*
%TO.P,J2,1,02_LED*%
%TO.N,Net-(J2-02_LED)*%
X185420000Y-119380000D03*
D15*
%TO.P,J2,2,13_LED*%
%TO.N,Net-(J2-13_LED)*%
X182880000Y-119380000D03*
%TO.P,J2,3,02_SWITCH*%
%TO.N,Net-(J2-02_SWITCH)*%
X180340000Y-119380000D03*
%TO.P,J2,4,13_SWITCH*%
%TO.N,Net-(J2-13_SWITCH)*%
X177800000Y-119380000D03*
%TO.P,J2,5,03_LED*%
%TO.N,Net-(J2-03_LED)*%
X175260000Y-119380000D03*
%TO.P,J2,6,12_LED*%
%TO.N,Net-(J2-12_LED)*%
X172720000Y-119380000D03*
%TO.P,J2,7,03_SWITCH*%
%TO.N,Net-(J2-03_SWITCH)*%
X170180000Y-119380000D03*
%TO.P,J2,8,12_SWITCH*%
%TO.N,Net-(J2-12_SWITCH)*%
X167640000Y-119380000D03*
%TO.P,J2,9,TIME_ACTIVE_SWITCH*%
%TO.N,Net-(J2-TIME_ACTIVE_SWITCH)*%
X165100000Y-119380000D03*
%TO.P,J2,10,11_LED*%
%TO.N,Net-(J2-11_LED)*%
X162560000Y-119380000D03*
%TO.P,J2,11,POWER_A*%
%TO.N,Net-(J2-POWER_A)*%
X160020000Y-119380000D03*
%TO.P,J2,12,11_SWITCH*%
%TO.N,Net-(J2-11_SWITCH)*%
X157480000Y-119380000D03*
%TO.P,J2,13,POWER_B*%
%TO.N,Net-(J2-POWER_B)*%
X154940000Y-119380000D03*
%TO.P,J2,14,01_LED*%
%TO.N,Net-(J2-01_LED)*%
X152400000Y-119380000D03*
%TO.P,J2,15,EMERGENCY_STOP_SWITCH*%
%TO.N,Net-(J2-EMERGENCY_STOP_SWITCH)*%
X149860000Y-119380000D03*
%TO.P,J2,16,01_SWITCH*%
%TO.N,Net-(J2-01_SWITCH)*%
X147320000Y-119380000D03*
%TO.P,J2,17,EMERGENCY_STOP_LED*%
%TO.N,Net-(J2-EMERGENCY_STOP_LED)*%
X144780000Y-119380000D03*
%TO.P,J2,18,10_LED*%
%TO.N,Net-(J2-10_LED)*%
X142240000Y-119380000D03*
%TO.P,J2,19,5V*%
%TO.N,Net-(J2-5V)*%
X139700000Y-119380000D03*
%TO.P,J2,20,10_SWITCH*%
%TO.N,Net-(J2-10_SWITCH)*%
X137160000Y-119380000D03*
%TO.P,J2,21,TIME_SET_DT*%
%TO.N,Net-(J2-TIME_SET_DT)*%
X134620000Y-119380000D03*
%TO.P,J2,22,00_LED*%
%TO.N,Net-(J2-00_LED)*%
X132080000Y-119380000D03*
%TO.P,J2,23,TIME_SET_CLK*%
%TO.N,Net-(J2-TIME_SET_CLK)*%
X129540000Y-119380000D03*
%TO.P,J2,24,00_SWITCH*%
%TO.N,Net-(J2-00_SWITCH)*%
X127000000Y-119380000D03*
%TD*%
D12*
%TO.P,U2,1,~{PL}*%
%TO.N,Net-(J3-GPIO13(PWM1))*%
X147320000Y-85090000D03*
D13*
%TO.P,U2,2,CP*%
%TO.N,Net-(J3-GPIO18(PCM_CLK))*%
X149860000Y-85090000D03*
%TO.P,U2,3,D4*%
%TO.N,Net-(J1-BIT_C)*%
X152400000Y-85090000D03*
%TO.P,U2,4,D5*%
%TO.N,Net-(J1-BIT_D)*%
X154940000Y-85090000D03*
%TO.P,U2,5,D6*%
%TO.N,Net-(J1-BIT_E)*%
X157480000Y-85090000D03*
%TO.P,U2,6,D7*%
%TO.N,Net-(J1-BIT_F)*%
X160020000Y-85090000D03*
%TO.P,U2,7,~{Q7}*%
%TO.N,unconnected-(U2-~{Q7}-Pad7)*%
X162560000Y-85090000D03*
%TO.P,U2,8,GND*%
%TO.N,GND*%
X165100000Y-85090000D03*
%TO.P,U2,9,Q7*%
%TO.N,Net-(U2-Q7)*%
X165100000Y-77470000D03*
%TO.P,U2,10,DS*%
%TO.N,Net-(U1-Q7)*%
X162560000Y-77470000D03*
%TO.P,U2,11,D0*%
%TO.N,Net-(J1-BIT_8)*%
X160020000Y-77470000D03*
%TO.P,U2,12,D1*%
%TO.N,Net-(J1-BIT_9)*%
X157480000Y-77470000D03*
%TO.P,U2,13,D2*%
%TO.N,Net-(J1-BIT_A)*%
X154940000Y-77470000D03*
%TO.P,U2,14,D3*%
%TO.N,Net-(J1-BIT_B)*%
X152400000Y-77470000D03*
%TO.P,U2,15,~{CE}*%
%TO.N,GND*%
X149860000Y-77470000D03*
%TO.P,U2,16,VCC*%
%TO.N,Net-(J7-5V)*%
X147320000Y-77470000D03*
%TD*%
D10*
%TO.P,R4,1*%
%TO.N,Net-(J7-5V)*%
X129540000Y-71830000D03*
%TO.P,R4,2*%
%TO.N,Net-(J1-BIT_3)*%
X129540000Y-74930000D03*
%TD*%
D11*
%TO.P,R29,1*%
%TO.N,Net-(J7-5V)*%
X152400000Y-112320000D03*
%TO.P,R29,2*%
%TO.N,Net-(J2-TIME_ACTIVE_SWITCH)*%
X152400000Y-109220000D03*
%TD*%
D12*
%TO.P,U3,1,~{PL}*%
%TO.N,Net-(J3-GPIO13(PWM1))*%
X124460000Y-106680000D03*
D13*
%TO.P,U3,2,CP*%
%TO.N,Net-(J3-GPIO18(PCM_CLK))*%
X127000000Y-106680000D03*
%TO.P,U3,3,D4*%
%TO.N,Net-(J2-10_SWITCH)*%
X129540000Y-106680000D03*
%TO.P,U3,4,D5*%
%TO.N,Net-(J2-11_SWITCH)*%
X132080000Y-106680000D03*
%TO.P,U3,5,D6*%
%TO.N,Net-(J2-12_SWITCH)*%
X134620000Y-106680000D03*
%TO.P,U3,6,D7*%
%TO.N,Net-(J2-13_SWITCH)*%
X137160000Y-106680000D03*
%TO.P,U3,7,~{Q7}*%
%TO.N,unconnected-(U3-~{Q7}-Pad7)*%
X139700000Y-106680000D03*
%TO.P,U3,8,GND*%
%TO.N,GND*%
X142240000Y-106680000D03*
%TO.P,U3,9,Q7*%
%TO.N,Net-(U3-Q7)*%
X142240000Y-99060000D03*
%TO.P,U3,10,DS*%
%TO.N,Net-(U2-Q7)*%
X139700000Y-99060000D03*
%TO.P,U3,11,D0*%
%TO.N,Net-(J2-00_SWITCH)*%
X137160000Y-99060000D03*
%TO.P,U3,12,D1*%
%TO.N,Net-(J2-01_SWITCH)*%
X134620000Y-99060000D03*
%TO.P,U3,13,D2*%
%TO.N,Net-(J2-02_SWITCH)*%
X132080000Y-99060000D03*
%TO.P,U3,14,D3*%
%TO.N,Net-(J2-03_SWITCH)*%
X129540000Y-99060000D03*
%TO.P,U3,15,~{CE}*%
%TO.N,GND*%
X127000000Y-99060000D03*
%TO.P,U3,16,VCC*%
%TO.N,Net-(J7-5V)*%
X124460000Y-99060000D03*
%TD*%
D10*
%TO.P,R20,1*%
%TO.N,Net-(J7-5V)*%
X129540000Y-93420000D03*
%TO.P,R20,2*%
%TO.N,Net-(J2-03_SWITCH)*%
X129540000Y-96520000D03*
%TD*%
D11*
%TO.P,R30,1*%
%TO.N,Net-(J7-5V)*%
X154940000Y-112320000D03*
%TO.P,R30,2*%
%TO.N,Net-(J2-EMERGENCY_STOP_SWITCH)*%
X154940000Y-109220000D03*
%TD*%
D16*
%TO.P,J5,1,12V*%
%TO.N,Net-(J2-POWER_B)*%
X185420000Y-62230000D03*
D17*
%TO.P,J5,2,GND*%
%TO.N,GND*%
X185420000Y-64230000D03*
%TO.P,J5,3,I2C_SDA*%
%TO.N,Net-(J3-GPIO2(I2C1_SDA))*%
X185420000Y-66230000D03*
%TO.P,J5,4,I2C_SCLK*%
%TO.N,Net-(J3-GPIO3(I2C1_SCL))*%
X185420000Y-68230000D03*
%TO.P,J5,5,VB*%
%TO.N,Net-(J5-VB)*%
X185420000Y-70230000D03*
%TO.P,J5,6,VA*%
%TO.N,Net-(J5-VA)*%
X185420000Y-72230000D03*
%TD*%
D11*
%TO.P,R13,1*%
%TO.N,Net-(J7-5V)*%
X152400000Y-90730000D03*
%TO.P,R13,2*%
%TO.N,Net-(J1-BIT_C)*%
X152400000Y-87630000D03*
%TD*%
D10*
%TO.P,R3,1*%
%TO.N,Net-(J7-5V)*%
X132080000Y-71830000D03*
%TO.P,R3,2*%
%TO.N,Net-(J1-BIT_2)*%
X132080000Y-74930000D03*
%TD*%
%TO.P,R1,1*%
%TO.N,Net-(J7-5V)*%
X137160000Y-71830000D03*
%TO.P,R1,2*%
%TO.N,Net-(J1-BIT_0)*%
X137160000Y-74930000D03*
%TD*%
%TO.P,R27,1*%
%TO.N,Net-(J7-5V)*%
X154940000Y-93420000D03*
%TO.P,R27,2*%
%TO.N,Net-(J1-MODULE_OVERRIDE_SWITCH)*%
X154940000Y-96520000D03*
%TD*%
D11*
%TO.P,R16,1*%
%TO.N,Net-(J7-5V)*%
X160020000Y-90730000D03*
%TO.P,R16,2*%
%TO.N,Net-(J1-BIT_F)*%
X160020000Y-87630000D03*
%TD*%
D18*
%TO.P,C1,1*%
%TO.N,Net-(J7-5V)*%
X125730000Y-72390000D03*
%TO.P,C1,2*%
%TO.N,GND*%
X121330000Y-72390000D03*
%TD*%
%TO.P,C4,1*%
%TO.N,Net-(J7-5V)*%
X148590000Y-93980000D03*
%TO.P,C4,2*%
%TO.N,GND*%
X144190000Y-93980000D03*
%TD*%
D12*
%TO.P,U6,1,QB*%
%TO.N,Net-(J2-EMERGENCY_STOP_LED)*%
X102870000Y-87630000D03*
D13*
%TO.P,U6,2,QC*%
%TO.N,unconnected-(U6-QC-Pad2)*%
X102870000Y-90170000D03*
%TO.P,U6,3,QD*%
%TO.N,unconnected-(U6-QD-Pad3)*%
X102870000Y-92710000D03*
%TO.P,U6,4,QE*%
%TO.N,unconnected-(U6-QE-Pad4)*%
X102870000Y-95250000D03*
%TO.P,U6,5,QF*%
%TO.N,unconnected-(U6-QF-Pad5)*%
X102870000Y-97790000D03*
%TO.P,U6,6,QG*%
%TO.N,unconnected-(U6-QG-Pad6)*%
X102870000Y-100330000D03*
%TO.P,U6,7,QH*%
%TO.N,unconnected-(U6-QH-Pad7)*%
X102870000Y-102870000D03*
%TO.P,U6,8,GND*%
%TO.N,GND*%
X102870000Y-105410000D03*
%TO.P,U6,9,QH'*%
%TO.N,unconnected-(U6-QH'-Pad9)*%
X110490000Y-105410000D03*
%TO.P,U6,10,~{SRCLR}*%
%TO.N,Net-(J7-5V)*%
X110490000Y-102870000D03*
%TO.P,U6,11,SRCLK*%
%TO.N,Net-(J3-GPIO17)*%
X110490000Y-100330000D03*
%TO.P,U6,12,RCLK*%
%TO.N,Net-(J3-GPIO27)*%
X110490000Y-97790000D03*
%TO.P,U6,13,~{OE}*%
%TO.N,GND*%
X110490000Y-95250000D03*
%TO.P,U6,14,SER*%
%TO.N,Net-(U5-QH')*%
X110490000Y-92710000D03*
%TO.P,U6,15,QA*%
%TO.N,Net-(J1-PUSH_LED)*%
X110490000Y-90170000D03*
%TO.P,U6,16,VCC*%
%TO.N,Net-(J7-5V)*%
X110490000Y-87630000D03*
%TD*%
D18*
%TO.P,C3,1*%
%TO.N,Net-(J7-5V)*%
X125730000Y-93980000D03*
%TO.P,C3,2*%
%TO.N,GND*%
X121330000Y-93980000D03*
%TD*%
D10*
%TO.P,R2,1*%
%TO.N,Net-(J7-5V)*%
X134620000Y-71830000D03*
%TO.P,R2,2*%
%TO.N,Net-(J1-BIT_1)*%
X134620000Y-74930000D03*
%TD*%
D14*
%TO.P,J4,1,GND*%
%TO.N,GND*%
X185420000Y-105410000D03*
D15*
%TO.P,J4,2,12V*%
%TO.N,Net-(J2-POWER_A)*%
X185420000Y-107950000D03*
%TD*%
D14*
%TO.P,J1,1,RAIL_OVERRIDE_SWITCH*%
%TO.N,Net-(J1-RAIL_OVERRIDE_SWITCH)*%
X185420000Y-124460000D03*
D15*
%TO.P,J1,2,GND*%
%TO.N,GND*%
X182880000Y-124460000D03*
%TO.P,J1,3,PUSH_LED*%
%TO.N,Net-(J1-PUSH_LED)*%
X180340000Y-124460000D03*
%TO.P,J1,4,BIT_0*%
%TO.N,Net-(J1-BIT_0)*%
X177800000Y-124460000D03*
%TO.P,J1,5,PUSH_SWITCH*%
%TO.N,Net-(J1-PUSH_SWITCH)*%
X175260000Y-124460000D03*
%TO.P,J1,6,BIT_1*%
%TO.N,Net-(J1-BIT_1)*%
X172720000Y-124460000D03*
%TO.P,J1,7,MODULE_OVERRIDE_SWITCH*%
%TO.N,Net-(J1-MODULE_OVERRIDE_SWITCH)*%
X170180000Y-124460000D03*
%TO.P,J1,8,BIT_2*%
%TO.N,Net-(J1-BIT_2)*%
X167640000Y-124460000D03*
%TO.P,J1,9,VELOCITY_DT*%
%TO.N,Net-(J1-VELOCITY_DT)*%
X165100000Y-124460000D03*
%TO.P,J1,10,BIT_3*%
%TO.N,Net-(J1-BIT_3)*%
X162560000Y-124460000D03*
%TO.P,J1,11,VELOCITY_CLK*%
%TO.N,Net-(J1-VELOCITY_CLK)*%
X160020000Y-124460000D03*
%TO.P,J1,12,BIT_4*%
%TO.N,Net-(J1-BIT_4)*%
X157480000Y-124460000D03*
%TO.P,J1,13,FWD/BWD_SWITCH*%
%TO.N,Net-(J1-FWD{slash}BWD_SWITCH)*%
X154940000Y-124460000D03*
%TO.P,J1,14,BIT_5*%
%TO.N,Net-(J1-BIT_5)*%
X152400000Y-124460000D03*
%TO.P,J1,15,BIT_F*%
%TO.N,Net-(J1-BIT_F)*%
X149860000Y-124460000D03*
%TO.P,J1,16,BIT_6*%
%TO.N,Net-(J1-BIT_6)*%
X147320000Y-124460000D03*
%TO.P,J1,17,BIT_E*%
%TO.N,Net-(J1-BIT_E)*%
X144780000Y-124460000D03*
%TO.P,J1,18,BIT_7*%
%TO.N,Net-(J1-BIT_7)*%
X142240000Y-124460000D03*
%TO.P,J1,19,BIT_D*%
%TO.N,Net-(J1-BIT_D)*%
X139700000Y-124460000D03*
%TO.P,J1,20,BIT_8*%
%TO.N,Net-(J1-BIT_8)*%
X137160000Y-124460000D03*
%TO.P,J1,21,BIT_C*%
%TO.N,Net-(J1-BIT_C)*%
X134620000Y-124460000D03*
%TO.P,J1,22,BIT_9*%
%TO.N,Net-(J1-BIT_9)*%
X132080000Y-124460000D03*
%TO.P,J1,23,BIT_A*%
%TO.N,Net-(J1-BIT_A)*%
X129540000Y-124460000D03*
%TO.P,J1,24,BIT_B*%
%TO.N,Net-(J1-BIT_B)*%
X127000000Y-124460000D03*
%TD*%
D19*
%TO.P,C6,1*%
%TO.N,Net-(J7-5V)*%
X115570000Y-87630000D03*
%TO.P,C6,2*%
%TO.N,GND*%
X115570000Y-92030000D03*
%TD*%
D11*
%TO.P,R23,1*%
%TO.N,Net-(J7-5V)*%
X134620000Y-112320000D03*
%TO.P,R23,2*%
%TO.N,Net-(J2-12_SWITCH)*%
X134620000Y-109220000D03*
%TD*%
D14*
%TO.P,J8,1,ENA*%
%TO.N,Net-(J3-GPIO12(PWM0))*%
X111760000Y-125730000D03*
D15*
%TO.P,J8,2,IN1*%
%TO.N,Net-(J3-GPIO23)*%
X114300000Y-125730000D03*
%TO.P,J8,3,IN2*%
%TO.N,Net-(J3-GPIO24)*%
X116840000Y-125730000D03*
%TD*%
D10*
%TO.P,R9,1*%
%TO.N,Net-(J7-5V)*%
X160020000Y-71830000D03*
%TO.P,R9,2*%
%TO.N,Net-(J1-BIT_8)*%
X160020000Y-74930000D03*
%TD*%
%TO.P,R11,1*%
%TO.N,Net-(J7-5V)*%
X154940000Y-71830000D03*
%TO.P,R11,2*%
%TO.N,Net-(J1-BIT_A)*%
X154940000Y-74930000D03*
%TD*%
D20*
%TO.P,U7,1,IN*%
%TO.N,Net-(J2-POWER_B)*%
X172720000Y-94320000D03*
D21*
%TO.P,U7,2,GND*%
%TO.N,GND*%
X175260000Y-94320000D03*
%TO.P,U7,3,OUT*%
%TO.N,Net-(J7-5V)*%
X177800000Y-94320000D03*
%TD*%
D10*
%TO.P,R26,1*%
%TO.N,Net-(J7-5V)*%
X157480000Y-93420000D03*
%TO.P,R26,2*%
%TO.N,Net-(J1-PUSH_SWITCH)*%
X157480000Y-96520000D03*
%TD*%
%TO.P,R10,1*%
%TO.N,Net-(J7-5V)*%
X157480000Y-71830000D03*
%TO.P,R10,2*%
%TO.N,Net-(J1-BIT_9)*%
X157480000Y-74930000D03*
%TD*%
D11*
%TO.P,R8,1*%
%TO.N,Net-(J7-5V)*%
X137160000Y-90730000D03*
%TO.P,R8,2*%
%TO.N,Net-(J1-BIT_7)*%
X137160000Y-87630000D03*
%TD*%
D10*
%TO.P,R25,1*%
%TO.N,Net-(J7-5V)*%
X160020000Y-93420000D03*
%TO.P,R25,2*%
%TO.N,Net-(J1-RAIL_OVERRIDE_SWITCH)*%
X160020000Y-96520000D03*
%TD*%
%TO.P,R17,1*%
%TO.N,Net-(J7-5V)*%
X137160000Y-93420000D03*
%TO.P,R17,2*%
%TO.N,Net-(J2-00_SWITCH)*%
X137160000Y-96520000D03*
%TD*%
D14*
%TO.P,J6,1,VA*%
%TO.N,Net-(J5-VA)*%
X101600000Y-125730000D03*
D15*
%TO.P,J6,2,VB*%
%TO.N,Net-(J5-VB)*%
X104140000Y-125730000D03*
%TD*%
D11*
%TO.P,R15,1*%
%TO.N,Net-(J7-5V)*%
X157480000Y-90730000D03*
%TO.P,R15,2*%
%TO.N,Net-(J1-BIT_E)*%
X157480000Y-87630000D03*
%TD*%
%TO.P,R21,1*%
%TO.N,Net-(J7-5V)*%
X129540000Y-112320000D03*
%TO.P,R21,2*%
%TO.N,Net-(J2-10_SWITCH)*%
X129540000Y-109220000D03*
%TD*%
D19*
%TO.P,C5,1*%
%TO.N,Net-(J7-5V)*%
X115570000Y-63500000D03*
%TO.P,C5,2*%
%TO.N,GND*%
X115570000Y-67900000D03*
%TD*%
D16*
%TO.P,J7,1,CSB*%
%TO.N,Net-(J3-GPIO7(SPI0_CE1))*%
X185420000Y-80010000D03*
D17*
%TO.P,J7,2,SDA*%
%TO.N,Net-(J3-GPIO10(SPI0_MOSI))*%
X185420000Y-82010000D03*
%TO.P,J7,3,SCLK*%
%TO.N,Net-(J3-GPIO11(SPI0_SCLK))*%
X185420000Y-84010000D03*
%TO.P,J7,4,CSA*%
%TO.N,Net-(J3-GPIO8(SPI0_CE0))*%
X185420000Y-86010000D03*
%TO.P,J7,5,5V*%
%TO.N,Net-(J7-5V)*%
X185420000Y-88010000D03*
%TO.P,J7,6,GND*%
%TO.N,GND*%
X185420000Y-90010000D03*
%TO.P,J7,7,SER*%
%TO.N,Net-(J3-GPIO16)*%
X185420000Y-92010000D03*
%TO.P,J7,8,RCLK*%
%TO.N,Net-(J3-GPIO20(PCM_DIN))*%
X185420000Y-94010000D03*
%TO.P,J7,9,SRCLK*%
%TO.N,Net-(J3-GPIO21(PCM_DOUT))*%
X185420000Y-96010000D03*
%TD*%
D11*
%TO.P,R6,1*%
%TO.N,Net-(J7-5V)*%
X132080000Y-90730000D03*
%TO.P,R6,2*%
%TO.N,Net-(J1-BIT_5)*%
X132080000Y-87630000D03*
%TD*%
%TO.P,R7,1*%
%TO.N,Net-(J7-5V)*%
X134620000Y-90730000D03*
%TO.P,R7,2*%
%TO.N,Net-(J1-BIT_6)*%
X134620000Y-87630000D03*
%TD*%
D12*
%TO.P,U4,1,~{PL}*%
%TO.N,Net-(J3-GPIO13(PWM1))*%
X147320000Y-106680000D03*
D13*
%TO.P,U4,2,CP*%
%TO.N,Net-(J3-GPIO18(PCM_CLK))*%
X149860000Y-106680000D03*
%TO.P,U4,3,D4*%
%TO.N,Net-(J2-TIME_ACTIVE_SWITCH)*%
X152400000Y-106680000D03*
%TO.P,U4,4,D5*%
%TO.N,Net-(J2-EMERGENCY_STOP_SWITCH)*%
X154940000Y-106680000D03*
%TO.P,U4,5,D6*%
%TO.N,unconnected-(U4-D6-Pad5)*%
X157480000Y-106680000D03*
%TO.P,U4,6,D7*%
%TO.N,unconnected-(U4-D7-Pad6)*%
X160020000Y-106680000D03*
%TO.P,U4,7,~{Q7}*%
%TO.N,unconnected-(U4-~{Q7}-Pad7)*%
X162560000Y-106680000D03*
%TO.P,U4,8,GND*%
%TO.N,GND*%
X165100000Y-106680000D03*
%TO.P,U4,9,Q7*%
%TO.N,Net-(J3-GPIO4(GPCLK0))*%
X165100000Y-99060000D03*
%TO.P,U4,10,DS*%
%TO.N,Net-(U3-Q7)*%
X162560000Y-99060000D03*
%TO.P,U4,11,D0*%
%TO.N,Net-(J1-RAIL_OVERRIDE_SWITCH)*%
X160020000Y-99060000D03*
%TO.P,U4,12,D1*%
%TO.N,Net-(J1-PUSH_SWITCH)*%
X157480000Y-99060000D03*
%TO.P,U4,13,D2*%
%TO.N,Net-(J1-MODULE_OVERRIDE_SWITCH)*%
X154940000Y-99060000D03*
%TO.P,U4,14,D3*%
%TO.N,Net-(J1-FWD{slash}BWD_SWITCH)*%
X152400000Y-99060000D03*
%TO.P,U4,15,~{CE}*%
%TO.N,GND*%
X149860000Y-99060000D03*
%TO.P,U4,16,VCC*%
%TO.N,Net-(J7-5V)*%
X147320000Y-99060000D03*
%TD*%
D10*
%TO.P,R19,1*%
%TO.N,Net-(J7-5V)*%
X132080000Y-93420000D03*
%TO.P,R19,2*%
%TO.N,Net-(J2-02_SWITCH)*%
X132080000Y-96520000D03*
%TD*%
%TO.P,R28,1*%
%TO.N,Net-(J7-5V)*%
X152400000Y-93420000D03*
%TO.P,R28,2*%
%TO.N,Net-(J1-FWD{slash}BWD_SWITCH)*%
X152400000Y-96520000D03*
%TD*%
D18*
%TO.P,C2,1*%
%TO.N,Net-(J7-5V)*%
X148590000Y-72390000D03*
%TO.P,C2,2*%
%TO.N,GND*%
X144190000Y-72390000D03*
%TD*%
D11*
%TO.P,R24,1*%
%TO.N,Net-(J7-5V)*%
X137160000Y-112320000D03*
%TO.P,R24,2*%
%TO.N,Net-(J2-13_SWITCH)*%
X137160000Y-109220000D03*
%TD*%
%TO.P,R5,1*%
%TO.N,Net-(J7-5V)*%
X129540000Y-90730000D03*
%TO.P,R5,2*%
%TO.N,Net-(J1-BIT_4)*%
X129540000Y-87630000D03*
%TD*%
D12*
%TO.P,U5,1,QB*%
%TO.N,Net-(J2-01_LED)*%
X102870000Y-63500000D03*
D13*
%TO.P,U5,2,QC*%
%TO.N,Net-(J2-02_LED)*%
X102870000Y-66040000D03*
%TO.P,U5,3,QD*%
%TO.N,Net-(J2-03_LED)*%
X102870000Y-68580000D03*
%TO.P,U5,4,QE*%
%TO.N,Net-(J2-10_LED)*%
X102870000Y-71120000D03*
%TO.P,U5,5,QF*%
%TO.N,Net-(J2-11_LED)*%
X102870000Y-73660000D03*
%TO.P,U5,6,QG*%
%TO.N,Net-(J2-12_LED)*%
X102870000Y-76200000D03*
%TO.P,U5,7,QH*%
%TO.N,Net-(J2-13_LED)*%
X102870000Y-78740000D03*
%TO.P,U5,8,GND*%
%TO.N,GND*%
X102870000Y-81280000D03*
%TO.P,U5,9,QH'*%
%TO.N,Net-(U5-QH')*%
X110490000Y-81280000D03*
%TO.P,U5,10,~{SRCLR}*%
%TO.N,Net-(J7-5V)*%
X110490000Y-78740000D03*
%TO.P,U5,11,SRCLK*%
%TO.N,Net-(J3-GPIO17)*%
X110490000Y-76200000D03*
%TO.P,U5,12,RCLK*%
%TO.N,Net-(J3-GPIO27)*%
X110490000Y-73660000D03*
%TO.P,U5,13,~{OE}*%
%TO.N,GND*%
X110490000Y-71120000D03*
%TO.P,U5,14,SER*%
%TO.N,Net-(J3-GPIO22)*%
X110490000Y-68580000D03*
%TO.P,U5,15,QA*%
%TO.N,Net-(J2-00_LED)*%
X110490000Y-66040000D03*
%TO.P,U5,16,VCC*%
%TO.N,Net-(J7-5V)*%
X110490000Y-63500000D03*
%TD*%
D10*
%TO.P,R18,1*%
%TO.N,Net-(J7-5V)*%
X134620000Y-93420000D03*
%TO.P,R18,2*%
%TO.N,Net-(J2-01_SWITCH)*%
X134620000Y-96520000D03*
%TD*%
D11*
%TO.P,R14,1*%
%TO.N,Net-(J7-5V)*%
X154940000Y-90730000D03*
%TO.P,R14,2*%
%TO.N,Net-(J1-BIT_D)*%
X154940000Y-87630000D03*
%TD*%
D14*
%TO.P,J3,1,3v3*%
%TO.N,unconnected-(J3-3v3-Pad1)*%
X132080000Y-64770000D03*
D15*
%TO.P,J3,2,5v*%
%TO.N,Net-(J2-5V)*%
X132080000Y-62230000D03*
%TO.P,J3,3,GPIO2(I2C1_SDA)*%
%TO.N,Net-(J3-GPIO2(I2C1_SDA))*%
X134620000Y-64770000D03*
%TO.P,J3,4,5v*%
%TO.N,unconnected-(J3-5v-Pad4)*%
X134620000Y-62230000D03*
%TO.P,J3,5,GPIO3(I2C1_SCL)*%
%TO.N,Net-(J3-GPIO3(I2C1_SCL))*%
X137160000Y-64770000D03*
%TO.P,J3,6,GND*%
%TO.N,GND*%
X137160000Y-62230000D03*
%TO.P,J3,7,GPIO4(GPCLK0)*%
%TO.N,Net-(J3-GPIO4(GPCLK0))*%
X139700000Y-64770000D03*
%TO.P,J3,8,GPIO14(UART_TX)*%
%TO.N,unconnected-(J3-GPIO14(UART_TX)-Pad8)*%
X139700000Y-62230000D03*
%TO.P,J3,9,GND*%
%TO.N,unconnected-(J3-GND-Pad9)*%
X142240000Y-64770000D03*
%TO.P,J3,10,GPIO15(UART_RX)*%
%TO.N,unconnected-(J3-GPIO15(UART_RX)-Pad10)*%
X142240000Y-62230000D03*
%TO.P,J3,11,GPIO17*%
%TO.N,Net-(J3-GPIO17)*%
X144780000Y-64770000D03*
%TO.P,J3,12,GPIO18(PCM_CLK)*%
%TO.N,Net-(J3-GPIO18(PCM_CLK))*%
X144780000Y-62230000D03*
%TO.P,J3,13,GPIO27*%
%TO.N,Net-(J3-GPIO27)*%
X147320000Y-64770000D03*
%TO.P,J3,14,GND*%
%TO.N,unconnected-(J3-GND-Pad14)*%
X147320000Y-62230000D03*
%TO.P,J3,15,GPIO22*%
%TO.N,Net-(J3-GPIO22)*%
X149860000Y-64770000D03*
%TO.P,J3,16,GPIO23*%
%TO.N,Net-(J3-GPIO23)*%
X149860000Y-62230000D03*
%TO.P,J3,17,3v3*%
%TO.N,unconnected-(J3-3v3-Pad17)*%
X152400000Y-64770000D03*
%TO.P,J3,18,GPIO24*%
%TO.N,Net-(J3-GPIO24)*%
X152400000Y-62230000D03*
%TO.P,J3,19,GPIO10(SPI0_MOSI)*%
%TO.N,Net-(J3-GPIO10(SPI0_MOSI))*%
X154940000Y-64770000D03*
%TO.P,J3,20,GND*%
%TO.N,unconnected-(J3-GND-Pad20)*%
X154940000Y-62230000D03*
%TO.P,J3,21,GPIO9(SPI0_MISO)*%
%TO.N,unconnected-(J3-GPIO9(SPI0_MISO)-Pad21)*%
X157480000Y-64770000D03*
%TO.P,J3,22,GPIO25*%
%TO.N,unconnected-(J3-GPIO25-Pad22)*%
X157480000Y-62230000D03*
%TO.P,J3,23,GPIO11(SPI0_SCLK)*%
%TO.N,Net-(J3-GPIO11(SPI0_SCLK))*%
X160020000Y-64770000D03*
%TO.P,J3,24,GPIO8(SPI0_CE0)*%
%TO.N,Net-(J3-GPIO8(SPI0_CE0))*%
X160020000Y-62230000D03*
%TO.P,J3,25,GND*%
%TO.N,unconnected-(J3-GND-Pad25)*%
X162560000Y-64770000D03*
%TO.P,J3,26,GPIO7(SPI0_CE1)*%
%TO.N,Net-(J3-GPIO7(SPI0_CE1))*%
X162560000Y-62230000D03*
%TO.P,J3,27,GPIO0(EEPROM_SDA)*%
%TO.N,unconnected-(J3-GPIO0(EEPROM_SDA)-Pad27)*%
X165100000Y-64770000D03*
%TO.P,J3,28,GPIO1(EEPROM_SCL)*%
%TO.N,unconnected-(J3-GPIO1(EEPROM_SCL)-Pad28)*%
X165100000Y-62230000D03*
%TO.P,J3,29,GPIO5*%
%TO.N,Net-(J1-VELOCITY_CLK)*%
X167640000Y-64770000D03*
%TO.P,J3,30,GND*%
%TO.N,unconnected-(J3-GND-Pad30)*%
X167640000Y-62230000D03*
%TO.P,J3,31,GPIO6*%
%TO.N,Net-(J1-VELOCITY_DT)*%
X170180000Y-64770000D03*
%TO.P,J3,32,GPIO12(PWM0)*%
%TO.N,Net-(J3-GPIO12(PWM0))*%
X170180000Y-62230000D03*
%TO.P,J3,33,GPIO13(PWM1)*%
%TO.N,Net-(J3-GPIO13(PWM1))*%
X172720000Y-64770000D03*
%TO.P,J3,34,GND*%
%TO.N,unconnected-(J3-GND-Pad34)*%
X172720000Y-62230000D03*
%TO.P,J3,35,GPIO19(PCM_FS)*%
%TO.N,Net-(J2-TIME_SET_CLK)*%
X175260000Y-64770000D03*
%TO.P,J3,36,GPIO16*%
%TO.N,Net-(J3-GPIO16)*%
X175260000Y-62230000D03*
%TO.P,J3,37,GPIO26*%
%TO.N,Net-(J2-TIME_SET_DT)*%
X177800000Y-64770000D03*
%TO.P,J3,38,GPIO20(PCM_DIN)*%
%TO.N,Net-(J3-GPIO20(PCM_DIN))*%
X177800000Y-62230000D03*
%TO.P,J3,39,GND*%
%TO.N,unconnected-(J3-GND-Pad39)*%
X180340000Y-64770000D03*
%TO.P,J3,40,GPIO21(PCM_DOUT)*%
%TO.N,Net-(J3-GPIO21(PCM_DOUT))*%
X180340000Y-62230000D03*
%TD*%
D22*
%TO.N,Net-(J7-5V)*%
X179070000Y-86360000D03*
%TO.N,GND*%
X118110000Y-66040000D03*
X182880000Y-73660000D03*
X144780000Y-97790000D03*
X121920000Y-62230000D03*
X121920000Y-76200000D03*
X144780000Y-76200000D03*
X166370000Y-92710000D03*
X176530000Y-87630000D03*
X121920000Y-97790000D03*
%TO.N,Net-(J1-PUSH_LED)*%
X118850000Y-93255500D03*
%TO.N,Net-(J1-BIT_0)*%
X111760000Y-111760000D03*
%TO.N,Net-(J1-BIT_1)*%
X110490000Y-110490000D03*
%TO.N,Net-(J1-BIT_2)*%
X109220000Y-109220000D03*
%TO.N,Net-(J1-VELOCITY_DT)*%
X185420000Y-110490000D03*
X186690000Y-101600000D03*
%TO.N,Net-(J1-BIT_3)*%
X107950000Y-107950000D03*
%TO.N,Net-(J1-VELOCITY_CLK)*%
X185420000Y-101600000D03*
X185420000Y-111760000D03*
%TO.N,Net-(J1-BIT_F)*%
X184150000Y-111760000D03*
X184150000Y-101600000D03*
%TO.N,Net-(J1-BIT_E)*%
X181610000Y-101600000D03*
X181610000Y-111760000D03*
%TO.N,Net-(J1-BIT_D)*%
X180340000Y-111760000D03*
X180340000Y-101600000D03*
%TO.N,Net-(J1-BIT_8)*%
X113030000Y-102870000D03*
%TO.N,Net-(J1-BIT_C)*%
X114300000Y-102870000D03*
%TO.N,Net-(J1-BIT_9)*%
X113030000Y-80010000D03*
X115570000Y-100330000D03*
X115570000Y-85090000D03*
%TO.N,Net-(J1-BIT_A)*%
X151130000Y-81280000D03*
X116840000Y-102870000D03*
%TO.N,Net-(J1-BIT_B)*%
X115570000Y-102870000D03*
X138430000Y-81280000D03*
X143510000Y-78740000D03*
%TO.N,Net-(J2-02_LED)*%
X182880000Y-101600000D03*
X181610000Y-91440000D03*
X182880000Y-111760000D03*
%TO.N,Net-(J2-13_LED)*%
X184150000Y-114300000D03*
%TO.N,Net-(J2-02_SWITCH)*%
X135890000Y-102870000D03*
%TO.N,Net-(J2-13_SWITCH)*%
X143510000Y-110490000D03*
%TO.N,Net-(J2-03_LED)*%
X175260000Y-114300000D03*
X168910000Y-72390000D03*
%TO.N,Net-(J2-12_LED)*%
X167640000Y-72390000D03*
X172720000Y-114300000D03*
%TO.N,Net-(J2-03_SWITCH)*%
X160020000Y-110490000D03*
X134620000Y-104140000D03*
X146050000Y-104140000D03*
%TO.N,Net-(J2-12_SWITCH)*%
X144780000Y-111760000D03*
X146050000Y-114300000D03*
%TO.N,Net-(J2-11_LED)*%
X101471220Y-67310000D03*
X170180000Y-72390000D03*
X173990000Y-110490000D03*
%TO.N,Net-(J2-11_SWITCH)*%
X143510000Y-113030000D03*
X154940000Y-115570000D03*
%TO.N,Net-(J2-POWER_B)*%
X182880000Y-76200000D03*
X176530000Y-82550000D03*
%TO.N,Net-(J2-01_LED)*%
X143510000Y-114300000D03*
X119380000Y-113030000D03*
X129540000Y-115570000D03*
%TO.N,Net-(J2-EMERGENCY_STOP_SWITCH)*%
X157480000Y-111760000D03*
%TO.N,Net-(J2-01_SWITCH)*%
X137160000Y-101600000D03*
%TO.N,Net-(J2-EMERGENCY_STOP_LED)*%
X119380000Y-111760000D03*
X143510000Y-115570000D03*
X130810000Y-115570000D03*
%TO.N,Net-(J2-10_LED)*%
X105483150Y-114226851D03*
X132080000Y-115570000D03*
X119184503Y-110685497D03*
%TO.N,Net-(J2-5V)*%
X119380000Y-118110000D03*
%TO.N,Net-(J2-TIME_SET_DT)*%
X104140000Y-115570000D03*
X119380000Y-114300000D03*
X123190000Y-64770000D03*
%TO.N,Net-(J2-00_LED)*%
X102870000Y-116840000D03*
X119380000Y-116840000D03*
X101600000Y-113030000D03*
X107950000Y-78740000D03*
%TO.N,Net-(J2-TIME_SET_CLK)*%
X101600000Y-115570000D03*
X167640000Y-67310000D03*
X119380000Y-115570000D03*
%TO.N,Net-(J3-GPIO2(I2C1_SDA))*%
X152400000Y-67310000D03*
X176530000Y-67310000D03*
%TO.N,Net-(J3-GPIO3(I2C1_SCL))*%
X182880000Y-64770000D03*
%TO.N,Net-(J3-GPIO4(GPCLK0))*%
X167640000Y-73660000D03*
X158750000Y-63500000D03*
X163830000Y-69850000D03*
%TO.N,Net-(J3-GPIO17)*%
X107950000Y-90170000D03*
X109220000Y-80010000D03*
X118110000Y-68580000D03*
%TO.N,Net-(J3-GPIO18(PCM_CLK))*%
X149860000Y-96520000D03*
X140970000Y-72390000D03*
X149860000Y-102870000D03*
X127000000Y-90170000D03*
X149860000Y-91440000D03*
%TO.N,Net-(J3-GPIO27)*%
X106680000Y-85090000D03*
X106680000Y-74930000D03*
X107950000Y-63500000D03*
X106680000Y-92710000D03*
X106680000Y-97790000D03*
X140970000Y-66040000D03*
%TO.N,Net-(J3-GPIO22)*%
X143510000Y-66955500D03*
%TO.N,Net-(J3-GPIO24)*%
X116840000Y-95250000D03*
X139718247Y-72408247D03*
X121920000Y-83820000D03*
%TO.N,Net-(J3-GPIO10(SPI0_MOSI))*%
X179070000Y-81280000D03*
X170180000Y-71120000D03*
%TO.N,Net-(J3-GPIO11(SPI0_SCLK))*%
X171450000Y-72390000D03*
X179070000Y-82550000D03*
%TO.N,Net-(J3-GPIO8(SPI0_CE0))*%
X181610000Y-85090000D03*
X176530000Y-71120000D03*
%TO.N,Net-(J3-GPIO12(PWM0))*%
X99060000Y-127000000D03*
X161290000Y-60960000D03*
%TO.N,Net-(J3-GPIO13(PWM1))*%
X179070000Y-73660000D03*
X125730000Y-90170000D03*
X163830000Y-90170000D03*
X167640000Y-88900000D03*
X133350000Y-105410000D03*
X167640000Y-85090000D03*
X180340000Y-76200000D03*
X130810000Y-104140000D03*
%TO.N,Net-(J3-GPIO20(PCM_DIN))*%
X186690000Y-60960000D03*
X184150000Y-60960000D03*
X185420000Y-77470000D03*
%TO.N,Net-(J3-GPIO21(PCM_DOUT))*%
X186690000Y-77470000D03*
%TO.N,Net-(U1-Q7)*%
X161290000Y-80010000D03*
X158750000Y-80010000D03*
%TO.N,Net-(U2-Q7)*%
X139700000Y-96520000D03*
X151130000Y-82550000D03*
%TO.N,Net-(U3-Q7)*%
X142240000Y-96520000D03*
%TD*%
D23*
%TO.N,Net-(J7-5V)*%
X173650000Y-90170000D02*
X166370000Y-90170000D01*
X129540000Y-90730000D02*
X127710000Y-88900000D01*
X146050000Y-99060000D02*
X147320000Y-99060000D01*
X148590000Y-72390000D02*
X147320000Y-73660000D01*
X129540000Y-93420000D02*
X137160000Y-93420000D01*
X125730000Y-72390000D02*
X124450000Y-73670000D01*
X152400000Y-90730000D02*
X160020000Y-90730000D01*
X115570000Y-87630000D02*
X110490000Y-87630000D01*
X129540000Y-90730000D02*
X129540000Y-93420000D01*
X147320000Y-95250000D02*
X147320000Y-99060000D01*
X110490000Y-78740000D02*
X111770000Y-77460000D01*
X152400000Y-93420000D02*
X149150000Y-93420000D01*
X125730000Y-72390000D02*
X116840000Y-63500000D01*
X124450000Y-77460000D02*
X124450000Y-78750000D01*
X129540000Y-71830000D02*
X137160000Y-71830000D01*
X147320000Y-71120000D02*
X148590000Y-72390000D01*
X149150000Y-71830000D02*
X148590000Y-72390000D01*
X179070000Y-86360000D02*
X180720000Y-88010000D01*
X124460000Y-95250000D02*
X124460000Y-99060000D01*
X124460000Y-99060000D02*
X114300000Y-99060000D01*
X119380000Y-87630000D02*
X115570000Y-87630000D01*
X161850000Y-90730000D02*
X160020000Y-90730000D01*
X152400000Y-71830000D02*
X149150000Y-71830000D01*
X124450000Y-78750000D02*
X115570000Y-87630000D01*
X137160000Y-90730000D02*
X129540000Y-90730000D01*
X124450000Y-73670000D02*
X124450000Y-77460000D01*
X166370000Y-90170000D02*
X165100000Y-91440000D01*
X147880000Y-112320000D02*
X152400000Y-112320000D01*
X139140000Y-112320000D02*
X137160000Y-112320000D01*
X119380000Y-87630000D02*
X125730000Y-93980000D01*
X114300000Y-99060000D02*
X110490000Y-102870000D01*
X129540000Y-71830000D02*
X126290000Y-71830000D01*
X143510000Y-107950000D02*
X147880000Y-112320000D01*
X129540000Y-112320000D02*
X137160000Y-112320000D01*
X137160000Y-93420000D02*
X141530000Y-93420000D01*
X177800000Y-94320000D02*
X173650000Y-90170000D01*
X180720000Y-88010000D02*
X185420000Y-88010000D01*
X139140000Y-71120000D02*
X147320000Y-71120000D01*
X143510000Y-107950000D02*
X139140000Y-112320000D01*
X165100000Y-91440000D02*
X162560000Y-91440000D01*
X137160000Y-71830000D02*
X138430000Y-71830000D01*
X143510000Y-101600000D02*
X146050000Y-99060000D01*
X111770000Y-77460000D02*
X124450000Y-77460000D01*
X147320000Y-92710000D02*
X148590000Y-93980000D01*
X152400000Y-90730000D02*
X152400000Y-93420000D01*
X143510000Y-107950000D02*
X143510000Y-101600000D01*
X147320000Y-73660000D02*
X147320000Y-77470000D01*
X152400000Y-71830000D02*
X160020000Y-71830000D01*
X116840000Y-63500000D02*
X115570000Y-63500000D01*
X142240000Y-92710000D02*
X147320000Y-92710000D01*
X149150000Y-93420000D02*
X148590000Y-93980000D01*
X125730000Y-93980000D02*
X124460000Y-95250000D01*
X162560000Y-91440000D02*
X161850000Y-90730000D01*
X141530000Y-93420000D02*
X142240000Y-92710000D01*
X126290000Y-71830000D02*
X125730000Y-72390000D01*
X138430000Y-71830000D02*
X139140000Y-71120000D01*
X127710000Y-88900000D02*
X120650000Y-88900000D01*
X148590000Y-93980000D02*
X147320000Y-95250000D01*
X115570000Y-63500000D02*
X110490000Y-63500000D01*
X154940000Y-112320000D02*
X152400000Y-112320000D01*
X160020000Y-93420000D02*
X152400000Y-93420000D01*
%TO.N,GND*%
X121330000Y-93980000D02*
X121330000Y-97200000D01*
X166370000Y-105410000D02*
X165100000Y-106680000D01*
X104140000Y-82550000D02*
X102870000Y-81280000D01*
X185130000Y-89720000D02*
X185420000Y-90010000D01*
X144190000Y-97200000D02*
X144780000Y-97790000D01*
X118110000Y-66040000D02*
X118110000Y-67310000D01*
X151130000Y-100330000D02*
X163830000Y-100330000D01*
X121330000Y-72390000D02*
X121330000Y-75610000D01*
X118110000Y-67310000D02*
X119380000Y-67310000D01*
X181610000Y-73660000D02*
X182880000Y-73660000D01*
X124460000Y-59690000D02*
X134620000Y-59690000D01*
X116160000Y-67310000D02*
X118110000Y-67310000D01*
X115570000Y-92030000D02*
X117520000Y-93980000D01*
D24*
X175260000Y-94320000D02*
X175260000Y-99060000D01*
D23*
X176530000Y-66040000D02*
X183610000Y-66040000D01*
X112350000Y-71120000D02*
X110490000Y-71120000D01*
X166370000Y-92710000D02*
X166370000Y-105410000D01*
D24*
X181610000Y-105410000D02*
X185420000Y-105410000D01*
D23*
X144190000Y-75610000D02*
X144780000Y-76200000D01*
X104140000Y-95250000D02*
X104140000Y-104140000D01*
X185420000Y-64230000D02*
X183610000Y-66040000D01*
X112350000Y-95250000D02*
X110490000Y-95250000D01*
X115570000Y-92030000D02*
X112350000Y-95250000D01*
X177800000Y-69850000D02*
X181610000Y-73660000D01*
X175260000Y-68580000D02*
X176530000Y-69850000D01*
X178620000Y-89720000D02*
X185130000Y-89720000D01*
X104140000Y-104140000D02*
X102870000Y-105410000D01*
D24*
X175260000Y-99060000D02*
X181610000Y-105410000D01*
D23*
X124460000Y-59690000D02*
X121920000Y-62230000D01*
X110490000Y-71120000D02*
X109220000Y-72390000D01*
X104140000Y-95250000D02*
X110490000Y-95250000D01*
X121330000Y-69260000D02*
X121330000Y-72390000D01*
X182880000Y-124460000D02*
X184150000Y-123190000D01*
X163830000Y-83820000D02*
X165100000Y-85090000D01*
X137160000Y-62230000D02*
X134620000Y-59690000D01*
X185159188Y-122186396D02*
X186682412Y-122186396D01*
X163830000Y-100330000D02*
X165100000Y-101600000D01*
X184155584Y-123190000D02*
X185159188Y-122186396D01*
X144190000Y-72390000D02*
X144190000Y-75610000D01*
X142240000Y-101600000D02*
X142240000Y-106680000D01*
X176530000Y-87630000D02*
X178620000Y-89720000D01*
X175260000Y-92710000D02*
X173990000Y-91440000D01*
X109220000Y-78495305D02*
X106435305Y-81280000D01*
X109220000Y-72390000D02*
X109220000Y-78495305D01*
X144780000Y-99060000D02*
X142240000Y-101600000D01*
X119380000Y-67310000D02*
X121330000Y-69260000D01*
X167640000Y-91440000D02*
X166370000Y-92710000D01*
X187960000Y-120908808D02*
X187960000Y-106680000D01*
X186690000Y-105410000D02*
X185420000Y-105410000D01*
X149860000Y-99060000D02*
X151130000Y-100330000D01*
X176530000Y-66040000D02*
X175260000Y-67310000D01*
X165100000Y-101600000D02*
X165100000Y-106680000D01*
X149860000Y-82550000D02*
X151130000Y-83820000D01*
X176530000Y-69850000D02*
X177800000Y-69850000D01*
X117520000Y-93980000D02*
X121330000Y-93980000D01*
X175260000Y-67310000D02*
X175260000Y-68580000D01*
X144190000Y-93980000D02*
X144190000Y-97200000D01*
X175260000Y-94320000D02*
X175260000Y-92710000D01*
X106435305Y-81280000D02*
X102870000Y-81280000D01*
X144780000Y-97790000D02*
X144780000Y-99060000D01*
X187960000Y-106680000D02*
X186690000Y-105410000D01*
X184150000Y-123190000D02*
X184155584Y-123190000D01*
X121330000Y-75610000D02*
X121920000Y-76200000D01*
X115570000Y-67900000D02*
X112350000Y-71120000D01*
X173990000Y-91440000D02*
X167640000Y-91440000D01*
X186682412Y-122186396D02*
X187960000Y-120908808D01*
X115570000Y-67900000D02*
X116160000Y-67310000D01*
X121330000Y-97200000D02*
X121920000Y-97790000D01*
X149860000Y-77470000D02*
X149860000Y-82550000D01*
X151130000Y-83820000D02*
X163830000Y-83820000D01*
X104140000Y-82550000D02*
X104140000Y-95250000D01*
%TO.N,Net-(J1-RAIL_OVERRIDE_SWITCH)*%
X160020000Y-99060000D02*
X160020000Y-96520000D01*
%TO.N,Net-(J1-PUSH_LED)*%
X118850000Y-93255500D02*
X118850000Y-92696826D01*
X116323174Y-90170000D02*
X110490000Y-90170000D01*
X118850000Y-92696826D02*
X116323174Y-90170000D01*
%TO.N,Net-(J1-BIT_0)*%
X114510000Y-120860000D02*
X121920000Y-128270000D01*
X137160000Y-77450000D02*
X137150000Y-77460000D01*
X111760000Y-111760000D02*
X114300000Y-111760000D01*
X114510000Y-111970000D02*
X114510000Y-120860000D01*
X137160000Y-74930000D02*
X137160000Y-77450000D01*
X114300000Y-111760000D02*
X114510000Y-111970000D01*
X121920000Y-128270000D02*
X173990000Y-128270000D01*
X173990000Y-128270000D02*
X177800000Y-124460000D01*
%TO.N,Net-(J1-PUSH_SWITCH)*%
X157480000Y-96520000D02*
X157480000Y-99060000D01*
%TO.N,Net-(J1-BIT_1)*%
X114960000Y-120673604D02*
X122106396Y-127820000D01*
X169360000Y-127820000D02*
X172720000Y-124460000D01*
X114300000Y-110490000D02*
X114960000Y-111150000D01*
X134610000Y-74940000D02*
X134620000Y-74930000D01*
X114960000Y-111150000D02*
X114960000Y-120673604D01*
X110490000Y-110490000D02*
X114300000Y-110490000D01*
X122106396Y-127820000D02*
X169360000Y-127820000D01*
X134610000Y-77460000D02*
X134610000Y-74940000D01*
%TO.N,Net-(J1-MODULE_OVERRIDE_SWITCH)*%
X154940000Y-99060000D02*
X154940000Y-96520000D01*
%TO.N,Net-(J1-BIT_2)*%
X132080000Y-74930000D02*
X132080000Y-77450000D01*
X122292792Y-127370000D02*
X164730000Y-127370000D01*
X114300000Y-109220000D02*
X115410000Y-110330000D01*
X164730000Y-127370000D02*
X167640000Y-124460000D01*
X115410000Y-110330000D02*
X115410000Y-120487208D01*
X115410000Y-120487208D02*
X122292792Y-127370000D01*
X109220000Y-109220000D02*
X114300000Y-109220000D01*
X132080000Y-77450000D02*
X132070000Y-77460000D01*
%TO.N,Net-(J1-VELOCITY_DT)*%
X166688198Y-122871802D02*
X183831802Y-122871802D01*
X187510000Y-120722412D02*
X187510000Y-112580000D01*
X187960000Y-100330000D02*
X187960000Y-76200000D01*
X165100000Y-124460000D02*
X166688198Y-122871802D01*
X186496016Y-121736396D02*
X187510000Y-120722412D01*
X184972792Y-121736396D02*
X186496016Y-121736396D01*
X183831802Y-122871802D02*
X183963604Y-122740000D01*
X183969188Y-122740000D02*
X184972792Y-121736396D01*
X170180000Y-66673604D02*
X170180000Y-64770000D01*
X178436396Y-74930000D02*
X170180000Y-66673604D01*
X183963604Y-122740000D02*
X183969188Y-122740000D01*
X187510000Y-112580000D02*
X185420000Y-110490000D01*
X187960000Y-76200000D02*
X186690000Y-74930000D01*
X186690000Y-74930000D02*
X178436396Y-74930000D01*
X186690000Y-101600000D02*
X187960000Y-100330000D01*
%TO.N,Net-(J1-BIT_3)*%
X107950000Y-107950000D02*
X114300000Y-107950000D01*
X160390000Y-126630000D02*
X162560000Y-124460000D01*
X114300000Y-107950000D02*
X115860000Y-109510000D01*
X115860000Y-109510000D02*
X115860000Y-120300812D01*
X122189188Y-126630000D02*
X160390000Y-126630000D01*
X115860000Y-120300812D02*
X122189188Y-126630000D01*
X129530000Y-77460000D02*
X129530000Y-74940000D01*
X129530000Y-74940000D02*
X129540000Y-74930000D01*
%TO.N,Net-(J1-VELOCITY_CLK)*%
X184786396Y-121286396D02*
X186309620Y-121286396D01*
X187060000Y-120536016D02*
X187060000Y-113400000D01*
X160020000Y-124460000D02*
X161290000Y-123190000D01*
X183645406Y-122421802D02*
X183777208Y-122290000D01*
X186309620Y-121286396D02*
X187060000Y-120536016D01*
X186503604Y-75380000D02*
X178250000Y-75380000D01*
X166501802Y-122421802D02*
X183645406Y-122421802D01*
X165733604Y-123190000D02*
X166501802Y-122421802D01*
X187510000Y-76386396D02*
X186503604Y-75380000D01*
X178250000Y-75380000D02*
X167640000Y-64770000D01*
X185420000Y-101600000D02*
X187510000Y-99510000D01*
X183777208Y-122290000D02*
X183782792Y-122290000D01*
X187510000Y-99510000D02*
X187510000Y-76386396D01*
X183782792Y-122290000D02*
X184786396Y-121286396D01*
X187060000Y-113400000D02*
X185420000Y-111760000D01*
X161290000Y-123190000D02*
X165733604Y-123190000D01*
%TO.N,Net-(J1-BIT_4)*%
X129540000Y-85090000D02*
X129530000Y-85080000D01*
X129540000Y-87630000D02*
X129540000Y-85090000D01*
%TO.N,Net-(J1-FWD{slash}BWD_SWITCH)*%
X152400000Y-96520000D02*
X152400000Y-99060000D01*
%TO.N,Net-(J1-BIT_5)*%
X132070000Y-87620000D02*
X132080000Y-87630000D01*
X132070000Y-85080000D02*
X132070000Y-87620000D01*
%TO.N,Net-(J1-BIT_F)*%
X183596396Y-121840000D02*
X183590812Y-121840000D01*
X186123224Y-120836396D02*
X184600000Y-120836396D01*
X183459010Y-121971802D02*
X166315406Y-121971802D01*
X184150000Y-111762792D02*
X186610000Y-114222792D01*
X177802792Y-90170000D02*
X181610000Y-90170000D01*
X183250000Y-91810000D02*
X183250000Y-100700000D01*
X186610000Y-114222792D02*
X186610000Y-120349620D01*
X181610000Y-90170000D02*
X183250000Y-91810000D01*
X173992792Y-86360000D02*
X177802792Y-90170000D01*
X161290000Y-86360000D02*
X173992792Y-86360000D01*
X160020000Y-85090000D02*
X161290000Y-86360000D01*
X183590812Y-121840000D02*
X183459010Y-121971802D01*
X165547208Y-122740000D02*
X151580000Y-122740000D01*
X186610000Y-120349620D02*
X186123224Y-120836396D01*
X166315406Y-121971802D02*
X165547208Y-122740000D01*
X183250000Y-100700000D02*
X184150000Y-101600000D01*
X151580000Y-122740000D02*
X149860000Y-124460000D01*
X184150000Y-111760000D02*
X184150000Y-111762792D01*
X184600000Y-120836396D02*
X183596396Y-121840000D01*
X160020000Y-87630000D02*
X160020000Y-85090000D01*
%TO.N,Net-(J1-BIT_6)*%
X134620000Y-87630000D02*
X134620000Y-85090000D01*
X134620000Y-85090000D02*
X134610000Y-85080000D01*
%TO.N,Net-(J1-BIT_E)*%
X146950000Y-122290000D02*
X165360812Y-122290000D01*
X174626396Y-87630000D02*
X163830000Y-87630000D01*
X158750000Y-88900000D02*
X157480000Y-87630000D01*
X144780000Y-124460000D02*
X146950000Y-122290000D01*
X162560000Y-88900000D02*
X158750000Y-88900000D01*
X163830000Y-87630000D02*
X162560000Y-88900000D01*
X185420000Y-114544695D02*
X184450305Y-113575000D01*
X183423604Y-113575000D02*
X181610000Y-111761396D01*
X185420000Y-116840000D02*
X185420000Y-114544695D01*
X166129010Y-121521802D02*
X183272614Y-121521802D01*
X184450305Y-113575000D02*
X183423604Y-113575000D01*
X181610000Y-111761396D02*
X181610000Y-111760000D01*
X182350000Y-95353604D02*
X174626396Y-87630000D01*
X157480000Y-85090000D02*
X157480000Y-87630000D01*
X182350000Y-100860000D02*
X182350000Y-95353604D01*
X181610000Y-101600000D02*
X182350000Y-100860000D01*
X165360812Y-122290000D02*
X166129010Y-121521802D01*
X184150000Y-120650000D02*
X184150000Y-118110000D01*
X183404416Y-121390000D02*
X183410000Y-121390000D01*
X184150000Y-118110000D02*
X185420000Y-116840000D01*
X183410000Y-121390000D02*
X184150000Y-120650000D01*
X183272614Y-121521802D02*
X183404416Y-121390000D01*
%TO.N,Net-(J1-BIT_7)*%
X137150000Y-87620000D02*
X137160000Y-87630000D01*
X137150000Y-85080000D02*
X137150000Y-87620000D01*
%TO.N,Net-(J1-BIT_D)*%
X174440000Y-88080000D02*
X164016396Y-88080000D01*
X146763604Y-121840000D02*
X165174416Y-121840000D01*
X156660000Y-89350000D02*
X154940000Y-87630000D01*
X140970000Y-123190000D02*
X145413604Y-123190000D01*
X180340000Y-115570000D02*
X180340000Y-111760000D01*
X162746396Y-89350000D02*
X156660000Y-89350000D01*
X181188198Y-121071802D02*
X181610000Y-120650000D01*
X180340000Y-101600000D02*
X181900000Y-100040000D01*
X145413604Y-123190000D02*
X146763604Y-121840000D01*
X165942614Y-121071802D02*
X181188198Y-121071802D01*
X154940000Y-87630000D02*
X154940000Y-85090000D01*
X139700000Y-124460000D02*
X140970000Y-123190000D01*
X165174416Y-121840000D02*
X165942614Y-121071802D01*
X181610000Y-120650000D02*
X181610000Y-116840000D01*
X181610000Y-116840000D02*
X180340000Y-115570000D01*
X181900000Y-95540000D02*
X174440000Y-88080000D01*
X181900000Y-100040000D02*
X181900000Y-95540000D01*
X164016396Y-88080000D02*
X162746396Y-89350000D01*
%TO.N,Net-(J1-BIT_8)*%
X116310000Y-120114416D02*
X116310000Y-106150000D01*
X137160000Y-124460000D02*
X135440000Y-126180000D01*
X122375584Y-126180000D02*
X116310000Y-120114416D01*
X116310000Y-106150000D02*
X113030000Y-102870000D01*
X135440000Y-126180000D02*
X122375584Y-126180000D01*
X160020000Y-74930000D02*
X160020000Y-77470000D01*
%TO.N,Net-(J1-BIT_C)*%
X133350000Y-125730000D02*
X122561980Y-125730000D01*
X134620000Y-124460000D02*
X133350000Y-125730000D01*
X122561980Y-125730000D02*
X116760000Y-119928020D01*
X152400000Y-85090000D02*
X152400000Y-87630000D01*
X116760000Y-119928020D02*
X116760000Y-105330000D01*
X116760000Y-105330000D02*
X114300000Y-102870000D01*
%TO.N,Net-(J1-BIT_9)*%
X118110000Y-102870000D02*
X115570000Y-100330000D01*
X118110000Y-119368832D02*
X118110000Y-102870000D01*
X121481168Y-122740000D02*
X118110000Y-119368832D01*
X115570000Y-82550000D02*
X113030000Y-80010000D01*
X130360000Y-122740000D02*
X121481168Y-122740000D01*
X132080000Y-124460000D02*
X130360000Y-122740000D01*
X115570000Y-85090000D02*
X115570000Y-82550000D01*
X157480000Y-77470000D02*
X157480000Y-74930000D01*
%TO.N,Net-(J1-BIT_A)*%
X117660000Y-119555228D02*
X117660000Y-103690000D01*
X121294772Y-123190000D02*
X117660000Y-119555228D01*
X151130000Y-81280000D02*
X154940000Y-77470000D01*
X117660000Y-103690000D02*
X116840000Y-102870000D01*
X128270000Y-123190000D02*
X121294772Y-123190000D01*
X129540000Y-124460000D02*
X128270000Y-123190000D01*
X154940000Y-74930000D02*
X154940000Y-77470000D01*
%TO.N,Net-(J1-BIT_B)*%
X121928376Y-124460000D02*
X117210000Y-119741624D01*
X152400000Y-77470000D02*
X152400000Y-74930000D01*
X127000000Y-124460000D02*
X121928376Y-124460000D01*
X140970000Y-78740000D02*
X143510000Y-78740000D01*
X117210000Y-119741624D02*
X117210000Y-104510000D01*
X138430000Y-81280000D02*
X140970000Y-78740000D01*
X117210000Y-104510000D02*
X115570000Y-102870000D01*
%TO.N,Net-(J2-02_LED)*%
X186160000Y-114648299D02*
X184636701Y-113125000D01*
X186160000Y-117370000D02*
X186160000Y-114648299D01*
X183925406Y-113125000D02*
X182800000Y-111999594D01*
X181610000Y-91440000D02*
X182800000Y-92630000D01*
X185420000Y-118110000D02*
X186160000Y-117370000D01*
X182800000Y-92630000D02*
X182800000Y-101520000D01*
X184636701Y-113125000D02*
X183925406Y-113125000D01*
X182800000Y-101520000D02*
X182880000Y-101600000D01*
X182800000Y-111840000D02*
X182880000Y-111760000D01*
X182800000Y-111999594D02*
X182800000Y-111840000D01*
X185420000Y-119380000D02*
X185420000Y-118110000D01*
%TO.N,Net-(J2-13_LED)*%
X182880000Y-119380000D02*
X182880000Y-115570000D01*
X182880000Y-115570000D02*
X184150000Y-114300000D01*
%TO.N,Net-(J2-02_SWITCH)*%
X132080000Y-99060000D02*
X135890000Y-102870000D01*
X132080000Y-96520000D02*
X132080000Y-99060000D01*
%TO.N,Net-(J2-13_SWITCH)*%
X141514973Y-121390000D02*
X164988020Y-121390000D01*
X137160000Y-106680000D02*
X137160000Y-109220000D01*
X140970000Y-113030000D02*
X140970000Y-120845027D01*
X165756218Y-120621802D02*
X176558198Y-120621802D01*
X164988020Y-121390000D02*
X165756218Y-120621802D01*
X140970000Y-120845027D02*
X141514973Y-121390000D01*
X143510000Y-110490000D02*
X140970000Y-113030000D01*
X176558198Y-120621802D02*
X177800000Y-119380000D01*
%TO.N,Net-(J2-03_LED)*%
X117741396Y-61225000D02*
X114595430Y-61225000D01*
X114595430Y-61225000D02*
X114040430Y-61780000D01*
X104140000Y-68580000D02*
X102870000Y-68580000D01*
X125788299Y-69030000D02*
X124555000Y-67796701D01*
X114040430Y-61780000D02*
X106493604Y-61780000D01*
X164730000Y-68210000D02*
X153798097Y-68210000D01*
X105410000Y-67310000D02*
X104140000Y-68580000D01*
X106493604Y-61780000D02*
X105410000Y-62863604D01*
X152978097Y-69030000D02*
X125788299Y-69030000D01*
X124555000Y-67407792D02*
X123092208Y-65945000D01*
X168910000Y-72390000D02*
X164730000Y-68210000D01*
X122461396Y-65945000D02*
X117741396Y-61225000D01*
X124555000Y-67796701D02*
X124555000Y-67407792D01*
X175260000Y-119380000D02*
X175260000Y-114300000D01*
X123092208Y-65945000D02*
X122461396Y-65945000D01*
X105410000Y-62863604D02*
X105410000Y-67310000D01*
X153798097Y-68210000D02*
X152978097Y-69030000D01*
%TO.N,Net-(J2-12_LED)*%
X117555000Y-61675000D02*
X114781826Y-61675000D01*
X153984493Y-68660000D02*
X153164493Y-69480000D01*
X167640000Y-72390000D02*
X163910000Y-68660000D01*
X172720000Y-119380000D02*
X172720000Y-114300000D01*
X125601903Y-69480000D02*
X124105000Y-67983097D01*
X163910000Y-68660000D02*
X153984493Y-68660000D01*
X124105000Y-67594188D02*
X122905812Y-66395000D01*
X153164493Y-69480000D02*
X125601903Y-69480000D01*
X114226826Y-62230000D02*
X106680000Y-62230000D01*
X105860000Y-63050000D02*
X105860000Y-73210000D01*
X122905812Y-66395000D02*
X122275000Y-66395000D01*
X114781826Y-61675000D02*
X114226826Y-62230000D01*
X105860000Y-73210000D02*
X102870000Y-76200000D01*
X124105000Y-67983097D02*
X124105000Y-67594188D01*
X106680000Y-62230000D02*
X105860000Y-63050000D01*
X122275000Y-66395000D02*
X117555000Y-61675000D01*
%TO.N,Net-(J2-03_SWITCH)*%
X158750000Y-110490000D02*
X156210000Y-107950000D01*
X154940000Y-104140000D02*
X146050000Y-104140000D01*
X156210000Y-105410000D02*
X154940000Y-104140000D01*
X156210000Y-107950000D02*
X156210000Y-105410000D01*
X160020000Y-110490000D02*
X158750000Y-110490000D01*
X129540000Y-99060000D02*
X134620000Y-104140000D01*
X129540000Y-99060000D02*
X129540000Y-96520000D01*
%TO.N,Net-(J2-12_SWITCH)*%
X146050000Y-113030000D02*
X146050000Y-114300000D01*
X134620000Y-109220000D02*
X134620000Y-106680000D01*
X144780000Y-111760000D02*
X146050000Y-113030000D01*
%TO.N,Net-(J2-TIME_ACTIVE_SWITCH)*%
X152400000Y-109220000D02*
X152400000Y-106680000D01*
%TO.N,Net-(J2-11_LED)*%
X123278604Y-65495000D02*
X125005000Y-67221396D01*
X125005000Y-67610305D02*
X125974695Y-68580000D01*
X102870000Y-60960000D02*
X114224034Y-60960000D01*
X114409034Y-60775000D02*
X117927792Y-60775000D01*
X152791701Y-68580000D02*
X153611701Y-67760000D01*
X166370000Y-114300000D02*
X162560000Y-118110000D01*
X173990000Y-110490000D02*
X170180000Y-114300000D01*
X101471220Y-67310000D02*
X101471220Y-62358780D01*
X165550000Y-67760000D02*
X170180000Y-72390000D01*
X125005000Y-67221396D02*
X125005000Y-67610305D01*
X153611701Y-67760000D02*
X165550000Y-67760000D01*
X170180000Y-114300000D02*
X166370000Y-114300000D01*
X114224034Y-60960000D02*
X114409034Y-60775000D01*
X117927792Y-60775000D02*
X122647792Y-65495000D01*
X122647792Y-65495000D02*
X123278604Y-65495000D01*
X125974695Y-68580000D02*
X152791701Y-68580000D01*
X162560000Y-118110000D02*
X162560000Y-119380000D01*
X101471220Y-62358780D02*
X102870000Y-60960000D01*
D24*
%TO.N,Net-(J2-POWER_A)*%
X168910000Y-111760000D02*
X165100000Y-111760000D01*
X172720000Y-107950000D02*
X168910000Y-111760000D01*
X165100000Y-111760000D02*
X160020000Y-116840000D01*
X185420000Y-107950000D02*
X172720000Y-107950000D01*
X160020000Y-116840000D02*
X160020000Y-119380000D01*
D23*
%TO.N,Net-(J2-11_SWITCH)*%
X146050000Y-115570000D02*
X143510000Y-113030000D01*
X132080000Y-106680000D02*
X132080000Y-109220000D01*
X154940000Y-115570000D02*
X146050000Y-115570000D01*
D24*
%TO.N,Net-(J2-POWER_B)*%
X154940000Y-119380000D02*
X154940000Y-118110000D01*
X163830000Y-109220000D02*
X167640000Y-109220000D01*
X154940000Y-118110000D02*
X163830000Y-109220000D01*
D23*
X176530000Y-82550000D02*
X182880000Y-76200000D01*
D24*
X172720000Y-104140000D02*
X172720000Y-94320000D01*
X167640000Y-109220000D02*
X172720000Y-104140000D01*
D23*
%TO.N,Net-(J2-01_LED)*%
X149040000Y-116020000D02*
X145230000Y-116020000D01*
X123190000Y-115570000D02*
X129540000Y-115570000D01*
X119380000Y-113030000D02*
X120650000Y-113030000D01*
X120650000Y-113030000D02*
X123190000Y-115570000D01*
X145230000Y-116020000D02*
X143510000Y-114300000D01*
X152400000Y-119380000D02*
X149040000Y-116020000D01*
%TO.N,Net-(J2-EMERGENCY_STOP_SWITCH)*%
X154940000Y-106680000D02*
X154940000Y-109220000D01*
X157480000Y-111760000D02*
X154940000Y-109220000D01*
%TO.N,Net-(J2-01_SWITCH)*%
X134620000Y-99060000D02*
X137160000Y-101600000D01*
X134620000Y-99060000D02*
X134620000Y-96520000D01*
%TO.N,Net-(J2-EMERGENCY_STOP_LED)*%
X130085000Y-114845000D02*
X130810000Y-115570000D01*
X144780000Y-116840000D02*
X144780000Y-119380000D01*
X127000000Y-115120000D02*
X127275000Y-114845000D01*
X120016396Y-111760000D02*
X123376396Y-115120000D01*
X123376396Y-115120000D02*
X127000000Y-115120000D01*
X119380000Y-111760000D02*
X120016396Y-111760000D01*
X143510000Y-115570000D02*
X144780000Y-116840000D01*
X127275000Y-114845000D02*
X130085000Y-114845000D01*
%TO.N,Net-(J2-10_LED)*%
X119578289Y-110685497D02*
X123562792Y-114670000D01*
X105336851Y-114226851D02*
X101600000Y-110490000D01*
X119184503Y-110685497D02*
X119578289Y-110685497D01*
X123562792Y-114670000D02*
X126630000Y-114670000D01*
X126630000Y-114670000D02*
X127000000Y-114300000D01*
X105483150Y-114226851D02*
X105336851Y-114226851D01*
X127000000Y-114300000D02*
X130810000Y-114300000D01*
X101600000Y-72390000D02*
X102870000Y-71120000D01*
X101600000Y-110490000D02*
X101600000Y-72390000D01*
X130810000Y-114300000D02*
X132080000Y-115570000D01*
%TO.N,Net-(J2-5V)*%
X121667564Y-122290000D02*
X136790000Y-122290000D01*
X119380000Y-120002436D02*
X121667564Y-122290000D01*
X119380000Y-118110000D02*
X119380000Y-120002436D01*
X136790000Y-122290000D02*
X139700000Y-119380000D01*
%TO.N,Net-(J2-10_SWITCH)*%
X129540000Y-109220000D02*
X129540000Y-106680000D01*
X128270000Y-110490000D02*
X128270000Y-112888174D01*
X129540000Y-109220000D02*
X128270000Y-110490000D01*
X137160000Y-114300000D02*
X137160000Y-119380000D01*
X128270000Y-112888174D02*
X128676826Y-113295000D01*
X136155000Y-113295000D02*
X137160000Y-114300000D01*
X128676826Y-113295000D02*
X136155000Y-113295000D01*
%TO.N,Net-(J2-TIME_SET_DT)*%
X120650000Y-114300000D02*
X122645000Y-116295000D01*
X118114188Y-60325000D02*
X114222638Y-60325000D01*
X114037638Y-60510000D02*
X102683604Y-60510000D01*
X121920000Y-63500000D02*
X121289188Y-63500000D01*
X123190000Y-64770000D02*
X121920000Y-63500000D01*
X101150000Y-69313471D02*
X101150000Y-110676396D01*
X114222638Y-60325000D02*
X114037638Y-60510000D01*
X104140000Y-113666396D02*
X104140000Y-115570000D01*
X119380000Y-114300000D02*
X120650000Y-114300000D01*
X100746220Y-62447384D02*
X100746220Y-68909691D01*
X100746220Y-68909691D02*
X101150000Y-69313471D01*
X101150000Y-110676396D02*
X104140000Y-113666396D01*
X122645000Y-116295000D02*
X131535000Y-116295000D01*
X102683604Y-60510000D02*
X100746220Y-62447384D01*
X121289188Y-63500000D02*
X118114188Y-60325000D01*
X131535000Y-116295000D02*
X134620000Y-119380000D01*
%TO.N,Net-(J2-00_LED)*%
X107950000Y-78740000D02*
X107950000Y-68580000D01*
X102870000Y-116840000D02*
X102870000Y-114300000D01*
X132080000Y-119380000D02*
X129620000Y-121840000D01*
X124380000Y-121840000D02*
X129620000Y-121840000D01*
X102870000Y-114300000D02*
X101600000Y-113030000D01*
X107950000Y-68580000D02*
X110490000Y-66040000D01*
X124380000Y-121840000D02*
X119380000Y-116840000D01*
%TO.N,Net-(J2-TIME_SET_CLK)*%
X100296220Y-62260988D02*
X102497208Y-60060000D01*
X125280000Y-63050000D02*
X130360000Y-68130000D01*
X152605305Y-68130000D02*
X153425305Y-67310000D01*
X100700000Y-69499867D02*
X100296220Y-69096087D01*
X101600000Y-115570000D02*
X100330000Y-114300000D01*
X100330000Y-114300000D02*
X100330000Y-113030000D01*
X100330000Y-113030000D02*
X100700000Y-112660000D01*
X121475584Y-63050000D02*
X125280000Y-63050000D01*
X102497208Y-60060000D02*
X113851242Y-60060000D01*
X120555000Y-116745000D02*
X119380000Y-115570000D01*
X153425305Y-67310000D02*
X167640000Y-67310000D01*
X129540000Y-119380000D02*
X126905000Y-116745000D01*
X100296220Y-69096087D02*
X100296220Y-62260988D01*
X130360000Y-68130000D02*
X152605305Y-68130000D01*
X118300584Y-59875000D02*
X121475584Y-63050000D01*
X114036242Y-59875000D02*
X118300584Y-59875000D01*
X100700000Y-112660000D02*
X100700000Y-69499867D01*
X113851242Y-60060000D02*
X114036242Y-59875000D01*
X126905000Y-116745000D02*
X120555000Y-116745000D01*
%TO.N,Net-(J2-00_SWITCH)*%
X137160000Y-96520000D02*
X137160000Y-99060000D01*
%TO.N,Net-(J3-GPIO2(I2C1_SDA))*%
X152400000Y-67310000D02*
X149860000Y-67310000D01*
X135890000Y-67680000D02*
X134620000Y-66410000D01*
X134620000Y-66410000D02*
X134620000Y-64770000D01*
X184340000Y-67310000D02*
X176530000Y-67310000D01*
X185420000Y-66230000D02*
X184340000Y-67310000D01*
X149860000Y-67310000D02*
X149490000Y-67680000D01*
X149490000Y-67680000D02*
X135890000Y-67680000D01*
%TO.N,Net-(J3-GPIO3(I2C1_SCL))*%
X180340000Y-59690000D02*
X139700000Y-59690000D01*
X138430000Y-60960000D02*
X138430000Y-63500000D01*
X182880000Y-62230000D02*
X180340000Y-59690000D01*
X139700000Y-59690000D02*
X138430000Y-60960000D01*
X182880000Y-64770000D02*
X182880000Y-62230000D01*
X138430000Y-63500000D02*
X137160000Y-64770000D01*
%TO.N,Net-(J3-GPIO4(GPCLK0))*%
X163830000Y-69850000D02*
X167640000Y-73660000D01*
X140970000Y-63500000D02*
X158750000Y-63500000D01*
X139700000Y-64770000D02*
X140970000Y-63500000D01*
%TO.N,Net-(J3-GPIO17)*%
X107950000Y-90170000D02*
X107950000Y-81280000D01*
X110490000Y-76200000D02*
X118110000Y-68580000D01*
X107950000Y-81280000D02*
X109220000Y-80010000D01*
%TO.N,Net-(J3-GPIO18(PCM_CLK))*%
X128115000Y-83955000D02*
X143638604Y-83955000D01*
X149860000Y-102870000D02*
X148590000Y-101600000D01*
X144780000Y-77470000D02*
X144780000Y-80010000D01*
X149860000Y-91440000D02*
X149860000Y-85090000D01*
X148590000Y-101600000D02*
X148590000Y-97790000D01*
X128270000Y-91440000D02*
X127000000Y-90170000D01*
X128270000Y-105410000D02*
X128270000Y-91440000D01*
X140970000Y-72390000D02*
X140970000Y-73660000D01*
X148735000Y-86215000D02*
X149860000Y-85090000D01*
X145898604Y-86215000D02*
X148735000Y-86215000D01*
X143638604Y-83955000D02*
X145898604Y-86215000D01*
X126990000Y-85080000D02*
X128115000Y-83955000D01*
X140970000Y-73660000D02*
X144780000Y-77470000D01*
X127000000Y-106680000D02*
X128270000Y-105410000D01*
X148590000Y-97790000D02*
X149860000Y-96520000D01*
X144780000Y-80010000D02*
X149860000Y-85090000D01*
%TO.N,Net-(J3-GPIO27)*%
X140970000Y-66040000D02*
X146050000Y-66040000D01*
X106680000Y-64770000D02*
X107950000Y-63500000D01*
X106680000Y-97790000D02*
X110490000Y-97790000D01*
X106680000Y-85090000D02*
X106680000Y-92710000D01*
X106680000Y-74930000D02*
X106680000Y-64770000D01*
X146050000Y-66040000D02*
X147320000Y-64770000D01*
%TO.N,Net-(J3-GPIO22)*%
X143510000Y-66955500D02*
X147674500Y-66955500D01*
X147674500Y-66955500D02*
X149860000Y-64770000D01*
%TO.N,Net-(J3-GPIO24)*%
X113030000Y-113030000D02*
X114060000Y-114060000D01*
X116840000Y-95250000D02*
X116840000Y-95883604D01*
X138466494Y-73660000D02*
X127155000Y-73660000D01*
X114060000Y-114060000D02*
X114060000Y-122950000D01*
X127155000Y-73660000D02*
X125730000Y-75085000D01*
X111123604Y-101600000D02*
X107950000Y-101600000D01*
X106680000Y-107950000D02*
X111760000Y-113030000D01*
X139718247Y-72408247D02*
X138466494Y-73660000D01*
X125730000Y-75085000D02*
X125730000Y-80010000D01*
X125730000Y-80010000D02*
X121920000Y-83820000D01*
X116840000Y-95883604D02*
X111123604Y-101600000D01*
X106680000Y-102870000D02*
X106680000Y-107950000D01*
X111760000Y-113030000D02*
X113030000Y-113030000D01*
X107950000Y-101600000D02*
X106680000Y-102870000D01*
X114060000Y-122950000D02*
X116840000Y-125730000D01*
%TO.N,Net-(J3-GPIO10(SPI0_MOSI))*%
X168087208Y-66490000D02*
X156660000Y-66490000D01*
X170180000Y-71120000D02*
X170180000Y-68582792D01*
X170180000Y-68582792D02*
X168087208Y-66490000D01*
X179800000Y-82010000D02*
X179070000Y-81280000D01*
X156660000Y-66490000D02*
X154940000Y-64770000D01*
X185420000Y-82010000D02*
X179800000Y-82010000D01*
%TO.N,Net-(J3-GPIO11(SPI0_SCLK))*%
X171450000Y-72390000D02*
X171450000Y-69216396D01*
X185420000Y-84010000D02*
X180530000Y-84010000D01*
X180530000Y-84010000D02*
X179070000Y-82550000D01*
X168273604Y-66040000D02*
X161290000Y-66040000D01*
X171450000Y-69216396D02*
X168273604Y-66040000D01*
X161290000Y-66040000D02*
X160020000Y-64770000D01*
%TO.N,Net-(J3-GPIO8(SPI0_CE0))*%
X182530000Y-86010000D02*
X181610000Y-85090000D01*
X173990000Y-61399973D02*
X172730027Y-60140000D01*
X172730027Y-60140000D02*
X160840000Y-60140000D01*
X173990000Y-68580000D02*
X173990000Y-61399973D01*
X160840000Y-60140000D02*
X160020000Y-60960000D01*
X176530000Y-71120000D02*
X173990000Y-68580000D01*
X160020000Y-60960000D02*
X160020000Y-62230000D01*
X185420000Y-86010000D02*
X182530000Y-86010000D01*
%TO.N,Net-(J3-GPIO12(PWM0))*%
X168910000Y-60960000D02*
X170180000Y-62230000D01*
X110490000Y-128270000D02*
X111760000Y-127000000D01*
X111760000Y-127000000D02*
X111760000Y-125730000D01*
X100330000Y-128270000D02*
X110490000Y-128270000D01*
X99060000Y-127000000D02*
X100330000Y-128270000D01*
X161290000Y-60960000D02*
X168910000Y-60960000D01*
%TO.N,Net-(J3-GPIO13(PWM1))*%
X132080000Y-104140000D02*
X130810000Y-104140000D01*
X163830000Y-90170000D02*
X165100000Y-88900000D01*
X124450000Y-85080000D02*
X126025000Y-83505000D01*
X127820000Y-95700000D02*
X127820000Y-92260000D01*
X180340000Y-76200000D02*
X180340000Y-77470000D01*
X124460000Y-106680000D02*
X125730000Y-105410000D01*
X177802792Y-73660000D02*
X172720000Y-68577208D01*
X146365000Y-85090000D02*
X147320000Y-85090000D01*
X125730000Y-105410000D02*
X125730000Y-97790000D01*
X144780000Y-83505000D02*
X146365000Y-85090000D01*
X126025000Y-83505000D02*
X144780000Y-83505000D01*
X127820000Y-92260000D02*
X125730000Y-90170000D01*
X125730000Y-97790000D02*
X127820000Y-95700000D01*
X180340000Y-77470000D02*
X172720000Y-85090000D01*
X133350000Y-105410000D02*
X132080000Y-104140000D01*
X165100000Y-88900000D02*
X167640000Y-88900000D01*
X172720000Y-85090000D02*
X167640000Y-85090000D01*
X179070000Y-73660000D02*
X177802792Y-73660000D01*
X172720000Y-68577208D02*
X172720000Y-64770000D01*
%TO.N,Net-(J3-GPIO20(PCM_DIN))*%
X186690000Y-60960000D02*
X184150000Y-60960000D01*
X186610000Y-78740000D02*
X186610000Y-78660000D01*
X186610000Y-92820000D02*
X186610000Y-78740000D01*
X186610000Y-78660000D02*
X185420000Y-77470000D01*
X185420000Y-94010000D02*
X186610000Y-92820000D01*
%TO.N,Net-(J3-GPIO21(PCM_DOUT))*%
X187060000Y-77840000D02*
X186690000Y-77470000D01*
X187060000Y-94370000D02*
X187060000Y-77840000D01*
X185420000Y-96010000D02*
X187060000Y-94370000D01*
%TO.N,Net-(J5-VB)*%
X185868604Y-58870000D02*
X187510000Y-60511396D01*
X187510000Y-60511396D02*
X187510000Y-68585000D01*
X185865000Y-70230000D02*
X185420000Y-70230000D01*
X187510000Y-68585000D02*
X185865000Y-70230000D01*
X99510000Y-61146396D02*
X101786396Y-58870000D01*
X99510000Y-121100000D02*
X99510000Y-61146396D01*
X101786396Y-58870000D02*
X185868604Y-58870000D01*
X104140000Y-125730000D02*
X99510000Y-121100000D01*
%TO.N,Net-(J5-VA)*%
X187960000Y-69690000D02*
X187960000Y-60325000D01*
X186055000Y-58420000D02*
X101600000Y-58420000D01*
X99060000Y-60960000D02*
X99060000Y-123190000D01*
X187960000Y-60325000D02*
X186055000Y-58420000D01*
X185420000Y-72230000D02*
X187960000Y-69690000D01*
X99060000Y-123190000D02*
X101600000Y-125730000D01*
X101600000Y-58420000D02*
X99060000Y-60960000D01*
%TO.N,Net-(U1-Q7)*%
X161290000Y-80010000D02*
X158750000Y-80010000D01*
%TO.N,Net-(U2-Q7)*%
X163830000Y-78740000D02*
X165100000Y-77470000D01*
X151130000Y-82550000D02*
X152400000Y-82550000D01*
X152400000Y-82550000D02*
X156210000Y-78740000D01*
X139700000Y-99060000D02*
X139700000Y-96520000D01*
X156210000Y-78740000D02*
X163830000Y-78740000D01*
%TO.N,Net-(U3-Q7)*%
X142240000Y-96520000D02*
X142240000Y-99060000D01*
%TO.N,Net-(U5-QH')*%
X109365000Y-91585000D02*
X109365000Y-82405000D01*
X109365000Y-82405000D02*
X110490000Y-81280000D01*
X110490000Y-92710000D02*
X109365000Y-91585000D01*
%TD*%
M02*
