%TF.GenerationSoftware,KiCad,Pcbnew,7.0.8*%
%TF.CreationDate,2023-10-07T23:46:44-07:00*%
%TF.ProjectId,htpm_control_module_display,6874706d-5f63-46f6-9e74-726f6c5f6d6f,1*%
%TF.SameCoordinates,Original*%
%TF.FileFunction,Soldermask,Bot*%
%TF.FilePolarity,Negative*%
%FSLAX46Y46*%
G04 Gerber Fmt 4.6, Leading zero omitted, Abs format (unit mm)*
G04 Created by KiCad (PCBNEW 7.0.8) date 2023-10-07 23:46:44*
%MOMM*%
%LPD*%
G01*
G04 APERTURE LIST*
G04 Aperture macros list*
%AMFreePoly0*
4,1,6,1.000000,0.000000,0.500000,-0.750000,-0.500000,-0.750000,-0.500000,0.750000,0.500000,0.750000,1.000000,0.000000,1.000000,0.000000,$1*%
%AMFreePoly1*
4,1,6,0.500000,-0.750000,-0.650000,-0.750000,-0.150000,0.000000,-0.650000,0.750000,0.500000,0.750000,0.500000,-0.750000,0.500000,-0.750000,$1*%
G04 Aperture macros list end*
%ADD10R,1.800000X1.800000*%
%ADD11C,1.800000*%
%ADD12C,1.400000*%
%ADD13O,1.400000X1.400000*%
%ADD14R,1.350000X1.350000*%
%ADD15O,1.350000X1.350000*%
%ADD16C,2.500000*%
%ADD17FreePoly0,90.000000*%
%ADD18FreePoly1,90.000000*%
%ADD19FreePoly0,270.000000*%
%ADD20FreePoly1,270.000000*%
G04 APERTURE END LIST*
D10*
%TO.C,D15*%
X154940000Y-111760000D03*
D11*
X154940000Y-114300000D03*
%TD*%
D10*
%TO.C,D2*%
X142240000Y-106680000D03*
D11*
X142240000Y-104140000D03*
%TD*%
D12*
%TO.C,R1*%
X127000000Y-81280000D03*
D13*
X134620000Y-81280000D03*
%TD*%
D10*
%TO.C,D1*%
X142240000Y-83820000D03*
D11*
X142240000Y-81280000D03*
%TD*%
D10*
%TO.C,D12*%
X162560000Y-106680000D03*
D11*
X162560000Y-104140000D03*
%TD*%
D10*
%TO.C,D5*%
X170180000Y-83820000D03*
D11*
X170180000Y-81280000D03*
%TD*%
D10*
%TO.C,D6*%
X177800000Y-83820000D03*
D11*
X177800000Y-81280000D03*
%TD*%
D10*
%TO.C,D8*%
X162560000Y-88900000D03*
D11*
X162560000Y-91440000D03*
%TD*%
D10*
%TO.C,D17*%
X170180000Y-111760000D03*
D11*
X170180000Y-114300000D03*
%TD*%
D14*
%TO.C,J1*%
X132080000Y-76200000D03*
D15*
X130080000Y-76200000D03*
X128080000Y-76200000D03*
X126080000Y-76200000D03*
X124080000Y-76200000D03*
X122080000Y-76200000D03*
X120080000Y-76200000D03*
X118080000Y-76200000D03*
X116080000Y-76200000D03*
X114080000Y-76200000D03*
%TD*%
D16*
%TO.C,H2*%
X144780000Y-116840000D03*
%TD*%
D12*
%TO.C,R3*%
X140970000Y-99060000D03*
D13*
X148590000Y-99060000D03*
%TD*%
D10*
%TO.C,D14*%
X177800000Y-106680000D03*
D11*
X177800000Y-104140000D03*
%TD*%
D10*
%TO.C,D10*%
X177800000Y-88900000D03*
D11*
X177800000Y-91440000D03*
%TD*%
D10*
%TO.C,D4*%
X162560000Y-83820000D03*
D11*
X162560000Y-81280000D03*
%TD*%
D10*
%TO.C,D3*%
X154940000Y-83820000D03*
D11*
X154940000Y-81280000D03*
%TD*%
D10*
%TO.C,D16*%
X162560000Y-111760000D03*
D11*
X162560000Y-114300000D03*
%TD*%
D10*
%TO.C,D18*%
X177800000Y-111760000D03*
D11*
X177800000Y-114300000D03*
%TD*%
D10*
%TO.C,D9*%
X170180000Y-88900000D03*
D11*
X170180000Y-91440000D03*
%TD*%
D10*
%TO.C,D13*%
X170180000Y-106680000D03*
D11*
X170180000Y-104140000D03*
%TD*%
D14*
%TO.C,J2*%
X132080000Y-119380000D03*
D15*
X130080000Y-119380000D03*
X128080000Y-119380000D03*
X126080000Y-119380000D03*
X124080000Y-119380000D03*
X122080000Y-119380000D03*
X120080000Y-119380000D03*
X118080000Y-119380000D03*
X116080000Y-119380000D03*
X114080000Y-119380000D03*
%TD*%
D16*
%TO.C,H1*%
X137160000Y-88900000D03*
%TD*%
D10*
%TO.C,D11*%
X154940000Y-106680000D03*
D11*
X154940000Y-104140000D03*
%TD*%
D12*
%TO.C,R4*%
X140970000Y-93980000D03*
D13*
X148590000Y-93980000D03*
%TD*%
D12*
%TO.C,R2*%
X127000000Y-104140000D03*
D13*
X134620000Y-104140000D03*
%TD*%
D10*
%TO.C,D7*%
X154940000Y-88900000D03*
D11*
X154940000Y-91440000D03*
%TD*%
D17*
%TO.C,JP25*%
X132080000Y-87085000D03*
D18*
X132080000Y-85635000D03*
%TD*%
D17*
%TO.C,JP26*%
X129540000Y-87085000D03*
D18*
X129540000Y-85635000D03*
%TD*%
D19*
%TO.C,JP14*%
X162560000Y-116840000D03*
D20*
X162560000Y-118290000D03*
%TD*%
D17*
%TO.C,JP30*%
X119380000Y-87085000D03*
D18*
X119380000Y-85635000D03*
%TD*%
D19*
%TO.C,JP15*%
X170180000Y-116840000D03*
D20*
X170180000Y-118290000D03*
%TD*%
D19*
%TO.C,JP22*%
X127000000Y-96520000D03*
D20*
X127000000Y-97970000D03*
%TD*%
D19*
%TO.C,JP18*%
X116840000Y-96520000D03*
D20*
X116840000Y-97970000D03*
%TD*%
D17*
%TO.C,JP28*%
X124460000Y-87085000D03*
D18*
X124460000Y-85635000D03*
%TD*%
D17*
%TO.C,JP29*%
X121920000Y-87085000D03*
D18*
X121920000Y-85635000D03*
%TD*%
D19*
%TO.C,JP20*%
X121920000Y-96520000D03*
D20*
X121920000Y-97970000D03*
%TD*%
D17*
%TO.C,JP27*%
X127000000Y-87085000D03*
D18*
X127000000Y-85635000D03*
%TD*%
D17*
%TO.C,JP12*%
X177800000Y-101600000D03*
D18*
X177800000Y-100150000D03*
%TD*%
D19*
%TO.C,JP24*%
X132080000Y-96520000D03*
D20*
X132080000Y-97970000D03*
%TD*%
D17*
%TO.C,JP11*%
X170180000Y-101600000D03*
D18*
X170180000Y-100150000D03*
%TD*%
D19*
%TO.C,JP13*%
X154940000Y-116840000D03*
D20*
X154940000Y-118290000D03*
%TD*%
D19*
%TO.C,JP8*%
X177800000Y-93980000D03*
D20*
X177800000Y-95430000D03*
%TD*%
D19*
%TO.C,JP5*%
X154940000Y-93980000D03*
D20*
X154940000Y-95430000D03*
%TD*%
D17*
%TO.C,JP2*%
X162560000Y-78740000D03*
D18*
X162560000Y-77290000D03*
%TD*%
D17*
%TO.C,JP32*%
X114300000Y-87085000D03*
D18*
X114300000Y-85635000D03*
%TD*%
D17*
%TO.C,JP3*%
X170180000Y-78740000D03*
D18*
X170180000Y-77290000D03*
%TD*%
D17*
%TO.C,JP31*%
X116840000Y-87085000D03*
D18*
X116840000Y-85635000D03*
%TD*%
D19*
%TO.C,JP21*%
X124460000Y-96520000D03*
D20*
X124460000Y-97970000D03*
%TD*%
D17*
%TO.C,JP9*%
X154940000Y-101600000D03*
D18*
X154940000Y-100150000D03*
%TD*%
D19*
%TO.C,JP16*%
X177800000Y-116840000D03*
D20*
X177800000Y-118290000D03*
%TD*%
D17*
%TO.C,JP10*%
X162560000Y-101600000D03*
D18*
X162560000Y-100150000D03*
%TD*%
D17*
%TO.C,JP4*%
X177800000Y-78740000D03*
D18*
X177800000Y-77290000D03*
%TD*%
D19*
%TO.C,JP6*%
X162560000Y-93980000D03*
D20*
X162560000Y-95430000D03*
%TD*%
D19*
%TO.C,JP19*%
X119380000Y-96520000D03*
D20*
X119380000Y-97970000D03*
%TD*%
D19*
%TO.C,JP23*%
X129540000Y-96520000D03*
D20*
X129540000Y-97970000D03*
%TD*%
D19*
%TO.C,JP7*%
X170180000Y-93980000D03*
D20*
X170180000Y-95430000D03*
%TD*%
D19*
%TO.C,JP17*%
X114300000Y-96520000D03*
D20*
X114300000Y-97970000D03*
%TD*%
D17*
%TO.C,JP1*%
X154940000Y-78740000D03*
D18*
X154940000Y-77290000D03*
%TD*%
M02*
