%TF.GenerationSoftware,KiCad,Pcbnew,7.0.8*%
%TF.CreationDate,2023-10-07T23:46:44-07:00*%
%TF.ProjectId,htpm_control_module_display,6874706d-5f63-46f6-9e74-726f6c5f6d6f,1*%
%TF.SameCoordinates,Original*%
%TF.FileFunction,Legend,Bot*%
%TF.FilePolarity,Positive*%
%FSLAX46Y46*%
G04 Gerber Fmt 4.6, Leading zero omitted, Abs format (unit mm)*
G04 Created by KiCad (PCBNEW 7.0.8) date 2023-10-07 23:46:44*
%MOMM*%
%LPD*%
G01*
G04 APERTURE LIST*
%ADD10C,0.150000*%
%ADD11C,0.300000*%
%ADD12C,0.120000*%
G04 APERTURE END LIST*
D10*
X139077506Y-113169819D02*
X139077506Y-113884104D01*
X139077506Y-113884104D02*
X139125125Y-114026961D01*
X139125125Y-114026961D02*
X139220363Y-114122200D01*
X139220363Y-114122200D02*
X139363220Y-114169819D01*
X139363220Y-114169819D02*
X139458458Y-114169819D01*
X138125125Y-114169819D02*
X138601315Y-114169819D01*
X138601315Y-114169819D02*
X138601315Y-113169819D01*
X137220363Y-114074580D02*
X137267982Y-114122200D01*
X137267982Y-114122200D02*
X137410839Y-114169819D01*
X137410839Y-114169819D02*
X137506077Y-114169819D01*
X137506077Y-114169819D02*
X137648934Y-114122200D01*
X137648934Y-114122200D02*
X137744172Y-114026961D01*
X137744172Y-114026961D02*
X137791791Y-113931723D01*
X137791791Y-113931723D02*
X137839410Y-113741247D01*
X137839410Y-113741247D02*
X137839410Y-113598390D01*
X137839410Y-113598390D02*
X137791791Y-113407914D01*
X137791791Y-113407914D02*
X137744172Y-113312676D01*
X137744172Y-113312676D02*
X137648934Y-113217438D01*
X137648934Y-113217438D02*
X137506077Y-113169819D01*
X137506077Y-113169819D02*
X137410839Y-113169819D01*
X137410839Y-113169819D02*
X137267982Y-113217438D01*
X137267982Y-113217438D02*
X137220363Y-113265057D01*
X136506077Y-113169819D02*
X136506077Y-113884104D01*
X136506077Y-113884104D02*
X136553696Y-114026961D01*
X136553696Y-114026961D02*
X136648934Y-114122200D01*
X136648934Y-114122200D02*
X136791791Y-114169819D01*
X136791791Y-114169819D02*
X136887029Y-114169819D01*
X135553696Y-114169819D02*
X136029886Y-114169819D01*
X136029886Y-114169819D02*
X136029886Y-113169819D01*
X134648934Y-114074580D02*
X134696553Y-114122200D01*
X134696553Y-114122200D02*
X134839410Y-114169819D01*
X134839410Y-114169819D02*
X134934648Y-114169819D01*
X134934648Y-114169819D02*
X135077505Y-114122200D01*
X135077505Y-114122200D02*
X135172743Y-114026961D01*
X135172743Y-114026961D02*
X135220362Y-113931723D01*
X135220362Y-113931723D02*
X135267981Y-113741247D01*
X135267981Y-113741247D02*
X135267981Y-113598390D01*
X135267981Y-113598390D02*
X135220362Y-113407914D01*
X135220362Y-113407914D02*
X135172743Y-113312676D01*
X135172743Y-113312676D02*
X135077505Y-113217438D01*
X135077505Y-113217438D02*
X134934648Y-113169819D01*
X134934648Y-113169819D02*
X134839410Y-113169819D01*
X134839410Y-113169819D02*
X134696553Y-113217438D01*
X134696553Y-113217438D02*
X134648934Y-113265057D01*
X133934648Y-113169819D02*
X133934648Y-113884104D01*
X133934648Y-113884104D02*
X133982267Y-114026961D01*
X133982267Y-114026961D02*
X134077505Y-114122200D01*
X134077505Y-114122200D02*
X134220362Y-114169819D01*
X134220362Y-114169819D02*
X134315600Y-114169819D01*
X132982267Y-114169819D02*
X133458457Y-114169819D01*
X133458457Y-114169819D02*
X133458457Y-113169819D01*
X132077505Y-114074580D02*
X132125124Y-114122200D01*
X132125124Y-114122200D02*
X132267981Y-114169819D01*
X132267981Y-114169819D02*
X132363219Y-114169819D01*
X132363219Y-114169819D02*
X132506076Y-114122200D01*
X132506076Y-114122200D02*
X132601314Y-114026961D01*
X132601314Y-114026961D02*
X132648933Y-113931723D01*
X132648933Y-113931723D02*
X132696552Y-113741247D01*
X132696552Y-113741247D02*
X132696552Y-113598390D01*
X132696552Y-113598390D02*
X132648933Y-113407914D01*
X132648933Y-113407914D02*
X132601314Y-113312676D01*
X132601314Y-113312676D02*
X132506076Y-113217438D01*
X132506076Y-113217438D02*
X132363219Y-113169819D01*
X132363219Y-113169819D02*
X132267981Y-113169819D01*
X132267981Y-113169819D02*
X132125124Y-113217438D01*
X132125124Y-113217438D02*
X132077505Y-113265057D01*
X131363219Y-113169819D02*
X131363219Y-113884104D01*
X131363219Y-113884104D02*
X131410838Y-114026961D01*
X131410838Y-114026961D02*
X131506076Y-114122200D01*
X131506076Y-114122200D02*
X131648933Y-114169819D01*
X131648933Y-114169819D02*
X131744171Y-114169819D01*
X130410838Y-114169819D02*
X130887028Y-114169819D01*
X130887028Y-114169819D02*
X130887028Y-113169819D01*
X129506076Y-114074580D02*
X129553695Y-114122200D01*
X129553695Y-114122200D02*
X129696552Y-114169819D01*
X129696552Y-114169819D02*
X129791790Y-114169819D01*
X129791790Y-114169819D02*
X129934647Y-114122200D01*
X129934647Y-114122200D02*
X130029885Y-114026961D01*
X130029885Y-114026961D02*
X130077504Y-113931723D01*
X130077504Y-113931723D02*
X130125123Y-113741247D01*
X130125123Y-113741247D02*
X130125123Y-113598390D01*
X130125123Y-113598390D02*
X130077504Y-113407914D01*
X130077504Y-113407914D02*
X130029885Y-113312676D01*
X130029885Y-113312676D02*
X129934647Y-113217438D01*
X129934647Y-113217438D02*
X129791790Y-113169819D01*
X129791790Y-113169819D02*
X129696552Y-113169819D01*
X129696552Y-113169819D02*
X129553695Y-113217438D01*
X129553695Y-113217438D02*
X129506076Y-113265057D01*
D11*
X149305489Y-111560828D02*
X149305489Y-110060828D01*
X149305489Y-110775114D02*
X148448346Y-110775114D01*
X148448346Y-111560828D02*
X148448346Y-110060828D01*
X147948345Y-110060828D02*
X147091203Y-110060828D01*
X147519774Y-111560828D02*
X147519774Y-110060828D01*
X146591203Y-111560828D02*
X146591203Y-110060828D01*
X146591203Y-110060828D02*
X146019774Y-110060828D01*
X146019774Y-110060828D02*
X145876917Y-110132257D01*
X145876917Y-110132257D02*
X145805488Y-110203685D01*
X145805488Y-110203685D02*
X145734060Y-110346542D01*
X145734060Y-110346542D02*
X145734060Y-110560828D01*
X145734060Y-110560828D02*
X145805488Y-110703685D01*
X145805488Y-110703685D02*
X145876917Y-110775114D01*
X145876917Y-110775114D02*
X146019774Y-110846542D01*
X146019774Y-110846542D02*
X146591203Y-110846542D01*
X145091203Y-111417971D02*
X145019774Y-111489400D01*
X145019774Y-111489400D02*
X145091203Y-111560828D01*
X145091203Y-111560828D02*
X145162631Y-111489400D01*
X145162631Y-111489400D02*
X145091203Y-111417971D01*
X145091203Y-111417971D02*
X145091203Y-111560828D01*
X145091203Y-110989400D02*
X145162631Y-110132257D01*
X145162631Y-110132257D02*
X145091203Y-110060828D01*
X145091203Y-110060828D02*
X145019774Y-110132257D01*
X145019774Y-110132257D02*
X145091203Y-110989400D01*
X145091203Y-110989400D02*
X145091203Y-110060828D01*
X144376917Y-111560828D02*
X144376917Y-110560828D01*
X144376917Y-110703685D02*
X144305488Y-110632257D01*
X144305488Y-110632257D02*
X144162631Y-110560828D01*
X144162631Y-110560828D02*
X143948345Y-110560828D01*
X143948345Y-110560828D02*
X143805488Y-110632257D01*
X143805488Y-110632257D02*
X143734060Y-110775114D01*
X143734060Y-110775114D02*
X143734060Y-111560828D01*
X143734060Y-110775114D02*
X143662631Y-110632257D01*
X143662631Y-110632257D02*
X143519774Y-110560828D01*
X143519774Y-110560828D02*
X143305488Y-110560828D01*
X143305488Y-110560828D02*
X143162631Y-110632257D01*
X143162631Y-110632257D02*
X143091202Y-110775114D01*
X143091202Y-110775114D02*
X143091202Y-111560828D01*
X140376917Y-111417971D02*
X140448345Y-111489400D01*
X140448345Y-111489400D02*
X140662631Y-111560828D01*
X140662631Y-111560828D02*
X140805488Y-111560828D01*
X140805488Y-111560828D02*
X141019774Y-111489400D01*
X141019774Y-111489400D02*
X141162631Y-111346542D01*
X141162631Y-111346542D02*
X141234060Y-111203685D01*
X141234060Y-111203685D02*
X141305488Y-110917971D01*
X141305488Y-110917971D02*
X141305488Y-110703685D01*
X141305488Y-110703685D02*
X141234060Y-110417971D01*
X141234060Y-110417971D02*
X141162631Y-110275114D01*
X141162631Y-110275114D02*
X141019774Y-110132257D01*
X141019774Y-110132257D02*
X140805488Y-110060828D01*
X140805488Y-110060828D02*
X140662631Y-110060828D01*
X140662631Y-110060828D02*
X140448345Y-110132257D01*
X140448345Y-110132257D02*
X140376917Y-110203685D01*
X139448345Y-110060828D02*
X139162631Y-110060828D01*
X139162631Y-110060828D02*
X139019774Y-110132257D01*
X139019774Y-110132257D02*
X138876917Y-110275114D01*
X138876917Y-110275114D02*
X138805488Y-110560828D01*
X138805488Y-110560828D02*
X138805488Y-111060828D01*
X138805488Y-111060828D02*
X138876917Y-111346542D01*
X138876917Y-111346542D02*
X139019774Y-111489400D01*
X139019774Y-111489400D02*
X139162631Y-111560828D01*
X139162631Y-111560828D02*
X139448345Y-111560828D01*
X139448345Y-111560828D02*
X139591203Y-111489400D01*
X139591203Y-111489400D02*
X139734060Y-111346542D01*
X139734060Y-111346542D02*
X139805488Y-111060828D01*
X139805488Y-111060828D02*
X139805488Y-110560828D01*
X139805488Y-110560828D02*
X139734060Y-110275114D01*
X139734060Y-110275114D02*
X139591203Y-110132257D01*
X139591203Y-110132257D02*
X139448345Y-110060828D01*
X138162631Y-111560828D02*
X138162631Y-110060828D01*
X138162631Y-110060828D02*
X137305488Y-111560828D01*
X137305488Y-111560828D02*
X137305488Y-110060828D01*
X136805487Y-110060828D02*
X135948345Y-110060828D01*
X136376916Y-111560828D02*
X136376916Y-110060828D01*
X134591202Y-111560828D02*
X135091202Y-110846542D01*
X135448345Y-111560828D02*
X135448345Y-110060828D01*
X135448345Y-110060828D02*
X134876916Y-110060828D01*
X134876916Y-110060828D02*
X134734059Y-110132257D01*
X134734059Y-110132257D02*
X134662630Y-110203685D01*
X134662630Y-110203685D02*
X134591202Y-110346542D01*
X134591202Y-110346542D02*
X134591202Y-110560828D01*
X134591202Y-110560828D02*
X134662630Y-110703685D01*
X134662630Y-110703685D02*
X134734059Y-110775114D01*
X134734059Y-110775114D02*
X134876916Y-110846542D01*
X134876916Y-110846542D02*
X135448345Y-110846542D01*
X133662630Y-110060828D02*
X133376916Y-110060828D01*
X133376916Y-110060828D02*
X133234059Y-110132257D01*
X133234059Y-110132257D02*
X133091202Y-110275114D01*
X133091202Y-110275114D02*
X133019773Y-110560828D01*
X133019773Y-110560828D02*
X133019773Y-111060828D01*
X133019773Y-111060828D02*
X133091202Y-111346542D01*
X133091202Y-111346542D02*
X133234059Y-111489400D01*
X133234059Y-111489400D02*
X133376916Y-111560828D01*
X133376916Y-111560828D02*
X133662630Y-111560828D01*
X133662630Y-111560828D02*
X133805488Y-111489400D01*
X133805488Y-111489400D02*
X133948345Y-111346542D01*
X133948345Y-111346542D02*
X134019773Y-111060828D01*
X134019773Y-111060828D02*
X134019773Y-110560828D01*
X134019773Y-110560828D02*
X133948345Y-110275114D01*
X133948345Y-110275114D02*
X133805488Y-110132257D01*
X133805488Y-110132257D02*
X133662630Y-110060828D01*
X131662630Y-111560828D02*
X132376916Y-111560828D01*
X132376916Y-111560828D02*
X132376916Y-110060828D01*
X130019773Y-111560828D02*
X130019773Y-110060828D01*
X130019773Y-110060828D02*
X129519773Y-111132257D01*
X129519773Y-111132257D02*
X129019773Y-110060828D01*
X129019773Y-110060828D02*
X129019773Y-111560828D01*
X128091201Y-111560828D02*
X128234058Y-111489400D01*
X128234058Y-111489400D02*
X128305487Y-111417971D01*
X128305487Y-111417971D02*
X128376915Y-111275114D01*
X128376915Y-111275114D02*
X128376915Y-110846542D01*
X128376915Y-110846542D02*
X128305487Y-110703685D01*
X128305487Y-110703685D02*
X128234058Y-110632257D01*
X128234058Y-110632257D02*
X128091201Y-110560828D01*
X128091201Y-110560828D02*
X127876915Y-110560828D01*
X127876915Y-110560828D02*
X127734058Y-110632257D01*
X127734058Y-110632257D02*
X127662630Y-110703685D01*
X127662630Y-110703685D02*
X127591201Y-110846542D01*
X127591201Y-110846542D02*
X127591201Y-111275114D01*
X127591201Y-111275114D02*
X127662630Y-111417971D01*
X127662630Y-111417971D02*
X127734058Y-111489400D01*
X127734058Y-111489400D02*
X127876915Y-111560828D01*
X127876915Y-111560828D02*
X128091201Y-111560828D01*
X126305487Y-111560828D02*
X126305487Y-110060828D01*
X126305487Y-111489400D02*
X126448344Y-111560828D01*
X126448344Y-111560828D02*
X126734058Y-111560828D01*
X126734058Y-111560828D02*
X126876915Y-111489400D01*
X126876915Y-111489400D02*
X126948344Y-111417971D01*
X126948344Y-111417971D02*
X127019772Y-111275114D01*
X127019772Y-111275114D02*
X127019772Y-110846542D01*
X127019772Y-110846542D02*
X126948344Y-110703685D01*
X126948344Y-110703685D02*
X126876915Y-110632257D01*
X126876915Y-110632257D02*
X126734058Y-110560828D01*
X126734058Y-110560828D02*
X126448344Y-110560828D01*
X126448344Y-110560828D02*
X126305487Y-110632257D01*
X124948344Y-110560828D02*
X124948344Y-111560828D01*
X125591201Y-110560828D02*
X125591201Y-111346542D01*
X125591201Y-111346542D02*
X125519772Y-111489400D01*
X125519772Y-111489400D02*
X125376915Y-111560828D01*
X125376915Y-111560828D02*
X125162629Y-111560828D01*
X125162629Y-111560828D02*
X125019772Y-111489400D01*
X125019772Y-111489400D02*
X124948344Y-111417971D01*
X124019772Y-111560828D02*
X124162629Y-111489400D01*
X124162629Y-111489400D02*
X124234058Y-111346542D01*
X124234058Y-111346542D02*
X124234058Y-110060828D01*
X122876915Y-111489400D02*
X123019772Y-111560828D01*
X123019772Y-111560828D02*
X123305487Y-111560828D01*
X123305487Y-111560828D02*
X123448344Y-111489400D01*
X123448344Y-111489400D02*
X123519772Y-111346542D01*
X123519772Y-111346542D02*
X123519772Y-110775114D01*
X123519772Y-110775114D02*
X123448344Y-110632257D01*
X123448344Y-110632257D02*
X123305487Y-110560828D01*
X123305487Y-110560828D02*
X123019772Y-110560828D01*
X123019772Y-110560828D02*
X122876915Y-110632257D01*
X122876915Y-110632257D02*
X122805487Y-110775114D01*
X122805487Y-110775114D02*
X122805487Y-110917971D01*
X122805487Y-110917971D02*
X123519772Y-111060828D01*
X121019773Y-111560828D02*
X121019773Y-110060828D01*
X121019773Y-110060828D02*
X120662630Y-110060828D01*
X120662630Y-110060828D02*
X120448344Y-110132257D01*
X120448344Y-110132257D02*
X120305487Y-110275114D01*
X120305487Y-110275114D02*
X120234058Y-110417971D01*
X120234058Y-110417971D02*
X120162630Y-110703685D01*
X120162630Y-110703685D02*
X120162630Y-110917971D01*
X120162630Y-110917971D02*
X120234058Y-111203685D01*
X120234058Y-111203685D02*
X120305487Y-111346542D01*
X120305487Y-111346542D02*
X120448344Y-111489400D01*
X120448344Y-111489400D02*
X120662630Y-111560828D01*
X120662630Y-111560828D02*
X121019773Y-111560828D01*
X119519773Y-111560828D02*
X119519773Y-110560828D01*
X119519773Y-110060828D02*
X119591201Y-110132257D01*
X119591201Y-110132257D02*
X119519773Y-110203685D01*
X119519773Y-110203685D02*
X119448344Y-110132257D01*
X119448344Y-110132257D02*
X119519773Y-110060828D01*
X119519773Y-110060828D02*
X119519773Y-110203685D01*
X118876915Y-111489400D02*
X118734058Y-111560828D01*
X118734058Y-111560828D02*
X118448344Y-111560828D01*
X118448344Y-111560828D02*
X118305487Y-111489400D01*
X118305487Y-111489400D02*
X118234058Y-111346542D01*
X118234058Y-111346542D02*
X118234058Y-111275114D01*
X118234058Y-111275114D02*
X118305487Y-111132257D01*
X118305487Y-111132257D02*
X118448344Y-111060828D01*
X118448344Y-111060828D02*
X118662630Y-111060828D01*
X118662630Y-111060828D02*
X118805487Y-110989400D01*
X118805487Y-110989400D02*
X118876915Y-110846542D01*
X118876915Y-110846542D02*
X118876915Y-110775114D01*
X118876915Y-110775114D02*
X118805487Y-110632257D01*
X118805487Y-110632257D02*
X118662630Y-110560828D01*
X118662630Y-110560828D02*
X118448344Y-110560828D01*
X118448344Y-110560828D02*
X118305487Y-110632257D01*
X117591201Y-110560828D02*
X117591201Y-112060828D01*
X117591201Y-110632257D02*
X117448344Y-110560828D01*
X117448344Y-110560828D02*
X117162629Y-110560828D01*
X117162629Y-110560828D02*
X117019772Y-110632257D01*
X117019772Y-110632257D02*
X116948344Y-110703685D01*
X116948344Y-110703685D02*
X116876915Y-110846542D01*
X116876915Y-110846542D02*
X116876915Y-111275114D01*
X116876915Y-111275114D02*
X116948344Y-111417971D01*
X116948344Y-111417971D02*
X117019772Y-111489400D01*
X117019772Y-111489400D02*
X117162629Y-111560828D01*
X117162629Y-111560828D02*
X117448344Y-111560828D01*
X117448344Y-111560828D02*
X117591201Y-111489400D01*
X116019772Y-111560828D02*
X116162629Y-111489400D01*
X116162629Y-111489400D02*
X116234058Y-111346542D01*
X116234058Y-111346542D02*
X116234058Y-110060828D01*
X114805487Y-111560828D02*
X114805487Y-110775114D01*
X114805487Y-110775114D02*
X114876915Y-110632257D01*
X114876915Y-110632257D02*
X115019772Y-110560828D01*
X115019772Y-110560828D02*
X115305487Y-110560828D01*
X115305487Y-110560828D02*
X115448344Y-110632257D01*
X114805487Y-111489400D02*
X114948344Y-111560828D01*
X114948344Y-111560828D02*
X115305487Y-111560828D01*
X115305487Y-111560828D02*
X115448344Y-111489400D01*
X115448344Y-111489400D02*
X115519772Y-111346542D01*
X115519772Y-111346542D02*
X115519772Y-111203685D01*
X115519772Y-111203685D02*
X115448344Y-111060828D01*
X115448344Y-111060828D02*
X115305487Y-110989400D01*
X115305487Y-110989400D02*
X114948344Y-110989400D01*
X114948344Y-110989400D02*
X114805487Y-110917971D01*
X114234058Y-110560828D02*
X113876915Y-111560828D01*
X113519772Y-110560828D02*
X113876915Y-111560828D01*
X113876915Y-111560828D02*
X114019772Y-111917971D01*
X114019772Y-111917971D02*
X114091201Y-111989400D01*
X114091201Y-111989400D02*
X114234058Y-112060828D01*
D10*
X159354819Y-111815714D02*
X158354819Y-111815714D01*
X158354819Y-111815714D02*
X158354819Y-112053809D01*
X158354819Y-112053809D02*
X158402438Y-112196666D01*
X158402438Y-112196666D02*
X158497676Y-112291904D01*
X158497676Y-112291904D02*
X158592914Y-112339523D01*
X158592914Y-112339523D02*
X158783390Y-112387142D01*
X158783390Y-112387142D02*
X158926247Y-112387142D01*
X158926247Y-112387142D02*
X159116723Y-112339523D01*
X159116723Y-112339523D02*
X159211961Y-112291904D01*
X159211961Y-112291904D02*
X159307200Y-112196666D01*
X159307200Y-112196666D02*
X159354819Y-112053809D01*
X159354819Y-112053809D02*
X159354819Y-111815714D01*
X159354819Y-113339523D02*
X159354819Y-112768095D01*
X159354819Y-113053809D02*
X158354819Y-113053809D01*
X158354819Y-113053809D02*
X158497676Y-112958571D01*
X158497676Y-112958571D02*
X158592914Y-112863333D01*
X158592914Y-112863333D02*
X158640533Y-112768095D01*
X158354819Y-114244285D02*
X158354819Y-113768095D01*
X158354819Y-113768095D02*
X158831009Y-113720476D01*
X158831009Y-113720476D02*
X158783390Y-113768095D01*
X158783390Y-113768095D02*
X158735771Y-113863333D01*
X158735771Y-113863333D02*
X158735771Y-114101428D01*
X158735771Y-114101428D02*
X158783390Y-114196666D01*
X158783390Y-114196666D02*
X158831009Y-114244285D01*
X158831009Y-114244285D02*
X158926247Y-114291904D01*
X158926247Y-114291904D02*
X159164342Y-114291904D01*
X159164342Y-114291904D02*
X159259580Y-114244285D01*
X159259580Y-114244285D02*
X159307200Y-114196666D01*
X159307200Y-114196666D02*
X159354819Y-114101428D01*
X159354819Y-114101428D02*
X159354819Y-113863333D01*
X159354819Y-113863333D02*
X159307200Y-113768095D01*
X159307200Y-113768095D02*
X159259580Y-113720476D01*
X138734819Y-104671905D02*
X137734819Y-104671905D01*
X137734819Y-104671905D02*
X137734819Y-104910000D01*
X137734819Y-104910000D02*
X137782438Y-105052857D01*
X137782438Y-105052857D02*
X137877676Y-105148095D01*
X137877676Y-105148095D02*
X137972914Y-105195714D01*
X137972914Y-105195714D02*
X138163390Y-105243333D01*
X138163390Y-105243333D02*
X138306247Y-105243333D01*
X138306247Y-105243333D02*
X138496723Y-105195714D01*
X138496723Y-105195714D02*
X138591961Y-105148095D01*
X138591961Y-105148095D02*
X138687200Y-105052857D01*
X138687200Y-105052857D02*
X138734819Y-104910000D01*
X138734819Y-104910000D02*
X138734819Y-104671905D01*
X137830057Y-105624286D02*
X137782438Y-105671905D01*
X137782438Y-105671905D02*
X137734819Y-105767143D01*
X137734819Y-105767143D02*
X137734819Y-106005238D01*
X137734819Y-106005238D02*
X137782438Y-106100476D01*
X137782438Y-106100476D02*
X137830057Y-106148095D01*
X137830057Y-106148095D02*
X137925295Y-106195714D01*
X137925295Y-106195714D02*
X138020533Y-106195714D01*
X138020533Y-106195714D02*
X138163390Y-106148095D01*
X138163390Y-106148095D02*
X138734819Y-105576667D01*
X138734819Y-105576667D02*
X138734819Y-106195714D01*
X130976666Y-79814819D02*
X131309999Y-79338628D01*
X131548094Y-79814819D02*
X131548094Y-78814819D01*
X131548094Y-78814819D02*
X131167142Y-78814819D01*
X131167142Y-78814819D02*
X131071904Y-78862438D01*
X131071904Y-78862438D02*
X131024285Y-78910057D01*
X131024285Y-78910057D02*
X130976666Y-79005295D01*
X130976666Y-79005295D02*
X130976666Y-79148152D01*
X130976666Y-79148152D02*
X131024285Y-79243390D01*
X131024285Y-79243390D02*
X131071904Y-79291009D01*
X131071904Y-79291009D02*
X131167142Y-79338628D01*
X131167142Y-79338628D02*
X131548094Y-79338628D01*
X130024285Y-79814819D02*
X130595713Y-79814819D01*
X130309999Y-79814819D02*
X130309999Y-78814819D01*
X130309999Y-78814819D02*
X130405237Y-78957676D01*
X130405237Y-78957676D02*
X130500475Y-79052914D01*
X130500475Y-79052914D02*
X130595713Y-79100533D01*
X138734819Y-81811905D02*
X137734819Y-81811905D01*
X137734819Y-81811905D02*
X137734819Y-82050000D01*
X137734819Y-82050000D02*
X137782438Y-82192857D01*
X137782438Y-82192857D02*
X137877676Y-82288095D01*
X137877676Y-82288095D02*
X137972914Y-82335714D01*
X137972914Y-82335714D02*
X138163390Y-82383333D01*
X138163390Y-82383333D02*
X138306247Y-82383333D01*
X138306247Y-82383333D02*
X138496723Y-82335714D01*
X138496723Y-82335714D02*
X138591961Y-82288095D01*
X138591961Y-82288095D02*
X138687200Y-82192857D01*
X138687200Y-82192857D02*
X138734819Y-82050000D01*
X138734819Y-82050000D02*
X138734819Y-81811905D01*
X138734819Y-83335714D02*
X138734819Y-82764286D01*
X138734819Y-83050000D02*
X137734819Y-83050000D01*
X137734819Y-83050000D02*
X137877676Y-82954762D01*
X137877676Y-82954762D02*
X137972914Y-82859524D01*
X137972914Y-82859524D02*
X138020533Y-82764286D01*
X159054819Y-104195714D02*
X158054819Y-104195714D01*
X158054819Y-104195714D02*
X158054819Y-104433809D01*
X158054819Y-104433809D02*
X158102438Y-104576666D01*
X158102438Y-104576666D02*
X158197676Y-104671904D01*
X158197676Y-104671904D02*
X158292914Y-104719523D01*
X158292914Y-104719523D02*
X158483390Y-104767142D01*
X158483390Y-104767142D02*
X158626247Y-104767142D01*
X158626247Y-104767142D02*
X158816723Y-104719523D01*
X158816723Y-104719523D02*
X158911961Y-104671904D01*
X158911961Y-104671904D02*
X159007200Y-104576666D01*
X159007200Y-104576666D02*
X159054819Y-104433809D01*
X159054819Y-104433809D02*
X159054819Y-104195714D01*
X159054819Y-105719523D02*
X159054819Y-105148095D01*
X159054819Y-105433809D02*
X158054819Y-105433809D01*
X158054819Y-105433809D02*
X158197676Y-105338571D01*
X158197676Y-105338571D02*
X158292914Y-105243333D01*
X158292914Y-105243333D02*
X158340533Y-105148095D01*
X158150057Y-106100476D02*
X158102438Y-106148095D01*
X158102438Y-106148095D02*
X158054819Y-106243333D01*
X158054819Y-106243333D02*
X158054819Y-106481428D01*
X158054819Y-106481428D02*
X158102438Y-106576666D01*
X158102438Y-106576666D02*
X158150057Y-106624285D01*
X158150057Y-106624285D02*
X158245295Y-106671904D01*
X158245295Y-106671904D02*
X158340533Y-106671904D01*
X158340533Y-106671904D02*
X158483390Y-106624285D01*
X158483390Y-106624285D02*
X159054819Y-106052857D01*
X159054819Y-106052857D02*
X159054819Y-106671904D01*
X166674819Y-81811905D02*
X165674819Y-81811905D01*
X165674819Y-81811905D02*
X165674819Y-82050000D01*
X165674819Y-82050000D02*
X165722438Y-82192857D01*
X165722438Y-82192857D02*
X165817676Y-82288095D01*
X165817676Y-82288095D02*
X165912914Y-82335714D01*
X165912914Y-82335714D02*
X166103390Y-82383333D01*
X166103390Y-82383333D02*
X166246247Y-82383333D01*
X166246247Y-82383333D02*
X166436723Y-82335714D01*
X166436723Y-82335714D02*
X166531961Y-82288095D01*
X166531961Y-82288095D02*
X166627200Y-82192857D01*
X166627200Y-82192857D02*
X166674819Y-82050000D01*
X166674819Y-82050000D02*
X166674819Y-81811905D01*
X165674819Y-83288095D02*
X165674819Y-82811905D01*
X165674819Y-82811905D02*
X166151009Y-82764286D01*
X166151009Y-82764286D02*
X166103390Y-82811905D01*
X166103390Y-82811905D02*
X166055771Y-82907143D01*
X166055771Y-82907143D02*
X166055771Y-83145238D01*
X166055771Y-83145238D02*
X166103390Y-83240476D01*
X166103390Y-83240476D02*
X166151009Y-83288095D01*
X166151009Y-83288095D02*
X166246247Y-83335714D01*
X166246247Y-83335714D02*
X166484342Y-83335714D01*
X166484342Y-83335714D02*
X166579580Y-83288095D01*
X166579580Y-83288095D02*
X166627200Y-83240476D01*
X166627200Y-83240476D02*
X166674819Y-83145238D01*
X166674819Y-83145238D02*
X166674819Y-82907143D01*
X166674819Y-82907143D02*
X166627200Y-82811905D01*
X166627200Y-82811905D02*
X166579580Y-82764286D01*
X174294819Y-81811905D02*
X173294819Y-81811905D01*
X173294819Y-81811905D02*
X173294819Y-82050000D01*
X173294819Y-82050000D02*
X173342438Y-82192857D01*
X173342438Y-82192857D02*
X173437676Y-82288095D01*
X173437676Y-82288095D02*
X173532914Y-82335714D01*
X173532914Y-82335714D02*
X173723390Y-82383333D01*
X173723390Y-82383333D02*
X173866247Y-82383333D01*
X173866247Y-82383333D02*
X174056723Y-82335714D01*
X174056723Y-82335714D02*
X174151961Y-82288095D01*
X174151961Y-82288095D02*
X174247200Y-82192857D01*
X174247200Y-82192857D02*
X174294819Y-82050000D01*
X174294819Y-82050000D02*
X174294819Y-81811905D01*
X173294819Y-83240476D02*
X173294819Y-83050000D01*
X173294819Y-83050000D02*
X173342438Y-82954762D01*
X173342438Y-82954762D02*
X173390057Y-82907143D01*
X173390057Y-82907143D02*
X173532914Y-82811905D01*
X173532914Y-82811905D02*
X173723390Y-82764286D01*
X173723390Y-82764286D02*
X174104342Y-82764286D01*
X174104342Y-82764286D02*
X174199580Y-82811905D01*
X174199580Y-82811905D02*
X174247200Y-82859524D01*
X174247200Y-82859524D02*
X174294819Y-82954762D01*
X174294819Y-82954762D02*
X174294819Y-83145238D01*
X174294819Y-83145238D02*
X174247200Y-83240476D01*
X174247200Y-83240476D02*
X174199580Y-83288095D01*
X174199580Y-83288095D02*
X174104342Y-83335714D01*
X174104342Y-83335714D02*
X173866247Y-83335714D01*
X173866247Y-83335714D02*
X173771009Y-83288095D01*
X173771009Y-83288095D02*
X173723390Y-83240476D01*
X173723390Y-83240476D02*
X173675771Y-83145238D01*
X173675771Y-83145238D02*
X173675771Y-82954762D01*
X173675771Y-82954762D02*
X173723390Y-82859524D01*
X173723390Y-82859524D02*
X173771009Y-82811905D01*
X173771009Y-82811905D02*
X173866247Y-82764286D01*
X166974819Y-89431905D02*
X165974819Y-89431905D01*
X165974819Y-89431905D02*
X165974819Y-89670000D01*
X165974819Y-89670000D02*
X166022438Y-89812857D01*
X166022438Y-89812857D02*
X166117676Y-89908095D01*
X166117676Y-89908095D02*
X166212914Y-89955714D01*
X166212914Y-89955714D02*
X166403390Y-90003333D01*
X166403390Y-90003333D02*
X166546247Y-90003333D01*
X166546247Y-90003333D02*
X166736723Y-89955714D01*
X166736723Y-89955714D02*
X166831961Y-89908095D01*
X166831961Y-89908095D02*
X166927200Y-89812857D01*
X166927200Y-89812857D02*
X166974819Y-89670000D01*
X166974819Y-89670000D02*
X166974819Y-89431905D01*
X166403390Y-90574762D02*
X166355771Y-90479524D01*
X166355771Y-90479524D02*
X166308152Y-90431905D01*
X166308152Y-90431905D02*
X166212914Y-90384286D01*
X166212914Y-90384286D02*
X166165295Y-90384286D01*
X166165295Y-90384286D02*
X166070057Y-90431905D01*
X166070057Y-90431905D02*
X166022438Y-90479524D01*
X166022438Y-90479524D02*
X165974819Y-90574762D01*
X165974819Y-90574762D02*
X165974819Y-90765238D01*
X165974819Y-90765238D02*
X166022438Y-90860476D01*
X166022438Y-90860476D02*
X166070057Y-90908095D01*
X166070057Y-90908095D02*
X166165295Y-90955714D01*
X166165295Y-90955714D02*
X166212914Y-90955714D01*
X166212914Y-90955714D02*
X166308152Y-90908095D01*
X166308152Y-90908095D02*
X166355771Y-90860476D01*
X166355771Y-90860476D02*
X166403390Y-90765238D01*
X166403390Y-90765238D02*
X166403390Y-90574762D01*
X166403390Y-90574762D02*
X166451009Y-90479524D01*
X166451009Y-90479524D02*
X166498628Y-90431905D01*
X166498628Y-90431905D02*
X166593866Y-90384286D01*
X166593866Y-90384286D02*
X166784342Y-90384286D01*
X166784342Y-90384286D02*
X166879580Y-90431905D01*
X166879580Y-90431905D02*
X166927200Y-90479524D01*
X166927200Y-90479524D02*
X166974819Y-90574762D01*
X166974819Y-90574762D02*
X166974819Y-90765238D01*
X166974819Y-90765238D02*
X166927200Y-90860476D01*
X166927200Y-90860476D02*
X166879580Y-90908095D01*
X166879580Y-90908095D02*
X166784342Y-90955714D01*
X166784342Y-90955714D02*
X166593866Y-90955714D01*
X166593866Y-90955714D02*
X166498628Y-90908095D01*
X166498628Y-90908095D02*
X166451009Y-90860476D01*
X166451009Y-90860476D02*
X166403390Y-90765238D01*
X174594819Y-111815714D02*
X173594819Y-111815714D01*
X173594819Y-111815714D02*
X173594819Y-112053809D01*
X173594819Y-112053809D02*
X173642438Y-112196666D01*
X173642438Y-112196666D02*
X173737676Y-112291904D01*
X173737676Y-112291904D02*
X173832914Y-112339523D01*
X173832914Y-112339523D02*
X174023390Y-112387142D01*
X174023390Y-112387142D02*
X174166247Y-112387142D01*
X174166247Y-112387142D02*
X174356723Y-112339523D01*
X174356723Y-112339523D02*
X174451961Y-112291904D01*
X174451961Y-112291904D02*
X174547200Y-112196666D01*
X174547200Y-112196666D02*
X174594819Y-112053809D01*
X174594819Y-112053809D02*
X174594819Y-111815714D01*
X174594819Y-113339523D02*
X174594819Y-112768095D01*
X174594819Y-113053809D02*
X173594819Y-113053809D01*
X173594819Y-113053809D02*
X173737676Y-112958571D01*
X173737676Y-112958571D02*
X173832914Y-112863333D01*
X173832914Y-112863333D02*
X173880533Y-112768095D01*
X173594819Y-113672857D02*
X173594819Y-114339523D01*
X173594819Y-114339523D02*
X174594819Y-113910952D01*
X133594819Y-75866666D02*
X134309104Y-75866666D01*
X134309104Y-75866666D02*
X134451961Y-75819047D01*
X134451961Y-75819047D02*
X134547200Y-75723809D01*
X134547200Y-75723809D02*
X134594819Y-75580952D01*
X134594819Y-75580952D02*
X134594819Y-75485714D01*
X134594819Y-76866666D02*
X134594819Y-76295238D01*
X134594819Y-76580952D02*
X133594819Y-76580952D01*
X133594819Y-76580952D02*
X133737676Y-76485714D01*
X133737676Y-76485714D02*
X133832914Y-76390476D01*
X133832914Y-76390476D02*
X133880533Y-76295238D01*
X145541904Y-113794819D02*
X145541904Y-112794819D01*
X145541904Y-113271009D02*
X144970476Y-113271009D01*
X144970476Y-113794819D02*
X144970476Y-112794819D01*
X144541904Y-112890057D02*
X144494285Y-112842438D01*
X144494285Y-112842438D02*
X144399047Y-112794819D01*
X144399047Y-112794819D02*
X144160952Y-112794819D01*
X144160952Y-112794819D02*
X144065714Y-112842438D01*
X144065714Y-112842438D02*
X144018095Y-112890057D01*
X144018095Y-112890057D02*
X143970476Y-112985295D01*
X143970476Y-112985295D02*
X143970476Y-113080533D01*
X143970476Y-113080533D02*
X144018095Y-113223390D01*
X144018095Y-113223390D02*
X144589523Y-113794819D01*
X144589523Y-113794819D02*
X143970476Y-113794819D01*
X144946666Y-97594819D02*
X145279999Y-97118628D01*
X145518094Y-97594819D02*
X145518094Y-96594819D01*
X145518094Y-96594819D02*
X145137142Y-96594819D01*
X145137142Y-96594819D02*
X145041904Y-96642438D01*
X145041904Y-96642438D02*
X144994285Y-96690057D01*
X144994285Y-96690057D02*
X144946666Y-96785295D01*
X144946666Y-96785295D02*
X144946666Y-96928152D01*
X144946666Y-96928152D02*
X144994285Y-97023390D01*
X144994285Y-97023390D02*
X145041904Y-97071009D01*
X145041904Y-97071009D02*
X145137142Y-97118628D01*
X145137142Y-97118628D02*
X145518094Y-97118628D01*
X144613332Y-96594819D02*
X143994285Y-96594819D01*
X143994285Y-96594819D02*
X144327618Y-96975771D01*
X144327618Y-96975771D02*
X144184761Y-96975771D01*
X144184761Y-96975771D02*
X144089523Y-97023390D01*
X144089523Y-97023390D02*
X144041904Y-97071009D01*
X144041904Y-97071009D02*
X143994285Y-97166247D01*
X143994285Y-97166247D02*
X143994285Y-97404342D01*
X143994285Y-97404342D02*
X144041904Y-97499580D01*
X144041904Y-97499580D02*
X144089523Y-97547200D01*
X144089523Y-97547200D02*
X144184761Y-97594819D01*
X144184761Y-97594819D02*
X144470475Y-97594819D01*
X144470475Y-97594819D02*
X144565713Y-97547200D01*
X144565713Y-97547200D02*
X144613332Y-97499580D01*
X174294819Y-104195714D02*
X173294819Y-104195714D01*
X173294819Y-104195714D02*
X173294819Y-104433809D01*
X173294819Y-104433809D02*
X173342438Y-104576666D01*
X173342438Y-104576666D02*
X173437676Y-104671904D01*
X173437676Y-104671904D02*
X173532914Y-104719523D01*
X173532914Y-104719523D02*
X173723390Y-104767142D01*
X173723390Y-104767142D02*
X173866247Y-104767142D01*
X173866247Y-104767142D02*
X174056723Y-104719523D01*
X174056723Y-104719523D02*
X174151961Y-104671904D01*
X174151961Y-104671904D02*
X174247200Y-104576666D01*
X174247200Y-104576666D02*
X174294819Y-104433809D01*
X174294819Y-104433809D02*
X174294819Y-104195714D01*
X174294819Y-105719523D02*
X174294819Y-105148095D01*
X174294819Y-105433809D02*
X173294819Y-105433809D01*
X173294819Y-105433809D02*
X173437676Y-105338571D01*
X173437676Y-105338571D02*
X173532914Y-105243333D01*
X173532914Y-105243333D02*
X173580533Y-105148095D01*
X173628152Y-106576666D02*
X174294819Y-106576666D01*
X173247200Y-106338571D02*
X173961485Y-106100476D01*
X173961485Y-106100476D02*
X173961485Y-106719523D01*
X182214819Y-88955714D02*
X181214819Y-88955714D01*
X181214819Y-88955714D02*
X181214819Y-89193809D01*
X181214819Y-89193809D02*
X181262438Y-89336666D01*
X181262438Y-89336666D02*
X181357676Y-89431904D01*
X181357676Y-89431904D02*
X181452914Y-89479523D01*
X181452914Y-89479523D02*
X181643390Y-89527142D01*
X181643390Y-89527142D02*
X181786247Y-89527142D01*
X181786247Y-89527142D02*
X181976723Y-89479523D01*
X181976723Y-89479523D02*
X182071961Y-89431904D01*
X182071961Y-89431904D02*
X182167200Y-89336666D01*
X182167200Y-89336666D02*
X182214819Y-89193809D01*
X182214819Y-89193809D02*
X182214819Y-88955714D01*
X182214819Y-90479523D02*
X182214819Y-89908095D01*
X182214819Y-90193809D02*
X181214819Y-90193809D01*
X181214819Y-90193809D02*
X181357676Y-90098571D01*
X181357676Y-90098571D02*
X181452914Y-90003333D01*
X181452914Y-90003333D02*
X181500533Y-89908095D01*
X181214819Y-91098571D02*
X181214819Y-91193809D01*
X181214819Y-91193809D02*
X181262438Y-91289047D01*
X181262438Y-91289047D02*
X181310057Y-91336666D01*
X181310057Y-91336666D02*
X181405295Y-91384285D01*
X181405295Y-91384285D02*
X181595771Y-91431904D01*
X181595771Y-91431904D02*
X181833866Y-91431904D01*
X181833866Y-91431904D02*
X182024342Y-91384285D01*
X182024342Y-91384285D02*
X182119580Y-91336666D01*
X182119580Y-91336666D02*
X182167200Y-91289047D01*
X182167200Y-91289047D02*
X182214819Y-91193809D01*
X182214819Y-91193809D02*
X182214819Y-91098571D01*
X182214819Y-91098571D02*
X182167200Y-91003333D01*
X182167200Y-91003333D02*
X182119580Y-90955714D01*
X182119580Y-90955714D02*
X182024342Y-90908095D01*
X182024342Y-90908095D02*
X181833866Y-90860476D01*
X181833866Y-90860476D02*
X181595771Y-90860476D01*
X181595771Y-90860476D02*
X181405295Y-90908095D01*
X181405295Y-90908095D02*
X181310057Y-90955714D01*
X181310057Y-90955714D02*
X181262438Y-91003333D01*
X181262438Y-91003333D02*
X181214819Y-91098571D01*
X159054819Y-81811905D02*
X158054819Y-81811905D01*
X158054819Y-81811905D02*
X158054819Y-82050000D01*
X158054819Y-82050000D02*
X158102438Y-82192857D01*
X158102438Y-82192857D02*
X158197676Y-82288095D01*
X158197676Y-82288095D02*
X158292914Y-82335714D01*
X158292914Y-82335714D02*
X158483390Y-82383333D01*
X158483390Y-82383333D02*
X158626247Y-82383333D01*
X158626247Y-82383333D02*
X158816723Y-82335714D01*
X158816723Y-82335714D02*
X158911961Y-82288095D01*
X158911961Y-82288095D02*
X159007200Y-82192857D01*
X159007200Y-82192857D02*
X159054819Y-82050000D01*
X159054819Y-82050000D02*
X159054819Y-81811905D01*
X158388152Y-83240476D02*
X159054819Y-83240476D01*
X158007200Y-83002381D02*
X158721485Y-82764286D01*
X158721485Y-82764286D02*
X158721485Y-83383333D01*
X151434819Y-81811905D02*
X150434819Y-81811905D01*
X150434819Y-81811905D02*
X150434819Y-82050000D01*
X150434819Y-82050000D02*
X150482438Y-82192857D01*
X150482438Y-82192857D02*
X150577676Y-82288095D01*
X150577676Y-82288095D02*
X150672914Y-82335714D01*
X150672914Y-82335714D02*
X150863390Y-82383333D01*
X150863390Y-82383333D02*
X151006247Y-82383333D01*
X151006247Y-82383333D02*
X151196723Y-82335714D01*
X151196723Y-82335714D02*
X151291961Y-82288095D01*
X151291961Y-82288095D02*
X151387200Y-82192857D01*
X151387200Y-82192857D02*
X151434819Y-82050000D01*
X151434819Y-82050000D02*
X151434819Y-81811905D01*
X150434819Y-82716667D02*
X150434819Y-83335714D01*
X150434819Y-83335714D02*
X150815771Y-83002381D01*
X150815771Y-83002381D02*
X150815771Y-83145238D01*
X150815771Y-83145238D02*
X150863390Y-83240476D01*
X150863390Y-83240476D02*
X150911009Y-83288095D01*
X150911009Y-83288095D02*
X151006247Y-83335714D01*
X151006247Y-83335714D02*
X151244342Y-83335714D01*
X151244342Y-83335714D02*
X151339580Y-83288095D01*
X151339580Y-83288095D02*
X151387200Y-83240476D01*
X151387200Y-83240476D02*
X151434819Y-83145238D01*
X151434819Y-83145238D02*
X151434819Y-82859524D01*
X151434819Y-82859524D02*
X151387200Y-82764286D01*
X151387200Y-82764286D02*
X151339580Y-82716667D01*
X166974819Y-111815714D02*
X165974819Y-111815714D01*
X165974819Y-111815714D02*
X165974819Y-112053809D01*
X165974819Y-112053809D02*
X166022438Y-112196666D01*
X166022438Y-112196666D02*
X166117676Y-112291904D01*
X166117676Y-112291904D02*
X166212914Y-112339523D01*
X166212914Y-112339523D02*
X166403390Y-112387142D01*
X166403390Y-112387142D02*
X166546247Y-112387142D01*
X166546247Y-112387142D02*
X166736723Y-112339523D01*
X166736723Y-112339523D02*
X166831961Y-112291904D01*
X166831961Y-112291904D02*
X166927200Y-112196666D01*
X166927200Y-112196666D02*
X166974819Y-112053809D01*
X166974819Y-112053809D02*
X166974819Y-111815714D01*
X166974819Y-113339523D02*
X166974819Y-112768095D01*
X166974819Y-113053809D02*
X165974819Y-113053809D01*
X165974819Y-113053809D02*
X166117676Y-112958571D01*
X166117676Y-112958571D02*
X166212914Y-112863333D01*
X166212914Y-112863333D02*
X166260533Y-112768095D01*
X165974819Y-114196666D02*
X165974819Y-114006190D01*
X165974819Y-114006190D02*
X166022438Y-113910952D01*
X166022438Y-113910952D02*
X166070057Y-113863333D01*
X166070057Y-113863333D02*
X166212914Y-113768095D01*
X166212914Y-113768095D02*
X166403390Y-113720476D01*
X166403390Y-113720476D02*
X166784342Y-113720476D01*
X166784342Y-113720476D02*
X166879580Y-113768095D01*
X166879580Y-113768095D02*
X166927200Y-113815714D01*
X166927200Y-113815714D02*
X166974819Y-113910952D01*
X166974819Y-113910952D02*
X166974819Y-114101428D01*
X166974819Y-114101428D02*
X166927200Y-114196666D01*
X166927200Y-114196666D02*
X166879580Y-114244285D01*
X166879580Y-114244285D02*
X166784342Y-114291904D01*
X166784342Y-114291904D02*
X166546247Y-114291904D01*
X166546247Y-114291904D02*
X166451009Y-114244285D01*
X166451009Y-114244285D02*
X166403390Y-114196666D01*
X166403390Y-114196666D02*
X166355771Y-114101428D01*
X166355771Y-114101428D02*
X166355771Y-113910952D01*
X166355771Y-113910952D02*
X166403390Y-113815714D01*
X166403390Y-113815714D02*
X166451009Y-113768095D01*
X166451009Y-113768095D02*
X166546247Y-113720476D01*
X182214819Y-111815714D02*
X181214819Y-111815714D01*
X181214819Y-111815714D02*
X181214819Y-112053809D01*
X181214819Y-112053809D02*
X181262438Y-112196666D01*
X181262438Y-112196666D02*
X181357676Y-112291904D01*
X181357676Y-112291904D02*
X181452914Y-112339523D01*
X181452914Y-112339523D02*
X181643390Y-112387142D01*
X181643390Y-112387142D02*
X181786247Y-112387142D01*
X181786247Y-112387142D02*
X181976723Y-112339523D01*
X181976723Y-112339523D02*
X182071961Y-112291904D01*
X182071961Y-112291904D02*
X182167200Y-112196666D01*
X182167200Y-112196666D02*
X182214819Y-112053809D01*
X182214819Y-112053809D02*
X182214819Y-111815714D01*
X182214819Y-113339523D02*
X182214819Y-112768095D01*
X182214819Y-113053809D02*
X181214819Y-113053809D01*
X181214819Y-113053809D02*
X181357676Y-112958571D01*
X181357676Y-112958571D02*
X181452914Y-112863333D01*
X181452914Y-112863333D02*
X181500533Y-112768095D01*
X181643390Y-113910952D02*
X181595771Y-113815714D01*
X181595771Y-113815714D02*
X181548152Y-113768095D01*
X181548152Y-113768095D02*
X181452914Y-113720476D01*
X181452914Y-113720476D02*
X181405295Y-113720476D01*
X181405295Y-113720476D02*
X181310057Y-113768095D01*
X181310057Y-113768095D02*
X181262438Y-113815714D01*
X181262438Y-113815714D02*
X181214819Y-113910952D01*
X181214819Y-113910952D02*
X181214819Y-114101428D01*
X181214819Y-114101428D02*
X181262438Y-114196666D01*
X181262438Y-114196666D02*
X181310057Y-114244285D01*
X181310057Y-114244285D02*
X181405295Y-114291904D01*
X181405295Y-114291904D02*
X181452914Y-114291904D01*
X181452914Y-114291904D02*
X181548152Y-114244285D01*
X181548152Y-114244285D02*
X181595771Y-114196666D01*
X181595771Y-114196666D02*
X181643390Y-114101428D01*
X181643390Y-114101428D02*
X181643390Y-113910952D01*
X181643390Y-113910952D02*
X181691009Y-113815714D01*
X181691009Y-113815714D02*
X181738628Y-113768095D01*
X181738628Y-113768095D02*
X181833866Y-113720476D01*
X181833866Y-113720476D02*
X182024342Y-113720476D01*
X182024342Y-113720476D02*
X182119580Y-113768095D01*
X182119580Y-113768095D02*
X182167200Y-113815714D01*
X182167200Y-113815714D02*
X182214819Y-113910952D01*
X182214819Y-113910952D02*
X182214819Y-114101428D01*
X182214819Y-114101428D02*
X182167200Y-114196666D01*
X182167200Y-114196666D02*
X182119580Y-114244285D01*
X182119580Y-114244285D02*
X182024342Y-114291904D01*
X182024342Y-114291904D02*
X181833866Y-114291904D01*
X181833866Y-114291904D02*
X181738628Y-114244285D01*
X181738628Y-114244285D02*
X181691009Y-114196666D01*
X181691009Y-114196666D02*
X181643390Y-114101428D01*
X174594819Y-89431905D02*
X173594819Y-89431905D01*
X173594819Y-89431905D02*
X173594819Y-89670000D01*
X173594819Y-89670000D02*
X173642438Y-89812857D01*
X173642438Y-89812857D02*
X173737676Y-89908095D01*
X173737676Y-89908095D02*
X173832914Y-89955714D01*
X173832914Y-89955714D02*
X174023390Y-90003333D01*
X174023390Y-90003333D02*
X174166247Y-90003333D01*
X174166247Y-90003333D02*
X174356723Y-89955714D01*
X174356723Y-89955714D02*
X174451961Y-89908095D01*
X174451961Y-89908095D02*
X174547200Y-89812857D01*
X174547200Y-89812857D02*
X174594819Y-89670000D01*
X174594819Y-89670000D02*
X174594819Y-89431905D01*
X174594819Y-90479524D02*
X174594819Y-90670000D01*
X174594819Y-90670000D02*
X174547200Y-90765238D01*
X174547200Y-90765238D02*
X174499580Y-90812857D01*
X174499580Y-90812857D02*
X174356723Y-90908095D01*
X174356723Y-90908095D02*
X174166247Y-90955714D01*
X174166247Y-90955714D02*
X173785295Y-90955714D01*
X173785295Y-90955714D02*
X173690057Y-90908095D01*
X173690057Y-90908095D02*
X173642438Y-90860476D01*
X173642438Y-90860476D02*
X173594819Y-90765238D01*
X173594819Y-90765238D02*
X173594819Y-90574762D01*
X173594819Y-90574762D02*
X173642438Y-90479524D01*
X173642438Y-90479524D02*
X173690057Y-90431905D01*
X173690057Y-90431905D02*
X173785295Y-90384286D01*
X173785295Y-90384286D02*
X174023390Y-90384286D01*
X174023390Y-90384286D02*
X174118628Y-90431905D01*
X174118628Y-90431905D02*
X174166247Y-90479524D01*
X174166247Y-90479524D02*
X174213866Y-90574762D01*
X174213866Y-90574762D02*
X174213866Y-90765238D01*
X174213866Y-90765238D02*
X174166247Y-90860476D01*
X174166247Y-90860476D02*
X174118628Y-90908095D01*
X174118628Y-90908095D02*
X174023390Y-90955714D01*
X166674819Y-104195714D02*
X165674819Y-104195714D01*
X165674819Y-104195714D02*
X165674819Y-104433809D01*
X165674819Y-104433809D02*
X165722438Y-104576666D01*
X165722438Y-104576666D02*
X165817676Y-104671904D01*
X165817676Y-104671904D02*
X165912914Y-104719523D01*
X165912914Y-104719523D02*
X166103390Y-104767142D01*
X166103390Y-104767142D02*
X166246247Y-104767142D01*
X166246247Y-104767142D02*
X166436723Y-104719523D01*
X166436723Y-104719523D02*
X166531961Y-104671904D01*
X166531961Y-104671904D02*
X166627200Y-104576666D01*
X166627200Y-104576666D02*
X166674819Y-104433809D01*
X166674819Y-104433809D02*
X166674819Y-104195714D01*
X166674819Y-105719523D02*
X166674819Y-105148095D01*
X166674819Y-105433809D02*
X165674819Y-105433809D01*
X165674819Y-105433809D02*
X165817676Y-105338571D01*
X165817676Y-105338571D02*
X165912914Y-105243333D01*
X165912914Y-105243333D02*
X165960533Y-105148095D01*
X165674819Y-106052857D02*
X165674819Y-106671904D01*
X165674819Y-106671904D02*
X166055771Y-106338571D01*
X166055771Y-106338571D02*
X166055771Y-106481428D01*
X166055771Y-106481428D02*
X166103390Y-106576666D01*
X166103390Y-106576666D02*
X166151009Y-106624285D01*
X166151009Y-106624285D02*
X166246247Y-106671904D01*
X166246247Y-106671904D02*
X166484342Y-106671904D01*
X166484342Y-106671904D02*
X166579580Y-106624285D01*
X166579580Y-106624285D02*
X166627200Y-106576666D01*
X166627200Y-106576666D02*
X166674819Y-106481428D01*
X166674819Y-106481428D02*
X166674819Y-106195714D01*
X166674819Y-106195714D02*
X166627200Y-106100476D01*
X166627200Y-106100476D02*
X166579580Y-106052857D01*
X133594819Y-119046666D02*
X134309104Y-119046666D01*
X134309104Y-119046666D02*
X134451961Y-118999047D01*
X134451961Y-118999047D02*
X134547200Y-118903809D01*
X134547200Y-118903809D02*
X134594819Y-118760952D01*
X134594819Y-118760952D02*
X134594819Y-118665714D01*
X133690057Y-119475238D02*
X133642438Y-119522857D01*
X133642438Y-119522857D02*
X133594819Y-119618095D01*
X133594819Y-119618095D02*
X133594819Y-119856190D01*
X133594819Y-119856190D02*
X133642438Y-119951428D01*
X133642438Y-119951428D02*
X133690057Y-119999047D01*
X133690057Y-119999047D02*
X133785295Y-120046666D01*
X133785295Y-120046666D02*
X133880533Y-120046666D01*
X133880533Y-120046666D02*
X134023390Y-119999047D01*
X134023390Y-119999047D02*
X134594819Y-119427619D01*
X134594819Y-119427619D02*
X134594819Y-120046666D01*
X137921904Y-85854819D02*
X137921904Y-84854819D01*
X137921904Y-85331009D02*
X137350476Y-85331009D01*
X137350476Y-85854819D02*
X137350476Y-84854819D01*
X136350476Y-85854819D02*
X136921904Y-85854819D01*
X136636190Y-85854819D02*
X136636190Y-84854819D01*
X136636190Y-84854819D02*
X136731428Y-84997676D01*
X136731428Y-84997676D02*
X136826666Y-85092914D01*
X136826666Y-85092914D02*
X136921904Y-85140533D01*
X151434819Y-104195714D02*
X150434819Y-104195714D01*
X150434819Y-104195714D02*
X150434819Y-104433809D01*
X150434819Y-104433809D02*
X150482438Y-104576666D01*
X150482438Y-104576666D02*
X150577676Y-104671904D01*
X150577676Y-104671904D02*
X150672914Y-104719523D01*
X150672914Y-104719523D02*
X150863390Y-104767142D01*
X150863390Y-104767142D02*
X151006247Y-104767142D01*
X151006247Y-104767142D02*
X151196723Y-104719523D01*
X151196723Y-104719523D02*
X151291961Y-104671904D01*
X151291961Y-104671904D02*
X151387200Y-104576666D01*
X151387200Y-104576666D02*
X151434819Y-104433809D01*
X151434819Y-104433809D02*
X151434819Y-104195714D01*
X151434819Y-105719523D02*
X151434819Y-105148095D01*
X151434819Y-105433809D02*
X150434819Y-105433809D01*
X150434819Y-105433809D02*
X150577676Y-105338571D01*
X150577676Y-105338571D02*
X150672914Y-105243333D01*
X150672914Y-105243333D02*
X150720533Y-105148095D01*
X151434819Y-106671904D02*
X151434819Y-106100476D01*
X151434819Y-106386190D02*
X150434819Y-106386190D01*
X150434819Y-106386190D02*
X150577676Y-106290952D01*
X150577676Y-106290952D02*
X150672914Y-106195714D01*
X150672914Y-106195714D02*
X150720533Y-106100476D01*
X144946666Y-92514819D02*
X145279999Y-92038628D01*
X145518094Y-92514819D02*
X145518094Y-91514819D01*
X145518094Y-91514819D02*
X145137142Y-91514819D01*
X145137142Y-91514819D02*
X145041904Y-91562438D01*
X145041904Y-91562438D02*
X144994285Y-91610057D01*
X144994285Y-91610057D02*
X144946666Y-91705295D01*
X144946666Y-91705295D02*
X144946666Y-91848152D01*
X144946666Y-91848152D02*
X144994285Y-91943390D01*
X144994285Y-91943390D02*
X145041904Y-91991009D01*
X145041904Y-91991009D02*
X145137142Y-92038628D01*
X145137142Y-92038628D02*
X145518094Y-92038628D01*
X144089523Y-91848152D02*
X144089523Y-92514819D01*
X144327618Y-91467200D02*
X144565713Y-92181485D01*
X144565713Y-92181485D02*
X143946666Y-92181485D01*
X130976666Y-102674819D02*
X131309999Y-102198628D01*
X131548094Y-102674819D02*
X131548094Y-101674819D01*
X131548094Y-101674819D02*
X131167142Y-101674819D01*
X131167142Y-101674819D02*
X131071904Y-101722438D01*
X131071904Y-101722438D02*
X131024285Y-101770057D01*
X131024285Y-101770057D02*
X130976666Y-101865295D01*
X130976666Y-101865295D02*
X130976666Y-102008152D01*
X130976666Y-102008152D02*
X131024285Y-102103390D01*
X131024285Y-102103390D02*
X131071904Y-102151009D01*
X131071904Y-102151009D02*
X131167142Y-102198628D01*
X131167142Y-102198628D02*
X131548094Y-102198628D01*
X130595713Y-101770057D02*
X130548094Y-101722438D01*
X130548094Y-101722438D02*
X130452856Y-101674819D01*
X130452856Y-101674819D02*
X130214761Y-101674819D01*
X130214761Y-101674819D02*
X130119523Y-101722438D01*
X130119523Y-101722438D02*
X130071904Y-101770057D01*
X130071904Y-101770057D02*
X130024285Y-101865295D01*
X130024285Y-101865295D02*
X130024285Y-101960533D01*
X130024285Y-101960533D02*
X130071904Y-102103390D01*
X130071904Y-102103390D02*
X130643332Y-102674819D01*
X130643332Y-102674819D02*
X130024285Y-102674819D01*
X159354819Y-89431905D02*
X158354819Y-89431905D01*
X158354819Y-89431905D02*
X158354819Y-89670000D01*
X158354819Y-89670000D02*
X158402438Y-89812857D01*
X158402438Y-89812857D02*
X158497676Y-89908095D01*
X158497676Y-89908095D02*
X158592914Y-89955714D01*
X158592914Y-89955714D02*
X158783390Y-90003333D01*
X158783390Y-90003333D02*
X158926247Y-90003333D01*
X158926247Y-90003333D02*
X159116723Y-89955714D01*
X159116723Y-89955714D02*
X159211961Y-89908095D01*
X159211961Y-89908095D02*
X159307200Y-89812857D01*
X159307200Y-89812857D02*
X159354819Y-89670000D01*
X159354819Y-89670000D02*
X159354819Y-89431905D01*
X158354819Y-90336667D02*
X158354819Y-91003333D01*
X158354819Y-91003333D02*
X159354819Y-90574762D01*
D12*
%TO.C,JP25*%
X131080000Y-87760000D02*
X133080000Y-87760000D01*
X133080000Y-87760000D02*
X133080000Y-84960000D01*
X131080000Y-84960000D02*
X131080000Y-87760000D01*
X133080000Y-84960000D02*
X131080000Y-84960000D01*
%TO.C,JP26*%
X128540000Y-87760000D02*
X130540000Y-87760000D01*
X130540000Y-87760000D02*
X130540000Y-84960000D01*
X128540000Y-84960000D02*
X128540000Y-87760000D01*
X130540000Y-84960000D02*
X128540000Y-84960000D01*
%TO.C,JP14*%
X163560000Y-116165000D02*
X161560000Y-116165000D01*
X161560000Y-116165000D02*
X161560000Y-118965000D01*
X163560000Y-118965000D02*
X163560000Y-116165000D01*
X161560000Y-118965000D02*
X163560000Y-118965000D01*
%TO.C,JP30*%
X118380000Y-87760000D02*
X120380000Y-87760000D01*
X120380000Y-87760000D02*
X120380000Y-84960000D01*
X118380000Y-84960000D02*
X118380000Y-87760000D01*
X120380000Y-84960000D02*
X118380000Y-84960000D01*
%TO.C,JP15*%
X171180000Y-116165000D02*
X169180000Y-116165000D01*
X169180000Y-116165000D02*
X169180000Y-118965000D01*
X171180000Y-118965000D02*
X171180000Y-116165000D01*
X169180000Y-118965000D02*
X171180000Y-118965000D01*
%TO.C,JP22*%
X128000000Y-95845000D02*
X126000000Y-95845000D01*
X126000000Y-95845000D02*
X126000000Y-98645000D01*
X128000000Y-98645000D02*
X128000000Y-95845000D01*
X126000000Y-98645000D02*
X128000000Y-98645000D01*
%TO.C,JP18*%
X117840000Y-95845000D02*
X115840000Y-95845000D01*
X115840000Y-95845000D02*
X115840000Y-98645000D01*
X117840000Y-98645000D02*
X117840000Y-95845000D01*
X115840000Y-98645000D02*
X117840000Y-98645000D01*
%TO.C,JP28*%
X123460000Y-87760000D02*
X125460000Y-87760000D01*
X125460000Y-87760000D02*
X125460000Y-84960000D01*
X123460000Y-84960000D02*
X123460000Y-87760000D01*
X125460000Y-84960000D02*
X123460000Y-84960000D01*
%TO.C,JP29*%
X120920000Y-87760000D02*
X122920000Y-87760000D01*
X122920000Y-87760000D02*
X122920000Y-84960000D01*
X120920000Y-84960000D02*
X120920000Y-87760000D01*
X122920000Y-84960000D02*
X120920000Y-84960000D01*
%TO.C,JP20*%
X122920000Y-95845000D02*
X120920000Y-95845000D01*
X120920000Y-95845000D02*
X120920000Y-98645000D01*
X122920000Y-98645000D02*
X122920000Y-95845000D01*
X120920000Y-98645000D02*
X122920000Y-98645000D01*
%TO.C,JP27*%
X126000000Y-87760000D02*
X128000000Y-87760000D01*
X128000000Y-87760000D02*
X128000000Y-84960000D01*
X126000000Y-84960000D02*
X126000000Y-87760000D01*
X128000000Y-84960000D02*
X126000000Y-84960000D01*
%TO.C,JP12*%
X176800000Y-102275000D02*
X178800000Y-102275000D01*
X178800000Y-102275000D02*
X178800000Y-99475000D01*
X176800000Y-99475000D02*
X176800000Y-102275000D01*
X178800000Y-99475000D02*
X176800000Y-99475000D01*
%TO.C,JP24*%
X133080000Y-95845000D02*
X131080000Y-95845000D01*
X131080000Y-95845000D02*
X131080000Y-98645000D01*
X133080000Y-98645000D02*
X133080000Y-95845000D01*
X131080000Y-98645000D02*
X133080000Y-98645000D01*
%TO.C,JP11*%
X169180000Y-102275000D02*
X171180000Y-102275000D01*
X171180000Y-102275000D02*
X171180000Y-99475000D01*
X169180000Y-99475000D02*
X169180000Y-102275000D01*
X171180000Y-99475000D02*
X169180000Y-99475000D01*
%TO.C,JP13*%
X155940000Y-116165000D02*
X153940000Y-116165000D01*
X153940000Y-116165000D02*
X153940000Y-118965000D01*
X155940000Y-118965000D02*
X155940000Y-116165000D01*
X153940000Y-118965000D02*
X155940000Y-118965000D01*
%TO.C,JP8*%
X178800000Y-93305000D02*
X176800000Y-93305000D01*
X176800000Y-93305000D02*
X176800000Y-96105000D01*
X178800000Y-96105000D02*
X178800000Y-93305000D01*
X176800000Y-96105000D02*
X178800000Y-96105000D01*
%TO.C,JP5*%
X155940000Y-93305000D02*
X153940000Y-93305000D01*
X153940000Y-93305000D02*
X153940000Y-96105000D01*
X155940000Y-96105000D02*
X155940000Y-93305000D01*
X153940000Y-96105000D02*
X155940000Y-96105000D01*
%TO.C,JP2*%
X161560000Y-79415000D02*
X163560000Y-79415000D01*
X163560000Y-79415000D02*
X163560000Y-76615000D01*
X161560000Y-76615000D02*
X161560000Y-79415000D01*
X163560000Y-76615000D02*
X161560000Y-76615000D01*
%TO.C,JP32*%
X113300000Y-87760000D02*
X115300000Y-87760000D01*
X115300000Y-87760000D02*
X115300000Y-84960000D01*
X113300000Y-84960000D02*
X113300000Y-87760000D01*
X115300000Y-84960000D02*
X113300000Y-84960000D01*
%TO.C,JP3*%
X169180000Y-79415000D02*
X171180000Y-79415000D01*
X171180000Y-79415000D02*
X171180000Y-76615000D01*
X169180000Y-76615000D02*
X169180000Y-79415000D01*
X171180000Y-76615000D02*
X169180000Y-76615000D01*
%TO.C,JP31*%
X115840000Y-87760000D02*
X117840000Y-87760000D01*
X117840000Y-87760000D02*
X117840000Y-84960000D01*
X115840000Y-84960000D02*
X115840000Y-87760000D01*
X117840000Y-84960000D02*
X115840000Y-84960000D01*
%TO.C,JP21*%
X125460000Y-95845000D02*
X123460000Y-95845000D01*
X123460000Y-95845000D02*
X123460000Y-98645000D01*
X125460000Y-98645000D02*
X125460000Y-95845000D01*
X123460000Y-98645000D02*
X125460000Y-98645000D01*
%TO.C,JP9*%
X153940000Y-102275000D02*
X155940000Y-102275000D01*
X155940000Y-102275000D02*
X155940000Y-99475000D01*
X153940000Y-99475000D02*
X153940000Y-102275000D01*
X155940000Y-99475000D02*
X153940000Y-99475000D01*
%TO.C,JP16*%
X178800000Y-116165000D02*
X176800000Y-116165000D01*
X176800000Y-116165000D02*
X176800000Y-118965000D01*
X178800000Y-118965000D02*
X178800000Y-116165000D01*
X176800000Y-118965000D02*
X178800000Y-118965000D01*
%TO.C,JP10*%
X161560000Y-102275000D02*
X163560000Y-102275000D01*
X163560000Y-102275000D02*
X163560000Y-99475000D01*
X161560000Y-99475000D02*
X161560000Y-102275000D01*
X163560000Y-99475000D02*
X161560000Y-99475000D01*
%TO.C,JP4*%
X176800000Y-79415000D02*
X178800000Y-79415000D01*
X178800000Y-79415000D02*
X178800000Y-76615000D01*
X176800000Y-76615000D02*
X176800000Y-79415000D01*
X178800000Y-76615000D02*
X176800000Y-76615000D01*
%TO.C,JP6*%
X163560000Y-93305000D02*
X161560000Y-93305000D01*
X161560000Y-93305000D02*
X161560000Y-96105000D01*
X163560000Y-96105000D02*
X163560000Y-93305000D01*
X161560000Y-96105000D02*
X163560000Y-96105000D01*
%TO.C,JP19*%
X120380000Y-95845000D02*
X118380000Y-95845000D01*
X118380000Y-95845000D02*
X118380000Y-98645000D01*
X120380000Y-98645000D02*
X120380000Y-95845000D01*
X118380000Y-98645000D02*
X120380000Y-98645000D01*
%TO.C,JP23*%
X130540000Y-95845000D02*
X128540000Y-95845000D01*
X128540000Y-95845000D02*
X128540000Y-98645000D01*
X130540000Y-98645000D02*
X130540000Y-95845000D01*
X128540000Y-98645000D02*
X130540000Y-98645000D01*
%TO.C,JP7*%
X171180000Y-93305000D02*
X169180000Y-93305000D01*
X169180000Y-93305000D02*
X169180000Y-96105000D01*
X171180000Y-96105000D02*
X171180000Y-93305000D01*
X169180000Y-96105000D02*
X171180000Y-96105000D01*
%TO.C,JP17*%
X115300000Y-95845000D02*
X113300000Y-95845000D01*
X113300000Y-95845000D02*
X113300000Y-98645000D01*
X115300000Y-98645000D02*
X115300000Y-95845000D01*
X113300000Y-98645000D02*
X115300000Y-98645000D01*
%TO.C,JP1*%
X153940000Y-79415000D02*
X155940000Y-79415000D01*
X155940000Y-79415000D02*
X155940000Y-76615000D01*
X153940000Y-76615000D02*
X153940000Y-79415000D01*
X155940000Y-76615000D02*
X153940000Y-76615000D01*
%TD*%
M02*
