%TF.GenerationSoftware,KiCad,Pcbnew,7.0.8*%
%TF.CreationDate,2023-10-08T00:59:27-07:00*%
%TF.ProjectId,htpm_control_module_display,6874706d-5f63-46f6-9e74-726f6c5f6d6f,1*%
%TF.SameCoordinates,Original*%
%TF.FileFunction,Copper,L1,Top*%
%TF.FilePolarity,Positive*%
%FSLAX46Y46*%
G04 Gerber Fmt 4.6, Leading zero omitted, Abs format (unit mm)*
G04 Created by KiCad (PCBNEW 7.0.8) date 2023-10-08 00:59:27*
%MOMM*%
%LPD*%
G01*
G04 APERTURE LIST*
G04 Aperture macros list*
%AMFreePoly0*
4,1,6,0.500000,-0.750000,-0.650000,-0.750000,-0.150000,0.000000,-0.650000,0.750000,0.500000,0.750000,0.500000,-0.750000,0.500000,-0.750000,$1*%
%AMFreePoly1*
4,1,6,1.000000,0.000000,0.500000,-0.750000,-0.500000,-0.750000,-0.500000,0.750000,0.500000,0.750000,1.000000,0.000000,1.000000,0.000000,$1*%
G04 Aperture macros list end*
%TA.AperFunction,ComponentPad*%
%ADD10C,1.400000*%
%TD*%
%TA.AperFunction,ComponentPad*%
%ADD11O,1.400000X1.400000*%
%TD*%
%TA.AperFunction,SMDPad,CuDef*%
%ADD12FreePoly0,180.000000*%
%TD*%
%TA.AperFunction,SMDPad,CuDef*%
%ADD13FreePoly1,180.000000*%
%TD*%
%TA.AperFunction,SMDPad,CuDef*%
%ADD14FreePoly1,0.000000*%
%TD*%
%TA.AperFunction,SMDPad,CuDef*%
%ADD15FreePoly0,0.000000*%
%TD*%
%TA.AperFunction,SMDPad,CuDef*%
%ADD16FreePoly1,90.000000*%
%TD*%
%TA.AperFunction,SMDPad,CuDef*%
%ADD17FreePoly0,90.000000*%
%TD*%
%TA.AperFunction,SMDPad,CuDef*%
%ADD18FreePoly1,270.000000*%
%TD*%
%TA.AperFunction,SMDPad,CuDef*%
%ADD19FreePoly0,270.000000*%
%TD*%
%TA.AperFunction,ComponentPad*%
%ADD20O,1.350000X1.350000*%
%TD*%
%TA.AperFunction,ComponentPad*%
%ADD21R,1.350000X1.350000*%
%TD*%
%TA.AperFunction,ComponentPad*%
%ADD22R,1.800000X1.800000*%
%TD*%
%TA.AperFunction,ComponentPad*%
%ADD23C,1.800000*%
%TD*%
%TA.AperFunction,ViaPad*%
%ADD24C,0.800000*%
%TD*%
%TA.AperFunction,Conductor*%
%ADD25C,0.250000*%
%TD*%
G04 APERTURE END LIST*
D10*
%TO.P,R4,1*%
%TO.N,+3.3V*%
X212090000Y-91440000D03*
D11*
%TO.P,R4,2*%
%TO.N,Net-(JP1-B)*%
X219710000Y-91440000D03*
%TD*%
D10*
%TO.P,R3,1*%
%TO.N,+3.3V*%
X196850000Y-109220000D03*
D11*
%TO.P,R3,2*%
%TO.N,Net-(JP10-B)*%
X204470000Y-109220000D03*
%TD*%
D10*
%TO.P,R2,1*%
%TO.N,Net-(JP17-B)*%
X213360000Y-104140000D03*
D11*
%TO.P,R2,2*%
%TO.N,Net-(D2-A)*%
X220980000Y-104140000D03*
%TD*%
D10*
%TO.P,R1,1*%
%TO.N,Net-(JP25-B)*%
X212090000Y-86360000D03*
D11*
%TO.P,R1,2*%
%TO.N,Net-(D1-A)*%
X219710000Y-86360000D03*
%TD*%
D12*
%TO.P,JP32,2,B*%
%TO.N,Net-(JP25-B)*%
X199210000Y-86360000D03*
D13*
%TO.P,JP32,1,A*%
%TO.N,Net-(J1-Pin_10)*%
X200660000Y-86360000D03*
%TD*%
D12*
%TO.P,JP31,2,B*%
%TO.N,Net-(JP25-B)*%
X199210000Y-88900000D03*
D13*
%TO.P,JP31,1,A*%
%TO.N,Net-(J1-Pin_9)*%
X200660000Y-88900000D03*
%TD*%
D12*
%TO.P,JP30,2,B*%
%TO.N,Net-(JP25-B)*%
X199210000Y-91440000D03*
D13*
%TO.P,JP30,1,A*%
%TO.N,Net-(J1-Pin_8)*%
X200660000Y-91440000D03*
%TD*%
D12*
%TO.P,JP29,2,B*%
%TO.N,Net-(JP25-B)*%
X199210000Y-93980000D03*
D13*
%TO.P,JP29,1,A*%
%TO.N,Net-(J1-Pin_7)*%
X200660000Y-93980000D03*
%TD*%
D12*
%TO.P,JP28,2,B*%
%TO.N,Net-(JP25-B)*%
X199210000Y-96520000D03*
D13*
%TO.P,JP28,1,A*%
%TO.N,Net-(J1-Pin_6)*%
X200660000Y-96520000D03*
%TD*%
D12*
%TO.P,JP27,2,B*%
%TO.N,Net-(JP25-B)*%
X199210000Y-99060000D03*
D13*
%TO.P,JP27,1,A*%
%TO.N,Net-(J1-Pin_5)*%
X200660000Y-99060000D03*
%TD*%
D12*
%TO.P,JP26,2,B*%
%TO.N,Net-(JP25-B)*%
X199210000Y-101600000D03*
D13*
%TO.P,JP26,1,A*%
%TO.N,Net-(J1-Pin_4)*%
X200660000Y-101600000D03*
%TD*%
D12*
%TO.P,JP25,2,B*%
%TO.N,Net-(JP25-B)*%
X199210000Y-104140000D03*
D13*
%TO.P,JP25,1,A*%
%TO.N,Net-(J1-Pin_3)*%
X200660000Y-104140000D03*
%TD*%
D14*
%TO.P,JP24,1,A*%
%TO.N,Net-(J1-Pin_3)*%
X206830000Y-104140000D03*
D15*
%TO.P,JP24,2,B*%
%TO.N,Net-(JP17-B)*%
X208280000Y-104140000D03*
%TD*%
%TO.P,JP23,2,B*%
%TO.N,Net-(JP17-B)*%
X208280000Y-101600000D03*
D14*
%TO.P,JP23,1,A*%
%TO.N,Net-(J1-Pin_4)*%
X206830000Y-101600000D03*
%TD*%
D15*
%TO.P,JP22,2,B*%
%TO.N,Net-(JP17-B)*%
X208280000Y-99060000D03*
D14*
%TO.P,JP22,1,A*%
%TO.N,Net-(J1-Pin_5)*%
X206830000Y-99060000D03*
%TD*%
D15*
%TO.P,JP21,2,B*%
%TO.N,Net-(JP17-B)*%
X208280000Y-96520000D03*
D14*
%TO.P,JP21,1,A*%
%TO.N,Net-(J1-Pin_6)*%
X206830000Y-96520000D03*
%TD*%
D15*
%TO.P,JP20,2,B*%
%TO.N,Net-(JP17-B)*%
X208280000Y-93980000D03*
D14*
%TO.P,JP20,1,A*%
%TO.N,Net-(J1-Pin_7)*%
X206830000Y-93980000D03*
%TD*%
D15*
%TO.P,JP19,2,B*%
%TO.N,Net-(JP17-B)*%
X208280000Y-91440000D03*
D14*
%TO.P,JP19,1,A*%
%TO.N,Net-(J1-Pin_8)*%
X206830000Y-91440000D03*
%TD*%
D15*
%TO.P,JP18,2,B*%
%TO.N,Net-(JP17-B)*%
X208280000Y-88900000D03*
D14*
%TO.P,JP18,1,A*%
%TO.N,Net-(J1-Pin_9)*%
X206830000Y-88900000D03*
%TD*%
D15*
%TO.P,JP17,2,B*%
%TO.N,Net-(JP17-B)*%
X208280000Y-86360000D03*
D14*
%TO.P,JP17,1,A*%
%TO.N,Net-(J1-Pin_10)*%
X206830000Y-86360000D03*
%TD*%
D16*
%TO.P,JP16,1,A*%
%TO.N,Net-(D18-A)*%
X218440000Y-113210000D03*
D17*
%TO.P,JP16,2,B*%
%TO.N,Net-(JP10-B)*%
X218440000Y-111760000D03*
%TD*%
D16*
%TO.P,JP15,1,A*%
%TO.N,Net-(D17-A)*%
X215900000Y-113210000D03*
D17*
%TO.P,JP15,2,B*%
%TO.N,Net-(JP10-B)*%
X215900000Y-111760000D03*
%TD*%
D16*
%TO.P,JP14,1,A*%
%TO.N,Net-(D16-A)*%
X213360000Y-113210000D03*
D17*
%TO.P,JP14,2,B*%
%TO.N,Net-(JP10-B)*%
X213360000Y-111760000D03*
%TD*%
D16*
%TO.P,JP13,1,A*%
%TO.N,Net-(D15-A)*%
X210820000Y-113210000D03*
D17*
%TO.P,JP13,2,B*%
%TO.N,Net-(JP10-B)*%
X210820000Y-111760000D03*
%TD*%
D18*
%TO.P,JP12,1,A*%
%TO.N,Net-(D14-A)*%
X218440000Y-107770000D03*
D19*
%TO.P,JP12,2,B*%
%TO.N,Net-(JP10-B)*%
X218440000Y-109220000D03*
%TD*%
D18*
%TO.P,JP11,1,A*%
%TO.N,Net-(D13-A)*%
X215900000Y-107770000D03*
D19*
%TO.P,JP11,2,B*%
%TO.N,Net-(JP10-B)*%
X215900000Y-109220000D03*
%TD*%
D18*
%TO.P,JP10,1,A*%
%TO.N,Net-(D12-A)*%
X213360000Y-107770000D03*
D19*
%TO.P,JP10,2,B*%
%TO.N,Net-(JP10-B)*%
X213360000Y-109220000D03*
%TD*%
D18*
%TO.P,JP9,1,A*%
%TO.N,Net-(D11-A)*%
X210820000Y-107770000D03*
D19*
%TO.P,JP9,2,B*%
%TO.N,Net-(JP10-B)*%
X210820000Y-109220000D03*
%TD*%
D16*
%TO.P,JP8,1,A*%
%TO.N,Net-(D10-A)*%
X220980000Y-100510000D03*
D17*
%TO.P,JP8,2,B*%
%TO.N,Net-(JP1-B)*%
X220980000Y-99060000D03*
%TD*%
D16*
%TO.P,JP7,1,A*%
%TO.N,Net-(D9-A)*%
X218440000Y-100510000D03*
D17*
%TO.P,JP7,2,B*%
%TO.N,Net-(JP1-B)*%
X218440000Y-99060000D03*
%TD*%
D16*
%TO.P,JP6,1,A*%
%TO.N,Net-(D8-A)*%
X215900000Y-100510000D03*
D17*
%TO.P,JP6,2,B*%
%TO.N,Net-(JP1-B)*%
X215900000Y-99060000D03*
%TD*%
D16*
%TO.P,JP5,1,A*%
%TO.N,Net-(D7-A)*%
X213360000Y-100510000D03*
D17*
%TO.P,JP5,2,B*%
%TO.N,Net-(JP1-B)*%
X213360000Y-99060000D03*
%TD*%
D18*
%TO.P,JP4,1,A*%
%TO.N,Net-(D6-A)*%
X220980000Y-95070000D03*
D19*
%TO.P,JP4,2,B*%
%TO.N,Net-(JP1-B)*%
X220980000Y-96520000D03*
%TD*%
D18*
%TO.P,JP3,1,A*%
%TO.N,Net-(D5-A)*%
X218440000Y-95070000D03*
D19*
%TO.P,JP3,2,B*%
%TO.N,Net-(JP1-B)*%
X218440000Y-96520000D03*
%TD*%
D18*
%TO.P,JP2,1,A*%
%TO.N,Net-(D4-A)*%
X215900000Y-95070000D03*
D19*
%TO.P,JP2,2,B*%
%TO.N,Net-(JP1-B)*%
X215900000Y-96520000D03*
%TD*%
D18*
%TO.P,JP1,1,A*%
%TO.N,Net-(D3-A)*%
X213360000Y-95070000D03*
D19*
%TO.P,JP1,2,B*%
%TO.N,Net-(JP1-B)*%
X213360000Y-96520000D03*
%TD*%
D20*
%TO.P,J2,10,Pin_10*%
%TO.N,Net-(J1-Pin_10)*%
X197900000Y-81280000D03*
%TO.P,J2,9,Pin_9*%
%TO.N,Net-(J1-Pin_9)*%
X199900000Y-81280000D03*
%TO.P,J2,8,Pin_8*%
%TO.N,Net-(J1-Pin_8)*%
X201900000Y-81280000D03*
%TO.P,J2,7,Pin_7*%
%TO.N,Net-(J1-Pin_7)*%
X203900000Y-81280000D03*
%TO.P,J2,6,Pin_6*%
%TO.N,Net-(J1-Pin_6)*%
X205900000Y-81280000D03*
%TO.P,J2,5,Pin_5*%
%TO.N,Net-(J1-Pin_5)*%
X207900000Y-81280000D03*
%TO.P,J2,4,Pin_4*%
%TO.N,Net-(J1-Pin_4)*%
X209900000Y-81280000D03*
%TO.P,J2,3,Pin_3*%
%TO.N,Net-(J1-Pin_3)*%
X211900000Y-81280000D03*
%TO.P,J2,2,Pin_2*%
%TO.N,GND*%
X213900000Y-81280000D03*
D21*
%TO.P,J2,1,Pin_1*%
%TO.N,+3.3V*%
X215900000Y-81280000D03*
%TD*%
%TO.P,J1,1,Pin_1*%
%TO.N,+3.3V*%
X215900000Y-119380000D03*
D20*
%TO.P,J1,2,Pin_2*%
%TO.N,GND*%
X213900000Y-119380000D03*
%TO.P,J1,3,Pin_3*%
%TO.N,Net-(J1-Pin_3)*%
X211900000Y-119380000D03*
%TO.P,J1,4,Pin_4*%
%TO.N,Net-(J1-Pin_4)*%
X209900000Y-119380000D03*
%TO.P,J1,5,Pin_5*%
%TO.N,Net-(J1-Pin_5)*%
X207900000Y-119380000D03*
%TO.P,J1,6,Pin_6*%
%TO.N,Net-(J1-Pin_6)*%
X205900000Y-119380000D03*
%TO.P,J1,7,Pin_7*%
%TO.N,Net-(J1-Pin_7)*%
X203900000Y-119380000D03*
%TO.P,J1,8,Pin_8*%
%TO.N,Net-(J1-Pin_8)*%
X201900000Y-119380000D03*
%TO.P,J1,9,Pin_9*%
%TO.N,Net-(J1-Pin_9)*%
X199900000Y-119380000D03*
%TO.P,J1,10,Pin_10*%
%TO.N,Net-(J1-Pin_10)*%
X197900000Y-119380000D03*
%TD*%
D22*
%TO.P,D18,1,K*%
%TO.N,GND*%
X259080000Y-111760000D03*
D23*
%TO.P,D18,2,A*%
%TO.N,Net-(D18-A)*%
X259080000Y-114300000D03*
%TD*%
D22*
%TO.P,D17,1,K*%
%TO.N,GND*%
X251460000Y-111760000D03*
D23*
%TO.P,D17,2,A*%
%TO.N,Net-(D17-A)*%
X251460000Y-114300000D03*
%TD*%
D22*
%TO.P,D16,1,K*%
%TO.N,GND*%
X243840000Y-111760000D03*
D23*
%TO.P,D16,2,A*%
%TO.N,Net-(D16-A)*%
X243840000Y-114300000D03*
%TD*%
D22*
%TO.P,D15,1,K*%
%TO.N,GND*%
X236220000Y-111760000D03*
D23*
%TO.P,D15,2,A*%
%TO.N,Net-(D15-A)*%
X236220000Y-114300000D03*
%TD*%
D22*
%TO.P,D14,1,K*%
%TO.N,GND*%
X259080000Y-106680000D03*
D23*
%TO.P,D14,2,A*%
%TO.N,Net-(D14-A)*%
X259080000Y-104140000D03*
%TD*%
D22*
%TO.P,D13,1,K*%
%TO.N,GND*%
X251460000Y-106680000D03*
D23*
%TO.P,D13,2,A*%
%TO.N,Net-(D13-A)*%
X251460000Y-104140000D03*
%TD*%
D22*
%TO.P,D12,1,K*%
%TO.N,GND*%
X243840000Y-106680000D03*
D23*
%TO.P,D12,2,A*%
%TO.N,Net-(D12-A)*%
X243840000Y-104140000D03*
%TD*%
D22*
%TO.P,D11,1,K*%
%TO.N,GND*%
X236220000Y-106680000D03*
D23*
%TO.P,D11,2,A*%
%TO.N,Net-(D11-A)*%
X236220000Y-104140000D03*
%TD*%
D22*
%TO.P,D10,1,K*%
%TO.N,GND*%
X259080000Y-93980000D03*
D23*
%TO.P,D10,2,A*%
%TO.N,Net-(D10-A)*%
X259080000Y-96520000D03*
%TD*%
D22*
%TO.P,D9,1,K*%
%TO.N,GND*%
X251460000Y-93980000D03*
D23*
%TO.P,D9,2,A*%
%TO.N,Net-(D9-A)*%
X251460000Y-96520000D03*
%TD*%
%TO.P,D8,2,A*%
%TO.N,Net-(D8-A)*%
X243840000Y-96520000D03*
D22*
%TO.P,D8,1,K*%
%TO.N,GND*%
X243840000Y-93980000D03*
%TD*%
D23*
%TO.P,D7,2,A*%
%TO.N,Net-(D7-A)*%
X236220000Y-96520000D03*
D22*
%TO.P,D7,1,K*%
%TO.N,GND*%
X236220000Y-93980000D03*
%TD*%
D23*
%TO.P,D6,2,A*%
%TO.N,Net-(D6-A)*%
X259080000Y-86360000D03*
D22*
%TO.P,D6,1,K*%
%TO.N,GND*%
X259080000Y-88900000D03*
%TD*%
D23*
%TO.P,D5,2,A*%
%TO.N,Net-(D5-A)*%
X251460000Y-86360000D03*
D22*
%TO.P,D5,1,K*%
%TO.N,GND*%
X251460000Y-88900000D03*
%TD*%
D23*
%TO.P,D4,2,A*%
%TO.N,Net-(D4-A)*%
X243840000Y-86360000D03*
D22*
%TO.P,D4,1,K*%
%TO.N,GND*%
X243840000Y-88900000D03*
%TD*%
D23*
%TO.P,D3,2,A*%
%TO.N,Net-(D3-A)*%
X236220000Y-86360000D03*
D22*
%TO.P,D3,1,K*%
%TO.N,GND*%
X236220000Y-88900000D03*
%TD*%
D23*
%TO.P,D2,2,A*%
%TO.N,Net-(D2-A)*%
X226060000Y-104140000D03*
D22*
%TO.P,D2,1,K*%
%TO.N,GND*%
X226060000Y-106680000D03*
%TD*%
D23*
%TO.P,D1,2,A*%
%TO.N,Net-(D1-A)*%
X226060000Y-86360000D03*
D22*
%TO.P,D1,1,K*%
%TO.N,GND*%
X226060000Y-88900000D03*
%TD*%
D24*
%TO.N,Net-(JP1-B)*%
X223520000Y-93980000D03*
%TO.N,Net-(J1-Pin_3)*%
X203200000Y-104140000D03*
%TO.N,Net-(J1-Pin_4)*%
X203200000Y-101600000D03*
%TO.N,Net-(J1-Pin_5)*%
X203200000Y-99060000D03*
%TO.N,Net-(J1-Pin_6)*%
X203200000Y-96520000D03*
%TO.N,Net-(J1-Pin_7)*%
X203200000Y-93980000D03*
%TO.N,Net-(J1-Pin_8)*%
X203200000Y-91440000D03*
%TO.N,Net-(J1-Pin_9)*%
X203200000Y-88900000D03*
%TO.N,Net-(J1-Pin_10)*%
X203200000Y-86360000D03*
%TD*%
D25*
%TO.N,Net-(JP1-B)*%
X223520000Y-93980000D02*
X223520000Y-94730000D01*
X223520000Y-94730000D02*
X221730000Y-96520000D01*
X221730000Y-96520000D02*
X220980000Y-96520000D01*
%TO.N,Net-(D7-A)*%
X213360000Y-100510000D02*
X215085000Y-102235000D01*
X215085000Y-102235000D02*
X222885000Y-102235000D01*
X222885000Y-102235000D02*
X228600000Y-96520000D01*
X228600000Y-96520000D02*
X236220000Y-96520000D01*
%TO.N,Net-(D8-A)*%
X228937792Y-92375000D02*
X238760000Y-92375000D01*
X226960000Y-94352792D02*
X228937792Y-92375000D01*
X215900000Y-100510000D02*
X217175000Y-101785000D01*
X217175000Y-101785000D02*
X222051016Y-101785000D01*
X222051016Y-101785000D02*
X226960000Y-96876016D01*
X226960000Y-96876016D02*
X226960000Y-94352792D01*
X242905000Y-96520000D02*
X243840000Y-96520000D01*
X238760000Y-92375000D02*
X242905000Y-96520000D01*
%TO.N,Net-(D9-A)*%
X218440000Y-100510000D02*
X219265000Y-101335000D01*
X219265000Y-101335000D02*
X221864620Y-101335000D01*
X221864620Y-101335000D02*
X223668198Y-99531422D01*
X223668198Y-99531422D02*
X223668198Y-99208198D01*
X223668198Y-99208198D02*
X226510000Y-96366396D01*
X226510000Y-96366396D02*
X226510000Y-94166396D01*
X226510000Y-94166396D02*
X228751396Y-91925000D01*
X228751396Y-91925000D02*
X246865000Y-91925000D01*
X246865000Y-91925000D02*
X251460000Y-96520000D01*
%TO.N,Net-(D10-A)*%
X220980000Y-100510000D02*
X221730000Y-100510000D01*
X221730000Y-100510000D02*
X226060000Y-96180000D01*
X226060000Y-96180000D02*
X226060000Y-93980000D01*
X226060000Y-93980000D02*
X228565000Y-91475000D01*
X228565000Y-91475000D02*
X254035000Y-91475000D01*
X254035000Y-91475000D02*
X259080000Y-96520000D01*
%TO.N,Net-(D6-A)*%
X220980000Y-95070000D02*
X225025000Y-91025000D01*
X225025000Y-91025000D02*
X254415000Y-91025000D01*
X254415000Y-91025000D02*
X259080000Y-86360000D01*
%TO.N,Net-(D5-A)*%
X218440000Y-95070000D02*
X222935000Y-90575000D01*
X222935000Y-90575000D02*
X247245000Y-90575000D01*
X247245000Y-90575000D02*
X251460000Y-86360000D01*
%TO.N,Net-(D4-A)*%
X215900000Y-95070000D02*
X216800000Y-94170000D01*
X225025380Y-90125000D02*
X240075000Y-90125000D01*
X216800000Y-94170000D02*
X216800000Y-91440000D01*
X223800380Y-88900000D02*
X225025380Y-90125000D01*
X216800000Y-91440000D02*
X219340000Y-88900000D01*
X219340000Y-88900000D02*
X223800380Y-88900000D01*
X240075000Y-90125000D02*
X243840000Y-86360000D01*
%TO.N,Net-(D3-A)*%
X218890000Y-83820000D02*
X226060000Y-83820000D01*
X213360000Y-95070000D02*
X216350000Y-92080000D01*
X216350000Y-86360000D02*
X218890000Y-83820000D01*
X216350000Y-92080000D02*
X216350000Y-86360000D01*
X226060000Y-83820000D02*
X228600000Y-86360000D01*
X228600000Y-86360000D02*
X236220000Y-86360000D01*
%TO.N,Net-(JP1-B)*%
X213360000Y-99060000D02*
X220980000Y-99060000D01*
X213360000Y-96520000D02*
X213360000Y-99060000D01*
X220980000Y-96520000D02*
X213360000Y-96520000D01*
%TO.N,Net-(D15-A)*%
X210820000Y-113210000D02*
X213130070Y-115520070D01*
X213130070Y-115520070D02*
X234999930Y-115520070D01*
X234999930Y-115520070D02*
X236220000Y-114300000D01*
%TO.N,Net-(D16-A)*%
X213360000Y-113210000D02*
X214900000Y-114750000D01*
X214900000Y-114750000D02*
X223070000Y-114750000D01*
X223070000Y-114750000D02*
X224740070Y-113079930D01*
X224740070Y-113079930D02*
X240079930Y-113079930D01*
X240079930Y-113079930D02*
X241300000Y-114300000D01*
X241300000Y-114300000D02*
X243840000Y-114300000D01*
%TO.N,Net-(D17-A)*%
X215900000Y-113210000D02*
X216990000Y-114300000D01*
X216990000Y-114300000D02*
X220980000Y-114300000D01*
X220980000Y-114300000D02*
X225160000Y-110120000D01*
X225160000Y-110120000D02*
X247280000Y-110120000D01*
X247280000Y-110120000D02*
X251460000Y-114300000D01*
%TO.N,Net-(D18-A)*%
X218440000Y-113210000D02*
X219190000Y-113210000D01*
X222730000Y-109670000D02*
X254450000Y-109670000D01*
X219190000Y-113210000D02*
X222730000Y-109670000D01*
X254450000Y-109670000D02*
X259080000Y-114300000D01*
%TO.N,Net-(D11-A)*%
X212810000Y-105780000D02*
X215900000Y-105780000D01*
X210820000Y-107770000D02*
X212810000Y-105780000D01*
X215900000Y-105780000D02*
X216225000Y-105455000D01*
X216225000Y-105455000D02*
X234905000Y-105455000D01*
X234905000Y-105455000D02*
X236220000Y-104140000D01*
%TO.N,Net-(D12-A)*%
X213360000Y-107770000D02*
X214900000Y-106230000D01*
X214900000Y-106230000D02*
X221166396Y-106230000D01*
X221166396Y-106230000D02*
X223256396Y-108320000D01*
X223256396Y-108320000D02*
X239660000Y-108320000D01*
X239660000Y-108320000D02*
X243840000Y-104140000D01*
%TO.N,Net-(D13-A)*%
X215900000Y-107770000D02*
X216990000Y-106680000D01*
X216990000Y-106680000D02*
X220980000Y-106680000D01*
X220980000Y-106680000D02*
X223070000Y-108770000D01*
X223070000Y-108770000D02*
X246830000Y-108770000D01*
X246830000Y-108770000D02*
X251460000Y-104140000D01*
%TO.N,Net-(D14-A)*%
X220980000Y-109220000D02*
X254000000Y-109220000D01*
X218440000Y-107770000D02*
X219530000Y-107770000D01*
X219530000Y-107770000D02*
X220980000Y-109220000D01*
X254000000Y-109220000D02*
X259080000Y-104140000D01*
%TO.N,+3.3V*%
X215900000Y-81280000D02*
X215900000Y-87630000D01*
X215900000Y-87630000D02*
X212090000Y-91440000D01*
X204470000Y-116840000D02*
X213360000Y-116840000D01*
X196850000Y-109220000D02*
X204470000Y-116840000D01*
X213360000Y-116840000D02*
X215900000Y-119380000D01*
%TO.N,Net-(JP10-B)*%
X204470000Y-109220000D02*
X210820000Y-109220000D01*
X210820000Y-109220000D02*
X210820000Y-111760000D01*
X210820000Y-111760000D02*
X218440000Y-111760000D01*
X218440000Y-109220000D02*
X210820000Y-109220000D01*
%TO.N,Net-(JP17-B)*%
X213360000Y-104140000D02*
X208280000Y-104140000D01*
%TO.N,Net-(D2-A)*%
X220980000Y-104140000D02*
X226060000Y-104140000D01*
%TO.N,Net-(JP25-B)*%
X209550000Y-83820000D02*
X200660000Y-83820000D01*
X199210000Y-85270000D02*
X199210000Y-86360000D01*
X212090000Y-86360000D02*
X209550000Y-83820000D01*
X200660000Y-83820000D02*
X199210000Y-85270000D01*
%TO.N,Net-(D1-A)*%
X219710000Y-86360000D02*
X226060000Y-86360000D01*
%TO.N,Net-(J1-Pin_3)*%
X203200000Y-104140000D02*
X200660000Y-104140000D01*
%TO.N,Net-(J1-Pin_4)*%
X203200000Y-101600000D02*
X206830000Y-101600000D01*
%TO.N,Net-(J1-Pin_5)*%
X203200000Y-99060000D02*
X200660000Y-99060000D01*
%TO.N,Net-(J1-Pin_6)*%
X203200000Y-96520000D02*
X206830000Y-96520000D01*
%TO.N,Net-(J1-Pin_7)*%
X203200000Y-93980000D02*
X200660000Y-93980000D01*
%TO.N,Net-(J1-Pin_8)*%
X203200000Y-91440000D02*
X206830000Y-91440000D01*
%TO.N,Net-(J1-Pin_9)*%
X203200000Y-88900000D02*
X200660000Y-88900000D01*
%TO.N,Net-(J1-Pin_10)*%
X203200000Y-86360000D02*
X206830000Y-86360000D01*
%TO.N,Net-(JP17-B)*%
X208280000Y-104140000D02*
X208280000Y-86360000D01*
%TO.N,Net-(JP25-B)*%
X199210000Y-86360000D02*
X199210000Y-104140000D01*
%TO.N,Net-(J1-Pin_3)*%
X206830000Y-104140000D02*
X203200000Y-104140000D01*
%TO.N,Net-(J1-Pin_4)*%
X200660000Y-101600000D02*
X203200000Y-101600000D01*
%TO.N,Net-(J1-Pin_5)*%
X206830000Y-99060000D02*
X203200000Y-99060000D01*
%TO.N,Net-(J1-Pin_6)*%
X200660000Y-96520000D02*
X203200000Y-96520000D01*
%TO.N,Net-(J1-Pin_7)*%
X206830000Y-93980000D02*
X203200000Y-93980000D01*
%TO.N,Net-(J1-Pin_8)*%
X200660000Y-91440000D02*
X203200000Y-91440000D01*
%TO.N,Net-(J1-Pin_9)*%
X206830000Y-88900000D02*
X203200000Y-88900000D01*
%TO.N,Net-(J1-Pin_10)*%
X200660000Y-86360000D02*
X203200000Y-86360000D01*
%TD*%
M02*
