%TF.GenerationSoftware,KiCad,Pcbnew,7.0.8*%
%TF.CreationDate,2023-10-10T01:17:22-07:00*%
%TF.ProjectId,htpm_control_module_display,6874706d-5f63-46f6-9e74-726f6c5f6d6f,1*%
%TF.SameCoordinates,Original*%
%TF.FileFunction,Soldermask,Bot*%
%TF.FilePolarity,Negative*%
%FSLAX46Y46*%
G04 Gerber Fmt 4.6, Leading zero omitted, Abs format (unit mm)*
G04 Created by KiCad (PCBNEW 7.0.8) date 2023-10-10 01:17:22*
%MOMM*%
%LPD*%
G01*
G04 APERTURE LIST*
%ADD10R,1.800000X1.800000*%
%ADD11C,1.800000*%
%ADD12R,1.350000X1.350000*%
%ADD13O,1.350000X1.350000*%
%ADD14C,1.400000*%
%ADD15O,1.400000X1.400000*%
%ADD16C,2.500000*%
G04 APERTURE END LIST*
D10*
%TO.C,D7*%
X147320000Y-86360000D03*
D11*
X147320000Y-88900000D03*
%TD*%
D12*
%TO.C,J1*%
X127000000Y-111760000D03*
D13*
X125000000Y-111760000D03*
X123000000Y-111760000D03*
X121000000Y-111760000D03*
X119000000Y-111760000D03*
X117000000Y-111760000D03*
X115000000Y-111760000D03*
X113000000Y-111760000D03*
X111000000Y-111760000D03*
X109000000Y-111760000D03*
%TD*%
D10*
%TO.C,D13*%
X162560000Y-99060000D03*
D11*
X162560000Y-96520000D03*
%TD*%
D10*
%TO.C,D2*%
X137160000Y-99060000D03*
D11*
X137160000Y-96520000D03*
%TD*%
D10*
%TO.C,D6*%
X170180000Y-81280000D03*
D11*
X170180000Y-78740000D03*
%TD*%
D10*
%TO.C,D18*%
X170180000Y-104140000D03*
D11*
X170180000Y-106680000D03*
%TD*%
D10*
%TO.C,D5*%
X162560000Y-81280000D03*
D11*
X162560000Y-78740000D03*
%TD*%
D14*
%TO.C,R3*%
X107950000Y-101600000D03*
D15*
X115570000Y-101600000D03*
%TD*%
D12*
%TO.C,J2*%
X127000000Y-73660000D03*
D13*
X125000000Y-73660000D03*
X123000000Y-73660000D03*
X121000000Y-73660000D03*
X119000000Y-73660000D03*
X117000000Y-73660000D03*
X115000000Y-73660000D03*
X113000000Y-73660000D03*
X111000000Y-73660000D03*
X109000000Y-73660000D03*
%TD*%
D14*
%TO.C,R2*%
X124460000Y-96520000D03*
D15*
X132080000Y-96520000D03*
%TD*%
D10*
%TO.C,D4*%
X154940000Y-81280000D03*
D11*
X154940000Y-78740000D03*
%TD*%
D14*
%TO.C,R4*%
X123190000Y-83820000D03*
D15*
X130810000Y-83820000D03*
%TD*%
D10*
%TO.C,D14*%
X170180000Y-99060000D03*
D11*
X170180000Y-96520000D03*
%TD*%
D10*
%TO.C,D12*%
X154940000Y-99060000D03*
D11*
X154940000Y-96520000D03*
%TD*%
D10*
%TO.C,D9*%
X162560000Y-86360000D03*
D11*
X162560000Y-88900000D03*
%TD*%
D10*
%TO.C,D3*%
X147320000Y-81280000D03*
D11*
X147320000Y-78740000D03*
%TD*%
D10*
%TO.C,D17*%
X162560000Y-104140000D03*
D11*
X162560000Y-106680000D03*
%TD*%
D10*
%TO.C,D10*%
X170180000Y-86360000D03*
D11*
X170180000Y-88900000D03*
%TD*%
D16*
%TO.C,H2*%
X147320000Y-111760000D03*
%TD*%
D10*
%TO.C,D1*%
X137160000Y-81280000D03*
D11*
X137160000Y-78740000D03*
%TD*%
D10*
%TO.C,D16*%
X154940000Y-104140000D03*
D11*
X154940000Y-106680000D03*
%TD*%
D14*
%TO.C,R1*%
X123190000Y-78740000D03*
D15*
X130810000Y-78740000D03*
%TD*%
D10*
%TO.C,D8*%
X154940000Y-86360000D03*
D11*
X154940000Y-88900000D03*
%TD*%
D16*
%TO.C,H1*%
X177800000Y-73660000D03*
%TD*%
D10*
%TO.C,D15*%
X147320000Y-104140000D03*
D11*
X147320000Y-106680000D03*
%TD*%
D10*
%TO.C,D11*%
X147320000Y-99060000D03*
D11*
X147320000Y-96520000D03*
%TD*%
M02*
