M48
; DRILL file {KiCad 7.0.8} date Sat Oct  7 23:44:33 2023
; FORMAT={-:-/ absolute / inch / decimal}
; #@! TF.CreationDate,2023-10-07T23:44:33-07:00
; #@! TF.GenerationSoftware,Kicad,Pcbnew,7.0.8
; #@! TF.FileFunction,MixedPlating,1,2
FMAT,2
INCH
; #@! TA.AperFunction,Plated,PTH,ViaDrill
T1C0.0157
; #@! TA.AperFunction,Plated,PTH,ComponentDrill
T2C0.0276
; #@! TA.AperFunction,Plated,PTH,ComponentDrill
T3C0.0315
; #@! TA.AperFunction,Plated,PTH,ComponentDrill
T4C0.0354
; #@! TA.AperFunction,NonPlated,NPTH,ComponentDrill
T5C0.0984
%
G90
G05
T1
X4.5Y-3.5
X4.6Y-3.5
X4.7Y-3.5
X4.8Y-3.5
X4.9Y-3.5
X5.0Y-3.5
X5.1Y-3.5
X5.2Y-3.5
T2
X5.0Y-3.2
X5.0Y-4.1
X5.3Y-3.2
X5.3Y-4.1
X5.55Y-3.7
X5.55Y-3.9
X5.85Y-3.7
X5.85Y-3.9
T3
X4.4913Y-3.0
X4.4913Y-4.7
X4.5701Y-3.0
X4.5701Y-4.7
X4.6488Y-3.0
X4.6488Y-4.7
X4.7276Y-3.0
X4.7276Y-4.7
X4.8063Y-3.0
X4.8063Y-4.7
X4.885Y-3.0
X4.885Y-4.7
X4.9638Y-3.0
X4.9638Y-4.7
X5.0425Y-3.0
X5.0425Y-4.7
X5.1213Y-3.0
X5.1213Y-4.7
X5.2Y-3.0
X5.2Y-4.7
T4
X5.6Y-3.2
X5.6Y-3.3
X5.6Y-4.1
X5.6Y-4.2
X6.1Y-3.2
X6.1Y-3.3
X6.1Y-3.5
X6.1Y-3.6
X6.1Y-4.1
X6.1Y-4.2
X6.1Y-4.4
X6.1Y-4.5
X6.4Y-3.2
X6.4Y-3.3
X6.4Y-3.5
X6.4Y-3.6
X6.4Y-4.1
X6.4Y-4.2
X6.4Y-4.4
X6.4Y-4.5
X6.7Y-3.2
X6.7Y-3.3
X6.7Y-3.5
X6.7Y-3.6
X6.7Y-4.1
X6.7Y-4.2
X6.7Y-4.4
X6.7Y-4.5
X7.0Y-3.2
X7.0Y-3.3
X7.0Y-3.5
X7.0Y-3.6
X7.0Y-4.1
X7.0Y-4.2
X7.0Y-4.4
X7.0Y-4.5
T5
X5.4Y-3.5
X5.7Y-4.6
T0
M30
