%TF.GenerationSoftware,KiCad,Pcbnew,7.0.8*%
%TF.CreationDate,2023-10-08T00:59:27-07:00*%
%TF.ProjectId,htpm_control_module_display,6874706d-5f63-46f6-9e74-726f6c5f6d6f,1*%
%TF.SameCoordinates,Original*%
%TF.FileFunction,Copper,L2,Bot*%
%TF.FilePolarity,Positive*%
%FSLAX46Y46*%
G04 Gerber Fmt 4.6, Leading zero omitted, Abs format (unit mm)*
G04 Created by KiCad (PCBNEW 7.0.8) date 2023-10-08 00:59:27*
%MOMM*%
%LPD*%
G01*
G04 APERTURE LIST*
%TA.AperFunction,ComponentPad*%
%ADD10C,1.400000*%
%TD*%
%TA.AperFunction,ComponentPad*%
%ADD11O,1.400000X1.400000*%
%TD*%
%TA.AperFunction,ComponentPad*%
%ADD12O,1.350000X1.350000*%
%TD*%
%TA.AperFunction,ComponentPad*%
%ADD13R,1.350000X1.350000*%
%TD*%
%TA.AperFunction,ComponentPad*%
%ADD14R,1.800000X1.800000*%
%TD*%
%TA.AperFunction,ComponentPad*%
%ADD15C,1.800000*%
%TD*%
%TA.AperFunction,ViaPad*%
%ADD16C,0.800000*%
%TD*%
%TA.AperFunction,Conductor*%
%ADD17C,0.250000*%
%TD*%
G04 APERTURE END LIST*
D10*
%TO.P,R4,1*%
%TO.N,+3.3V*%
X212090000Y-91440000D03*
D11*
%TO.P,R4,2*%
%TO.N,Net-(JP1-B)*%
X219710000Y-91440000D03*
%TD*%
D10*
%TO.P,R3,1*%
%TO.N,+3.3V*%
X196850000Y-109220000D03*
D11*
%TO.P,R3,2*%
%TO.N,Net-(JP10-B)*%
X204470000Y-109220000D03*
%TD*%
D10*
%TO.P,R2,1*%
%TO.N,Net-(JP17-B)*%
X213360000Y-104140000D03*
D11*
%TO.P,R2,2*%
%TO.N,Net-(D2-A)*%
X220980000Y-104140000D03*
%TD*%
D10*
%TO.P,R1,1*%
%TO.N,Net-(JP25-B)*%
X212090000Y-86360000D03*
D11*
%TO.P,R1,2*%
%TO.N,Net-(D1-A)*%
X219710000Y-86360000D03*
%TD*%
D12*
%TO.P,J2,10,Pin_10*%
%TO.N,Net-(J1-Pin_10)*%
X197900000Y-81280000D03*
%TO.P,J2,9,Pin_9*%
%TO.N,Net-(J1-Pin_9)*%
X199900000Y-81280000D03*
%TO.P,J2,8,Pin_8*%
%TO.N,Net-(J1-Pin_8)*%
X201900000Y-81280000D03*
%TO.P,J2,7,Pin_7*%
%TO.N,Net-(J1-Pin_7)*%
X203900000Y-81280000D03*
%TO.P,J2,6,Pin_6*%
%TO.N,Net-(J1-Pin_6)*%
X205900000Y-81280000D03*
%TO.P,J2,5,Pin_5*%
%TO.N,Net-(J1-Pin_5)*%
X207900000Y-81280000D03*
%TO.P,J2,4,Pin_4*%
%TO.N,Net-(J1-Pin_4)*%
X209900000Y-81280000D03*
%TO.P,J2,3,Pin_3*%
%TO.N,Net-(J1-Pin_3)*%
X211900000Y-81280000D03*
%TO.P,J2,2,Pin_2*%
%TO.N,GND*%
X213900000Y-81280000D03*
D13*
%TO.P,J2,1,Pin_1*%
%TO.N,+3.3V*%
X215900000Y-81280000D03*
%TD*%
%TO.P,J1,1,Pin_1*%
%TO.N,+3.3V*%
X215900000Y-119380000D03*
D12*
%TO.P,J1,2,Pin_2*%
%TO.N,GND*%
X213900000Y-119380000D03*
%TO.P,J1,3,Pin_3*%
%TO.N,Net-(J1-Pin_3)*%
X211900000Y-119380000D03*
%TO.P,J1,4,Pin_4*%
%TO.N,Net-(J1-Pin_4)*%
X209900000Y-119380000D03*
%TO.P,J1,5,Pin_5*%
%TO.N,Net-(J1-Pin_5)*%
X207900000Y-119380000D03*
%TO.P,J1,6,Pin_6*%
%TO.N,Net-(J1-Pin_6)*%
X205900000Y-119380000D03*
%TO.P,J1,7,Pin_7*%
%TO.N,Net-(J1-Pin_7)*%
X203900000Y-119380000D03*
%TO.P,J1,8,Pin_8*%
%TO.N,Net-(J1-Pin_8)*%
X201900000Y-119380000D03*
%TO.P,J1,9,Pin_9*%
%TO.N,Net-(J1-Pin_9)*%
X199900000Y-119380000D03*
%TO.P,J1,10,Pin_10*%
%TO.N,Net-(J1-Pin_10)*%
X197900000Y-119380000D03*
%TD*%
D14*
%TO.P,D18,1,K*%
%TO.N,GND*%
X259080000Y-111760000D03*
D15*
%TO.P,D18,2,A*%
%TO.N,Net-(D18-A)*%
X259080000Y-114300000D03*
%TD*%
D14*
%TO.P,D17,1,K*%
%TO.N,GND*%
X251460000Y-111760000D03*
D15*
%TO.P,D17,2,A*%
%TO.N,Net-(D17-A)*%
X251460000Y-114300000D03*
%TD*%
D14*
%TO.P,D16,1,K*%
%TO.N,GND*%
X243840000Y-111760000D03*
D15*
%TO.P,D16,2,A*%
%TO.N,Net-(D16-A)*%
X243840000Y-114300000D03*
%TD*%
D14*
%TO.P,D15,1,K*%
%TO.N,GND*%
X236220000Y-111760000D03*
D15*
%TO.P,D15,2,A*%
%TO.N,Net-(D15-A)*%
X236220000Y-114300000D03*
%TD*%
D14*
%TO.P,D14,1,K*%
%TO.N,GND*%
X259080000Y-106680000D03*
D15*
%TO.P,D14,2,A*%
%TO.N,Net-(D14-A)*%
X259080000Y-104140000D03*
%TD*%
D14*
%TO.P,D13,1,K*%
%TO.N,GND*%
X251460000Y-106680000D03*
D15*
%TO.P,D13,2,A*%
%TO.N,Net-(D13-A)*%
X251460000Y-104140000D03*
%TD*%
D14*
%TO.P,D12,1,K*%
%TO.N,GND*%
X243840000Y-106680000D03*
D15*
%TO.P,D12,2,A*%
%TO.N,Net-(D12-A)*%
X243840000Y-104140000D03*
%TD*%
D14*
%TO.P,D11,1,K*%
%TO.N,GND*%
X236220000Y-106680000D03*
D15*
%TO.P,D11,2,A*%
%TO.N,Net-(D11-A)*%
X236220000Y-104140000D03*
%TD*%
D14*
%TO.P,D10,1,K*%
%TO.N,GND*%
X259080000Y-93980000D03*
D15*
%TO.P,D10,2,A*%
%TO.N,Net-(D10-A)*%
X259080000Y-96520000D03*
%TD*%
D14*
%TO.P,D9,1,K*%
%TO.N,GND*%
X251460000Y-93980000D03*
D15*
%TO.P,D9,2,A*%
%TO.N,Net-(D9-A)*%
X251460000Y-96520000D03*
%TD*%
%TO.P,D8,2,A*%
%TO.N,Net-(D8-A)*%
X243840000Y-96520000D03*
D14*
%TO.P,D8,1,K*%
%TO.N,GND*%
X243840000Y-93980000D03*
%TD*%
D15*
%TO.P,D7,2,A*%
%TO.N,Net-(D7-A)*%
X236220000Y-96520000D03*
D14*
%TO.P,D7,1,K*%
%TO.N,GND*%
X236220000Y-93980000D03*
%TD*%
D15*
%TO.P,D6,2,A*%
%TO.N,Net-(D6-A)*%
X259080000Y-86360000D03*
D14*
%TO.P,D6,1,K*%
%TO.N,GND*%
X259080000Y-88900000D03*
%TD*%
D15*
%TO.P,D5,2,A*%
%TO.N,Net-(D5-A)*%
X251460000Y-86360000D03*
D14*
%TO.P,D5,1,K*%
%TO.N,GND*%
X251460000Y-88900000D03*
%TD*%
D15*
%TO.P,D4,2,A*%
%TO.N,Net-(D4-A)*%
X243840000Y-86360000D03*
D14*
%TO.P,D4,1,K*%
%TO.N,GND*%
X243840000Y-88900000D03*
%TD*%
D15*
%TO.P,D3,2,A*%
%TO.N,Net-(D3-A)*%
X236220000Y-86360000D03*
D14*
%TO.P,D3,1,K*%
%TO.N,GND*%
X236220000Y-88900000D03*
%TD*%
D15*
%TO.P,D2,2,A*%
%TO.N,Net-(D2-A)*%
X226060000Y-104140000D03*
D14*
%TO.P,D2,1,K*%
%TO.N,GND*%
X226060000Y-106680000D03*
%TD*%
D15*
%TO.P,D1,2,A*%
%TO.N,Net-(D1-A)*%
X226060000Y-86360000D03*
D14*
%TO.P,D1,1,K*%
%TO.N,GND*%
X226060000Y-88900000D03*
%TD*%
D16*
%TO.N,Net-(JP1-B)*%
X223520000Y-93980000D03*
%TO.N,Net-(J1-Pin_3)*%
X203200000Y-104140000D03*
%TO.N,Net-(J1-Pin_4)*%
X203200000Y-101600000D03*
%TO.N,Net-(J1-Pin_5)*%
X203200000Y-99060000D03*
%TO.N,Net-(J1-Pin_6)*%
X203200000Y-96520000D03*
%TO.N,Net-(J1-Pin_7)*%
X203200000Y-93980000D03*
%TO.N,Net-(J1-Pin_8)*%
X203200000Y-91440000D03*
%TO.N,Net-(J1-Pin_9)*%
X203200000Y-88900000D03*
%TO.N,Net-(J1-Pin_10)*%
X203200000Y-86360000D03*
%TD*%
D17*
%TO.N,Net-(JP1-B)*%
X220980000Y-91440000D02*
X223520000Y-93980000D01*
X219710000Y-91440000D02*
X220980000Y-91440000D01*
%TO.N,+3.3V*%
X215900000Y-119380000D02*
X215900000Y-95250000D01*
X215900000Y-95250000D02*
X212090000Y-91440000D01*
%TO.N,GND*%
X236220000Y-111760000D02*
X227600000Y-120380000D01*
X227600000Y-120380000D02*
X214900000Y-120380000D01*
X214900000Y-120380000D02*
X213900000Y-119380000D01*
X226060000Y-106680000D02*
X236220000Y-106680000D01*
X236220000Y-93980000D02*
X233680000Y-96520000D01*
X233680000Y-96520000D02*
X233680000Y-104140000D01*
X233680000Y-104140000D02*
X236220000Y-106680000D01*
X226060000Y-88900000D02*
X220980000Y-83820000D01*
X220980000Y-83820000D02*
X216440000Y-83820000D01*
X216440000Y-83820000D02*
X213900000Y-81280000D01*
X236220000Y-88900000D02*
X226060000Y-88900000D01*
%TO.N,Net-(J1-Pin_3)*%
X203200000Y-104140000D02*
X201110000Y-106230000D01*
X201110000Y-106230000D02*
X201110000Y-108590000D01*
X201110000Y-108590000D02*
X211900000Y-119380000D01*
%TO.N,Net-(J1-Pin_4)*%
X203200000Y-101600000D02*
X200660000Y-104140000D01*
X200660000Y-104140000D02*
X200660000Y-110140000D01*
X200660000Y-110140000D02*
X209900000Y-119380000D01*
%TO.N,Net-(J1-Pin_5)*%
X203200000Y-99060000D02*
X200150000Y-102110000D01*
X200150000Y-102110000D02*
X200150000Y-111630000D01*
X200150000Y-111630000D02*
X207900000Y-119380000D01*
%TO.N,Net-(J1-Pin_6)*%
X203200000Y-96520000D02*
X199700000Y-100020000D01*
X199700000Y-100020000D02*
X199700000Y-113180000D01*
X199700000Y-113180000D02*
X205900000Y-119380000D01*
%TO.N,Net-(J1-Pin_7)*%
X203200000Y-93980000D02*
X199250000Y-97930000D01*
X199250000Y-97930000D02*
X199250000Y-114730000D01*
X199250000Y-114730000D02*
X203900000Y-119380000D01*
%TO.N,Net-(J1-Pin_8)*%
X203200000Y-91440000D02*
X198800000Y-95840000D01*
X198800000Y-95840000D02*
X198800000Y-116280000D01*
X198800000Y-116280000D02*
X201900000Y-119380000D01*
%TO.N,Net-(J1-Pin_9)*%
X203200000Y-88900000D02*
X198350000Y-93750000D01*
X198350000Y-93750000D02*
X198350000Y-117830000D01*
X198350000Y-117830000D02*
X199900000Y-119380000D01*
%TO.N,Net-(J1-Pin_10)*%
X203200000Y-86360000D02*
X197900000Y-91660000D01*
X197900000Y-91660000D02*
X197900000Y-119380000D01*
%TO.N,Net-(J1-Pin_3)*%
X203200000Y-104140000D02*
X207250000Y-100090000D01*
X207250000Y-85930000D02*
X211900000Y-81280000D01*
X207250000Y-100090000D02*
X207250000Y-85930000D01*
%TO.N,Net-(J1-Pin_4)*%
X203200000Y-101600000D02*
X206800000Y-98000000D01*
X206800000Y-98000000D02*
X206800000Y-84380000D01*
X206800000Y-84380000D02*
X209900000Y-81280000D01*
%TO.N,Net-(J1-Pin_5)*%
X203200000Y-99060000D02*
X206350000Y-95910000D01*
X206350000Y-95910000D02*
X206350000Y-82830000D01*
X206350000Y-82830000D02*
X207900000Y-81280000D01*
%TO.N,Net-(J1-Pin_6)*%
X203200000Y-96520000D02*
X205900000Y-93820000D01*
X205900000Y-93820000D02*
X205900000Y-81280000D01*
%TO.N,Net-(J1-Pin_7)*%
X203200000Y-93980000D02*
X204825000Y-92355000D01*
X204825000Y-92355000D02*
X204825000Y-82205000D01*
X204825000Y-82205000D02*
X203900000Y-81280000D01*
%TO.N,Net-(J1-Pin_8)*%
X204375000Y-84358604D02*
X203836396Y-83820000D01*
X204375000Y-90265000D02*
X204375000Y-84358604D01*
X203200000Y-91440000D02*
X204375000Y-90265000D01*
X203836396Y-83820000D02*
X203836396Y-83216396D01*
X203836396Y-83216396D02*
X201900000Y-81280000D01*
%TO.N,Net-(J1-Pin_9)*%
X203925000Y-84545000D02*
X203200000Y-83820000D01*
X203925000Y-88175000D02*
X203925000Y-84545000D01*
X203200000Y-88900000D02*
X203925000Y-88175000D01*
X203200000Y-83820000D02*
X202440000Y-83820000D01*
X202440000Y-83820000D02*
X199900000Y-81280000D01*
%TO.N,Net-(J1-Pin_10)*%
X203200000Y-86360000D02*
X202980000Y-86360000D01*
X202980000Y-86360000D02*
X197900000Y-81280000D01*
%TO.N,GND*%
X259080000Y-111760000D02*
X236220000Y-111760000D01*
X259080000Y-106680000D02*
X259080000Y-111760000D01*
X236220000Y-106680000D02*
X259080000Y-106680000D01*
X259080000Y-93980000D02*
X236220000Y-93980000D01*
X259080000Y-88900000D02*
X259080000Y-93980000D01*
X236220000Y-88900000D02*
X259080000Y-88900000D01*
%TD*%
M02*
