M48
; DRILL file {KiCad 7.0.8} date Sun Oct  8 00:59:29 2023
; FORMAT={-:-/ absolute / inch / decimal}
; #@! TF.CreationDate,2023-10-08T00:59:29-07:00
; #@! TF.GenerationSoftware,Kicad,Pcbnew,7.0.8
; #@! TF.FileFunction,MixedPlating,1,2
FMAT,2
INCH
; #@! TA.AperFunction,Plated,PTH,ViaDrill
T1C0.0157
; #@! TA.AperFunction,Plated,PTH,ComponentDrill
T2C0.0276
; #@! TA.AperFunction,Plated,PTH,ComponentDrill
T3C0.0315
; #@! TA.AperFunction,Plated,PTH,ComponentDrill
T4C0.0354
; #@! TA.AperFunction,NonPlated,NPTH,ComponentDrill
T5C0.0984
%
G90
G05
T1
X8.0Y-3.4
X8.0Y-3.5
X8.0Y-3.6
X8.0Y-3.7
X8.0Y-3.8
X8.0Y-3.9
X8.0Y-4.0
X8.0Y-4.1
X8.8Y-3.7
T2
X7.75Y-4.3
X8.05Y-4.3
X8.35Y-3.4
X8.35Y-3.6
X8.4Y-4.1
X8.65Y-3.4
X8.65Y-3.6
X8.7Y-4.1
T3
X7.7913Y-3.2
X7.7913Y-4.7
X7.8701Y-3.2
X7.8701Y-4.7
X7.9488Y-3.2
X7.9488Y-4.7
X8.0276Y-3.2
X8.0276Y-4.7
X8.1063Y-3.2
X8.1063Y-4.7
X8.185Y-3.2
X8.185Y-4.7
X8.2638Y-3.2
X8.2638Y-4.7
X8.3425Y-3.2
X8.3425Y-4.7
X8.4213Y-3.2
X8.4213Y-4.7
X8.5Y-3.2
X8.5Y-4.7
T4
X8.9Y-3.4
X8.9Y-3.5
X8.9Y-4.1
X8.9Y-4.2
X9.3Y-3.4
X9.3Y-3.5
X9.3Y-3.7
X9.3Y-3.8
X9.3Y-4.1
X9.3Y-4.2
X9.3Y-4.4
X9.3Y-4.5
X9.6Y-3.4
X9.6Y-3.5
X9.6Y-3.7
X9.6Y-3.8
X9.6Y-4.1
X9.6Y-4.2
X9.6Y-4.4
X9.6Y-4.5
X9.9Y-3.4
X9.9Y-3.5
X9.9Y-3.7
X9.9Y-3.8
X9.9Y-4.1
X9.9Y-4.2
X9.9Y-4.4
X9.9Y-4.5
X10.2Y-3.4
X10.2Y-3.5
X10.2Y-3.7
X10.2Y-3.8
X10.2Y-4.1
X10.2Y-4.2
X10.2Y-4.4
X10.2Y-4.5
T5
X9.3Y-4.7
X10.5Y-3.2
T0
M30
