%TF.GenerationSoftware,KiCad,Pcbnew,7.0.7*%
%TF.CreationDate,2023-10-07T17:43:20-07:00*%
%TF.ProjectId,htpm_control_display,6874706d-5f63-46f6-9e74-726f6c5f6469,1*%
%TF.SameCoordinates,Original*%
%TF.FileFunction,Legend,Top*%
%TF.FilePolarity,Positive*%
%FSLAX46Y46*%
G04 Gerber Fmt 4.6, Leading zero omitted, Abs format (unit mm)*
G04 Created by KiCad (PCBNEW 7.0.7) date 2023-10-07 17:43:20*
%MOMM*%
%LPD*%
G01*
G04 APERTURE LIST*
%ADD10C,0.150000*%
%ADD11C,0.120000*%
G04 APERTURE END LIST*
D10*
X144018095Y-113794819D02*
X144018095Y-112794819D01*
X144018095Y-113271009D02*
X144589523Y-113271009D01*
X144589523Y-113794819D02*
X144589523Y-112794819D01*
X145018095Y-112890057D02*
X145065714Y-112842438D01*
X145065714Y-112842438D02*
X145160952Y-112794819D01*
X145160952Y-112794819D02*
X145399047Y-112794819D01*
X145399047Y-112794819D02*
X145494285Y-112842438D01*
X145494285Y-112842438D02*
X145541904Y-112890057D01*
X145541904Y-112890057D02*
X145589523Y-112985295D01*
X145589523Y-112985295D02*
X145589523Y-113080533D01*
X145589523Y-113080533D02*
X145541904Y-113223390D01*
X145541904Y-113223390D02*
X144970476Y-113794819D01*
X144970476Y-113794819D02*
X145589523Y-113794819D01*
X136398095Y-85854819D02*
X136398095Y-84854819D01*
X136398095Y-85331009D02*
X136969523Y-85331009D01*
X136969523Y-85854819D02*
X136969523Y-84854819D01*
X137969523Y-85854819D02*
X137398095Y-85854819D01*
X137683809Y-85854819D02*
X137683809Y-84854819D01*
X137683809Y-84854819D02*
X137588571Y-84997676D01*
X137588571Y-84997676D02*
X137493333Y-85092914D01*
X137493333Y-85092914D02*
X137398095Y-85140533D01*
D11*
%TO.C,D15*%
X156485000Y-110470000D02*
X153395000Y-110470000D01*
X154939538Y-116019999D02*
G75*
G03*
X156484830Y-110470001I462J2989999D01*
G01*
X153395170Y-110470000D02*
G75*
G03*
X154940462Y-116020000I1544830J-2560000D01*
G01*
X157440000Y-113030000D02*
G75*
G03*
X157440000Y-113030000I-2500000J0D01*
G01*
%TO.C,D2*%
X140695000Y-107970000D02*
X143785000Y-107970000D01*
X142240462Y-102420001D02*
G75*
G03*
X140695170Y-107969999I-462J-2989999D01*
G01*
X143784830Y-107970000D02*
G75*
G03*
X142239538Y-102420000I-1544830J2560000D01*
G01*
X144740000Y-105410000D02*
G75*
G03*
X144740000Y-105410000I-2500000J0D01*
G01*
%TO.C,R1*%
X127940000Y-81280000D02*
X128890000Y-81280000D01*
X128890000Y-80360000D02*
X128890000Y-82200000D01*
X128890000Y-82200000D02*
X132730000Y-82200000D01*
X132730000Y-80360000D02*
X128890000Y-80360000D01*
X132730000Y-82200000D02*
X132730000Y-80360000D01*
X133680000Y-81280000D02*
X132730000Y-81280000D01*
%TO.C,D1*%
X140695000Y-85110000D02*
X143785000Y-85110000D01*
X142240462Y-79560001D02*
G75*
G03*
X140695170Y-85109999I-462J-2989999D01*
G01*
X143784830Y-85110000D02*
G75*
G03*
X142239538Y-79560000I-1544830J2560000D01*
G01*
X144740000Y-82550000D02*
G75*
G03*
X144740000Y-82550000I-2500000J0D01*
G01*
%TO.C,D12*%
X161015000Y-107970000D02*
X164105000Y-107970000D01*
X162560462Y-102420001D02*
G75*
G03*
X161015170Y-107969999I-462J-2989999D01*
G01*
X164104830Y-107970000D02*
G75*
G03*
X162559538Y-102420000I-1544830J2560000D01*
G01*
X165060000Y-105410000D02*
G75*
G03*
X165060000Y-105410000I-2500000J0D01*
G01*
%TO.C,D5*%
X168635000Y-85110000D02*
X171725000Y-85110000D01*
X170180462Y-79560001D02*
G75*
G03*
X168635170Y-85109999I-462J-2989999D01*
G01*
X171724830Y-85110000D02*
G75*
G03*
X170179538Y-79560000I-1544830J2560000D01*
G01*
X172680000Y-82550000D02*
G75*
G03*
X172680000Y-82550000I-2500000J0D01*
G01*
%TO.C,D6*%
X176255000Y-85110000D02*
X179345000Y-85110000D01*
X177800462Y-79560001D02*
G75*
G03*
X176255170Y-85109999I-462J-2989999D01*
G01*
X179344830Y-85110000D02*
G75*
G03*
X177799538Y-79560000I-1544830J2560000D01*
G01*
X180300000Y-82550000D02*
G75*
G03*
X180300000Y-82550000I-2500000J0D01*
G01*
%TO.C,D8*%
X164105000Y-87610000D02*
X161015000Y-87610000D01*
X162559538Y-93159999D02*
G75*
G03*
X164104830Y-87610001I462J2989999D01*
G01*
X161015170Y-87610000D02*
G75*
G03*
X162560462Y-93160000I1544830J-2560000D01*
G01*
X165060000Y-90170000D02*
G75*
G03*
X165060000Y-90170000I-2500000J0D01*
G01*
%TO.C,D17*%
X171725000Y-110470000D02*
X168635000Y-110470000D01*
X170179538Y-116019999D02*
G75*
G03*
X171724830Y-110470001I462J2989999D01*
G01*
X168635170Y-110470000D02*
G75*
G03*
X170180462Y-116020000I1544830J-2560000D01*
G01*
X172680000Y-113030000D02*
G75*
G03*
X172680000Y-113030000I-2500000J0D01*
G01*
%TO.C,J1*%
X133140000Y-75140000D02*
X133140000Y-76200000D01*
X132080000Y-75140000D02*
X133140000Y-75140000D01*
X131080000Y-75140000D02*
X113020000Y-75140000D01*
X131080000Y-75140000D02*
X131080000Y-77260000D01*
X113020000Y-75140000D02*
X113020000Y-77260000D01*
X131080000Y-77260000D02*
X113020000Y-77260000D01*
%TO.C,R3*%
X141910000Y-99060000D02*
X142860000Y-99060000D01*
X142860000Y-98140000D02*
X142860000Y-99980000D01*
X142860000Y-99980000D02*
X146700000Y-99980000D01*
X146700000Y-98140000D02*
X142860000Y-98140000D01*
X146700000Y-99980000D02*
X146700000Y-98140000D01*
X147650000Y-99060000D02*
X146700000Y-99060000D01*
%TO.C,D14*%
X176255000Y-107970000D02*
X179345000Y-107970000D01*
X177800462Y-102420001D02*
G75*
G03*
X176255170Y-107969999I-462J-2989999D01*
G01*
X179344830Y-107970000D02*
G75*
G03*
X177799538Y-102420000I-1544830J2560000D01*
G01*
X180300000Y-105410000D02*
G75*
G03*
X180300000Y-105410000I-2500000J0D01*
G01*
%TO.C,D10*%
X179345000Y-87610000D02*
X176255000Y-87610000D01*
X177799538Y-93159999D02*
G75*
G03*
X179344830Y-87610001I462J2989999D01*
G01*
X176255170Y-87610000D02*
G75*
G03*
X177800462Y-93160000I1544830J-2560000D01*
G01*
X180300000Y-90170000D02*
G75*
G03*
X180300000Y-90170000I-2500000J0D01*
G01*
%TO.C,D4*%
X161015000Y-85110000D02*
X164105000Y-85110000D01*
X162560462Y-79560001D02*
G75*
G03*
X161015170Y-85109999I-462J-2989999D01*
G01*
X164104830Y-85110000D02*
G75*
G03*
X162559538Y-79560000I-1544830J2560000D01*
G01*
X165060000Y-82550000D02*
G75*
G03*
X165060000Y-82550000I-2500000J0D01*
G01*
%TO.C,D3*%
X153395000Y-85110000D02*
X156485000Y-85110000D01*
X154940462Y-79560001D02*
G75*
G03*
X153395170Y-85109999I-462J-2989999D01*
G01*
X156484830Y-85110000D02*
G75*
G03*
X154939538Y-79560000I-1544830J2560000D01*
G01*
X157440000Y-82550000D02*
G75*
G03*
X157440000Y-82550000I-2500000J0D01*
G01*
%TO.C,D16*%
X164105000Y-110470000D02*
X161015000Y-110470000D01*
X162559538Y-116019999D02*
G75*
G03*
X164104830Y-110470001I462J2989999D01*
G01*
X161015170Y-110470000D02*
G75*
G03*
X162560462Y-116020000I1544830J-2560000D01*
G01*
X165060000Y-113030000D02*
G75*
G03*
X165060000Y-113030000I-2500000J0D01*
G01*
%TO.C,D18*%
X179345000Y-110470000D02*
X176255000Y-110470000D01*
X177799538Y-116019999D02*
G75*
G03*
X179344830Y-110470001I462J2989999D01*
G01*
X176255170Y-110470000D02*
G75*
G03*
X177800462Y-116020000I1544830J-2560000D01*
G01*
X180300000Y-113030000D02*
G75*
G03*
X180300000Y-113030000I-2500000J0D01*
G01*
%TO.C,D9*%
X171725000Y-87610000D02*
X168635000Y-87610000D01*
X170179538Y-93159999D02*
G75*
G03*
X171724830Y-87610001I462J2989999D01*
G01*
X168635170Y-87610000D02*
G75*
G03*
X170180462Y-93160000I1544830J-2560000D01*
G01*
X172680000Y-90170000D02*
G75*
G03*
X172680000Y-90170000I-2500000J0D01*
G01*
%TO.C,D13*%
X168635000Y-107970000D02*
X171725000Y-107970000D01*
X170180462Y-102420001D02*
G75*
G03*
X168635170Y-107969999I-462J-2989999D01*
G01*
X171724830Y-107970000D02*
G75*
G03*
X170179538Y-102420000I-1544830J2560000D01*
G01*
X172680000Y-105410000D02*
G75*
G03*
X172680000Y-105410000I-2500000J0D01*
G01*
%TO.C,J2*%
X133140000Y-118320000D02*
X133140000Y-119380000D01*
X132080000Y-118320000D02*
X133140000Y-118320000D01*
X131080000Y-118320000D02*
X113020000Y-118320000D01*
X131080000Y-118320000D02*
X131080000Y-120440000D01*
X113020000Y-118320000D02*
X113020000Y-120440000D01*
X131080000Y-120440000D02*
X113020000Y-120440000D01*
%TO.C,D11*%
X153395000Y-107970000D02*
X156485000Y-107970000D01*
X154940462Y-102420001D02*
G75*
G03*
X153395170Y-107969999I-462J-2989999D01*
G01*
X156484830Y-107970000D02*
G75*
G03*
X154939538Y-102420000I-1544830J2560000D01*
G01*
X157440000Y-105410000D02*
G75*
G03*
X157440000Y-105410000I-2500000J0D01*
G01*
%TO.C,R4*%
X141910000Y-93980000D02*
X142860000Y-93980000D01*
X142860000Y-93060000D02*
X142860000Y-94900000D01*
X142860000Y-94900000D02*
X146700000Y-94900000D01*
X146700000Y-93060000D02*
X142860000Y-93060000D01*
X146700000Y-94900000D02*
X146700000Y-93060000D01*
X147650000Y-93980000D02*
X146700000Y-93980000D01*
%TO.C,R2*%
X127940000Y-104140000D02*
X128890000Y-104140000D01*
X128890000Y-103220000D02*
X128890000Y-105060000D01*
X128890000Y-105060000D02*
X132730000Y-105060000D01*
X132730000Y-103220000D02*
X128890000Y-103220000D01*
X132730000Y-105060000D02*
X132730000Y-103220000D01*
X133680000Y-104140000D02*
X132730000Y-104140000D01*
%TO.C,D7*%
X156485000Y-87610000D02*
X153395000Y-87610000D01*
X154939538Y-93159999D02*
G75*
G03*
X156484830Y-87610001I462J2989999D01*
G01*
X153395170Y-87610000D02*
G75*
G03*
X154940462Y-93160000I1544830J-2560000D01*
G01*
X157440000Y-90170000D02*
G75*
G03*
X157440000Y-90170000I-2500000J0D01*
G01*
%TD*%
M02*
