%TF.GenerationSoftware,KiCad,Pcbnew,7.0.8*%
%TF.CreationDate,2023-10-08T00:59:27-07:00*%
%TF.ProjectId,htpm_control_module_display,6874706d-5f63-46f6-9e74-726f6c5f6d6f,1*%
%TF.SameCoordinates,Original*%
%TF.FileFunction,Legend,Top*%
%TF.FilePolarity,Positive*%
%FSLAX46Y46*%
G04 Gerber Fmt 4.6, Leading zero omitted, Abs format (unit mm)*
G04 Created by KiCad (PCBNEW 7.0.8) date 2023-10-08 00:59:27*
%MOMM*%
%LPD*%
G01*
G04 APERTURE LIST*
%ADD10C,0.120000*%
G04 APERTURE END LIST*
D10*
%TO.C,R4*%
X217820000Y-92360000D02*
X217820000Y-90520000D01*
X217820000Y-90520000D02*
X213980000Y-90520000D01*
X213980000Y-92360000D02*
X217820000Y-92360000D01*
X218770000Y-91440000D02*
X217820000Y-91440000D01*
X213980000Y-90520000D02*
X213980000Y-92360000D01*
X213030000Y-91440000D02*
X213980000Y-91440000D01*
%TO.C,R3*%
X202580000Y-110140000D02*
X202580000Y-108300000D01*
X202580000Y-108300000D02*
X198740000Y-108300000D01*
X198740000Y-110140000D02*
X202580000Y-110140000D01*
X203530000Y-109220000D02*
X202580000Y-109220000D01*
X198740000Y-108300000D02*
X198740000Y-110140000D01*
X197790000Y-109220000D02*
X198740000Y-109220000D01*
%TO.C,R2*%
X219090000Y-105060000D02*
X219090000Y-103220000D01*
X219090000Y-103220000D02*
X215250000Y-103220000D01*
X215250000Y-105060000D02*
X219090000Y-105060000D01*
X220040000Y-104140000D02*
X219090000Y-104140000D01*
X215250000Y-103220000D02*
X215250000Y-105060000D01*
X214300000Y-104140000D02*
X215250000Y-104140000D01*
%TO.C,R1*%
X217820000Y-87280000D02*
X217820000Y-85440000D01*
X217820000Y-85440000D02*
X213980000Y-85440000D01*
X213980000Y-87280000D02*
X217820000Y-87280000D01*
X218770000Y-86360000D02*
X217820000Y-86360000D01*
X213980000Y-85440000D02*
X213980000Y-87280000D01*
X213030000Y-86360000D02*
X213980000Y-86360000D01*
%TO.C,JP32*%
X201335000Y-87360000D02*
X198535000Y-87360000D01*
X198535000Y-87360000D02*
X198535000Y-85360000D01*
X198535000Y-85360000D02*
X201335000Y-85360000D01*
X201335000Y-85360000D02*
X201335000Y-87360000D01*
%TO.C,JP31*%
X201335000Y-89900000D02*
X198535000Y-89900000D01*
X198535000Y-89900000D02*
X198535000Y-87900000D01*
X198535000Y-87900000D02*
X201335000Y-87900000D01*
X201335000Y-87900000D02*
X201335000Y-89900000D01*
%TO.C,JP30*%
X201335000Y-92440000D02*
X198535000Y-92440000D01*
X198535000Y-92440000D02*
X198535000Y-90440000D01*
X198535000Y-90440000D02*
X201335000Y-90440000D01*
X201335000Y-90440000D02*
X201335000Y-92440000D01*
%TO.C,JP29*%
X201335000Y-94980000D02*
X198535000Y-94980000D01*
X198535000Y-94980000D02*
X198535000Y-92980000D01*
X198535000Y-92980000D02*
X201335000Y-92980000D01*
X201335000Y-92980000D02*
X201335000Y-94980000D01*
%TO.C,JP28*%
X201335000Y-97520000D02*
X198535000Y-97520000D01*
X198535000Y-97520000D02*
X198535000Y-95520000D01*
X198535000Y-95520000D02*
X201335000Y-95520000D01*
X201335000Y-95520000D02*
X201335000Y-97520000D01*
%TO.C,JP27*%
X201335000Y-100060000D02*
X198535000Y-100060000D01*
X198535000Y-100060000D02*
X198535000Y-98060000D01*
X198535000Y-98060000D02*
X201335000Y-98060000D01*
X201335000Y-98060000D02*
X201335000Y-100060000D01*
%TO.C,JP26*%
X201335000Y-102600000D02*
X198535000Y-102600000D01*
X198535000Y-102600000D02*
X198535000Y-100600000D01*
X198535000Y-100600000D02*
X201335000Y-100600000D01*
X201335000Y-100600000D02*
X201335000Y-102600000D01*
%TO.C,JP25*%
X201335000Y-105140000D02*
X198535000Y-105140000D01*
X198535000Y-105140000D02*
X198535000Y-103140000D01*
X198535000Y-103140000D02*
X201335000Y-103140000D01*
X201335000Y-103140000D02*
X201335000Y-105140000D01*
%TO.C,JP24*%
X206155000Y-105140000D02*
X206155000Y-103140000D01*
X208955000Y-105140000D02*
X206155000Y-105140000D01*
X208955000Y-103140000D02*
X208955000Y-105140000D01*
X206155000Y-103140000D02*
X208955000Y-103140000D01*
%TO.C,JP23*%
X206155000Y-100600000D02*
X208955000Y-100600000D01*
X208955000Y-100600000D02*
X208955000Y-102600000D01*
X208955000Y-102600000D02*
X206155000Y-102600000D01*
X206155000Y-102600000D02*
X206155000Y-100600000D01*
%TO.C,JP22*%
X206155000Y-98060000D02*
X208955000Y-98060000D01*
X208955000Y-98060000D02*
X208955000Y-100060000D01*
X208955000Y-100060000D02*
X206155000Y-100060000D01*
X206155000Y-100060000D02*
X206155000Y-98060000D01*
%TO.C,JP21*%
X206155000Y-95520000D02*
X208955000Y-95520000D01*
X208955000Y-95520000D02*
X208955000Y-97520000D01*
X208955000Y-97520000D02*
X206155000Y-97520000D01*
X206155000Y-97520000D02*
X206155000Y-95520000D01*
%TO.C,JP20*%
X206155000Y-92980000D02*
X208955000Y-92980000D01*
X208955000Y-92980000D02*
X208955000Y-94980000D01*
X208955000Y-94980000D02*
X206155000Y-94980000D01*
X206155000Y-94980000D02*
X206155000Y-92980000D01*
%TO.C,JP19*%
X206155000Y-90440000D02*
X208955000Y-90440000D01*
X208955000Y-90440000D02*
X208955000Y-92440000D01*
X208955000Y-92440000D02*
X206155000Y-92440000D01*
X206155000Y-92440000D02*
X206155000Y-90440000D01*
%TO.C,JP18*%
X206155000Y-87900000D02*
X208955000Y-87900000D01*
X208955000Y-87900000D02*
X208955000Y-89900000D01*
X208955000Y-89900000D02*
X206155000Y-89900000D01*
X206155000Y-89900000D02*
X206155000Y-87900000D01*
%TO.C,JP17*%
X206155000Y-85360000D02*
X208955000Y-85360000D01*
X208955000Y-85360000D02*
X208955000Y-87360000D01*
X208955000Y-87360000D02*
X206155000Y-87360000D01*
X206155000Y-87360000D02*
X206155000Y-85360000D01*
%TO.C,JP16*%
X219440000Y-113885000D02*
X217440000Y-113885000D01*
X219440000Y-111085000D02*
X219440000Y-113885000D01*
X217440000Y-111085000D02*
X219440000Y-111085000D01*
X217440000Y-113885000D02*
X217440000Y-111085000D01*
%TO.C,JP15*%
X216900000Y-113885000D02*
X214900000Y-113885000D01*
X216900000Y-111085000D02*
X216900000Y-113885000D01*
X214900000Y-111085000D02*
X216900000Y-111085000D01*
X214900000Y-113885000D02*
X214900000Y-111085000D01*
%TO.C,JP14*%
X214360000Y-113885000D02*
X212360000Y-113885000D01*
X214360000Y-111085000D02*
X214360000Y-113885000D01*
X212360000Y-111085000D02*
X214360000Y-111085000D01*
X212360000Y-113885000D02*
X212360000Y-111085000D01*
%TO.C,JP13*%
X211820000Y-113885000D02*
X209820000Y-113885000D01*
X211820000Y-111085000D02*
X211820000Y-113885000D01*
X209820000Y-111085000D02*
X211820000Y-111085000D01*
X209820000Y-113885000D02*
X209820000Y-111085000D01*
%TO.C,JP12*%
X217440000Y-107095000D02*
X219440000Y-107095000D01*
X217440000Y-109895000D02*
X217440000Y-107095000D01*
X219440000Y-109895000D02*
X217440000Y-109895000D01*
X219440000Y-107095000D02*
X219440000Y-109895000D01*
%TO.C,JP11*%
X214900000Y-107095000D02*
X216900000Y-107095000D01*
X214900000Y-109895000D02*
X214900000Y-107095000D01*
X216900000Y-109895000D02*
X214900000Y-109895000D01*
X216900000Y-107095000D02*
X216900000Y-109895000D01*
%TO.C,JP10*%
X212360000Y-107095000D02*
X214360000Y-107095000D01*
X212360000Y-109895000D02*
X212360000Y-107095000D01*
X214360000Y-109895000D02*
X212360000Y-109895000D01*
X214360000Y-107095000D02*
X214360000Y-109895000D01*
%TO.C,JP9*%
X209820000Y-107095000D02*
X211820000Y-107095000D01*
X209820000Y-109895000D02*
X209820000Y-107095000D01*
X211820000Y-109895000D02*
X209820000Y-109895000D01*
X211820000Y-107095000D02*
X211820000Y-109895000D01*
%TO.C,JP8*%
X221980000Y-101185000D02*
X219980000Y-101185000D01*
X221980000Y-98385000D02*
X221980000Y-101185000D01*
X219980000Y-98385000D02*
X221980000Y-98385000D01*
X219980000Y-101185000D02*
X219980000Y-98385000D01*
%TO.C,JP7*%
X219440000Y-101185000D02*
X217440000Y-101185000D01*
X219440000Y-98385000D02*
X219440000Y-101185000D01*
X217440000Y-98385000D02*
X219440000Y-98385000D01*
X217440000Y-101185000D02*
X217440000Y-98385000D01*
%TO.C,JP6*%
X216900000Y-101185000D02*
X214900000Y-101185000D01*
X216900000Y-98385000D02*
X216900000Y-101185000D01*
X214900000Y-98385000D02*
X216900000Y-98385000D01*
X214900000Y-101185000D02*
X214900000Y-98385000D01*
%TO.C,JP5*%
X214360000Y-101185000D02*
X212360000Y-101185000D01*
X214360000Y-98385000D02*
X214360000Y-101185000D01*
X212360000Y-98385000D02*
X214360000Y-98385000D01*
X212360000Y-101185000D02*
X212360000Y-98385000D01*
%TO.C,JP4*%
X219980000Y-94395000D02*
X221980000Y-94395000D01*
X219980000Y-97195000D02*
X219980000Y-94395000D01*
X221980000Y-97195000D02*
X219980000Y-97195000D01*
X221980000Y-94395000D02*
X221980000Y-97195000D01*
%TO.C,JP3*%
X217440000Y-94395000D02*
X219440000Y-94395000D01*
X217440000Y-97195000D02*
X217440000Y-94395000D01*
X219440000Y-97195000D02*
X217440000Y-97195000D01*
X219440000Y-94395000D02*
X219440000Y-97195000D01*
%TO.C,JP2*%
X214900000Y-94395000D02*
X216900000Y-94395000D01*
X214900000Y-97195000D02*
X214900000Y-94395000D01*
X216900000Y-97195000D02*
X214900000Y-97195000D01*
X216900000Y-94395000D02*
X216900000Y-97195000D01*
%TO.C,JP1*%
X212360000Y-94395000D02*
X214360000Y-94395000D01*
X212360000Y-97195000D02*
X212360000Y-94395000D01*
X214360000Y-97195000D02*
X212360000Y-97195000D01*
X214360000Y-94395000D02*
X214360000Y-97195000D01*
%TO.C,J2*%
X214900000Y-80220000D02*
X196840000Y-80220000D01*
X214900000Y-82340000D02*
X196840000Y-82340000D01*
X214900000Y-80220000D02*
X214900000Y-82340000D01*
X196840000Y-80220000D02*
X196840000Y-82340000D01*
X216960000Y-80220000D02*
X216960000Y-81280000D01*
X215900000Y-80220000D02*
X216960000Y-80220000D01*
%TO.C,J1*%
X215900000Y-118320000D02*
X216960000Y-118320000D01*
X216960000Y-118320000D02*
X216960000Y-119380000D01*
X196840000Y-118320000D02*
X196840000Y-120440000D01*
X214900000Y-118320000D02*
X214900000Y-120440000D01*
X214900000Y-120440000D02*
X196840000Y-120440000D01*
X214900000Y-118320000D02*
X196840000Y-118320000D01*
%TO.C,D18*%
X260625000Y-110470000D02*
X257535000Y-110470000D01*
X257535170Y-110470000D02*
G75*
G03*
X259080462Y-116020000I1544830J-2560000D01*
G01*
X259079538Y-116019999D02*
G75*
G03*
X260624830Y-110470001I462J2989999D01*
G01*
X261580000Y-113030000D02*
G75*
G03*
X261580000Y-113030000I-2500000J0D01*
G01*
%TO.C,D17*%
X253005000Y-110470000D02*
X249915000Y-110470000D01*
X249915170Y-110470000D02*
G75*
G03*
X251460462Y-116020000I1544830J-2560000D01*
G01*
X251459538Y-116019999D02*
G75*
G03*
X253004830Y-110470001I462J2989999D01*
G01*
X253960000Y-113030000D02*
G75*
G03*
X253960000Y-113030000I-2500000J0D01*
G01*
%TO.C,D16*%
X245385000Y-110470000D02*
X242295000Y-110470000D01*
X242295170Y-110470000D02*
G75*
G03*
X243840462Y-116020000I1544830J-2560000D01*
G01*
X243839538Y-116019999D02*
G75*
G03*
X245384830Y-110470001I462J2989999D01*
G01*
X246340000Y-113030000D02*
G75*
G03*
X246340000Y-113030000I-2500000J0D01*
G01*
%TO.C,D15*%
X237765000Y-110470000D02*
X234675000Y-110470000D01*
X234675170Y-110470000D02*
G75*
G03*
X236220462Y-116020000I1544830J-2560000D01*
G01*
X236219538Y-116019999D02*
G75*
G03*
X237764830Y-110470001I462J2989999D01*
G01*
X238720000Y-113030000D02*
G75*
G03*
X238720000Y-113030000I-2500000J0D01*
G01*
%TO.C,D14*%
X257535000Y-107970000D02*
X260625000Y-107970000D01*
X260624830Y-107970000D02*
G75*
G03*
X259079538Y-102420000I-1544830J2560000D01*
G01*
X259080462Y-102420001D02*
G75*
G03*
X257535170Y-107969999I-462J-2989999D01*
G01*
X261580000Y-105410000D02*
G75*
G03*
X261580000Y-105410000I-2500000J0D01*
G01*
%TO.C,D13*%
X249915000Y-107970000D02*
X253005000Y-107970000D01*
X253004830Y-107970000D02*
G75*
G03*
X251459538Y-102420000I-1544830J2560000D01*
G01*
X251460462Y-102420001D02*
G75*
G03*
X249915170Y-107969999I-462J-2989999D01*
G01*
X253960000Y-105410000D02*
G75*
G03*
X253960000Y-105410000I-2500000J0D01*
G01*
%TO.C,D12*%
X242295000Y-107970000D02*
X245385000Y-107970000D01*
X245384830Y-107970000D02*
G75*
G03*
X243839538Y-102420000I-1544830J2560000D01*
G01*
X243840462Y-102420001D02*
G75*
G03*
X242295170Y-107969999I-462J-2989999D01*
G01*
X246340000Y-105410000D02*
G75*
G03*
X246340000Y-105410000I-2500000J0D01*
G01*
%TO.C,D11*%
X234675000Y-107970000D02*
X237765000Y-107970000D01*
X237764830Y-107970000D02*
G75*
G03*
X236219538Y-102420000I-1544830J2560000D01*
G01*
X236220462Y-102420001D02*
G75*
G03*
X234675170Y-107969999I-462J-2989999D01*
G01*
X238720000Y-105410000D02*
G75*
G03*
X238720000Y-105410000I-2500000J0D01*
G01*
%TO.C,D10*%
X260625000Y-92690000D02*
X257535000Y-92690000D01*
X257535170Y-92690000D02*
G75*
G03*
X259080462Y-98240000I1544830J-2560000D01*
G01*
X259079538Y-98239999D02*
G75*
G03*
X260624830Y-92690001I462J2989999D01*
G01*
X261580000Y-95250000D02*
G75*
G03*
X261580000Y-95250000I-2500000J0D01*
G01*
%TO.C,D9*%
X253005000Y-92690000D02*
X249915000Y-92690000D01*
X249915170Y-92690000D02*
G75*
G03*
X251460462Y-98240000I1544830J-2560000D01*
G01*
X251459538Y-98239999D02*
G75*
G03*
X253004830Y-92690001I462J2989999D01*
G01*
X253960000Y-95250000D02*
G75*
G03*
X253960000Y-95250000I-2500000J0D01*
G01*
%TO.C,D8*%
X246340000Y-95250000D02*
G75*
G03*
X246340000Y-95250000I-2500000J0D01*
G01*
X243839538Y-98239999D02*
G75*
G03*
X245384830Y-92690001I462J2989999D01*
G01*
X242295170Y-92690000D02*
G75*
G03*
X243840462Y-98240000I1544830J-2560000D01*
G01*
X245385000Y-92690000D02*
X242295000Y-92690000D01*
%TO.C,D7*%
X238720000Y-95250000D02*
G75*
G03*
X238720000Y-95250000I-2500000J0D01*
G01*
X236219538Y-98239999D02*
G75*
G03*
X237764830Y-92690001I462J2989999D01*
G01*
X234675170Y-92690000D02*
G75*
G03*
X236220462Y-98240000I1544830J-2560000D01*
G01*
X237765000Y-92690000D02*
X234675000Y-92690000D01*
%TO.C,D6*%
X261580000Y-87630000D02*
G75*
G03*
X261580000Y-87630000I-2500000J0D01*
G01*
X259080462Y-84640001D02*
G75*
G03*
X257535170Y-90189999I-462J-2989999D01*
G01*
X260624830Y-90190000D02*
G75*
G03*
X259079538Y-84640000I-1544830J2560000D01*
G01*
X257535000Y-90190000D02*
X260625000Y-90190000D01*
%TO.C,D5*%
X253960000Y-87630000D02*
G75*
G03*
X253960000Y-87630000I-2500000J0D01*
G01*
X251460462Y-84640001D02*
G75*
G03*
X249915170Y-90189999I-462J-2989999D01*
G01*
X253004830Y-90190000D02*
G75*
G03*
X251459538Y-84640000I-1544830J2560000D01*
G01*
X249915000Y-90190000D02*
X253005000Y-90190000D01*
%TO.C,D4*%
X246340000Y-87630000D02*
G75*
G03*
X246340000Y-87630000I-2500000J0D01*
G01*
X243840462Y-84640001D02*
G75*
G03*
X242295170Y-90189999I-462J-2989999D01*
G01*
X245384830Y-90190000D02*
G75*
G03*
X243839538Y-84640000I-1544830J2560000D01*
G01*
X242295000Y-90190000D02*
X245385000Y-90190000D01*
%TO.C,D3*%
X238720000Y-87630000D02*
G75*
G03*
X238720000Y-87630000I-2500000J0D01*
G01*
X236220462Y-84640001D02*
G75*
G03*
X234675170Y-90189999I-462J-2989999D01*
G01*
X237764830Y-90190000D02*
G75*
G03*
X236219538Y-84640000I-1544830J2560000D01*
G01*
X234675000Y-90190000D02*
X237765000Y-90190000D01*
%TO.C,D2*%
X228560000Y-105410000D02*
G75*
G03*
X228560000Y-105410000I-2500000J0D01*
G01*
X226060462Y-102420001D02*
G75*
G03*
X224515170Y-107969999I-462J-2989999D01*
G01*
X227604830Y-107970000D02*
G75*
G03*
X226059538Y-102420000I-1544830J2560000D01*
G01*
X224515000Y-107970000D02*
X227605000Y-107970000D01*
%TO.C,D1*%
X228560000Y-87630000D02*
G75*
G03*
X228560000Y-87630000I-2500000J0D01*
G01*
X226060462Y-84640001D02*
G75*
G03*
X224515170Y-90189999I-462J-2989999D01*
G01*
X227604830Y-90190000D02*
G75*
G03*
X226059538Y-84640000I-1544830J2560000D01*
G01*
X224515000Y-90190000D02*
X227605000Y-90190000D01*
%TD*%
M02*
