%TF.GenerationSoftware,KiCad,Pcbnew,7.0.8*%
%TF.CreationDate,2023-10-10T01:09:48-07:00*%
%TF.ProjectId,htpm_control_numericals,6874706d-5f63-46f6-9e74-726f6c5f6e75,1*%
%TF.SameCoordinates,Original*%
%TF.FileFunction,Copper,L2,Bot*%
%TF.FilePolarity,Positive*%
%FSLAX46Y46*%
G04 Gerber Fmt 4.6, Leading zero omitted, Abs format (unit mm)*
G04 Created by KiCad (PCBNEW 7.0.8) date 2023-10-10 01:09:48*
%MOMM*%
%LPD*%
G01*
G04 APERTURE LIST*
%TA.AperFunction,ComponentPad*%
%ADD10R,1.600000X1.600000*%
%TD*%
%TA.AperFunction,ComponentPad*%
%ADD11C,1.600000*%
%TD*%
%TA.AperFunction,ComponentPad*%
%ADD12C,1.400000*%
%TD*%
%TA.AperFunction,ComponentPad*%
%ADD13O,1.400000X1.400000*%
%TD*%
%TA.AperFunction,ComponentPad*%
%ADD14O,1.600000X1.600000*%
%TD*%
%TA.AperFunction,ComponentPad*%
%ADD15R,1.350000X1.350000*%
%TD*%
%TA.AperFunction,ComponentPad*%
%ADD16O,1.350000X1.350000*%
%TD*%
%TA.AperFunction,ComponentPad*%
%ADD17R,1.200000X1.200000*%
%TD*%
%TA.AperFunction,ComponentPad*%
%ADD18C,1.200000*%
%TD*%
%TA.AperFunction,ViaPad*%
%ADD19C,0.800000*%
%TD*%
%TA.AperFunction,Conductor*%
%ADD20C,0.250000*%
%TD*%
G04 APERTURE END LIST*
D10*
%TO.P,U12,1,E*%
%TO.N,Net-(U10-E)*%
X181610000Y-86360000D03*
D11*
%TO.P,U12,2,D*%
%TO.N,Net-(U10-D)*%
X184150000Y-86360000D03*
%TO.P,U12,3,CC*%
%TO.N,Net-(U13-DIG_0)*%
X186690000Y-86360000D03*
%TO.P,U12,4,C*%
%TO.N,Net-(U10-C)*%
X189230000Y-86360000D03*
%TO.P,U12,5,DP*%
%TO.N,Net-(U10-DP)*%
X191770000Y-86360000D03*
%TO.P,U12,6,B*%
%TO.N,Net-(U10-B)*%
X191770000Y-71120000D03*
%TO.P,U12,7,A*%
%TO.N,Net-(U10-A)*%
X189230000Y-71120000D03*
%TO.P,U12,8,CC*%
%TO.N,unconnected-(U12-CC-Pad8)*%
X186690000Y-71120000D03*
%TO.P,U12,9,F*%
%TO.N,Net-(U10-F)*%
X184150000Y-71120000D03*
%TO.P,U12,10,G*%
%TO.N,Net-(U10-G)*%
X181610000Y-71120000D03*
%TD*%
D10*
%TO.P,U14,1,E*%
%TO.N,Net-(U14-E)*%
X181610000Y-111637500D03*
D11*
%TO.P,U14,2,D*%
%TO.N,Net-(U14-D)*%
X184150000Y-111637500D03*
%TO.P,U14,3,CC*%
%TO.N,Net-(U18-DIG_4)*%
X186690000Y-111637500D03*
%TO.P,U14,4,C*%
%TO.N,Net-(U14-C)*%
X189230000Y-111637500D03*
%TO.P,U14,5,DP*%
%TO.N,Net-(U14-DP)*%
X191770000Y-111637500D03*
%TO.P,U14,6,B*%
%TO.N,Net-(U14-B)*%
X191770000Y-96397500D03*
%TO.P,U14,7,A*%
%TO.N,Net-(U14-A)*%
X189230000Y-96397500D03*
%TO.P,U14,8,CC*%
%TO.N,unconnected-(U14-CC-Pad8)*%
X186690000Y-96397500D03*
%TO.P,U14,9,F*%
%TO.N,Net-(U14-F)*%
X184150000Y-96397500D03*
%TO.P,U14,10,G*%
%TO.N,Net-(U14-G)*%
X181610000Y-96397500D03*
%TD*%
D10*
%TO.P,U16,1,E*%
%TO.N,Net-(U14-E)*%
X156210000Y-111637500D03*
D11*
%TO.P,U16,2,D*%
%TO.N,Net-(U14-D)*%
X158750000Y-111637500D03*
%TO.P,U16,3,CC*%
%TO.N,Net-(U18-DIG_2)*%
X161290000Y-111637500D03*
%TO.P,U16,4,C*%
%TO.N,Net-(U14-C)*%
X163830000Y-111637500D03*
%TO.P,U16,5,DP*%
%TO.N,Net-(U14-DP)*%
X166370000Y-111637500D03*
%TO.P,U16,6,B*%
%TO.N,Net-(U14-B)*%
X166370000Y-96397500D03*
%TO.P,U16,7,A*%
%TO.N,Net-(U14-A)*%
X163830000Y-96397500D03*
%TO.P,U16,8,CC*%
%TO.N,unconnected-(U16-CC-Pad8)*%
X161290000Y-96397500D03*
%TO.P,U16,9,F*%
%TO.N,Net-(U14-F)*%
X158750000Y-96397500D03*
%TO.P,U16,10,G*%
%TO.N,Net-(U14-G)*%
X156210000Y-96397500D03*
%TD*%
D10*
%TO.P,U11,1,E*%
%TO.N,Net-(U10-E)*%
X168910000Y-86360000D03*
D11*
%TO.P,U11,2,D*%
%TO.N,Net-(U10-D)*%
X171450000Y-86360000D03*
%TO.P,U11,3,CC*%
%TO.N,Net-(U13-DIG_1)*%
X173990000Y-86360000D03*
%TO.P,U11,4,C*%
%TO.N,Net-(U10-C)*%
X176530000Y-86360000D03*
%TO.P,U11,5,DP*%
%TO.N,Net-(U10-DP)*%
X179070000Y-86360000D03*
%TO.P,U11,6,B*%
%TO.N,Net-(U10-B)*%
X179070000Y-71120000D03*
%TO.P,U11,7,A*%
%TO.N,Net-(U10-A)*%
X176530000Y-71120000D03*
%TO.P,U11,8,CC*%
%TO.N,unconnected-(U11-CC-Pad8)*%
X173990000Y-71120000D03*
%TO.P,U11,9,F*%
%TO.N,Net-(U10-F)*%
X171450000Y-71120000D03*
%TO.P,U11,10,G*%
%TO.N,Net-(U10-G)*%
X168910000Y-71120000D03*
%TD*%
D10*
%TO.P,U17,1,E*%
%TO.N,Net-(U14-E)*%
X143510000Y-111637500D03*
D11*
%TO.P,U17,2,D*%
%TO.N,Net-(U14-D)*%
X146050000Y-111637500D03*
%TO.P,U17,3,CC*%
%TO.N,Net-(U18-DIG_1)*%
X148590000Y-111637500D03*
%TO.P,U17,4,C*%
%TO.N,Net-(U14-C)*%
X151130000Y-111637500D03*
%TO.P,U17,5,DP*%
%TO.N,Net-(U14-DP)*%
X153670000Y-111637500D03*
%TO.P,U17,6,B*%
%TO.N,Net-(U14-B)*%
X153670000Y-96397500D03*
%TO.P,U17,7,A*%
%TO.N,Net-(U14-A)*%
X151130000Y-96397500D03*
%TO.P,U17,8,CC*%
%TO.N,unconnected-(U17-CC-Pad8)*%
X148590000Y-96397500D03*
%TO.P,U17,9,F*%
%TO.N,Net-(U14-F)*%
X146050000Y-96397500D03*
%TO.P,U17,10,G*%
%TO.N,Net-(U14-G)*%
X143510000Y-96397500D03*
%TD*%
D12*
%TO.P,R2,1*%
%TO.N,+5V*%
X130810000Y-121920000D03*
D13*
%TO.P,R2,2*%
%TO.N,Net-(U13-ISET)*%
X138430000Y-121920000D03*
%TD*%
D12*
%TO.P,R3,1*%
%TO.N,+5V*%
X171450000Y-121920000D03*
D13*
%TO.P,R3,2*%
%TO.N,Net-(U18-ISET)*%
X179070000Y-121920000D03*
%TD*%
D10*
%TO.P,U13,1,DIN*%
%TO.N,Net-(U1-DOUT)*%
X120650000Y-134620000D03*
D14*
%TO.P,U13,2,DIG_0*%
%TO.N,Net-(U13-DIG_0)*%
X123190000Y-134620000D03*
%TO.P,U13,3,DIG_4*%
%TO.N,Net-(U13-DIG_4)*%
X125730000Y-134620000D03*
%TO.P,U13,4,GND*%
%TO.N,unconnected-(U13-GND-Pad4)*%
X128270000Y-134620000D03*
%TO.P,U13,5,DIG_6*%
%TO.N,unconnected-(U13-DIG_6-Pad5)*%
X130810000Y-134620000D03*
%TO.P,U13,6,DIG_2*%
%TO.N,Net-(U13-DIG_2)*%
X133350000Y-134620000D03*
%TO.P,U13,7,DIG_3*%
%TO.N,Net-(U13-DIG_3)*%
X135890000Y-134620000D03*
%TO.P,U13,8,DIG_7*%
%TO.N,unconnected-(U13-DIG_7-Pad8)*%
X138430000Y-134620000D03*
%TO.P,U13,9,GND*%
%TO.N,GND*%
X140970000Y-134620000D03*
%TO.P,U13,10,DIG_5*%
%TO.N,unconnected-(U13-DIG_5-Pad10)*%
X143510000Y-134620000D03*
%TO.P,U13,11,DIG_1*%
%TO.N,Net-(U13-DIG_1)*%
X146050000Y-134620000D03*
%TO.P,U13,12,LOAD*%
%TO.N,Net-(J1-Pin_1)*%
X148590000Y-134620000D03*
%TO.P,U13,13,CLK*%
%TO.N,Net-(J1-Pin_3)*%
X148590000Y-127000000D03*
%TO.P,U13,14,SEG_A*%
%TO.N,Net-(U10-A)*%
X146050000Y-127000000D03*
%TO.P,U13,15,SEG_F*%
%TO.N,Net-(U10-F)*%
X143510000Y-127000000D03*
%TO.P,U13,16,SEG_B*%
%TO.N,Net-(U10-B)*%
X140970000Y-127000000D03*
%TO.P,U13,17,SEG_G*%
%TO.N,Net-(U10-G)*%
X138430000Y-127000000D03*
%TO.P,U13,18,ISET*%
%TO.N,Net-(U13-ISET)*%
X135890000Y-127000000D03*
%TO.P,U13,19,V+*%
%TO.N,+5V*%
X133350000Y-127000000D03*
%TO.P,U13,20,SEG_C*%
%TO.N,Net-(U10-C)*%
X130810000Y-127000000D03*
%TO.P,U13,21,SEG_E*%
%TO.N,Net-(U10-E)*%
X128270000Y-127000000D03*
%TO.P,U13,22,SEG_DP*%
%TO.N,Net-(U10-DP)*%
X125730000Y-127000000D03*
%TO.P,U13,23,SEG_D*%
%TO.N,Net-(U10-D)*%
X123190000Y-127000000D03*
%TO.P,U13,24,DOUT*%
%TO.N,Net-(U13-DOUT)*%
X120650000Y-127000000D03*
%TD*%
%TO.P,U1,24,DOUT*%
%TO.N,Net-(U1-DOUT)*%
X102870000Y-101600000D03*
%TO.P,U1,23,SEG_D*%
%TO.N,Net-(U1-SEG_D)*%
X102870000Y-99060000D03*
%TO.P,U1,22,SEG_DP*%
%TO.N,Net-(U1-SEG_DP)*%
X102870000Y-96520000D03*
%TO.P,U1,21,SEG_E*%
%TO.N,Net-(U1-SEG_E)*%
X102870000Y-93980000D03*
%TO.P,U1,20,SEG_C*%
%TO.N,Net-(U1-SEG_C)*%
X102870000Y-91440000D03*
%TO.P,U1,19,V+*%
%TO.N,+5V*%
X102870000Y-88900000D03*
%TO.P,U1,18,ISET*%
%TO.N,Net-(U1-ISET)*%
X102870000Y-86360000D03*
%TO.P,U1,17,SEG_G*%
%TO.N,Net-(U1-SEG_G)*%
X102870000Y-83820000D03*
%TO.P,U1,16,SEG_B*%
%TO.N,Net-(U1-SEG_B)*%
X102870000Y-81280000D03*
%TO.P,U1,15,SEG_F*%
%TO.N,Net-(U1-SEG_F)*%
X102870000Y-78740000D03*
%TO.P,U1,14,SEG_A*%
%TO.N,Net-(U1-SEG_A)*%
X102870000Y-76200000D03*
%TO.P,U1,13,CLK*%
%TO.N,Net-(J1-Pin_3)*%
X102870000Y-73660000D03*
%TO.P,U1,12,LOAD*%
%TO.N,Net-(J1-Pin_1)*%
X110490000Y-73660000D03*
%TO.P,U1,11,DIG_1*%
%TO.N,Net-(U1-DIG_1)*%
X110490000Y-76200000D03*
%TO.P,U1,10,DIG_5*%
%TO.N,Net-(U1-DIG_5)*%
X110490000Y-78740000D03*
%TO.P,U1,9,GND*%
%TO.N,GND*%
X110490000Y-81280000D03*
%TO.P,U1,8,DIG_7*%
%TO.N,unconnected-(U1-DIG_7-Pad8)*%
X110490000Y-83820000D03*
%TO.P,U1,7,DIG_3*%
%TO.N,Net-(U1-DIG_3)*%
X110490000Y-86360000D03*
%TO.P,U1,6,DIG_2*%
%TO.N,Net-(U1-DIG_2)*%
X110490000Y-88900000D03*
%TO.P,U1,5,DIG_6*%
%TO.N,unconnected-(U1-DIG_6-Pad5)*%
X110490000Y-91440000D03*
%TO.P,U1,4,GND*%
%TO.N,unconnected-(U1-GND-Pad4)*%
X110490000Y-93980000D03*
%TO.P,U1,3,DIG_4*%
%TO.N,Net-(U1-DIG_4)*%
X110490000Y-96520000D03*
%TO.P,U1,2,DIG_0*%
%TO.N,Net-(U1-DIG_0)*%
X110490000Y-99060000D03*
D10*
%TO.P,U1,1,DIN*%
%TO.N,Net-(J1-Pin_2)*%
X110490000Y-101600000D03*
%TD*%
D13*
%TO.P,R1,2*%
%TO.N,Net-(U1-ISET)*%
X97790000Y-83820000D03*
D12*
%TO.P,R1,1*%
%TO.N,+5V*%
X97790000Y-91440000D03*
%TD*%
D10*
%TO.P,U5,1,E*%
%TO.N,Net-(U1-SEG_E)*%
X153670000Y-60837500D03*
D11*
%TO.P,U5,2,D*%
%TO.N,Net-(U1-SEG_D)*%
X156210000Y-60837500D03*
%TO.P,U5,3,CC*%
%TO.N,Net-(U1-DIG_2)*%
X158750000Y-60837500D03*
%TO.P,U5,4,C*%
%TO.N,Net-(U1-SEG_C)*%
X161290000Y-60837500D03*
%TO.P,U5,5,DP*%
%TO.N,Net-(U1-SEG_DP)*%
X163830000Y-60837500D03*
%TO.P,U5,6,B*%
%TO.N,Net-(U1-SEG_B)*%
X163830000Y-45597500D03*
%TO.P,U5,7,A*%
%TO.N,Net-(U1-SEG_A)*%
X161290000Y-45597500D03*
%TO.P,U5,8,CC*%
%TO.N,unconnected-(U5-CC-Pad8)*%
X158750000Y-45597500D03*
%TO.P,U5,9,F*%
%TO.N,Net-(U1-SEG_F)*%
X156210000Y-45597500D03*
%TO.P,U5,10,G*%
%TO.N,Net-(U1-SEG_G)*%
X153670000Y-45597500D03*
%TD*%
D10*
%TO.P,U19,1,E*%
%TO.N,Net-(U14-E)*%
X130810000Y-111637500D03*
D11*
%TO.P,U19,2,D*%
%TO.N,Net-(U14-D)*%
X133350000Y-111637500D03*
%TO.P,U19,3,CC*%
%TO.N,Net-(U18-DIG_0)*%
X135890000Y-111637500D03*
%TO.P,U19,4,C*%
%TO.N,Net-(U14-C)*%
X138430000Y-111637500D03*
%TO.P,U19,5,DP*%
%TO.N,Net-(U14-DP)*%
X140970000Y-111637500D03*
%TO.P,U19,6,B*%
%TO.N,Net-(U14-B)*%
X140970000Y-96397500D03*
%TO.P,U19,7,A*%
%TO.N,Net-(U14-A)*%
X138430000Y-96397500D03*
%TO.P,U19,8,CC*%
%TO.N,unconnected-(U19-CC-Pad8)*%
X135890000Y-96397500D03*
%TO.P,U19,9,F*%
%TO.N,Net-(U14-F)*%
X133350000Y-96397500D03*
%TO.P,U19,10,G*%
%TO.N,Net-(U14-G)*%
X130810000Y-96397500D03*
%TD*%
D10*
%TO.P,U18,1,DIN*%
%TO.N,Net-(U13-DOUT)*%
X161290000Y-134620000D03*
D14*
%TO.P,U18,2,DIG_0*%
%TO.N,Net-(U18-DIG_0)*%
X163830000Y-134620000D03*
%TO.P,U18,3,DIG_4*%
%TO.N,Net-(U18-DIG_4)*%
X166370000Y-134620000D03*
%TO.P,U18,4,GND*%
%TO.N,unconnected-(U18-GND-Pad4)*%
X168910000Y-134620000D03*
%TO.P,U18,5,DIG_6*%
%TO.N,unconnected-(U18-DIG_6-Pad5)*%
X171450000Y-134620000D03*
%TO.P,U18,6,DIG_2*%
%TO.N,Net-(U18-DIG_2)*%
X173990000Y-134620000D03*
%TO.P,U18,7,DIG_3*%
%TO.N,Net-(U18-DIG_3)*%
X176530000Y-134620000D03*
%TO.P,U18,8,DIG_7*%
%TO.N,unconnected-(U18-DIG_7-Pad8)*%
X179070000Y-134620000D03*
%TO.P,U18,9,GND*%
%TO.N,GND*%
X181610000Y-134620000D03*
%TO.P,U18,10,DIG_5*%
%TO.N,unconnected-(U18-DIG_5-Pad10)*%
X184150000Y-134620000D03*
%TO.P,U18,11,DIG_1*%
%TO.N,Net-(U18-DIG_1)*%
X186690000Y-134620000D03*
%TO.P,U18,12,LOAD*%
%TO.N,Net-(J1-Pin_1)*%
X189230000Y-134620000D03*
%TO.P,U18,13,CLK*%
%TO.N,Net-(J1-Pin_3)*%
X189230000Y-127000000D03*
%TO.P,U18,14,SEG_A*%
%TO.N,Net-(U14-A)*%
X186690000Y-127000000D03*
%TO.P,U18,15,SEG_F*%
%TO.N,Net-(U14-F)*%
X184150000Y-127000000D03*
%TO.P,U18,16,SEG_B*%
%TO.N,Net-(U14-B)*%
X181610000Y-127000000D03*
%TO.P,U18,17,SEG_G*%
%TO.N,Net-(U14-G)*%
X179070000Y-127000000D03*
%TO.P,U18,18,ISET*%
%TO.N,Net-(U18-ISET)*%
X176530000Y-127000000D03*
%TO.P,U18,19,V+*%
%TO.N,+5V*%
X173990000Y-127000000D03*
%TO.P,U18,20,SEG_C*%
%TO.N,Net-(U14-C)*%
X171450000Y-127000000D03*
%TO.P,U18,21,SEG_E*%
%TO.N,Net-(U14-E)*%
X168910000Y-127000000D03*
%TO.P,U18,22,SEG_DP*%
%TO.N,Net-(U14-DP)*%
X166370000Y-127000000D03*
%TO.P,U18,23,SEG_D*%
%TO.N,Net-(U14-D)*%
X163830000Y-127000000D03*
%TO.P,U18,24,DOUT*%
%TO.N,unconnected-(U18-DOUT-Pad24)*%
X161290000Y-127000000D03*
%TD*%
D10*
%TO.P,U15,1,E*%
%TO.N,Net-(U14-E)*%
X168910000Y-111637500D03*
D11*
%TO.P,U15,2,D*%
%TO.N,Net-(U14-D)*%
X171450000Y-111637500D03*
%TO.P,U15,3,CC*%
%TO.N,Net-(U18-DIG_3)*%
X173990000Y-111637500D03*
%TO.P,U15,4,C*%
%TO.N,Net-(U14-C)*%
X176530000Y-111637500D03*
%TO.P,U15,5,DP*%
%TO.N,Net-(U14-DP)*%
X179070000Y-111637500D03*
%TO.P,U15,6,B*%
%TO.N,Net-(U14-B)*%
X179070000Y-96397500D03*
%TO.P,U15,7,A*%
%TO.N,Net-(U14-A)*%
X176530000Y-96397500D03*
%TO.P,U15,8,CC*%
%TO.N,unconnected-(U15-CC-Pad8)*%
X173990000Y-96397500D03*
%TO.P,U15,9,F*%
%TO.N,Net-(U14-F)*%
X171450000Y-96397500D03*
%TO.P,U15,10,G*%
%TO.N,Net-(U14-G)*%
X168910000Y-96397500D03*
%TD*%
D10*
%TO.P,U9,1,E*%
%TO.N,Net-(U10-E)*%
X143510000Y-86360000D03*
D11*
%TO.P,U9,2,D*%
%TO.N,Net-(U10-D)*%
X146050000Y-86360000D03*
%TO.P,U9,3,CC*%
%TO.N,Net-(U13-DIG_3)*%
X148590000Y-86360000D03*
%TO.P,U9,4,C*%
%TO.N,Net-(U10-C)*%
X151130000Y-86360000D03*
%TO.P,U9,5,DP*%
%TO.N,Net-(U10-DP)*%
X153670000Y-86360000D03*
%TO.P,U9,6,B*%
%TO.N,Net-(U10-B)*%
X153670000Y-71120000D03*
%TO.P,U9,7,A*%
%TO.N,Net-(U10-A)*%
X151130000Y-71120000D03*
%TO.P,U9,8,CC*%
%TO.N,unconnected-(U9-CC-Pad8)*%
X148590000Y-71120000D03*
%TO.P,U9,9,F*%
%TO.N,Net-(U10-F)*%
X146050000Y-71120000D03*
%TO.P,U9,10,G*%
%TO.N,Net-(U10-G)*%
X143510000Y-71120000D03*
%TD*%
D10*
%TO.P,U6,1,E*%
%TO.N,Net-(U1-SEG_E)*%
X168910000Y-60837500D03*
D11*
%TO.P,U6,2,D*%
%TO.N,Net-(U1-SEG_D)*%
X171450000Y-60837500D03*
%TO.P,U6,3,CC*%
%TO.N,Net-(U1-DIG_1)*%
X173990000Y-60837500D03*
%TO.P,U6,4,C*%
%TO.N,Net-(U1-SEG_C)*%
X176530000Y-60837500D03*
%TO.P,U6,5,DP*%
%TO.N,Net-(U1-SEG_DP)*%
X179070000Y-60837500D03*
%TO.P,U6,6,B*%
%TO.N,Net-(U1-SEG_B)*%
X179070000Y-45597500D03*
%TO.P,U6,7,A*%
%TO.N,Net-(U1-SEG_A)*%
X176530000Y-45597500D03*
%TO.P,U6,8,CC*%
%TO.N,unconnected-(U6-CC-Pad8)*%
X173990000Y-45597500D03*
%TO.P,U6,9,F*%
%TO.N,Net-(U1-SEG_F)*%
X171450000Y-45597500D03*
%TO.P,U6,10,G*%
%TO.N,Net-(U1-SEG_G)*%
X168910000Y-45597500D03*
%TD*%
D10*
%TO.P,U8,1,E*%
%TO.N,Net-(U10-E)*%
X130810000Y-86360000D03*
D11*
%TO.P,U8,2,D*%
%TO.N,Net-(U10-D)*%
X133350000Y-86360000D03*
%TO.P,U8,3,CC*%
%TO.N,Net-(U13-DIG_4)*%
X135890000Y-86360000D03*
%TO.P,U8,4,C*%
%TO.N,Net-(U10-C)*%
X138430000Y-86360000D03*
%TO.P,U8,5,DP*%
%TO.N,Net-(U10-DP)*%
X140970000Y-86360000D03*
%TO.P,U8,6,B*%
%TO.N,Net-(U10-B)*%
X140970000Y-71120000D03*
%TO.P,U8,7,A*%
%TO.N,Net-(U10-A)*%
X138430000Y-71120000D03*
%TO.P,U8,8,CC*%
%TO.N,unconnected-(U8-CC-Pad8)*%
X135890000Y-71120000D03*
%TO.P,U8,9,F*%
%TO.N,Net-(U10-F)*%
X133350000Y-71120000D03*
%TO.P,U8,10,G*%
%TO.N,Net-(U10-G)*%
X130810000Y-71120000D03*
%TD*%
D15*
%TO.P,J1,1,Pin_1*%
%TO.N,Net-(J1-Pin_1)*%
X98330000Y-137160000D03*
D16*
%TO.P,J1,2,Pin_2*%
%TO.N,Net-(J1-Pin_2)*%
X100330000Y-137160000D03*
%TO.P,J1,3,Pin_3*%
%TO.N,Net-(J1-Pin_3)*%
X102330000Y-137160000D03*
%TO.P,J1,4,Pin_4*%
%TO.N,+5V*%
X104330000Y-137160000D03*
%TO.P,J1,5,Pin_5*%
%TO.N,GND*%
X106330000Y-137160000D03*
%TD*%
D10*
%TO.P,U10,1,E*%
%TO.N,Net-(U10-E)*%
X156210000Y-86360000D03*
D11*
%TO.P,U10,2,D*%
%TO.N,Net-(U10-D)*%
X158750000Y-86360000D03*
%TO.P,U10,3,CC*%
%TO.N,Net-(U13-DIG_2)*%
X161290000Y-86360000D03*
%TO.P,U10,4,C*%
%TO.N,Net-(U10-C)*%
X163830000Y-86360000D03*
%TO.P,U10,5,DP*%
%TO.N,Net-(U10-DP)*%
X166370000Y-86360000D03*
%TO.P,U10,6,B*%
%TO.N,Net-(U10-B)*%
X166370000Y-71120000D03*
%TO.P,U10,7,A*%
%TO.N,Net-(U10-A)*%
X163830000Y-71120000D03*
%TO.P,U10,8,CC*%
%TO.N,unconnected-(U10-CC-Pad8)*%
X161290000Y-71120000D03*
%TO.P,U10,9,F*%
%TO.N,Net-(U10-F)*%
X158750000Y-71120000D03*
%TO.P,U10,10,G*%
%TO.N,Net-(U10-G)*%
X156210000Y-71120000D03*
%TD*%
D10*
%TO.P,U2,1,E*%
%TO.N,Net-(U1-SEG_E)*%
X113030000Y-60837500D03*
D11*
%TO.P,U2,2,D*%
%TO.N,Net-(U1-SEG_D)*%
X115570000Y-60837500D03*
%TO.P,U2,3,CC*%
%TO.N,Net-(U1-DIG_5)*%
X118110000Y-60837500D03*
%TO.P,U2,4,C*%
%TO.N,Net-(U1-SEG_C)*%
X120650000Y-60837500D03*
%TO.P,U2,5,DP*%
%TO.N,Net-(U1-SEG_DP)*%
X123190000Y-60837500D03*
%TO.P,U2,6,B*%
%TO.N,Net-(U1-SEG_B)*%
X123190000Y-45597500D03*
%TO.P,U2,7,A*%
%TO.N,Net-(U1-SEG_A)*%
X120650000Y-45597500D03*
%TO.P,U2,8,CC*%
%TO.N,unconnected-(U2-CC-Pad8)*%
X118110000Y-45597500D03*
%TO.P,U2,9,F*%
%TO.N,Net-(U1-SEG_F)*%
X115570000Y-45597500D03*
%TO.P,U2,10,G*%
%TO.N,Net-(U1-SEG_G)*%
X113030000Y-45597500D03*
%TD*%
D10*
%TO.P,U4,1,E*%
%TO.N,Net-(U1-SEG_E)*%
X140970000Y-60837500D03*
D11*
%TO.P,U4,2,D*%
%TO.N,Net-(U1-SEG_D)*%
X143510000Y-60837500D03*
%TO.P,U4,3,CC*%
%TO.N,Net-(U1-DIG_3)*%
X146050000Y-60837500D03*
%TO.P,U4,4,C*%
%TO.N,Net-(U1-SEG_C)*%
X148590000Y-60837500D03*
%TO.P,U4,5,DP*%
%TO.N,Net-(U1-SEG_DP)*%
X151130000Y-60837500D03*
%TO.P,U4,6,B*%
%TO.N,Net-(U1-SEG_B)*%
X151130000Y-45597500D03*
%TO.P,U4,7,A*%
%TO.N,Net-(U1-SEG_A)*%
X148590000Y-45597500D03*
%TO.P,U4,8,CC*%
%TO.N,unconnected-(U4-CC-Pad8)*%
X146050000Y-45597500D03*
%TO.P,U4,9,F*%
%TO.N,Net-(U1-SEG_F)*%
X143510000Y-45597500D03*
%TO.P,U4,10,G*%
%TO.N,Net-(U1-SEG_G)*%
X140970000Y-45597500D03*
%TD*%
D17*
%TO.P,C2,1*%
%TO.N,+5V*%
X127730000Y-121920000D03*
D18*
%TO.P,C2,2*%
%TO.N,GND*%
X125730000Y-121920000D03*
%TD*%
D17*
%TO.P,C3,1*%
%TO.N,+5V*%
X168370000Y-121920000D03*
D18*
%TO.P,C3,2*%
%TO.N,GND*%
X166370000Y-121920000D03*
%TD*%
D10*
%TO.P,U7,1,E*%
%TO.N,Net-(U1-SEG_E)*%
X181610000Y-60837500D03*
D11*
%TO.P,U7,2,D*%
%TO.N,Net-(U1-SEG_D)*%
X184150000Y-60837500D03*
%TO.P,U7,3,CC*%
%TO.N,Net-(U1-DIG_0)*%
X186690000Y-60837500D03*
%TO.P,U7,4,C*%
%TO.N,Net-(U1-SEG_C)*%
X189230000Y-60837500D03*
%TO.P,U7,5,DP*%
%TO.N,Net-(U1-SEG_DP)*%
X191770000Y-60837500D03*
%TO.P,U7,6,B*%
%TO.N,Net-(U1-SEG_B)*%
X191770000Y-45597500D03*
%TO.P,U7,7,A*%
%TO.N,Net-(U1-SEG_A)*%
X189230000Y-45597500D03*
%TO.P,U7,8,CC*%
%TO.N,unconnected-(U7-CC-Pad8)*%
X186690000Y-45597500D03*
%TO.P,U7,9,F*%
%TO.N,Net-(U1-SEG_F)*%
X184150000Y-45597500D03*
%TO.P,U7,10,G*%
%TO.N,Net-(U1-SEG_G)*%
X181610000Y-45597500D03*
%TD*%
D10*
%TO.P,U3,1,E*%
%TO.N,Net-(U1-SEG_E)*%
X125730000Y-60837500D03*
D11*
%TO.P,U3,2,D*%
%TO.N,Net-(U1-SEG_D)*%
X128270000Y-60837500D03*
%TO.P,U3,3,CC*%
%TO.N,Net-(U1-DIG_4)*%
X130810000Y-60837500D03*
%TO.P,U3,4,C*%
%TO.N,Net-(U1-SEG_C)*%
X133350000Y-60837500D03*
%TO.P,U3,5,DP*%
%TO.N,Net-(U1-SEG_DP)*%
X135890000Y-60837500D03*
%TO.P,U3,6,B*%
%TO.N,Net-(U1-SEG_B)*%
X135890000Y-45597500D03*
%TO.P,U3,7,A*%
%TO.N,Net-(U1-SEG_A)*%
X133350000Y-45597500D03*
%TO.P,U3,8,CC*%
%TO.N,unconnected-(U3-CC-Pad8)*%
X130810000Y-45597500D03*
%TO.P,U3,9,F*%
%TO.N,Net-(U1-SEG_F)*%
X128270000Y-45597500D03*
%TO.P,U3,10,G*%
%TO.N,Net-(U1-SEG_G)*%
X125730000Y-45597500D03*
%TD*%
D18*
%TO.P,C1,2*%
%TO.N,GND*%
X97790000Y-96520000D03*
D17*
%TO.P,C1,1*%
%TO.N,+5V*%
X97790000Y-94520000D03*
%TD*%
D19*
%TO.N,+5V*%
X105410000Y-130810000D03*
X157480000Y-124460000D03*
X100330000Y-109220000D03*
X160020000Y-124460000D03*
%TO.N,GND*%
X100330000Y-107950000D03*
X181610000Y-132080000D03*
%TO.N,Net-(J1-Pin_3)*%
X107950000Y-73660000D03*
X160020000Y-129540000D03*
X101600000Y-104140000D03*
X157480000Y-128270000D03*
%TO.N,Net-(U1-DIG_2)*%
X116840000Y-88900000D03*
%TO.N,Net-(U1-DIG_3)*%
X115570000Y-86360000D03*
%TO.N,Net-(U1-SEG_A)*%
X120650000Y-48260000D03*
X133350000Y-48260000D03*
X161290000Y-48260000D03*
X148590000Y-48260000D03*
X176530000Y-48260000D03*
X189230000Y-48260000D03*
%TO.N,Net-(U1-SEG_F)*%
X115570000Y-49530000D03*
X143510000Y-49530000D03*
X156210000Y-49530000D03*
X184150000Y-49530000D03*
X171450000Y-49530000D03*
X128270000Y-49530000D03*
%TO.N,Net-(U1-SEG_B)*%
X101600000Y-71120000D03*
X179070000Y-46990000D03*
X151130000Y-46990000D03*
X163830000Y-46990000D03*
X135890000Y-46990000D03*
X191770000Y-46990000D03*
X123190000Y-46990000D03*
%TO.N,Net-(U1-SEG_G)*%
X153670000Y-50800000D03*
X125730000Y-50800000D03*
X168910000Y-50800000D03*
X181610000Y-50800000D03*
X113030000Y-50800000D03*
X140970000Y-50800000D03*
%TO.N,Net-(U1-SEG_C)*%
X176530000Y-57150000D03*
X189230000Y-57150000D03*
X133350000Y-57150000D03*
X161290000Y-57150000D03*
X120650000Y-57150000D03*
X105410000Y-91440000D03*
X148590000Y-57150000D03*
%TO.N,Net-(U1-SEG_E)*%
X125730000Y-54610000D03*
X168910000Y-54610000D03*
X153670000Y-54610000D03*
X181610000Y-54610000D03*
X113030000Y-54610000D03*
X140970000Y-54610000D03*
%TO.N,Net-(U1-SEG_DP)*%
X163830000Y-58420000D03*
X123190000Y-58420000D03*
X135890000Y-58420000D03*
X179070000Y-58420000D03*
X191770000Y-58420000D03*
X106680000Y-96520000D03*
X151130000Y-58420000D03*
%TO.N,Net-(U1-SEG_D)*%
X128270000Y-55880000D03*
X143510000Y-55880000D03*
X184150000Y-55880000D03*
X115570000Y-55880000D03*
X156210000Y-55880000D03*
X171450000Y-55880000D03*
%TO.N,Net-(U10-E)*%
X130810000Y-80010000D03*
X143510000Y-80010000D03*
X156210000Y-80010000D03*
X181610000Y-80010000D03*
X124460000Y-119380000D03*
X168910000Y-80010000D03*
%TO.N,Net-(U10-D)*%
X146050000Y-81280000D03*
X133350000Y-81280000D03*
X158750000Y-81280000D03*
X184150000Y-81280000D03*
X171450000Y-81280000D03*
X125730000Y-110490000D03*
%TO.N,Net-(U10-C)*%
X176530000Y-82550000D03*
X189230000Y-82550000D03*
X151130000Y-82550000D03*
X138430000Y-82550000D03*
X163830000Y-82550000D03*
X130810000Y-118110000D03*
%TO.N,Net-(U10-DP)*%
X179070000Y-83820000D03*
X153670000Y-83820000D03*
X128270000Y-114300000D03*
X140970000Y-83820000D03*
X191770000Y-83820000D03*
X166370000Y-83820000D03*
%TO.N,Net-(U10-B)*%
X153670000Y-72390000D03*
X140970000Y-72390000D03*
X142240000Y-123190000D03*
X152400000Y-78740000D03*
X191770000Y-72390000D03*
X152400000Y-91440000D03*
X179070000Y-72390000D03*
X166370000Y-72390000D03*
X152400000Y-118110000D03*
X152400000Y-104140000D03*
%TO.N,Net-(U10-A)*%
X163830000Y-73660000D03*
X149860000Y-104140000D03*
X149860000Y-78740000D03*
X151130000Y-73660000D03*
X176530000Y-73660000D03*
X149860000Y-91440000D03*
X138430000Y-73660000D03*
X146050000Y-121920000D03*
X149860000Y-116840000D03*
X189230000Y-73660000D03*
%TO.N,Net-(U10-F)*%
X144780000Y-121920000D03*
X144780000Y-78740000D03*
X146050000Y-74930000D03*
X133350000Y-74930000D03*
X144780000Y-91440000D03*
X144780000Y-104140000D03*
X171450000Y-74930000D03*
X158750000Y-74930000D03*
X144780000Y-115570000D03*
X184150000Y-74930000D03*
%TO.N,Net-(U10-G)*%
X142240000Y-104140000D03*
X143510000Y-76200000D03*
X130810000Y-76200000D03*
X181610000Y-76200000D03*
X142240000Y-120650000D03*
X156210000Y-76200000D03*
X168910000Y-76200000D03*
X142240000Y-91440000D03*
X142240000Y-115570000D03*
X142240000Y-78740000D03*
%TO.N,Net-(U13-DIG_4)*%
X114300000Y-129540000D03*
X125730000Y-130810000D03*
%TO.N,Net-(U13-DIG_2)*%
X116840000Y-133350000D03*
%TO.N,Net-(U13-DIG_3)*%
X115570000Y-130810000D03*
%TO.N,Net-(U14-E)*%
X181610000Y-105287500D03*
X130810000Y-105287500D03*
X143510000Y-105287500D03*
X156210000Y-105287500D03*
X168910000Y-105287500D03*
%TO.N,Net-(U14-D)*%
X158750000Y-106557500D03*
X184150000Y-106557500D03*
X133350000Y-106557500D03*
X146050000Y-106557500D03*
X171450000Y-106557500D03*
%TO.N,Net-(U14-C)*%
X163830000Y-107827500D03*
X151130000Y-107827500D03*
X189230000Y-107827500D03*
X138430000Y-107827500D03*
X176530000Y-107827500D03*
%TO.N,Net-(U14-DP)*%
X179070000Y-109097500D03*
X140970000Y-109097500D03*
X166370000Y-109097500D03*
X191770000Y-109097500D03*
X153670000Y-109097500D03*
%TO.N,Net-(U14-B)*%
X153670000Y-97667500D03*
X166370000Y-97667500D03*
X140970000Y-97667500D03*
X179070000Y-97667500D03*
X180340000Y-104140000D03*
X180340000Y-119380000D03*
X191770000Y-97667500D03*
%TO.N,Net-(U14-A)*%
X151130000Y-98937500D03*
X138430000Y-98937500D03*
X190500000Y-115570000D03*
X189230000Y-120650000D03*
X176530000Y-98937500D03*
X189230000Y-98937500D03*
X163830000Y-98937500D03*
%TO.N,Net-(U14-F)*%
X133350000Y-100207500D03*
X184150000Y-100207500D03*
X146050000Y-100207500D03*
X158750000Y-100207500D03*
X171450000Y-100207500D03*
%TO.N,Net-(U14-G)*%
X143510000Y-101477500D03*
X168910000Y-101477500D03*
X181610000Y-101477500D03*
X156210000Y-101477500D03*
X130810000Y-101477500D03*
%TD*%
D20*
%TO.N,+5V*%
X105410000Y-130810000D02*
X105410000Y-133350000D01*
X160020000Y-124460000D02*
X157480000Y-124460000D01*
X105410000Y-133350000D02*
X104330000Y-134430000D01*
X104330000Y-134430000D02*
X104330000Y-137160000D01*
X105410000Y-130810000D02*
X100330000Y-125730000D01*
X100330000Y-125730000D02*
X100330000Y-109220000D01*
%TO.N,GND*%
X104140000Y-127000000D02*
X106330000Y-129190000D01*
X104140000Y-109220000D02*
X104140000Y-127000000D01*
X166370000Y-124460000D02*
X166370000Y-121920000D01*
X149860000Y-133350000D02*
X142240000Y-133350000D01*
X100330000Y-107950000D02*
X102870000Y-107950000D01*
X179070000Y-129540000D02*
X168910000Y-129540000D01*
X181610000Y-132080000D02*
X179070000Y-129540000D01*
X181610000Y-134620000D02*
X179070000Y-137160000D01*
X167640000Y-125730000D02*
X166370000Y-124460000D01*
X168910000Y-129540000D02*
X167640000Y-128270000D01*
X106330000Y-129190000D02*
X106330000Y-137160000D01*
X102870000Y-107950000D02*
X104140000Y-109220000D01*
X167640000Y-128270000D02*
X167640000Y-125730000D01*
X142240000Y-133350000D02*
X140970000Y-134620000D01*
X153670000Y-137160000D02*
X149860000Y-133350000D01*
X179070000Y-137160000D02*
X153670000Y-137160000D01*
%TO.N,Net-(J1-Pin_1)*%
X144780000Y-138430000D02*
X99600000Y-138430000D01*
X110490000Y-73660000D02*
X109220000Y-74930000D01*
X148590000Y-134620000D02*
X148590000Y-135890000D01*
X109220000Y-74930000D02*
X109220000Y-97790000D01*
X109220000Y-97790000D02*
X105410000Y-101600000D01*
X185420000Y-138430000D02*
X189230000Y-134620000D01*
X148590000Y-135890000D02*
X151130000Y-138430000D01*
X148590000Y-134620000D02*
X144780000Y-138430000D01*
X99600000Y-138430000D02*
X98330000Y-137160000D01*
X105410000Y-101600000D02*
X105410000Y-104140000D01*
X105410000Y-104140000D02*
X104140000Y-105410000D01*
X104140000Y-105410000D02*
X100330000Y-105410000D01*
X100330000Y-105410000D02*
X98330000Y-107410000D01*
X98330000Y-107410000D02*
X98330000Y-137160000D01*
X151130000Y-138430000D02*
X185420000Y-138430000D01*
%TO.N,Net-(J1-Pin_2)*%
X100330000Y-106680000D02*
X99060000Y-107950000D01*
X99060000Y-107950000D02*
X99060000Y-135890000D01*
X110490000Y-101600000D02*
X109220000Y-101600000D01*
X99060000Y-135890000D02*
X100330000Y-137160000D01*
X109220000Y-101600000D02*
X104140000Y-106680000D01*
X104140000Y-106680000D02*
X100330000Y-106680000D01*
%TO.N,Net-(J1-Pin_3)*%
X104960000Y-102870000D02*
X103690000Y-104140000D01*
X108770000Y-74480000D02*
X108770000Y-93980000D01*
X108770000Y-93980000D02*
X108770000Y-97603604D01*
X160020000Y-129540000D02*
X158750000Y-128270000D01*
X158750000Y-128270000D02*
X157480000Y-128270000D01*
X107950000Y-73660000D02*
X108770000Y-74480000D01*
X104960000Y-101413604D02*
X104960000Y-102870000D01*
X103690000Y-104140000D02*
X101600000Y-104140000D01*
X106361802Y-100011802D02*
X104960000Y-101413604D01*
X108770000Y-97603604D02*
X106361802Y-100011802D01*
%TO.N,Net-(U1-DIG_0)*%
X118560000Y-89720000D02*
X116840000Y-91440000D01*
X113030000Y-92710000D02*
X113030000Y-96520000D01*
X186690000Y-60837500D02*
X182307500Y-65220000D01*
X116840000Y-91440000D02*
X114300000Y-91440000D01*
X114300000Y-91440000D02*
X113030000Y-92710000D01*
X118560000Y-69400000D02*
X118560000Y-89720000D01*
X113030000Y-96520000D02*
X110490000Y-99060000D01*
X182307500Y-65220000D02*
X122740000Y-65220000D01*
X122740000Y-65220000D02*
X118560000Y-69400000D01*
%TO.N,Net-(U1-DIG_2)*%
X116840000Y-88900000D02*
X110490000Y-88900000D01*
%TO.N,Net-(U1-DIG_3)*%
X115570000Y-86360000D02*
X110490000Y-86360000D01*
%TO.N,Net-(U1-DIG_1)*%
X118110000Y-73660000D02*
X115570000Y-76200000D01*
X115570000Y-76200000D02*
X110490000Y-76200000D01*
X118110000Y-68580000D02*
X118110000Y-73660000D01*
X173990000Y-60837500D02*
X170057500Y-64770000D01*
X170057500Y-64770000D02*
X121920000Y-64770000D01*
X121920000Y-64770000D02*
X118110000Y-68580000D01*
%TO.N,Net-(U1-SEG_A)*%
X161290000Y-48260000D02*
X148590000Y-48260000D01*
X148590000Y-48260000D02*
X133350000Y-48260000D01*
X189230000Y-48260000D02*
X176530000Y-48260000D01*
X176530000Y-48260000D02*
X161290000Y-48260000D01*
X133350000Y-48260000D02*
X120650000Y-48260000D01*
%TO.N,Net-(U1-SEG_F)*%
X143510000Y-49530000D02*
X128270000Y-49530000D01*
X128270000Y-49530000D02*
X115570000Y-49530000D01*
X184150000Y-49530000D02*
X171450000Y-49530000D01*
X156210000Y-49530000D02*
X143510000Y-49530000D01*
X171450000Y-49530000D02*
X156210000Y-49530000D01*
%TO.N,Net-(U1-SEG_B)*%
X100330000Y-78740000D02*
X102870000Y-81280000D01*
X135890000Y-46990000D02*
X123190000Y-46990000D01*
X163830000Y-46990000D02*
X151130000Y-46990000D01*
X179070000Y-46990000D02*
X163830000Y-46990000D01*
X191770000Y-46990000D02*
X179070000Y-46990000D01*
X100330000Y-72390000D02*
X100330000Y-78740000D01*
X151130000Y-46990000D02*
X135890000Y-46990000D01*
X101600000Y-71120000D02*
X100330000Y-72390000D01*
%TO.N,Net-(U1-SEG_G)*%
X181610000Y-50800000D02*
X168910000Y-50800000D01*
X125730000Y-50800000D02*
X113030000Y-50800000D01*
X153670000Y-50800000D02*
X140970000Y-50800000D01*
X140970000Y-50800000D02*
X125730000Y-50800000D01*
X168910000Y-50800000D02*
X153670000Y-50800000D01*
%TO.N,Net-(U1-SEG_C)*%
X120650000Y-60837500D02*
X120650000Y-57150000D01*
X107950000Y-67310000D02*
X105410000Y-69850000D01*
X113030000Y-64770000D02*
X111760000Y-64770000D01*
X189230000Y-60837500D02*
X189230000Y-57150000D01*
X161290000Y-57150000D02*
X161290000Y-60837500D01*
X105410000Y-69850000D02*
X105410000Y-91440000D01*
X148590000Y-57150000D02*
X148590000Y-60837500D01*
X116717500Y-64770000D02*
X113030000Y-64770000D01*
X176530000Y-57150000D02*
X176530000Y-60837500D01*
X111760000Y-64770000D02*
X109220000Y-67310000D01*
X120650000Y-60837500D02*
X116717500Y-64770000D01*
X133350000Y-57150000D02*
X133350000Y-60837500D01*
X109220000Y-67310000D02*
X107950000Y-67310000D01*
%TO.N,Net-(U1-SEG_E)*%
X111882500Y-60837500D02*
X104140000Y-68580000D01*
X140970000Y-54610000D02*
X140970000Y-60837500D01*
X104140000Y-92710000D02*
X102870000Y-93980000D01*
X104140000Y-68580000D02*
X104140000Y-92710000D01*
X153670000Y-54610000D02*
X153670000Y-60837500D01*
X125730000Y-54610000D02*
X125730000Y-60837500D01*
X113030000Y-60837500D02*
X113030000Y-54610000D01*
X181610000Y-60837500D02*
X181610000Y-54610000D01*
X168910000Y-54610000D02*
X168910000Y-60837500D01*
X113030000Y-60837500D02*
X111882500Y-60837500D01*
%TO.N,Net-(U1-SEG_DP)*%
X163830000Y-60837500D02*
X163830000Y-58420000D01*
X117987500Y-66040000D02*
X114300000Y-66040000D01*
X191770000Y-60837500D02*
X191770000Y-58420000D01*
X135890000Y-60837500D02*
X135890000Y-58420000D01*
X123190000Y-60837500D02*
X117987500Y-66040000D01*
X114300000Y-66040000D02*
X111760000Y-66040000D01*
X109220000Y-68580000D02*
X106680000Y-71120000D01*
X106680000Y-71120000D02*
X106680000Y-74930000D01*
X123190000Y-60837500D02*
X123190000Y-58420000D01*
X151130000Y-60837500D02*
X151130000Y-58420000D01*
X111760000Y-66040000D02*
X109220000Y-68580000D01*
X106680000Y-74930000D02*
X106680000Y-96520000D01*
X179070000Y-60837500D02*
X179070000Y-58420000D01*
%TO.N,Net-(U1-SEG_D)*%
X111601599Y-63500000D02*
X109061599Y-66040000D01*
X156210000Y-60837500D02*
X156210000Y-55880000D01*
X184150000Y-60837500D02*
X184150000Y-55880000D01*
X107316396Y-66040000D02*
X104590000Y-68766396D01*
X104590000Y-97340000D02*
X102870000Y-99060000D01*
X171450000Y-60837500D02*
X171450000Y-55880000D01*
X115570000Y-60837500D02*
X115570000Y-62085000D01*
X115570000Y-62085000D02*
X114155000Y-63500000D01*
X104590000Y-68766396D02*
X104590000Y-97340000D01*
X115570000Y-60837500D02*
X115570000Y-55880000D01*
X143510000Y-60837500D02*
X143510000Y-55880000D01*
X114155000Y-63500000D02*
X111601599Y-63500000D01*
X128270000Y-60837500D02*
X128270000Y-55880000D01*
X109061599Y-66040000D02*
X107316396Y-66040000D01*
%TO.N,Net-(U10-E)*%
X181610000Y-86360000D02*
X181610000Y-80010000D01*
X124460000Y-119380000D02*
X124460000Y-128270000D01*
X168910000Y-80010000D02*
X168910000Y-86360000D01*
X124460000Y-128270000D02*
X125280000Y-129090000D01*
X156210000Y-80010000D02*
X156210000Y-86360000D01*
X126180000Y-129090000D02*
X128270000Y-127000000D01*
X130810000Y-86360000D02*
X130810000Y-80010000D01*
X125280000Y-129090000D02*
X126180000Y-129090000D01*
X143510000Y-80010000D02*
X143510000Y-86360000D01*
%TO.N,Net-(U10-D)*%
X171450000Y-86360000D02*
X171450000Y-81280000D01*
X133350000Y-86360000D02*
X133350000Y-81280000D01*
X123190000Y-114300000D02*
X123190000Y-127000000D01*
X125730000Y-111760000D02*
X123190000Y-114300000D01*
X125730000Y-110490000D02*
X125730000Y-111760000D01*
X146050000Y-86360000D02*
X146050000Y-81280000D01*
X184150000Y-86360000D02*
X184150000Y-81280000D01*
X158750000Y-86360000D02*
X158750000Y-81280000D01*
%TO.N,Net-(U18-DIG_4)*%
X191770000Y-119380000D02*
X191770000Y-128270000D01*
X191770000Y-128270000D02*
X186690000Y-133350000D01*
X167640000Y-133350000D02*
X166370000Y-134620000D01*
X186690000Y-133350000D02*
X167640000Y-133350000D01*
X186690000Y-111637500D02*
X186690000Y-114300000D01*
X186690000Y-114300000D02*
X191770000Y-119380000D01*
%TO.N,Net-(U10-C)*%
X189230000Y-86360000D02*
X189230000Y-82550000D01*
X163830000Y-82550000D02*
X163830000Y-86360000D01*
X130810000Y-118110000D02*
X132080000Y-119380000D01*
X132080000Y-119380000D02*
X132080000Y-123190000D01*
X138430000Y-86360000D02*
X138430000Y-82550000D01*
X130810000Y-124460000D02*
X130810000Y-127000000D01*
X132080000Y-123190000D02*
X130810000Y-124460000D01*
X176530000Y-82550000D02*
X176530000Y-86360000D01*
X151130000Y-82550000D02*
X151130000Y-86360000D01*
%TO.N,Net-(U10-DP)*%
X128270000Y-114300000D02*
X128270000Y-119380000D01*
X129540000Y-123190000D02*
X125730000Y-127000000D01*
X140970000Y-86360000D02*
X140970000Y-83820000D01*
X179070000Y-86360000D02*
X179070000Y-83820000D01*
X153670000Y-86360000D02*
X153670000Y-83820000D01*
X128270000Y-119380000D02*
X129540000Y-120650000D01*
X191770000Y-86360000D02*
X191770000Y-83820000D01*
X166370000Y-86360000D02*
X166370000Y-83820000D01*
X129540000Y-120650000D02*
X129540000Y-123190000D01*
%TO.N,Net-(U10-B)*%
X166370000Y-72390000D02*
X179070000Y-72390000D01*
X142240000Y-123190000D02*
X140970000Y-124460000D01*
X153670000Y-72390000D02*
X166370000Y-72390000D01*
X152400000Y-78740000D02*
X152400000Y-91440000D01*
X140970000Y-72390000D02*
X153670000Y-72390000D01*
X152400000Y-104140000D02*
X152400000Y-118110000D01*
X179070000Y-72390000D02*
X191770000Y-72390000D01*
X140970000Y-124460000D02*
X140970000Y-127000000D01*
%TO.N,Net-(U10-A)*%
X163830000Y-73660000D02*
X151130000Y-73660000D01*
X189230000Y-73660000D02*
X176530000Y-73660000D01*
X176530000Y-73660000D02*
X163830000Y-73660000D01*
X149860000Y-104140000D02*
X149860000Y-116840000D01*
X151130000Y-73660000D02*
X138430000Y-73660000D01*
X146050000Y-121920000D02*
X146050000Y-127000000D01*
X149860000Y-78740000D02*
X149860000Y-91440000D01*
%TO.N,Net-(U10-F)*%
X144780000Y-104140000D02*
X144780000Y-113030000D01*
X146050000Y-74930000D02*
X158750000Y-74930000D01*
X143510000Y-123190000D02*
X143510000Y-127000000D01*
X144780000Y-113030000D02*
X144780000Y-115570000D01*
X158750000Y-74930000D02*
X171450000Y-74930000D01*
X133350000Y-74930000D02*
X146050000Y-74930000D01*
X144780000Y-121920000D02*
X143510000Y-123190000D01*
X171450000Y-74930000D02*
X184150000Y-74930000D01*
X144780000Y-78740000D02*
X144780000Y-91440000D01*
%TO.N,Net-(U10-G)*%
X140970000Y-121920000D02*
X140970000Y-123190000D01*
X142240000Y-104140000D02*
X142240000Y-115570000D01*
X168910000Y-76200000D02*
X156210000Y-76200000D01*
X143510000Y-76200000D02*
X130810000Y-76200000D01*
X181610000Y-76200000D02*
X168910000Y-76200000D01*
X142240000Y-78740000D02*
X142240000Y-91440000D01*
X138430000Y-125730000D02*
X138430000Y-127000000D01*
X140970000Y-123190000D02*
X138430000Y-125730000D01*
X156210000Y-76200000D02*
X143510000Y-76200000D01*
X142240000Y-120650000D02*
X140970000Y-121920000D01*
%TO.N,Net-(U18-DIG_0)*%
X156210000Y-130810000D02*
X157480000Y-132080000D01*
X148590000Y-116840000D02*
X156210000Y-124460000D01*
X135890000Y-111637500D02*
X135890000Y-113030000D01*
X135890000Y-113030000D02*
X139700000Y-116840000D01*
X157480000Y-132080000D02*
X161290000Y-132080000D01*
X139700000Y-116840000D02*
X148590000Y-116840000D01*
X161290000Y-132080000D02*
X163830000Y-134620000D01*
X156210000Y-124460000D02*
X156210000Y-130810000D01*
%TO.N,Net-(U13-DIG_0)*%
X120650000Y-133350000D02*
X121920000Y-133350000D01*
X118110000Y-114300000D02*
X118110000Y-130810000D01*
X121920000Y-133350000D02*
X123190000Y-134620000D01*
X130810000Y-93980000D02*
X124460000Y-100330000D01*
X124460000Y-107950000D02*
X118110000Y-114300000D01*
X186690000Y-86360000D02*
X186690000Y-91440000D01*
X184150000Y-93980000D02*
X130810000Y-93980000D01*
X124460000Y-100330000D02*
X124460000Y-107950000D01*
X118110000Y-130810000D02*
X120650000Y-133350000D01*
X186690000Y-91440000D02*
X184150000Y-93980000D01*
%TO.N,Net-(U13-DIG_4)*%
X115940000Y-127900000D02*
X114300000Y-129540000D01*
X130440000Y-91810000D02*
X128533604Y-91810000D01*
X125730000Y-130810000D02*
X125730000Y-134620000D01*
X135890000Y-86360000D02*
X130440000Y-91810000D01*
X128533604Y-91810000D02*
X122660000Y-97683604D01*
X115940000Y-111390000D02*
X115940000Y-127900000D01*
X122660000Y-104670000D02*
X115940000Y-111390000D01*
X122660000Y-97683604D02*
X122660000Y-104670000D01*
%TO.N,Net-(U13-DIG_2)*%
X161290000Y-91440000D02*
X160020000Y-92710000D01*
X116840000Y-113030000D02*
X116840000Y-133350000D01*
X160020000Y-92710000D02*
X129540000Y-92710000D01*
X129540000Y-92710000D02*
X123560000Y-98690000D01*
X123560000Y-106310000D02*
X116840000Y-113030000D01*
X161290000Y-86360000D02*
X161290000Y-91440000D01*
X123560000Y-98690000D02*
X123560000Y-106310000D01*
%TO.N,Net-(U13-DIG_3)*%
X148590000Y-86360000D02*
X148590000Y-89720000D01*
X123110000Y-106123604D02*
X116390000Y-112843604D01*
X148590000Y-89720000D02*
X146050000Y-92260000D01*
X123110000Y-97870000D02*
X123110000Y-106123604D01*
X128720000Y-92260000D02*
X123110000Y-97870000D01*
X146050000Y-92260000D02*
X128720000Y-92260000D01*
X116390000Y-112843604D02*
X116390000Y-129990000D01*
X116390000Y-129990000D02*
X115570000Y-130810000D01*
%TO.N,Net-(U13-DIG_1)*%
X171900000Y-93530000D02*
X130623604Y-93530000D01*
X130623604Y-93530000D02*
X124010000Y-100143604D01*
X118110000Y-131446396D02*
X118110000Y-134620000D01*
X117660000Y-113480000D02*
X117660000Y-130996396D01*
X117660000Y-130996396D02*
X118110000Y-131446396D01*
X120650000Y-137160000D02*
X144780000Y-137160000D01*
X124010000Y-107130000D02*
X117660000Y-113480000D01*
X146050000Y-135890000D02*
X146050000Y-134620000D01*
X173990000Y-91440000D02*
X171900000Y-93530000D01*
X118110000Y-134620000D02*
X120650000Y-137160000D01*
X173990000Y-86360000D02*
X173990000Y-91440000D01*
X144780000Y-137160000D02*
X146050000Y-135890000D01*
X124010000Y-100143604D02*
X124010000Y-107130000D01*
%TO.N,Net-(U13-DOUT)*%
X159383604Y-134620000D02*
X154303604Y-129540000D01*
X161290000Y-134620000D02*
X159383604Y-134620000D01*
X154303604Y-129540000D02*
X123190000Y-129540000D01*
X123190000Y-129540000D02*
X120650000Y-127000000D01*
%TO.N,Net-(U14-E)*%
X168910000Y-124460000D02*
X168910000Y-127000000D01*
X170180000Y-123190000D02*
X168910000Y-124460000D01*
X181610000Y-111637500D02*
X181610000Y-105287500D01*
X170180000Y-112907500D02*
X170180000Y-123190000D01*
X130810000Y-111637500D02*
X130810000Y-105287500D01*
X143510000Y-105287500D02*
X143510000Y-111637500D01*
X168910000Y-105287500D02*
X168910000Y-111637500D01*
X168910000Y-111637500D02*
X170180000Y-112907500D01*
X156210000Y-105287500D02*
X156210000Y-111637500D01*
%TO.N,Net-(U14-D)*%
X133350000Y-111637500D02*
X133350000Y-106557500D01*
X158750000Y-111637500D02*
X158750000Y-106557500D01*
X184150000Y-111637500D02*
X184150000Y-106557500D01*
X163380000Y-126550000D02*
X163830000Y-127000000D01*
X163380000Y-116267500D02*
X163380000Y-126550000D01*
X171450000Y-111637500D02*
X171450000Y-106557500D01*
X158750000Y-111637500D02*
X163380000Y-116267500D01*
X146050000Y-111637500D02*
X146050000Y-106557500D01*
%TO.N,Net-(U14-C)*%
X173990000Y-123190000D02*
X171450000Y-125730000D01*
X163830000Y-107827500D02*
X163830000Y-111637500D01*
X176530000Y-107827500D02*
X176530000Y-111637500D01*
X176530000Y-111637500D02*
X176530000Y-114300000D01*
X176530000Y-114300000D02*
X173990000Y-116840000D01*
X171450000Y-125730000D02*
X171450000Y-127000000D01*
X151130000Y-107827500D02*
X151130000Y-111637500D01*
X138430000Y-111637500D02*
X138430000Y-107827500D01*
X189230000Y-111637500D02*
X189230000Y-107827500D01*
X173990000Y-116840000D02*
X173990000Y-123190000D01*
%TO.N,Net-(U14-DP)*%
X140970000Y-111637500D02*
X140970000Y-109097500D01*
X163830000Y-115570000D02*
X163830000Y-124460000D01*
X179070000Y-111637500D02*
X179070000Y-109097500D01*
X166370000Y-111637500D02*
X166370000Y-109097500D01*
X166370000Y-113030000D02*
X163830000Y-115570000D01*
X166370000Y-111637500D02*
X166370000Y-113030000D01*
X163830000Y-124460000D02*
X166370000Y-127000000D01*
X153670000Y-111637500D02*
X153670000Y-109097500D01*
X191770000Y-111637500D02*
X191770000Y-109097500D01*
%TO.N,Net-(U14-B)*%
X179070000Y-97667500D02*
X191770000Y-97667500D01*
X180340000Y-104140000D02*
X180340000Y-119380000D01*
X140970000Y-97667500D02*
X153670000Y-97667500D01*
X153670000Y-97667500D02*
X166370000Y-97667500D01*
X166370000Y-97667500D02*
X179070000Y-97667500D01*
%TO.N,Net-(U14-A)*%
X186690000Y-123190000D02*
X186690000Y-127000000D01*
X189230000Y-98937500D02*
X190500000Y-100207500D01*
X189230000Y-98937500D02*
X176530000Y-98937500D01*
X190500000Y-100207500D02*
X190500000Y-115570000D01*
X189230000Y-120650000D02*
X186690000Y-123190000D01*
X151130000Y-98937500D02*
X138430000Y-98937500D01*
X163830000Y-98937500D02*
X151130000Y-98937500D01*
X176530000Y-98937500D02*
X163830000Y-98937500D01*
%TO.N,Net-(U14-F)*%
X158750000Y-100207500D02*
X171450000Y-100207500D01*
X185420000Y-123190000D02*
X184150000Y-124460000D01*
X184150000Y-124460000D02*
X184150000Y-127000000D01*
X133350000Y-100207500D02*
X146050000Y-100207500D01*
X184150000Y-100207500D02*
X184150000Y-100330000D01*
X185420000Y-101600000D02*
X185420000Y-123190000D01*
X146050000Y-100207500D02*
X158750000Y-100207500D01*
X171450000Y-100207500D02*
X184150000Y-100207500D01*
X184150000Y-100330000D02*
X185420000Y-101600000D01*
%TO.N,Net-(U14-G)*%
X156210000Y-101477500D02*
X143510000Y-101477500D01*
X143510000Y-101477500D02*
X130810000Y-101477500D01*
X182880000Y-121920000D02*
X179070000Y-125730000D01*
X181610000Y-101477500D02*
X168910000Y-101477500D01*
X182880000Y-102747500D02*
X182880000Y-121920000D01*
X179070000Y-125730000D02*
X179070000Y-127000000D01*
X168910000Y-101477500D02*
X156210000Y-101477500D01*
X181610000Y-101477500D02*
X182880000Y-102747500D01*
%TD*%
M02*
