%TF.GenerationSoftware,KiCad,Pcbnew,7.0.8*%
%TF.CreationDate,2023-10-10T01:18:49-07:00*%
%TF.ProjectId,htpm_control_module_status,6874706d-5f63-46f6-9e74-726f6c5f6d6f,1*%
%TF.SameCoordinates,Original*%
%TF.FileFunction,Legend,Bot*%
%TF.FilePolarity,Positive*%
%FSLAX46Y46*%
G04 Gerber Fmt 4.6, Leading zero omitted, Abs format (unit mm)*
G04 Created by KiCad (PCBNEW 7.0.8) date 2023-10-10 01:18:49*
%MOMM*%
%LPD*%
G01*
G04 APERTURE LIST*
%ADD10C,0.300000*%
%ADD11C,0.150000*%
G04 APERTURE END LIST*
D10*
X167085489Y-109898328D02*
X167085489Y-108398328D01*
X167085489Y-109112614D02*
X166228346Y-109112614D01*
X166228346Y-109898328D02*
X166228346Y-108398328D01*
X165728345Y-108398328D02*
X164871203Y-108398328D01*
X165299774Y-109898328D02*
X165299774Y-108398328D01*
X164371203Y-109898328D02*
X164371203Y-108398328D01*
X164371203Y-108398328D02*
X163799774Y-108398328D01*
X163799774Y-108398328D02*
X163656917Y-108469757D01*
X163656917Y-108469757D02*
X163585488Y-108541185D01*
X163585488Y-108541185D02*
X163514060Y-108684042D01*
X163514060Y-108684042D02*
X163514060Y-108898328D01*
X163514060Y-108898328D02*
X163585488Y-109041185D01*
X163585488Y-109041185D02*
X163656917Y-109112614D01*
X163656917Y-109112614D02*
X163799774Y-109184042D01*
X163799774Y-109184042D02*
X164371203Y-109184042D01*
X162871203Y-109755471D02*
X162799774Y-109826900D01*
X162799774Y-109826900D02*
X162871203Y-109898328D01*
X162871203Y-109898328D02*
X162942631Y-109826900D01*
X162942631Y-109826900D02*
X162871203Y-109755471D01*
X162871203Y-109755471D02*
X162871203Y-109898328D01*
X162871203Y-109326900D02*
X162942631Y-108469757D01*
X162942631Y-108469757D02*
X162871203Y-108398328D01*
X162871203Y-108398328D02*
X162799774Y-108469757D01*
X162799774Y-108469757D02*
X162871203Y-109326900D01*
X162871203Y-109326900D02*
X162871203Y-108398328D01*
X162156917Y-109898328D02*
X162156917Y-108898328D01*
X162156917Y-109041185D02*
X162085488Y-108969757D01*
X162085488Y-108969757D02*
X161942631Y-108898328D01*
X161942631Y-108898328D02*
X161728345Y-108898328D01*
X161728345Y-108898328D02*
X161585488Y-108969757D01*
X161585488Y-108969757D02*
X161514060Y-109112614D01*
X161514060Y-109112614D02*
X161514060Y-109898328D01*
X161514060Y-109112614D02*
X161442631Y-108969757D01*
X161442631Y-108969757D02*
X161299774Y-108898328D01*
X161299774Y-108898328D02*
X161085488Y-108898328D01*
X161085488Y-108898328D02*
X160942631Y-108969757D01*
X160942631Y-108969757D02*
X160871202Y-109112614D01*
X160871202Y-109112614D02*
X160871202Y-109898328D01*
X158156917Y-109755471D02*
X158228345Y-109826900D01*
X158228345Y-109826900D02*
X158442631Y-109898328D01*
X158442631Y-109898328D02*
X158585488Y-109898328D01*
X158585488Y-109898328D02*
X158799774Y-109826900D01*
X158799774Y-109826900D02*
X158942631Y-109684042D01*
X158942631Y-109684042D02*
X159014060Y-109541185D01*
X159014060Y-109541185D02*
X159085488Y-109255471D01*
X159085488Y-109255471D02*
X159085488Y-109041185D01*
X159085488Y-109041185D02*
X159014060Y-108755471D01*
X159014060Y-108755471D02*
X158942631Y-108612614D01*
X158942631Y-108612614D02*
X158799774Y-108469757D01*
X158799774Y-108469757D02*
X158585488Y-108398328D01*
X158585488Y-108398328D02*
X158442631Y-108398328D01*
X158442631Y-108398328D02*
X158228345Y-108469757D01*
X158228345Y-108469757D02*
X158156917Y-108541185D01*
X157228345Y-108398328D02*
X156942631Y-108398328D01*
X156942631Y-108398328D02*
X156799774Y-108469757D01*
X156799774Y-108469757D02*
X156656917Y-108612614D01*
X156656917Y-108612614D02*
X156585488Y-108898328D01*
X156585488Y-108898328D02*
X156585488Y-109398328D01*
X156585488Y-109398328D02*
X156656917Y-109684042D01*
X156656917Y-109684042D02*
X156799774Y-109826900D01*
X156799774Y-109826900D02*
X156942631Y-109898328D01*
X156942631Y-109898328D02*
X157228345Y-109898328D01*
X157228345Y-109898328D02*
X157371203Y-109826900D01*
X157371203Y-109826900D02*
X157514060Y-109684042D01*
X157514060Y-109684042D02*
X157585488Y-109398328D01*
X157585488Y-109398328D02*
X157585488Y-108898328D01*
X157585488Y-108898328D02*
X157514060Y-108612614D01*
X157514060Y-108612614D02*
X157371203Y-108469757D01*
X157371203Y-108469757D02*
X157228345Y-108398328D01*
X155942631Y-109898328D02*
X155942631Y-108398328D01*
X155942631Y-108398328D02*
X155085488Y-109898328D01*
X155085488Y-109898328D02*
X155085488Y-108398328D01*
X154585487Y-108398328D02*
X153728345Y-108398328D01*
X154156916Y-109898328D02*
X154156916Y-108398328D01*
X152371202Y-109898328D02*
X152871202Y-109184042D01*
X153228345Y-109898328D02*
X153228345Y-108398328D01*
X153228345Y-108398328D02*
X152656916Y-108398328D01*
X152656916Y-108398328D02*
X152514059Y-108469757D01*
X152514059Y-108469757D02*
X152442630Y-108541185D01*
X152442630Y-108541185D02*
X152371202Y-108684042D01*
X152371202Y-108684042D02*
X152371202Y-108898328D01*
X152371202Y-108898328D02*
X152442630Y-109041185D01*
X152442630Y-109041185D02*
X152514059Y-109112614D01*
X152514059Y-109112614D02*
X152656916Y-109184042D01*
X152656916Y-109184042D02*
X153228345Y-109184042D01*
X151442630Y-108398328D02*
X151156916Y-108398328D01*
X151156916Y-108398328D02*
X151014059Y-108469757D01*
X151014059Y-108469757D02*
X150871202Y-108612614D01*
X150871202Y-108612614D02*
X150799773Y-108898328D01*
X150799773Y-108898328D02*
X150799773Y-109398328D01*
X150799773Y-109398328D02*
X150871202Y-109684042D01*
X150871202Y-109684042D02*
X151014059Y-109826900D01*
X151014059Y-109826900D02*
X151156916Y-109898328D01*
X151156916Y-109898328D02*
X151442630Y-109898328D01*
X151442630Y-109898328D02*
X151585488Y-109826900D01*
X151585488Y-109826900D02*
X151728345Y-109684042D01*
X151728345Y-109684042D02*
X151799773Y-109398328D01*
X151799773Y-109398328D02*
X151799773Y-108898328D01*
X151799773Y-108898328D02*
X151728345Y-108612614D01*
X151728345Y-108612614D02*
X151585488Y-108469757D01*
X151585488Y-108469757D02*
X151442630Y-108398328D01*
X149442630Y-109898328D02*
X150156916Y-109898328D01*
X150156916Y-109898328D02*
X150156916Y-108398328D01*
X126445489Y-71798328D02*
X126445489Y-70298328D01*
X126445489Y-70869757D02*
X126302632Y-70798328D01*
X126302632Y-70798328D02*
X126016917Y-70798328D01*
X126016917Y-70798328D02*
X125874060Y-70869757D01*
X125874060Y-70869757D02*
X125802632Y-70941185D01*
X125802632Y-70941185D02*
X125731203Y-71084042D01*
X125731203Y-71084042D02*
X125731203Y-71512614D01*
X125731203Y-71512614D02*
X125802632Y-71655471D01*
X125802632Y-71655471D02*
X125874060Y-71726900D01*
X125874060Y-71726900D02*
X126016917Y-71798328D01*
X126016917Y-71798328D02*
X126302632Y-71798328D01*
X126302632Y-71798328D02*
X126445489Y-71726900D01*
X125231203Y-70798328D02*
X124874060Y-71798328D01*
X124516917Y-70798328D02*
X124874060Y-71798328D01*
X124874060Y-71798328D02*
X125016917Y-72155471D01*
X125016917Y-72155471D02*
X125088346Y-72226900D01*
X125088346Y-72226900D02*
X125231203Y-72298328D01*
X122874060Y-71726900D02*
X122731203Y-71798328D01*
X122731203Y-71798328D02*
X122445489Y-71798328D01*
X122445489Y-71798328D02*
X122302632Y-71726900D01*
X122302632Y-71726900D02*
X122231203Y-71584042D01*
X122231203Y-71584042D02*
X122231203Y-71512614D01*
X122231203Y-71512614D02*
X122302632Y-71369757D01*
X122302632Y-71369757D02*
X122445489Y-71298328D01*
X122445489Y-71298328D02*
X122659775Y-71298328D01*
X122659775Y-71298328D02*
X122802632Y-71226900D01*
X122802632Y-71226900D02*
X122874060Y-71084042D01*
X122874060Y-71084042D02*
X122874060Y-71012614D01*
X122874060Y-71012614D02*
X122802632Y-70869757D01*
X122802632Y-70869757D02*
X122659775Y-70798328D01*
X122659775Y-70798328D02*
X122445489Y-70798328D01*
X122445489Y-70798328D02*
X122302632Y-70869757D01*
X121588346Y-71798328D02*
X121588346Y-70298328D01*
X120945489Y-71798328D02*
X120945489Y-71012614D01*
X120945489Y-71012614D02*
X121016917Y-70869757D01*
X121016917Y-70869757D02*
X121159774Y-70798328D01*
X121159774Y-70798328D02*
X121374060Y-70798328D01*
X121374060Y-70798328D02*
X121516917Y-70869757D01*
X121516917Y-70869757D02*
X121588346Y-70941185D01*
X119588346Y-71798328D02*
X119588346Y-71012614D01*
X119588346Y-71012614D02*
X119659774Y-70869757D01*
X119659774Y-70869757D02*
X119802631Y-70798328D01*
X119802631Y-70798328D02*
X120088346Y-70798328D01*
X120088346Y-70798328D02*
X120231203Y-70869757D01*
X119588346Y-71726900D02*
X119731203Y-71798328D01*
X119731203Y-71798328D02*
X120088346Y-71798328D01*
X120088346Y-71798328D02*
X120231203Y-71726900D01*
X120231203Y-71726900D02*
X120302631Y-71584042D01*
X120302631Y-71584042D02*
X120302631Y-71441185D01*
X120302631Y-71441185D02*
X120231203Y-71298328D01*
X120231203Y-71298328D02*
X120088346Y-71226900D01*
X120088346Y-71226900D02*
X119731203Y-71226900D01*
X119731203Y-71226900D02*
X119588346Y-71155471D01*
X119016917Y-70798328D02*
X118731203Y-71798328D01*
X118731203Y-71798328D02*
X118445488Y-71084042D01*
X118445488Y-71084042D02*
X118159774Y-71798328D01*
X118159774Y-71798328D02*
X117874060Y-70798328D01*
X117302631Y-70798328D02*
X117302631Y-71798328D01*
X117302631Y-70941185D02*
X117231202Y-70869757D01*
X117231202Y-70869757D02*
X117088345Y-70798328D01*
X117088345Y-70798328D02*
X116874059Y-70798328D01*
X116874059Y-70798328D02*
X116731202Y-70869757D01*
X116731202Y-70869757D02*
X116659774Y-71012614D01*
X116659774Y-71012614D02*
X116659774Y-71798328D01*
X115302631Y-71798328D02*
X115302631Y-70298328D01*
X115302631Y-71726900D02*
X115445488Y-71798328D01*
X115445488Y-71798328D02*
X115731202Y-71798328D01*
X115731202Y-71798328D02*
X115874059Y-71726900D01*
X115874059Y-71726900D02*
X115945488Y-71655471D01*
X115945488Y-71655471D02*
X116016916Y-71512614D01*
X116016916Y-71512614D02*
X116016916Y-71084042D01*
X116016916Y-71084042D02*
X115945488Y-70941185D01*
X115945488Y-70941185D02*
X115874059Y-70869757D01*
X115874059Y-70869757D02*
X115731202Y-70798328D01*
X115731202Y-70798328D02*
X115445488Y-70798328D01*
X115445488Y-70798328D02*
X115302631Y-70869757D01*
X114588345Y-71655471D02*
X114516916Y-71726900D01*
X114516916Y-71726900D02*
X114588345Y-71798328D01*
X114588345Y-71798328D02*
X114659773Y-71726900D01*
X114659773Y-71726900D02*
X114588345Y-71655471D01*
X114588345Y-71655471D02*
X114588345Y-71798328D01*
X114016916Y-71798328D02*
X113231202Y-70798328D01*
X114016916Y-70798328D02*
X113231202Y-71798328D01*
X112802630Y-70798328D02*
X112445487Y-71798328D01*
X112088344Y-70798328D02*
X112445487Y-71798328D01*
X112445487Y-71798328D02*
X112588344Y-72155471D01*
X112588344Y-72155471D02*
X112659773Y-72226900D01*
X112659773Y-72226900D02*
X112802630Y-72298328D01*
X111659773Y-70798328D02*
X110874059Y-70798328D01*
X110874059Y-70798328D02*
X111659773Y-71798328D01*
X111659773Y-71798328D02*
X110874059Y-71798328D01*
X162005489Y-71798328D02*
X162005489Y-70298328D01*
X162005489Y-70298328D02*
X161505489Y-71369757D01*
X161505489Y-71369757D02*
X161005489Y-70298328D01*
X161005489Y-70298328D02*
X161005489Y-71798328D01*
X160076917Y-71798328D02*
X160219774Y-71726900D01*
X160219774Y-71726900D02*
X160291203Y-71655471D01*
X160291203Y-71655471D02*
X160362631Y-71512614D01*
X160362631Y-71512614D02*
X160362631Y-71084042D01*
X160362631Y-71084042D02*
X160291203Y-70941185D01*
X160291203Y-70941185D02*
X160219774Y-70869757D01*
X160219774Y-70869757D02*
X160076917Y-70798328D01*
X160076917Y-70798328D02*
X159862631Y-70798328D01*
X159862631Y-70798328D02*
X159719774Y-70869757D01*
X159719774Y-70869757D02*
X159648346Y-70941185D01*
X159648346Y-70941185D02*
X159576917Y-71084042D01*
X159576917Y-71084042D02*
X159576917Y-71512614D01*
X159576917Y-71512614D02*
X159648346Y-71655471D01*
X159648346Y-71655471D02*
X159719774Y-71726900D01*
X159719774Y-71726900D02*
X159862631Y-71798328D01*
X159862631Y-71798328D02*
X160076917Y-71798328D01*
X158291203Y-71798328D02*
X158291203Y-70298328D01*
X158291203Y-71726900D02*
X158434060Y-71798328D01*
X158434060Y-71798328D02*
X158719774Y-71798328D01*
X158719774Y-71798328D02*
X158862631Y-71726900D01*
X158862631Y-71726900D02*
X158934060Y-71655471D01*
X158934060Y-71655471D02*
X159005488Y-71512614D01*
X159005488Y-71512614D02*
X159005488Y-71084042D01*
X159005488Y-71084042D02*
X158934060Y-70941185D01*
X158934060Y-70941185D02*
X158862631Y-70869757D01*
X158862631Y-70869757D02*
X158719774Y-70798328D01*
X158719774Y-70798328D02*
X158434060Y-70798328D01*
X158434060Y-70798328D02*
X158291203Y-70869757D01*
X156934060Y-70798328D02*
X156934060Y-71798328D01*
X157576917Y-70798328D02*
X157576917Y-71584042D01*
X157576917Y-71584042D02*
X157505488Y-71726900D01*
X157505488Y-71726900D02*
X157362631Y-71798328D01*
X157362631Y-71798328D02*
X157148345Y-71798328D01*
X157148345Y-71798328D02*
X157005488Y-71726900D01*
X157005488Y-71726900D02*
X156934060Y-71655471D01*
X156005488Y-71798328D02*
X156148345Y-71726900D01*
X156148345Y-71726900D02*
X156219774Y-71584042D01*
X156219774Y-71584042D02*
X156219774Y-70298328D01*
X154862631Y-71726900D02*
X155005488Y-71798328D01*
X155005488Y-71798328D02*
X155291203Y-71798328D01*
X155291203Y-71798328D02*
X155434060Y-71726900D01*
X155434060Y-71726900D02*
X155505488Y-71584042D01*
X155505488Y-71584042D02*
X155505488Y-71012614D01*
X155505488Y-71012614D02*
X155434060Y-70869757D01*
X155434060Y-70869757D02*
X155291203Y-70798328D01*
X155291203Y-70798328D02*
X155005488Y-70798328D01*
X155005488Y-70798328D02*
X154862631Y-70869757D01*
X154862631Y-70869757D02*
X154791203Y-71012614D01*
X154791203Y-71012614D02*
X154791203Y-71155471D01*
X154791203Y-71155471D02*
X155505488Y-71298328D01*
X153076917Y-71726900D02*
X152862632Y-71798328D01*
X152862632Y-71798328D02*
X152505489Y-71798328D01*
X152505489Y-71798328D02*
X152362632Y-71726900D01*
X152362632Y-71726900D02*
X152291203Y-71655471D01*
X152291203Y-71655471D02*
X152219774Y-71512614D01*
X152219774Y-71512614D02*
X152219774Y-71369757D01*
X152219774Y-71369757D02*
X152291203Y-71226900D01*
X152291203Y-71226900D02*
X152362632Y-71155471D01*
X152362632Y-71155471D02*
X152505489Y-71084042D01*
X152505489Y-71084042D02*
X152791203Y-71012614D01*
X152791203Y-71012614D02*
X152934060Y-70941185D01*
X152934060Y-70941185D02*
X153005489Y-70869757D01*
X153005489Y-70869757D02*
X153076917Y-70726900D01*
X153076917Y-70726900D02*
X153076917Y-70584042D01*
X153076917Y-70584042D02*
X153005489Y-70441185D01*
X153005489Y-70441185D02*
X152934060Y-70369757D01*
X152934060Y-70369757D02*
X152791203Y-70298328D01*
X152791203Y-70298328D02*
X152434060Y-70298328D01*
X152434060Y-70298328D02*
X152219774Y-70369757D01*
X151791203Y-70798328D02*
X151219775Y-70798328D01*
X151576918Y-70298328D02*
X151576918Y-71584042D01*
X151576918Y-71584042D02*
X151505489Y-71726900D01*
X151505489Y-71726900D02*
X151362632Y-71798328D01*
X151362632Y-71798328D02*
X151219775Y-71798328D01*
X150076918Y-71798328D02*
X150076918Y-71012614D01*
X150076918Y-71012614D02*
X150148346Y-70869757D01*
X150148346Y-70869757D02*
X150291203Y-70798328D01*
X150291203Y-70798328D02*
X150576918Y-70798328D01*
X150576918Y-70798328D02*
X150719775Y-70869757D01*
X150076918Y-71726900D02*
X150219775Y-71798328D01*
X150219775Y-71798328D02*
X150576918Y-71798328D01*
X150576918Y-71798328D02*
X150719775Y-71726900D01*
X150719775Y-71726900D02*
X150791203Y-71584042D01*
X150791203Y-71584042D02*
X150791203Y-71441185D01*
X150791203Y-71441185D02*
X150719775Y-71298328D01*
X150719775Y-71298328D02*
X150576918Y-71226900D01*
X150576918Y-71226900D02*
X150219775Y-71226900D01*
X150219775Y-71226900D02*
X150076918Y-71155471D01*
X149576917Y-70798328D02*
X149005489Y-70798328D01*
X149362632Y-70298328D02*
X149362632Y-71584042D01*
X149362632Y-71584042D02*
X149291203Y-71726900D01*
X149291203Y-71726900D02*
X149148346Y-71798328D01*
X149148346Y-71798328D02*
X149005489Y-71798328D01*
X147862632Y-70798328D02*
X147862632Y-71798328D01*
X148505489Y-70798328D02*
X148505489Y-71584042D01*
X148505489Y-71584042D02*
X148434060Y-71726900D01*
X148434060Y-71726900D02*
X148291203Y-71798328D01*
X148291203Y-71798328D02*
X148076917Y-71798328D01*
X148076917Y-71798328D02*
X147934060Y-71726900D01*
X147934060Y-71726900D02*
X147862632Y-71655471D01*
X147219774Y-71726900D02*
X147076917Y-71798328D01*
X147076917Y-71798328D02*
X146791203Y-71798328D01*
X146791203Y-71798328D02*
X146648346Y-71726900D01*
X146648346Y-71726900D02*
X146576917Y-71584042D01*
X146576917Y-71584042D02*
X146576917Y-71512614D01*
X146576917Y-71512614D02*
X146648346Y-71369757D01*
X146648346Y-71369757D02*
X146791203Y-71298328D01*
X146791203Y-71298328D02*
X147005489Y-71298328D01*
X147005489Y-71298328D02*
X147148346Y-71226900D01*
X147148346Y-71226900D02*
X147219774Y-71084042D01*
X147219774Y-71084042D02*
X147219774Y-71012614D01*
X147219774Y-71012614D02*
X147148346Y-70869757D01*
X147148346Y-70869757D02*
X147005489Y-70798328D01*
X147005489Y-70798328D02*
X146791203Y-70798328D01*
X146791203Y-70798328D02*
X146648346Y-70869757D01*
X123476917Y-108398328D02*
X123476917Y-109469757D01*
X123476917Y-109469757D02*
X123548346Y-109684042D01*
X123548346Y-109684042D02*
X123691203Y-109826900D01*
X123691203Y-109826900D02*
X123905489Y-109898328D01*
X123905489Y-109898328D02*
X124048346Y-109898328D01*
X122048346Y-109898328D02*
X122762632Y-109898328D01*
X122762632Y-109898328D02*
X122762632Y-108398328D01*
X120691203Y-109755471D02*
X120762631Y-109826900D01*
X120762631Y-109826900D02*
X120976917Y-109898328D01*
X120976917Y-109898328D02*
X121119774Y-109898328D01*
X121119774Y-109898328D02*
X121334060Y-109826900D01*
X121334060Y-109826900D02*
X121476917Y-109684042D01*
X121476917Y-109684042D02*
X121548346Y-109541185D01*
X121548346Y-109541185D02*
X121619774Y-109255471D01*
X121619774Y-109255471D02*
X121619774Y-109041185D01*
X121619774Y-109041185D02*
X121548346Y-108755471D01*
X121548346Y-108755471D02*
X121476917Y-108612614D01*
X121476917Y-108612614D02*
X121334060Y-108469757D01*
X121334060Y-108469757D02*
X121119774Y-108398328D01*
X121119774Y-108398328D02*
X120976917Y-108398328D01*
X120976917Y-108398328D02*
X120762631Y-108469757D01*
X120762631Y-108469757D02*
X120691203Y-108541185D01*
X119619774Y-108398328D02*
X119619774Y-109469757D01*
X119619774Y-109469757D02*
X119691203Y-109684042D01*
X119691203Y-109684042D02*
X119834060Y-109826900D01*
X119834060Y-109826900D02*
X120048346Y-109898328D01*
X120048346Y-109898328D02*
X120191203Y-109898328D01*
X118191203Y-109898328D02*
X118905489Y-109898328D01*
X118905489Y-109898328D02*
X118905489Y-108398328D01*
X116834060Y-109755471D02*
X116905488Y-109826900D01*
X116905488Y-109826900D02*
X117119774Y-109898328D01*
X117119774Y-109898328D02*
X117262631Y-109898328D01*
X117262631Y-109898328D02*
X117476917Y-109826900D01*
X117476917Y-109826900D02*
X117619774Y-109684042D01*
X117619774Y-109684042D02*
X117691203Y-109541185D01*
X117691203Y-109541185D02*
X117762631Y-109255471D01*
X117762631Y-109255471D02*
X117762631Y-109041185D01*
X117762631Y-109041185D02*
X117691203Y-108755471D01*
X117691203Y-108755471D02*
X117619774Y-108612614D01*
X117619774Y-108612614D02*
X117476917Y-108469757D01*
X117476917Y-108469757D02*
X117262631Y-108398328D01*
X117262631Y-108398328D02*
X117119774Y-108398328D01*
X117119774Y-108398328D02*
X116905488Y-108469757D01*
X116905488Y-108469757D02*
X116834060Y-108541185D01*
X115762631Y-108398328D02*
X115762631Y-109469757D01*
X115762631Y-109469757D02*
X115834060Y-109684042D01*
X115834060Y-109684042D02*
X115976917Y-109826900D01*
X115976917Y-109826900D02*
X116191203Y-109898328D01*
X116191203Y-109898328D02*
X116334060Y-109898328D01*
X114334060Y-109898328D02*
X115048346Y-109898328D01*
X115048346Y-109898328D02*
X115048346Y-108398328D01*
X112976917Y-109755471D02*
X113048345Y-109826900D01*
X113048345Y-109826900D02*
X113262631Y-109898328D01*
X113262631Y-109898328D02*
X113405488Y-109898328D01*
X113405488Y-109898328D02*
X113619774Y-109826900D01*
X113619774Y-109826900D02*
X113762631Y-109684042D01*
X113762631Y-109684042D02*
X113834060Y-109541185D01*
X113834060Y-109541185D02*
X113905488Y-109255471D01*
X113905488Y-109255471D02*
X113905488Y-109041185D01*
X113905488Y-109041185D02*
X113834060Y-108755471D01*
X113834060Y-108755471D02*
X113762631Y-108612614D01*
X113762631Y-108612614D02*
X113619774Y-108469757D01*
X113619774Y-108469757D02*
X113405488Y-108398328D01*
X113405488Y-108398328D02*
X113262631Y-108398328D01*
X113262631Y-108398328D02*
X113048345Y-108469757D01*
X113048345Y-108469757D02*
X112976917Y-108541185D01*
X111905488Y-108398328D02*
X111905488Y-109469757D01*
X111905488Y-109469757D02*
X111976917Y-109684042D01*
X111976917Y-109684042D02*
X112119774Y-109826900D01*
X112119774Y-109826900D02*
X112334060Y-109898328D01*
X112334060Y-109898328D02*
X112476917Y-109898328D01*
X110476917Y-109898328D02*
X111191203Y-109898328D01*
X111191203Y-109898328D02*
X111191203Y-108398328D01*
X109119774Y-109755471D02*
X109191202Y-109826900D01*
X109191202Y-109826900D02*
X109405488Y-109898328D01*
X109405488Y-109898328D02*
X109548345Y-109898328D01*
X109548345Y-109898328D02*
X109762631Y-109826900D01*
X109762631Y-109826900D02*
X109905488Y-109684042D01*
X109905488Y-109684042D02*
X109976917Y-109541185D01*
X109976917Y-109541185D02*
X110048345Y-109255471D01*
X110048345Y-109255471D02*
X110048345Y-109041185D01*
X110048345Y-109041185D02*
X109976917Y-108755471D01*
X109976917Y-108755471D02*
X109905488Y-108612614D01*
X109905488Y-108612614D02*
X109762631Y-108469757D01*
X109762631Y-108469757D02*
X109548345Y-108398328D01*
X109548345Y-108398328D02*
X109405488Y-108398328D01*
X109405488Y-108398328D02*
X109191202Y-108469757D01*
X109191202Y-108469757D02*
X109119774Y-108541185D01*
D11*
X170634819Y-102925714D02*
X169634819Y-102925714D01*
X169634819Y-102925714D02*
X169634819Y-103163809D01*
X169634819Y-103163809D02*
X169682438Y-103306666D01*
X169682438Y-103306666D02*
X169777676Y-103401904D01*
X169777676Y-103401904D02*
X169872914Y-103449523D01*
X169872914Y-103449523D02*
X170063390Y-103497142D01*
X170063390Y-103497142D02*
X170206247Y-103497142D01*
X170206247Y-103497142D02*
X170396723Y-103449523D01*
X170396723Y-103449523D02*
X170491961Y-103401904D01*
X170491961Y-103401904D02*
X170587200Y-103306666D01*
X170587200Y-103306666D02*
X170634819Y-103163809D01*
X170634819Y-103163809D02*
X170634819Y-102925714D01*
X169634819Y-103830476D02*
X169634819Y-104449523D01*
X169634819Y-104449523D02*
X170015771Y-104116190D01*
X170015771Y-104116190D02*
X170015771Y-104259047D01*
X170015771Y-104259047D02*
X170063390Y-104354285D01*
X170063390Y-104354285D02*
X170111009Y-104401904D01*
X170111009Y-104401904D02*
X170206247Y-104449523D01*
X170206247Y-104449523D02*
X170444342Y-104449523D01*
X170444342Y-104449523D02*
X170539580Y-104401904D01*
X170539580Y-104401904D02*
X170587200Y-104354285D01*
X170587200Y-104354285D02*
X170634819Y-104259047D01*
X170634819Y-104259047D02*
X170634819Y-103973333D01*
X170634819Y-103973333D02*
X170587200Y-103878095D01*
X170587200Y-103878095D02*
X170539580Y-103830476D01*
X169730057Y-104830476D02*
X169682438Y-104878095D01*
X169682438Y-104878095D02*
X169634819Y-104973333D01*
X169634819Y-104973333D02*
X169634819Y-105211428D01*
X169634819Y-105211428D02*
X169682438Y-105306666D01*
X169682438Y-105306666D02*
X169730057Y-105354285D01*
X169730057Y-105354285D02*
X169825295Y-105401904D01*
X169825295Y-105401904D02*
X169920533Y-105401904D01*
X169920533Y-105401904D02*
X170063390Y-105354285D01*
X170063390Y-105354285D02*
X170634819Y-104782857D01*
X170634819Y-104782857D02*
X170634819Y-105401904D01*
X144134819Y-108886666D02*
X144849104Y-108886666D01*
X144849104Y-108886666D02*
X144991961Y-108839047D01*
X144991961Y-108839047D02*
X145087200Y-108743809D01*
X145087200Y-108743809D02*
X145134819Y-108600952D01*
X145134819Y-108600952D02*
X145134819Y-108505714D01*
X144134819Y-109267619D02*
X144134819Y-109886666D01*
X144134819Y-109886666D02*
X144515771Y-109553333D01*
X144515771Y-109553333D02*
X144515771Y-109696190D01*
X144515771Y-109696190D02*
X144563390Y-109791428D01*
X144563390Y-109791428D02*
X144611009Y-109839047D01*
X144611009Y-109839047D02*
X144706247Y-109886666D01*
X144706247Y-109886666D02*
X144944342Y-109886666D01*
X144944342Y-109886666D02*
X145039580Y-109839047D01*
X145039580Y-109839047D02*
X145087200Y-109791428D01*
X145087200Y-109791428D02*
X145134819Y-109696190D01*
X145134819Y-109696190D02*
X145134819Y-109410476D01*
X145134819Y-109410476D02*
X145087200Y-109315238D01*
X145087200Y-109315238D02*
X145039580Y-109267619D01*
X107134819Y-102925714D02*
X106134819Y-102925714D01*
X106134819Y-102925714D02*
X106134819Y-103163809D01*
X106134819Y-103163809D02*
X106182438Y-103306666D01*
X106182438Y-103306666D02*
X106277676Y-103401904D01*
X106277676Y-103401904D02*
X106372914Y-103449523D01*
X106372914Y-103449523D02*
X106563390Y-103497142D01*
X106563390Y-103497142D02*
X106706247Y-103497142D01*
X106706247Y-103497142D02*
X106896723Y-103449523D01*
X106896723Y-103449523D02*
X106991961Y-103401904D01*
X106991961Y-103401904D02*
X107087200Y-103306666D01*
X107087200Y-103306666D02*
X107134819Y-103163809D01*
X107134819Y-103163809D02*
X107134819Y-102925714D01*
X106230057Y-103878095D02*
X106182438Y-103925714D01*
X106182438Y-103925714D02*
X106134819Y-104020952D01*
X106134819Y-104020952D02*
X106134819Y-104259047D01*
X106134819Y-104259047D02*
X106182438Y-104354285D01*
X106182438Y-104354285D02*
X106230057Y-104401904D01*
X106230057Y-104401904D02*
X106325295Y-104449523D01*
X106325295Y-104449523D02*
X106420533Y-104449523D01*
X106420533Y-104449523D02*
X106563390Y-104401904D01*
X106563390Y-104401904D02*
X107134819Y-103830476D01*
X107134819Y-103830476D02*
X107134819Y-104449523D01*
X106134819Y-105354285D02*
X106134819Y-104878095D01*
X106134819Y-104878095D02*
X106611009Y-104830476D01*
X106611009Y-104830476D02*
X106563390Y-104878095D01*
X106563390Y-104878095D02*
X106515771Y-104973333D01*
X106515771Y-104973333D02*
X106515771Y-105211428D01*
X106515771Y-105211428D02*
X106563390Y-105306666D01*
X106563390Y-105306666D02*
X106611009Y-105354285D01*
X106611009Y-105354285D02*
X106706247Y-105401904D01*
X106706247Y-105401904D02*
X106944342Y-105401904D01*
X106944342Y-105401904D02*
X107039580Y-105354285D01*
X107039580Y-105354285D02*
X107087200Y-105306666D01*
X107087200Y-105306666D02*
X107134819Y-105211428D01*
X107134819Y-105211428D02*
X107134819Y-104973333D01*
X107134819Y-104973333D02*
X107087200Y-104878095D01*
X107087200Y-104878095D02*
X107039580Y-104830476D01*
X144134819Y-70786666D02*
X144849104Y-70786666D01*
X144849104Y-70786666D02*
X144991961Y-70739047D01*
X144991961Y-70739047D02*
X145087200Y-70643809D01*
X145087200Y-70643809D02*
X145134819Y-70500952D01*
X145134819Y-70500952D02*
X145134819Y-70405714D01*
X145134819Y-71786666D02*
X145134819Y-71215238D01*
X145134819Y-71500952D02*
X144134819Y-71500952D01*
X144134819Y-71500952D02*
X144277676Y-71405714D01*
X144277676Y-71405714D02*
X144372914Y-71310476D01*
X144372914Y-71310476D02*
X144420533Y-71215238D01*
X107134819Y-85621905D02*
X106134819Y-85621905D01*
X106134819Y-85621905D02*
X106134819Y-85860000D01*
X106134819Y-85860000D02*
X106182438Y-86002857D01*
X106182438Y-86002857D02*
X106277676Y-86098095D01*
X106277676Y-86098095D02*
X106372914Y-86145714D01*
X106372914Y-86145714D02*
X106563390Y-86193333D01*
X106563390Y-86193333D02*
X106706247Y-86193333D01*
X106706247Y-86193333D02*
X106896723Y-86145714D01*
X106896723Y-86145714D02*
X106991961Y-86098095D01*
X106991961Y-86098095D02*
X107087200Y-86002857D01*
X107087200Y-86002857D02*
X107134819Y-85860000D01*
X107134819Y-85860000D02*
X107134819Y-85621905D01*
X107134819Y-86669524D02*
X107134819Y-86860000D01*
X107134819Y-86860000D02*
X107087200Y-86955238D01*
X107087200Y-86955238D02*
X107039580Y-87002857D01*
X107039580Y-87002857D02*
X106896723Y-87098095D01*
X106896723Y-87098095D02*
X106706247Y-87145714D01*
X106706247Y-87145714D02*
X106325295Y-87145714D01*
X106325295Y-87145714D02*
X106230057Y-87098095D01*
X106230057Y-87098095D02*
X106182438Y-87050476D01*
X106182438Y-87050476D02*
X106134819Y-86955238D01*
X106134819Y-86955238D02*
X106134819Y-86764762D01*
X106134819Y-86764762D02*
X106182438Y-86669524D01*
X106182438Y-86669524D02*
X106230057Y-86621905D01*
X106230057Y-86621905D02*
X106325295Y-86574286D01*
X106325295Y-86574286D02*
X106563390Y-86574286D01*
X106563390Y-86574286D02*
X106658628Y-86621905D01*
X106658628Y-86621905D02*
X106706247Y-86669524D01*
X106706247Y-86669524D02*
X106753866Y-86764762D01*
X106753866Y-86764762D02*
X106753866Y-86955238D01*
X106753866Y-86955238D02*
X106706247Y-87050476D01*
X106706247Y-87050476D02*
X106658628Y-87098095D01*
X106658628Y-87098095D02*
X106563390Y-87145714D01*
X170634819Y-85145714D02*
X169634819Y-85145714D01*
X169634819Y-85145714D02*
X169634819Y-85383809D01*
X169634819Y-85383809D02*
X169682438Y-85526666D01*
X169682438Y-85526666D02*
X169777676Y-85621904D01*
X169777676Y-85621904D02*
X169872914Y-85669523D01*
X169872914Y-85669523D02*
X170063390Y-85717142D01*
X170063390Y-85717142D02*
X170206247Y-85717142D01*
X170206247Y-85717142D02*
X170396723Y-85669523D01*
X170396723Y-85669523D02*
X170491961Y-85621904D01*
X170491961Y-85621904D02*
X170587200Y-85526666D01*
X170587200Y-85526666D02*
X170634819Y-85383809D01*
X170634819Y-85383809D02*
X170634819Y-85145714D01*
X170634819Y-86669523D02*
X170634819Y-86098095D01*
X170634819Y-86383809D02*
X169634819Y-86383809D01*
X169634819Y-86383809D02*
X169777676Y-86288571D01*
X169777676Y-86288571D02*
X169872914Y-86193333D01*
X169872914Y-86193333D02*
X169920533Y-86098095D01*
X169634819Y-87526666D02*
X169634819Y-87336190D01*
X169634819Y-87336190D02*
X169682438Y-87240952D01*
X169682438Y-87240952D02*
X169730057Y-87193333D01*
X169730057Y-87193333D02*
X169872914Y-87098095D01*
X169872914Y-87098095D02*
X170063390Y-87050476D01*
X170063390Y-87050476D02*
X170444342Y-87050476D01*
X170444342Y-87050476D02*
X170539580Y-87098095D01*
X170539580Y-87098095D02*
X170587200Y-87145714D01*
X170587200Y-87145714D02*
X170634819Y-87240952D01*
X170634819Y-87240952D02*
X170634819Y-87431428D01*
X170634819Y-87431428D02*
X170587200Y-87526666D01*
X170587200Y-87526666D02*
X170539580Y-87574285D01*
X170539580Y-87574285D02*
X170444342Y-87621904D01*
X170444342Y-87621904D02*
X170206247Y-87621904D01*
X170206247Y-87621904D02*
X170111009Y-87574285D01*
X170111009Y-87574285D02*
X170063390Y-87526666D01*
X170063390Y-87526666D02*
X170015771Y-87431428D01*
X170015771Y-87431428D02*
X170015771Y-87240952D01*
X170015771Y-87240952D02*
X170063390Y-87145714D01*
X170063390Y-87145714D02*
X170111009Y-87098095D01*
X170111009Y-87098095D02*
X170206247Y-87050476D01*
X170634819Y-95305714D02*
X169634819Y-95305714D01*
X169634819Y-95305714D02*
X169634819Y-95543809D01*
X169634819Y-95543809D02*
X169682438Y-95686666D01*
X169682438Y-95686666D02*
X169777676Y-95781904D01*
X169777676Y-95781904D02*
X169872914Y-95829523D01*
X169872914Y-95829523D02*
X170063390Y-95877142D01*
X170063390Y-95877142D02*
X170206247Y-95877142D01*
X170206247Y-95877142D02*
X170396723Y-95829523D01*
X170396723Y-95829523D02*
X170491961Y-95781904D01*
X170491961Y-95781904D02*
X170587200Y-95686666D01*
X170587200Y-95686666D02*
X170634819Y-95543809D01*
X170634819Y-95543809D02*
X170634819Y-95305714D01*
X169730057Y-96258095D02*
X169682438Y-96305714D01*
X169682438Y-96305714D02*
X169634819Y-96400952D01*
X169634819Y-96400952D02*
X169634819Y-96639047D01*
X169634819Y-96639047D02*
X169682438Y-96734285D01*
X169682438Y-96734285D02*
X169730057Y-96781904D01*
X169730057Y-96781904D02*
X169825295Y-96829523D01*
X169825295Y-96829523D02*
X169920533Y-96829523D01*
X169920533Y-96829523D02*
X170063390Y-96781904D01*
X170063390Y-96781904D02*
X170634819Y-96210476D01*
X170634819Y-96210476D02*
X170634819Y-96829523D01*
X169968152Y-97686666D02*
X170634819Y-97686666D01*
X169587200Y-97448571D02*
X170301485Y-97210476D01*
X170301485Y-97210476D02*
X170301485Y-97829523D01*
X107134819Y-95305714D02*
X106134819Y-95305714D01*
X106134819Y-95305714D02*
X106134819Y-95543809D01*
X106134819Y-95543809D02*
X106182438Y-95686666D01*
X106182438Y-95686666D02*
X106277676Y-95781904D01*
X106277676Y-95781904D02*
X106372914Y-95829523D01*
X106372914Y-95829523D02*
X106563390Y-95877142D01*
X106563390Y-95877142D02*
X106706247Y-95877142D01*
X106706247Y-95877142D02*
X106896723Y-95829523D01*
X106896723Y-95829523D02*
X106991961Y-95781904D01*
X106991961Y-95781904D02*
X107087200Y-95686666D01*
X107087200Y-95686666D02*
X107134819Y-95543809D01*
X107134819Y-95543809D02*
X107134819Y-95305714D01*
X107134819Y-96829523D02*
X107134819Y-96258095D01*
X107134819Y-96543809D02*
X106134819Y-96543809D01*
X106134819Y-96543809D02*
X106277676Y-96448571D01*
X106277676Y-96448571D02*
X106372914Y-96353333D01*
X106372914Y-96353333D02*
X106420533Y-96258095D01*
X106134819Y-97162857D02*
X106134819Y-97829523D01*
X106134819Y-97829523D02*
X107134819Y-97400952D01*
X170634819Y-78001905D02*
X169634819Y-78001905D01*
X169634819Y-78001905D02*
X169634819Y-78240000D01*
X169634819Y-78240000D02*
X169682438Y-78382857D01*
X169682438Y-78382857D02*
X169777676Y-78478095D01*
X169777676Y-78478095D02*
X169872914Y-78525714D01*
X169872914Y-78525714D02*
X170063390Y-78573333D01*
X170063390Y-78573333D02*
X170206247Y-78573333D01*
X170206247Y-78573333D02*
X170396723Y-78525714D01*
X170396723Y-78525714D02*
X170491961Y-78478095D01*
X170491961Y-78478095D02*
X170587200Y-78382857D01*
X170587200Y-78382857D02*
X170634819Y-78240000D01*
X170634819Y-78240000D02*
X170634819Y-78001905D01*
X170063390Y-79144762D02*
X170015771Y-79049524D01*
X170015771Y-79049524D02*
X169968152Y-79001905D01*
X169968152Y-79001905D02*
X169872914Y-78954286D01*
X169872914Y-78954286D02*
X169825295Y-78954286D01*
X169825295Y-78954286D02*
X169730057Y-79001905D01*
X169730057Y-79001905D02*
X169682438Y-79049524D01*
X169682438Y-79049524D02*
X169634819Y-79144762D01*
X169634819Y-79144762D02*
X169634819Y-79335238D01*
X169634819Y-79335238D02*
X169682438Y-79430476D01*
X169682438Y-79430476D02*
X169730057Y-79478095D01*
X169730057Y-79478095D02*
X169825295Y-79525714D01*
X169825295Y-79525714D02*
X169872914Y-79525714D01*
X169872914Y-79525714D02*
X169968152Y-79478095D01*
X169968152Y-79478095D02*
X170015771Y-79430476D01*
X170015771Y-79430476D02*
X170063390Y-79335238D01*
X170063390Y-79335238D02*
X170063390Y-79144762D01*
X170063390Y-79144762D02*
X170111009Y-79049524D01*
X170111009Y-79049524D02*
X170158628Y-79001905D01*
X170158628Y-79001905D02*
X170253866Y-78954286D01*
X170253866Y-78954286D02*
X170444342Y-78954286D01*
X170444342Y-78954286D02*
X170539580Y-79001905D01*
X170539580Y-79001905D02*
X170587200Y-79049524D01*
X170587200Y-79049524D02*
X170634819Y-79144762D01*
X170634819Y-79144762D02*
X170634819Y-79335238D01*
X170634819Y-79335238D02*
X170587200Y-79430476D01*
X170587200Y-79430476D02*
X170539580Y-79478095D01*
X170539580Y-79478095D02*
X170444342Y-79525714D01*
X170444342Y-79525714D02*
X170253866Y-79525714D01*
X170253866Y-79525714D02*
X170158628Y-79478095D01*
X170158628Y-79478095D02*
X170111009Y-79430476D01*
X170111009Y-79430476D02*
X170063390Y-79335238D01*
X173053333Y-86294819D02*
X173053333Y-87009104D01*
X173053333Y-87009104D02*
X173100952Y-87151961D01*
X173100952Y-87151961D02*
X173196190Y-87247200D01*
X173196190Y-87247200D02*
X173339047Y-87294819D01*
X173339047Y-87294819D02*
X173434285Y-87294819D01*
X172624761Y-86390057D02*
X172577142Y-86342438D01*
X172577142Y-86342438D02*
X172481904Y-86294819D01*
X172481904Y-86294819D02*
X172243809Y-86294819D01*
X172243809Y-86294819D02*
X172148571Y-86342438D01*
X172148571Y-86342438D02*
X172100952Y-86390057D01*
X172100952Y-86390057D02*
X172053333Y-86485295D01*
X172053333Y-86485295D02*
X172053333Y-86580533D01*
X172053333Y-86580533D02*
X172100952Y-86723390D01*
X172100952Y-86723390D02*
X172672380Y-87294819D01*
X172672380Y-87294819D02*
X172053333Y-87294819D01*
X107134819Y-78001905D02*
X106134819Y-78001905D01*
X106134819Y-78001905D02*
X106134819Y-78240000D01*
X106134819Y-78240000D02*
X106182438Y-78382857D01*
X106182438Y-78382857D02*
X106277676Y-78478095D01*
X106277676Y-78478095D02*
X106372914Y-78525714D01*
X106372914Y-78525714D02*
X106563390Y-78573333D01*
X106563390Y-78573333D02*
X106706247Y-78573333D01*
X106706247Y-78573333D02*
X106896723Y-78525714D01*
X106896723Y-78525714D02*
X106991961Y-78478095D01*
X106991961Y-78478095D02*
X107087200Y-78382857D01*
X107087200Y-78382857D02*
X107134819Y-78240000D01*
X107134819Y-78240000D02*
X107134819Y-78001905D01*
X107134819Y-79525714D02*
X107134819Y-78954286D01*
X107134819Y-79240000D02*
X106134819Y-79240000D01*
X106134819Y-79240000D02*
X106277676Y-79144762D01*
X106277676Y-79144762D02*
X106372914Y-79049524D01*
X106372914Y-79049524D02*
X106420533Y-78954286D01*
M02*
