%TF.GenerationSoftware,KiCad,Pcbnew,7.0.7*%
%TF.CreationDate,2023-10-07T17:43:20-07:00*%
%TF.ProjectId,htpm_control_display,6874706d-5f63-46f6-9e74-726f6c5f6469,1*%
%TF.SameCoordinates,Original*%
%TF.FileFunction,Copper,L1,Top*%
%TF.FilePolarity,Positive*%
%FSLAX46Y46*%
G04 Gerber Fmt 4.6, Leading zero omitted, Abs format (unit mm)*
G04 Created by KiCad (PCBNEW 7.0.7) date 2023-10-07 17:43:20*
%MOMM*%
%LPD*%
G01*
G04 APERTURE LIST*
%TA.AperFunction,ComponentPad*%
%ADD10R,1.800000X1.800000*%
%TD*%
%TA.AperFunction,ComponentPad*%
%ADD11C,1.800000*%
%TD*%
%TA.AperFunction,ComponentPad*%
%ADD12C,1.400000*%
%TD*%
%TA.AperFunction,ComponentPad*%
%ADD13O,1.400000X1.400000*%
%TD*%
%TA.AperFunction,ComponentPad*%
%ADD14R,1.350000X1.350000*%
%TD*%
%TA.AperFunction,ComponentPad*%
%ADD15O,1.350000X1.350000*%
%TD*%
%TA.AperFunction,ViaPad*%
%ADD16C,0.800000*%
%TD*%
%TA.AperFunction,Conductor*%
%ADD17C,0.250000*%
%TD*%
G04 APERTURE END LIST*
D10*
%TO.P,D15,1,K*%
%TO.N,GND*%
X154940000Y-111760000D03*
D11*
%TO.P,D15,2,A*%
%TO.N,Net-(D15-A)*%
X154940000Y-114300000D03*
%TD*%
D10*
%TO.P,D2,1,K*%
%TO.N,GND*%
X142240000Y-106680000D03*
D11*
%TO.P,D2,2,A*%
%TO.N,Net-(D2-A)*%
X142240000Y-104140000D03*
%TD*%
D12*
%TO.P,R1,1*%
%TO.N,Net-(JP25-B)*%
X127000000Y-81280000D03*
D13*
%TO.P,R1,2*%
%TO.N,Net-(D1-A)*%
X134620000Y-81280000D03*
%TD*%
D10*
%TO.P,D1,1,K*%
%TO.N,GND*%
X142240000Y-83820000D03*
D11*
%TO.P,D1,2,A*%
%TO.N,Net-(D1-A)*%
X142240000Y-81280000D03*
%TD*%
D10*
%TO.P,D12,1,K*%
%TO.N,GND*%
X162560000Y-106680000D03*
D11*
%TO.P,D12,2,A*%
%TO.N,Net-(D12-A)*%
X162560000Y-104140000D03*
%TD*%
D10*
%TO.P,D5,1,K*%
%TO.N,GND*%
X170180000Y-83820000D03*
D11*
%TO.P,D5,2,A*%
%TO.N,Net-(D5-A)*%
X170180000Y-81280000D03*
%TD*%
D10*
%TO.P,D6,1,K*%
%TO.N,GND*%
X177800000Y-83820000D03*
D11*
%TO.P,D6,2,A*%
%TO.N,Net-(D6-A)*%
X177800000Y-81280000D03*
%TD*%
D10*
%TO.P,D8,1,K*%
%TO.N,GND*%
X162560000Y-88900000D03*
D11*
%TO.P,D8,2,A*%
%TO.N,Net-(D8-A)*%
X162560000Y-91440000D03*
%TD*%
D10*
%TO.P,D17,1,K*%
%TO.N,GND*%
X170180000Y-111760000D03*
D11*
%TO.P,D17,2,A*%
%TO.N,Net-(D17-A)*%
X170180000Y-114300000D03*
%TD*%
D14*
%TO.P,J1,1,Pin_1*%
%TO.N,+3.3V*%
X132080000Y-76200000D03*
D15*
%TO.P,J1,2,Pin_2*%
%TO.N,GND*%
X130080000Y-76200000D03*
%TO.P,J1,3,Pin_3*%
%TO.N,Net-(J1-Pin_3)*%
X128080000Y-76200000D03*
%TO.P,J1,4,Pin_4*%
%TO.N,Net-(J1-Pin_4)*%
X126080000Y-76200000D03*
%TO.P,J1,5,Pin_5*%
%TO.N,Net-(J1-Pin_5)*%
X124080000Y-76200000D03*
%TO.P,J1,6,Pin_6*%
%TO.N,Net-(J1-Pin_6)*%
X122080000Y-76200000D03*
%TO.P,J1,7,Pin_7*%
%TO.N,Net-(J1-Pin_7)*%
X120080000Y-76200000D03*
%TO.P,J1,8,Pin_8*%
%TO.N,Net-(J1-Pin_8)*%
X118080000Y-76200000D03*
%TO.P,J1,9,Pin_9*%
%TO.N,Net-(J1-Pin_9)*%
X116080000Y-76200000D03*
%TO.P,J1,10,Pin_10*%
%TO.N,Net-(J1-Pin_10)*%
X114080000Y-76200000D03*
%TD*%
D12*
%TO.P,R3,1*%
%TO.N,+3.3V*%
X140970000Y-99060000D03*
D13*
%TO.P,R3,2*%
%TO.N,Net-(JP10-B)*%
X148590000Y-99060000D03*
%TD*%
D10*
%TO.P,D14,1,K*%
%TO.N,GND*%
X177800000Y-106680000D03*
D11*
%TO.P,D14,2,A*%
%TO.N,Net-(D14-A)*%
X177800000Y-104140000D03*
%TD*%
D10*
%TO.P,D10,1,K*%
%TO.N,GND*%
X177800000Y-88900000D03*
D11*
%TO.P,D10,2,A*%
%TO.N,Net-(D10-A)*%
X177800000Y-91440000D03*
%TD*%
D10*
%TO.P,D4,1,K*%
%TO.N,GND*%
X162560000Y-83820000D03*
D11*
%TO.P,D4,2,A*%
%TO.N,Net-(D4-A)*%
X162560000Y-81280000D03*
%TD*%
D10*
%TO.P,D3,1,K*%
%TO.N,GND*%
X154940000Y-83820000D03*
D11*
%TO.P,D3,2,A*%
%TO.N,Net-(D3-A)*%
X154940000Y-81280000D03*
%TD*%
D10*
%TO.P,D16,1,K*%
%TO.N,GND*%
X162560000Y-111760000D03*
D11*
%TO.P,D16,2,A*%
%TO.N,Net-(D16-A)*%
X162560000Y-114300000D03*
%TD*%
D10*
%TO.P,D18,1,K*%
%TO.N,GND*%
X177800000Y-111760000D03*
D11*
%TO.P,D18,2,A*%
%TO.N,Net-(D18-A)*%
X177800000Y-114300000D03*
%TD*%
D10*
%TO.P,D9,1,K*%
%TO.N,GND*%
X170180000Y-88900000D03*
D11*
%TO.P,D9,2,A*%
%TO.N,Net-(D9-A)*%
X170180000Y-91440000D03*
%TD*%
D10*
%TO.P,D13,1,K*%
%TO.N,GND*%
X170180000Y-106680000D03*
D11*
%TO.P,D13,2,A*%
%TO.N,Net-(D13-A)*%
X170180000Y-104140000D03*
%TD*%
D14*
%TO.P,J2,1,Pin_1*%
%TO.N,+3.3V*%
X132080000Y-119380000D03*
D15*
%TO.P,J2,2,Pin_2*%
%TO.N,GND*%
X130080000Y-119380000D03*
%TO.P,J2,3,Pin_3*%
%TO.N,Net-(J1-Pin_3)*%
X128080000Y-119380000D03*
%TO.P,J2,4,Pin_4*%
%TO.N,Net-(J1-Pin_4)*%
X126080000Y-119380000D03*
%TO.P,J2,5,Pin_5*%
%TO.N,Net-(J1-Pin_5)*%
X124080000Y-119380000D03*
%TO.P,J2,6,Pin_6*%
%TO.N,Net-(J1-Pin_6)*%
X122080000Y-119380000D03*
%TO.P,J2,7,Pin_7*%
%TO.N,Net-(J1-Pin_7)*%
X120080000Y-119380000D03*
%TO.P,J2,8,Pin_8*%
%TO.N,Net-(J1-Pin_8)*%
X118080000Y-119380000D03*
%TO.P,J2,9,Pin_9*%
%TO.N,Net-(J1-Pin_9)*%
X116080000Y-119380000D03*
%TO.P,J2,10,Pin_10*%
%TO.N,Net-(J1-Pin_10)*%
X114080000Y-119380000D03*
%TD*%
D10*
%TO.P,D11,1,K*%
%TO.N,GND*%
X154940000Y-106680000D03*
D11*
%TO.P,D11,2,A*%
%TO.N,Net-(D11-A)*%
X154940000Y-104140000D03*
%TD*%
D12*
%TO.P,R4,1*%
%TO.N,+3.3V*%
X140970000Y-93980000D03*
D13*
%TO.P,R4,2*%
%TO.N,Net-(JP1-B)*%
X148590000Y-93980000D03*
%TD*%
D12*
%TO.P,R2,1*%
%TO.N,Net-(JP17-B)*%
X127000000Y-104140000D03*
D13*
%TO.P,R2,2*%
%TO.N,Net-(D2-A)*%
X134620000Y-104140000D03*
%TD*%
D10*
%TO.P,D7,1,K*%
%TO.N,GND*%
X154940000Y-88900000D03*
D11*
%TO.P,D7,2,A*%
%TO.N,Net-(D7-A)*%
X154940000Y-91440000D03*
%TD*%
D16*
%TO.N,Net-(J1-Pin_3)*%
X132080000Y-88900000D03*
%TO.N,Net-(J1-Pin_4)*%
X129540000Y-88900000D03*
%TO.N,Net-(J1-Pin_5)*%
X127000000Y-88900000D03*
%TO.N,Net-(J1-Pin_6)*%
X124460000Y-88900000D03*
%TO.N,Net-(J1-Pin_7)*%
X121920000Y-88900000D03*
%TO.N,Net-(J1-Pin_8)*%
X119380000Y-88900000D03*
%TO.N,Net-(J1-Pin_9)*%
X116840000Y-88900000D03*
%TO.N,Net-(J1-Pin_10)*%
X114300000Y-88900000D03*
%TD*%
D17*
%TO.N,GND*%
X154940000Y-106680000D02*
X152400000Y-104140000D01*
X139700000Y-83820000D02*
X142240000Y-83820000D01*
X130080000Y-76200000D02*
X132620000Y-78740000D01*
X152400000Y-91440000D02*
X154940000Y-88900000D01*
X142240000Y-106680000D02*
X154940000Y-106680000D01*
X134620000Y-78740000D02*
X139700000Y-83820000D01*
X142240000Y-83820000D02*
X154940000Y-83820000D01*
X132620000Y-78740000D02*
X134620000Y-78740000D01*
X152400000Y-104140000D02*
X152400000Y-91440000D01*
%TO.N,+3.3V*%
X139700000Y-100330000D02*
X140970000Y-99060000D01*
X132080000Y-119380000D02*
X139700000Y-111760000D01*
X139700000Y-111760000D02*
X139700000Y-100330000D01*
%TO.N,Net-(J1-Pin_3)*%
X128080000Y-119380000D02*
X132080000Y-115380000D01*
X128080000Y-76200000D02*
X132080000Y-80200000D01*
X132080000Y-115380000D02*
X132080000Y-88900000D01*
X132080000Y-80200000D02*
X132080000Y-88900000D01*
%TO.N,Net-(J1-Pin_4)*%
X129540000Y-79660000D02*
X129540000Y-88900000D01*
X126080000Y-119380000D02*
X129540000Y-115920000D01*
X129540000Y-115920000D02*
X129540000Y-88900000D01*
X126080000Y-76200000D02*
X129540000Y-79660000D01*
%TO.N,Net-(J1-Pin_5)*%
X124080000Y-76200000D02*
X124910000Y-77030000D01*
X124080000Y-119380000D02*
X124080000Y-91820000D01*
X124910000Y-77030000D02*
X124910000Y-86810000D01*
X124080000Y-91820000D02*
X127000000Y-88900000D01*
X124910000Y-86810000D02*
X127000000Y-88900000D01*
%TO.N,Net-(J1-Pin_6)*%
X122080000Y-119380000D02*
X122080000Y-91280000D01*
X122080000Y-91280000D02*
X124460000Y-88900000D01*
X122080000Y-76200000D02*
X124460000Y-78580000D01*
X124460000Y-78580000D02*
X124460000Y-88900000D01*
%TO.N,Net-(J1-Pin_7)*%
X120080000Y-76200000D02*
X121920000Y-78040000D01*
X121920000Y-78040000D02*
X121920000Y-88900000D01*
X119380000Y-91440000D02*
X121920000Y-88900000D01*
X119380000Y-118680000D02*
X119380000Y-91440000D01*
X120080000Y-119380000D02*
X119380000Y-118680000D01*
%TO.N,Net-(J1-Pin_8)*%
X118080000Y-90200000D02*
X119380000Y-88900000D01*
X118080000Y-76200000D02*
X119380000Y-77500000D01*
X119380000Y-77500000D02*
X119380000Y-88900000D01*
X118080000Y-119380000D02*
X118080000Y-90200000D01*
%TO.N,Net-(J1-Pin_9)*%
X116080000Y-76200000D02*
X116840000Y-76960000D01*
X116840000Y-76960000D02*
X116840000Y-88900000D01*
X116080000Y-119380000D02*
X116840000Y-118620000D01*
X116840000Y-118620000D02*
X116840000Y-88900000D01*
%TO.N,Net-(J1-Pin_10)*%
X114080000Y-76200000D02*
X114080000Y-78520000D01*
X114080000Y-89120000D02*
X114300000Y-88900000D01*
X114080000Y-78520000D02*
X114300000Y-78740000D01*
X114300000Y-78740000D02*
X114300000Y-88900000D01*
X114080000Y-119380000D02*
X114080000Y-89120000D01*
%TD*%
M02*
