%TF.GenerationSoftware,KiCad,Pcbnew,7.0.8*%
%TF.CreationDate,2023-10-15T17:50:00-07:00*%
%TF.ProjectId,htpm_control_additional_info,6874706d-5f63-46f6-9e74-726f6c5f6164,1*%
%TF.SameCoordinates,Original*%
%TF.FileFunction,Legend,Top*%
%TF.FilePolarity,Positive*%
%FSLAX46Y46*%
G04 Gerber Fmt 4.6, Leading zero omitted, Abs format (unit mm)*
G04 Created by KiCad (PCBNEW 7.0.8) date 2023-10-15 17:50:00*
%MOMM*%
%LPD*%
G01*
G04 APERTURE LIST*
%ADD10C,0.300000*%
%ADD11C,0.120000*%
G04 APERTURE END LIST*
D10*
X138913082Y-72131757D02*
X139627368Y-72131757D01*
X138770225Y-72560328D02*
X139270225Y-71060328D01*
X139270225Y-71060328D02*
X139770225Y-72560328D01*
X141127367Y-72417471D02*
X141055939Y-72488900D01*
X141055939Y-72488900D02*
X140841653Y-72560328D01*
X140841653Y-72560328D02*
X140698796Y-72560328D01*
X140698796Y-72560328D02*
X140484510Y-72488900D01*
X140484510Y-72488900D02*
X140341653Y-72346042D01*
X140341653Y-72346042D02*
X140270224Y-72203185D01*
X140270224Y-72203185D02*
X140198796Y-71917471D01*
X140198796Y-71917471D02*
X140198796Y-71703185D01*
X140198796Y-71703185D02*
X140270224Y-71417471D01*
X140270224Y-71417471D02*
X140341653Y-71274614D01*
X140341653Y-71274614D02*
X140484510Y-71131757D01*
X140484510Y-71131757D02*
X140698796Y-71060328D01*
X140698796Y-71060328D02*
X140841653Y-71060328D01*
X140841653Y-71060328D02*
X141055939Y-71131757D01*
X141055939Y-71131757D02*
X141127367Y-71203185D01*
X142627367Y-72417471D02*
X142555939Y-72488900D01*
X142555939Y-72488900D02*
X142341653Y-72560328D01*
X142341653Y-72560328D02*
X142198796Y-72560328D01*
X142198796Y-72560328D02*
X141984510Y-72488900D01*
X141984510Y-72488900D02*
X141841653Y-72346042D01*
X141841653Y-72346042D02*
X141770224Y-72203185D01*
X141770224Y-72203185D02*
X141698796Y-71917471D01*
X141698796Y-71917471D02*
X141698796Y-71703185D01*
X141698796Y-71703185D02*
X141770224Y-71417471D01*
X141770224Y-71417471D02*
X141841653Y-71274614D01*
X141841653Y-71274614D02*
X141984510Y-71131757D01*
X141984510Y-71131757D02*
X142198796Y-71060328D01*
X142198796Y-71060328D02*
X142341653Y-71060328D01*
X142341653Y-71060328D02*
X142555939Y-71131757D01*
X142555939Y-71131757D02*
X142627367Y-71203185D01*
X143270224Y-71774614D02*
X143770224Y-71774614D01*
X143984510Y-72560328D02*
X143270224Y-72560328D01*
X143270224Y-72560328D02*
X143270224Y-71060328D01*
X143270224Y-71060328D02*
X143984510Y-71060328D01*
X145341653Y-72560328D02*
X144627367Y-72560328D01*
X144627367Y-72560328D02*
X144627367Y-71060328D01*
X145841653Y-71774614D02*
X146341653Y-71774614D01*
X146555939Y-72560328D02*
X145841653Y-72560328D01*
X145841653Y-72560328D02*
X145841653Y-71060328D01*
X145841653Y-71060328D02*
X146555939Y-71060328D01*
X148055939Y-72560328D02*
X147555939Y-71846042D01*
X147198796Y-72560328D02*
X147198796Y-71060328D01*
X147198796Y-71060328D02*
X147770225Y-71060328D01*
X147770225Y-71060328D02*
X147913082Y-71131757D01*
X147913082Y-71131757D02*
X147984511Y-71203185D01*
X147984511Y-71203185D02*
X148055939Y-71346042D01*
X148055939Y-71346042D02*
X148055939Y-71560328D01*
X148055939Y-71560328D02*
X147984511Y-71703185D01*
X147984511Y-71703185D02*
X147913082Y-71774614D01*
X147913082Y-71774614D02*
X147770225Y-71846042D01*
X147770225Y-71846042D02*
X147198796Y-71846042D01*
X148627368Y-72131757D02*
X149341654Y-72131757D01*
X148484511Y-72560328D02*
X148984511Y-71060328D01*
X148984511Y-71060328D02*
X149484511Y-72560328D01*
X149770225Y-71060328D02*
X150627368Y-71060328D01*
X150198796Y-72560328D02*
X150198796Y-71060328D01*
X151127367Y-71774614D02*
X151627367Y-71774614D01*
X151841653Y-72560328D02*
X151127367Y-72560328D01*
X151127367Y-72560328D02*
X151127367Y-71060328D01*
X151127367Y-71060328D02*
X151841653Y-71060328D01*
X138984510Y-80180328D02*
X138984510Y-78680328D01*
X138984510Y-78680328D02*
X139341653Y-78680328D01*
X139341653Y-78680328D02*
X139555939Y-78751757D01*
X139555939Y-78751757D02*
X139698796Y-78894614D01*
X139698796Y-78894614D02*
X139770225Y-79037471D01*
X139770225Y-79037471D02*
X139841653Y-79323185D01*
X139841653Y-79323185D02*
X139841653Y-79537471D01*
X139841653Y-79537471D02*
X139770225Y-79823185D01*
X139770225Y-79823185D02*
X139698796Y-79966042D01*
X139698796Y-79966042D02*
X139555939Y-80108900D01*
X139555939Y-80108900D02*
X139341653Y-80180328D01*
X139341653Y-80180328D02*
X138984510Y-80180328D01*
X140484510Y-79394614D02*
X140984510Y-79394614D01*
X141198796Y-80180328D02*
X140484510Y-80180328D01*
X140484510Y-80180328D02*
X140484510Y-78680328D01*
X140484510Y-78680328D02*
X141198796Y-78680328D01*
X142698796Y-80037471D02*
X142627368Y-80108900D01*
X142627368Y-80108900D02*
X142413082Y-80180328D01*
X142413082Y-80180328D02*
X142270225Y-80180328D01*
X142270225Y-80180328D02*
X142055939Y-80108900D01*
X142055939Y-80108900D02*
X141913082Y-79966042D01*
X141913082Y-79966042D02*
X141841653Y-79823185D01*
X141841653Y-79823185D02*
X141770225Y-79537471D01*
X141770225Y-79537471D02*
X141770225Y-79323185D01*
X141770225Y-79323185D02*
X141841653Y-79037471D01*
X141841653Y-79037471D02*
X141913082Y-78894614D01*
X141913082Y-78894614D02*
X142055939Y-78751757D01*
X142055939Y-78751757D02*
X142270225Y-78680328D01*
X142270225Y-78680328D02*
X142413082Y-78680328D01*
X142413082Y-78680328D02*
X142627368Y-78751757D01*
X142627368Y-78751757D02*
X142698796Y-78823185D01*
X143341653Y-79394614D02*
X143841653Y-79394614D01*
X144055939Y-80180328D02*
X143341653Y-80180328D01*
X143341653Y-80180328D02*
X143341653Y-78680328D01*
X143341653Y-78680328D02*
X144055939Y-78680328D01*
X145413082Y-80180328D02*
X144698796Y-80180328D01*
X144698796Y-80180328D02*
X144698796Y-78680328D01*
X145913082Y-79394614D02*
X146413082Y-79394614D01*
X146627368Y-80180328D02*
X145913082Y-80180328D01*
X145913082Y-80180328D02*
X145913082Y-78680328D01*
X145913082Y-78680328D02*
X146627368Y-78680328D01*
X148127368Y-80180328D02*
X147627368Y-79466042D01*
X147270225Y-80180328D02*
X147270225Y-78680328D01*
X147270225Y-78680328D02*
X147841654Y-78680328D01*
X147841654Y-78680328D02*
X147984511Y-78751757D01*
X147984511Y-78751757D02*
X148055940Y-78823185D01*
X148055940Y-78823185D02*
X148127368Y-78966042D01*
X148127368Y-78966042D02*
X148127368Y-79180328D01*
X148127368Y-79180328D02*
X148055940Y-79323185D01*
X148055940Y-79323185D02*
X147984511Y-79394614D01*
X147984511Y-79394614D02*
X147841654Y-79466042D01*
X147841654Y-79466042D02*
X147270225Y-79466042D01*
X148698797Y-79751757D02*
X149413083Y-79751757D01*
X148555940Y-80180328D02*
X149055940Y-78680328D01*
X149055940Y-78680328D02*
X149555940Y-80180328D01*
X149841654Y-78680328D02*
X150698797Y-78680328D01*
X150270225Y-80180328D02*
X150270225Y-78680328D01*
X151198796Y-79394614D02*
X151698796Y-79394614D01*
X151913082Y-80180328D02*
X151198796Y-80180328D01*
X151198796Y-80180328D02*
X151198796Y-78680328D01*
X151198796Y-78680328D02*
X151913082Y-78680328D01*
X138984510Y-62947114D02*
X139484510Y-62947114D01*
X139698796Y-63732828D02*
X138984510Y-63732828D01*
X138984510Y-63732828D02*
X138984510Y-62232828D01*
X138984510Y-62232828D02*
X139698796Y-62232828D01*
X140341653Y-63732828D02*
X140341653Y-62232828D01*
X140341653Y-62232828D02*
X140841653Y-63304257D01*
X140841653Y-63304257D02*
X141341653Y-62232828D01*
X141341653Y-62232828D02*
X141341653Y-63732828D01*
X142055939Y-62947114D02*
X142555939Y-62947114D01*
X142770225Y-63732828D02*
X142055939Y-63732828D01*
X142055939Y-63732828D02*
X142055939Y-62232828D01*
X142055939Y-62232828D02*
X142770225Y-62232828D01*
X144270225Y-63732828D02*
X143770225Y-63018542D01*
X143413082Y-63732828D02*
X143413082Y-62232828D01*
X143413082Y-62232828D02*
X143984511Y-62232828D01*
X143984511Y-62232828D02*
X144127368Y-62304257D01*
X144127368Y-62304257D02*
X144198797Y-62375685D01*
X144198797Y-62375685D02*
X144270225Y-62518542D01*
X144270225Y-62518542D02*
X144270225Y-62732828D01*
X144270225Y-62732828D02*
X144198797Y-62875685D01*
X144198797Y-62875685D02*
X144127368Y-62947114D01*
X144127368Y-62947114D02*
X143984511Y-63018542D01*
X143984511Y-63018542D02*
X143413082Y-63018542D01*
X145698797Y-62304257D02*
X145555940Y-62232828D01*
X145555940Y-62232828D02*
X145341654Y-62232828D01*
X145341654Y-62232828D02*
X145127368Y-62304257D01*
X145127368Y-62304257D02*
X144984511Y-62447114D01*
X144984511Y-62447114D02*
X144913082Y-62589971D01*
X144913082Y-62589971D02*
X144841654Y-62875685D01*
X144841654Y-62875685D02*
X144841654Y-63089971D01*
X144841654Y-63089971D02*
X144913082Y-63375685D01*
X144913082Y-63375685D02*
X144984511Y-63518542D01*
X144984511Y-63518542D02*
X145127368Y-63661400D01*
X145127368Y-63661400D02*
X145341654Y-63732828D01*
X145341654Y-63732828D02*
X145484511Y-63732828D01*
X145484511Y-63732828D02*
X145698797Y-63661400D01*
X145698797Y-63661400D02*
X145770225Y-63589971D01*
X145770225Y-63589971D02*
X145770225Y-63089971D01*
X145770225Y-63089971D02*
X145484511Y-63089971D01*
X146413082Y-62947114D02*
X146913082Y-62947114D01*
X147127368Y-63732828D02*
X146413082Y-63732828D01*
X146413082Y-63732828D02*
X146413082Y-62232828D01*
X146413082Y-62232828D02*
X147127368Y-62232828D01*
X147770225Y-63732828D02*
X147770225Y-62232828D01*
X147770225Y-62232828D02*
X148627368Y-63732828D01*
X148627368Y-63732828D02*
X148627368Y-62232828D01*
X150198797Y-63589971D02*
X150127369Y-63661400D01*
X150127369Y-63661400D02*
X149913083Y-63732828D01*
X149913083Y-63732828D02*
X149770226Y-63732828D01*
X149770226Y-63732828D02*
X149555940Y-63661400D01*
X149555940Y-63661400D02*
X149413083Y-63518542D01*
X149413083Y-63518542D02*
X149341654Y-63375685D01*
X149341654Y-63375685D02*
X149270226Y-63089971D01*
X149270226Y-63089971D02*
X149270226Y-62875685D01*
X149270226Y-62875685D02*
X149341654Y-62589971D01*
X149341654Y-62589971D02*
X149413083Y-62447114D01*
X149413083Y-62447114D02*
X149555940Y-62304257D01*
X149555940Y-62304257D02*
X149770226Y-62232828D01*
X149770226Y-62232828D02*
X149913083Y-62232828D01*
X149913083Y-62232828D02*
X150127369Y-62304257D01*
X150127369Y-62304257D02*
X150198797Y-62375685D01*
X151127369Y-63018542D02*
X151127369Y-63732828D01*
X150627369Y-62232828D02*
X151127369Y-63018542D01*
X151127369Y-63018542D02*
X151627369Y-62232828D01*
X138913082Y-66076400D02*
X139127368Y-66147828D01*
X139127368Y-66147828D02*
X139484510Y-66147828D01*
X139484510Y-66147828D02*
X139627368Y-66076400D01*
X139627368Y-66076400D02*
X139698796Y-66004971D01*
X139698796Y-66004971D02*
X139770225Y-65862114D01*
X139770225Y-65862114D02*
X139770225Y-65719257D01*
X139770225Y-65719257D02*
X139698796Y-65576400D01*
X139698796Y-65576400D02*
X139627368Y-65504971D01*
X139627368Y-65504971D02*
X139484510Y-65433542D01*
X139484510Y-65433542D02*
X139198796Y-65362114D01*
X139198796Y-65362114D02*
X139055939Y-65290685D01*
X139055939Y-65290685D02*
X138984510Y-65219257D01*
X138984510Y-65219257D02*
X138913082Y-65076400D01*
X138913082Y-65076400D02*
X138913082Y-64933542D01*
X138913082Y-64933542D02*
X138984510Y-64790685D01*
X138984510Y-64790685D02*
X139055939Y-64719257D01*
X139055939Y-64719257D02*
X139198796Y-64647828D01*
X139198796Y-64647828D02*
X139555939Y-64647828D01*
X139555939Y-64647828D02*
X139770225Y-64719257D01*
X140198796Y-64647828D02*
X141055939Y-64647828D01*
X140627367Y-66147828D02*
X140627367Y-64647828D01*
X141841653Y-64647828D02*
X142127367Y-64647828D01*
X142127367Y-64647828D02*
X142270224Y-64719257D01*
X142270224Y-64719257D02*
X142413081Y-64862114D01*
X142413081Y-64862114D02*
X142484510Y-65147828D01*
X142484510Y-65147828D02*
X142484510Y-65647828D01*
X142484510Y-65647828D02*
X142413081Y-65933542D01*
X142413081Y-65933542D02*
X142270224Y-66076400D01*
X142270224Y-66076400D02*
X142127367Y-66147828D01*
X142127367Y-66147828D02*
X141841653Y-66147828D01*
X141841653Y-66147828D02*
X141698796Y-66076400D01*
X141698796Y-66076400D02*
X141555938Y-65933542D01*
X141555938Y-65933542D02*
X141484510Y-65647828D01*
X141484510Y-65647828D02*
X141484510Y-65147828D01*
X141484510Y-65147828D02*
X141555938Y-64862114D01*
X141555938Y-64862114D02*
X141698796Y-64719257D01*
X141698796Y-64719257D02*
X141841653Y-64647828D01*
X143127367Y-66147828D02*
X143127367Y-64647828D01*
X143127367Y-64647828D02*
X143698796Y-64647828D01*
X143698796Y-64647828D02*
X143841653Y-64719257D01*
X143841653Y-64719257D02*
X143913082Y-64790685D01*
X143913082Y-64790685D02*
X143984510Y-64933542D01*
X143984510Y-64933542D02*
X143984510Y-65147828D01*
X143984510Y-65147828D02*
X143913082Y-65290685D01*
X143913082Y-65290685D02*
X143841653Y-65362114D01*
X143841653Y-65362114D02*
X143698796Y-65433542D01*
X143698796Y-65433542D02*
X143127367Y-65433542D01*
X139270225Y-55820328D02*
X139555939Y-55820328D01*
X139555939Y-55820328D02*
X139698796Y-55891757D01*
X139698796Y-55891757D02*
X139841653Y-56034614D01*
X139841653Y-56034614D02*
X139913082Y-56320328D01*
X139913082Y-56320328D02*
X139913082Y-56820328D01*
X139913082Y-56820328D02*
X139841653Y-57106042D01*
X139841653Y-57106042D02*
X139698796Y-57248900D01*
X139698796Y-57248900D02*
X139555939Y-57320328D01*
X139555939Y-57320328D02*
X139270225Y-57320328D01*
X139270225Y-57320328D02*
X139127368Y-57248900D01*
X139127368Y-57248900D02*
X138984510Y-57106042D01*
X138984510Y-57106042D02*
X138913082Y-56820328D01*
X138913082Y-56820328D02*
X138913082Y-56320328D01*
X138913082Y-56320328D02*
X138984510Y-56034614D01*
X138984510Y-56034614D02*
X139127368Y-55891757D01*
X139127368Y-55891757D02*
X139270225Y-55820328D01*
X140341654Y-55820328D02*
X140841654Y-57320328D01*
X140841654Y-57320328D02*
X141341654Y-55820328D01*
X141841653Y-56534614D02*
X142341653Y-56534614D01*
X142555939Y-57320328D02*
X141841653Y-57320328D01*
X141841653Y-57320328D02*
X141841653Y-55820328D01*
X141841653Y-55820328D02*
X142555939Y-55820328D01*
X144055939Y-57320328D02*
X143555939Y-56606042D01*
X143198796Y-57320328D02*
X143198796Y-55820328D01*
X143198796Y-55820328D02*
X143770225Y-55820328D01*
X143770225Y-55820328D02*
X143913082Y-55891757D01*
X143913082Y-55891757D02*
X143984511Y-55963185D01*
X143984511Y-55963185D02*
X144055939Y-56106042D01*
X144055939Y-56106042D02*
X144055939Y-56320328D01*
X144055939Y-56320328D02*
X143984511Y-56463185D01*
X143984511Y-56463185D02*
X143913082Y-56534614D01*
X143913082Y-56534614D02*
X143770225Y-56606042D01*
X143770225Y-56606042D02*
X143198796Y-56606042D01*
X145555939Y-57320328D02*
X145055939Y-56606042D01*
X144698796Y-57320328D02*
X144698796Y-55820328D01*
X144698796Y-55820328D02*
X145270225Y-55820328D01*
X145270225Y-55820328D02*
X145413082Y-55891757D01*
X145413082Y-55891757D02*
X145484511Y-55963185D01*
X145484511Y-55963185D02*
X145555939Y-56106042D01*
X145555939Y-56106042D02*
X145555939Y-56320328D01*
X145555939Y-56320328D02*
X145484511Y-56463185D01*
X145484511Y-56463185D02*
X145413082Y-56534614D01*
X145413082Y-56534614D02*
X145270225Y-56606042D01*
X145270225Y-56606042D02*
X144698796Y-56606042D01*
X146198796Y-57320328D02*
X146198796Y-55820328D01*
X146913082Y-57320328D02*
X146913082Y-55820328D01*
X146913082Y-55820328D02*
X147270225Y-55820328D01*
X147270225Y-55820328D02*
X147484511Y-55891757D01*
X147484511Y-55891757D02*
X147627368Y-56034614D01*
X147627368Y-56034614D02*
X147698797Y-56177471D01*
X147698797Y-56177471D02*
X147770225Y-56463185D01*
X147770225Y-56463185D02*
X147770225Y-56677471D01*
X147770225Y-56677471D02*
X147698797Y-56963185D01*
X147698797Y-56963185D02*
X147627368Y-57106042D01*
X147627368Y-57106042D02*
X147484511Y-57248900D01*
X147484511Y-57248900D02*
X147270225Y-57320328D01*
X147270225Y-57320328D02*
X146913082Y-57320328D01*
X148413082Y-56534614D02*
X148913082Y-56534614D01*
X149127368Y-57320328D02*
X148413082Y-57320328D01*
X148413082Y-57320328D02*
X148413082Y-55820328D01*
X148413082Y-55820328D02*
X149127368Y-55820328D01*
D11*
%TO.C,J3*%
X94952000Y-70568000D02*
X96012000Y-70568000D01*
X94952000Y-71628000D02*
X94952000Y-70568000D01*
X94952000Y-72628000D02*
X94952000Y-78688000D01*
X94952000Y-72628000D02*
X97072000Y-72628000D01*
X94952000Y-78688000D02*
X97072000Y-78688000D01*
X97072000Y-72628000D02*
X97072000Y-78688000D01*
%TO.C,D2*%
X135657000Y-61697000D02*
X132567000Y-61697000D01*
X134111538Y-67246999D02*
G75*
G03*
X135656830Y-61697001I462J2989999D01*
G01*
X132567170Y-61697000D02*
G75*
G03*
X134112462Y-67247000I1544830J-2560000D01*
G01*
X136612000Y-64257000D02*
G75*
G03*
X136612000Y-64257000I-2500000J0D01*
G01*
%TO.C,D13*%
X188997000Y-93198000D02*
X185907000Y-93198000D01*
X187451538Y-98747999D02*
G75*
G03*
X188996830Y-93198001I462J2989999D01*
G01*
X185907170Y-93198000D02*
G75*
G03*
X187452462Y-98748000I1544830J-2560000D01*
G01*
X189952000Y-95758000D02*
G75*
G03*
X189952000Y-95758000I-2500000J0D01*
G01*
%TO.C,R22*%
X121488000Y-106680000D02*
X120538000Y-106680000D01*
X120538000Y-107600000D02*
X120538000Y-105760000D01*
X120538000Y-105760000D02*
X116698000Y-105760000D01*
X116698000Y-107600000D02*
X120538000Y-107600000D01*
X116698000Y-105760000D02*
X116698000Y-107600000D01*
X115748000Y-106680000D02*
X116698000Y-106680000D01*
%TO.C,D17*%
X158517000Y-93198000D02*
X155427000Y-93198000D01*
X156971538Y-98747999D02*
G75*
G03*
X158516830Y-93198001I462J2989999D01*
G01*
X155427170Y-93198000D02*
G75*
G03*
X156972462Y-98748000I1544830J-2560000D01*
G01*
X159472000Y-95758000D02*
G75*
G03*
X159472000Y-95758000I-2500000J0D01*
G01*
%TO.C,D18*%
X150897000Y-93198000D02*
X147807000Y-93198000D01*
X149351538Y-98747999D02*
G75*
G03*
X150896830Y-93198001I462J2989999D01*
G01*
X147807170Y-93198000D02*
G75*
G03*
X149352462Y-98748000I1544830J-2560000D01*
G01*
X151852000Y-95758000D02*
G75*
G03*
X151852000Y-95758000I-2500000J0D01*
G01*
%TO.C,R8*%
X159004000Y-109296000D02*
X159004000Y-108346000D01*
X158084000Y-108346000D02*
X159924000Y-108346000D01*
X159924000Y-108346000D02*
X159924000Y-104506000D01*
X158084000Y-104506000D02*
X158084000Y-108346000D01*
X159924000Y-104506000D02*
X158084000Y-104506000D01*
X159004000Y-103556000D02*
X159004000Y-104506000D01*
%TO.C,C4*%
X189189000Y-52324199D02*
X189189000Y-52724199D01*
X189389000Y-52524199D02*
X188989000Y-52524199D01*
X190074000Y-54594000D02*
X185914000Y-54594000D01*
X190074000Y-54634000D02*
X185914000Y-54634000D01*
X190073000Y-54674000D02*
X185915000Y-54674000D01*
X190071000Y-54714000D02*
X185917000Y-54714000D01*
X190068000Y-54754000D02*
X185920000Y-54754000D01*
X190065000Y-54794000D02*
X188834000Y-54794000D01*
X187154000Y-54794000D02*
X185923000Y-54794000D01*
X190061000Y-54834000D02*
X188834000Y-54834000D01*
X187154000Y-54834000D02*
X185927000Y-54834000D01*
X190056000Y-54874000D02*
X188834000Y-54874000D01*
X187154000Y-54874000D02*
X185932000Y-54874000D01*
X190050000Y-54914000D02*
X188834000Y-54914000D01*
X187154000Y-54914000D02*
X185938000Y-54914000D01*
X190044000Y-54954000D02*
X188834000Y-54954000D01*
X187154000Y-54954000D02*
X185944000Y-54954000D01*
X190036000Y-54994000D02*
X188834000Y-54994000D01*
X187154000Y-54994000D02*
X185952000Y-54994000D01*
X190028000Y-55034000D02*
X188834000Y-55034000D01*
X187154000Y-55034000D02*
X185960000Y-55034000D01*
X190019000Y-55074000D02*
X188834000Y-55074000D01*
X187154000Y-55074000D02*
X185969000Y-55074000D01*
X190010000Y-55114000D02*
X188834000Y-55114000D01*
X187154000Y-55114000D02*
X185978000Y-55114000D01*
X189999000Y-55154000D02*
X188834000Y-55154000D01*
X187154000Y-55154000D02*
X185989000Y-55154000D01*
X189988000Y-55194000D02*
X188834000Y-55194000D01*
X187154000Y-55194000D02*
X186000000Y-55194000D01*
X189976000Y-55234000D02*
X188834000Y-55234000D01*
X187154000Y-55234000D02*
X186012000Y-55234000D01*
X189962000Y-55274000D02*
X188834000Y-55274000D01*
X187154000Y-55274000D02*
X186026000Y-55274000D01*
X189948000Y-55315000D02*
X188834000Y-55315000D01*
X187154000Y-55315000D02*
X186040000Y-55315000D01*
X189934000Y-55355000D02*
X188834000Y-55355000D01*
X187154000Y-55355000D02*
X186054000Y-55355000D01*
X189918000Y-55395000D02*
X188834000Y-55395000D01*
X187154000Y-55395000D02*
X186070000Y-55395000D01*
X189901000Y-55435000D02*
X188834000Y-55435000D01*
X187154000Y-55435000D02*
X186087000Y-55435000D01*
X189883000Y-55475000D02*
X188834000Y-55475000D01*
X187154000Y-55475000D02*
X186105000Y-55475000D01*
X189864000Y-55515000D02*
X188834000Y-55515000D01*
X187154000Y-55515000D02*
X186124000Y-55515000D01*
X189845000Y-55555000D02*
X188834000Y-55555000D01*
X187154000Y-55555000D02*
X186143000Y-55555000D01*
X189824000Y-55595000D02*
X188834000Y-55595000D01*
X187154000Y-55595000D02*
X186164000Y-55595000D01*
X189802000Y-55635000D02*
X188834000Y-55635000D01*
X187154000Y-55635000D02*
X186186000Y-55635000D01*
X189779000Y-55675000D02*
X188834000Y-55675000D01*
X187154000Y-55675000D02*
X186209000Y-55675000D01*
X189754000Y-55715000D02*
X188834000Y-55715000D01*
X187154000Y-55715000D02*
X186234000Y-55715000D01*
X189729000Y-55755000D02*
X188834000Y-55755000D01*
X187154000Y-55755000D02*
X186259000Y-55755000D01*
X189702000Y-55795000D02*
X188834000Y-55795000D01*
X187154000Y-55795000D02*
X186286000Y-55795000D01*
X189674000Y-55835000D02*
X188834000Y-55835000D01*
X187154000Y-55835000D02*
X186314000Y-55835000D01*
X189644000Y-55875000D02*
X188834000Y-55875000D01*
X187154000Y-55875000D02*
X186344000Y-55875000D01*
X189613000Y-55915000D02*
X188834000Y-55915000D01*
X187154000Y-55915000D02*
X186375000Y-55915000D01*
X189581000Y-55955000D02*
X188834000Y-55955000D01*
X187154000Y-55955000D02*
X186407000Y-55955000D01*
X189546000Y-55995000D02*
X188834000Y-55995000D01*
X187154000Y-55995000D02*
X186442000Y-55995000D01*
X189510000Y-56035000D02*
X188834000Y-56035000D01*
X187154000Y-56035000D02*
X186478000Y-56035000D01*
X189472000Y-56075000D02*
X188834000Y-56075000D01*
X187154000Y-56075000D02*
X186516000Y-56075000D01*
X189432000Y-56115000D02*
X188834000Y-56115000D01*
X187154000Y-56115000D02*
X186556000Y-56115000D01*
X189390000Y-56155000D02*
X188834000Y-56155000D01*
X187154000Y-56155000D02*
X186598000Y-56155000D01*
X189345000Y-56195000D02*
X188834000Y-56195000D01*
X187154000Y-56195000D02*
X186643000Y-56195000D01*
X189298000Y-56235000D02*
X188834000Y-56235000D01*
X187154000Y-56235000D02*
X186690000Y-56235000D01*
X189248000Y-56275000D02*
X188834000Y-56275000D01*
X187154000Y-56275000D02*
X186740000Y-56275000D01*
X189194000Y-56315000D02*
X188834000Y-56315000D01*
X187154000Y-56315000D02*
X186794000Y-56315000D01*
X189136000Y-56355000D02*
X188834000Y-56355000D01*
X187154000Y-56355000D02*
X186852000Y-56355000D01*
X189074000Y-56395000D02*
X188834000Y-56395000D01*
X187154000Y-56395000D02*
X186914000Y-56395000D01*
X189007000Y-56435000D02*
X186981000Y-56435000D01*
X188934000Y-56475000D02*
X187054000Y-56475000D01*
X188853000Y-56515000D02*
X187135000Y-56515000D01*
X188762000Y-56555000D02*
X187226000Y-56555000D01*
X188658000Y-56595000D02*
X187330000Y-56595000D01*
X188531000Y-56635000D02*
X187457000Y-56635000D01*
X188364000Y-56675000D02*
X187624000Y-56675000D01*
X190114000Y-54594000D02*
G75*
G03*
X190114000Y-54594000I-2120000J0D01*
G01*
%TO.C,R13*%
X189230000Y-109296000D02*
X189230000Y-108346000D01*
X188310000Y-108346000D02*
X190150000Y-108346000D01*
X190150000Y-108346000D02*
X190150000Y-104506000D01*
X188310000Y-104506000D02*
X188310000Y-108346000D01*
X190150000Y-104506000D02*
X188310000Y-104506000D01*
X189230000Y-103556000D02*
X189230000Y-104506000D01*
%TO.C,U3*%
X168024000Y-112980000D02*
X147464000Y-112980000D01*
X147464000Y-112980000D02*
X147464000Y-123260000D01*
X167964000Y-115470000D02*
X147524000Y-115470000D01*
X147524000Y-115470000D02*
X147524000Y-120770000D01*
X167964000Y-117120000D02*
X167964000Y-115470000D01*
X167964000Y-120770000D02*
X167964000Y-119120000D01*
X147524000Y-120770000D02*
X167964000Y-120770000D01*
X168024000Y-123260000D02*
X168024000Y-112980000D01*
X147464000Y-123260000D02*
X168024000Y-123260000D01*
X167964000Y-117120000D02*
G75*
G03*
X167964000Y-119120000I0J-1000000D01*
G01*
%TO.C,D19*%
X143277000Y-93198000D02*
X140187000Y-93198000D01*
X141731538Y-98747999D02*
G75*
G03*
X143276830Y-93198001I462J2989999D01*
G01*
X140187170Y-93198000D02*
G75*
G03*
X141732462Y-98748000I1544830J-2560000D01*
G01*
X144232000Y-95758000D02*
G75*
G03*
X144232000Y-95758000I-2500000J0D01*
G01*
%TO.C,D20*%
X135657000Y-93198000D02*
X132567000Y-93198000D01*
X134111538Y-98747999D02*
G75*
G03*
X135656830Y-93198001I462J2989999D01*
G01*
X132567170Y-93198000D02*
G75*
G03*
X134112462Y-98748000I1544830J-2560000D01*
G01*
X136612000Y-95758000D02*
G75*
G03*
X136612000Y-95758000I-2500000J0D01*
G01*
%TO.C,D3*%
X135657000Y-69317000D02*
X132567000Y-69317000D01*
X134111538Y-74866999D02*
G75*
G03*
X135656830Y-69317001I462J2989999D01*
G01*
X132567170Y-69317000D02*
G75*
G03*
X134112462Y-74867000I1544830J-2560000D01*
G01*
X136612000Y-71877000D02*
G75*
G03*
X136612000Y-71877000I-2500000J0D01*
G01*
%TO.C,U2*%
X190630000Y-112980000D02*
X170070000Y-112980000D01*
X170070000Y-112980000D02*
X170070000Y-123260000D01*
X190570000Y-115470000D02*
X170130000Y-115470000D01*
X170130000Y-115470000D02*
X170130000Y-120770000D01*
X190570000Y-117120000D02*
X190570000Y-115470000D01*
X190570000Y-120770000D02*
X190570000Y-119120000D01*
X170130000Y-120770000D02*
X190570000Y-120770000D01*
X190630000Y-123260000D02*
X190630000Y-112980000D01*
X170070000Y-123260000D02*
X190630000Y-123260000D01*
X190570000Y-117120000D02*
G75*
G03*
X190570000Y-119120000I0J-1000000D01*
G01*
%TO.C,D12*%
X132567000Y-90698000D02*
X135657000Y-90698000D01*
X134112462Y-85148001D02*
G75*
G03*
X132567170Y-90697999I-462J-2989999D01*
G01*
X135656830Y-90698000D02*
G75*
G03*
X134111538Y-85148000I-1544830J2560000D01*
G01*
X136612000Y-88138000D02*
G75*
G03*
X136612000Y-88138000I-2500000J0D01*
G01*
%TO.C,R1*%
X162636000Y-57912000D02*
X161686000Y-57912000D01*
X161686000Y-58832000D02*
X161686000Y-56992000D01*
X161686000Y-56992000D02*
X157846000Y-56992000D01*
X157846000Y-58832000D02*
X161686000Y-58832000D01*
X157846000Y-56992000D02*
X157846000Y-58832000D01*
X156896000Y-57912000D02*
X157846000Y-57912000D01*
%TO.C,J1*%
X118862000Y-129330000D02*
X118862000Y-128270000D01*
X119922000Y-129330000D02*
X118862000Y-129330000D01*
X120922000Y-129330000D02*
X138982000Y-129330000D01*
X120922000Y-129330000D02*
X120922000Y-127210000D01*
X138982000Y-129330000D02*
X138982000Y-127210000D01*
X120922000Y-127210000D02*
X138982000Y-127210000D01*
%TO.C,R12*%
X148844000Y-109296000D02*
X148844000Y-108346000D01*
X147924000Y-108346000D02*
X149764000Y-108346000D01*
X149764000Y-108346000D02*
X149764000Y-104506000D01*
X147924000Y-104506000D02*
X147924000Y-108346000D01*
X149764000Y-104506000D02*
X147924000Y-104506000D01*
X148844000Y-103556000D02*
X148844000Y-104506000D01*
%TO.C,C1*%
X190509801Y-128205000D02*
X190109801Y-128205000D01*
X190309801Y-128405000D02*
X190309801Y-128005000D01*
X188240000Y-129090000D02*
X188240000Y-124930000D01*
X188200000Y-129090000D02*
X188200000Y-124930000D01*
X188160000Y-129089000D02*
X188160000Y-124931000D01*
X188120000Y-129087000D02*
X188120000Y-124933000D01*
X188080000Y-129084000D02*
X188080000Y-124936000D01*
X188040000Y-129081000D02*
X188040000Y-127850000D01*
X188040000Y-126170000D02*
X188040000Y-124939000D01*
X188000000Y-129077000D02*
X188000000Y-127850000D01*
X188000000Y-126170000D02*
X188000000Y-124943000D01*
X187960000Y-129072000D02*
X187960000Y-127850000D01*
X187960000Y-126170000D02*
X187960000Y-124948000D01*
X187920000Y-129066000D02*
X187920000Y-127850000D01*
X187920000Y-126170000D02*
X187920000Y-124954000D01*
X187880000Y-129060000D02*
X187880000Y-127850000D01*
X187880000Y-126170000D02*
X187880000Y-124960000D01*
X187840000Y-129052000D02*
X187840000Y-127850000D01*
X187840000Y-126170000D02*
X187840000Y-124968000D01*
X187800000Y-129044000D02*
X187800000Y-127850000D01*
X187800000Y-126170000D02*
X187800000Y-124976000D01*
X187760000Y-129035000D02*
X187760000Y-127850000D01*
X187760000Y-126170000D02*
X187760000Y-124985000D01*
X187720000Y-129026000D02*
X187720000Y-127850000D01*
X187720000Y-126170000D02*
X187720000Y-124994000D01*
X187680000Y-129015000D02*
X187680000Y-127850000D01*
X187680000Y-126170000D02*
X187680000Y-125005000D01*
X187640000Y-129004000D02*
X187640000Y-127850000D01*
X187640000Y-126170000D02*
X187640000Y-125016000D01*
X187600000Y-128992000D02*
X187600000Y-127850000D01*
X187600000Y-126170000D02*
X187600000Y-125028000D01*
X187560000Y-128978000D02*
X187560000Y-127850000D01*
X187560000Y-126170000D02*
X187560000Y-125042000D01*
X187519000Y-128964000D02*
X187519000Y-127850000D01*
X187519000Y-126170000D02*
X187519000Y-125056000D01*
X187479000Y-128950000D02*
X187479000Y-127850000D01*
X187479000Y-126170000D02*
X187479000Y-125070000D01*
X187439000Y-128934000D02*
X187439000Y-127850000D01*
X187439000Y-126170000D02*
X187439000Y-125086000D01*
X187399000Y-128917000D02*
X187399000Y-127850000D01*
X187399000Y-126170000D02*
X187399000Y-125103000D01*
X187359000Y-128899000D02*
X187359000Y-127850000D01*
X187359000Y-126170000D02*
X187359000Y-125121000D01*
X187319000Y-128880000D02*
X187319000Y-127850000D01*
X187319000Y-126170000D02*
X187319000Y-125140000D01*
X187279000Y-128861000D02*
X187279000Y-127850000D01*
X187279000Y-126170000D02*
X187279000Y-125159000D01*
X187239000Y-128840000D02*
X187239000Y-127850000D01*
X187239000Y-126170000D02*
X187239000Y-125180000D01*
X187199000Y-128818000D02*
X187199000Y-127850000D01*
X187199000Y-126170000D02*
X187199000Y-125202000D01*
X187159000Y-128795000D02*
X187159000Y-127850000D01*
X187159000Y-126170000D02*
X187159000Y-125225000D01*
X187119000Y-128770000D02*
X187119000Y-127850000D01*
X187119000Y-126170000D02*
X187119000Y-125250000D01*
X187079000Y-128745000D02*
X187079000Y-127850000D01*
X187079000Y-126170000D02*
X187079000Y-125275000D01*
X187039000Y-128718000D02*
X187039000Y-127850000D01*
X187039000Y-126170000D02*
X187039000Y-125302000D01*
X186999000Y-128690000D02*
X186999000Y-127850000D01*
X186999000Y-126170000D02*
X186999000Y-125330000D01*
X186959000Y-128660000D02*
X186959000Y-127850000D01*
X186959000Y-126170000D02*
X186959000Y-125360000D01*
X186919000Y-128629000D02*
X186919000Y-127850000D01*
X186919000Y-126170000D02*
X186919000Y-125391000D01*
X186879000Y-128597000D02*
X186879000Y-127850000D01*
X186879000Y-126170000D02*
X186879000Y-125423000D01*
X186839000Y-128562000D02*
X186839000Y-127850000D01*
X186839000Y-126170000D02*
X186839000Y-125458000D01*
X186799000Y-128526000D02*
X186799000Y-127850000D01*
X186799000Y-126170000D02*
X186799000Y-125494000D01*
X186759000Y-128488000D02*
X186759000Y-127850000D01*
X186759000Y-126170000D02*
X186759000Y-125532000D01*
X186719000Y-128448000D02*
X186719000Y-127850000D01*
X186719000Y-126170000D02*
X186719000Y-125572000D01*
X186679000Y-128406000D02*
X186679000Y-127850000D01*
X186679000Y-126170000D02*
X186679000Y-125614000D01*
X186639000Y-128361000D02*
X186639000Y-127850000D01*
X186639000Y-126170000D02*
X186639000Y-125659000D01*
X186599000Y-128314000D02*
X186599000Y-127850000D01*
X186599000Y-126170000D02*
X186599000Y-125706000D01*
X186559000Y-128264000D02*
X186559000Y-127850000D01*
X186559000Y-126170000D02*
X186559000Y-125756000D01*
X186519000Y-128210000D02*
X186519000Y-127850000D01*
X186519000Y-126170000D02*
X186519000Y-125810000D01*
X186479000Y-128152000D02*
X186479000Y-127850000D01*
X186479000Y-126170000D02*
X186479000Y-125868000D01*
X186439000Y-128090000D02*
X186439000Y-127850000D01*
X186439000Y-126170000D02*
X186439000Y-125930000D01*
X186399000Y-128023000D02*
X186399000Y-125997000D01*
X186359000Y-127950000D02*
X186359000Y-126070000D01*
X186319000Y-127869000D02*
X186319000Y-126151000D01*
X186279000Y-127778000D02*
X186279000Y-126242000D01*
X186239000Y-127674000D02*
X186239000Y-126346000D01*
X186199000Y-127547000D02*
X186199000Y-126473000D01*
X186159000Y-127380000D02*
X186159000Y-126640000D01*
X190360000Y-127010000D02*
G75*
G03*
X190360000Y-127010000I-2120000J0D01*
G01*
%TO.C,R21*%
X120320000Y-67056000D02*
X121270000Y-67056000D01*
X121270000Y-66136000D02*
X121270000Y-67976000D01*
X121270000Y-67976000D02*
X125110000Y-67976000D01*
X125110000Y-66136000D02*
X121270000Y-66136000D01*
X125110000Y-67976000D02*
X125110000Y-66136000D01*
X126060000Y-67056000D02*
X125110000Y-67056000D01*
%TO.C,U1*%
X94806000Y-122722000D02*
X110696000Y-122722000D01*
X94806000Y-122722000D02*
X94806000Y-112482000D01*
X110696000Y-122722000D02*
X110696000Y-112482000D01*
X110696000Y-120142000D02*
X113236000Y-120142000D01*
X110696000Y-117602000D02*
X113236000Y-117602000D01*
X110696000Y-115062000D02*
X113236000Y-115062000D01*
X94806000Y-112482000D02*
X110696000Y-112482000D01*
%TO.C,R10*%
X153924000Y-109296000D02*
X153924000Y-108346000D01*
X153004000Y-108346000D02*
X154844000Y-108346000D01*
X154844000Y-108346000D02*
X154844000Y-104506000D01*
X153004000Y-104506000D02*
X153004000Y-108346000D01*
X154844000Y-104506000D02*
X153004000Y-104506000D01*
X153924000Y-103556000D02*
X153924000Y-104506000D01*
%TO.C,C2*%
X167903801Y-128205000D02*
X167503801Y-128205000D01*
X167703801Y-128405000D02*
X167703801Y-128005000D01*
X165634000Y-129090000D02*
X165634000Y-124930000D01*
X165594000Y-129090000D02*
X165594000Y-124930000D01*
X165554000Y-129089000D02*
X165554000Y-124931000D01*
X165514000Y-129087000D02*
X165514000Y-124933000D01*
X165474000Y-129084000D02*
X165474000Y-124936000D01*
X165434000Y-129081000D02*
X165434000Y-127850000D01*
X165434000Y-126170000D02*
X165434000Y-124939000D01*
X165394000Y-129077000D02*
X165394000Y-127850000D01*
X165394000Y-126170000D02*
X165394000Y-124943000D01*
X165354000Y-129072000D02*
X165354000Y-127850000D01*
X165354000Y-126170000D02*
X165354000Y-124948000D01*
X165314000Y-129066000D02*
X165314000Y-127850000D01*
X165314000Y-126170000D02*
X165314000Y-124954000D01*
X165274000Y-129060000D02*
X165274000Y-127850000D01*
X165274000Y-126170000D02*
X165274000Y-124960000D01*
X165234000Y-129052000D02*
X165234000Y-127850000D01*
X165234000Y-126170000D02*
X165234000Y-124968000D01*
X165194000Y-129044000D02*
X165194000Y-127850000D01*
X165194000Y-126170000D02*
X165194000Y-124976000D01*
X165154000Y-129035000D02*
X165154000Y-127850000D01*
X165154000Y-126170000D02*
X165154000Y-124985000D01*
X165114000Y-129026000D02*
X165114000Y-127850000D01*
X165114000Y-126170000D02*
X165114000Y-124994000D01*
X165074000Y-129015000D02*
X165074000Y-127850000D01*
X165074000Y-126170000D02*
X165074000Y-125005000D01*
X165034000Y-129004000D02*
X165034000Y-127850000D01*
X165034000Y-126170000D02*
X165034000Y-125016000D01*
X164994000Y-128992000D02*
X164994000Y-127850000D01*
X164994000Y-126170000D02*
X164994000Y-125028000D01*
X164954000Y-128978000D02*
X164954000Y-127850000D01*
X164954000Y-126170000D02*
X164954000Y-125042000D01*
X164913000Y-128964000D02*
X164913000Y-127850000D01*
X164913000Y-126170000D02*
X164913000Y-125056000D01*
X164873000Y-128950000D02*
X164873000Y-127850000D01*
X164873000Y-126170000D02*
X164873000Y-125070000D01*
X164833000Y-128934000D02*
X164833000Y-127850000D01*
X164833000Y-126170000D02*
X164833000Y-125086000D01*
X164793000Y-128917000D02*
X164793000Y-127850000D01*
X164793000Y-126170000D02*
X164793000Y-125103000D01*
X164753000Y-128899000D02*
X164753000Y-127850000D01*
X164753000Y-126170000D02*
X164753000Y-125121000D01*
X164713000Y-128880000D02*
X164713000Y-127850000D01*
X164713000Y-126170000D02*
X164713000Y-125140000D01*
X164673000Y-128861000D02*
X164673000Y-127850000D01*
X164673000Y-126170000D02*
X164673000Y-125159000D01*
X164633000Y-128840000D02*
X164633000Y-127850000D01*
X164633000Y-126170000D02*
X164633000Y-125180000D01*
X164593000Y-128818000D02*
X164593000Y-127850000D01*
X164593000Y-126170000D02*
X164593000Y-125202000D01*
X164553000Y-128795000D02*
X164553000Y-127850000D01*
X164553000Y-126170000D02*
X164553000Y-125225000D01*
X164513000Y-128770000D02*
X164513000Y-127850000D01*
X164513000Y-126170000D02*
X164513000Y-125250000D01*
X164473000Y-128745000D02*
X164473000Y-127850000D01*
X164473000Y-126170000D02*
X164473000Y-125275000D01*
X164433000Y-128718000D02*
X164433000Y-127850000D01*
X164433000Y-126170000D02*
X164433000Y-125302000D01*
X164393000Y-128690000D02*
X164393000Y-127850000D01*
X164393000Y-126170000D02*
X164393000Y-125330000D01*
X164353000Y-128660000D02*
X164353000Y-127850000D01*
X164353000Y-126170000D02*
X164353000Y-125360000D01*
X164313000Y-128629000D02*
X164313000Y-127850000D01*
X164313000Y-126170000D02*
X164313000Y-125391000D01*
X164273000Y-128597000D02*
X164273000Y-127850000D01*
X164273000Y-126170000D02*
X164273000Y-125423000D01*
X164233000Y-128562000D02*
X164233000Y-127850000D01*
X164233000Y-126170000D02*
X164233000Y-125458000D01*
X164193000Y-128526000D02*
X164193000Y-127850000D01*
X164193000Y-126170000D02*
X164193000Y-125494000D01*
X164153000Y-128488000D02*
X164153000Y-127850000D01*
X164153000Y-126170000D02*
X164153000Y-125532000D01*
X164113000Y-128448000D02*
X164113000Y-127850000D01*
X164113000Y-126170000D02*
X164113000Y-125572000D01*
X164073000Y-128406000D02*
X164073000Y-127850000D01*
X164073000Y-126170000D02*
X164073000Y-125614000D01*
X164033000Y-128361000D02*
X164033000Y-127850000D01*
X164033000Y-126170000D02*
X164033000Y-125659000D01*
X163993000Y-128314000D02*
X163993000Y-127850000D01*
X163993000Y-126170000D02*
X163993000Y-125706000D01*
X163953000Y-128264000D02*
X163953000Y-127850000D01*
X163953000Y-126170000D02*
X163953000Y-125756000D01*
X163913000Y-128210000D02*
X163913000Y-127850000D01*
X163913000Y-126170000D02*
X163913000Y-125810000D01*
X163873000Y-128152000D02*
X163873000Y-127850000D01*
X163873000Y-126170000D02*
X163873000Y-125868000D01*
X163833000Y-128090000D02*
X163833000Y-127850000D01*
X163833000Y-126170000D02*
X163833000Y-125930000D01*
X163793000Y-128023000D02*
X163793000Y-125997000D01*
X163753000Y-127950000D02*
X163753000Y-126070000D01*
X163713000Y-127869000D02*
X163713000Y-126151000D01*
X163673000Y-127778000D02*
X163673000Y-126242000D01*
X163633000Y-127674000D02*
X163633000Y-126346000D01*
X163593000Y-127547000D02*
X163593000Y-126473000D01*
X163553000Y-127380000D02*
X163553000Y-126640000D01*
X167754000Y-127010000D02*
G75*
G03*
X167754000Y-127010000I-2120000J0D01*
G01*
%TO.C,J2*%
X94952000Y-60408000D02*
X96012000Y-60408000D01*
X94952000Y-61468000D02*
X94952000Y-60408000D01*
X94952000Y-62468000D02*
X94952000Y-68528000D01*
X94952000Y-62468000D02*
X97072000Y-62468000D01*
X94952000Y-68528000D02*
X97072000Y-68528000D01*
X97072000Y-62468000D02*
X97072000Y-68528000D01*
%TO.C,R11*%
X151384000Y-109296000D02*
X151384000Y-108346000D01*
X150464000Y-108346000D02*
X152304000Y-108346000D01*
X152304000Y-108346000D02*
X152304000Y-104506000D01*
X150464000Y-104506000D02*
X150464000Y-108346000D01*
X152304000Y-104506000D02*
X150464000Y-104506000D01*
X151384000Y-103556000D02*
X151384000Y-104506000D01*
%TO.C,R17*%
X179070000Y-109296000D02*
X179070000Y-108346000D01*
X178150000Y-108346000D02*
X179990000Y-108346000D01*
X179990000Y-108346000D02*
X179990000Y-104506000D01*
X178150000Y-104506000D02*
X178150000Y-108346000D01*
X179990000Y-104506000D02*
X178150000Y-104506000D01*
X179070000Y-103556000D02*
X179070000Y-104506000D01*
%TO.C,D10*%
X147807000Y-90698000D02*
X150897000Y-90698000D01*
X149352462Y-85148001D02*
G75*
G03*
X147807170Y-90697999I-462J-2989999D01*
G01*
X150896830Y-90698000D02*
G75*
G03*
X149351538Y-85148000I-1544830J2560000D01*
G01*
X151852000Y-88138000D02*
G75*
G03*
X151852000Y-88138000I-2500000J0D01*
G01*
%TO.C,C6*%
X114089600Y-89991000D02*
X114489600Y-89991000D01*
X114289600Y-89791000D02*
X114289600Y-90191000D01*
X116359401Y-89106000D02*
X116359401Y-93266000D01*
X116399401Y-89106000D02*
X116399401Y-93266000D01*
X116439401Y-89107000D02*
X116439401Y-93265000D01*
X116479401Y-89109000D02*
X116479401Y-93263000D01*
X116519401Y-89112000D02*
X116519401Y-93260000D01*
X116559401Y-89115000D02*
X116559401Y-90346000D01*
X116559401Y-92026000D02*
X116559401Y-93257000D01*
X116599401Y-89119000D02*
X116599401Y-90346000D01*
X116599401Y-92026000D02*
X116599401Y-93253000D01*
X116639401Y-89124000D02*
X116639401Y-90346000D01*
X116639401Y-92026000D02*
X116639401Y-93248000D01*
X116679401Y-89130000D02*
X116679401Y-90346000D01*
X116679401Y-92026000D02*
X116679401Y-93242000D01*
X116719401Y-89136000D02*
X116719401Y-90346000D01*
X116719401Y-92026000D02*
X116719401Y-93236000D01*
X116759401Y-89144000D02*
X116759401Y-90346000D01*
X116759401Y-92026000D02*
X116759401Y-93228000D01*
X116799401Y-89152000D02*
X116799401Y-90346000D01*
X116799401Y-92026000D02*
X116799401Y-93220000D01*
X116839401Y-89161000D02*
X116839401Y-90346000D01*
X116839401Y-92026000D02*
X116839401Y-93211000D01*
X116879401Y-89170000D02*
X116879401Y-90346000D01*
X116879401Y-92026000D02*
X116879401Y-93202000D01*
X116919401Y-89181000D02*
X116919401Y-90346000D01*
X116919401Y-92026000D02*
X116919401Y-93191000D01*
X116959401Y-89192000D02*
X116959401Y-90346000D01*
X116959401Y-92026000D02*
X116959401Y-93180000D01*
X116999401Y-89204000D02*
X116999401Y-90346000D01*
X116999401Y-92026000D02*
X116999401Y-93168000D01*
X117039401Y-89218000D02*
X117039401Y-90346000D01*
X117039401Y-92026000D02*
X117039401Y-93154000D01*
X117080401Y-89232000D02*
X117080401Y-90346000D01*
X117080401Y-92026000D02*
X117080401Y-93140000D01*
X117120401Y-89246000D02*
X117120401Y-90346000D01*
X117120401Y-92026000D02*
X117120401Y-93126000D01*
X117160401Y-89262000D02*
X117160401Y-90346000D01*
X117160401Y-92026000D02*
X117160401Y-93110000D01*
X117200401Y-89279000D02*
X117200401Y-90346000D01*
X117200401Y-92026000D02*
X117200401Y-93093000D01*
X117240401Y-89297000D02*
X117240401Y-90346000D01*
X117240401Y-92026000D02*
X117240401Y-93075000D01*
X117280401Y-89316000D02*
X117280401Y-90346000D01*
X117280401Y-92026000D02*
X117280401Y-93056000D01*
X117320401Y-89335000D02*
X117320401Y-90346000D01*
X117320401Y-92026000D02*
X117320401Y-93037000D01*
X117360401Y-89356000D02*
X117360401Y-90346000D01*
X117360401Y-92026000D02*
X117360401Y-93016000D01*
X117400401Y-89378000D02*
X117400401Y-90346000D01*
X117400401Y-92026000D02*
X117400401Y-92994000D01*
X117440401Y-89401000D02*
X117440401Y-90346000D01*
X117440401Y-92026000D02*
X117440401Y-92971000D01*
X117480401Y-89426000D02*
X117480401Y-90346000D01*
X117480401Y-92026000D02*
X117480401Y-92946000D01*
X117520401Y-89451000D02*
X117520401Y-90346000D01*
X117520401Y-92026000D02*
X117520401Y-92921000D01*
X117560401Y-89478000D02*
X117560401Y-90346000D01*
X117560401Y-92026000D02*
X117560401Y-92894000D01*
X117600401Y-89506000D02*
X117600401Y-90346000D01*
X117600401Y-92026000D02*
X117600401Y-92866000D01*
X117640401Y-89536000D02*
X117640401Y-90346000D01*
X117640401Y-92026000D02*
X117640401Y-92836000D01*
X117680401Y-89567000D02*
X117680401Y-90346000D01*
X117680401Y-92026000D02*
X117680401Y-92805000D01*
X117720401Y-89599000D02*
X117720401Y-90346000D01*
X117720401Y-92026000D02*
X117720401Y-92773000D01*
X117760401Y-89634000D02*
X117760401Y-90346000D01*
X117760401Y-92026000D02*
X117760401Y-92738000D01*
X117800401Y-89670000D02*
X117800401Y-90346000D01*
X117800401Y-92026000D02*
X117800401Y-92702000D01*
X117840401Y-89708000D02*
X117840401Y-90346000D01*
X117840401Y-92026000D02*
X117840401Y-92664000D01*
X117880401Y-89748000D02*
X117880401Y-90346000D01*
X117880401Y-92026000D02*
X117880401Y-92624000D01*
X117920401Y-89790000D02*
X117920401Y-90346000D01*
X117920401Y-92026000D02*
X117920401Y-92582000D01*
X117960401Y-89835000D02*
X117960401Y-90346000D01*
X117960401Y-92026000D02*
X117960401Y-92537000D01*
X118000401Y-89882000D02*
X118000401Y-90346000D01*
X118000401Y-92026000D02*
X118000401Y-92490000D01*
X118040401Y-89932000D02*
X118040401Y-90346000D01*
X118040401Y-92026000D02*
X118040401Y-92440000D01*
X118080401Y-89986000D02*
X118080401Y-90346000D01*
X118080401Y-92026000D02*
X118080401Y-92386000D01*
X118120401Y-90044000D02*
X118120401Y-90346000D01*
X118120401Y-92026000D02*
X118120401Y-92328000D01*
X118160401Y-90106000D02*
X118160401Y-90346000D01*
X118160401Y-92026000D02*
X118160401Y-92266000D01*
X118200401Y-90173000D02*
X118200401Y-92199000D01*
X118240401Y-90246000D02*
X118240401Y-92126000D01*
X118280401Y-90327000D02*
X118280401Y-92045000D01*
X118320401Y-90418000D02*
X118320401Y-91954000D01*
X118360401Y-90522000D02*
X118360401Y-91850000D01*
X118400401Y-90649000D02*
X118400401Y-91723000D01*
X118440401Y-90816000D02*
X118440401Y-91556000D01*
X118479401Y-91186000D02*
G75*
G03*
X118479401Y-91186000I-2120000J0D01*
G01*
%TO.C,D8*%
X163047000Y-90698000D02*
X166137000Y-90698000D01*
X164592462Y-85148001D02*
G75*
G03*
X163047170Y-90697999I-462J-2989999D01*
G01*
X166136830Y-90698000D02*
G75*
G03*
X164591538Y-85148000I-1544830J2560000D01*
G01*
X167092000Y-88138000D02*
G75*
G03*
X167092000Y-88138000I-2500000J0D01*
G01*
%TO.C,R5*%
X166624000Y-109296000D02*
X166624000Y-108346000D01*
X165704000Y-108346000D02*
X167544000Y-108346000D01*
X167544000Y-108346000D02*
X167544000Y-104506000D01*
X165704000Y-104506000D02*
X165704000Y-108346000D01*
X167544000Y-104506000D02*
X165704000Y-104506000D01*
X166624000Y-103556000D02*
X166624000Y-104506000D01*
%TO.C,D7*%
X170667000Y-90698000D02*
X173757000Y-90698000D01*
X172212462Y-85148001D02*
G75*
G03*
X170667170Y-90697999I-462J-2989999D01*
G01*
X173756830Y-90698000D02*
G75*
G03*
X172211538Y-85148000I-1544830J2560000D01*
G01*
X174712000Y-88138000D02*
G75*
G03*
X174712000Y-88138000I-2500000J0D01*
G01*
%TO.C,D16*%
X166137000Y-93198000D02*
X163047000Y-93198000D01*
X164591538Y-98747999D02*
G75*
G03*
X166136830Y-93198001I462J2989999D01*
G01*
X163047170Y-93198000D02*
G75*
G03*
X164592462Y-98748000I1544830J-2560000D01*
G01*
X167092000Y-95758000D02*
G75*
G03*
X167092000Y-95758000I-2500000J0D01*
G01*
%TO.C,R7*%
X161544000Y-109296000D02*
X161544000Y-108346000D01*
X160624000Y-108346000D02*
X162464000Y-108346000D01*
X162464000Y-108346000D02*
X162464000Y-104506000D01*
X160624000Y-104506000D02*
X160624000Y-108346000D01*
X162464000Y-104506000D02*
X160624000Y-104506000D01*
X161544000Y-103556000D02*
X161544000Y-104506000D01*
%TO.C,U5*%
X173964000Y-52204000D02*
X173964000Y-72764000D01*
X173964000Y-72764000D02*
X184244000Y-72764000D01*
X176454000Y-52264000D02*
X176454000Y-72704000D01*
X176454000Y-72704000D02*
X181754000Y-72704000D01*
X178104000Y-52264000D02*
X176454000Y-52264000D01*
X181754000Y-52264000D02*
X180104000Y-52264000D01*
X181754000Y-72704000D02*
X181754000Y-52264000D01*
X184244000Y-52204000D02*
X173964000Y-52204000D01*
X184244000Y-72764000D02*
X184244000Y-52204000D01*
X178104000Y-52264000D02*
G75*
G03*
X180104000Y-52264000I1000000J0D01*
G01*
%TO.C,D14*%
X181377000Y-93198000D02*
X178287000Y-93198000D01*
X179831538Y-98747999D02*
G75*
G03*
X181376830Y-93198001I462J2989999D01*
G01*
X178287170Y-93198000D02*
G75*
G03*
X179832462Y-98748000I1544830J-2560000D01*
G01*
X182332000Y-95758000D02*
G75*
G03*
X182332000Y-95758000I-2500000J0D01*
G01*
%TO.C,U7*%
X129152000Y-94428000D02*
X98432000Y-94428000D01*
X98432000Y-94428000D02*
X98432000Y-104708000D01*
X129092000Y-96918000D02*
X98492000Y-96918000D01*
X98492000Y-96918000D02*
X98492000Y-102218000D01*
X129092000Y-98568000D02*
X129092000Y-96918000D01*
X129092000Y-102218000D02*
X129092000Y-100568000D01*
X98492000Y-102218000D02*
X129092000Y-102218000D01*
X129152000Y-104708000D02*
X129152000Y-94428000D01*
X98432000Y-104708000D02*
X129152000Y-104708000D01*
X129092000Y-98568000D02*
G75*
G03*
X129092000Y-100568000I0J-1000000D01*
G01*
%TO.C,R18*%
X176530000Y-109296000D02*
X176530000Y-108346000D01*
X175610000Y-108346000D02*
X177450000Y-108346000D01*
X177450000Y-108346000D02*
X177450000Y-104506000D01*
X175610000Y-104506000D02*
X175610000Y-108346000D01*
X177450000Y-104506000D02*
X175610000Y-104506000D01*
X176530000Y-103556000D02*
X176530000Y-104506000D01*
%TO.C,D6*%
X178287000Y-90698000D02*
X181377000Y-90698000D01*
X179832462Y-85148001D02*
G75*
G03*
X178287170Y-90697999I-462J-2989999D01*
G01*
X181376830Y-90698000D02*
G75*
G03*
X179831538Y-85148000I-1544830J2560000D01*
G01*
X182332000Y-88138000D02*
G75*
G03*
X182332000Y-88138000I-2500000J0D01*
G01*
%TO.C,R2*%
X162636000Y-60452000D02*
X161686000Y-60452000D01*
X161686000Y-61372000D02*
X161686000Y-59532000D01*
X161686000Y-59532000D02*
X157846000Y-59532000D01*
X157846000Y-61372000D02*
X161686000Y-61372000D01*
X157846000Y-59532000D02*
X157846000Y-61372000D01*
X156896000Y-60452000D02*
X157846000Y-60452000D01*
%TO.C,J5*%
X94952000Y-108518000D02*
X94952000Y-107458000D01*
X96012000Y-108518000D02*
X94952000Y-108518000D01*
X97012000Y-108518000D02*
X111072000Y-108518000D01*
X97012000Y-108518000D02*
X97012000Y-106398000D01*
X111072000Y-108518000D02*
X111072000Y-106398000D01*
X97012000Y-106398000D02*
X111072000Y-106398000D01*
%TO.C,U4*%
X123324000Y-123250000D02*
X143884000Y-123250000D01*
X143884000Y-123250000D02*
X143884000Y-112970000D01*
X123384000Y-120760000D02*
X143824000Y-120760000D01*
X143824000Y-120760000D02*
X143824000Y-115460000D01*
X123384000Y-119110000D02*
X123384000Y-120760000D01*
X123384000Y-115460000D02*
X123384000Y-117110000D01*
X143824000Y-115460000D02*
X123384000Y-115460000D01*
X123324000Y-112970000D02*
X123324000Y-123250000D01*
X143884000Y-112970000D02*
X123324000Y-112970000D01*
X123384000Y-119110000D02*
G75*
G03*
X123384000Y-117110000I0J1000000D01*
G01*
%TO.C,C5*%
X117347801Y-65711000D02*
X116947801Y-65711000D01*
X117147801Y-65911000D02*
X117147801Y-65511000D01*
X115078000Y-66596000D02*
X115078000Y-62436000D01*
X115038000Y-66596000D02*
X115038000Y-62436000D01*
X114998000Y-66595000D02*
X114998000Y-62437000D01*
X114958000Y-66593000D02*
X114958000Y-62439000D01*
X114918000Y-66590000D02*
X114918000Y-62442000D01*
X114878000Y-66587000D02*
X114878000Y-65356000D01*
X114878000Y-63676000D02*
X114878000Y-62445000D01*
X114838000Y-66583000D02*
X114838000Y-65356000D01*
X114838000Y-63676000D02*
X114838000Y-62449000D01*
X114798000Y-66578000D02*
X114798000Y-65356000D01*
X114798000Y-63676000D02*
X114798000Y-62454000D01*
X114758000Y-66572000D02*
X114758000Y-65356000D01*
X114758000Y-63676000D02*
X114758000Y-62460000D01*
X114718000Y-66566000D02*
X114718000Y-65356000D01*
X114718000Y-63676000D02*
X114718000Y-62466000D01*
X114678000Y-66558000D02*
X114678000Y-65356000D01*
X114678000Y-63676000D02*
X114678000Y-62474000D01*
X114638000Y-66550000D02*
X114638000Y-65356000D01*
X114638000Y-63676000D02*
X114638000Y-62482000D01*
X114598000Y-66541000D02*
X114598000Y-65356000D01*
X114598000Y-63676000D02*
X114598000Y-62491000D01*
X114558000Y-66532000D02*
X114558000Y-65356000D01*
X114558000Y-63676000D02*
X114558000Y-62500000D01*
X114518000Y-66521000D02*
X114518000Y-65356000D01*
X114518000Y-63676000D02*
X114518000Y-62511000D01*
X114478000Y-66510000D02*
X114478000Y-65356000D01*
X114478000Y-63676000D02*
X114478000Y-62522000D01*
X114438000Y-66498000D02*
X114438000Y-65356000D01*
X114438000Y-63676000D02*
X114438000Y-62534000D01*
X114398000Y-66484000D02*
X114398000Y-65356000D01*
X114398000Y-63676000D02*
X114398000Y-62548000D01*
X114357000Y-66470000D02*
X114357000Y-65356000D01*
X114357000Y-63676000D02*
X114357000Y-62562000D01*
X114317000Y-66456000D02*
X114317000Y-65356000D01*
X114317000Y-63676000D02*
X114317000Y-62576000D01*
X114277000Y-66440000D02*
X114277000Y-65356000D01*
X114277000Y-63676000D02*
X114277000Y-62592000D01*
X114237000Y-66423000D02*
X114237000Y-65356000D01*
X114237000Y-63676000D02*
X114237000Y-62609000D01*
X114197000Y-66405000D02*
X114197000Y-65356000D01*
X114197000Y-63676000D02*
X114197000Y-62627000D01*
X114157000Y-66386000D02*
X114157000Y-65356000D01*
X114157000Y-63676000D02*
X114157000Y-62646000D01*
X114117000Y-66367000D02*
X114117000Y-65356000D01*
X114117000Y-63676000D02*
X114117000Y-62665000D01*
X114077000Y-66346000D02*
X114077000Y-65356000D01*
X114077000Y-63676000D02*
X114077000Y-62686000D01*
X114037000Y-66324000D02*
X114037000Y-65356000D01*
X114037000Y-63676000D02*
X114037000Y-62708000D01*
X113997000Y-66301000D02*
X113997000Y-65356000D01*
X113997000Y-63676000D02*
X113997000Y-62731000D01*
X113957000Y-66276000D02*
X113957000Y-65356000D01*
X113957000Y-63676000D02*
X113957000Y-62756000D01*
X113917000Y-66251000D02*
X113917000Y-65356000D01*
X113917000Y-63676000D02*
X113917000Y-62781000D01*
X113877000Y-66224000D02*
X113877000Y-65356000D01*
X113877000Y-63676000D02*
X113877000Y-62808000D01*
X113837000Y-66196000D02*
X113837000Y-65356000D01*
X113837000Y-63676000D02*
X113837000Y-62836000D01*
X113797000Y-66166000D02*
X113797000Y-65356000D01*
X113797000Y-63676000D02*
X113797000Y-62866000D01*
X113757000Y-66135000D02*
X113757000Y-65356000D01*
X113757000Y-63676000D02*
X113757000Y-62897000D01*
X113717000Y-66103000D02*
X113717000Y-65356000D01*
X113717000Y-63676000D02*
X113717000Y-62929000D01*
X113677000Y-66068000D02*
X113677000Y-65356000D01*
X113677000Y-63676000D02*
X113677000Y-62964000D01*
X113637000Y-66032000D02*
X113637000Y-65356000D01*
X113637000Y-63676000D02*
X113637000Y-63000000D01*
X113597000Y-65994000D02*
X113597000Y-65356000D01*
X113597000Y-63676000D02*
X113597000Y-63038000D01*
X113557000Y-65954000D02*
X113557000Y-65356000D01*
X113557000Y-63676000D02*
X113557000Y-63078000D01*
X113517000Y-65912000D02*
X113517000Y-65356000D01*
X113517000Y-63676000D02*
X113517000Y-63120000D01*
X113477000Y-65867000D02*
X113477000Y-65356000D01*
X113477000Y-63676000D02*
X113477000Y-63165000D01*
X113437000Y-65820000D02*
X113437000Y-65356000D01*
X113437000Y-63676000D02*
X113437000Y-63212000D01*
X113397000Y-65770000D02*
X113397000Y-65356000D01*
X113397000Y-63676000D02*
X113397000Y-63262000D01*
X113357000Y-65716000D02*
X113357000Y-65356000D01*
X113357000Y-63676000D02*
X113357000Y-63316000D01*
X113317000Y-65658000D02*
X113317000Y-65356000D01*
X113317000Y-63676000D02*
X113317000Y-63374000D01*
X113277000Y-65596000D02*
X113277000Y-65356000D01*
X113277000Y-63676000D02*
X113277000Y-63436000D01*
X113237000Y-65529000D02*
X113237000Y-63503000D01*
X113197000Y-65456000D02*
X113197000Y-63576000D01*
X113157000Y-65375000D02*
X113157000Y-63657000D01*
X113117000Y-65284000D02*
X113117000Y-63748000D01*
X113077000Y-65180000D02*
X113077000Y-63852000D01*
X113037000Y-65053000D02*
X113037000Y-63979000D01*
X112997000Y-64886000D02*
X112997000Y-64146000D01*
X117198000Y-64516000D02*
G75*
G03*
X117198000Y-64516000I-2120000J0D01*
G01*
%TO.C,J9*%
X95492000Y-52368000D02*
X95492000Y-51308000D01*
X96552000Y-52368000D02*
X95492000Y-52368000D01*
X97552000Y-52368000D02*
X105612000Y-52368000D01*
X97552000Y-52368000D02*
X97552000Y-50248000D01*
X105612000Y-52368000D02*
X105612000Y-50248000D01*
X97552000Y-50248000D02*
X105612000Y-50248000D01*
%TO.C,R15*%
X184150000Y-109296000D02*
X184150000Y-108346000D01*
X183230000Y-108346000D02*
X185070000Y-108346000D01*
X185070000Y-108346000D02*
X185070000Y-104506000D01*
X183230000Y-104506000D02*
X183230000Y-108346000D01*
X185070000Y-104506000D02*
X183230000Y-104506000D01*
X184150000Y-103556000D02*
X184150000Y-104506000D01*
%TO.C,R16*%
X181610000Y-109296000D02*
X181610000Y-108346000D01*
X180690000Y-108346000D02*
X182530000Y-108346000D01*
X182530000Y-108346000D02*
X182530000Y-104506000D01*
X180690000Y-104506000D02*
X180690000Y-108346000D01*
X182530000Y-104506000D02*
X180690000Y-104506000D01*
X181610000Y-103556000D02*
X181610000Y-104506000D01*
%TO.C,J7*%
X94952000Y-96238000D02*
X96012000Y-96238000D01*
X94952000Y-97298000D02*
X94952000Y-96238000D01*
X94952000Y-98298000D02*
X94952000Y-104358000D01*
X94952000Y-98298000D02*
X97072000Y-98298000D01*
X94952000Y-104358000D02*
X97072000Y-104358000D01*
X97072000Y-98298000D02*
X97072000Y-104358000D01*
%TO.C,J4*%
X94952000Y-82848000D02*
X94952000Y-81788000D01*
X96012000Y-82848000D02*
X94952000Y-82848000D01*
X97012000Y-82848000D02*
X111072000Y-82848000D01*
X97012000Y-82848000D02*
X97012000Y-80728000D01*
X111072000Y-82848000D02*
X111072000Y-80728000D01*
X97012000Y-80728000D02*
X111072000Y-80728000D01*
%TO.C,J8*%
X111044000Y-129330000D02*
X94984000Y-129330000D01*
X94984000Y-127210000D02*
X94984000Y-129330000D01*
X111044000Y-127210000D02*
X111044000Y-129330000D01*
X111044000Y-127210000D02*
X94984000Y-127210000D01*
X112044000Y-127210000D02*
X113104000Y-127210000D01*
X113104000Y-127210000D02*
X113104000Y-128270000D01*
%TO.C,D4*%
X135657000Y-76937000D02*
X132567000Y-76937000D01*
X134111538Y-82486999D02*
G75*
G03*
X135656830Y-76937001I462J2989999D01*
G01*
X132567170Y-76937000D02*
G75*
G03*
X134112462Y-82487000I1544830J-2560000D01*
G01*
X136612000Y-79497000D02*
G75*
G03*
X136612000Y-79497000I-2500000J0D01*
G01*
%TO.C,D15*%
X173757000Y-93198000D02*
X170667000Y-93198000D01*
X172211538Y-98747999D02*
G75*
G03*
X173756830Y-93198001I462J2989999D01*
G01*
X170667170Y-93198000D02*
G75*
G03*
X172212462Y-98748000I1544830J-2560000D01*
G01*
X174712000Y-95758000D02*
G75*
G03*
X174712000Y-95758000I-2500000J0D01*
G01*
%TO.C,R3*%
X162636000Y-62992000D02*
X161686000Y-62992000D01*
X161686000Y-63912000D02*
X161686000Y-62072000D01*
X161686000Y-62072000D02*
X157846000Y-62072000D01*
X157846000Y-63912000D02*
X161686000Y-63912000D01*
X157846000Y-62072000D02*
X157846000Y-63912000D01*
X156896000Y-62992000D02*
X157846000Y-62992000D01*
%TO.C,D1*%
X135657000Y-54077000D02*
X132567000Y-54077000D01*
X134111538Y-59626999D02*
G75*
G03*
X135656830Y-54077001I462J2989999D01*
G01*
X132567170Y-54077000D02*
G75*
G03*
X134112462Y-59627000I1544830J-2560000D01*
G01*
X136612000Y-56637000D02*
G75*
G03*
X136612000Y-56637000I-2500000J0D01*
G01*
%TO.C,R6*%
X164084000Y-109296000D02*
X164084000Y-108346000D01*
X163164000Y-108346000D02*
X165004000Y-108346000D01*
X165004000Y-108346000D02*
X165004000Y-104506000D01*
X163164000Y-104506000D02*
X163164000Y-108346000D01*
X165004000Y-104506000D02*
X163164000Y-104506000D01*
X164084000Y-103556000D02*
X164084000Y-104506000D01*
%TO.C,R20*%
X171450000Y-109296000D02*
X171450000Y-108346000D01*
X170530000Y-108346000D02*
X172370000Y-108346000D01*
X172370000Y-108346000D02*
X172370000Y-104506000D01*
X170530000Y-104506000D02*
X170530000Y-108346000D01*
X172370000Y-104506000D02*
X170530000Y-104506000D01*
X171450000Y-103556000D02*
X171450000Y-104506000D01*
%TO.C,R19*%
X173990000Y-109296000D02*
X173990000Y-108346000D01*
X173070000Y-108346000D02*
X174910000Y-108346000D01*
X174910000Y-108346000D02*
X174910000Y-104506000D01*
X173070000Y-104506000D02*
X173070000Y-108346000D01*
X174910000Y-104506000D02*
X173070000Y-104506000D01*
X173990000Y-103556000D02*
X173990000Y-104506000D01*
%TO.C,D5*%
X185907000Y-90698000D02*
X188997000Y-90698000D01*
X187452462Y-85148001D02*
G75*
G03*
X185907170Y-90697999I-462J-2989999D01*
G01*
X188996830Y-90698000D02*
G75*
G03*
X187451538Y-85148000I-1544830J2560000D01*
G01*
X189952000Y-88138000D02*
G75*
G03*
X189952000Y-88138000I-2500000J0D01*
G01*
%TO.C,J6*%
X94952000Y-86078000D02*
X96012000Y-86078000D01*
X94952000Y-87138000D02*
X94952000Y-86078000D01*
X94952000Y-88138000D02*
X94952000Y-94198000D01*
X94952000Y-88138000D02*
X97072000Y-88138000D01*
X94952000Y-94198000D02*
X97072000Y-94198000D01*
X97072000Y-88138000D02*
X97072000Y-94198000D01*
%TO.C,C3*%
X123454199Y-108035000D02*
X123854199Y-108035000D01*
X123654199Y-107835000D02*
X123654199Y-108235000D01*
X125724000Y-107150000D02*
X125724000Y-111310000D01*
X125764000Y-107150000D02*
X125764000Y-111310000D01*
X125804000Y-107151000D02*
X125804000Y-111309000D01*
X125844000Y-107153000D02*
X125844000Y-111307000D01*
X125884000Y-107156000D02*
X125884000Y-111304000D01*
X125924000Y-107159000D02*
X125924000Y-108390000D01*
X125924000Y-110070000D02*
X125924000Y-111301000D01*
X125964000Y-107163000D02*
X125964000Y-108390000D01*
X125964000Y-110070000D02*
X125964000Y-111297000D01*
X126004000Y-107168000D02*
X126004000Y-108390000D01*
X126004000Y-110070000D02*
X126004000Y-111292000D01*
X126044000Y-107174000D02*
X126044000Y-108390000D01*
X126044000Y-110070000D02*
X126044000Y-111286000D01*
X126084000Y-107180000D02*
X126084000Y-108390000D01*
X126084000Y-110070000D02*
X126084000Y-111280000D01*
X126124000Y-107188000D02*
X126124000Y-108390000D01*
X126124000Y-110070000D02*
X126124000Y-111272000D01*
X126164000Y-107196000D02*
X126164000Y-108390000D01*
X126164000Y-110070000D02*
X126164000Y-111264000D01*
X126204000Y-107205000D02*
X126204000Y-108390000D01*
X126204000Y-110070000D02*
X126204000Y-111255000D01*
X126244000Y-107214000D02*
X126244000Y-108390000D01*
X126244000Y-110070000D02*
X126244000Y-111246000D01*
X126284000Y-107225000D02*
X126284000Y-108390000D01*
X126284000Y-110070000D02*
X126284000Y-111235000D01*
X126324000Y-107236000D02*
X126324000Y-108390000D01*
X126324000Y-110070000D02*
X126324000Y-111224000D01*
X126364000Y-107248000D02*
X126364000Y-108390000D01*
X126364000Y-110070000D02*
X126364000Y-111212000D01*
X126404000Y-107262000D02*
X126404000Y-108390000D01*
X126404000Y-110070000D02*
X126404000Y-111198000D01*
X126445000Y-107276000D02*
X126445000Y-108390000D01*
X126445000Y-110070000D02*
X126445000Y-111184000D01*
X126485000Y-107290000D02*
X126485000Y-108390000D01*
X126485000Y-110070000D02*
X126485000Y-111170000D01*
X126525000Y-107306000D02*
X126525000Y-108390000D01*
X126525000Y-110070000D02*
X126525000Y-111154000D01*
X126565000Y-107323000D02*
X126565000Y-108390000D01*
X126565000Y-110070000D02*
X126565000Y-111137000D01*
X126605000Y-107341000D02*
X126605000Y-108390000D01*
X126605000Y-110070000D02*
X126605000Y-111119000D01*
X126645000Y-107360000D02*
X126645000Y-108390000D01*
X126645000Y-110070000D02*
X126645000Y-111100000D01*
X126685000Y-107379000D02*
X126685000Y-108390000D01*
X126685000Y-110070000D02*
X126685000Y-111081000D01*
X126725000Y-107400000D02*
X126725000Y-108390000D01*
X126725000Y-110070000D02*
X126725000Y-111060000D01*
X126765000Y-107422000D02*
X126765000Y-108390000D01*
X126765000Y-110070000D02*
X126765000Y-111038000D01*
X126805000Y-107445000D02*
X126805000Y-108390000D01*
X126805000Y-110070000D02*
X126805000Y-111015000D01*
X126845000Y-107470000D02*
X126845000Y-108390000D01*
X126845000Y-110070000D02*
X126845000Y-110990000D01*
X126885000Y-107495000D02*
X126885000Y-108390000D01*
X126885000Y-110070000D02*
X126885000Y-110965000D01*
X126925000Y-107522000D02*
X126925000Y-108390000D01*
X126925000Y-110070000D02*
X126925000Y-110938000D01*
X126965000Y-107550000D02*
X126965000Y-108390000D01*
X126965000Y-110070000D02*
X126965000Y-110910000D01*
X127005000Y-107580000D02*
X127005000Y-108390000D01*
X127005000Y-110070000D02*
X127005000Y-110880000D01*
X127045000Y-107611000D02*
X127045000Y-108390000D01*
X127045000Y-110070000D02*
X127045000Y-110849000D01*
X127085000Y-107643000D02*
X127085000Y-108390000D01*
X127085000Y-110070000D02*
X127085000Y-110817000D01*
X127125000Y-107678000D02*
X127125000Y-108390000D01*
X127125000Y-110070000D02*
X127125000Y-110782000D01*
X127165000Y-107714000D02*
X127165000Y-108390000D01*
X127165000Y-110070000D02*
X127165000Y-110746000D01*
X127205000Y-107752000D02*
X127205000Y-108390000D01*
X127205000Y-110070000D02*
X127205000Y-110708000D01*
X127245000Y-107792000D02*
X127245000Y-108390000D01*
X127245000Y-110070000D02*
X127245000Y-110668000D01*
X127285000Y-107834000D02*
X127285000Y-108390000D01*
X127285000Y-110070000D02*
X127285000Y-110626000D01*
X127325000Y-107879000D02*
X127325000Y-108390000D01*
X127325000Y-110070000D02*
X127325000Y-110581000D01*
X127365000Y-107926000D02*
X127365000Y-108390000D01*
X127365000Y-110070000D02*
X127365000Y-110534000D01*
X127405000Y-107976000D02*
X127405000Y-108390000D01*
X127405000Y-110070000D02*
X127405000Y-110484000D01*
X127445000Y-108030000D02*
X127445000Y-108390000D01*
X127445000Y-110070000D02*
X127445000Y-110430000D01*
X127485000Y-108088000D02*
X127485000Y-108390000D01*
X127485000Y-110070000D02*
X127485000Y-110372000D01*
X127525000Y-108150000D02*
X127525000Y-108390000D01*
X127525000Y-110070000D02*
X127525000Y-110310000D01*
X127565000Y-108217000D02*
X127565000Y-110243000D01*
X127605000Y-108290000D02*
X127605000Y-110170000D01*
X127645000Y-108371000D02*
X127645000Y-110089000D01*
X127685000Y-108462000D02*
X127685000Y-109998000D01*
X127725000Y-108566000D02*
X127725000Y-109894000D01*
X127765000Y-108693000D02*
X127765000Y-109767000D01*
X127805000Y-108860000D02*
X127805000Y-109600000D01*
X127844000Y-109230000D02*
G75*
G03*
X127844000Y-109230000I-2120000J0D01*
G01*
%TO.C,R4*%
X162636000Y-65532000D02*
X161686000Y-65532000D01*
X161686000Y-66452000D02*
X161686000Y-64612000D01*
X161686000Y-64612000D02*
X157846000Y-64612000D01*
X157846000Y-66452000D02*
X161686000Y-66452000D01*
X157846000Y-64612000D02*
X157846000Y-66452000D01*
X156896000Y-65532000D02*
X157846000Y-65532000D01*
%TO.C,D9*%
X155427000Y-90698000D02*
X158517000Y-90698000D01*
X156972462Y-85148001D02*
G75*
G03*
X155427170Y-90697999I-462J-2989999D01*
G01*
X158516830Y-90698000D02*
G75*
G03*
X156971538Y-85148000I-1544830J2560000D01*
G01*
X159472000Y-88138000D02*
G75*
G03*
X159472000Y-88138000I-2500000J0D01*
G01*
%TO.C,R9*%
X156464000Y-109296000D02*
X156464000Y-108346000D01*
X155544000Y-108346000D02*
X157384000Y-108346000D01*
X157384000Y-108346000D02*
X157384000Y-104506000D01*
X155544000Y-104506000D02*
X155544000Y-108346000D01*
X157384000Y-104506000D02*
X155544000Y-104506000D01*
X156464000Y-103556000D02*
X156464000Y-104506000D01*
%TO.C,D11*%
X140187000Y-90698000D02*
X143277000Y-90698000D01*
X141732462Y-85148001D02*
G75*
G03*
X140187170Y-90697999I-462J-2989999D01*
G01*
X143276830Y-90698000D02*
G75*
G03*
X141731538Y-85148000I-1544830J2560000D01*
G01*
X144232000Y-88138000D02*
G75*
G03*
X144232000Y-88138000I-2500000J0D01*
G01*
%TO.C,U6*%
X129152000Y-68774000D02*
X98432000Y-68774000D01*
X98432000Y-68774000D02*
X98432000Y-79054000D01*
X129092000Y-71264000D02*
X98492000Y-71264000D01*
X98492000Y-71264000D02*
X98492000Y-76564000D01*
X129092000Y-72914000D02*
X129092000Y-71264000D01*
X129092000Y-76564000D02*
X129092000Y-74914000D01*
X98492000Y-76564000D02*
X129092000Y-76564000D01*
X129152000Y-79054000D02*
X129152000Y-68774000D01*
X98432000Y-79054000D02*
X129152000Y-79054000D01*
X129092000Y-72914000D02*
G75*
G03*
X129092000Y-74914000I0J-1000000D01*
G01*
%TO.C,R14*%
X186690000Y-109296000D02*
X186690000Y-108346000D01*
X185770000Y-108346000D02*
X187610000Y-108346000D01*
X187610000Y-108346000D02*
X187610000Y-104506000D01*
X185770000Y-104506000D02*
X185770000Y-108346000D01*
X187610000Y-104506000D02*
X185770000Y-104506000D01*
X186690000Y-103556000D02*
X186690000Y-104506000D01*
%TD*%
M02*
