%TF.GenerationSoftware,KiCad,Pcbnew,7.0.8*%
%TF.CreationDate,2023-10-15T17:50:00-07:00*%
%TF.ProjectId,htpm_control_additional_info,6874706d-5f63-46f6-9e74-726f6c5f6164,1*%
%TF.SameCoordinates,Original*%
%TF.FileFunction,Legend,Bot*%
%TF.FilePolarity,Positive*%
%FSLAX46Y46*%
G04 Gerber Fmt 4.6, Leading zero omitted, Abs format (unit mm)*
G04 Created by KiCad (PCBNEW 7.0.8) date 2023-10-15 17:50:00*
%MOMM*%
%LPD*%
G01*
G04 APERTURE LIST*
%ADD10C,0.150000*%
%ADD11C,0.300000*%
G04 APERTURE END LIST*
D10*
X157619506Y-128409819D02*
X157619506Y-129124104D01*
X157619506Y-129124104D02*
X157667125Y-129266961D01*
X157667125Y-129266961D02*
X157762363Y-129362200D01*
X157762363Y-129362200D02*
X157905220Y-129409819D01*
X157905220Y-129409819D02*
X158000458Y-129409819D01*
X156667125Y-129409819D02*
X157143315Y-129409819D01*
X157143315Y-129409819D02*
X157143315Y-128409819D01*
X155762363Y-129314580D02*
X155809982Y-129362200D01*
X155809982Y-129362200D02*
X155952839Y-129409819D01*
X155952839Y-129409819D02*
X156048077Y-129409819D01*
X156048077Y-129409819D02*
X156190934Y-129362200D01*
X156190934Y-129362200D02*
X156286172Y-129266961D01*
X156286172Y-129266961D02*
X156333791Y-129171723D01*
X156333791Y-129171723D02*
X156381410Y-128981247D01*
X156381410Y-128981247D02*
X156381410Y-128838390D01*
X156381410Y-128838390D02*
X156333791Y-128647914D01*
X156333791Y-128647914D02*
X156286172Y-128552676D01*
X156286172Y-128552676D02*
X156190934Y-128457438D01*
X156190934Y-128457438D02*
X156048077Y-128409819D01*
X156048077Y-128409819D02*
X155952839Y-128409819D01*
X155952839Y-128409819D02*
X155809982Y-128457438D01*
X155809982Y-128457438D02*
X155762363Y-128505057D01*
X155048077Y-128409819D02*
X155048077Y-129124104D01*
X155048077Y-129124104D02*
X155095696Y-129266961D01*
X155095696Y-129266961D02*
X155190934Y-129362200D01*
X155190934Y-129362200D02*
X155333791Y-129409819D01*
X155333791Y-129409819D02*
X155429029Y-129409819D01*
X154095696Y-129409819D02*
X154571886Y-129409819D01*
X154571886Y-129409819D02*
X154571886Y-128409819D01*
X153190934Y-129314580D02*
X153238553Y-129362200D01*
X153238553Y-129362200D02*
X153381410Y-129409819D01*
X153381410Y-129409819D02*
X153476648Y-129409819D01*
X153476648Y-129409819D02*
X153619505Y-129362200D01*
X153619505Y-129362200D02*
X153714743Y-129266961D01*
X153714743Y-129266961D02*
X153762362Y-129171723D01*
X153762362Y-129171723D02*
X153809981Y-128981247D01*
X153809981Y-128981247D02*
X153809981Y-128838390D01*
X153809981Y-128838390D02*
X153762362Y-128647914D01*
X153762362Y-128647914D02*
X153714743Y-128552676D01*
X153714743Y-128552676D02*
X153619505Y-128457438D01*
X153619505Y-128457438D02*
X153476648Y-128409819D01*
X153476648Y-128409819D02*
X153381410Y-128409819D01*
X153381410Y-128409819D02*
X153238553Y-128457438D01*
X153238553Y-128457438D02*
X153190934Y-128505057D01*
X152476648Y-128409819D02*
X152476648Y-129124104D01*
X152476648Y-129124104D02*
X152524267Y-129266961D01*
X152524267Y-129266961D02*
X152619505Y-129362200D01*
X152619505Y-129362200D02*
X152762362Y-129409819D01*
X152762362Y-129409819D02*
X152857600Y-129409819D01*
X151524267Y-129409819D02*
X152000457Y-129409819D01*
X152000457Y-129409819D02*
X152000457Y-128409819D01*
X150619505Y-129314580D02*
X150667124Y-129362200D01*
X150667124Y-129362200D02*
X150809981Y-129409819D01*
X150809981Y-129409819D02*
X150905219Y-129409819D01*
X150905219Y-129409819D02*
X151048076Y-129362200D01*
X151048076Y-129362200D02*
X151143314Y-129266961D01*
X151143314Y-129266961D02*
X151190933Y-129171723D01*
X151190933Y-129171723D02*
X151238552Y-128981247D01*
X151238552Y-128981247D02*
X151238552Y-128838390D01*
X151238552Y-128838390D02*
X151190933Y-128647914D01*
X151190933Y-128647914D02*
X151143314Y-128552676D01*
X151143314Y-128552676D02*
X151048076Y-128457438D01*
X151048076Y-128457438D02*
X150905219Y-128409819D01*
X150905219Y-128409819D02*
X150809981Y-128409819D01*
X150809981Y-128409819D02*
X150667124Y-128457438D01*
X150667124Y-128457438D02*
X150619505Y-128505057D01*
X149905219Y-128409819D02*
X149905219Y-129124104D01*
X149905219Y-129124104D02*
X149952838Y-129266961D01*
X149952838Y-129266961D02*
X150048076Y-129362200D01*
X150048076Y-129362200D02*
X150190933Y-129409819D01*
X150190933Y-129409819D02*
X150286171Y-129409819D01*
X148952838Y-129409819D02*
X149429028Y-129409819D01*
X149429028Y-129409819D02*
X149429028Y-128409819D01*
X148048076Y-129314580D02*
X148095695Y-129362200D01*
X148095695Y-129362200D02*
X148238552Y-129409819D01*
X148238552Y-129409819D02*
X148333790Y-129409819D01*
X148333790Y-129409819D02*
X148476647Y-129362200D01*
X148476647Y-129362200D02*
X148571885Y-129266961D01*
X148571885Y-129266961D02*
X148619504Y-129171723D01*
X148619504Y-129171723D02*
X148667123Y-128981247D01*
X148667123Y-128981247D02*
X148667123Y-128838390D01*
X148667123Y-128838390D02*
X148619504Y-128647914D01*
X148619504Y-128647914D02*
X148571885Y-128552676D01*
X148571885Y-128552676D02*
X148476647Y-128457438D01*
X148476647Y-128457438D02*
X148333790Y-128409819D01*
X148333790Y-128409819D02*
X148238552Y-128409819D01*
X148238552Y-128409819D02*
X148095695Y-128457438D01*
X148095695Y-128457438D02*
X148048076Y-128505057D01*
X98024744Y-60922819D02*
X97929506Y-60922819D01*
X97929506Y-60922819D02*
X97834268Y-60970438D01*
X97834268Y-60970438D02*
X97786649Y-61018057D01*
X97786649Y-61018057D02*
X97739030Y-61113295D01*
X97739030Y-61113295D02*
X97691411Y-61303771D01*
X97691411Y-61303771D02*
X97691411Y-61541866D01*
X97691411Y-61541866D02*
X97739030Y-61732342D01*
X97739030Y-61732342D02*
X97786649Y-61827580D01*
X97786649Y-61827580D02*
X97834268Y-61875200D01*
X97834268Y-61875200D02*
X97929506Y-61922819D01*
X97929506Y-61922819D02*
X98024744Y-61922819D01*
X98024744Y-61922819D02*
X98119982Y-61875200D01*
X98119982Y-61875200D02*
X98167601Y-61827580D01*
X98167601Y-61827580D02*
X98215220Y-61732342D01*
X98215220Y-61732342D02*
X98262839Y-61541866D01*
X98262839Y-61541866D02*
X98262839Y-61303771D01*
X98262839Y-61303771D02*
X98215220Y-61113295D01*
X98215220Y-61113295D02*
X98167601Y-61018057D01*
X98167601Y-61018057D02*
X98119982Y-60970438D01*
X98119982Y-60970438D02*
X98024744Y-60922819D01*
D11*
X168101489Y-51741828D02*
X168101489Y-50241828D01*
X168101489Y-50956114D02*
X167244346Y-50956114D01*
X167244346Y-51741828D02*
X167244346Y-50241828D01*
X166744345Y-50241828D02*
X165887203Y-50241828D01*
X166315774Y-51741828D02*
X166315774Y-50241828D01*
X165387203Y-51741828D02*
X165387203Y-50241828D01*
X165387203Y-50241828D02*
X164815774Y-50241828D01*
X164815774Y-50241828D02*
X164672917Y-50313257D01*
X164672917Y-50313257D02*
X164601488Y-50384685D01*
X164601488Y-50384685D02*
X164530060Y-50527542D01*
X164530060Y-50527542D02*
X164530060Y-50741828D01*
X164530060Y-50741828D02*
X164601488Y-50884685D01*
X164601488Y-50884685D02*
X164672917Y-50956114D01*
X164672917Y-50956114D02*
X164815774Y-51027542D01*
X164815774Y-51027542D02*
X165387203Y-51027542D01*
X163887203Y-51598971D02*
X163815774Y-51670400D01*
X163815774Y-51670400D02*
X163887203Y-51741828D01*
X163887203Y-51741828D02*
X163958631Y-51670400D01*
X163958631Y-51670400D02*
X163887203Y-51598971D01*
X163887203Y-51598971D02*
X163887203Y-51741828D01*
X163887203Y-51170400D02*
X163958631Y-50313257D01*
X163958631Y-50313257D02*
X163887203Y-50241828D01*
X163887203Y-50241828D02*
X163815774Y-50313257D01*
X163815774Y-50313257D02*
X163887203Y-51170400D01*
X163887203Y-51170400D02*
X163887203Y-50241828D01*
X163172917Y-51741828D02*
X163172917Y-50741828D01*
X163172917Y-50884685D02*
X163101488Y-50813257D01*
X163101488Y-50813257D02*
X162958631Y-50741828D01*
X162958631Y-50741828D02*
X162744345Y-50741828D01*
X162744345Y-50741828D02*
X162601488Y-50813257D01*
X162601488Y-50813257D02*
X162530060Y-50956114D01*
X162530060Y-50956114D02*
X162530060Y-51741828D01*
X162530060Y-50956114D02*
X162458631Y-50813257D01*
X162458631Y-50813257D02*
X162315774Y-50741828D01*
X162315774Y-50741828D02*
X162101488Y-50741828D01*
X162101488Y-50741828D02*
X161958631Y-50813257D01*
X161958631Y-50813257D02*
X161887202Y-50956114D01*
X161887202Y-50956114D02*
X161887202Y-51741828D01*
X159172917Y-51598971D02*
X159244345Y-51670400D01*
X159244345Y-51670400D02*
X159458631Y-51741828D01*
X159458631Y-51741828D02*
X159601488Y-51741828D01*
X159601488Y-51741828D02*
X159815774Y-51670400D01*
X159815774Y-51670400D02*
X159958631Y-51527542D01*
X159958631Y-51527542D02*
X160030060Y-51384685D01*
X160030060Y-51384685D02*
X160101488Y-51098971D01*
X160101488Y-51098971D02*
X160101488Y-50884685D01*
X160101488Y-50884685D02*
X160030060Y-50598971D01*
X160030060Y-50598971D02*
X159958631Y-50456114D01*
X159958631Y-50456114D02*
X159815774Y-50313257D01*
X159815774Y-50313257D02*
X159601488Y-50241828D01*
X159601488Y-50241828D02*
X159458631Y-50241828D01*
X159458631Y-50241828D02*
X159244345Y-50313257D01*
X159244345Y-50313257D02*
X159172917Y-50384685D01*
X158244345Y-50241828D02*
X157958631Y-50241828D01*
X157958631Y-50241828D02*
X157815774Y-50313257D01*
X157815774Y-50313257D02*
X157672917Y-50456114D01*
X157672917Y-50456114D02*
X157601488Y-50741828D01*
X157601488Y-50741828D02*
X157601488Y-51241828D01*
X157601488Y-51241828D02*
X157672917Y-51527542D01*
X157672917Y-51527542D02*
X157815774Y-51670400D01*
X157815774Y-51670400D02*
X157958631Y-51741828D01*
X157958631Y-51741828D02*
X158244345Y-51741828D01*
X158244345Y-51741828D02*
X158387203Y-51670400D01*
X158387203Y-51670400D02*
X158530060Y-51527542D01*
X158530060Y-51527542D02*
X158601488Y-51241828D01*
X158601488Y-51241828D02*
X158601488Y-50741828D01*
X158601488Y-50741828D02*
X158530060Y-50456114D01*
X158530060Y-50456114D02*
X158387203Y-50313257D01*
X158387203Y-50313257D02*
X158244345Y-50241828D01*
X156958631Y-51741828D02*
X156958631Y-50241828D01*
X156958631Y-50241828D02*
X156101488Y-51741828D01*
X156101488Y-51741828D02*
X156101488Y-50241828D01*
X155601487Y-50241828D02*
X154744345Y-50241828D01*
X155172916Y-51741828D02*
X155172916Y-50241828D01*
X153387202Y-51741828D02*
X153887202Y-51027542D01*
X154244345Y-51741828D02*
X154244345Y-50241828D01*
X154244345Y-50241828D02*
X153672916Y-50241828D01*
X153672916Y-50241828D02*
X153530059Y-50313257D01*
X153530059Y-50313257D02*
X153458630Y-50384685D01*
X153458630Y-50384685D02*
X153387202Y-50527542D01*
X153387202Y-50527542D02*
X153387202Y-50741828D01*
X153387202Y-50741828D02*
X153458630Y-50884685D01*
X153458630Y-50884685D02*
X153530059Y-50956114D01*
X153530059Y-50956114D02*
X153672916Y-51027542D01*
X153672916Y-51027542D02*
X154244345Y-51027542D01*
X152458630Y-50241828D02*
X152172916Y-50241828D01*
X152172916Y-50241828D02*
X152030059Y-50313257D01*
X152030059Y-50313257D02*
X151887202Y-50456114D01*
X151887202Y-50456114D02*
X151815773Y-50741828D01*
X151815773Y-50741828D02*
X151815773Y-51241828D01*
X151815773Y-51241828D02*
X151887202Y-51527542D01*
X151887202Y-51527542D02*
X152030059Y-51670400D01*
X152030059Y-51670400D02*
X152172916Y-51741828D01*
X152172916Y-51741828D02*
X152458630Y-51741828D01*
X152458630Y-51741828D02*
X152601488Y-51670400D01*
X152601488Y-51670400D02*
X152744345Y-51527542D01*
X152744345Y-51527542D02*
X152815773Y-51241828D01*
X152815773Y-51241828D02*
X152815773Y-50741828D01*
X152815773Y-50741828D02*
X152744345Y-50456114D01*
X152744345Y-50456114D02*
X152601488Y-50313257D01*
X152601488Y-50313257D02*
X152458630Y-50241828D01*
X150458630Y-51741828D02*
X151172916Y-51741828D01*
X151172916Y-51741828D02*
X151172916Y-50241828D01*
X148887201Y-51313257D02*
X148172916Y-51313257D01*
X149030058Y-51741828D02*
X148530058Y-50241828D01*
X148530058Y-50241828D02*
X148030058Y-51741828D01*
X146887202Y-51741828D02*
X146887202Y-50241828D01*
X146887202Y-51670400D02*
X147030059Y-51741828D01*
X147030059Y-51741828D02*
X147315773Y-51741828D01*
X147315773Y-51741828D02*
X147458630Y-51670400D01*
X147458630Y-51670400D02*
X147530059Y-51598971D01*
X147530059Y-51598971D02*
X147601487Y-51456114D01*
X147601487Y-51456114D02*
X147601487Y-51027542D01*
X147601487Y-51027542D02*
X147530059Y-50884685D01*
X147530059Y-50884685D02*
X147458630Y-50813257D01*
X147458630Y-50813257D02*
X147315773Y-50741828D01*
X147315773Y-50741828D02*
X147030059Y-50741828D01*
X147030059Y-50741828D02*
X146887202Y-50813257D01*
X145530059Y-51741828D02*
X145530059Y-50241828D01*
X145530059Y-51670400D02*
X145672916Y-51741828D01*
X145672916Y-51741828D02*
X145958630Y-51741828D01*
X145958630Y-51741828D02*
X146101487Y-51670400D01*
X146101487Y-51670400D02*
X146172916Y-51598971D01*
X146172916Y-51598971D02*
X146244344Y-51456114D01*
X146244344Y-51456114D02*
X146244344Y-51027542D01*
X146244344Y-51027542D02*
X146172916Y-50884685D01*
X146172916Y-50884685D02*
X146101487Y-50813257D01*
X146101487Y-50813257D02*
X145958630Y-50741828D01*
X145958630Y-50741828D02*
X145672916Y-50741828D01*
X145672916Y-50741828D02*
X145530059Y-50813257D01*
X144815773Y-51741828D02*
X144815773Y-50741828D01*
X144815773Y-50241828D02*
X144887201Y-50313257D01*
X144887201Y-50313257D02*
X144815773Y-50384685D01*
X144815773Y-50384685D02*
X144744344Y-50313257D01*
X144744344Y-50313257D02*
X144815773Y-50241828D01*
X144815773Y-50241828D02*
X144815773Y-50384685D01*
X144315772Y-50741828D02*
X143744344Y-50741828D01*
X144101487Y-50241828D02*
X144101487Y-51527542D01*
X144101487Y-51527542D02*
X144030058Y-51670400D01*
X144030058Y-51670400D02*
X143887201Y-51741828D01*
X143887201Y-51741828D02*
X143744344Y-51741828D01*
X143244344Y-51741828D02*
X143244344Y-50741828D01*
X143244344Y-50241828D02*
X143315772Y-50313257D01*
X143315772Y-50313257D02*
X143244344Y-50384685D01*
X143244344Y-50384685D02*
X143172915Y-50313257D01*
X143172915Y-50313257D02*
X143244344Y-50241828D01*
X143244344Y-50241828D02*
X143244344Y-50384685D01*
X142315772Y-51741828D02*
X142458629Y-51670400D01*
X142458629Y-51670400D02*
X142530058Y-51598971D01*
X142530058Y-51598971D02*
X142601486Y-51456114D01*
X142601486Y-51456114D02*
X142601486Y-51027542D01*
X142601486Y-51027542D02*
X142530058Y-50884685D01*
X142530058Y-50884685D02*
X142458629Y-50813257D01*
X142458629Y-50813257D02*
X142315772Y-50741828D01*
X142315772Y-50741828D02*
X142101486Y-50741828D01*
X142101486Y-50741828D02*
X141958629Y-50813257D01*
X141958629Y-50813257D02*
X141887201Y-50884685D01*
X141887201Y-50884685D02*
X141815772Y-51027542D01*
X141815772Y-51027542D02*
X141815772Y-51456114D01*
X141815772Y-51456114D02*
X141887201Y-51598971D01*
X141887201Y-51598971D02*
X141958629Y-51670400D01*
X141958629Y-51670400D02*
X142101486Y-51741828D01*
X142101486Y-51741828D02*
X142315772Y-51741828D01*
X141172915Y-50741828D02*
X141172915Y-51741828D01*
X141172915Y-50884685D02*
X141101486Y-50813257D01*
X141101486Y-50813257D02*
X140958629Y-50741828D01*
X140958629Y-50741828D02*
X140744343Y-50741828D01*
X140744343Y-50741828D02*
X140601486Y-50813257D01*
X140601486Y-50813257D02*
X140530058Y-50956114D01*
X140530058Y-50956114D02*
X140530058Y-51741828D01*
X139172915Y-51741828D02*
X139172915Y-50956114D01*
X139172915Y-50956114D02*
X139244343Y-50813257D01*
X139244343Y-50813257D02*
X139387200Y-50741828D01*
X139387200Y-50741828D02*
X139672915Y-50741828D01*
X139672915Y-50741828D02*
X139815772Y-50813257D01*
X139172915Y-51670400D02*
X139315772Y-51741828D01*
X139315772Y-51741828D02*
X139672915Y-51741828D01*
X139672915Y-51741828D02*
X139815772Y-51670400D01*
X139815772Y-51670400D02*
X139887200Y-51527542D01*
X139887200Y-51527542D02*
X139887200Y-51384685D01*
X139887200Y-51384685D02*
X139815772Y-51241828D01*
X139815772Y-51241828D02*
X139672915Y-51170400D01*
X139672915Y-51170400D02*
X139315772Y-51170400D01*
X139315772Y-51170400D02*
X139172915Y-51098971D01*
X138244343Y-51741828D02*
X138387200Y-51670400D01*
X138387200Y-51670400D02*
X138458629Y-51527542D01*
X138458629Y-51527542D02*
X138458629Y-50241828D01*
X136530058Y-51741828D02*
X136530058Y-50241828D01*
X135815772Y-50741828D02*
X135815772Y-51741828D01*
X135815772Y-50884685D02*
X135744343Y-50813257D01*
X135744343Y-50813257D02*
X135601486Y-50741828D01*
X135601486Y-50741828D02*
X135387200Y-50741828D01*
X135387200Y-50741828D02*
X135244343Y-50813257D01*
X135244343Y-50813257D02*
X135172915Y-50956114D01*
X135172915Y-50956114D02*
X135172915Y-51741828D01*
X134672914Y-50741828D02*
X134101486Y-50741828D01*
X134458629Y-51741828D02*
X134458629Y-50456114D01*
X134458629Y-50456114D02*
X134387200Y-50313257D01*
X134387200Y-50313257D02*
X134244343Y-50241828D01*
X134244343Y-50241828D02*
X134101486Y-50241828D01*
X133387200Y-51741828D02*
X133530057Y-51670400D01*
X133530057Y-51670400D02*
X133601486Y-51598971D01*
X133601486Y-51598971D02*
X133672914Y-51456114D01*
X133672914Y-51456114D02*
X133672914Y-51027542D01*
X133672914Y-51027542D02*
X133601486Y-50884685D01*
X133601486Y-50884685D02*
X133530057Y-50813257D01*
X133530057Y-50813257D02*
X133387200Y-50741828D01*
X133387200Y-50741828D02*
X133172914Y-50741828D01*
X133172914Y-50741828D02*
X133030057Y-50813257D01*
X133030057Y-50813257D02*
X132958629Y-50884685D01*
X132958629Y-50884685D02*
X132887200Y-51027542D01*
X132887200Y-51027542D02*
X132887200Y-51456114D01*
X132887200Y-51456114D02*
X132958629Y-51598971D01*
X132958629Y-51598971D02*
X133030057Y-51670400D01*
X133030057Y-51670400D02*
X133172914Y-51741828D01*
X133172914Y-51741828D02*
X133387200Y-51741828D01*
X168101489Y-54156828D02*
X168101489Y-52656828D01*
X168101489Y-53228257D02*
X167958632Y-53156828D01*
X167958632Y-53156828D02*
X167672917Y-53156828D01*
X167672917Y-53156828D02*
X167530060Y-53228257D01*
X167530060Y-53228257D02*
X167458632Y-53299685D01*
X167458632Y-53299685D02*
X167387203Y-53442542D01*
X167387203Y-53442542D02*
X167387203Y-53871114D01*
X167387203Y-53871114D02*
X167458632Y-54013971D01*
X167458632Y-54013971D02*
X167530060Y-54085400D01*
X167530060Y-54085400D02*
X167672917Y-54156828D01*
X167672917Y-54156828D02*
X167958632Y-54156828D01*
X167958632Y-54156828D02*
X168101489Y-54085400D01*
X166887203Y-53156828D02*
X166530060Y-54156828D01*
X166172917Y-53156828D02*
X166530060Y-54156828D01*
X166530060Y-54156828D02*
X166672917Y-54513971D01*
X166672917Y-54513971D02*
X166744346Y-54585400D01*
X166744346Y-54585400D02*
X166887203Y-54656828D01*
X164530060Y-54085400D02*
X164387203Y-54156828D01*
X164387203Y-54156828D02*
X164101489Y-54156828D01*
X164101489Y-54156828D02*
X163958632Y-54085400D01*
X163958632Y-54085400D02*
X163887203Y-53942542D01*
X163887203Y-53942542D02*
X163887203Y-53871114D01*
X163887203Y-53871114D02*
X163958632Y-53728257D01*
X163958632Y-53728257D02*
X164101489Y-53656828D01*
X164101489Y-53656828D02*
X164315775Y-53656828D01*
X164315775Y-53656828D02*
X164458632Y-53585400D01*
X164458632Y-53585400D02*
X164530060Y-53442542D01*
X164530060Y-53442542D02*
X164530060Y-53371114D01*
X164530060Y-53371114D02*
X164458632Y-53228257D01*
X164458632Y-53228257D02*
X164315775Y-53156828D01*
X164315775Y-53156828D02*
X164101489Y-53156828D01*
X164101489Y-53156828D02*
X163958632Y-53228257D01*
X163244346Y-54156828D02*
X163244346Y-52656828D01*
X162601489Y-54156828D02*
X162601489Y-53371114D01*
X162601489Y-53371114D02*
X162672917Y-53228257D01*
X162672917Y-53228257D02*
X162815774Y-53156828D01*
X162815774Y-53156828D02*
X163030060Y-53156828D01*
X163030060Y-53156828D02*
X163172917Y-53228257D01*
X163172917Y-53228257D02*
X163244346Y-53299685D01*
X161244346Y-54156828D02*
X161244346Y-53371114D01*
X161244346Y-53371114D02*
X161315774Y-53228257D01*
X161315774Y-53228257D02*
X161458631Y-53156828D01*
X161458631Y-53156828D02*
X161744346Y-53156828D01*
X161744346Y-53156828D02*
X161887203Y-53228257D01*
X161244346Y-54085400D02*
X161387203Y-54156828D01*
X161387203Y-54156828D02*
X161744346Y-54156828D01*
X161744346Y-54156828D02*
X161887203Y-54085400D01*
X161887203Y-54085400D02*
X161958631Y-53942542D01*
X161958631Y-53942542D02*
X161958631Y-53799685D01*
X161958631Y-53799685D02*
X161887203Y-53656828D01*
X161887203Y-53656828D02*
X161744346Y-53585400D01*
X161744346Y-53585400D02*
X161387203Y-53585400D01*
X161387203Y-53585400D02*
X161244346Y-53513971D01*
X160672917Y-53156828D02*
X160387203Y-54156828D01*
X160387203Y-54156828D02*
X160101488Y-53442542D01*
X160101488Y-53442542D02*
X159815774Y-54156828D01*
X159815774Y-54156828D02*
X159530060Y-53156828D01*
X158958631Y-53156828D02*
X158958631Y-54156828D01*
X158958631Y-53299685D02*
X158887202Y-53228257D01*
X158887202Y-53228257D02*
X158744345Y-53156828D01*
X158744345Y-53156828D02*
X158530059Y-53156828D01*
X158530059Y-53156828D02*
X158387202Y-53228257D01*
X158387202Y-53228257D02*
X158315774Y-53371114D01*
X158315774Y-53371114D02*
X158315774Y-54156828D01*
X156958631Y-54156828D02*
X156958631Y-52656828D01*
X156958631Y-54085400D02*
X157101488Y-54156828D01*
X157101488Y-54156828D02*
X157387202Y-54156828D01*
X157387202Y-54156828D02*
X157530059Y-54085400D01*
X157530059Y-54085400D02*
X157601488Y-54013971D01*
X157601488Y-54013971D02*
X157672916Y-53871114D01*
X157672916Y-53871114D02*
X157672916Y-53442542D01*
X157672916Y-53442542D02*
X157601488Y-53299685D01*
X157601488Y-53299685D02*
X157530059Y-53228257D01*
X157530059Y-53228257D02*
X157387202Y-53156828D01*
X157387202Y-53156828D02*
X157101488Y-53156828D01*
X157101488Y-53156828D02*
X156958631Y-53228257D01*
X156244345Y-54013971D02*
X156172916Y-54085400D01*
X156172916Y-54085400D02*
X156244345Y-54156828D01*
X156244345Y-54156828D02*
X156315773Y-54085400D01*
X156315773Y-54085400D02*
X156244345Y-54013971D01*
X156244345Y-54013971D02*
X156244345Y-54156828D01*
X155672916Y-54156828D02*
X154887202Y-53156828D01*
X155672916Y-53156828D02*
X154887202Y-54156828D01*
X154458630Y-53156828D02*
X154101487Y-54156828D01*
X153744344Y-53156828D02*
X154101487Y-54156828D01*
X154101487Y-54156828D02*
X154244344Y-54513971D01*
X154244344Y-54513971D02*
X154315773Y-54585400D01*
X154315773Y-54585400D02*
X154458630Y-54656828D01*
X153315773Y-53156828D02*
X152530059Y-53156828D01*
X152530059Y-53156828D02*
X153315773Y-54156828D01*
X153315773Y-54156828D02*
X152530059Y-54156828D01*
D10*
X106886763Y-125327580D02*
X106934382Y-125375200D01*
X106934382Y-125375200D02*
X107077239Y-125422819D01*
X107077239Y-125422819D02*
X107172477Y-125422819D01*
X107172477Y-125422819D02*
X107315334Y-125375200D01*
X107315334Y-125375200D02*
X107410572Y-125279961D01*
X107410572Y-125279961D02*
X107458191Y-125184723D01*
X107458191Y-125184723D02*
X107505810Y-124994247D01*
X107505810Y-124994247D02*
X107505810Y-124851390D01*
X107505810Y-124851390D02*
X107458191Y-124660914D01*
X107458191Y-124660914D02*
X107410572Y-124565676D01*
X107410572Y-124565676D02*
X107315334Y-124470438D01*
X107315334Y-124470438D02*
X107172477Y-124422819D01*
X107172477Y-124422819D02*
X107077239Y-124422819D01*
X107077239Y-124422819D02*
X106934382Y-124470438D01*
X106934382Y-124470438D02*
X106886763Y-124518057D01*
X106315334Y-125422819D02*
X106410572Y-125375200D01*
X106410572Y-125375200D02*
X106458191Y-125327580D01*
X106458191Y-125327580D02*
X106505810Y-125232342D01*
X106505810Y-125232342D02*
X106505810Y-124946628D01*
X106505810Y-124946628D02*
X106458191Y-124851390D01*
X106458191Y-124851390D02*
X106410572Y-124803771D01*
X106410572Y-124803771D02*
X106315334Y-124756152D01*
X106315334Y-124756152D02*
X106172477Y-124756152D01*
X106172477Y-124756152D02*
X106077239Y-124803771D01*
X106077239Y-124803771D02*
X106029620Y-124851390D01*
X106029620Y-124851390D02*
X105982001Y-124946628D01*
X105982001Y-124946628D02*
X105982001Y-125232342D01*
X105982001Y-125232342D02*
X106029620Y-125327580D01*
X106029620Y-125327580D02*
X106077239Y-125375200D01*
X106077239Y-125375200D02*
X106172477Y-125422819D01*
X106172477Y-125422819D02*
X106315334Y-125422819D01*
X105553429Y-124756152D02*
X105553429Y-125422819D01*
X105553429Y-124851390D02*
X105505810Y-124803771D01*
X105505810Y-124803771D02*
X105410572Y-124756152D01*
X105410572Y-124756152D02*
X105267715Y-124756152D01*
X105267715Y-124756152D02*
X105172477Y-124803771D01*
X105172477Y-124803771D02*
X105124858Y-124899009D01*
X105124858Y-124899009D02*
X105124858Y-125422819D01*
X104791524Y-124756152D02*
X104410572Y-124756152D01*
X104648667Y-124422819D02*
X104648667Y-125279961D01*
X104648667Y-125279961D02*
X104601048Y-125375200D01*
X104601048Y-125375200D02*
X104505810Y-125422819D01*
X104505810Y-125422819D02*
X104410572Y-125422819D01*
X104077238Y-125422819D02*
X104077238Y-124756152D01*
X104077238Y-124946628D02*
X104029619Y-124851390D01*
X104029619Y-124851390D02*
X103982000Y-124803771D01*
X103982000Y-124803771D02*
X103886762Y-124756152D01*
X103886762Y-124756152D02*
X103791524Y-124756152D01*
X103315333Y-125422819D02*
X103410571Y-125375200D01*
X103410571Y-125375200D02*
X103458190Y-125327580D01*
X103458190Y-125327580D02*
X103505809Y-125232342D01*
X103505809Y-125232342D02*
X103505809Y-124946628D01*
X103505809Y-124946628D02*
X103458190Y-124851390D01*
X103458190Y-124851390D02*
X103410571Y-124803771D01*
X103410571Y-124803771D02*
X103315333Y-124756152D01*
X103315333Y-124756152D02*
X103172476Y-124756152D01*
X103172476Y-124756152D02*
X103077238Y-124803771D01*
X103077238Y-124803771D02*
X103029619Y-124851390D01*
X103029619Y-124851390D02*
X102982000Y-124946628D01*
X102982000Y-124946628D02*
X102982000Y-125232342D01*
X102982000Y-125232342D02*
X103029619Y-125327580D01*
X103029619Y-125327580D02*
X103077238Y-125375200D01*
X103077238Y-125375200D02*
X103172476Y-125422819D01*
X103172476Y-125422819D02*
X103315333Y-125422819D01*
X102410571Y-125422819D02*
X102505809Y-125375200D01*
X102505809Y-125375200D02*
X102553428Y-125279961D01*
X102553428Y-125279961D02*
X102553428Y-124422819D01*
X101886761Y-125422819D02*
X101981999Y-125375200D01*
X101981999Y-125375200D02*
X102029618Y-125279961D01*
X102029618Y-125279961D02*
X102029618Y-124422819D01*
X101124856Y-125375200D02*
X101220094Y-125422819D01*
X101220094Y-125422819D02*
X101410570Y-125422819D01*
X101410570Y-125422819D02*
X101505808Y-125375200D01*
X101505808Y-125375200D02*
X101553427Y-125279961D01*
X101553427Y-125279961D02*
X101553427Y-124899009D01*
X101553427Y-124899009D02*
X101505808Y-124803771D01*
X101505808Y-124803771D02*
X101410570Y-124756152D01*
X101410570Y-124756152D02*
X101220094Y-124756152D01*
X101220094Y-124756152D02*
X101124856Y-124803771D01*
X101124856Y-124803771D02*
X101077237Y-124899009D01*
X101077237Y-124899009D02*
X101077237Y-124994247D01*
X101077237Y-124994247D02*
X101553427Y-125089485D01*
X100648665Y-125422819D02*
X100648665Y-124756152D01*
X100648665Y-124946628D02*
X100601046Y-124851390D01*
X100601046Y-124851390D02*
X100553427Y-124803771D01*
X100553427Y-124803771D02*
X100458189Y-124756152D01*
X100458189Y-124756152D02*
X100362951Y-124756152D01*
X134484381Y-125422819D02*
X134484381Y-124422819D01*
X134484381Y-124422819D02*
X134151048Y-125137104D01*
X134151048Y-125137104D02*
X133817715Y-124422819D01*
X133817715Y-124422819D02*
X133817715Y-125422819D01*
X133198667Y-125422819D02*
X133293905Y-125375200D01*
X133293905Y-125375200D02*
X133341524Y-125327580D01*
X133341524Y-125327580D02*
X133389143Y-125232342D01*
X133389143Y-125232342D02*
X133389143Y-124946628D01*
X133389143Y-124946628D02*
X133341524Y-124851390D01*
X133341524Y-124851390D02*
X133293905Y-124803771D01*
X133293905Y-124803771D02*
X133198667Y-124756152D01*
X133198667Y-124756152D02*
X133055810Y-124756152D01*
X133055810Y-124756152D02*
X132960572Y-124803771D01*
X132960572Y-124803771D02*
X132912953Y-124851390D01*
X132912953Y-124851390D02*
X132865334Y-124946628D01*
X132865334Y-124946628D02*
X132865334Y-125232342D01*
X132865334Y-125232342D02*
X132912953Y-125327580D01*
X132912953Y-125327580D02*
X132960572Y-125375200D01*
X132960572Y-125375200D02*
X133055810Y-125422819D01*
X133055810Y-125422819D02*
X133198667Y-125422819D01*
X132008191Y-125422819D02*
X132008191Y-124422819D01*
X132008191Y-125375200D02*
X132103429Y-125422819D01*
X132103429Y-125422819D02*
X132293905Y-125422819D01*
X132293905Y-125422819D02*
X132389143Y-125375200D01*
X132389143Y-125375200D02*
X132436762Y-125327580D01*
X132436762Y-125327580D02*
X132484381Y-125232342D01*
X132484381Y-125232342D02*
X132484381Y-124946628D01*
X132484381Y-124946628D02*
X132436762Y-124851390D01*
X132436762Y-124851390D02*
X132389143Y-124803771D01*
X132389143Y-124803771D02*
X132293905Y-124756152D01*
X132293905Y-124756152D02*
X132103429Y-124756152D01*
X132103429Y-124756152D02*
X132008191Y-124803771D01*
X131103429Y-124756152D02*
X131103429Y-125422819D01*
X131532000Y-124756152D02*
X131532000Y-125279961D01*
X131532000Y-125279961D02*
X131484381Y-125375200D01*
X131484381Y-125375200D02*
X131389143Y-125422819D01*
X131389143Y-125422819D02*
X131246286Y-125422819D01*
X131246286Y-125422819D02*
X131151048Y-125375200D01*
X131151048Y-125375200D02*
X131103429Y-125327580D01*
X130484381Y-125422819D02*
X130579619Y-125375200D01*
X130579619Y-125375200D02*
X130627238Y-125279961D01*
X130627238Y-125279961D02*
X130627238Y-124422819D01*
X129722476Y-125375200D02*
X129817714Y-125422819D01*
X129817714Y-125422819D02*
X130008190Y-125422819D01*
X130008190Y-125422819D02*
X130103428Y-125375200D01*
X130103428Y-125375200D02*
X130151047Y-125279961D01*
X130151047Y-125279961D02*
X130151047Y-124899009D01*
X130151047Y-124899009D02*
X130103428Y-124803771D01*
X130103428Y-124803771D02*
X130008190Y-124756152D01*
X130008190Y-124756152D02*
X129817714Y-124756152D01*
X129817714Y-124756152D02*
X129722476Y-124803771D01*
X129722476Y-124803771D02*
X129674857Y-124899009D01*
X129674857Y-124899009D02*
X129674857Y-124994247D01*
X129674857Y-124994247D02*
X130151047Y-125089485D01*
X128484380Y-125422819D02*
X128484380Y-124422819D01*
X128484380Y-124422819D02*
X128246285Y-124422819D01*
X128246285Y-124422819D02*
X128103428Y-124470438D01*
X128103428Y-124470438D02*
X128008190Y-124565676D01*
X128008190Y-124565676D02*
X127960571Y-124660914D01*
X127960571Y-124660914D02*
X127912952Y-124851390D01*
X127912952Y-124851390D02*
X127912952Y-124994247D01*
X127912952Y-124994247D02*
X127960571Y-125184723D01*
X127960571Y-125184723D02*
X128008190Y-125279961D01*
X128008190Y-125279961D02*
X128103428Y-125375200D01*
X128103428Y-125375200D02*
X128246285Y-125422819D01*
X128246285Y-125422819D02*
X128484380Y-125422819D01*
X127484380Y-125422819D02*
X127484380Y-124756152D01*
X127484380Y-124422819D02*
X127531999Y-124470438D01*
X127531999Y-124470438D02*
X127484380Y-124518057D01*
X127484380Y-124518057D02*
X127436761Y-124470438D01*
X127436761Y-124470438D02*
X127484380Y-124422819D01*
X127484380Y-124422819D02*
X127484380Y-124518057D01*
X127055809Y-125375200D02*
X126960571Y-125422819D01*
X126960571Y-125422819D02*
X126770095Y-125422819D01*
X126770095Y-125422819D02*
X126674857Y-125375200D01*
X126674857Y-125375200D02*
X126627238Y-125279961D01*
X126627238Y-125279961D02*
X126627238Y-125232342D01*
X126627238Y-125232342D02*
X126674857Y-125137104D01*
X126674857Y-125137104D02*
X126770095Y-125089485D01*
X126770095Y-125089485D02*
X126912952Y-125089485D01*
X126912952Y-125089485D02*
X127008190Y-125041866D01*
X127008190Y-125041866D02*
X127055809Y-124946628D01*
X127055809Y-124946628D02*
X127055809Y-124899009D01*
X127055809Y-124899009D02*
X127008190Y-124803771D01*
X127008190Y-124803771D02*
X126912952Y-124756152D01*
X126912952Y-124756152D02*
X126770095Y-124756152D01*
X126770095Y-124756152D02*
X126674857Y-124803771D01*
X126198666Y-124756152D02*
X126198666Y-125756152D01*
X126198666Y-124803771D02*
X126103428Y-124756152D01*
X126103428Y-124756152D02*
X125912952Y-124756152D01*
X125912952Y-124756152D02*
X125817714Y-124803771D01*
X125817714Y-124803771D02*
X125770095Y-124851390D01*
X125770095Y-124851390D02*
X125722476Y-124946628D01*
X125722476Y-124946628D02*
X125722476Y-125232342D01*
X125722476Y-125232342D02*
X125770095Y-125327580D01*
X125770095Y-125327580D02*
X125817714Y-125375200D01*
X125817714Y-125375200D02*
X125912952Y-125422819D01*
X125912952Y-125422819D02*
X126103428Y-125422819D01*
X126103428Y-125422819D02*
X126198666Y-125375200D01*
X125151047Y-125422819D02*
X125246285Y-125375200D01*
X125246285Y-125375200D02*
X125293904Y-125279961D01*
X125293904Y-125279961D02*
X125293904Y-124422819D01*
X124341523Y-125422819D02*
X124341523Y-124899009D01*
X124341523Y-124899009D02*
X124389142Y-124803771D01*
X124389142Y-124803771D02*
X124484380Y-124756152D01*
X124484380Y-124756152D02*
X124674856Y-124756152D01*
X124674856Y-124756152D02*
X124770094Y-124803771D01*
X124341523Y-125375200D02*
X124436761Y-125422819D01*
X124436761Y-125422819D02*
X124674856Y-125422819D01*
X124674856Y-125422819D02*
X124770094Y-125375200D01*
X124770094Y-125375200D02*
X124817713Y-125279961D01*
X124817713Y-125279961D02*
X124817713Y-125184723D01*
X124817713Y-125184723D02*
X124770094Y-125089485D01*
X124770094Y-125089485D02*
X124674856Y-125041866D01*
X124674856Y-125041866D02*
X124436761Y-125041866D01*
X124436761Y-125041866D02*
X124341523Y-124994247D01*
X123960570Y-124756152D02*
X123722475Y-125422819D01*
X123484380Y-124756152D02*
X123722475Y-125422819D01*
X123722475Y-125422819D02*
X123817713Y-125660914D01*
X123817713Y-125660914D02*
X123865332Y-125708533D01*
X123865332Y-125708533D02*
X123960570Y-125756152D01*
X97786649Y-97086152D02*
X97786649Y-97752819D01*
X98024744Y-96705200D02*
X98262839Y-97419485D01*
X98262839Y-97419485D02*
X97643792Y-97419485D01*
X97786649Y-71416152D02*
X97786649Y-72082819D01*
X98024744Y-71035200D02*
X98262839Y-71749485D01*
X98262839Y-71749485D02*
X97643792Y-71749485D01*
X105020571Y-54302819D02*
X105020571Y-53302819D01*
X105020571Y-53302819D02*
X104449143Y-54302819D01*
X104449143Y-54302819D02*
X104449143Y-53302819D01*
X103544381Y-53636152D02*
X103544381Y-54302819D01*
X103972952Y-53636152D02*
X103972952Y-54159961D01*
X103972952Y-54159961D02*
X103925333Y-54255200D01*
X103925333Y-54255200D02*
X103830095Y-54302819D01*
X103830095Y-54302819D02*
X103687238Y-54302819D01*
X103687238Y-54302819D02*
X103592000Y-54255200D01*
X103592000Y-54255200D02*
X103544381Y-54207580D01*
X103068190Y-54302819D02*
X103068190Y-53636152D01*
X103068190Y-53731390D02*
X103020571Y-53683771D01*
X103020571Y-53683771D02*
X102925333Y-53636152D01*
X102925333Y-53636152D02*
X102782476Y-53636152D01*
X102782476Y-53636152D02*
X102687238Y-53683771D01*
X102687238Y-53683771D02*
X102639619Y-53779009D01*
X102639619Y-53779009D02*
X102639619Y-54302819D01*
X102639619Y-53779009D02*
X102592000Y-53683771D01*
X102592000Y-53683771D02*
X102496762Y-53636152D01*
X102496762Y-53636152D02*
X102353905Y-53636152D01*
X102353905Y-53636152D02*
X102258666Y-53683771D01*
X102258666Y-53683771D02*
X102211047Y-53779009D01*
X102211047Y-53779009D02*
X102211047Y-54302819D01*
X101353905Y-54255200D02*
X101449143Y-54302819D01*
X101449143Y-54302819D02*
X101639619Y-54302819D01*
X101639619Y-54302819D02*
X101734857Y-54255200D01*
X101734857Y-54255200D02*
X101782476Y-54159961D01*
X101782476Y-54159961D02*
X101782476Y-53779009D01*
X101782476Y-53779009D02*
X101734857Y-53683771D01*
X101734857Y-53683771D02*
X101639619Y-53636152D01*
X101639619Y-53636152D02*
X101449143Y-53636152D01*
X101449143Y-53636152D02*
X101353905Y-53683771D01*
X101353905Y-53683771D02*
X101306286Y-53779009D01*
X101306286Y-53779009D02*
X101306286Y-53874247D01*
X101306286Y-53874247D02*
X101782476Y-53969485D01*
X100877714Y-54302819D02*
X100877714Y-53636152D01*
X100877714Y-53826628D02*
X100830095Y-53731390D01*
X100830095Y-53731390D02*
X100782476Y-53683771D01*
X100782476Y-53683771D02*
X100687238Y-53636152D01*
X100687238Y-53636152D02*
X100592000Y-53636152D01*
X100258666Y-54302819D02*
X100258666Y-53636152D01*
X100258666Y-53302819D02*
X100306285Y-53350438D01*
X100306285Y-53350438D02*
X100258666Y-53398057D01*
X100258666Y-53398057D02*
X100211047Y-53350438D01*
X100211047Y-53350438D02*
X100258666Y-53302819D01*
X100258666Y-53302819D02*
X100258666Y-53398057D01*
X99353905Y-54255200D02*
X99449143Y-54302819D01*
X99449143Y-54302819D02*
X99639619Y-54302819D01*
X99639619Y-54302819D02*
X99734857Y-54255200D01*
X99734857Y-54255200D02*
X99782476Y-54207580D01*
X99782476Y-54207580D02*
X99830095Y-54112342D01*
X99830095Y-54112342D02*
X99830095Y-53826628D01*
X99830095Y-53826628D02*
X99782476Y-53731390D01*
X99782476Y-53731390D02*
X99734857Y-53683771D01*
X99734857Y-53683771D02*
X99639619Y-53636152D01*
X99639619Y-53636152D02*
X99449143Y-53636152D01*
X99449143Y-53636152D02*
X99353905Y-53683771D01*
X98496762Y-54302819D02*
X98496762Y-53779009D01*
X98496762Y-53779009D02*
X98544381Y-53683771D01*
X98544381Y-53683771D02*
X98639619Y-53636152D01*
X98639619Y-53636152D02*
X98830095Y-53636152D01*
X98830095Y-53636152D02*
X98925333Y-53683771D01*
X98496762Y-54255200D02*
X98592000Y-54302819D01*
X98592000Y-54302819D02*
X98830095Y-54302819D01*
X98830095Y-54302819D02*
X98925333Y-54255200D01*
X98925333Y-54255200D02*
X98972952Y-54159961D01*
X98972952Y-54159961D02*
X98972952Y-54064723D01*
X98972952Y-54064723D02*
X98925333Y-53969485D01*
X98925333Y-53969485D02*
X98830095Y-53921866D01*
X98830095Y-53921866D02*
X98592000Y-53921866D01*
X98592000Y-53921866D02*
X98496762Y-53874247D01*
X97877714Y-54302819D02*
X97972952Y-54255200D01*
X97972952Y-54255200D02*
X98020571Y-54159961D01*
X98020571Y-54159961D02*
X98020571Y-53302819D01*
X97544380Y-54255200D02*
X97449142Y-54302819D01*
X97449142Y-54302819D02*
X97258666Y-54302819D01*
X97258666Y-54302819D02*
X97163428Y-54255200D01*
X97163428Y-54255200D02*
X97115809Y-54159961D01*
X97115809Y-54159961D02*
X97115809Y-54112342D01*
X97115809Y-54112342D02*
X97163428Y-54017104D01*
X97163428Y-54017104D02*
X97258666Y-53969485D01*
X97258666Y-53969485D02*
X97401523Y-53969485D01*
X97401523Y-53969485D02*
X97496761Y-53921866D01*
X97496761Y-53921866D02*
X97544380Y-53826628D01*
X97544380Y-53826628D02*
X97544380Y-53779009D01*
X97544380Y-53779009D02*
X97496761Y-53683771D01*
X97496761Y-53683771D02*
X97401523Y-53636152D01*
X97401523Y-53636152D02*
X97258666Y-53636152D01*
X97258666Y-53636152D02*
X97163428Y-53683771D01*
X105628839Y-110312200D02*
X105485982Y-110359819D01*
X105485982Y-110359819D02*
X105247887Y-110359819D01*
X105247887Y-110359819D02*
X105152649Y-110312200D01*
X105152649Y-110312200D02*
X105105030Y-110264580D01*
X105105030Y-110264580D02*
X105057411Y-110169342D01*
X105057411Y-110169342D02*
X105057411Y-110074104D01*
X105057411Y-110074104D02*
X105105030Y-109978866D01*
X105105030Y-109978866D02*
X105152649Y-109931247D01*
X105152649Y-109931247D02*
X105247887Y-109883628D01*
X105247887Y-109883628D02*
X105438363Y-109836009D01*
X105438363Y-109836009D02*
X105533601Y-109788390D01*
X105533601Y-109788390D02*
X105581220Y-109740771D01*
X105581220Y-109740771D02*
X105628839Y-109645533D01*
X105628839Y-109645533D02*
X105628839Y-109550295D01*
X105628839Y-109550295D02*
X105581220Y-109455057D01*
X105581220Y-109455057D02*
X105533601Y-109407438D01*
X105533601Y-109407438D02*
X105438363Y-109359819D01*
X105438363Y-109359819D02*
X105200268Y-109359819D01*
X105200268Y-109359819D02*
X105057411Y-109407438D01*
X104771696Y-109693152D02*
X104390744Y-109693152D01*
X104628839Y-109359819D02*
X104628839Y-110216961D01*
X104628839Y-110216961D02*
X104581220Y-110312200D01*
X104581220Y-110312200D02*
X104485982Y-110359819D01*
X104485982Y-110359819D02*
X104390744Y-110359819D01*
X103628839Y-110359819D02*
X103628839Y-109836009D01*
X103628839Y-109836009D02*
X103676458Y-109740771D01*
X103676458Y-109740771D02*
X103771696Y-109693152D01*
X103771696Y-109693152D02*
X103962172Y-109693152D01*
X103962172Y-109693152D02*
X104057410Y-109740771D01*
X103628839Y-110312200D02*
X103724077Y-110359819D01*
X103724077Y-110359819D02*
X103962172Y-110359819D01*
X103962172Y-110359819D02*
X104057410Y-110312200D01*
X104057410Y-110312200D02*
X104105029Y-110216961D01*
X104105029Y-110216961D02*
X104105029Y-110121723D01*
X104105029Y-110121723D02*
X104057410Y-110026485D01*
X104057410Y-110026485D02*
X103962172Y-109978866D01*
X103962172Y-109978866D02*
X103724077Y-109978866D01*
X103724077Y-109978866D02*
X103628839Y-109931247D01*
X103295505Y-109693152D02*
X102914553Y-109693152D01*
X103152648Y-109359819D02*
X103152648Y-110216961D01*
X103152648Y-110216961D02*
X103105029Y-110312200D01*
X103105029Y-110312200D02*
X103009791Y-110359819D01*
X103009791Y-110359819D02*
X102914553Y-110359819D01*
X102152648Y-109693152D02*
X102152648Y-110359819D01*
X102581219Y-109693152D02*
X102581219Y-110216961D01*
X102581219Y-110216961D02*
X102533600Y-110312200D01*
X102533600Y-110312200D02*
X102438362Y-110359819D01*
X102438362Y-110359819D02*
X102295505Y-110359819D01*
X102295505Y-110359819D02*
X102200267Y-110312200D01*
X102200267Y-110312200D02*
X102152648Y-110264580D01*
X101724076Y-110312200D02*
X101628838Y-110359819D01*
X101628838Y-110359819D02*
X101438362Y-110359819D01*
X101438362Y-110359819D02*
X101343124Y-110312200D01*
X101343124Y-110312200D02*
X101295505Y-110216961D01*
X101295505Y-110216961D02*
X101295505Y-110169342D01*
X101295505Y-110169342D02*
X101343124Y-110074104D01*
X101343124Y-110074104D02*
X101438362Y-110026485D01*
X101438362Y-110026485D02*
X101581219Y-110026485D01*
X101581219Y-110026485D02*
X101676457Y-109978866D01*
X101676457Y-109978866D02*
X101724076Y-109883628D01*
X101724076Y-109883628D02*
X101724076Y-109836009D01*
X101724076Y-109836009D02*
X101676457Y-109740771D01*
X101676457Y-109740771D02*
X101581219Y-109693152D01*
X101581219Y-109693152D02*
X101438362Y-109693152D01*
X101438362Y-109693152D02*
X101343124Y-109740771D01*
X99771695Y-109836009D02*
X99628838Y-109883628D01*
X99628838Y-109883628D02*
X99581219Y-109931247D01*
X99581219Y-109931247D02*
X99533600Y-110026485D01*
X99533600Y-110026485D02*
X99533600Y-110169342D01*
X99533600Y-110169342D02*
X99581219Y-110264580D01*
X99581219Y-110264580D02*
X99628838Y-110312200D01*
X99628838Y-110312200D02*
X99724076Y-110359819D01*
X99724076Y-110359819D02*
X100105028Y-110359819D01*
X100105028Y-110359819D02*
X100105028Y-109359819D01*
X100105028Y-109359819D02*
X99771695Y-109359819D01*
X99771695Y-109359819D02*
X99676457Y-109407438D01*
X99676457Y-109407438D02*
X99628838Y-109455057D01*
X99628838Y-109455057D02*
X99581219Y-109550295D01*
X99581219Y-109550295D02*
X99581219Y-109645533D01*
X99581219Y-109645533D02*
X99628838Y-109740771D01*
X99628838Y-109740771D02*
X99676457Y-109788390D01*
X99676457Y-109788390D02*
X99771695Y-109836009D01*
X99771695Y-109836009D02*
X100105028Y-109836009D01*
X96945220Y-84197819D02*
X96945220Y-83197819D01*
X96945220Y-83197819D02*
X96707125Y-83197819D01*
X96707125Y-83197819D02*
X96564268Y-83245438D01*
X96564268Y-83245438D02*
X96469030Y-83340676D01*
X96469030Y-83340676D02*
X96421411Y-83435914D01*
X96421411Y-83435914D02*
X96373792Y-83626390D01*
X96373792Y-83626390D02*
X96373792Y-83769247D01*
X96373792Y-83769247D02*
X96421411Y-83959723D01*
X96421411Y-83959723D02*
X96469030Y-84054961D01*
X96469030Y-84054961D02*
X96564268Y-84150200D01*
X96564268Y-84150200D02*
X96707125Y-84197819D01*
X96707125Y-84197819D02*
X96945220Y-84197819D01*
X95945220Y-84197819D02*
X95945220Y-83197819D01*
X95945220Y-83197819D02*
X95564268Y-83197819D01*
X95564268Y-83197819D02*
X95469030Y-83245438D01*
X95469030Y-83245438D02*
X95421411Y-83293057D01*
X95421411Y-83293057D02*
X95373792Y-83388295D01*
X95373792Y-83388295D02*
X95373792Y-83531152D01*
X95373792Y-83531152D02*
X95421411Y-83626390D01*
X95421411Y-83626390D02*
X95469030Y-83674009D01*
X95469030Y-83674009D02*
X95564268Y-83721628D01*
X95564268Y-83721628D02*
X95945220Y-83721628D01*
X105628839Y-83896200D02*
X105485982Y-83943819D01*
X105485982Y-83943819D02*
X105247887Y-83943819D01*
X105247887Y-83943819D02*
X105152649Y-83896200D01*
X105152649Y-83896200D02*
X105105030Y-83848580D01*
X105105030Y-83848580D02*
X105057411Y-83753342D01*
X105057411Y-83753342D02*
X105057411Y-83658104D01*
X105057411Y-83658104D02*
X105105030Y-83562866D01*
X105105030Y-83562866D02*
X105152649Y-83515247D01*
X105152649Y-83515247D02*
X105247887Y-83467628D01*
X105247887Y-83467628D02*
X105438363Y-83420009D01*
X105438363Y-83420009D02*
X105533601Y-83372390D01*
X105533601Y-83372390D02*
X105581220Y-83324771D01*
X105581220Y-83324771D02*
X105628839Y-83229533D01*
X105628839Y-83229533D02*
X105628839Y-83134295D01*
X105628839Y-83134295D02*
X105581220Y-83039057D01*
X105581220Y-83039057D02*
X105533601Y-82991438D01*
X105533601Y-82991438D02*
X105438363Y-82943819D01*
X105438363Y-82943819D02*
X105200268Y-82943819D01*
X105200268Y-82943819D02*
X105057411Y-82991438D01*
X104771696Y-83277152D02*
X104390744Y-83277152D01*
X104628839Y-82943819D02*
X104628839Y-83800961D01*
X104628839Y-83800961D02*
X104581220Y-83896200D01*
X104581220Y-83896200D02*
X104485982Y-83943819D01*
X104485982Y-83943819D02*
X104390744Y-83943819D01*
X103628839Y-83943819D02*
X103628839Y-83420009D01*
X103628839Y-83420009D02*
X103676458Y-83324771D01*
X103676458Y-83324771D02*
X103771696Y-83277152D01*
X103771696Y-83277152D02*
X103962172Y-83277152D01*
X103962172Y-83277152D02*
X104057410Y-83324771D01*
X103628839Y-83896200D02*
X103724077Y-83943819D01*
X103724077Y-83943819D02*
X103962172Y-83943819D01*
X103962172Y-83943819D02*
X104057410Y-83896200D01*
X104057410Y-83896200D02*
X104105029Y-83800961D01*
X104105029Y-83800961D02*
X104105029Y-83705723D01*
X104105029Y-83705723D02*
X104057410Y-83610485D01*
X104057410Y-83610485D02*
X103962172Y-83562866D01*
X103962172Y-83562866D02*
X103724077Y-83562866D01*
X103724077Y-83562866D02*
X103628839Y-83515247D01*
X103295505Y-83277152D02*
X102914553Y-83277152D01*
X103152648Y-82943819D02*
X103152648Y-83800961D01*
X103152648Y-83800961D02*
X103105029Y-83896200D01*
X103105029Y-83896200D02*
X103009791Y-83943819D01*
X103009791Y-83943819D02*
X102914553Y-83943819D01*
X102152648Y-83277152D02*
X102152648Y-83943819D01*
X102581219Y-83277152D02*
X102581219Y-83800961D01*
X102581219Y-83800961D02*
X102533600Y-83896200D01*
X102533600Y-83896200D02*
X102438362Y-83943819D01*
X102438362Y-83943819D02*
X102295505Y-83943819D01*
X102295505Y-83943819D02*
X102200267Y-83896200D01*
X102200267Y-83896200D02*
X102152648Y-83848580D01*
X101724076Y-83896200D02*
X101628838Y-83943819D01*
X101628838Y-83943819D02*
X101438362Y-83943819D01*
X101438362Y-83943819D02*
X101343124Y-83896200D01*
X101343124Y-83896200D02*
X101295505Y-83800961D01*
X101295505Y-83800961D02*
X101295505Y-83753342D01*
X101295505Y-83753342D02*
X101343124Y-83658104D01*
X101343124Y-83658104D02*
X101438362Y-83610485D01*
X101438362Y-83610485D02*
X101581219Y-83610485D01*
X101581219Y-83610485D02*
X101676457Y-83562866D01*
X101676457Y-83562866D02*
X101724076Y-83467628D01*
X101724076Y-83467628D02*
X101724076Y-83420009D01*
X101724076Y-83420009D02*
X101676457Y-83324771D01*
X101676457Y-83324771D02*
X101581219Y-83277152D01*
X101581219Y-83277152D02*
X101438362Y-83277152D01*
X101438362Y-83277152D02*
X101343124Y-83324771D01*
X100152647Y-83658104D02*
X99676457Y-83658104D01*
X100247885Y-83943819D02*
X99914552Y-82943819D01*
X99914552Y-82943819D02*
X99581219Y-83943819D01*
X96945220Y-109867819D02*
X96945220Y-108867819D01*
X96945220Y-108867819D02*
X96707125Y-108867819D01*
X96707125Y-108867819D02*
X96564268Y-108915438D01*
X96564268Y-108915438D02*
X96469030Y-109010676D01*
X96469030Y-109010676D02*
X96421411Y-109105914D01*
X96421411Y-109105914D02*
X96373792Y-109296390D01*
X96373792Y-109296390D02*
X96373792Y-109439247D01*
X96373792Y-109439247D02*
X96421411Y-109629723D01*
X96421411Y-109629723D02*
X96469030Y-109724961D01*
X96469030Y-109724961D02*
X96564268Y-109820200D01*
X96564268Y-109820200D02*
X96707125Y-109867819D01*
X96707125Y-109867819D02*
X96945220Y-109867819D01*
X95945220Y-109867819D02*
X95945220Y-108867819D01*
X95945220Y-108867819D02*
X95564268Y-108867819D01*
X95564268Y-108867819D02*
X95469030Y-108915438D01*
X95469030Y-108915438D02*
X95421411Y-108963057D01*
X95421411Y-108963057D02*
X95373792Y-109058295D01*
X95373792Y-109058295D02*
X95373792Y-109201152D01*
X95373792Y-109201152D02*
X95421411Y-109296390D01*
X95421411Y-109296390D02*
X95469030Y-109344009D01*
X95469030Y-109344009D02*
X95564268Y-109391628D01*
X95564268Y-109391628D02*
X95945220Y-109391628D01*
X98024744Y-86592819D02*
X97929506Y-86592819D01*
X97929506Y-86592819D02*
X97834268Y-86640438D01*
X97834268Y-86640438D02*
X97786649Y-86688057D01*
X97786649Y-86688057D02*
X97739030Y-86783295D01*
X97739030Y-86783295D02*
X97691411Y-86973771D01*
X97691411Y-86973771D02*
X97691411Y-87211866D01*
X97691411Y-87211866D02*
X97739030Y-87402342D01*
X97739030Y-87402342D02*
X97786649Y-87497580D01*
X97786649Y-87497580D02*
X97834268Y-87545200D01*
X97834268Y-87545200D02*
X97929506Y-87592819D01*
X97929506Y-87592819D02*
X98024744Y-87592819D01*
X98024744Y-87592819D02*
X98119982Y-87545200D01*
X98119982Y-87545200D02*
X98167601Y-87497580D01*
X98167601Y-87497580D02*
X98215220Y-87402342D01*
X98215220Y-87402342D02*
X98262839Y-87211866D01*
X98262839Y-87211866D02*
X98262839Y-86973771D01*
X98262839Y-86973771D02*
X98215220Y-86783295D01*
X98215220Y-86783295D02*
X98167601Y-86688057D01*
X98167601Y-86688057D02*
X98119982Y-86640438D01*
X98119982Y-86640438D02*
X98024744Y-86592819D01*
X96345333Y-78702819D02*
X96345333Y-79417104D01*
X96345333Y-79417104D02*
X96392952Y-79559961D01*
X96392952Y-79559961D02*
X96488190Y-79655200D01*
X96488190Y-79655200D02*
X96631047Y-79702819D01*
X96631047Y-79702819D02*
X96726285Y-79702819D01*
X95964380Y-78702819D02*
X95345333Y-78702819D01*
X95345333Y-78702819D02*
X95678666Y-79083771D01*
X95678666Y-79083771D02*
X95535809Y-79083771D01*
X95535809Y-79083771D02*
X95440571Y-79131390D01*
X95440571Y-79131390D02*
X95392952Y-79179009D01*
X95392952Y-79179009D02*
X95345333Y-79274247D01*
X95345333Y-79274247D02*
X95345333Y-79512342D01*
X95345333Y-79512342D02*
X95392952Y-79607580D01*
X95392952Y-79607580D02*
X95440571Y-79655200D01*
X95440571Y-79655200D02*
X95535809Y-79702819D01*
X95535809Y-79702819D02*
X95821523Y-79702819D01*
X95821523Y-79702819D02*
X95916761Y-79655200D01*
X95916761Y-79655200D02*
X95964380Y-79607580D01*
X138526819Y-63518905D02*
X137526819Y-63518905D01*
X137526819Y-63518905D02*
X137526819Y-63757000D01*
X137526819Y-63757000D02*
X137574438Y-63899857D01*
X137574438Y-63899857D02*
X137669676Y-63995095D01*
X137669676Y-63995095D02*
X137764914Y-64042714D01*
X137764914Y-64042714D02*
X137955390Y-64090333D01*
X137955390Y-64090333D02*
X138098247Y-64090333D01*
X138098247Y-64090333D02*
X138288723Y-64042714D01*
X138288723Y-64042714D02*
X138383961Y-63995095D01*
X138383961Y-63995095D02*
X138479200Y-63899857D01*
X138479200Y-63899857D02*
X138526819Y-63757000D01*
X138526819Y-63757000D02*
X138526819Y-63518905D01*
X137622057Y-64471286D02*
X137574438Y-64518905D01*
X137574438Y-64518905D02*
X137526819Y-64614143D01*
X137526819Y-64614143D02*
X137526819Y-64852238D01*
X137526819Y-64852238D02*
X137574438Y-64947476D01*
X137574438Y-64947476D02*
X137622057Y-64995095D01*
X137622057Y-64995095D02*
X137717295Y-65042714D01*
X137717295Y-65042714D02*
X137812533Y-65042714D01*
X137812533Y-65042714D02*
X137955390Y-64995095D01*
X137955390Y-64995095D02*
X138526819Y-64423667D01*
X138526819Y-64423667D02*
X138526819Y-65042714D01*
X190446819Y-94543714D02*
X189446819Y-94543714D01*
X189446819Y-94543714D02*
X189446819Y-94781809D01*
X189446819Y-94781809D02*
X189494438Y-94924666D01*
X189494438Y-94924666D02*
X189589676Y-95019904D01*
X189589676Y-95019904D02*
X189684914Y-95067523D01*
X189684914Y-95067523D02*
X189875390Y-95115142D01*
X189875390Y-95115142D02*
X190018247Y-95115142D01*
X190018247Y-95115142D02*
X190208723Y-95067523D01*
X190208723Y-95067523D02*
X190303961Y-95019904D01*
X190303961Y-95019904D02*
X190399200Y-94924666D01*
X190399200Y-94924666D02*
X190446819Y-94781809D01*
X190446819Y-94781809D02*
X190446819Y-94543714D01*
X190446819Y-96067523D02*
X190446819Y-95496095D01*
X190446819Y-95781809D02*
X189446819Y-95781809D01*
X189446819Y-95781809D02*
X189589676Y-95686571D01*
X189589676Y-95686571D02*
X189684914Y-95591333D01*
X189684914Y-95591333D02*
X189732533Y-95496095D01*
X189446819Y-96400857D02*
X189446819Y-97019904D01*
X189446819Y-97019904D02*
X189827771Y-96686571D01*
X189827771Y-96686571D02*
X189827771Y-96829428D01*
X189827771Y-96829428D02*
X189875390Y-96924666D01*
X189875390Y-96924666D02*
X189923009Y-96972285D01*
X189923009Y-96972285D02*
X190018247Y-97019904D01*
X190018247Y-97019904D02*
X190256342Y-97019904D01*
X190256342Y-97019904D02*
X190351580Y-96972285D01*
X190351580Y-96972285D02*
X190399200Y-96924666D01*
X190399200Y-96924666D02*
X190446819Y-96829428D01*
X190446819Y-96829428D02*
X190446819Y-96543714D01*
X190446819Y-96543714D02*
X190399200Y-96448476D01*
X190399200Y-96448476D02*
X190351580Y-96400857D01*
X119260857Y-107134819D02*
X119594190Y-106658628D01*
X119832285Y-107134819D02*
X119832285Y-106134819D01*
X119832285Y-106134819D02*
X119451333Y-106134819D01*
X119451333Y-106134819D02*
X119356095Y-106182438D01*
X119356095Y-106182438D02*
X119308476Y-106230057D01*
X119308476Y-106230057D02*
X119260857Y-106325295D01*
X119260857Y-106325295D02*
X119260857Y-106468152D01*
X119260857Y-106468152D02*
X119308476Y-106563390D01*
X119308476Y-106563390D02*
X119356095Y-106611009D01*
X119356095Y-106611009D02*
X119451333Y-106658628D01*
X119451333Y-106658628D02*
X119832285Y-106658628D01*
X118879904Y-106230057D02*
X118832285Y-106182438D01*
X118832285Y-106182438D02*
X118737047Y-106134819D01*
X118737047Y-106134819D02*
X118498952Y-106134819D01*
X118498952Y-106134819D02*
X118403714Y-106182438D01*
X118403714Y-106182438D02*
X118356095Y-106230057D01*
X118356095Y-106230057D02*
X118308476Y-106325295D01*
X118308476Y-106325295D02*
X118308476Y-106420533D01*
X118308476Y-106420533D02*
X118356095Y-106563390D01*
X118356095Y-106563390D02*
X118927523Y-107134819D01*
X118927523Y-107134819D02*
X118308476Y-107134819D01*
X117927523Y-106230057D02*
X117879904Y-106182438D01*
X117879904Y-106182438D02*
X117784666Y-106134819D01*
X117784666Y-106134819D02*
X117546571Y-106134819D01*
X117546571Y-106134819D02*
X117451333Y-106182438D01*
X117451333Y-106182438D02*
X117403714Y-106230057D01*
X117403714Y-106230057D02*
X117356095Y-106325295D01*
X117356095Y-106325295D02*
X117356095Y-106420533D01*
X117356095Y-106420533D02*
X117403714Y-106563390D01*
X117403714Y-106563390D02*
X117975142Y-107134819D01*
X117975142Y-107134819D02*
X117356095Y-107134819D01*
X159966819Y-94543714D02*
X158966819Y-94543714D01*
X158966819Y-94543714D02*
X158966819Y-94781809D01*
X158966819Y-94781809D02*
X159014438Y-94924666D01*
X159014438Y-94924666D02*
X159109676Y-95019904D01*
X159109676Y-95019904D02*
X159204914Y-95067523D01*
X159204914Y-95067523D02*
X159395390Y-95115142D01*
X159395390Y-95115142D02*
X159538247Y-95115142D01*
X159538247Y-95115142D02*
X159728723Y-95067523D01*
X159728723Y-95067523D02*
X159823961Y-95019904D01*
X159823961Y-95019904D02*
X159919200Y-94924666D01*
X159919200Y-94924666D02*
X159966819Y-94781809D01*
X159966819Y-94781809D02*
X159966819Y-94543714D01*
X159966819Y-96067523D02*
X159966819Y-95496095D01*
X159966819Y-95781809D02*
X158966819Y-95781809D01*
X158966819Y-95781809D02*
X159109676Y-95686571D01*
X159109676Y-95686571D02*
X159204914Y-95591333D01*
X159204914Y-95591333D02*
X159252533Y-95496095D01*
X158966819Y-96400857D02*
X158966819Y-97067523D01*
X158966819Y-97067523D02*
X159966819Y-96638952D01*
X152346819Y-94543714D02*
X151346819Y-94543714D01*
X151346819Y-94543714D02*
X151346819Y-94781809D01*
X151346819Y-94781809D02*
X151394438Y-94924666D01*
X151394438Y-94924666D02*
X151489676Y-95019904D01*
X151489676Y-95019904D02*
X151584914Y-95067523D01*
X151584914Y-95067523D02*
X151775390Y-95115142D01*
X151775390Y-95115142D02*
X151918247Y-95115142D01*
X151918247Y-95115142D02*
X152108723Y-95067523D01*
X152108723Y-95067523D02*
X152203961Y-95019904D01*
X152203961Y-95019904D02*
X152299200Y-94924666D01*
X152299200Y-94924666D02*
X152346819Y-94781809D01*
X152346819Y-94781809D02*
X152346819Y-94543714D01*
X152346819Y-96067523D02*
X152346819Y-95496095D01*
X152346819Y-95781809D02*
X151346819Y-95781809D01*
X151346819Y-95781809D02*
X151489676Y-95686571D01*
X151489676Y-95686571D02*
X151584914Y-95591333D01*
X151584914Y-95591333D02*
X151632533Y-95496095D01*
X151775390Y-96638952D02*
X151727771Y-96543714D01*
X151727771Y-96543714D02*
X151680152Y-96496095D01*
X151680152Y-96496095D02*
X151584914Y-96448476D01*
X151584914Y-96448476D02*
X151537295Y-96448476D01*
X151537295Y-96448476D02*
X151442057Y-96496095D01*
X151442057Y-96496095D02*
X151394438Y-96543714D01*
X151394438Y-96543714D02*
X151346819Y-96638952D01*
X151346819Y-96638952D02*
X151346819Y-96829428D01*
X151346819Y-96829428D02*
X151394438Y-96924666D01*
X151394438Y-96924666D02*
X151442057Y-96972285D01*
X151442057Y-96972285D02*
X151537295Y-97019904D01*
X151537295Y-97019904D02*
X151584914Y-97019904D01*
X151584914Y-97019904D02*
X151680152Y-96972285D01*
X151680152Y-96972285D02*
X151727771Y-96924666D01*
X151727771Y-96924666D02*
X151775390Y-96829428D01*
X151775390Y-96829428D02*
X151775390Y-96638952D01*
X151775390Y-96638952D02*
X151823009Y-96543714D01*
X151823009Y-96543714D02*
X151870628Y-96496095D01*
X151870628Y-96496095D02*
X151965866Y-96448476D01*
X151965866Y-96448476D02*
X152156342Y-96448476D01*
X152156342Y-96448476D02*
X152251580Y-96496095D01*
X152251580Y-96496095D02*
X152299200Y-96543714D01*
X152299200Y-96543714D02*
X152346819Y-96638952D01*
X152346819Y-96638952D02*
X152346819Y-96829428D01*
X152346819Y-96829428D02*
X152299200Y-96924666D01*
X152299200Y-96924666D02*
X152251580Y-96972285D01*
X152251580Y-96972285D02*
X152156342Y-97019904D01*
X152156342Y-97019904D02*
X151965866Y-97019904D01*
X151965866Y-97019904D02*
X151870628Y-96972285D01*
X151870628Y-96972285D02*
X151823009Y-96924666D01*
X151823009Y-96924666D02*
X151775390Y-96829428D01*
X159458819Y-106259333D02*
X158982628Y-105926000D01*
X159458819Y-105687905D02*
X158458819Y-105687905D01*
X158458819Y-105687905D02*
X158458819Y-106068857D01*
X158458819Y-106068857D02*
X158506438Y-106164095D01*
X158506438Y-106164095D02*
X158554057Y-106211714D01*
X158554057Y-106211714D02*
X158649295Y-106259333D01*
X158649295Y-106259333D02*
X158792152Y-106259333D01*
X158792152Y-106259333D02*
X158887390Y-106211714D01*
X158887390Y-106211714D02*
X158935009Y-106164095D01*
X158935009Y-106164095D02*
X158982628Y-106068857D01*
X158982628Y-106068857D02*
X158982628Y-105687905D01*
X158887390Y-106830762D02*
X158839771Y-106735524D01*
X158839771Y-106735524D02*
X158792152Y-106687905D01*
X158792152Y-106687905D02*
X158696914Y-106640286D01*
X158696914Y-106640286D02*
X158649295Y-106640286D01*
X158649295Y-106640286D02*
X158554057Y-106687905D01*
X158554057Y-106687905D02*
X158506438Y-106735524D01*
X158506438Y-106735524D02*
X158458819Y-106830762D01*
X158458819Y-106830762D02*
X158458819Y-107021238D01*
X158458819Y-107021238D02*
X158506438Y-107116476D01*
X158506438Y-107116476D02*
X158554057Y-107164095D01*
X158554057Y-107164095D02*
X158649295Y-107211714D01*
X158649295Y-107211714D02*
X158696914Y-107211714D01*
X158696914Y-107211714D02*
X158792152Y-107164095D01*
X158792152Y-107164095D02*
X158839771Y-107116476D01*
X158839771Y-107116476D02*
X158887390Y-107021238D01*
X158887390Y-107021238D02*
X158887390Y-106830762D01*
X158887390Y-106830762D02*
X158935009Y-106735524D01*
X158935009Y-106735524D02*
X158982628Y-106687905D01*
X158982628Y-106687905D02*
X159077866Y-106640286D01*
X159077866Y-106640286D02*
X159268342Y-106640286D01*
X159268342Y-106640286D02*
X159363580Y-106687905D01*
X159363580Y-106687905D02*
X159411200Y-106735524D01*
X159411200Y-106735524D02*
X159458819Y-106830762D01*
X159458819Y-106830762D02*
X159458819Y-107021238D01*
X159458819Y-107021238D02*
X159411200Y-107116476D01*
X159411200Y-107116476D02*
X159363580Y-107164095D01*
X159363580Y-107164095D02*
X159268342Y-107211714D01*
X159268342Y-107211714D02*
X159077866Y-107211714D01*
X159077866Y-107211714D02*
X158982628Y-107164095D01*
X158982628Y-107164095D02*
X158935009Y-107116476D01*
X158935009Y-107116476D02*
X158887390Y-107021238D01*
X188160666Y-51413580D02*
X188208285Y-51461200D01*
X188208285Y-51461200D02*
X188351142Y-51508819D01*
X188351142Y-51508819D02*
X188446380Y-51508819D01*
X188446380Y-51508819D02*
X188589237Y-51461200D01*
X188589237Y-51461200D02*
X188684475Y-51365961D01*
X188684475Y-51365961D02*
X188732094Y-51270723D01*
X188732094Y-51270723D02*
X188779713Y-51080247D01*
X188779713Y-51080247D02*
X188779713Y-50937390D01*
X188779713Y-50937390D02*
X188732094Y-50746914D01*
X188732094Y-50746914D02*
X188684475Y-50651676D01*
X188684475Y-50651676D02*
X188589237Y-50556438D01*
X188589237Y-50556438D02*
X188446380Y-50508819D01*
X188446380Y-50508819D02*
X188351142Y-50508819D01*
X188351142Y-50508819D02*
X188208285Y-50556438D01*
X188208285Y-50556438D02*
X188160666Y-50604057D01*
X187303523Y-50842152D02*
X187303523Y-51508819D01*
X187541618Y-50461200D02*
X187779713Y-51175485D01*
X187779713Y-51175485D02*
X187160666Y-51175485D01*
X189684819Y-105783142D02*
X189208628Y-105449809D01*
X189684819Y-105211714D02*
X188684819Y-105211714D01*
X188684819Y-105211714D02*
X188684819Y-105592666D01*
X188684819Y-105592666D02*
X188732438Y-105687904D01*
X188732438Y-105687904D02*
X188780057Y-105735523D01*
X188780057Y-105735523D02*
X188875295Y-105783142D01*
X188875295Y-105783142D02*
X189018152Y-105783142D01*
X189018152Y-105783142D02*
X189113390Y-105735523D01*
X189113390Y-105735523D02*
X189161009Y-105687904D01*
X189161009Y-105687904D02*
X189208628Y-105592666D01*
X189208628Y-105592666D02*
X189208628Y-105211714D01*
X189684819Y-106735523D02*
X189684819Y-106164095D01*
X189684819Y-106449809D02*
X188684819Y-106449809D01*
X188684819Y-106449809D02*
X188827676Y-106354571D01*
X188827676Y-106354571D02*
X188922914Y-106259333D01*
X188922914Y-106259333D02*
X188970533Y-106164095D01*
X188684819Y-107068857D02*
X188684819Y-107687904D01*
X188684819Y-107687904D02*
X189065771Y-107354571D01*
X189065771Y-107354571D02*
X189065771Y-107497428D01*
X189065771Y-107497428D02*
X189113390Y-107592666D01*
X189113390Y-107592666D02*
X189161009Y-107640285D01*
X189161009Y-107640285D02*
X189256247Y-107687904D01*
X189256247Y-107687904D02*
X189494342Y-107687904D01*
X189494342Y-107687904D02*
X189589580Y-107640285D01*
X189589580Y-107640285D02*
X189637200Y-107592666D01*
X189637200Y-107592666D02*
X189684819Y-107497428D01*
X189684819Y-107497428D02*
X189684819Y-107211714D01*
X189684819Y-107211714D02*
X189637200Y-107116476D01*
X189637200Y-107116476D02*
X189589580Y-107068857D01*
X157198819Y-117358095D02*
X158008342Y-117358095D01*
X158008342Y-117358095D02*
X158103580Y-117405714D01*
X158103580Y-117405714D02*
X158151200Y-117453333D01*
X158151200Y-117453333D02*
X158198819Y-117548571D01*
X158198819Y-117548571D02*
X158198819Y-117739047D01*
X158198819Y-117739047D02*
X158151200Y-117834285D01*
X158151200Y-117834285D02*
X158103580Y-117881904D01*
X158103580Y-117881904D02*
X158008342Y-117929523D01*
X158008342Y-117929523D02*
X157198819Y-117929523D01*
X157198819Y-118310476D02*
X157198819Y-118929523D01*
X157198819Y-118929523D02*
X157579771Y-118596190D01*
X157579771Y-118596190D02*
X157579771Y-118739047D01*
X157579771Y-118739047D02*
X157627390Y-118834285D01*
X157627390Y-118834285D02*
X157675009Y-118881904D01*
X157675009Y-118881904D02*
X157770247Y-118929523D01*
X157770247Y-118929523D02*
X158008342Y-118929523D01*
X158008342Y-118929523D02*
X158103580Y-118881904D01*
X158103580Y-118881904D02*
X158151200Y-118834285D01*
X158151200Y-118834285D02*
X158198819Y-118739047D01*
X158198819Y-118739047D02*
X158198819Y-118453333D01*
X158198819Y-118453333D02*
X158151200Y-118358095D01*
X158151200Y-118358095D02*
X158103580Y-118310476D01*
X144726819Y-94543714D02*
X143726819Y-94543714D01*
X143726819Y-94543714D02*
X143726819Y-94781809D01*
X143726819Y-94781809D02*
X143774438Y-94924666D01*
X143774438Y-94924666D02*
X143869676Y-95019904D01*
X143869676Y-95019904D02*
X143964914Y-95067523D01*
X143964914Y-95067523D02*
X144155390Y-95115142D01*
X144155390Y-95115142D02*
X144298247Y-95115142D01*
X144298247Y-95115142D02*
X144488723Y-95067523D01*
X144488723Y-95067523D02*
X144583961Y-95019904D01*
X144583961Y-95019904D02*
X144679200Y-94924666D01*
X144679200Y-94924666D02*
X144726819Y-94781809D01*
X144726819Y-94781809D02*
X144726819Y-94543714D01*
X144726819Y-96067523D02*
X144726819Y-95496095D01*
X144726819Y-95781809D02*
X143726819Y-95781809D01*
X143726819Y-95781809D02*
X143869676Y-95686571D01*
X143869676Y-95686571D02*
X143964914Y-95591333D01*
X143964914Y-95591333D02*
X144012533Y-95496095D01*
X144726819Y-96543714D02*
X144726819Y-96734190D01*
X144726819Y-96734190D02*
X144679200Y-96829428D01*
X144679200Y-96829428D02*
X144631580Y-96877047D01*
X144631580Y-96877047D02*
X144488723Y-96972285D01*
X144488723Y-96972285D02*
X144298247Y-97019904D01*
X144298247Y-97019904D02*
X143917295Y-97019904D01*
X143917295Y-97019904D02*
X143822057Y-96972285D01*
X143822057Y-96972285D02*
X143774438Y-96924666D01*
X143774438Y-96924666D02*
X143726819Y-96829428D01*
X143726819Y-96829428D02*
X143726819Y-96638952D01*
X143726819Y-96638952D02*
X143774438Y-96543714D01*
X143774438Y-96543714D02*
X143822057Y-96496095D01*
X143822057Y-96496095D02*
X143917295Y-96448476D01*
X143917295Y-96448476D02*
X144155390Y-96448476D01*
X144155390Y-96448476D02*
X144250628Y-96496095D01*
X144250628Y-96496095D02*
X144298247Y-96543714D01*
X144298247Y-96543714D02*
X144345866Y-96638952D01*
X144345866Y-96638952D02*
X144345866Y-96829428D01*
X144345866Y-96829428D02*
X144298247Y-96924666D01*
X144298247Y-96924666D02*
X144250628Y-96972285D01*
X144250628Y-96972285D02*
X144155390Y-97019904D01*
X137106819Y-94543714D02*
X136106819Y-94543714D01*
X136106819Y-94543714D02*
X136106819Y-94781809D01*
X136106819Y-94781809D02*
X136154438Y-94924666D01*
X136154438Y-94924666D02*
X136249676Y-95019904D01*
X136249676Y-95019904D02*
X136344914Y-95067523D01*
X136344914Y-95067523D02*
X136535390Y-95115142D01*
X136535390Y-95115142D02*
X136678247Y-95115142D01*
X136678247Y-95115142D02*
X136868723Y-95067523D01*
X136868723Y-95067523D02*
X136963961Y-95019904D01*
X136963961Y-95019904D02*
X137059200Y-94924666D01*
X137059200Y-94924666D02*
X137106819Y-94781809D01*
X137106819Y-94781809D02*
X137106819Y-94543714D01*
X136202057Y-95496095D02*
X136154438Y-95543714D01*
X136154438Y-95543714D02*
X136106819Y-95638952D01*
X136106819Y-95638952D02*
X136106819Y-95877047D01*
X136106819Y-95877047D02*
X136154438Y-95972285D01*
X136154438Y-95972285D02*
X136202057Y-96019904D01*
X136202057Y-96019904D02*
X136297295Y-96067523D01*
X136297295Y-96067523D02*
X136392533Y-96067523D01*
X136392533Y-96067523D02*
X136535390Y-96019904D01*
X136535390Y-96019904D02*
X137106819Y-95448476D01*
X137106819Y-95448476D02*
X137106819Y-96067523D01*
X136106819Y-96686571D02*
X136106819Y-96781809D01*
X136106819Y-96781809D02*
X136154438Y-96877047D01*
X136154438Y-96877047D02*
X136202057Y-96924666D01*
X136202057Y-96924666D02*
X136297295Y-96972285D01*
X136297295Y-96972285D02*
X136487771Y-97019904D01*
X136487771Y-97019904D02*
X136725866Y-97019904D01*
X136725866Y-97019904D02*
X136916342Y-96972285D01*
X136916342Y-96972285D02*
X137011580Y-96924666D01*
X137011580Y-96924666D02*
X137059200Y-96877047D01*
X137059200Y-96877047D02*
X137106819Y-96781809D01*
X137106819Y-96781809D02*
X137106819Y-96686571D01*
X137106819Y-96686571D02*
X137059200Y-96591333D01*
X137059200Y-96591333D02*
X137011580Y-96543714D01*
X137011580Y-96543714D02*
X136916342Y-96496095D01*
X136916342Y-96496095D02*
X136725866Y-96448476D01*
X136725866Y-96448476D02*
X136487771Y-96448476D01*
X136487771Y-96448476D02*
X136297295Y-96496095D01*
X136297295Y-96496095D02*
X136202057Y-96543714D01*
X136202057Y-96543714D02*
X136154438Y-96591333D01*
X136154438Y-96591333D02*
X136106819Y-96686571D01*
X138937904Y-103380819D02*
X138937904Y-102380819D01*
X138937904Y-102857009D02*
X138366476Y-102857009D01*
X138366476Y-103380819D02*
X138366476Y-102380819D01*
X137937904Y-102476057D02*
X137890285Y-102428438D01*
X137890285Y-102428438D02*
X137795047Y-102380819D01*
X137795047Y-102380819D02*
X137556952Y-102380819D01*
X137556952Y-102380819D02*
X137461714Y-102428438D01*
X137461714Y-102428438D02*
X137414095Y-102476057D01*
X137414095Y-102476057D02*
X137366476Y-102571295D01*
X137366476Y-102571295D02*
X137366476Y-102666533D01*
X137366476Y-102666533D02*
X137414095Y-102809390D01*
X137414095Y-102809390D02*
X137985523Y-103380819D01*
X137985523Y-103380819D02*
X137366476Y-103380819D01*
X138526819Y-71138905D02*
X137526819Y-71138905D01*
X137526819Y-71138905D02*
X137526819Y-71377000D01*
X137526819Y-71377000D02*
X137574438Y-71519857D01*
X137574438Y-71519857D02*
X137669676Y-71615095D01*
X137669676Y-71615095D02*
X137764914Y-71662714D01*
X137764914Y-71662714D02*
X137955390Y-71710333D01*
X137955390Y-71710333D02*
X138098247Y-71710333D01*
X138098247Y-71710333D02*
X138288723Y-71662714D01*
X138288723Y-71662714D02*
X138383961Y-71615095D01*
X138383961Y-71615095D02*
X138479200Y-71519857D01*
X138479200Y-71519857D02*
X138526819Y-71377000D01*
X138526819Y-71377000D02*
X138526819Y-71138905D01*
X137526819Y-72043667D02*
X137526819Y-72662714D01*
X137526819Y-72662714D02*
X137907771Y-72329381D01*
X137907771Y-72329381D02*
X137907771Y-72472238D01*
X137907771Y-72472238D02*
X137955390Y-72567476D01*
X137955390Y-72567476D02*
X138003009Y-72615095D01*
X138003009Y-72615095D02*
X138098247Y-72662714D01*
X138098247Y-72662714D02*
X138336342Y-72662714D01*
X138336342Y-72662714D02*
X138431580Y-72615095D01*
X138431580Y-72615095D02*
X138479200Y-72567476D01*
X138479200Y-72567476D02*
X138526819Y-72472238D01*
X138526819Y-72472238D02*
X138526819Y-72186524D01*
X138526819Y-72186524D02*
X138479200Y-72091286D01*
X138479200Y-72091286D02*
X138431580Y-72043667D01*
X179804819Y-117358095D02*
X180614342Y-117358095D01*
X180614342Y-117358095D02*
X180709580Y-117405714D01*
X180709580Y-117405714D02*
X180757200Y-117453333D01*
X180757200Y-117453333D02*
X180804819Y-117548571D01*
X180804819Y-117548571D02*
X180804819Y-117739047D01*
X180804819Y-117739047D02*
X180757200Y-117834285D01*
X180757200Y-117834285D02*
X180709580Y-117881904D01*
X180709580Y-117881904D02*
X180614342Y-117929523D01*
X180614342Y-117929523D02*
X179804819Y-117929523D01*
X179900057Y-118358095D02*
X179852438Y-118405714D01*
X179852438Y-118405714D02*
X179804819Y-118500952D01*
X179804819Y-118500952D02*
X179804819Y-118739047D01*
X179804819Y-118739047D02*
X179852438Y-118834285D01*
X179852438Y-118834285D02*
X179900057Y-118881904D01*
X179900057Y-118881904D02*
X179995295Y-118929523D01*
X179995295Y-118929523D02*
X180090533Y-118929523D01*
X180090533Y-118929523D02*
X180233390Y-118881904D01*
X180233390Y-118881904D02*
X180804819Y-118310476D01*
X180804819Y-118310476D02*
X180804819Y-118929523D01*
X137106819Y-86923714D02*
X136106819Y-86923714D01*
X136106819Y-86923714D02*
X136106819Y-87161809D01*
X136106819Y-87161809D02*
X136154438Y-87304666D01*
X136154438Y-87304666D02*
X136249676Y-87399904D01*
X136249676Y-87399904D02*
X136344914Y-87447523D01*
X136344914Y-87447523D02*
X136535390Y-87495142D01*
X136535390Y-87495142D02*
X136678247Y-87495142D01*
X136678247Y-87495142D02*
X136868723Y-87447523D01*
X136868723Y-87447523D02*
X136963961Y-87399904D01*
X136963961Y-87399904D02*
X137059200Y-87304666D01*
X137059200Y-87304666D02*
X137106819Y-87161809D01*
X137106819Y-87161809D02*
X137106819Y-86923714D01*
X137106819Y-88447523D02*
X137106819Y-87876095D01*
X137106819Y-88161809D02*
X136106819Y-88161809D01*
X136106819Y-88161809D02*
X136249676Y-88066571D01*
X136249676Y-88066571D02*
X136344914Y-87971333D01*
X136344914Y-87971333D02*
X136392533Y-87876095D01*
X136202057Y-88828476D02*
X136154438Y-88876095D01*
X136154438Y-88876095D02*
X136106819Y-88971333D01*
X136106819Y-88971333D02*
X136106819Y-89209428D01*
X136106819Y-89209428D02*
X136154438Y-89304666D01*
X136154438Y-89304666D02*
X136202057Y-89352285D01*
X136202057Y-89352285D02*
X136297295Y-89399904D01*
X136297295Y-89399904D02*
X136392533Y-89399904D01*
X136392533Y-89399904D02*
X136535390Y-89352285D01*
X136535390Y-89352285D02*
X137106819Y-88780857D01*
X137106819Y-88780857D02*
X137106819Y-89399904D01*
X159932666Y-58366819D02*
X160265999Y-57890628D01*
X160504094Y-58366819D02*
X160504094Y-57366819D01*
X160504094Y-57366819D02*
X160123142Y-57366819D01*
X160123142Y-57366819D02*
X160027904Y-57414438D01*
X160027904Y-57414438D02*
X159980285Y-57462057D01*
X159980285Y-57462057D02*
X159932666Y-57557295D01*
X159932666Y-57557295D02*
X159932666Y-57700152D01*
X159932666Y-57700152D02*
X159980285Y-57795390D01*
X159980285Y-57795390D02*
X160027904Y-57843009D01*
X160027904Y-57843009D02*
X160123142Y-57890628D01*
X160123142Y-57890628D02*
X160504094Y-57890628D01*
X158980285Y-58366819D02*
X159551713Y-58366819D01*
X159265999Y-58366819D02*
X159265999Y-57366819D01*
X159265999Y-57366819D02*
X159361237Y-57509676D01*
X159361237Y-57509676D02*
X159456475Y-57604914D01*
X159456475Y-57604914D02*
X159551713Y-57652533D01*
X140795333Y-127724819D02*
X140795333Y-128439104D01*
X140795333Y-128439104D02*
X140842952Y-128581961D01*
X140842952Y-128581961D02*
X140938190Y-128677200D01*
X140938190Y-128677200D02*
X141081047Y-128724819D01*
X141081047Y-128724819D02*
X141176285Y-128724819D01*
X139795333Y-128724819D02*
X140366761Y-128724819D01*
X140081047Y-128724819D02*
X140081047Y-127724819D01*
X140081047Y-127724819D02*
X140176285Y-127867676D01*
X140176285Y-127867676D02*
X140271523Y-127962914D01*
X140271523Y-127962914D02*
X140366761Y-128010533D01*
X165353904Y-71376819D02*
X165353904Y-70376819D01*
X165353904Y-70853009D02*
X164782476Y-70853009D01*
X164782476Y-71376819D02*
X164782476Y-70376819D01*
X163782476Y-71376819D02*
X164353904Y-71376819D01*
X164068190Y-71376819D02*
X164068190Y-70376819D01*
X164068190Y-70376819D02*
X164163428Y-70519676D01*
X164163428Y-70519676D02*
X164258666Y-70614914D01*
X164258666Y-70614914D02*
X164353904Y-70662533D01*
X149298819Y-105783142D02*
X148822628Y-105449809D01*
X149298819Y-105211714D02*
X148298819Y-105211714D01*
X148298819Y-105211714D02*
X148298819Y-105592666D01*
X148298819Y-105592666D02*
X148346438Y-105687904D01*
X148346438Y-105687904D02*
X148394057Y-105735523D01*
X148394057Y-105735523D02*
X148489295Y-105783142D01*
X148489295Y-105783142D02*
X148632152Y-105783142D01*
X148632152Y-105783142D02*
X148727390Y-105735523D01*
X148727390Y-105735523D02*
X148775009Y-105687904D01*
X148775009Y-105687904D02*
X148822628Y-105592666D01*
X148822628Y-105592666D02*
X148822628Y-105211714D01*
X149298819Y-106735523D02*
X149298819Y-106164095D01*
X149298819Y-106449809D02*
X148298819Y-106449809D01*
X148298819Y-106449809D02*
X148441676Y-106354571D01*
X148441676Y-106354571D02*
X148536914Y-106259333D01*
X148536914Y-106259333D02*
X148584533Y-106164095D01*
X148394057Y-107116476D02*
X148346438Y-107164095D01*
X148346438Y-107164095D02*
X148298819Y-107259333D01*
X148298819Y-107259333D02*
X148298819Y-107497428D01*
X148298819Y-107497428D02*
X148346438Y-107592666D01*
X148346438Y-107592666D02*
X148394057Y-107640285D01*
X148394057Y-107640285D02*
X148489295Y-107687904D01*
X148489295Y-107687904D02*
X148584533Y-107687904D01*
X148584533Y-107687904D02*
X148727390Y-107640285D01*
X148727390Y-107640285D02*
X149298819Y-107068857D01*
X149298819Y-107068857D02*
X149298819Y-107687904D01*
X191428666Y-127359580D02*
X191476285Y-127407200D01*
X191476285Y-127407200D02*
X191619142Y-127454819D01*
X191619142Y-127454819D02*
X191714380Y-127454819D01*
X191714380Y-127454819D02*
X191857237Y-127407200D01*
X191857237Y-127407200D02*
X191952475Y-127311961D01*
X191952475Y-127311961D02*
X192000094Y-127216723D01*
X192000094Y-127216723D02*
X192047713Y-127026247D01*
X192047713Y-127026247D02*
X192047713Y-126883390D01*
X192047713Y-126883390D02*
X192000094Y-126692914D01*
X192000094Y-126692914D02*
X191952475Y-126597676D01*
X191952475Y-126597676D02*
X191857237Y-126502438D01*
X191857237Y-126502438D02*
X191714380Y-126454819D01*
X191714380Y-126454819D02*
X191619142Y-126454819D01*
X191619142Y-126454819D02*
X191476285Y-126502438D01*
X191476285Y-126502438D02*
X191428666Y-126550057D01*
X190476285Y-127454819D02*
X191047713Y-127454819D01*
X190761999Y-127454819D02*
X190761999Y-126454819D01*
X190761999Y-126454819D02*
X190857237Y-126597676D01*
X190857237Y-126597676D02*
X190952475Y-126692914D01*
X190952475Y-126692914D02*
X191047713Y-126740533D01*
X123832857Y-67510819D02*
X124166190Y-67034628D01*
X124404285Y-67510819D02*
X124404285Y-66510819D01*
X124404285Y-66510819D02*
X124023333Y-66510819D01*
X124023333Y-66510819D02*
X123928095Y-66558438D01*
X123928095Y-66558438D02*
X123880476Y-66606057D01*
X123880476Y-66606057D02*
X123832857Y-66701295D01*
X123832857Y-66701295D02*
X123832857Y-66844152D01*
X123832857Y-66844152D02*
X123880476Y-66939390D01*
X123880476Y-66939390D02*
X123928095Y-66987009D01*
X123928095Y-66987009D02*
X124023333Y-67034628D01*
X124023333Y-67034628D02*
X124404285Y-67034628D01*
X123451904Y-66606057D02*
X123404285Y-66558438D01*
X123404285Y-66558438D02*
X123309047Y-66510819D01*
X123309047Y-66510819D02*
X123070952Y-66510819D01*
X123070952Y-66510819D02*
X122975714Y-66558438D01*
X122975714Y-66558438D02*
X122928095Y-66606057D01*
X122928095Y-66606057D02*
X122880476Y-66701295D01*
X122880476Y-66701295D02*
X122880476Y-66796533D01*
X122880476Y-66796533D02*
X122928095Y-66939390D01*
X122928095Y-66939390D02*
X123499523Y-67510819D01*
X123499523Y-67510819D02*
X122880476Y-67510819D01*
X121928095Y-67510819D02*
X122499523Y-67510819D01*
X122213809Y-67510819D02*
X122213809Y-66510819D01*
X122213809Y-66510819D02*
X122309047Y-66653676D01*
X122309047Y-66653676D02*
X122404285Y-66748914D01*
X122404285Y-66748914D02*
X122499523Y-66796533D01*
X110960819Y-116840095D02*
X111770342Y-116840095D01*
X111770342Y-116840095D02*
X111865580Y-116887714D01*
X111865580Y-116887714D02*
X111913200Y-116935333D01*
X111913200Y-116935333D02*
X111960819Y-117030571D01*
X111960819Y-117030571D02*
X111960819Y-117221047D01*
X111960819Y-117221047D02*
X111913200Y-117316285D01*
X111913200Y-117316285D02*
X111865580Y-117363904D01*
X111865580Y-117363904D02*
X111770342Y-117411523D01*
X111770342Y-117411523D02*
X110960819Y-117411523D01*
X111960819Y-118411523D02*
X111960819Y-117840095D01*
X111960819Y-118125809D02*
X110960819Y-118125809D01*
X110960819Y-118125809D02*
X111103676Y-118030571D01*
X111103676Y-118030571D02*
X111198914Y-117935333D01*
X111198914Y-117935333D02*
X111246533Y-117840095D01*
X154378819Y-105783142D02*
X153902628Y-105449809D01*
X154378819Y-105211714D02*
X153378819Y-105211714D01*
X153378819Y-105211714D02*
X153378819Y-105592666D01*
X153378819Y-105592666D02*
X153426438Y-105687904D01*
X153426438Y-105687904D02*
X153474057Y-105735523D01*
X153474057Y-105735523D02*
X153569295Y-105783142D01*
X153569295Y-105783142D02*
X153712152Y-105783142D01*
X153712152Y-105783142D02*
X153807390Y-105735523D01*
X153807390Y-105735523D02*
X153855009Y-105687904D01*
X153855009Y-105687904D02*
X153902628Y-105592666D01*
X153902628Y-105592666D02*
X153902628Y-105211714D01*
X154378819Y-106735523D02*
X154378819Y-106164095D01*
X154378819Y-106449809D02*
X153378819Y-106449809D01*
X153378819Y-106449809D02*
X153521676Y-106354571D01*
X153521676Y-106354571D02*
X153616914Y-106259333D01*
X153616914Y-106259333D02*
X153664533Y-106164095D01*
X153378819Y-107354571D02*
X153378819Y-107449809D01*
X153378819Y-107449809D02*
X153426438Y-107545047D01*
X153426438Y-107545047D02*
X153474057Y-107592666D01*
X153474057Y-107592666D02*
X153569295Y-107640285D01*
X153569295Y-107640285D02*
X153759771Y-107687904D01*
X153759771Y-107687904D02*
X153997866Y-107687904D01*
X153997866Y-107687904D02*
X154188342Y-107640285D01*
X154188342Y-107640285D02*
X154283580Y-107592666D01*
X154283580Y-107592666D02*
X154331200Y-107545047D01*
X154331200Y-107545047D02*
X154378819Y-107449809D01*
X154378819Y-107449809D02*
X154378819Y-107354571D01*
X154378819Y-107354571D02*
X154331200Y-107259333D01*
X154331200Y-107259333D02*
X154283580Y-107211714D01*
X154283580Y-107211714D02*
X154188342Y-107164095D01*
X154188342Y-107164095D02*
X153997866Y-107116476D01*
X153997866Y-107116476D02*
X153759771Y-107116476D01*
X153759771Y-107116476D02*
X153569295Y-107164095D01*
X153569295Y-107164095D02*
X153474057Y-107211714D01*
X153474057Y-107211714D02*
X153426438Y-107259333D01*
X153426438Y-107259333D02*
X153378819Y-107354571D01*
X169340666Y-127369580D02*
X169388285Y-127417200D01*
X169388285Y-127417200D02*
X169531142Y-127464819D01*
X169531142Y-127464819D02*
X169626380Y-127464819D01*
X169626380Y-127464819D02*
X169769237Y-127417200D01*
X169769237Y-127417200D02*
X169864475Y-127321961D01*
X169864475Y-127321961D02*
X169912094Y-127226723D01*
X169912094Y-127226723D02*
X169959713Y-127036247D01*
X169959713Y-127036247D02*
X169959713Y-126893390D01*
X169959713Y-126893390D02*
X169912094Y-126702914D01*
X169912094Y-126702914D02*
X169864475Y-126607676D01*
X169864475Y-126607676D02*
X169769237Y-126512438D01*
X169769237Y-126512438D02*
X169626380Y-126464819D01*
X169626380Y-126464819D02*
X169531142Y-126464819D01*
X169531142Y-126464819D02*
X169388285Y-126512438D01*
X169388285Y-126512438D02*
X169340666Y-126560057D01*
X168959713Y-126560057D02*
X168912094Y-126512438D01*
X168912094Y-126512438D02*
X168816856Y-126464819D01*
X168816856Y-126464819D02*
X168578761Y-126464819D01*
X168578761Y-126464819D02*
X168483523Y-126512438D01*
X168483523Y-126512438D02*
X168435904Y-126560057D01*
X168435904Y-126560057D02*
X168388285Y-126655295D01*
X168388285Y-126655295D02*
X168388285Y-126750533D01*
X168388285Y-126750533D02*
X168435904Y-126893390D01*
X168435904Y-126893390D02*
X169007332Y-127464819D01*
X169007332Y-127464819D02*
X168388285Y-127464819D01*
X96345333Y-68542819D02*
X96345333Y-69257104D01*
X96345333Y-69257104D02*
X96392952Y-69399961D01*
X96392952Y-69399961D02*
X96488190Y-69495200D01*
X96488190Y-69495200D02*
X96631047Y-69542819D01*
X96631047Y-69542819D02*
X96726285Y-69542819D01*
X95916761Y-68638057D02*
X95869142Y-68590438D01*
X95869142Y-68590438D02*
X95773904Y-68542819D01*
X95773904Y-68542819D02*
X95535809Y-68542819D01*
X95535809Y-68542819D02*
X95440571Y-68590438D01*
X95440571Y-68590438D02*
X95392952Y-68638057D01*
X95392952Y-68638057D02*
X95345333Y-68733295D01*
X95345333Y-68733295D02*
X95345333Y-68828533D01*
X95345333Y-68828533D02*
X95392952Y-68971390D01*
X95392952Y-68971390D02*
X95964380Y-69542819D01*
X95964380Y-69542819D02*
X95345333Y-69542819D01*
X151838819Y-105783142D02*
X151362628Y-105449809D01*
X151838819Y-105211714D02*
X150838819Y-105211714D01*
X150838819Y-105211714D02*
X150838819Y-105592666D01*
X150838819Y-105592666D02*
X150886438Y-105687904D01*
X150886438Y-105687904D02*
X150934057Y-105735523D01*
X150934057Y-105735523D02*
X151029295Y-105783142D01*
X151029295Y-105783142D02*
X151172152Y-105783142D01*
X151172152Y-105783142D02*
X151267390Y-105735523D01*
X151267390Y-105735523D02*
X151315009Y-105687904D01*
X151315009Y-105687904D02*
X151362628Y-105592666D01*
X151362628Y-105592666D02*
X151362628Y-105211714D01*
X151838819Y-106735523D02*
X151838819Y-106164095D01*
X151838819Y-106449809D02*
X150838819Y-106449809D01*
X150838819Y-106449809D02*
X150981676Y-106354571D01*
X150981676Y-106354571D02*
X151076914Y-106259333D01*
X151076914Y-106259333D02*
X151124533Y-106164095D01*
X151838819Y-107687904D02*
X151838819Y-107116476D01*
X151838819Y-107402190D02*
X150838819Y-107402190D01*
X150838819Y-107402190D02*
X150981676Y-107306952D01*
X150981676Y-107306952D02*
X151076914Y-107211714D01*
X151076914Y-107211714D02*
X151124533Y-107116476D01*
X179524819Y-105783142D02*
X179048628Y-105449809D01*
X179524819Y-105211714D02*
X178524819Y-105211714D01*
X178524819Y-105211714D02*
X178524819Y-105592666D01*
X178524819Y-105592666D02*
X178572438Y-105687904D01*
X178572438Y-105687904D02*
X178620057Y-105735523D01*
X178620057Y-105735523D02*
X178715295Y-105783142D01*
X178715295Y-105783142D02*
X178858152Y-105783142D01*
X178858152Y-105783142D02*
X178953390Y-105735523D01*
X178953390Y-105735523D02*
X179001009Y-105687904D01*
X179001009Y-105687904D02*
X179048628Y-105592666D01*
X179048628Y-105592666D02*
X179048628Y-105211714D01*
X179524819Y-106735523D02*
X179524819Y-106164095D01*
X179524819Y-106449809D02*
X178524819Y-106449809D01*
X178524819Y-106449809D02*
X178667676Y-106354571D01*
X178667676Y-106354571D02*
X178762914Y-106259333D01*
X178762914Y-106259333D02*
X178810533Y-106164095D01*
X178524819Y-107068857D02*
X178524819Y-107735523D01*
X178524819Y-107735523D02*
X179524819Y-107306952D01*
X152346819Y-86923714D02*
X151346819Y-86923714D01*
X151346819Y-86923714D02*
X151346819Y-87161809D01*
X151346819Y-87161809D02*
X151394438Y-87304666D01*
X151394438Y-87304666D02*
X151489676Y-87399904D01*
X151489676Y-87399904D02*
X151584914Y-87447523D01*
X151584914Y-87447523D02*
X151775390Y-87495142D01*
X151775390Y-87495142D02*
X151918247Y-87495142D01*
X151918247Y-87495142D02*
X152108723Y-87447523D01*
X152108723Y-87447523D02*
X152203961Y-87399904D01*
X152203961Y-87399904D02*
X152299200Y-87304666D01*
X152299200Y-87304666D02*
X152346819Y-87161809D01*
X152346819Y-87161809D02*
X152346819Y-86923714D01*
X152346819Y-88447523D02*
X152346819Y-87876095D01*
X152346819Y-88161809D02*
X151346819Y-88161809D01*
X151346819Y-88161809D02*
X151489676Y-88066571D01*
X151489676Y-88066571D02*
X151584914Y-87971333D01*
X151584914Y-87971333D02*
X151632533Y-87876095D01*
X151346819Y-89066571D02*
X151346819Y-89161809D01*
X151346819Y-89161809D02*
X151394438Y-89257047D01*
X151394438Y-89257047D02*
X151442057Y-89304666D01*
X151442057Y-89304666D02*
X151537295Y-89352285D01*
X151537295Y-89352285D02*
X151727771Y-89399904D01*
X151727771Y-89399904D02*
X151965866Y-89399904D01*
X151965866Y-89399904D02*
X152156342Y-89352285D01*
X152156342Y-89352285D02*
X152251580Y-89304666D01*
X152251580Y-89304666D02*
X152299200Y-89257047D01*
X152299200Y-89257047D02*
X152346819Y-89161809D01*
X152346819Y-89161809D02*
X152346819Y-89066571D01*
X152346819Y-89066571D02*
X152299200Y-88971333D01*
X152299200Y-88971333D02*
X152251580Y-88923714D01*
X152251580Y-88923714D02*
X152156342Y-88876095D01*
X152156342Y-88876095D02*
X151965866Y-88828476D01*
X151965866Y-88828476D02*
X151727771Y-88828476D01*
X151727771Y-88828476D02*
X151537295Y-88876095D01*
X151537295Y-88876095D02*
X151442057Y-88923714D01*
X151442057Y-88923714D02*
X151394438Y-88971333D01*
X151394438Y-88971333D02*
X151346819Y-89066571D01*
X119496981Y-91019333D02*
X119544601Y-90971714D01*
X119544601Y-90971714D02*
X119592220Y-90828857D01*
X119592220Y-90828857D02*
X119592220Y-90733619D01*
X119592220Y-90733619D02*
X119544601Y-90590762D01*
X119544601Y-90590762D02*
X119449362Y-90495524D01*
X119449362Y-90495524D02*
X119354124Y-90447905D01*
X119354124Y-90447905D02*
X119163648Y-90400286D01*
X119163648Y-90400286D02*
X119020791Y-90400286D01*
X119020791Y-90400286D02*
X118830315Y-90447905D01*
X118830315Y-90447905D02*
X118735077Y-90495524D01*
X118735077Y-90495524D02*
X118639839Y-90590762D01*
X118639839Y-90590762D02*
X118592220Y-90733619D01*
X118592220Y-90733619D02*
X118592220Y-90828857D01*
X118592220Y-90828857D02*
X118639839Y-90971714D01*
X118639839Y-90971714D02*
X118687458Y-91019333D01*
X118592220Y-91876476D02*
X118592220Y-91686000D01*
X118592220Y-91686000D02*
X118639839Y-91590762D01*
X118639839Y-91590762D02*
X118687458Y-91543143D01*
X118687458Y-91543143D02*
X118830315Y-91447905D01*
X118830315Y-91447905D02*
X119020791Y-91400286D01*
X119020791Y-91400286D02*
X119401743Y-91400286D01*
X119401743Y-91400286D02*
X119496981Y-91447905D01*
X119496981Y-91447905D02*
X119544601Y-91495524D01*
X119544601Y-91495524D02*
X119592220Y-91590762D01*
X119592220Y-91590762D02*
X119592220Y-91781238D01*
X119592220Y-91781238D02*
X119544601Y-91876476D01*
X119544601Y-91876476D02*
X119496981Y-91924095D01*
X119496981Y-91924095D02*
X119401743Y-91971714D01*
X119401743Y-91971714D02*
X119163648Y-91971714D01*
X119163648Y-91971714D02*
X119068410Y-91924095D01*
X119068410Y-91924095D02*
X119020791Y-91876476D01*
X119020791Y-91876476D02*
X118973172Y-91781238D01*
X118973172Y-91781238D02*
X118973172Y-91590762D01*
X118973172Y-91590762D02*
X119020791Y-91495524D01*
X119020791Y-91495524D02*
X119068410Y-91447905D01*
X119068410Y-91447905D02*
X119163648Y-91400286D01*
X167586819Y-87399905D02*
X166586819Y-87399905D01*
X166586819Y-87399905D02*
X166586819Y-87638000D01*
X166586819Y-87638000D02*
X166634438Y-87780857D01*
X166634438Y-87780857D02*
X166729676Y-87876095D01*
X166729676Y-87876095D02*
X166824914Y-87923714D01*
X166824914Y-87923714D02*
X167015390Y-87971333D01*
X167015390Y-87971333D02*
X167158247Y-87971333D01*
X167158247Y-87971333D02*
X167348723Y-87923714D01*
X167348723Y-87923714D02*
X167443961Y-87876095D01*
X167443961Y-87876095D02*
X167539200Y-87780857D01*
X167539200Y-87780857D02*
X167586819Y-87638000D01*
X167586819Y-87638000D02*
X167586819Y-87399905D01*
X167015390Y-88542762D02*
X166967771Y-88447524D01*
X166967771Y-88447524D02*
X166920152Y-88399905D01*
X166920152Y-88399905D02*
X166824914Y-88352286D01*
X166824914Y-88352286D02*
X166777295Y-88352286D01*
X166777295Y-88352286D02*
X166682057Y-88399905D01*
X166682057Y-88399905D02*
X166634438Y-88447524D01*
X166634438Y-88447524D02*
X166586819Y-88542762D01*
X166586819Y-88542762D02*
X166586819Y-88733238D01*
X166586819Y-88733238D02*
X166634438Y-88828476D01*
X166634438Y-88828476D02*
X166682057Y-88876095D01*
X166682057Y-88876095D02*
X166777295Y-88923714D01*
X166777295Y-88923714D02*
X166824914Y-88923714D01*
X166824914Y-88923714D02*
X166920152Y-88876095D01*
X166920152Y-88876095D02*
X166967771Y-88828476D01*
X166967771Y-88828476D02*
X167015390Y-88733238D01*
X167015390Y-88733238D02*
X167015390Y-88542762D01*
X167015390Y-88542762D02*
X167063009Y-88447524D01*
X167063009Y-88447524D02*
X167110628Y-88399905D01*
X167110628Y-88399905D02*
X167205866Y-88352286D01*
X167205866Y-88352286D02*
X167396342Y-88352286D01*
X167396342Y-88352286D02*
X167491580Y-88399905D01*
X167491580Y-88399905D02*
X167539200Y-88447524D01*
X167539200Y-88447524D02*
X167586819Y-88542762D01*
X167586819Y-88542762D02*
X167586819Y-88733238D01*
X167586819Y-88733238D02*
X167539200Y-88828476D01*
X167539200Y-88828476D02*
X167491580Y-88876095D01*
X167491580Y-88876095D02*
X167396342Y-88923714D01*
X167396342Y-88923714D02*
X167205866Y-88923714D01*
X167205866Y-88923714D02*
X167110628Y-88876095D01*
X167110628Y-88876095D02*
X167063009Y-88828476D01*
X167063009Y-88828476D02*
X167015390Y-88733238D01*
X167078819Y-106259333D02*
X166602628Y-105926000D01*
X167078819Y-105687905D02*
X166078819Y-105687905D01*
X166078819Y-105687905D02*
X166078819Y-106068857D01*
X166078819Y-106068857D02*
X166126438Y-106164095D01*
X166126438Y-106164095D02*
X166174057Y-106211714D01*
X166174057Y-106211714D02*
X166269295Y-106259333D01*
X166269295Y-106259333D02*
X166412152Y-106259333D01*
X166412152Y-106259333D02*
X166507390Y-106211714D01*
X166507390Y-106211714D02*
X166555009Y-106164095D01*
X166555009Y-106164095D02*
X166602628Y-106068857D01*
X166602628Y-106068857D02*
X166602628Y-105687905D01*
X166078819Y-107164095D02*
X166078819Y-106687905D01*
X166078819Y-106687905D02*
X166555009Y-106640286D01*
X166555009Y-106640286D02*
X166507390Y-106687905D01*
X166507390Y-106687905D02*
X166459771Y-106783143D01*
X166459771Y-106783143D02*
X166459771Y-107021238D01*
X166459771Y-107021238D02*
X166507390Y-107116476D01*
X166507390Y-107116476D02*
X166555009Y-107164095D01*
X166555009Y-107164095D02*
X166650247Y-107211714D01*
X166650247Y-107211714D02*
X166888342Y-107211714D01*
X166888342Y-107211714D02*
X166983580Y-107164095D01*
X166983580Y-107164095D02*
X167031200Y-107116476D01*
X167031200Y-107116476D02*
X167078819Y-107021238D01*
X167078819Y-107021238D02*
X167078819Y-106783143D01*
X167078819Y-106783143D02*
X167031200Y-106687905D01*
X167031200Y-106687905D02*
X166983580Y-106640286D01*
X175206819Y-87399905D02*
X174206819Y-87399905D01*
X174206819Y-87399905D02*
X174206819Y-87638000D01*
X174206819Y-87638000D02*
X174254438Y-87780857D01*
X174254438Y-87780857D02*
X174349676Y-87876095D01*
X174349676Y-87876095D02*
X174444914Y-87923714D01*
X174444914Y-87923714D02*
X174635390Y-87971333D01*
X174635390Y-87971333D02*
X174778247Y-87971333D01*
X174778247Y-87971333D02*
X174968723Y-87923714D01*
X174968723Y-87923714D02*
X175063961Y-87876095D01*
X175063961Y-87876095D02*
X175159200Y-87780857D01*
X175159200Y-87780857D02*
X175206819Y-87638000D01*
X175206819Y-87638000D02*
X175206819Y-87399905D01*
X174206819Y-88304667D02*
X174206819Y-88971333D01*
X174206819Y-88971333D02*
X175206819Y-88542762D01*
X167586819Y-94543714D02*
X166586819Y-94543714D01*
X166586819Y-94543714D02*
X166586819Y-94781809D01*
X166586819Y-94781809D02*
X166634438Y-94924666D01*
X166634438Y-94924666D02*
X166729676Y-95019904D01*
X166729676Y-95019904D02*
X166824914Y-95067523D01*
X166824914Y-95067523D02*
X167015390Y-95115142D01*
X167015390Y-95115142D02*
X167158247Y-95115142D01*
X167158247Y-95115142D02*
X167348723Y-95067523D01*
X167348723Y-95067523D02*
X167443961Y-95019904D01*
X167443961Y-95019904D02*
X167539200Y-94924666D01*
X167539200Y-94924666D02*
X167586819Y-94781809D01*
X167586819Y-94781809D02*
X167586819Y-94543714D01*
X167586819Y-96067523D02*
X167586819Y-95496095D01*
X167586819Y-95781809D02*
X166586819Y-95781809D01*
X166586819Y-95781809D02*
X166729676Y-95686571D01*
X166729676Y-95686571D02*
X166824914Y-95591333D01*
X166824914Y-95591333D02*
X166872533Y-95496095D01*
X166586819Y-96924666D02*
X166586819Y-96734190D01*
X166586819Y-96734190D02*
X166634438Y-96638952D01*
X166634438Y-96638952D02*
X166682057Y-96591333D01*
X166682057Y-96591333D02*
X166824914Y-96496095D01*
X166824914Y-96496095D02*
X167015390Y-96448476D01*
X167015390Y-96448476D02*
X167396342Y-96448476D01*
X167396342Y-96448476D02*
X167491580Y-96496095D01*
X167491580Y-96496095D02*
X167539200Y-96543714D01*
X167539200Y-96543714D02*
X167586819Y-96638952D01*
X167586819Y-96638952D02*
X167586819Y-96829428D01*
X167586819Y-96829428D02*
X167539200Y-96924666D01*
X167539200Y-96924666D02*
X167491580Y-96972285D01*
X167491580Y-96972285D02*
X167396342Y-97019904D01*
X167396342Y-97019904D02*
X167158247Y-97019904D01*
X167158247Y-97019904D02*
X167063009Y-96972285D01*
X167063009Y-96972285D02*
X167015390Y-96924666D01*
X167015390Y-96924666D02*
X166967771Y-96829428D01*
X166967771Y-96829428D02*
X166967771Y-96638952D01*
X166967771Y-96638952D02*
X167015390Y-96543714D01*
X167015390Y-96543714D02*
X167063009Y-96496095D01*
X167063009Y-96496095D02*
X167158247Y-96448476D01*
X161998819Y-106259333D02*
X161522628Y-105926000D01*
X161998819Y-105687905D02*
X160998819Y-105687905D01*
X160998819Y-105687905D02*
X160998819Y-106068857D01*
X160998819Y-106068857D02*
X161046438Y-106164095D01*
X161046438Y-106164095D02*
X161094057Y-106211714D01*
X161094057Y-106211714D02*
X161189295Y-106259333D01*
X161189295Y-106259333D02*
X161332152Y-106259333D01*
X161332152Y-106259333D02*
X161427390Y-106211714D01*
X161427390Y-106211714D02*
X161475009Y-106164095D01*
X161475009Y-106164095D02*
X161522628Y-106068857D01*
X161522628Y-106068857D02*
X161522628Y-105687905D01*
X160998819Y-106592667D02*
X160998819Y-107259333D01*
X160998819Y-107259333D02*
X161998819Y-106830762D01*
X179865904Y-61938819D02*
X179865904Y-62748342D01*
X179865904Y-62748342D02*
X179818285Y-62843580D01*
X179818285Y-62843580D02*
X179770666Y-62891200D01*
X179770666Y-62891200D02*
X179675428Y-62938819D01*
X179675428Y-62938819D02*
X179484952Y-62938819D01*
X179484952Y-62938819D02*
X179389714Y-62891200D01*
X179389714Y-62891200D02*
X179342095Y-62843580D01*
X179342095Y-62843580D02*
X179294476Y-62748342D01*
X179294476Y-62748342D02*
X179294476Y-61938819D01*
X178342095Y-61938819D02*
X178818285Y-61938819D01*
X178818285Y-61938819D02*
X178865904Y-62415009D01*
X178865904Y-62415009D02*
X178818285Y-62367390D01*
X178818285Y-62367390D02*
X178723047Y-62319771D01*
X178723047Y-62319771D02*
X178484952Y-62319771D01*
X178484952Y-62319771D02*
X178389714Y-62367390D01*
X178389714Y-62367390D02*
X178342095Y-62415009D01*
X178342095Y-62415009D02*
X178294476Y-62510247D01*
X178294476Y-62510247D02*
X178294476Y-62748342D01*
X178294476Y-62748342D02*
X178342095Y-62843580D01*
X178342095Y-62843580D02*
X178389714Y-62891200D01*
X178389714Y-62891200D02*
X178484952Y-62938819D01*
X178484952Y-62938819D02*
X178723047Y-62938819D01*
X178723047Y-62938819D02*
X178818285Y-62891200D01*
X178818285Y-62891200D02*
X178865904Y-62843580D01*
X182826819Y-94543714D02*
X181826819Y-94543714D01*
X181826819Y-94543714D02*
X181826819Y-94781809D01*
X181826819Y-94781809D02*
X181874438Y-94924666D01*
X181874438Y-94924666D02*
X181969676Y-95019904D01*
X181969676Y-95019904D02*
X182064914Y-95067523D01*
X182064914Y-95067523D02*
X182255390Y-95115142D01*
X182255390Y-95115142D02*
X182398247Y-95115142D01*
X182398247Y-95115142D02*
X182588723Y-95067523D01*
X182588723Y-95067523D02*
X182683961Y-95019904D01*
X182683961Y-95019904D02*
X182779200Y-94924666D01*
X182779200Y-94924666D02*
X182826819Y-94781809D01*
X182826819Y-94781809D02*
X182826819Y-94543714D01*
X182826819Y-96067523D02*
X182826819Y-95496095D01*
X182826819Y-95781809D02*
X181826819Y-95781809D01*
X181826819Y-95781809D02*
X181969676Y-95686571D01*
X181969676Y-95686571D02*
X182064914Y-95591333D01*
X182064914Y-95591333D02*
X182112533Y-95496095D01*
X182160152Y-96924666D02*
X182826819Y-96924666D01*
X181779200Y-96686571D02*
X182493485Y-96448476D01*
X182493485Y-96448476D02*
X182493485Y-97067523D01*
X113246819Y-98806095D02*
X114056342Y-98806095D01*
X114056342Y-98806095D02*
X114151580Y-98853714D01*
X114151580Y-98853714D02*
X114199200Y-98901333D01*
X114199200Y-98901333D02*
X114246819Y-98996571D01*
X114246819Y-98996571D02*
X114246819Y-99187047D01*
X114246819Y-99187047D02*
X114199200Y-99282285D01*
X114199200Y-99282285D02*
X114151580Y-99329904D01*
X114151580Y-99329904D02*
X114056342Y-99377523D01*
X114056342Y-99377523D02*
X113246819Y-99377523D01*
X113246819Y-99758476D02*
X113246819Y-100425142D01*
X113246819Y-100425142D02*
X114246819Y-99996571D01*
X176984819Y-105783142D02*
X176508628Y-105449809D01*
X176984819Y-105211714D02*
X175984819Y-105211714D01*
X175984819Y-105211714D02*
X175984819Y-105592666D01*
X175984819Y-105592666D02*
X176032438Y-105687904D01*
X176032438Y-105687904D02*
X176080057Y-105735523D01*
X176080057Y-105735523D02*
X176175295Y-105783142D01*
X176175295Y-105783142D02*
X176318152Y-105783142D01*
X176318152Y-105783142D02*
X176413390Y-105735523D01*
X176413390Y-105735523D02*
X176461009Y-105687904D01*
X176461009Y-105687904D02*
X176508628Y-105592666D01*
X176508628Y-105592666D02*
X176508628Y-105211714D01*
X176984819Y-106735523D02*
X176984819Y-106164095D01*
X176984819Y-106449809D02*
X175984819Y-106449809D01*
X175984819Y-106449809D02*
X176127676Y-106354571D01*
X176127676Y-106354571D02*
X176222914Y-106259333D01*
X176222914Y-106259333D02*
X176270533Y-106164095D01*
X176413390Y-107306952D02*
X176365771Y-107211714D01*
X176365771Y-107211714D02*
X176318152Y-107164095D01*
X176318152Y-107164095D02*
X176222914Y-107116476D01*
X176222914Y-107116476D02*
X176175295Y-107116476D01*
X176175295Y-107116476D02*
X176080057Y-107164095D01*
X176080057Y-107164095D02*
X176032438Y-107211714D01*
X176032438Y-107211714D02*
X175984819Y-107306952D01*
X175984819Y-107306952D02*
X175984819Y-107497428D01*
X175984819Y-107497428D02*
X176032438Y-107592666D01*
X176032438Y-107592666D02*
X176080057Y-107640285D01*
X176080057Y-107640285D02*
X176175295Y-107687904D01*
X176175295Y-107687904D02*
X176222914Y-107687904D01*
X176222914Y-107687904D02*
X176318152Y-107640285D01*
X176318152Y-107640285D02*
X176365771Y-107592666D01*
X176365771Y-107592666D02*
X176413390Y-107497428D01*
X176413390Y-107497428D02*
X176413390Y-107306952D01*
X176413390Y-107306952D02*
X176461009Y-107211714D01*
X176461009Y-107211714D02*
X176508628Y-107164095D01*
X176508628Y-107164095D02*
X176603866Y-107116476D01*
X176603866Y-107116476D02*
X176794342Y-107116476D01*
X176794342Y-107116476D02*
X176889580Y-107164095D01*
X176889580Y-107164095D02*
X176937200Y-107211714D01*
X176937200Y-107211714D02*
X176984819Y-107306952D01*
X176984819Y-107306952D02*
X176984819Y-107497428D01*
X176984819Y-107497428D02*
X176937200Y-107592666D01*
X176937200Y-107592666D02*
X176889580Y-107640285D01*
X176889580Y-107640285D02*
X176794342Y-107687904D01*
X176794342Y-107687904D02*
X176603866Y-107687904D01*
X176603866Y-107687904D02*
X176508628Y-107640285D01*
X176508628Y-107640285D02*
X176461009Y-107592666D01*
X176461009Y-107592666D02*
X176413390Y-107497428D01*
X182826819Y-87399905D02*
X181826819Y-87399905D01*
X181826819Y-87399905D02*
X181826819Y-87638000D01*
X181826819Y-87638000D02*
X181874438Y-87780857D01*
X181874438Y-87780857D02*
X181969676Y-87876095D01*
X181969676Y-87876095D02*
X182064914Y-87923714D01*
X182064914Y-87923714D02*
X182255390Y-87971333D01*
X182255390Y-87971333D02*
X182398247Y-87971333D01*
X182398247Y-87971333D02*
X182588723Y-87923714D01*
X182588723Y-87923714D02*
X182683961Y-87876095D01*
X182683961Y-87876095D02*
X182779200Y-87780857D01*
X182779200Y-87780857D02*
X182826819Y-87638000D01*
X182826819Y-87638000D02*
X182826819Y-87399905D01*
X181826819Y-88828476D02*
X181826819Y-88638000D01*
X181826819Y-88638000D02*
X181874438Y-88542762D01*
X181874438Y-88542762D02*
X181922057Y-88495143D01*
X181922057Y-88495143D02*
X182064914Y-88399905D01*
X182064914Y-88399905D02*
X182255390Y-88352286D01*
X182255390Y-88352286D02*
X182636342Y-88352286D01*
X182636342Y-88352286D02*
X182731580Y-88399905D01*
X182731580Y-88399905D02*
X182779200Y-88447524D01*
X182779200Y-88447524D02*
X182826819Y-88542762D01*
X182826819Y-88542762D02*
X182826819Y-88733238D01*
X182826819Y-88733238D02*
X182779200Y-88828476D01*
X182779200Y-88828476D02*
X182731580Y-88876095D01*
X182731580Y-88876095D02*
X182636342Y-88923714D01*
X182636342Y-88923714D02*
X182398247Y-88923714D01*
X182398247Y-88923714D02*
X182303009Y-88876095D01*
X182303009Y-88876095D02*
X182255390Y-88828476D01*
X182255390Y-88828476D02*
X182207771Y-88733238D01*
X182207771Y-88733238D02*
X182207771Y-88542762D01*
X182207771Y-88542762D02*
X182255390Y-88447524D01*
X182255390Y-88447524D02*
X182303009Y-88399905D01*
X182303009Y-88399905D02*
X182398247Y-88352286D01*
X159932666Y-60906819D02*
X160265999Y-60430628D01*
X160504094Y-60906819D02*
X160504094Y-59906819D01*
X160504094Y-59906819D02*
X160123142Y-59906819D01*
X160123142Y-59906819D02*
X160027904Y-59954438D01*
X160027904Y-59954438D02*
X159980285Y-60002057D01*
X159980285Y-60002057D02*
X159932666Y-60097295D01*
X159932666Y-60097295D02*
X159932666Y-60240152D01*
X159932666Y-60240152D02*
X159980285Y-60335390D01*
X159980285Y-60335390D02*
X160027904Y-60383009D01*
X160027904Y-60383009D02*
X160123142Y-60430628D01*
X160123142Y-60430628D02*
X160504094Y-60430628D01*
X159551713Y-60002057D02*
X159504094Y-59954438D01*
X159504094Y-59954438D02*
X159408856Y-59906819D01*
X159408856Y-59906819D02*
X159170761Y-59906819D01*
X159170761Y-59906819D02*
X159075523Y-59954438D01*
X159075523Y-59954438D02*
X159027904Y-60002057D01*
X159027904Y-60002057D02*
X158980285Y-60097295D01*
X158980285Y-60097295D02*
X158980285Y-60192533D01*
X158980285Y-60192533D02*
X159027904Y-60335390D01*
X159027904Y-60335390D02*
X159599332Y-60906819D01*
X159599332Y-60906819D02*
X158980285Y-60906819D01*
X112855333Y-106912819D02*
X112855333Y-107627104D01*
X112855333Y-107627104D02*
X112902952Y-107769961D01*
X112902952Y-107769961D02*
X112998190Y-107865200D01*
X112998190Y-107865200D02*
X113141047Y-107912819D01*
X113141047Y-107912819D02*
X113236285Y-107912819D01*
X111902952Y-106912819D02*
X112379142Y-106912819D01*
X112379142Y-106912819D02*
X112426761Y-107389009D01*
X112426761Y-107389009D02*
X112379142Y-107341390D01*
X112379142Y-107341390D02*
X112283904Y-107293771D01*
X112283904Y-107293771D02*
X112045809Y-107293771D01*
X112045809Y-107293771D02*
X111950571Y-107341390D01*
X111950571Y-107341390D02*
X111902952Y-107389009D01*
X111902952Y-107389009D02*
X111855333Y-107484247D01*
X111855333Y-107484247D02*
X111855333Y-107722342D01*
X111855333Y-107722342D02*
X111902952Y-107817580D01*
X111902952Y-107817580D02*
X111950571Y-107865200D01*
X111950571Y-107865200D02*
X112045809Y-107912819D01*
X112045809Y-107912819D02*
X112283904Y-107912819D01*
X112283904Y-107912819D02*
X112379142Y-107865200D01*
X112379142Y-107865200D02*
X112426761Y-107817580D01*
X133068819Y-117348095D02*
X133878342Y-117348095D01*
X133878342Y-117348095D02*
X133973580Y-117395714D01*
X133973580Y-117395714D02*
X134021200Y-117443333D01*
X134021200Y-117443333D02*
X134068819Y-117538571D01*
X134068819Y-117538571D02*
X134068819Y-117729047D01*
X134068819Y-117729047D02*
X134021200Y-117824285D01*
X134021200Y-117824285D02*
X133973580Y-117871904D01*
X133973580Y-117871904D02*
X133878342Y-117919523D01*
X133878342Y-117919523D02*
X133068819Y-117919523D01*
X133402152Y-118824285D02*
X134068819Y-118824285D01*
X133021200Y-118586190D02*
X133735485Y-118348095D01*
X133735485Y-118348095D02*
X133735485Y-118967142D01*
X111704666Y-64875580D02*
X111752285Y-64923200D01*
X111752285Y-64923200D02*
X111895142Y-64970819D01*
X111895142Y-64970819D02*
X111990380Y-64970819D01*
X111990380Y-64970819D02*
X112133237Y-64923200D01*
X112133237Y-64923200D02*
X112228475Y-64827961D01*
X112228475Y-64827961D02*
X112276094Y-64732723D01*
X112276094Y-64732723D02*
X112323713Y-64542247D01*
X112323713Y-64542247D02*
X112323713Y-64399390D01*
X112323713Y-64399390D02*
X112276094Y-64208914D01*
X112276094Y-64208914D02*
X112228475Y-64113676D01*
X112228475Y-64113676D02*
X112133237Y-64018438D01*
X112133237Y-64018438D02*
X111990380Y-63970819D01*
X111990380Y-63970819D02*
X111895142Y-63970819D01*
X111895142Y-63970819D02*
X111752285Y-64018438D01*
X111752285Y-64018438D02*
X111704666Y-64066057D01*
X110799904Y-63970819D02*
X111276094Y-63970819D01*
X111276094Y-63970819D02*
X111323713Y-64447009D01*
X111323713Y-64447009D02*
X111276094Y-64399390D01*
X111276094Y-64399390D02*
X111180856Y-64351771D01*
X111180856Y-64351771D02*
X110942761Y-64351771D01*
X110942761Y-64351771D02*
X110847523Y-64399390D01*
X110847523Y-64399390D02*
X110799904Y-64447009D01*
X110799904Y-64447009D02*
X110752285Y-64542247D01*
X110752285Y-64542247D02*
X110752285Y-64780342D01*
X110752285Y-64780342D02*
X110799904Y-64875580D01*
X110799904Y-64875580D02*
X110847523Y-64923200D01*
X110847523Y-64923200D02*
X110942761Y-64970819D01*
X110942761Y-64970819D02*
X111180856Y-64970819D01*
X111180856Y-64970819D02*
X111276094Y-64923200D01*
X111276094Y-64923200D02*
X111323713Y-64875580D01*
X107775333Y-50762819D02*
X107775333Y-51477104D01*
X107775333Y-51477104D02*
X107822952Y-51619961D01*
X107822952Y-51619961D02*
X107918190Y-51715200D01*
X107918190Y-51715200D02*
X108061047Y-51762819D01*
X108061047Y-51762819D02*
X108156285Y-51762819D01*
X107251523Y-51762819D02*
X107061047Y-51762819D01*
X107061047Y-51762819D02*
X106965809Y-51715200D01*
X106965809Y-51715200D02*
X106918190Y-51667580D01*
X106918190Y-51667580D02*
X106822952Y-51524723D01*
X106822952Y-51524723D02*
X106775333Y-51334247D01*
X106775333Y-51334247D02*
X106775333Y-50953295D01*
X106775333Y-50953295D02*
X106822952Y-50858057D01*
X106822952Y-50858057D02*
X106870571Y-50810438D01*
X106870571Y-50810438D02*
X106965809Y-50762819D01*
X106965809Y-50762819D02*
X107156285Y-50762819D01*
X107156285Y-50762819D02*
X107251523Y-50810438D01*
X107251523Y-50810438D02*
X107299142Y-50858057D01*
X107299142Y-50858057D02*
X107346761Y-50953295D01*
X107346761Y-50953295D02*
X107346761Y-51191390D01*
X107346761Y-51191390D02*
X107299142Y-51286628D01*
X107299142Y-51286628D02*
X107251523Y-51334247D01*
X107251523Y-51334247D02*
X107156285Y-51381866D01*
X107156285Y-51381866D02*
X106965809Y-51381866D01*
X106965809Y-51381866D02*
X106870571Y-51334247D01*
X106870571Y-51334247D02*
X106822952Y-51286628D01*
X106822952Y-51286628D02*
X106775333Y-51191390D01*
X184604819Y-105783142D02*
X184128628Y-105449809D01*
X184604819Y-105211714D02*
X183604819Y-105211714D01*
X183604819Y-105211714D02*
X183604819Y-105592666D01*
X183604819Y-105592666D02*
X183652438Y-105687904D01*
X183652438Y-105687904D02*
X183700057Y-105735523D01*
X183700057Y-105735523D02*
X183795295Y-105783142D01*
X183795295Y-105783142D02*
X183938152Y-105783142D01*
X183938152Y-105783142D02*
X184033390Y-105735523D01*
X184033390Y-105735523D02*
X184081009Y-105687904D01*
X184081009Y-105687904D02*
X184128628Y-105592666D01*
X184128628Y-105592666D02*
X184128628Y-105211714D01*
X184604819Y-106735523D02*
X184604819Y-106164095D01*
X184604819Y-106449809D02*
X183604819Y-106449809D01*
X183604819Y-106449809D02*
X183747676Y-106354571D01*
X183747676Y-106354571D02*
X183842914Y-106259333D01*
X183842914Y-106259333D02*
X183890533Y-106164095D01*
X183604819Y-107640285D02*
X183604819Y-107164095D01*
X183604819Y-107164095D02*
X184081009Y-107116476D01*
X184081009Y-107116476D02*
X184033390Y-107164095D01*
X184033390Y-107164095D02*
X183985771Y-107259333D01*
X183985771Y-107259333D02*
X183985771Y-107497428D01*
X183985771Y-107497428D02*
X184033390Y-107592666D01*
X184033390Y-107592666D02*
X184081009Y-107640285D01*
X184081009Y-107640285D02*
X184176247Y-107687904D01*
X184176247Y-107687904D02*
X184414342Y-107687904D01*
X184414342Y-107687904D02*
X184509580Y-107640285D01*
X184509580Y-107640285D02*
X184557200Y-107592666D01*
X184557200Y-107592666D02*
X184604819Y-107497428D01*
X184604819Y-107497428D02*
X184604819Y-107259333D01*
X184604819Y-107259333D02*
X184557200Y-107164095D01*
X184557200Y-107164095D02*
X184509580Y-107116476D01*
X182064819Y-105783142D02*
X181588628Y-105449809D01*
X182064819Y-105211714D02*
X181064819Y-105211714D01*
X181064819Y-105211714D02*
X181064819Y-105592666D01*
X181064819Y-105592666D02*
X181112438Y-105687904D01*
X181112438Y-105687904D02*
X181160057Y-105735523D01*
X181160057Y-105735523D02*
X181255295Y-105783142D01*
X181255295Y-105783142D02*
X181398152Y-105783142D01*
X181398152Y-105783142D02*
X181493390Y-105735523D01*
X181493390Y-105735523D02*
X181541009Y-105687904D01*
X181541009Y-105687904D02*
X181588628Y-105592666D01*
X181588628Y-105592666D02*
X181588628Y-105211714D01*
X182064819Y-106735523D02*
X182064819Y-106164095D01*
X182064819Y-106449809D02*
X181064819Y-106449809D01*
X181064819Y-106449809D02*
X181207676Y-106354571D01*
X181207676Y-106354571D02*
X181302914Y-106259333D01*
X181302914Y-106259333D02*
X181350533Y-106164095D01*
X181064819Y-107592666D02*
X181064819Y-107402190D01*
X181064819Y-107402190D02*
X181112438Y-107306952D01*
X181112438Y-107306952D02*
X181160057Y-107259333D01*
X181160057Y-107259333D02*
X181302914Y-107164095D01*
X181302914Y-107164095D02*
X181493390Y-107116476D01*
X181493390Y-107116476D02*
X181874342Y-107116476D01*
X181874342Y-107116476D02*
X181969580Y-107164095D01*
X181969580Y-107164095D02*
X182017200Y-107211714D01*
X182017200Y-107211714D02*
X182064819Y-107306952D01*
X182064819Y-107306952D02*
X182064819Y-107497428D01*
X182064819Y-107497428D02*
X182017200Y-107592666D01*
X182017200Y-107592666D02*
X181969580Y-107640285D01*
X181969580Y-107640285D02*
X181874342Y-107687904D01*
X181874342Y-107687904D02*
X181636247Y-107687904D01*
X181636247Y-107687904D02*
X181541009Y-107640285D01*
X181541009Y-107640285D02*
X181493390Y-107592666D01*
X181493390Y-107592666D02*
X181445771Y-107497428D01*
X181445771Y-107497428D02*
X181445771Y-107306952D01*
X181445771Y-107306952D02*
X181493390Y-107211714D01*
X181493390Y-107211714D02*
X181541009Y-107164095D01*
X181541009Y-107164095D02*
X181636247Y-107116476D01*
X96345333Y-104372819D02*
X96345333Y-105087104D01*
X96345333Y-105087104D02*
X96392952Y-105229961D01*
X96392952Y-105229961D02*
X96488190Y-105325200D01*
X96488190Y-105325200D02*
X96631047Y-105372819D01*
X96631047Y-105372819D02*
X96726285Y-105372819D01*
X95964380Y-104372819D02*
X95297714Y-104372819D01*
X95297714Y-104372819D02*
X95726285Y-105372819D01*
X112855333Y-81242819D02*
X112855333Y-81957104D01*
X112855333Y-81957104D02*
X112902952Y-82099961D01*
X112902952Y-82099961D02*
X112998190Y-82195200D01*
X112998190Y-82195200D02*
X113141047Y-82242819D01*
X113141047Y-82242819D02*
X113236285Y-82242819D01*
X111950571Y-81576152D02*
X111950571Y-82242819D01*
X112188666Y-81195200D02*
X112426761Y-81909485D01*
X112426761Y-81909485D02*
X111807714Y-81909485D01*
X114917333Y-127724819D02*
X114917333Y-128439104D01*
X114917333Y-128439104D02*
X114964952Y-128581961D01*
X114964952Y-128581961D02*
X115060190Y-128677200D01*
X115060190Y-128677200D02*
X115203047Y-128724819D01*
X115203047Y-128724819D02*
X115298285Y-128724819D01*
X114298285Y-128153390D02*
X114393523Y-128105771D01*
X114393523Y-128105771D02*
X114441142Y-128058152D01*
X114441142Y-128058152D02*
X114488761Y-127962914D01*
X114488761Y-127962914D02*
X114488761Y-127915295D01*
X114488761Y-127915295D02*
X114441142Y-127820057D01*
X114441142Y-127820057D02*
X114393523Y-127772438D01*
X114393523Y-127772438D02*
X114298285Y-127724819D01*
X114298285Y-127724819D02*
X114107809Y-127724819D01*
X114107809Y-127724819D02*
X114012571Y-127772438D01*
X114012571Y-127772438D02*
X113964952Y-127820057D01*
X113964952Y-127820057D02*
X113917333Y-127915295D01*
X113917333Y-127915295D02*
X113917333Y-127962914D01*
X113917333Y-127962914D02*
X113964952Y-128058152D01*
X113964952Y-128058152D02*
X114012571Y-128105771D01*
X114012571Y-128105771D02*
X114107809Y-128153390D01*
X114107809Y-128153390D02*
X114298285Y-128153390D01*
X114298285Y-128153390D02*
X114393523Y-128201009D01*
X114393523Y-128201009D02*
X114441142Y-128248628D01*
X114441142Y-128248628D02*
X114488761Y-128343866D01*
X114488761Y-128343866D02*
X114488761Y-128534342D01*
X114488761Y-128534342D02*
X114441142Y-128629580D01*
X114441142Y-128629580D02*
X114393523Y-128677200D01*
X114393523Y-128677200D02*
X114298285Y-128724819D01*
X114298285Y-128724819D02*
X114107809Y-128724819D01*
X114107809Y-128724819D02*
X114012571Y-128677200D01*
X114012571Y-128677200D02*
X113964952Y-128629580D01*
X113964952Y-128629580D02*
X113917333Y-128534342D01*
X113917333Y-128534342D02*
X113917333Y-128343866D01*
X113917333Y-128343866D02*
X113964952Y-128248628D01*
X113964952Y-128248628D02*
X114012571Y-128201009D01*
X114012571Y-128201009D02*
X114107809Y-128153390D01*
X138526819Y-78758905D02*
X137526819Y-78758905D01*
X137526819Y-78758905D02*
X137526819Y-78997000D01*
X137526819Y-78997000D02*
X137574438Y-79139857D01*
X137574438Y-79139857D02*
X137669676Y-79235095D01*
X137669676Y-79235095D02*
X137764914Y-79282714D01*
X137764914Y-79282714D02*
X137955390Y-79330333D01*
X137955390Y-79330333D02*
X138098247Y-79330333D01*
X138098247Y-79330333D02*
X138288723Y-79282714D01*
X138288723Y-79282714D02*
X138383961Y-79235095D01*
X138383961Y-79235095D02*
X138479200Y-79139857D01*
X138479200Y-79139857D02*
X138526819Y-78997000D01*
X138526819Y-78997000D02*
X138526819Y-78758905D01*
X137860152Y-80187476D02*
X138526819Y-80187476D01*
X137479200Y-79949381D02*
X138193485Y-79711286D01*
X138193485Y-79711286D02*
X138193485Y-80330333D01*
X175206819Y-94543714D02*
X174206819Y-94543714D01*
X174206819Y-94543714D02*
X174206819Y-94781809D01*
X174206819Y-94781809D02*
X174254438Y-94924666D01*
X174254438Y-94924666D02*
X174349676Y-95019904D01*
X174349676Y-95019904D02*
X174444914Y-95067523D01*
X174444914Y-95067523D02*
X174635390Y-95115142D01*
X174635390Y-95115142D02*
X174778247Y-95115142D01*
X174778247Y-95115142D02*
X174968723Y-95067523D01*
X174968723Y-95067523D02*
X175063961Y-95019904D01*
X175063961Y-95019904D02*
X175159200Y-94924666D01*
X175159200Y-94924666D02*
X175206819Y-94781809D01*
X175206819Y-94781809D02*
X175206819Y-94543714D01*
X175206819Y-96067523D02*
X175206819Y-95496095D01*
X175206819Y-95781809D02*
X174206819Y-95781809D01*
X174206819Y-95781809D02*
X174349676Y-95686571D01*
X174349676Y-95686571D02*
X174444914Y-95591333D01*
X174444914Y-95591333D02*
X174492533Y-95496095D01*
X174206819Y-96972285D02*
X174206819Y-96496095D01*
X174206819Y-96496095D02*
X174683009Y-96448476D01*
X174683009Y-96448476D02*
X174635390Y-96496095D01*
X174635390Y-96496095D02*
X174587771Y-96591333D01*
X174587771Y-96591333D02*
X174587771Y-96829428D01*
X174587771Y-96829428D02*
X174635390Y-96924666D01*
X174635390Y-96924666D02*
X174683009Y-96972285D01*
X174683009Y-96972285D02*
X174778247Y-97019904D01*
X174778247Y-97019904D02*
X175016342Y-97019904D01*
X175016342Y-97019904D02*
X175111580Y-96972285D01*
X175111580Y-96972285D02*
X175159200Y-96924666D01*
X175159200Y-96924666D02*
X175206819Y-96829428D01*
X175206819Y-96829428D02*
X175206819Y-96591333D01*
X175206819Y-96591333D02*
X175159200Y-96496095D01*
X175159200Y-96496095D02*
X175111580Y-96448476D01*
X159985865Y-63446819D02*
X160319198Y-62970628D01*
X160557293Y-63446819D02*
X160557293Y-62446819D01*
X160557293Y-62446819D02*
X160176341Y-62446819D01*
X160176341Y-62446819D02*
X160081103Y-62494438D01*
X160081103Y-62494438D02*
X160033484Y-62542057D01*
X160033484Y-62542057D02*
X159985865Y-62637295D01*
X159985865Y-62637295D02*
X159985865Y-62780152D01*
X159985865Y-62780152D02*
X160033484Y-62875390D01*
X160033484Y-62875390D02*
X160081103Y-62923009D01*
X160081103Y-62923009D02*
X160176341Y-62970628D01*
X160176341Y-62970628D02*
X160557293Y-62970628D01*
X159652531Y-62446819D02*
X159033484Y-62446819D01*
X159033484Y-62446819D02*
X159366817Y-62827771D01*
X159366817Y-62827771D02*
X159223960Y-62827771D01*
X159223960Y-62827771D02*
X159128722Y-62875390D01*
X159128722Y-62875390D02*
X159081103Y-62923009D01*
X159081103Y-62923009D02*
X159033484Y-63018247D01*
X159033484Y-63018247D02*
X159033484Y-63256342D01*
X159033484Y-63256342D02*
X159081103Y-63351580D01*
X159081103Y-63351580D02*
X159128722Y-63399200D01*
X159128722Y-63399200D02*
X159223960Y-63446819D01*
X159223960Y-63446819D02*
X159509674Y-63446819D01*
X159509674Y-63446819D02*
X159604912Y-63399200D01*
X159604912Y-63399200D02*
X159652531Y-63351580D01*
X138526819Y-55898905D02*
X137526819Y-55898905D01*
X137526819Y-55898905D02*
X137526819Y-56137000D01*
X137526819Y-56137000D02*
X137574438Y-56279857D01*
X137574438Y-56279857D02*
X137669676Y-56375095D01*
X137669676Y-56375095D02*
X137764914Y-56422714D01*
X137764914Y-56422714D02*
X137955390Y-56470333D01*
X137955390Y-56470333D02*
X138098247Y-56470333D01*
X138098247Y-56470333D02*
X138288723Y-56422714D01*
X138288723Y-56422714D02*
X138383961Y-56375095D01*
X138383961Y-56375095D02*
X138479200Y-56279857D01*
X138479200Y-56279857D02*
X138526819Y-56137000D01*
X138526819Y-56137000D02*
X138526819Y-55898905D01*
X138526819Y-57422714D02*
X138526819Y-56851286D01*
X138526819Y-57137000D02*
X137526819Y-57137000D01*
X137526819Y-57137000D02*
X137669676Y-57041762D01*
X137669676Y-57041762D02*
X137764914Y-56946524D01*
X137764914Y-56946524D02*
X137812533Y-56851286D01*
X164538819Y-106259333D02*
X164062628Y-105926000D01*
X164538819Y-105687905D02*
X163538819Y-105687905D01*
X163538819Y-105687905D02*
X163538819Y-106068857D01*
X163538819Y-106068857D02*
X163586438Y-106164095D01*
X163586438Y-106164095D02*
X163634057Y-106211714D01*
X163634057Y-106211714D02*
X163729295Y-106259333D01*
X163729295Y-106259333D02*
X163872152Y-106259333D01*
X163872152Y-106259333D02*
X163967390Y-106211714D01*
X163967390Y-106211714D02*
X164015009Y-106164095D01*
X164015009Y-106164095D02*
X164062628Y-106068857D01*
X164062628Y-106068857D02*
X164062628Y-105687905D01*
X163538819Y-107116476D02*
X163538819Y-106926000D01*
X163538819Y-106926000D02*
X163586438Y-106830762D01*
X163586438Y-106830762D02*
X163634057Y-106783143D01*
X163634057Y-106783143D02*
X163776914Y-106687905D01*
X163776914Y-106687905D02*
X163967390Y-106640286D01*
X163967390Y-106640286D02*
X164348342Y-106640286D01*
X164348342Y-106640286D02*
X164443580Y-106687905D01*
X164443580Y-106687905D02*
X164491200Y-106735524D01*
X164491200Y-106735524D02*
X164538819Y-106830762D01*
X164538819Y-106830762D02*
X164538819Y-107021238D01*
X164538819Y-107021238D02*
X164491200Y-107116476D01*
X164491200Y-107116476D02*
X164443580Y-107164095D01*
X164443580Y-107164095D02*
X164348342Y-107211714D01*
X164348342Y-107211714D02*
X164110247Y-107211714D01*
X164110247Y-107211714D02*
X164015009Y-107164095D01*
X164015009Y-107164095D02*
X163967390Y-107116476D01*
X163967390Y-107116476D02*
X163919771Y-107021238D01*
X163919771Y-107021238D02*
X163919771Y-106830762D01*
X163919771Y-106830762D02*
X163967390Y-106735524D01*
X163967390Y-106735524D02*
X164015009Y-106687905D01*
X164015009Y-106687905D02*
X164110247Y-106640286D01*
X171900819Y-105783142D02*
X171424628Y-105449809D01*
X171900819Y-105211714D02*
X170900819Y-105211714D01*
X170900819Y-105211714D02*
X170900819Y-105592666D01*
X170900819Y-105592666D02*
X170948438Y-105687904D01*
X170948438Y-105687904D02*
X170996057Y-105735523D01*
X170996057Y-105735523D02*
X171091295Y-105783142D01*
X171091295Y-105783142D02*
X171234152Y-105783142D01*
X171234152Y-105783142D02*
X171329390Y-105735523D01*
X171329390Y-105735523D02*
X171377009Y-105687904D01*
X171377009Y-105687904D02*
X171424628Y-105592666D01*
X171424628Y-105592666D02*
X171424628Y-105211714D01*
X170996057Y-106164095D02*
X170948438Y-106211714D01*
X170948438Y-106211714D02*
X170900819Y-106306952D01*
X170900819Y-106306952D02*
X170900819Y-106545047D01*
X170900819Y-106545047D02*
X170948438Y-106640285D01*
X170948438Y-106640285D02*
X170996057Y-106687904D01*
X170996057Y-106687904D02*
X171091295Y-106735523D01*
X171091295Y-106735523D02*
X171186533Y-106735523D01*
X171186533Y-106735523D02*
X171329390Y-106687904D01*
X171329390Y-106687904D02*
X171900819Y-106116476D01*
X171900819Y-106116476D02*
X171900819Y-106735523D01*
X170900819Y-107354571D02*
X170900819Y-107449809D01*
X170900819Y-107449809D02*
X170948438Y-107545047D01*
X170948438Y-107545047D02*
X170996057Y-107592666D01*
X170996057Y-107592666D02*
X171091295Y-107640285D01*
X171091295Y-107640285D02*
X171281771Y-107687904D01*
X171281771Y-107687904D02*
X171519866Y-107687904D01*
X171519866Y-107687904D02*
X171710342Y-107640285D01*
X171710342Y-107640285D02*
X171805580Y-107592666D01*
X171805580Y-107592666D02*
X171853200Y-107545047D01*
X171853200Y-107545047D02*
X171900819Y-107449809D01*
X171900819Y-107449809D02*
X171900819Y-107354571D01*
X171900819Y-107354571D02*
X171853200Y-107259333D01*
X171853200Y-107259333D02*
X171805580Y-107211714D01*
X171805580Y-107211714D02*
X171710342Y-107164095D01*
X171710342Y-107164095D02*
X171519866Y-107116476D01*
X171519866Y-107116476D02*
X171281771Y-107116476D01*
X171281771Y-107116476D02*
X171091295Y-107164095D01*
X171091295Y-107164095D02*
X170996057Y-107211714D01*
X170996057Y-107211714D02*
X170948438Y-107259333D01*
X170948438Y-107259333D02*
X170900819Y-107354571D01*
X174444819Y-105783142D02*
X173968628Y-105449809D01*
X174444819Y-105211714D02*
X173444819Y-105211714D01*
X173444819Y-105211714D02*
X173444819Y-105592666D01*
X173444819Y-105592666D02*
X173492438Y-105687904D01*
X173492438Y-105687904D02*
X173540057Y-105735523D01*
X173540057Y-105735523D02*
X173635295Y-105783142D01*
X173635295Y-105783142D02*
X173778152Y-105783142D01*
X173778152Y-105783142D02*
X173873390Y-105735523D01*
X173873390Y-105735523D02*
X173921009Y-105687904D01*
X173921009Y-105687904D02*
X173968628Y-105592666D01*
X173968628Y-105592666D02*
X173968628Y-105211714D01*
X174444819Y-106735523D02*
X174444819Y-106164095D01*
X174444819Y-106449809D02*
X173444819Y-106449809D01*
X173444819Y-106449809D02*
X173587676Y-106354571D01*
X173587676Y-106354571D02*
X173682914Y-106259333D01*
X173682914Y-106259333D02*
X173730533Y-106164095D01*
X174444819Y-107211714D02*
X174444819Y-107402190D01*
X174444819Y-107402190D02*
X174397200Y-107497428D01*
X174397200Y-107497428D02*
X174349580Y-107545047D01*
X174349580Y-107545047D02*
X174206723Y-107640285D01*
X174206723Y-107640285D02*
X174016247Y-107687904D01*
X174016247Y-107687904D02*
X173635295Y-107687904D01*
X173635295Y-107687904D02*
X173540057Y-107640285D01*
X173540057Y-107640285D02*
X173492438Y-107592666D01*
X173492438Y-107592666D02*
X173444819Y-107497428D01*
X173444819Y-107497428D02*
X173444819Y-107306952D01*
X173444819Y-107306952D02*
X173492438Y-107211714D01*
X173492438Y-107211714D02*
X173540057Y-107164095D01*
X173540057Y-107164095D02*
X173635295Y-107116476D01*
X173635295Y-107116476D02*
X173873390Y-107116476D01*
X173873390Y-107116476D02*
X173968628Y-107164095D01*
X173968628Y-107164095D02*
X174016247Y-107211714D01*
X174016247Y-107211714D02*
X174063866Y-107306952D01*
X174063866Y-107306952D02*
X174063866Y-107497428D01*
X174063866Y-107497428D02*
X174016247Y-107592666D01*
X174016247Y-107592666D02*
X173968628Y-107640285D01*
X173968628Y-107640285D02*
X173873390Y-107687904D01*
X190446819Y-87399905D02*
X189446819Y-87399905D01*
X189446819Y-87399905D02*
X189446819Y-87638000D01*
X189446819Y-87638000D02*
X189494438Y-87780857D01*
X189494438Y-87780857D02*
X189589676Y-87876095D01*
X189589676Y-87876095D02*
X189684914Y-87923714D01*
X189684914Y-87923714D02*
X189875390Y-87971333D01*
X189875390Y-87971333D02*
X190018247Y-87971333D01*
X190018247Y-87971333D02*
X190208723Y-87923714D01*
X190208723Y-87923714D02*
X190303961Y-87876095D01*
X190303961Y-87876095D02*
X190399200Y-87780857D01*
X190399200Y-87780857D02*
X190446819Y-87638000D01*
X190446819Y-87638000D02*
X190446819Y-87399905D01*
X189446819Y-88876095D02*
X189446819Y-88399905D01*
X189446819Y-88399905D02*
X189923009Y-88352286D01*
X189923009Y-88352286D02*
X189875390Y-88399905D01*
X189875390Y-88399905D02*
X189827771Y-88495143D01*
X189827771Y-88495143D02*
X189827771Y-88733238D01*
X189827771Y-88733238D02*
X189875390Y-88828476D01*
X189875390Y-88828476D02*
X189923009Y-88876095D01*
X189923009Y-88876095D02*
X190018247Y-88923714D01*
X190018247Y-88923714D02*
X190256342Y-88923714D01*
X190256342Y-88923714D02*
X190351580Y-88876095D01*
X190351580Y-88876095D02*
X190399200Y-88828476D01*
X190399200Y-88828476D02*
X190446819Y-88733238D01*
X190446819Y-88733238D02*
X190446819Y-88495143D01*
X190446819Y-88495143D02*
X190399200Y-88399905D01*
X190399200Y-88399905D02*
X190351580Y-88352286D01*
X96345333Y-94212819D02*
X96345333Y-94927104D01*
X96345333Y-94927104D02*
X96392952Y-95069961D01*
X96392952Y-95069961D02*
X96488190Y-95165200D01*
X96488190Y-95165200D02*
X96631047Y-95212819D01*
X96631047Y-95212819D02*
X96726285Y-95212819D01*
X95440571Y-94212819D02*
X95631047Y-94212819D01*
X95631047Y-94212819D02*
X95726285Y-94260438D01*
X95726285Y-94260438D02*
X95773904Y-94308057D01*
X95773904Y-94308057D02*
X95869142Y-94450914D01*
X95869142Y-94450914D02*
X95916761Y-94641390D01*
X95916761Y-94641390D02*
X95916761Y-95022342D01*
X95916761Y-95022342D02*
X95869142Y-95117580D01*
X95869142Y-95117580D02*
X95821523Y-95165200D01*
X95821523Y-95165200D02*
X95726285Y-95212819D01*
X95726285Y-95212819D02*
X95535809Y-95212819D01*
X95535809Y-95212819D02*
X95440571Y-95165200D01*
X95440571Y-95165200D02*
X95392952Y-95117580D01*
X95392952Y-95117580D02*
X95345333Y-95022342D01*
X95345333Y-95022342D02*
X95345333Y-94784247D01*
X95345333Y-94784247D02*
X95392952Y-94689009D01*
X95392952Y-94689009D02*
X95440571Y-94641390D01*
X95440571Y-94641390D02*
X95535809Y-94593771D01*
X95535809Y-94593771D02*
X95726285Y-94593771D01*
X95726285Y-94593771D02*
X95821523Y-94641390D01*
X95821523Y-94641390D02*
X95869142Y-94689009D01*
X95869142Y-94689009D02*
X95916761Y-94784247D01*
X122350666Y-109589580D02*
X122398285Y-109637200D01*
X122398285Y-109637200D02*
X122541142Y-109684819D01*
X122541142Y-109684819D02*
X122636380Y-109684819D01*
X122636380Y-109684819D02*
X122779237Y-109637200D01*
X122779237Y-109637200D02*
X122874475Y-109541961D01*
X122874475Y-109541961D02*
X122922094Y-109446723D01*
X122922094Y-109446723D02*
X122969713Y-109256247D01*
X122969713Y-109256247D02*
X122969713Y-109113390D01*
X122969713Y-109113390D02*
X122922094Y-108922914D01*
X122922094Y-108922914D02*
X122874475Y-108827676D01*
X122874475Y-108827676D02*
X122779237Y-108732438D01*
X122779237Y-108732438D02*
X122636380Y-108684819D01*
X122636380Y-108684819D02*
X122541142Y-108684819D01*
X122541142Y-108684819D02*
X122398285Y-108732438D01*
X122398285Y-108732438D02*
X122350666Y-108780057D01*
X122017332Y-108684819D02*
X121398285Y-108684819D01*
X121398285Y-108684819D02*
X121731618Y-109065771D01*
X121731618Y-109065771D02*
X121588761Y-109065771D01*
X121588761Y-109065771D02*
X121493523Y-109113390D01*
X121493523Y-109113390D02*
X121445904Y-109161009D01*
X121445904Y-109161009D02*
X121398285Y-109256247D01*
X121398285Y-109256247D02*
X121398285Y-109494342D01*
X121398285Y-109494342D02*
X121445904Y-109589580D01*
X121445904Y-109589580D02*
X121493523Y-109637200D01*
X121493523Y-109637200D02*
X121588761Y-109684819D01*
X121588761Y-109684819D02*
X121874475Y-109684819D01*
X121874475Y-109684819D02*
X121969713Y-109637200D01*
X121969713Y-109637200D02*
X122017332Y-109589580D01*
X159932666Y-65990819D02*
X160265999Y-65514628D01*
X160504094Y-65990819D02*
X160504094Y-64990819D01*
X160504094Y-64990819D02*
X160123142Y-64990819D01*
X160123142Y-64990819D02*
X160027904Y-65038438D01*
X160027904Y-65038438D02*
X159980285Y-65086057D01*
X159980285Y-65086057D02*
X159932666Y-65181295D01*
X159932666Y-65181295D02*
X159932666Y-65324152D01*
X159932666Y-65324152D02*
X159980285Y-65419390D01*
X159980285Y-65419390D02*
X160027904Y-65467009D01*
X160027904Y-65467009D02*
X160123142Y-65514628D01*
X160123142Y-65514628D02*
X160504094Y-65514628D01*
X159075523Y-65324152D02*
X159075523Y-65990819D01*
X159313618Y-64943200D02*
X159551713Y-65657485D01*
X159551713Y-65657485D02*
X158932666Y-65657485D01*
X159966819Y-87399905D02*
X158966819Y-87399905D01*
X158966819Y-87399905D02*
X158966819Y-87638000D01*
X158966819Y-87638000D02*
X159014438Y-87780857D01*
X159014438Y-87780857D02*
X159109676Y-87876095D01*
X159109676Y-87876095D02*
X159204914Y-87923714D01*
X159204914Y-87923714D02*
X159395390Y-87971333D01*
X159395390Y-87971333D02*
X159538247Y-87971333D01*
X159538247Y-87971333D02*
X159728723Y-87923714D01*
X159728723Y-87923714D02*
X159823961Y-87876095D01*
X159823961Y-87876095D02*
X159919200Y-87780857D01*
X159919200Y-87780857D02*
X159966819Y-87638000D01*
X159966819Y-87638000D02*
X159966819Y-87399905D01*
X159966819Y-88447524D02*
X159966819Y-88638000D01*
X159966819Y-88638000D02*
X159919200Y-88733238D01*
X159919200Y-88733238D02*
X159871580Y-88780857D01*
X159871580Y-88780857D02*
X159728723Y-88876095D01*
X159728723Y-88876095D02*
X159538247Y-88923714D01*
X159538247Y-88923714D02*
X159157295Y-88923714D01*
X159157295Y-88923714D02*
X159062057Y-88876095D01*
X159062057Y-88876095D02*
X159014438Y-88828476D01*
X159014438Y-88828476D02*
X158966819Y-88733238D01*
X158966819Y-88733238D02*
X158966819Y-88542762D01*
X158966819Y-88542762D02*
X159014438Y-88447524D01*
X159014438Y-88447524D02*
X159062057Y-88399905D01*
X159062057Y-88399905D02*
X159157295Y-88352286D01*
X159157295Y-88352286D02*
X159395390Y-88352286D01*
X159395390Y-88352286D02*
X159490628Y-88399905D01*
X159490628Y-88399905D02*
X159538247Y-88447524D01*
X159538247Y-88447524D02*
X159585866Y-88542762D01*
X159585866Y-88542762D02*
X159585866Y-88733238D01*
X159585866Y-88733238D02*
X159538247Y-88828476D01*
X159538247Y-88828476D02*
X159490628Y-88876095D01*
X159490628Y-88876095D02*
X159395390Y-88923714D01*
X156918819Y-106259333D02*
X156442628Y-105926000D01*
X156918819Y-105687905D02*
X155918819Y-105687905D01*
X155918819Y-105687905D02*
X155918819Y-106068857D01*
X155918819Y-106068857D02*
X155966438Y-106164095D01*
X155966438Y-106164095D02*
X156014057Y-106211714D01*
X156014057Y-106211714D02*
X156109295Y-106259333D01*
X156109295Y-106259333D02*
X156252152Y-106259333D01*
X156252152Y-106259333D02*
X156347390Y-106211714D01*
X156347390Y-106211714D02*
X156395009Y-106164095D01*
X156395009Y-106164095D02*
X156442628Y-106068857D01*
X156442628Y-106068857D02*
X156442628Y-105687905D01*
X156918819Y-106735524D02*
X156918819Y-106926000D01*
X156918819Y-106926000D02*
X156871200Y-107021238D01*
X156871200Y-107021238D02*
X156823580Y-107068857D01*
X156823580Y-107068857D02*
X156680723Y-107164095D01*
X156680723Y-107164095D02*
X156490247Y-107211714D01*
X156490247Y-107211714D02*
X156109295Y-107211714D01*
X156109295Y-107211714D02*
X156014057Y-107164095D01*
X156014057Y-107164095D02*
X155966438Y-107116476D01*
X155966438Y-107116476D02*
X155918819Y-107021238D01*
X155918819Y-107021238D02*
X155918819Y-106830762D01*
X155918819Y-106830762D02*
X155966438Y-106735524D01*
X155966438Y-106735524D02*
X156014057Y-106687905D01*
X156014057Y-106687905D02*
X156109295Y-106640286D01*
X156109295Y-106640286D02*
X156347390Y-106640286D01*
X156347390Y-106640286D02*
X156442628Y-106687905D01*
X156442628Y-106687905D02*
X156490247Y-106735524D01*
X156490247Y-106735524D02*
X156537866Y-106830762D01*
X156537866Y-106830762D02*
X156537866Y-107021238D01*
X156537866Y-107021238D02*
X156490247Y-107116476D01*
X156490247Y-107116476D02*
X156442628Y-107164095D01*
X156442628Y-107164095D02*
X156347390Y-107211714D01*
X144726819Y-86923714D02*
X143726819Y-86923714D01*
X143726819Y-86923714D02*
X143726819Y-87161809D01*
X143726819Y-87161809D02*
X143774438Y-87304666D01*
X143774438Y-87304666D02*
X143869676Y-87399904D01*
X143869676Y-87399904D02*
X143964914Y-87447523D01*
X143964914Y-87447523D02*
X144155390Y-87495142D01*
X144155390Y-87495142D02*
X144298247Y-87495142D01*
X144298247Y-87495142D02*
X144488723Y-87447523D01*
X144488723Y-87447523D02*
X144583961Y-87399904D01*
X144583961Y-87399904D02*
X144679200Y-87304666D01*
X144679200Y-87304666D02*
X144726819Y-87161809D01*
X144726819Y-87161809D02*
X144726819Y-86923714D01*
X144726819Y-88447523D02*
X144726819Y-87876095D01*
X144726819Y-88161809D02*
X143726819Y-88161809D01*
X143726819Y-88161809D02*
X143869676Y-88066571D01*
X143869676Y-88066571D02*
X143964914Y-87971333D01*
X143964914Y-87971333D02*
X144012533Y-87876095D01*
X144726819Y-89399904D02*
X144726819Y-88828476D01*
X144726819Y-89114190D02*
X143726819Y-89114190D01*
X143726819Y-89114190D02*
X143869676Y-89018952D01*
X143869676Y-89018952D02*
X143964914Y-88923714D01*
X143964914Y-88923714D02*
X144012533Y-88828476D01*
X113246819Y-73152095D02*
X114056342Y-73152095D01*
X114056342Y-73152095D02*
X114151580Y-73199714D01*
X114151580Y-73199714D02*
X114199200Y-73247333D01*
X114199200Y-73247333D02*
X114246819Y-73342571D01*
X114246819Y-73342571D02*
X114246819Y-73533047D01*
X114246819Y-73533047D02*
X114199200Y-73628285D01*
X114199200Y-73628285D02*
X114151580Y-73675904D01*
X114151580Y-73675904D02*
X114056342Y-73723523D01*
X114056342Y-73723523D02*
X113246819Y-73723523D01*
X113246819Y-74628285D02*
X113246819Y-74437809D01*
X113246819Y-74437809D02*
X113294438Y-74342571D01*
X113294438Y-74342571D02*
X113342057Y-74294952D01*
X113342057Y-74294952D02*
X113484914Y-74199714D01*
X113484914Y-74199714D02*
X113675390Y-74152095D01*
X113675390Y-74152095D02*
X114056342Y-74152095D01*
X114056342Y-74152095D02*
X114151580Y-74199714D01*
X114151580Y-74199714D02*
X114199200Y-74247333D01*
X114199200Y-74247333D02*
X114246819Y-74342571D01*
X114246819Y-74342571D02*
X114246819Y-74533047D01*
X114246819Y-74533047D02*
X114199200Y-74628285D01*
X114199200Y-74628285D02*
X114151580Y-74675904D01*
X114151580Y-74675904D02*
X114056342Y-74723523D01*
X114056342Y-74723523D02*
X113818247Y-74723523D01*
X113818247Y-74723523D02*
X113723009Y-74675904D01*
X113723009Y-74675904D02*
X113675390Y-74628285D01*
X113675390Y-74628285D02*
X113627771Y-74533047D01*
X113627771Y-74533047D02*
X113627771Y-74342571D01*
X113627771Y-74342571D02*
X113675390Y-74247333D01*
X113675390Y-74247333D02*
X113723009Y-74199714D01*
X113723009Y-74199714D02*
X113818247Y-74152095D01*
X187144819Y-105783142D02*
X186668628Y-105449809D01*
X187144819Y-105211714D02*
X186144819Y-105211714D01*
X186144819Y-105211714D02*
X186144819Y-105592666D01*
X186144819Y-105592666D02*
X186192438Y-105687904D01*
X186192438Y-105687904D02*
X186240057Y-105735523D01*
X186240057Y-105735523D02*
X186335295Y-105783142D01*
X186335295Y-105783142D02*
X186478152Y-105783142D01*
X186478152Y-105783142D02*
X186573390Y-105735523D01*
X186573390Y-105735523D02*
X186621009Y-105687904D01*
X186621009Y-105687904D02*
X186668628Y-105592666D01*
X186668628Y-105592666D02*
X186668628Y-105211714D01*
X187144819Y-106735523D02*
X187144819Y-106164095D01*
X187144819Y-106449809D02*
X186144819Y-106449809D01*
X186144819Y-106449809D02*
X186287676Y-106354571D01*
X186287676Y-106354571D02*
X186382914Y-106259333D01*
X186382914Y-106259333D02*
X186430533Y-106164095D01*
X186478152Y-107592666D02*
X187144819Y-107592666D01*
X186097200Y-107354571D02*
X186811485Y-107116476D01*
X186811485Y-107116476D02*
X186811485Y-107735523D01*
M02*
